<svg width="100" height="100" viewBox="0 0 100 100" fill="none" xmlns="http://www.w3.org/2000/svg">
<g clip-path="url(#clip0_20_1389)">
<mask id="mask0_20_1389" style="mask-type:luminance" maskUnits="userSpaceOnUse" x="15" y="9" width="76" height="75">
<path d="M15.4097 9.63848H90.019V83.0444H15.4097V9.63848Z" fill="white"/>
</mask>
<g mask="url(#mask0_20_1389)">
<mask id="mask1_20_1389" style="mask-type:luminance" maskUnits="userSpaceOnUse" x="15" y="9" width="76" height="75">
<path d="M15.4097 9.63848H90.019V83.0444H15.4097V9.63848Z" fill="white"/>
</mask>
<g mask="url(#mask1_20_1389)">
<path fill-rule="evenodd" clip-rule="evenodd" d="M52.7146 81.1124C64.4462 81.166 75.0526 74.1402 79.5792 63.3169C84.1059 52.4935 81.6595 40.0087 73.3828 31.6942C65.106 23.3796 52.6325 20.8764 41.7886 25.3536C30.9448 29.8309 23.8707 40.4051 23.8708 52.1369C23.8533 59.8043 26.8823 67.1645 32.2916 72.5985C37.7008 78.0325 45.0472 81.095 52.7146 81.1124ZM52.7146 83.0444C65.2285 83.1017 76.5421 75.6075 81.3706 64.0625C86.1991 52.5175 83.5897 39.2002 74.7611 30.3313C65.9326 21.4623 52.6273 18.7921 41.0604 23.5678C29.4935 28.3436 21.9477 39.6229 21.9478 52.1369C21.9291 60.3154 25.1601 68.1664 30.93 73.9627C36.6999 79.759 44.536 83.0258 52.7146 83.0444Z" fill="url(#paint0_linear_20_1389)"/>
</g>
<mask id="mask2_20_1389" style="mask-type:luminance" maskUnits="userSpaceOnUse" x="15" y="9" width="76" height="75">
<path d="M15.4097 9.63848H90.019V83.0444H15.4097V9.63848Z" fill="white"/>
</mask>
<g mask="url(#mask2_20_1389)">
<path fill-rule="evenodd" clip-rule="evenodd" d="M46.1765 69.5221C57.9083 69.5767 68.5153 62.5516 73.0428 51.7284C77.5702 40.9052 75.1245 28.42 66.8481 20.1049C58.5717 11.7899 46.0981 9.286 35.2539 13.7629C24.4097 18.2399 17.3353 28.814 17.3352 40.546C17.2989 56.5114 30.211 69.4839 46.1765 69.5221ZM46.1765 71.4541C58.6903 71.5114 70.0039 64.0173 74.8325 52.4723C79.661 40.9274 77.0517 27.6102 68.2233 18.7412C59.3948 9.87215 46.0897 7.20177 34.5227 11.9774C22.9558 16.7529 15.4099 28.032 15.4098 40.546C15.3708 57.577 29.1455 71.415 46.1765 71.4541Z" fill="url(#paint1_linear_20_1389)"/>
</g>
<mask id="mask3_20_1389" style="mask-type:luminance" maskUnits="userSpaceOnUse" x="15" y="9" width="76" height="75">
<path d="M15.4097 9.63848H90.019V83.0444H15.4097V9.63848Z" fill="white"/>
</mask>
<g mask="url(#mask3_20_1389)">
<path fill-rule="evenodd" clip-rule="evenodd" d="M59.2522 69.5221C70.9838 69.5757 81.5901 62.55 86.1168 51.7267C90.6435 40.9034 88.1972 28.4186 79.9206 20.1041C71.644 11.7895 59.1705 9.28607 48.3266 13.7632C37.4828 18.2402 30.4086 28.8142 30.4084 40.546C30.3722 56.5124 43.2858 69.4853 59.2522 69.5221ZM59.2522 71.4541C71.766 71.5114 83.0796 64.0173 87.9081 52.4723C92.7367 40.9274 90.1274 27.6102 81.2989 18.7412C72.4705 9.87215 59.1654 7.20177 47.5984 11.9774C36.0315 16.7529 28.4856 28.032 28.4854 40.546C28.4465 57.577 42.2212 71.415 59.2522 71.4541Z" fill="url(#paint2_linear_20_1389)"/>
</g>
</g>
</g>
<defs>
<linearGradient id="paint0_linear_20_1389" x1="21.9478" y1="21.2276" x2="83.7649" y2="83.0448" gradientUnits="userSpaceOnUse">
<stop stop-color="#31769F"/>
<stop offset="1" stop-color="#12243B"/>
</linearGradient>
<linearGradient id="paint1_linear_20_1389" x1="15.4097" y1="9.63729" x2="77.2268" y2="71.4545" gradientUnits="userSpaceOnUse">
<stop stop-color="#3682AE"/>
<stop offset="1" stop-color="#163049"/>
</linearGradient>
<linearGradient id="paint2_linear_20_1389" x1="28.4854" y1="9.63729" x2="90.3025" y2="71.4545" gradientUnits="userSpaceOnUse">
<stop stop-color="#3279A3"/>
<stop offset="1" stop-color="#13283F"/>
</linearGradient>
<clipPath id="clip0_20_1389">
<rect width="100" height="100" fill="white"/>
</clipPath>
</defs>
</svg>
