<svg width="83" height="100" viewBox="0 0 83 100" fill="none" xmlns="http://www.w3.org/2000/svg">
<g clip-path="url(#clip0_20_1415)">
<path d="M11.1723 72.1997C11.4149 72.5734 11.7165 72.8979 12.077 73.1732C12.4376 73.4486 12.926 73.7764 13.5423 74.1566C14.211 74.5762 14.7388 74.9368 15.1256 75.2383C15.5124 75.5399 15.8402 75.9103 16.109 76.3496C16.3778 76.7888 16.5122 77.3035 16.5122 77.8935C16.5122 78.5622 16.3384 79.1588 15.991 79.6833C15.6435 80.2078 15.1518 80.6175 14.5159 80.9125C13.8799 81.2075 13.1555 81.3551 12.3426 81.3551C11.7919 81.3551 11.2248 81.2829 10.6413 81.1387C10.0578 80.9945 9.61528 80.8175 9.31371 80.6077C9.1957 80.529 9.13014 80.4044 9.11703 80.234L8.99902 77.2445V77.2248C8.99902 77.1724 9.0318 77.1429 9.09736 77.1363C9.16292 77.1297 9.20226 77.1527 9.21537 77.2051C9.64806 78.2934 10.143 79.185 10.7003 79.88C11.2576 80.5749 11.9689 80.9224 12.8343 80.9224C13.3981 80.9224 13.8701 80.7683 14.2503 80.4602C14.6306 80.152 14.8207 79.6374 14.8207 78.9162C14.8207 78.3393 14.6929 77.8345 14.4372 77.4018C14.1815 76.9691 13.8668 76.6085 13.4931 76.3201C13.1194 76.0316 12.6114 75.6776 11.9689 75.258C11.3395 74.8515 10.8478 74.5074 10.4938 74.2255C10.1398 73.9435 9.83819 73.5961 9.58906 73.1831C9.33993 72.77 9.21537 72.2882 9.21537 71.7375C9.21537 71.0556 9.40549 70.4787 9.78574 70.0067C10.166 69.5347 10.661 69.1839 11.2707 68.9545C11.8804 68.725 12.5196 68.6103 13.1883 68.6103C13.6341 68.6103 14.0799 68.6529 14.5257 68.7381C14.9715 68.8233 15.3452 68.9315 15.6468 69.0626C15.7648 69.102 15.8434 69.1511 15.8828 69.2101C15.9221 69.2691 15.9418 69.3445 15.9418 69.4363L16.0008 72.1112C16.0008 72.1505 15.9647 72.18 15.8926 72.1997C15.8205 72.2193 15.7779 72.2029 15.7648 72.1505C15.5025 71.3507 15.1518 70.6262 14.7125 69.9772C14.2733 69.3282 13.6144 69.0036 12.7359 69.0036C12.1459 69.0036 11.6771 69.1741 11.3297 69.515C10.9822 69.8559 10.8085 70.3214 10.8085 70.9114C10.8085 71.3966 10.9298 71.826 11.1723 72.1997ZM32.1485 81.001C32.1485 81.0797 32.1288 81.119 32.0895 81.119C31.6437 81.119 31.2831 81.1125 31.0077 81.0994L29.572 81.0797L27.9002 81.0994C27.6642 81.1125 27.3495 81.119 26.9562 81.119C26.9168 81.119 26.8972 81.0797 26.8972 81.001C26.8972 80.9224 26.9168 80.883 26.9562 80.883C27.4544 80.883 27.815 80.8502 28.0379 80.7847C28.2608 80.7191 28.4116 80.5946 28.4903 80.411C28.5689 80.2274 28.6083 79.9324 28.6083 79.5259V74.9827H21.8622V79.5259C21.8622 79.9193 21.9015 80.211 21.9802 80.4012C22.0589 80.5913 22.2129 80.7191 22.4424 80.7847C22.6718 80.8502 23.0357 80.883 23.534 80.883C23.5602 80.883 23.5733 80.9224 23.5733 81.001C23.5733 81.0797 23.5602 81.119 23.534 81.119C23.0882 81.119 22.7407 81.1125 22.4916 81.0994L20.8591 81.0797L19.4234 81.0994C19.1742 81.1125 18.8268 81.119 18.381 81.119C18.3548 81.119 18.3416 81.0797 18.3416 81.001C18.3416 80.9224 18.3548 80.883 18.381 80.883C18.853 80.883 19.2005 80.8502 19.4234 80.7847C19.6463 80.7191 19.7971 80.5913 19.8757 80.4012C19.9544 80.211 19.9937 79.9193 19.9937 79.5259V70.4197C19.9937 70.0264 19.9544 69.7379 19.8757 69.5543C19.7971 69.3708 19.6463 69.2429 19.4234 69.1708C19.2005 69.0987 18.8596 69.0626 18.4006 69.0626C18.3744 69.0626 18.3613 69.0233 18.3613 68.9446C18.3613 68.866 18.3744 68.8266 18.4006 68.8266L19.443 68.8463C20.0462 68.8725 20.5182 68.8856 20.8591 68.8856C21.318 68.8856 21.8622 68.8725 22.4916 68.8463L23.534 68.8266C23.5602 68.8266 23.5733 68.866 23.5733 68.9446C23.5733 69.0233 23.5602 69.0626 23.534 69.0626C23.0488 69.0626 22.6915 69.102 22.4621 69.1806C22.2326 69.2593 22.0753 69.3937 21.99 69.5838C21.9048 69.774 21.8622 70.0657 21.8622 70.4591V74.4713H28.6083V70.4591C28.6083 70.0657 28.5689 69.774 28.4903 69.5838C28.4116 69.3937 28.2575 69.2593 28.0281 69.1806C27.7986 69.102 27.4413 69.0626 26.9562 69.0626C26.9168 69.0626 26.8972 69.0233 26.8972 68.9446C26.8972 68.866 26.9168 68.8266 26.9562 68.8266L27.9002 68.8463C28.5296 68.8725 29.0869 68.8856 29.572 68.8856C29.926 68.8856 30.4046 68.8725 31.0077 68.8463L32.0895 68.8266C32.1288 68.8266 32.1485 68.866 32.1485 68.9446C32.1485 69.0233 32.1288 69.0626 32.0895 69.0626C31.6175 69.0626 31.2733 69.0987 31.0569 69.1708C30.8406 69.2429 30.6931 69.3708 30.6144 69.5543C30.5357 69.7379 30.4964 70.0264 30.4964 70.4197V79.5259C30.4964 79.9193 30.5357 80.211 30.6144 80.4012C30.6931 80.5913 30.8406 80.7191 31.0569 80.7847C31.2733 80.8502 31.6175 80.883 32.0895 80.883C32.1288 80.883 32.1485 80.9224 32.1485 81.001ZM37.3216 80.411C37.3872 80.5946 37.5216 80.7191 37.7248 80.7847C37.928 80.8502 38.2526 80.883 38.6984 80.883C38.7377 80.883 38.7574 80.9224 38.7574 81.001C38.7574 81.0797 38.7377 81.119 38.6984 81.119C38.2788 81.119 37.9444 81.1125 37.6953 81.0994L36.2399 81.0797L34.8238 81.0994C34.5747 81.1125 34.2338 81.119 33.8011 81.119C33.7617 81.119 33.7421 81.0797 33.7421 81.001C33.7421 80.9224 33.7617 80.883 33.8011 80.883C34.2469 80.883 34.5714 80.8502 34.7746 80.7847C34.9779 80.7191 35.1188 80.5913 35.1975 80.4012C35.2762 80.211 35.3155 79.9193 35.3155 79.5259V70.4197C35.3155 70.0264 35.2762 69.7379 35.1975 69.5543C35.1188 69.3708 34.9779 69.2429 34.7746 69.1708C34.5714 69.0987 34.2469 69.0626 33.8011 69.0626C33.7617 69.0626 33.7421 69.0233 33.7421 68.9446C33.7421 68.866 33.7617 68.8266 33.8011 68.8266L34.8238 68.8463C35.4007 68.8725 35.8727 68.8856 36.2399 68.8856C36.6463 68.8856 37.138 68.8725 37.715 68.8463L38.6984 68.8266C38.7377 68.8266 38.7574 68.866 38.7574 68.9446C38.7574 69.0233 38.7377 69.0626 38.6984 69.0626C38.2657 69.0626 37.9477 69.102 37.7445 69.1806C37.5412 69.2593 37.4036 69.3937 37.3314 69.5838C37.2593 69.774 37.2233 70.0657 37.2233 70.4591V79.5259C37.2233 79.9324 37.256 80.2274 37.3216 80.411ZM49.4958 78.0115C49.5351 78.0115 49.5712 78.0214 49.604 78.041C49.6368 78.0607 49.6532 78.0902 49.6532 78.0902C49.522 79.0867 49.4565 79.998 49.4565 80.824C49.4565 80.9289 49.4368 81.0043 49.3975 81.0502C49.3581 81.0961 49.2795 81.119 49.1615 81.119H40.6256C40.5863 81.119 40.5666 81.0797 40.5666 81.001C40.5666 80.9224 40.5863 80.883 40.6256 80.883C41.0714 80.883 41.3959 80.8502 41.5992 80.7847C41.8024 80.7191 41.9401 80.5913 42.0122 80.4012C42.0843 80.211 42.1204 79.9193 42.1204 79.5259V70.4197C42.1204 70.0264 42.0843 69.7379 42.0122 69.5543C41.9401 69.3708 41.7991 69.2429 41.5893 69.1708C41.3795 69.0987 41.0583 69.0626 40.6256 69.0626C40.5863 69.0626 40.5666 69.0233 40.5666 68.9446C40.5666 68.866 40.5863 68.8266 40.6256 68.8266H48.8074C48.9386 68.8266 49.0041 68.8856 49.0041 69.0036L49.0434 71.5605C49.0434 71.5867 49.0074 71.6063 48.9353 71.6195C48.8632 71.6326 48.8205 71.6195 48.8074 71.5801C48.4928 70.0854 47.5815 69.338 46.0736 69.338H45.2869C44.8149 69.338 44.4805 69.4232 44.2838 69.5937C44.0871 69.7641 43.9888 70.0526 43.9888 70.4591V74.4713H45.8769C47.3192 74.4713 48.0404 73.9862 48.0404 73.0159C48.0404 72.9765 48.0764 72.9569 48.1486 72.9569C48.2207 72.9569 48.2567 72.9765 48.2567 73.0159L48.2371 74.727L48.2567 75.6514C48.283 76.071 48.2961 76.4119 48.2961 76.6741C48.2961 76.7003 48.2567 76.7134 48.1781 76.7134C48.0994 76.7134 48.0601 76.7003 48.0601 76.6741C48.0601 75.5465 47.3258 74.9827 45.8573 74.9827H43.9888V79.4473C43.9888 79.88 44.0708 80.1815 44.2347 80.352C44.3986 80.5225 44.6903 80.6077 45.1099 80.6077H46.0736C47.8306 80.6077 48.9451 79.7554 49.4171 78.0509C49.4171 78.0246 49.4434 78.0115 49.4958 78.0115ZM54.7667 79.4473C54.7667 79.8013 54.7962 80.057 54.8552 80.2143C54.9143 80.3717 55.029 80.4766 55.1994 80.529C55.3699 80.5815 55.6452 80.6077 56.0255 80.6077H57.2056C58.1365 80.6077 58.9232 80.3487 59.5657 79.8308C60.2082 79.3129 60.6343 78.6147 60.8441 77.7362C60.8572 77.6968 60.8966 77.6804 60.9621 77.687C61.0277 77.6936 61.0605 77.7165 61.0605 77.7558C60.9425 78.9884 60.8835 80.0111 60.8835 80.824C60.8835 80.9289 60.8638 81.0043 60.8245 81.0502C60.7851 81.0961 60.7064 81.119 60.5884 81.119H51.3839C51.3576 81.119 51.3445 81.0797 51.3445 81.001C51.3445 80.9224 51.3576 80.883 51.3839 80.883C51.8297 80.883 52.1542 80.8502 52.3574 80.7847C52.5607 80.7191 52.6983 80.5913 52.7705 80.4012C52.8426 80.211 52.8786 79.9193 52.8786 79.5259V70.4197C52.8786 70.0264 52.8426 69.7379 52.7705 69.5543C52.6983 69.3708 52.5574 69.2429 52.3476 69.1708C52.1378 69.0987 51.8166 69.0626 51.3839 69.0626C51.3576 69.0626 51.3445 69.0233 51.3445 68.9446C51.3445 68.866 51.3576 68.8266 51.3839 68.8266L52.3869 68.8463C52.9639 68.8725 53.4359 68.8856 53.803 68.8856C54.1964 68.8856 54.6815 68.8725 55.2584 68.8463L56.2418 68.8266C56.2812 68.8266 56.3008 68.866 56.3008 68.9446C56.3008 69.0233 56.2812 69.0626 56.2418 69.0626C55.8091 69.0626 55.4912 69.0987 55.2879 69.1708C55.0847 69.2429 54.947 69.374 54.8749 69.5642C54.8028 69.7543 54.7667 70.046 54.7667 70.4394V79.4473ZM66.4301 81.1387C66.2334 81.1256 65.9843 81.1125 65.6827 81.0994C65.3812 81.0863 65.0402 81.0797 64.66 81.0797L63.2636 81.0994C63.0144 81.1125 62.667 81.119 62.2212 81.119C62.195 81.119 62.1818 81.0797 62.1818 81.001C62.1818 80.9224 62.195 80.883 62.2212 80.883C62.667 80.883 62.9915 80.8502 63.1947 80.7847C63.398 80.7191 63.5389 80.5913 63.6176 80.4012C63.6963 80.211 63.7356 79.9193 63.7356 79.5259V70.4197C63.7356 70.0264 63.6995 69.7379 63.6274 69.5543C63.5553 69.3708 63.4144 69.2429 63.2046 69.1708C62.9948 69.0987 62.6735 69.0626 62.2408 69.0626C62.2146 69.0626 62.2015 69.0233 62.2015 68.9446C62.2015 68.866 62.2146 68.8266 62.2408 68.8266L63.2832 68.8463C63.8602 68.8725 64.3191 68.8856 64.66 68.8856C65.1845 68.8856 65.7155 68.866 66.2531 68.8266C66.9087 68.8004 67.3479 68.7873 67.5708 68.7873C68.9083 68.7873 70.0949 69.0495 71.1307 69.574C72.1666 70.0985 72.9697 70.8131 73.54 71.7178C74.1104 72.6225 74.3956 73.6387 74.3956 74.7663C74.3956 76.0382 74.1006 77.1625 73.5105 78.1394C72.9205 79.1162 72.1272 79.8701 71.1307 80.4012C70.1342 80.9322 69.0394 81.1977 67.8462 81.1977C67.4397 81.1977 66.9677 81.178 66.4301 81.1387ZM70.0588 80.1553C70.7603 79.7226 71.3077 79.0834 71.7011 78.2377C72.0945 77.392 72.2911 76.3791 72.2911 75.199C72.2911 74.0714 72.1043 73.0519 71.7306 72.1407C71.3569 71.2294 70.8292 70.5082 70.1473 69.9772C69.4655 69.4462 68.6722 69.1806 67.7675 69.1806C67.2168 69.1806 66.7907 69.2134 66.4891 69.279C66.1875 69.3445 65.9679 69.4658 65.8302 69.6428C65.6926 69.8198 65.6237 70.0919 65.6237 70.4591V79.3096C65.6237 79.8472 65.7614 80.2307 66.0367 80.4602C66.3121 80.6896 66.8497 80.8044 67.6495 80.8044C68.5542 80.8044 69.3573 80.588 70.0588 80.1553Z" fill="#F2C762"/>
<path d="M11.1723 72.1997C11.4149 72.5734 11.7165 72.8979 12.077 73.1732C12.4376 73.4486 12.926 73.7764 13.5423 74.1566C14.211 74.5762 14.7388 74.9368 15.1256 75.2383C15.5124 75.5399 15.8402 75.9103 16.109 76.3496C16.3778 76.7888 16.5122 77.3035 16.5122 77.8935C16.5122 78.5622 16.3384 79.1588 15.991 79.6833C15.6435 80.2078 15.1518 80.6175 14.5159 80.9125C13.8799 81.2075 13.1555 81.3551 12.3426 81.3551C11.7919 81.3551 11.2248 81.2829 10.6413 81.1387C10.0578 80.9945 9.61528 80.8175 9.31371 80.6077C9.1957 80.529 9.13014 80.4044 9.11703 80.234L8.99902 77.2445V77.2248C8.99902 77.1724 9.0318 77.1429 9.09736 77.1363C9.16292 77.1297 9.20226 77.1527 9.21537 77.2051C9.64806 78.2934 10.143 79.185 10.7003 79.88C11.2576 80.5749 11.9689 80.9224 12.8343 80.9224C13.3981 80.9224 13.8701 80.7683 14.2503 80.4602C14.6306 80.152 14.8207 79.6374 14.8207 78.9162C14.8207 78.3393 14.6929 77.8345 14.4372 77.4018C14.1815 76.9691 13.8668 76.6085 13.4931 76.3201C13.1194 76.0316 12.6114 75.6776 11.9689 75.258C11.3395 74.8515 10.8478 74.5074 10.4938 74.2255C10.1398 73.9435 9.83819 73.5961 9.58906 73.1831C9.33993 72.77 9.21537 72.2882 9.21537 71.7375C9.21537 71.0556 9.40549 70.4787 9.78574 70.0067C10.166 69.5347 10.661 69.1839 11.2707 68.9545C11.8804 68.725 12.5196 68.6103 13.1883 68.6103C13.6341 68.6103 14.0799 68.6529 14.5257 68.7381C14.9715 68.8233 15.3452 68.9315 15.6468 69.0626C15.7648 69.102 15.8434 69.1511 15.8828 69.2101C15.9221 69.2691 15.9418 69.3445 15.9418 69.4363L16.0008 72.1112C16.0008 72.1505 15.9647 72.18 15.8926 72.1997C15.8205 72.2193 15.7779 72.2029 15.7648 72.1505C15.5025 71.3507 15.1518 70.6262 14.7125 69.9772C14.2733 69.3282 13.6144 69.0036 12.7359 69.0036C12.1459 69.0036 11.6771 69.1741 11.3297 69.515C10.9822 69.8559 10.8085 70.3214 10.8085 70.9114C10.8085 71.3966 10.9298 71.826 11.1723 72.1997ZM32.1485 81.001C32.1485 81.0797 32.1288 81.119 32.0895 81.119C31.6437 81.119 31.2831 81.1125 31.0077 81.0994L29.572 81.0797L27.9002 81.0994C27.6642 81.1125 27.3495 81.119 26.9562 81.119C26.9168 81.119 26.8972 81.0797 26.8972 81.001C26.8972 80.9224 26.9168 80.883 26.9562 80.883C27.4544 80.883 27.815 80.8502 28.0379 80.7847C28.2608 80.7191 28.4116 80.5946 28.4903 80.411C28.5689 80.2274 28.6083 79.9324 28.6083 79.5259V74.9827H21.8622V79.5259C21.8622 79.9193 21.9015 80.211 21.9802 80.4012C22.0589 80.5913 22.2129 80.7191 22.4424 80.7847C22.6718 80.8502 23.0357 80.883 23.534 80.883C23.5602 80.883 23.5733 80.9224 23.5733 81.001C23.5733 81.0797 23.5602 81.119 23.534 81.119C23.0882 81.119 22.7407 81.1125 22.4916 81.0994L20.8591 81.0797L19.4234 81.0994C19.1742 81.1125 18.8268 81.119 18.381 81.119C18.3548 81.119 18.3416 81.0797 18.3416 81.001C18.3416 80.9224 18.3548 80.883 18.381 80.883C18.853 80.883 19.2005 80.8502 19.4234 80.7847C19.6463 80.7191 19.7971 80.5913 19.8757 80.4012C19.9544 80.211 19.9937 79.9193 19.9937 79.5259V70.4197C19.9937 70.0264 19.9544 69.7379 19.8757 69.5543C19.7971 69.3708 19.6463 69.2429 19.4234 69.1708C19.2005 69.0987 18.8596 69.0626 18.4006 69.0626C18.3744 69.0626 18.3613 69.0233 18.3613 68.9446C18.3613 68.866 18.3744 68.8266 18.4006 68.8266L19.443 68.8463C20.0462 68.8725 20.5182 68.8856 20.8591 68.8856C21.318 68.8856 21.8622 68.8725 22.4916 68.8463L23.534 68.8266C23.5602 68.8266 23.5733 68.866 23.5733 68.9446C23.5733 69.0233 23.5602 69.0626 23.534 69.0626C23.0488 69.0626 22.6915 69.102 22.4621 69.1806C22.2326 69.2593 22.0753 69.3937 21.99 69.5838C21.9048 69.774 21.8622 70.0657 21.8622 70.4591V74.4713H28.6083V70.4591C28.6083 70.0657 28.5689 69.774 28.4903 69.5838C28.4116 69.3937 28.2575 69.2593 28.0281 69.1806C27.7986 69.102 27.4413 69.0626 26.9562 69.0626C26.9168 69.0626 26.8972 69.0233 26.8972 68.9446C26.8972 68.866 26.9168 68.8266 26.9562 68.8266L27.9002 68.8463C28.5296 68.8725 29.0869 68.8856 29.572 68.8856C29.926 68.8856 30.4046 68.8725 31.0077 68.8463L32.0895 68.8266C32.1288 68.8266 32.1485 68.866 32.1485 68.9446C32.1485 69.0233 32.1288 69.0626 32.0895 69.0626C31.6175 69.0626 31.2733 69.0987 31.0569 69.1708C30.8406 69.2429 30.6931 69.3708 30.6144 69.5543C30.5357 69.7379 30.4964 70.0264 30.4964 70.4197V79.5259C30.4964 79.9193 30.5357 80.211 30.6144 80.4012C30.6931 80.5913 30.8406 80.7191 31.0569 80.7847C31.2733 80.8502 31.6175 80.883 32.0895 80.883C32.1288 80.883 32.1485 80.9224 32.1485 81.001ZM37.3216 80.411C37.3872 80.5946 37.5216 80.7191 37.7248 80.7847C37.928 80.8502 38.2526 80.883 38.6984 80.883C38.7377 80.883 38.7574 80.9224 38.7574 81.001C38.7574 81.0797 38.7377 81.119 38.6984 81.119C38.2788 81.119 37.9444 81.1125 37.6953 81.0994L36.2399 81.0797L34.8238 81.0994C34.5747 81.1125 34.2338 81.119 33.8011 81.119C33.7617 81.119 33.7421 81.0797 33.7421 81.001C33.7421 80.9224 33.7617 80.883 33.8011 80.883C34.2469 80.883 34.5714 80.8502 34.7746 80.7847C34.9779 80.7191 35.1188 80.5913 35.1975 80.4012C35.2762 80.211 35.3155 79.9193 35.3155 79.5259V70.4197C35.3155 70.0264 35.2762 69.7379 35.1975 69.5543C35.1188 69.3708 34.9779 69.2429 34.7746 69.1708C34.5714 69.0987 34.2469 69.0626 33.8011 69.0626C33.7617 69.0626 33.7421 69.0233 33.7421 68.9446C33.7421 68.866 33.7617 68.8266 33.8011 68.8266L34.8238 68.8463C35.4007 68.8725 35.8727 68.8856 36.2399 68.8856C36.6463 68.8856 37.138 68.8725 37.715 68.8463L38.6984 68.8266C38.7377 68.8266 38.7574 68.866 38.7574 68.9446C38.7574 69.0233 38.7377 69.0626 38.6984 69.0626C38.2657 69.0626 37.9477 69.102 37.7445 69.1806C37.5412 69.2593 37.4036 69.3937 37.3314 69.5838C37.2593 69.774 37.2233 70.0657 37.2233 70.4591V79.5259C37.2233 79.9324 37.256 80.2274 37.3216 80.411ZM49.4958 78.0115C49.5351 78.0115 49.5712 78.0214 49.604 78.041C49.6368 78.0607 49.6532 78.0902 49.6532 78.0902C49.522 79.0867 49.4565 79.998 49.4565 80.824C49.4565 80.9289 49.4368 81.0043 49.3975 81.0502C49.3581 81.0961 49.2795 81.119 49.1615 81.119H40.6256C40.5863 81.119 40.5666 81.0797 40.5666 81.001C40.5666 80.9224 40.5863 80.883 40.6256 80.883C41.0714 80.883 41.3959 80.8502 41.5992 80.7847C41.8024 80.7191 41.9401 80.5913 42.0122 80.4012C42.0843 80.211 42.1204 79.9193 42.1204 79.5259V70.4197C42.1204 70.0264 42.0843 69.7379 42.0122 69.5543C41.9401 69.3708 41.7991 69.2429 41.5893 69.1708C41.3795 69.0987 41.0583 69.0626 40.6256 69.0626C40.5863 69.0626 40.5666 69.0233 40.5666 68.9446C40.5666 68.866 40.5863 68.8266 40.6256 68.8266H48.8074C48.9386 68.8266 49.0041 68.8856 49.0041 69.0036L49.0434 71.5605C49.0434 71.5867 49.0074 71.6063 48.9353 71.6195C48.8632 71.6326 48.8205 71.6195 48.8074 71.5801C48.4928 70.0854 47.5815 69.338 46.0736 69.338H45.2869C44.8149 69.338 44.4805 69.4232 44.2838 69.5937C44.0871 69.7641 43.9888 70.0526 43.9888 70.4591V74.4713H45.8769C47.3192 74.4713 48.0404 73.9862 48.0404 73.0159C48.0404 72.9765 48.0764 72.9569 48.1486 72.9569C48.2207 72.9569 48.2567 72.9765 48.2567 73.0159L48.2371 74.727L48.2567 75.6514C48.283 76.071 48.2961 76.4119 48.2961 76.6741C48.2961 76.7003 48.2567 76.7134 48.1781 76.7134C48.0994 76.7134 48.0601 76.7003 48.0601 76.6741C48.0601 75.5465 47.3258 74.9827 45.8573 74.9827H43.9888V79.4473C43.9888 79.88 44.0708 80.1815 44.2347 80.352C44.3986 80.5225 44.6903 80.6077 45.1099 80.6077H46.0736C47.8306 80.6077 48.9451 79.7554 49.4171 78.0509C49.4171 78.0246 49.4434 78.0115 49.4958 78.0115ZM54.7667 79.4473C54.7667 79.8013 54.7962 80.057 54.8552 80.2143C54.9143 80.3717 55.029 80.4766 55.1994 80.529C55.3699 80.5815 55.6452 80.6077 56.0255 80.6077H57.2056C58.1365 80.6077 58.9232 80.3487 59.5657 79.8308C60.2082 79.3129 60.6343 78.6147 60.8441 77.7362C60.8572 77.6968 60.8966 77.6804 60.9621 77.687C61.0277 77.6936 61.0605 77.7165 61.0605 77.7558C60.9425 78.9884 60.8835 80.0111 60.8835 80.824C60.8835 80.9289 60.8638 81.0043 60.8245 81.0502C60.7851 81.0961 60.7064 81.119 60.5884 81.119H51.3839C51.3576 81.119 51.3445 81.0797 51.3445 81.001C51.3445 80.9224 51.3576 80.883 51.3839 80.883C51.8297 80.883 52.1542 80.8502 52.3574 80.7847C52.5607 80.7191 52.6983 80.5913 52.7705 80.4012C52.8426 80.211 52.8786 79.9193 52.8786 79.5259V70.4197C52.8786 70.0264 52.8426 69.7379 52.7705 69.5543C52.6983 69.3708 52.5574 69.2429 52.3476 69.1708C52.1378 69.0987 51.8166 69.0626 51.3839 69.0626C51.3576 69.0626 51.3445 69.0233 51.3445 68.9446C51.3445 68.866 51.3576 68.8266 51.3839 68.8266L52.3869 68.8463C52.9639 68.8725 53.4359 68.8856 53.803 68.8856C54.1964 68.8856 54.6815 68.8725 55.2584 68.8463L56.2418 68.8266C56.2812 68.8266 56.3008 68.866 56.3008 68.9446C56.3008 69.0233 56.2812 69.0626 56.2418 69.0626C55.8091 69.0626 55.4912 69.0987 55.2879 69.1708C55.0847 69.2429 54.947 69.374 54.8749 69.5642C54.8028 69.7543 54.7667 70.046 54.7667 70.4394V79.4473ZM66.4301 81.1387C66.2334 81.1256 65.9843 81.1125 65.6827 81.0994C65.3812 81.0863 65.0402 81.0797 64.66 81.0797L63.2636 81.0994C63.0144 81.1125 62.667 81.119 62.2212 81.119C62.195 81.119 62.1818 81.0797 62.1818 81.001C62.1818 80.9224 62.195 80.883 62.2212 80.883C62.667 80.883 62.9915 80.8502 63.1947 80.7847C63.398 80.7191 63.5389 80.5913 63.6176 80.4012C63.6963 80.211 63.7356 79.9193 63.7356 79.5259V70.4197C63.7356 70.0264 63.6995 69.7379 63.6274 69.5543C63.5553 69.3708 63.4144 69.2429 63.2046 69.1708C62.9948 69.0987 62.6735 69.0626 62.2408 69.0626C62.2146 69.0626 62.2015 69.0233 62.2015 68.9446C62.2015 68.866 62.2146 68.8266 62.2408 68.8266L63.2832 68.8463C63.8602 68.8725 64.3191 68.8856 64.66 68.8856C65.1845 68.8856 65.7155 68.866 66.2531 68.8266C66.9087 68.8004 67.3479 68.7873 67.5708 68.7873C68.9083 68.7873 70.0949 69.0495 71.1307 69.574C72.1666 70.0985 72.9697 70.8131 73.54 71.7178C74.1104 72.6225 74.3956 73.6387 74.3956 74.7663C74.3956 76.0382 74.1006 77.1625 73.5105 78.1394C72.9205 79.1162 72.1272 79.8701 71.1307 80.4012C70.1342 80.9322 69.0394 81.1977 67.8462 81.1977C67.4397 81.1977 66.9677 81.178 66.4301 81.1387ZM70.0588 80.1553C70.7603 79.7226 71.3077 79.0834 71.7011 78.2377C72.0945 77.392 72.2911 76.3791 72.2911 75.199C72.2911 74.0714 72.1043 73.0519 71.7306 72.1407C71.3569 71.2294 70.8292 70.5082 70.1473 69.9772C69.4655 69.4462 68.6722 69.1806 67.7675 69.1806C67.2168 69.1806 66.7907 69.2134 66.4891 69.279C66.1875 69.3445 65.9679 69.4658 65.8302 69.6428C65.6926 69.8198 65.6237 70.0919 65.6237 70.4591V79.3096C65.6237 79.8472 65.7614 80.2307 66.0367 80.4602C66.3121 80.6896 66.8497 80.8044 67.6495 80.8044C68.5542 80.8044 69.3573 80.588 70.0588 80.1553Z" fill="white"/>
<path d="M18.9907 91.8911C19.03 91.9862 19.1038 92.0501 19.2119 92.0829C19.3201 92.1157 19.4922 92.1321 19.7282 92.1321C19.7282 92.1321 19.7479 92.1517 19.7479 92.1911C19.7479 92.2304 19.7282 92.2501 19.7282 92.2501C19.5184 92.2501 19.3545 92.2468 19.2365 92.2402L18.5285 92.2304L17.8401 92.2402C17.7156 92.2468 17.5451 92.2501 17.3288 92.2501C17.3288 92.2501 17.3091 92.2304 17.3091 92.1911C17.3091 92.1517 17.3288 92.1321 17.3288 92.1321C17.5648 92.1321 17.7385 92.1157 17.8499 92.0829C17.9614 92.0501 18.0368 91.9862 18.0761 91.8911C18.1155 91.7961 18.1351 91.6502 18.1351 91.4535V86.9004C18.1351 86.7037 18.1155 86.5595 18.0761 86.4677C18.0368 86.3759 17.9614 86.312 17.8499 86.276C17.7385 86.2399 17.5648 86.2219 17.3288 86.2219C17.3288 86.2219 17.3091 86.2022 17.3091 86.1629C17.3091 86.1235 17.3288 86.1039 17.3288 86.1039L17.8401 86.1137C18.1286 86.1268 18.358 86.1334 18.5285 86.1334C18.7186 86.1334 18.9579 86.1268 19.2464 86.1137L19.7282 86.1039C19.7282 86.1039 19.7479 86.1235 19.7479 86.1629C19.7479 86.2022 19.7282 86.2219 19.7282 86.2219C19.4988 86.2219 19.3283 86.2415 19.2169 86.2809C19.1054 86.3202 19.03 86.3874 18.9907 86.4825C18.9513 86.5775 18.9317 86.7234 18.9317 86.9201V91.4535C18.9317 91.6502 18.9513 91.7961 18.9907 91.8911ZM27.2907 86.1629C27.2907 86.2022 27.2612 86.2219 27.2612 86.2219C26.7237 86.2219 26.4549 86.5628 26.4549 87.2446V92.3779C26.4549 92.3779 26.4401 92.4009 26.4106 92.4074C26.3811 92.414 26.3467 92.3976 26.3467 92.3976L21.7346 86.9299V91.1192C21.7346 91.4666 21.7985 91.7223 21.9263 91.8862C22.0542 92.0501 22.2492 92.1321 22.5115 92.1321C22.5115 92.1321 22.541 92.1517 22.541 92.1911C22.541 92.2304 22.5115 92.2501 22.5115 92.2501C22.341 92.2501 22.2099 92.2468 22.1181 92.2402L21.6166 92.2304L21.0855 92.2402C20.9872 92.2468 20.843 92.2501 20.6528 92.2501C20.6528 92.2501 20.6332 92.2304 20.6332 92.1911C20.6332 92.1517 20.6528 92.1321 20.6528 92.1321C20.9347 92.1321 21.1429 92.0501 21.2773 91.8862C21.4117 91.7223 21.4789 91.4666 21.4789 91.1192V86.6546C21.1904 86.3661 20.9052 86.2219 20.6233 86.2219C20.6233 86.2219 20.5938 86.2022 20.5938 86.1629C20.5938 86.1235 20.6233 86.1039 20.6233 86.1039L21.0069 86.1137C21.0855 86.1203 21.197 86.1235 21.3412 86.1235L21.8526 86.1137C21.9116 86.1072 21.987 86.1039 22.0788 86.1039C22.1312 86.1039 22.1689 86.1153 22.1918 86.1383C22.2148 86.1612 22.2525 86.212 22.3049 86.2907C22.3639 86.3825 22.4459 86.4907 22.5508 86.6152L26.209 91.0307V87.2446C26.209 86.8971 26.1467 86.6398 26.0222 86.4726C25.8976 86.3055 25.7042 86.2219 25.442 86.2219C25.442 86.2219 25.4223 86.2022 25.4223 86.1629C25.4223 86.1235 25.442 86.1039 25.442 86.1039L25.8353 86.1137C26.032 86.1268 26.1992 86.1334 26.3369 86.1334C26.4549 86.1334 26.6253 86.1268 26.8482 86.1137L27.2612 86.1039C27.2612 86.1039 27.2907 86.1235 27.2907 86.1629ZM32.1092 87.4315C32.1092 87.4315 32.0912 87.4626 32.0551 87.4659C32.019 87.4692 31.9912 87.4413 31.9912 87.4413C31.9453 87.0807 31.8174 86.807 31.6077 86.6202C31.3979 86.4333 31.1225 86.3399 30.7816 86.3399H30.2801C29.9982 86.3399 29.8064 86.3792 29.7048 86.4579C29.6032 86.5366 29.5524 86.6874 29.5524 86.9103V89.0541H30.4571C30.8111 89.0541 31.0717 88.995 31.2389 88.877C31.4061 88.759 31.4896 88.582 31.4896 88.346C31.4896 88.346 31.5093 88.3263 31.5486 88.3263C31.588 88.3263 31.6077 88.346 31.6077 88.346L31.5978 89.1721C31.5978 89.3687 31.6011 89.5162 31.6077 89.6146L31.6175 90.1063C31.6175 90.1063 31.5978 90.126 31.5585 90.126C31.5191 90.126 31.4995 90.1063 31.4995 90.1063C31.4995 89.8244 31.4142 89.6162 31.2438 89.4818C31.0733 89.3474 30.8013 89.2802 30.4276 89.2802H29.5524V91.4142C29.5524 91.624 29.5802 91.7764 29.6359 91.8715C29.6917 91.9665 29.7982 92.0337 29.9555 92.0731C30.1129 92.1124 30.362 92.1321 30.7029 92.1321C30.7029 92.1321 30.7226 92.1517 30.7226 92.1911C30.7226 92.2304 30.7029 92.2501 30.7029 92.2501C30.4341 92.2501 30.2243 92.2468 30.0736 92.2402L29.1492 92.2304L28.4608 92.2402C28.3362 92.2468 28.1625 92.2501 27.9396 92.2501C27.9396 92.2501 27.9199 92.2304 27.9199 92.1911C27.9199 92.1517 27.9396 92.1321 27.9396 92.1321C28.1822 92.1321 28.3608 92.1157 28.4755 92.0829C28.5903 92.0501 28.6673 91.9862 28.7066 91.8911C28.746 91.7961 28.7656 91.6502 28.7656 91.4535V86.9004C28.7656 86.7037 28.746 86.5595 28.7066 86.4677C28.6673 86.3759 28.5935 86.312 28.4854 86.276C28.3772 86.2399 28.2084 86.2219 27.9789 86.2219C27.9789 86.2219 27.9494 86.2022 27.9494 86.1629C27.9494 86.1235 27.9789 86.1039 27.9789 86.1039H31.9912C32.0567 86.1039 32.0895 86.1334 32.0895 86.1924L32.1092 87.4315ZM34.6709 91.9403C34.1956 91.6551 33.8285 91.2683 33.5695 90.7799C33.3106 90.2915 33.1811 89.7588 33.1811 89.1819C33.1811 88.5066 33.3515 87.9281 33.6925 87.4462C34.0334 86.9643 34.471 86.6021 35.0053 86.3596C35.5396 86.117 36.0854 85.9957 36.6426 85.9957C37.2654 85.9957 37.8129 86.1416 38.2849 86.4333C38.7569 86.725 39.1191 87.1102 39.3715 87.5888C39.624 88.0674 39.7502 88.5755 39.7502 89.1131C39.7502 89.7096 39.5928 90.2571 39.2781 90.7553C38.9634 91.2536 38.5422 91.6469 38.0145 91.9354C37.4867 92.2239 36.9147 92.3681 36.2984 92.3681C35.6887 92.3681 35.1462 92.2255 34.6709 91.9403ZM37.7735 91.8272C38.1079 91.6109 38.3718 91.2946 38.5652 90.8782C38.7586 90.4619 38.8553 89.9653 38.8553 89.3884C38.8553 88.7787 38.7487 88.2346 38.5357 87.756C38.3226 87.2774 38.0177 86.9037 37.6211 86.6349C37.2245 86.3661 36.7639 86.2317 36.2394 86.2317C35.5576 86.2317 35.0266 86.4628 34.6463 86.925C34.2661 87.3872 34.076 88.0248 34.076 88.8377C34.076 89.4605 34.1841 90.0243 34.4005 90.5291C34.6168 91.034 34.9201 91.4306 35.3101 91.719C35.7002 92.0075 36.1444 92.1517 36.6426 92.1517C37.0622 92.1517 37.4392 92.0436 37.7735 91.8272ZM41.1071 86.6398C40.8776 86.866 40.7071 87.2282 40.5957 87.7265C40.5957 87.7265 40.5678 87.7461 40.5318 87.7461C40.4957 87.7461 40.4777 87.7265 40.4777 87.7265C40.5039 87.5363 40.5334 87.2348 40.5662 86.8217C40.599 86.4087 40.6154 86.0973 40.6154 85.8875C40.6154 85.8547 40.635 85.8384 40.6744 85.8384C40.7137 85.8384 40.7334 85.8547 40.7334 85.8875C40.7334 86.0318 40.9137 86.1039 41.2742 86.1039C41.8315 86.1235 42.4904 86.1334 43.2509 86.1334C43.6377 86.1334 44.0474 86.1268 44.4801 86.1137L45.1488 86.1039C45.3914 86.1039 45.5684 86.0875 45.6798 86.0547C45.7913 86.0219 45.8634 85.9564 45.8962 85.858C45.9027 85.8318 45.924 85.8187 45.9601 85.8187C45.9962 85.8187 46.0142 85.8318 46.0142 85.858C45.9945 86.0416 45.9732 86.3366 45.9503 86.7431C45.9273 87.1495 45.9158 87.4773 45.9158 87.7265C45.9158 87.7265 45.8978 87.7461 45.8618 87.7461C45.8257 87.7461 45.8077 87.7265 45.8077 87.7265C45.7618 87.2217 45.6307 86.8578 45.4143 86.6349C45.198 86.412 44.8767 86.3005 44.4506 86.3005C44.208 86.3005 44.0343 86.3153 43.9294 86.3448C43.8245 86.3743 43.7524 86.43 43.713 86.512C43.6737 86.5939 43.654 86.73 43.654 86.9201V91.4535C43.654 91.6568 43.6753 91.8043 43.718 91.8961C43.7606 91.9878 43.8442 92.0501 43.9687 92.0829C44.0933 92.1157 44.2932 92.1321 44.5686 92.1321C44.5686 92.1321 44.5883 92.1517 44.5883 92.1911C44.5883 92.2304 44.5686 92.2501 44.5686 92.2501C44.3391 92.2501 44.1589 92.2468 44.0277 92.2402L43.2509 92.2304L42.4936 92.2402C42.3625 92.2468 42.179 92.2501 41.9429 92.2501C41.9429 92.2501 41.9134 92.2304 41.9134 92.1911C41.9134 92.1517 41.9429 92.1321 41.9429 92.1321C42.2117 92.1321 42.4084 92.1157 42.533 92.0829C42.6575 92.0501 42.7428 91.9862 42.7887 91.8911C42.8345 91.7961 42.8575 91.6502 42.8575 91.4535V86.9004C42.8575 86.7169 42.8378 86.5841 42.7985 86.5021C42.7592 86.4202 42.687 86.3661 42.5821 86.3399C42.4772 86.3137 42.3035 86.3005 42.0609 86.3005C41.6545 86.3005 41.3365 86.4136 41.1071 86.6398ZM51.2461 90.7357L51.3002 90.7504L51.3247 90.775C51.2592 91.247 51.2264 91.6895 51.2264 92.1026C51.2264 92.155 51.2166 92.1927 51.1969 92.2157C51.1772 92.2386 51.1379 92.2501 51.0789 92.2501H46.8896C46.8896 92.2501 46.8601 92.2304 46.8601 92.1911C46.8601 92.1517 46.8896 92.1321 46.8896 92.1321C47.1257 92.1321 47.2961 92.1157 47.401 92.0829C47.5059 92.0501 47.578 91.9862 47.6174 91.8911C47.6567 91.7961 47.6764 91.6502 47.6764 91.4535V86.9004C47.6764 86.7037 47.6567 86.5595 47.6174 86.4677C47.578 86.3759 47.5043 86.312 47.3961 86.276C47.2879 86.2399 47.1191 86.2219 46.8896 86.2219C46.8896 86.2219 46.8601 86.2022 46.8601 86.1629C46.8601 86.1235 46.8896 86.1039 46.8896 86.1039H50.9019C50.9675 86.1039 51.0002 86.1334 51.0002 86.1924L51.0199 87.4315C51.0199 87.4315 51.0019 87.4626 50.9658 87.4659C50.9298 87.4692 50.9019 87.4413 50.9019 87.4413C50.856 87.0807 50.7282 86.807 50.5184 86.6202C50.3086 86.4333 50.0332 86.3399 49.6923 86.3399H49.1908C48.9023 86.3399 48.7089 86.3809 48.6106 86.4628C48.5122 86.5448 48.4631 86.7037 48.4631 86.9398V88.936H49.5448C49.8792 88.936 50.125 88.8787 50.2824 88.764C50.4397 88.6492 50.5184 88.4706 50.5184 88.228C50.5184 88.228 50.5364 88.2083 50.5725 88.2083C50.6085 88.2083 50.6265 88.228 50.6265 88.228L50.6167 89.0541L50.6265 89.4966C50.6397 89.7064 50.6462 89.8703 50.6462 89.9883C50.6462 89.9883 50.6265 90.0079 50.5872 90.0079C50.5479 90.0079 50.5282 89.9883 50.5282 89.9883C50.5282 89.7064 50.4479 89.4982 50.2873 89.3638C50.1266 89.2294 49.8693 89.1622 49.5153 89.1622H48.4631V91.4142C48.4631 91.6502 48.5073 91.8108 48.5958 91.8961C48.6843 91.9813 48.863 92.0239 49.1318 92.0239H49.771C50.1447 92.0239 50.4544 91.9141 50.7003 91.6945C50.9461 91.4748 51.115 91.1618 51.2067 90.7553C51.2067 90.7553 51.2199 90.7357 51.2461 90.7357ZM56.93 86.0793C57.2513 86.135 57.5069 86.212 57.6971 86.3104C57.7495 86.3366 57.7839 86.3645 57.8003 86.394C57.8167 86.4235 57.8315 86.4743 57.8446 86.5464L57.9527 87.7363C57.9527 87.7363 57.9364 87.7674 57.9036 87.7707C57.8708 87.774 57.8446 87.7461 57.8446 87.7461C57.6741 87.2348 57.3955 86.8529 57.0087 86.6005C56.6219 86.3481 56.1564 86.2219 55.6123 86.2219C55.1337 86.2219 54.7174 86.3317 54.3634 86.5513C54.0093 86.7709 53.7389 87.0807 53.5521 87.4806C53.3652 87.8805 53.2718 88.3427 53.2718 88.8672C53.2718 89.4769 53.3898 90.0374 53.6258 90.5488C53.8618 91.0602 54.1814 91.465 54.5846 91.7633C54.9878 92.0616 55.4287 92.2107 55.9073 92.2107C56.8513 92.2107 57.5266 91.6699 57.9331 90.5881C57.9331 90.5881 57.9462 90.5586 57.9724 90.5586L58.0265 90.5685L58.0511 90.598L57.9134 91.7879C57.9003 91.8666 57.8855 91.9174 57.8692 91.9403C57.8528 91.9633 57.8151 91.9878 57.7561 92.0141C57.1529 92.2501 56.5367 92.3681 55.9073 92.3681C55.114 92.3681 54.4519 92.2091 53.9208 91.8911C53.3898 91.5732 52.9997 91.1683 52.7506 90.6767C52.5015 90.185 52.3769 89.6703 52.3769 89.1327C52.3769 88.523 52.5457 87.9805 52.8834 87.5052C53.221 87.0299 53.6668 86.6595 54.2208 86.394C54.7747 86.1285 55.3664 85.9957 55.9958 85.9957C56.2974 85.9957 56.6088 86.0236 56.93 86.0793ZM65.7315 92.1911C65.7315 92.2304 65.702 92.2501 65.702 92.2501C65.4922 92.2501 65.325 92.2468 65.2004 92.2402L64.4924 92.2304L63.7155 92.2402C63.604 92.2468 63.45 92.2501 63.2533 92.2501C63.2533 92.2501 63.2238 92.2304 63.2238 92.1911C63.2238 92.1517 63.2533 92.1321 63.2533 92.1321C63.5024 92.1321 63.686 92.1157 63.804 92.0829C63.922 92.0501 64.0007 91.9862 64.04 91.8911C64.0794 91.7961 64.099 91.6502 64.099 91.4535V89.1622H60.5195V91.4535C60.5195 91.6502 60.5391 91.7961 60.5785 91.8911C60.6178 91.9862 60.6965 92.0501 60.8145 92.0829C60.9325 92.1157 61.1161 92.1321 61.3652 92.1321C61.3652 92.1321 61.3849 92.1517 61.3849 92.1911C61.3849 92.2304 61.3652 92.2501 61.3652 92.2501C61.1554 92.2501 60.9882 92.2468 60.8637 92.2402L60.1064 92.2304L59.4082 92.2402C59.2837 92.2468 59.1132 92.2501 58.8969 92.2501C58.8969 92.2501 58.8772 92.2304 58.8772 92.1911C58.8772 92.1517 58.8969 92.1321 58.8969 92.1321C59.1394 92.1321 59.3181 92.1157 59.4328 92.0829C59.5475 92.0501 59.6262 91.9862 59.6688 91.8911C59.7114 91.7961 59.7328 91.6502 59.7328 91.4535V86.9004C59.7328 86.7037 59.7131 86.5595 59.6737 86.4677C59.6344 86.3759 59.559 86.312 59.4476 86.276C59.3361 86.2399 59.1591 86.2219 58.9165 86.2219C58.9165 86.2219 58.887 86.2022 58.887 86.1629C58.887 86.1235 58.9165 86.1039 58.9165 86.1039L59.4181 86.1137C59.6934 86.1268 59.9229 86.1334 60.1064 86.1334C60.3162 86.1334 60.5719 86.1268 60.8735 86.1137L61.3652 86.1039C61.3652 86.1039 61.3849 86.1235 61.3849 86.1629C61.3849 86.2022 61.3652 86.2219 61.3652 86.2219C61.1226 86.2219 60.9423 86.2415 60.8243 86.2809C60.7063 86.3202 60.626 86.3874 60.5834 86.4825C60.5408 86.5775 60.5195 86.7234 60.5195 86.9201V88.936H64.099V86.9201C64.099 86.7234 64.0777 86.5775 64.0351 86.4825C63.9925 86.3874 63.9138 86.3202 63.7991 86.2809C63.6844 86.2415 63.5024 86.2219 63.2533 86.2219C63.2533 86.2219 63.2238 86.2022 63.2238 86.1629C63.2238 86.1235 63.2533 86.1039 63.2533 86.1039L63.7155 86.1137C64.0171 86.1268 64.276 86.1334 64.4924 86.1334C64.6759 86.1334 64.912 86.1268 65.2004 86.1137L65.702 86.1039C65.702 86.1039 65.7315 86.1235 65.7315 86.1629C65.7315 86.2022 65.702 86.2219 65.702 86.2219C65.4594 86.2219 65.2824 86.2399 65.1709 86.276C65.0595 86.312 64.9824 86.3759 64.9398 86.4677C64.8972 86.5595 64.8759 86.7037 64.8759 86.9004V91.4535C64.8759 91.6502 64.8972 91.7961 64.9398 91.8911C64.9824 91.9862 65.0595 92.0501 65.1709 92.0829C65.2824 92.1157 65.4594 92.1321 65.702 92.1321C65.702 92.1321 65.7315 92.1517 65.7315 92.1911Z" fill="#F2C762"/>
<path d="M18.9907 91.8911C19.03 91.9862 19.1038 92.0501 19.2119 92.0829C19.3201 92.1157 19.4922 92.1321 19.7282 92.1321C19.7282 92.1321 19.7479 92.1517 19.7479 92.1911C19.7479 92.2304 19.7282 92.2501 19.7282 92.2501C19.5184 92.2501 19.3545 92.2468 19.2365 92.2402L18.5285 92.2304L17.8401 92.2402C17.7156 92.2468 17.5451 92.2501 17.3288 92.2501C17.3288 92.2501 17.3091 92.2304 17.3091 92.1911C17.3091 92.1517 17.3288 92.1321 17.3288 92.1321C17.5648 92.1321 17.7385 92.1157 17.8499 92.0829C17.9614 92.0501 18.0368 91.9862 18.0761 91.8911C18.1155 91.7961 18.1351 91.6502 18.1351 91.4535V86.9004C18.1351 86.7037 18.1155 86.5595 18.0761 86.4677C18.0368 86.3759 17.9614 86.312 17.8499 86.276C17.7385 86.2399 17.5648 86.2219 17.3288 86.2219C17.3288 86.2219 17.3091 86.2022 17.3091 86.1629C17.3091 86.1235 17.3288 86.1039 17.3288 86.1039L17.8401 86.1137C18.1286 86.1268 18.358 86.1334 18.5285 86.1334C18.7186 86.1334 18.9579 86.1268 19.2464 86.1137L19.7282 86.1039C19.7282 86.1039 19.7479 86.1235 19.7479 86.1629C19.7479 86.2022 19.7282 86.2219 19.7282 86.2219C19.4988 86.2219 19.3283 86.2415 19.2169 86.2809C19.1054 86.3202 19.03 86.3874 18.9907 86.4825C18.9513 86.5775 18.9317 86.7234 18.9317 86.9201V91.4535C18.9317 91.6502 18.9513 91.7961 18.9907 91.8911ZM27.2907 86.1629C27.2907 86.2022 27.2612 86.2219 27.2612 86.2219C26.7237 86.2219 26.4549 86.5628 26.4549 87.2446V92.3779C26.4549 92.3779 26.4401 92.4009 26.4106 92.4074C26.3811 92.414 26.3467 92.3976 26.3467 92.3976L21.7346 86.9299V91.1192C21.7346 91.4666 21.7985 91.7223 21.9263 91.8862C22.0542 92.0501 22.2492 92.1321 22.5115 92.1321C22.5115 92.1321 22.541 92.1517 22.541 92.1911C22.541 92.2304 22.5115 92.2501 22.5115 92.2501C22.341 92.2501 22.2099 92.2468 22.1181 92.2402L21.6166 92.2304L21.0855 92.2402C20.9872 92.2468 20.843 92.2501 20.6528 92.2501C20.6528 92.2501 20.6332 92.2304 20.6332 92.1911C20.6332 92.1517 20.6528 92.1321 20.6528 92.1321C20.9347 92.1321 21.1429 92.0501 21.2773 91.8862C21.4117 91.7223 21.4789 91.4666 21.4789 91.1192V86.6546C21.1904 86.3661 20.9052 86.2219 20.6233 86.2219C20.6233 86.2219 20.5938 86.2022 20.5938 86.1629C20.5938 86.1235 20.6233 86.1039 20.6233 86.1039L21.0069 86.1137C21.0855 86.1203 21.197 86.1235 21.3412 86.1235L21.8526 86.1137C21.9116 86.1072 21.987 86.1039 22.0788 86.1039C22.1312 86.1039 22.1689 86.1153 22.1918 86.1383C22.2148 86.1612 22.2525 86.212 22.3049 86.2907C22.3639 86.3825 22.4459 86.4907 22.5508 86.6152L26.209 91.0307V87.2446C26.209 86.8971 26.1467 86.6398 26.0222 86.4726C25.8976 86.3055 25.7042 86.2219 25.442 86.2219C25.442 86.2219 25.4223 86.2022 25.4223 86.1629C25.4223 86.1235 25.442 86.1039 25.442 86.1039L25.8353 86.1137C26.032 86.1268 26.1992 86.1334 26.3369 86.1334C26.4549 86.1334 26.6253 86.1268 26.8482 86.1137L27.2612 86.1039C27.2612 86.1039 27.2907 86.1235 27.2907 86.1629ZM32.1092 87.4315C32.1092 87.4315 32.0912 87.4626 32.0551 87.4659C32.019 87.4692 31.9912 87.4413 31.9912 87.4413C31.9453 87.0807 31.8174 86.807 31.6077 86.6202C31.3979 86.4333 31.1225 86.3399 30.7816 86.3399H30.2801C29.9982 86.3399 29.8064 86.3792 29.7048 86.4579C29.6032 86.5366 29.5524 86.6874 29.5524 86.9103V89.0541H30.4571C30.8111 89.0541 31.0717 88.995 31.2389 88.877C31.4061 88.759 31.4896 88.582 31.4896 88.346C31.4896 88.346 31.5093 88.3263 31.5486 88.3263C31.588 88.3263 31.6077 88.346 31.6077 88.346L31.5978 89.1721C31.5978 89.3687 31.6011 89.5162 31.6077 89.6146L31.6175 90.1063C31.6175 90.1063 31.5978 90.126 31.5585 90.126C31.5191 90.126 31.4995 90.1063 31.4995 90.1063C31.4995 89.8244 31.4142 89.6162 31.2438 89.4818C31.0733 89.3474 30.8013 89.2802 30.4276 89.2802H29.5524V91.4142C29.5524 91.624 29.5802 91.7764 29.6359 91.8715C29.6917 91.9665 29.7982 92.0337 29.9555 92.0731C30.1129 92.1124 30.362 92.1321 30.7029 92.1321C30.7029 92.1321 30.7226 92.1517 30.7226 92.1911C30.7226 92.2304 30.7029 92.2501 30.7029 92.2501C30.4341 92.2501 30.2243 92.2468 30.0736 92.2402L29.1492 92.2304L28.4608 92.2402C28.3362 92.2468 28.1625 92.2501 27.9396 92.2501C27.9396 92.2501 27.9199 92.2304 27.9199 92.1911C27.9199 92.1517 27.9396 92.1321 27.9396 92.1321C28.1822 92.1321 28.3608 92.1157 28.4755 92.0829C28.5903 92.0501 28.6673 91.9862 28.7066 91.8911C28.746 91.7961 28.7656 91.6502 28.7656 91.4535V86.9004C28.7656 86.7037 28.746 86.5595 28.7066 86.4677C28.6673 86.3759 28.5935 86.312 28.4854 86.276C28.3772 86.2399 28.2084 86.2219 27.9789 86.2219C27.9789 86.2219 27.9494 86.2022 27.9494 86.1629C27.9494 86.1235 27.9789 86.1039 27.9789 86.1039H31.9912C32.0567 86.1039 32.0895 86.1334 32.0895 86.1924L32.1092 87.4315ZM34.6709 91.9403C34.1956 91.6551 33.8285 91.2683 33.5695 90.7799C33.3106 90.2915 33.1811 89.7588 33.1811 89.1819C33.1811 88.5066 33.3515 87.9281 33.6925 87.4462C34.0334 86.9643 34.471 86.6021 35.0053 86.3596C35.5396 86.117 36.0854 85.9957 36.6426 85.9957C37.2654 85.9957 37.8129 86.1416 38.2849 86.4333C38.7569 86.725 39.1191 87.1102 39.3715 87.5888C39.624 88.0674 39.7502 88.5755 39.7502 89.1131C39.7502 89.7096 39.5928 90.2571 39.2781 90.7553C38.9634 91.2536 38.5422 91.6469 38.0145 91.9354C37.4867 92.2239 36.9147 92.3681 36.2984 92.3681C35.6887 92.3681 35.1462 92.2255 34.6709 91.9403ZM37.7735 91.8272C38.1079 91.6109 38.3718 91.2946 38.5652 90.8782C38.7586 90.4619 38.8553 89.9653 38.8553 89.3884C38.8553 88.7787 38.7487 88.2346 38.5357 87.756C38.3226 87.2774 38.0177 86.9037 37.6211 86.6349C37.2245 86.3661 36.7639 86.2317 36.2394 86.2317C35.5576 86.2317 35.0266 86.4628 34.6463 86.925C34.2661 87.3872 34.076 88.0248 34.076 88.8377C34.076 89.4605 34.1841 90.0243 34.4005 90.5291C34.6168 91.034 34.9201 91.4306 35.3101 91.719C35.7002 92.0075 36.1444 92.1517 36.6426 92.1517C37.0622 92.1517 37.4392 92.0436 37.7735 91.8272ZM41.1071 86.6398C40.8776 86.866 40.7071 87.2282 40.5957 87.7265C40.5957 87.7265 40.5678 87.7461 40.5318 87.7461C40.4957 87.7461 40.4777 87.7265 40.4777 87.7265C40.5039 87.5363 40.5334 87.2348 40.5662 86.8217C40.599 86.4087 40.6154 86.0973 40.6154 85.8875C40.6154 85.8547 40.635 85.8384 40.6744 85.8384C40.7137 85.8384 40.7334 85.8547 40.7334 85.8875C40.7334 86.0318 40.9137 86.1039 41.2742 86.1039C41.8315 86.1235 42.4904 86.1334 43.2509 86.1334C43.6377 86.1334 44.0474 86.1268 44.4801 86.1137L45.1488 86.1039C45.3914 86.1039 45.5684 86.0875 45.6798 86.0547C45.7913 86.0219 45.8634 85.9564 45.8962 85.858C45.9027 85.8318 45.924 85.8187 45.9601 85.8187C45.9962 85.8187 46.0142 85.8318 46.0142 85.858C45.9945 86.0416 45.9732 86.3366 45.9503 86.7431C45.9273 87.1495 45.9158 87.4773 45.9158 87.7265C45.9158 87.7265 45.8978 87.7461 45.8618 87.7461C45.8257 87.7461 45.8077 87.7265 45.8077 87.7265C45.7618 87.2217 45.6307 86.8578 45.4143 86.6349C45.198 86.412 44.8767 86.3005 44.4506 86.3005C44.208 86.3005 44.0343 86.3153 43.9294 86.3448C43.8245 86.3743 43.7524 86.43 43.713 86.512C43.6737 86.5939 43.654 86.73 43.654 86.9201V91.4535C43.654 91.6568 43.6753 91.8043 43.718 91.8961C43.7606 91.9878 43.8442 92.0501 43.9687 92.0829C44.0933 92.1157 44.2932 92.1321 44.5686 92.1321C44.5686 92.1321 44.5883 92.1517 44.5883 92.1911C44.5883 92.2304 44.5686 92.2501 44.5686 92.2501C44.3391 92.2501 44.1589 92.2468 44.0277 92.2402L43.2509 92.2304L42.4936 92.2402C42.3625 92.2468 42.179 92.2501 41.9429 92.2501C41.9429 92.2501 41.9134 92.2304 41.9134 92.1911C41.9134 92.1517 41.9429 92.1321 41.9429 92.1321C42.2117 92.1321 42.4084 92.1157 42.533 92.0829C42.6575 92.0501 42.7428 91.9862 42.7887 91.8911C42.8345 91.7961 42.8575 91.6502 42.8575 91.4535V86.9004C42.8575 86.7169 42.8378 86.5841 42.7985 86.5021C42.7592 86.4202 42.687 86.3661 42.5821 86.3399C42.4772 86.3137 42.3035 86.3005 42.0609 86.3005C41.6545 86.3005 41.3365 86.4136 41.1071 86.6398ZM51.2461 90.7357L51.3002 90.7504L51.3247 90.775C51.2592 91.247 51.2264 91.6895 51.2264 92.1026C51.2264 92.155 51.2166 92.1927 51.1969 92.2157C51.1772 92.2386 51.1379 92.2501 51.0789 92.2501H46.8896C46.8896 92.2501 46.8601 92.2304 46.8601 92.1911C46.8601 92.1517 46.8896 92.1321 46.8896 92.1321C47.1257 92.1321 47.2961 92.1157 47.401 92.0829C47.5059 92.0501 47.578 91.9862 47.6174 91.8911C47.6567 91.7961 47.6764 91.6502 47.6764 91.4535V86.9004C47.6764 86.7037 47.6567 86.5595 47.6174 86.4677C47.578 86.3759 47.5043 86.312 47.3961 86.276C47.2879 86.2399 47.1191 86.2219 46.8896 86.2219C46.8896 86.2219 46.8601 86.2022 46.8601 86.1629C46.8601 86.1235 46.8896 86.1039 46.8896 86.1039H50.9019C50.9675 86.1039 51.0002 86.1334 51.0002 86.1924L51.0199 87.4315C51.0199 87.4315 51.0019 87.4626 50.9658 87.4659C50.9298 87.4692 50.9019 87.4413 50.9019 87.4413C50.856 87.0807 50.7282 86.807 50.5184 86.6202C50.3086 86.4333 50.0332 86.3399 49.6923 86.3399H49.1908C48.9023 86.3399 48.7089 86.3809 48.6106 86.4628C48.5122 86.5448 48.4631 86.7037 48.4631 86.9398V88.936H49.5448C49.8792 88.936 50.125 88.8787 50.2824 88.764C50.4397 88.6492 50.5184 88.4706 50.5184 88.228C50.5184 88.228 50.5364 88.2083 50.5725 88.2083C50.6085 88.2083 50.6265 88.228 50.6265 88.228L50.6167 89.0541L50.6265 89.4966C50.6397 89.7064 50.6462 89.8703 50.6462 89.9883C50.6462 89.9883 50.6265 90.0079 50.5872 90.0079C50.5479 90.0079 50.5282 89.9883 50.5282 89.9883C50.5282 89.7064 50.4479 89.4982 50.2873 89.3638C50.1266 89.2294 49.8693 89.1622 49.5153 89.1622H48.4631V91.4142C48.4631 91.6502 48.5073 91.8108 48.5958 91.8961C48.6843 91.9813 48.863 92.0239 49.1318 92.0239H49.771C50.1447 92.0239 50.4544 91.9141 50.7003 91.6945C50.9461 91.4748 51.115 91.1618 51.2067 90.7553C51.2067 90.7553 51.2199 90.7357 51.2461 90.7357ZM56.93 86.0793C57.2513 86.135 57.5069 86.212 57.6971 86.3104C57.7495 86.3366 57.7839 86.3645 57.8003 86.394C57.8167 86.4235 57.8315 86.4743 57.8446 86.5464L57.9527 87.7363C57.9527 87.7363 57.9364 87.7674 57.9036 87.7707C57.8708 87.774 57.8446 87.7461 57.8446 87.7461C57.6741 87.2348 57.3955 86.8529 57.0087 86.6005C56.6219 86.3481 56.1564 86.2219 55.6123 86.2219C55.1337 86.2219 54.7174 86.3317 54.3634 86.5513C54.0093 86.7709 53.7389 87.0807 53.5521 87.4806C53.3652 87.8805 53.2718 88.3427 53.2718 88.8672C53.2718 89.4769 53.3898 90.0374 53.6258 90.5488C53.8618 91.0602 54.1814 91.465 54.5846 91.7633C54.9878 92.0616 55.4287 92.2107 55.9073 92.2107C56.8513 92.2107 57.5266 91.6699 57.9331 90.5881C57.9331 90.5881 57.9462 90.5586 57.9724 90.5586L58.0265 90.5685L58.0511 90.598L57.9134 91.7879C57.9003 91.8666 57.8855 91.9174 57.8692 91.9403C57.8528 91.9633 57.8151 91.9878 57.7561 92.0141C57.1529 92.2501 56.5367 92.3681 55.9073 92.3681C55.114 92.3681 54.4519 92.2091 53.9208 91.8911C53.3898 91.5732 52.9997 91.1683 52.7506 90.6767C52.5015 90.185 52.3769 89.6703 52.3769 89.1327C52.3769 88.523 52.5457 87.9805 52.8834 87.5052C53.221 87.0299 53.6668 86.6595 54.2208 86.394C54.7747 86.1285 55.3664 85.9957 55.9958 85.9957C56.2974 85.9957 56.6088 86.0236 56.93 86.0793ZM65.7315 92.1911C65.7315 92.2304 65.702 92.2501 65.702 92.2501C65.4922 92.2501 65.325 92.2468 65.2004 92.2402L64.4924 92.2304L63.7155 92.2402C63.604 92.2468 63.45 92.2501 63.2533 92.2501C63.2533 92.2501 63.2238 92.2304 63.2238 92.1911C63.2238 92.1517 63.2533 92.1321 63.2533 92.1321C63.5024 92.1321 63.686 92.1157 63.804 92.0829C63.922 92.0501 64.0007 91.9862 64.04 91.8911C64.0794 91.7961 64.099 91.6502 64.099 91.4535V89.1622H60.5195V91.4535C60.5195 91.6502 60.5391 91.7961 60.5785 91.8911C60.6178 91.9862 60.6965 92.0501 60.8145 92.0829C60.9325 92.1157 61.1161 92.1321 61.3652 92.1321C61.3652 92.1321 61.3849 92.1517 61.3849 92.1911C61.3849 92.2304 61.3652 92.2501 61.3652 92.2501C61.1554 92.2501 60.9882 92.2468 60.8637 92.2402L60.1064 92.2304L59.4082 92.2402C59.2837 92.2468 59.1132 92.2501 58.8969 92.2501C58.8969 92.2501 58.8772 92.2304 58.8772 92.1911C58.8772 92.1517 58.8969 92.1321 58.8969 92.1321C59.1394 92.1321 59.3181 92.1157 59.4328 92.0829C59.5475 92.0501 59.6262 91.9862 59.6688 91.8911C59.7114 91.7961 59.7328 91.6502 59.7328 91.4535V86.9004C59.7328 86.7037 59.7131 86.5595 59.6737 86.4677C59.6344 86.3759 59.559 86.312 59.4476 86.276C59.3361 86.2399 59.1591 86.2219 58.9165 86.2219C58.9165 86.2219 58.887 86.2022 58.887 86.1629C58.887 86.1235 58.9165 86.1039 58.9165 86.1039L59.4181 86.1137C59.6934 86.1268 59.9229 86.1334 60.1064 86.1334C60.3162 86.1334 60.5719 86.1268 60.8735 86.1137L61.3652 86.1039C61.3652 86.1039 61.3849 86.1235 61.3849 86.1629C61.3849 86.2022 61.3652 86.2219 61.3652 86.2219C61.1226 86.2219 60.9423 86.2415 60.8243 86.2809C60.7063 86.3202 60.626 86.3874 60.5834 86.4825C60.5408 86.5775 60.5195 86.7234 60.5195 86.9201V88.936H64.099V86.9201C64.099 86.7234 64.0777 86.5775 64.0351 86.4825C63.9925 86.3874 63.9138 86.3202 63.7991 86.2809C63.6844 86.2415 63.5024 86.2219 63.2533 86.2219C63.2533 86.2219 63.2238 86.2022 63.2238 86.1629C63.2238 86.1235 63.2533 86.1039 63.2533 86.1039L63.7155 86.1137C64.0171 86.1268 64.276 86.1334 64.4924 86.1334C64.6759 86.1334 64.912 86.1268 65.2004 86.1137L65.702 86.1039C65.702 86.1039 65.7315 86.1235 65.7315 86.1629C65.7315 86.2022 65.702 86.2219 65.702 86.2219C65.4594 86.2219 65.2824 86.2399 65.1709 86.276C65.0595 86.312 64.9824 86.3759 64.9398 86.4677C64.8972 86.5595 64.8759 86.7037 64.8759 86.9004V91.4535C64.8759 91.6502 64.8972 91.7961 64.9398 91.8911C64.9824 91.9862 65.0595 92.0501 65.1709 92.0829C65.2824 92.1157 65.4594 92.1321 65.702 92.1321C65.702 92.1321 65.7315 92.1517 65.7315 92.1911Z" fill="white"/>
<mask id="mask0_20_1415" style="mask-type:luminance" maskUnits="userSpaceOnUse" x="12" y="7" width="59" height="59">
<path d="M12.123 7.58273H70.8193V65.3323H12.123V7.58273Z" fill="white"/>
</mask>
<g mask="url(#mask0_20_1415)">
<mask id="mask1_20_1415" style="mask-type:luminance" maskUnits="userSpaceOnUse" x="12" y="7" width="59" height="59">
<path d="M12.123 7.58273H70.8193V65.3323H12.123V7.58273Z" fill="white"/>
</mask>
<g mask="url(#mask1_20_1415)">
<path fill-rule="evenodd" clip-rule="evenodd" d="M41.4713 63.8123C50.7008 63.8545 59.045 58.3272 62.6061 49.8123C66.1673 41.2974 64.2427 31.4754 57.7313 24.9343C51.2199 18.3931 41.4067 16.4237 32.8757 19.9461C24.3447 23.4684 18.7794 31.7873 18.7795 41.0169C18.7657 47.0489 21.1487 52.8393 25.4042 57.1143C29.6598 61.3893 35.4393 63.7987 41.4713 63.8123ZM41.4713 65.3323C51.3162 65.3773 60.2168 59.4816 64.0154 50.3989C67.8141 41.3163 65.7612 30.8394 58.8157 23.862C51.8701 16.8847 41.4027 14.784 32.3028 18.5412C23.2029 22.2983 17.2666 31.1719 17.2667 41.0169C17.252 47.4511 19.7938 53.6275 24.3331 58.1876C28.8723 62.7476 35.0371 65.3176 41.4713 65.3323Z" fill="url(#paint0_linear_20_1415)"/>
</g>
<mask id="mask2_20_1415" style="mask-type:luminance" maskUnits="userSpaceOnUse" x="12" y="7" width="59" height="59">
<path d="M12.123 7.58273H70.8193V65.3323H12.123V7.58273Z" fill="white"/>
</mask>
<g mask="url(#mask2_20_1415)">
<path fill-rule="evenodd" clip-rule="evenodd" d="M36.3277 54.6941C45.5574 54.737 53.9021 49.2103 57.4639 40.6955C61.0257 32.1807 59.1016 22.3584 52.5905 15.8169C46.0793 9.27526 36.2661 7.30543 27.7348 10.8275C19.2035 14.3496 13.638 22.6684 13.6379 31.8981C13.6093 44.4584 23.7675 54.664 36.3277 54.6941ZM36.3277 56.214C46.1726 56.2591 55.0731 50.3633 58.8718 41.2808C62.6706 32.1982 60.6177 21.7213 53.6723 14.7439C46.7268 7.76657 36.2595 5.66574 27.1596 9.42276C18.0597 13.1798 12.1232 22.0532 12.1231 31.8981C12.0925 45.2967 22.9292 56.1832 36.3277 56.214Z" fill="url(#paint1_linear_20_1415)"/>
</g>
<mask id="mask3_20_1415" style="mask-type:luminance" maskUnits="userSpaceOnUse" x="12" y="7" width="59" height="59">
<path d="M12.123 7.58273H70.8193V65.3323H12.123V7.58273Z" fill="white"/>
</mask>
<g mask="url(#mask3_20_1415)">
<path fill-rule="evenodd" clip-rule="evenodd" d="M46.6149 54.6941C55.8443 54.7362 64.1884 49.209 67.7497 40.6942C71.3109 32.1793 69.3863 22.3574 62.875 15.8162C56.3637 9.27497 46.5506 7.30549 38.0196 10.8277C29.4886 14.3499 23.9232 22.6686 23.9231 31.8981C23.8945 44.4591 34.0539 54.6651 46.6149 54.6941ZM46.6149 56.214C56.4597 56.2591 65.3602 50.3633 69.159 41.2808C72.9577 32.1982 70.9048 21.7213 63.9594 14.7439C57.0139 7.76657 46.5466 5.66574 37.4467 9.42276C28.3468 13.1798 22.4103 22.0532 22.4102 31.8981C22.3796 45.2967 33.2163 56.1832 46.6149 56.214Z" fill="url(#paint2_linear_20_1415)"/>
</g>
</g>
</g>
<defs>
<linearGradient id="paint0_linear_20_1415" x1="17.2666" y1="16.7001" x2="65.8991" y2="65.3326" gradientUnits="userSpaceOnUse">
<stop stop-color="#31769F"/>
<stop offset="1" stop-color="#12243B"/>
</linearGradient>
<linearGradient id="paint1_linear_20_1415" x1="12.123" y1="7.5818" x2="60.7555" y2="56.2143" gradientUnits="userSpaceOnUse">
<stop stop-color="#3682AE"/>
<stop offset="1" stop-color="#163049"/>
</linearGradient>
<linearGradient id="paint2_linear_20_1415" x1="22.4102" y1="7.5818" x2="71.0426" y2="56.2143" gradientUnits="userSpaceOnUse">
<stop stop-color="#3279A3"/>
<stop offset="1" stop-color="#13283F"/>
</linearGradient>
<clipPath id="clip0_20_1415">
<rect width="82.9421" height="100" fill="white"/>
</clipPath>
</defs>
</svg>
