<svg width="1000" height="703" viewBox="0 0 1000 703" fill="none" xmlns="http://www.w3.org/2000/svg">
    <path
        d="M423.895 135.504C390.649 14.8986 240.829 -23.9522 154.971 66.1825C153.738 67.476 152.507 68.7933 151.274 70.1301C28.1809 203.937 86.3304 533.68 343.224 617.254C600.118 700.828 867.32 548.214 882.332 411.785C897.344 275.357 778.825 232.489 594.9 270.637C490.983 292.19 444.591 210.584 423.895 135.504Z"
        fill="#E0D5F8" />
    <path
        d="M637.595 156.134C603.224 161.73 593.698 192.181 620.236 213.784C629.007 220.924 641.536 226.858 659.381 229.817C727.364 241.095 763.437 211.017 736.187 172.02C719.371 147.951 671.659 150.588 637.595 156.134Z"
        fill="#E0D5F8" />
    <path
        d="M105.658 402.607C88.7792 372.147 56.9001 373.469 45.5332 405.744C41.776 416.412 40.424 430.206 43.6665 448.003C56.0154 515.798 96.5122 539.592 124.011 500.771C140.985 476.811 122.385 432.795 105.658 402.607Z"
        fill="#E0D5F8" />
    <path
        d="M906.558 427.641C903.391 444.217 917.079 455.958 932.588 449.57C937.715 447.459 942.885 443.388 947.485 436.233C965.008 408.974 956.133 385.591 931.736 387.992C916.675 389.474 909.695 411.215 906.558 427.641Z"
        fill="#E0D5F8" />
    <path
        d="M819.666 252.726C836.185 256.174 848.158 242.689 842.034 227.074C840.01 221.913 836.03 216.674 828.954 211.952C801.998 193.969 778.468 202.443 780.452 226.877C781.676 241.96 803.296 249.31 819.666 252.726Z"
        fill="#E0D5F8" />
    <path
        d="M418.156 75.3493C431.236 86.0132 448.071 79.55 449.821 62.8685C450.401 57.3548 449.276 50.87 445.167 43.4226C429.51 15.0497 404.719 11.7467 395.237 34.3529C389.383 48.3089 405.195 64.7828 418.156 75.3493Z"
        fill="#E0D5F8" />
    <path
        d="M941.23 670.612C946.904 671.56 952.822 669.972 956.774 665.793C959.35 663.07 961.1 659.706 961.098 656.483C961.098 656.438 961.098 656.39 961.098 656.345C961.022 633.224 989.43 634.762 998.549 606.493C1007.67 578.224 971.63 575.842 951.044 593.296C936.244 605.846 918.481 588.315 896.967 602.952C878.289 615.656 888.692 646.936 858.054 637.156C848.27 634.031 839.51 637.044 832.117 642.592C823.605 648.98 818.063 657.933 815.755 667.656L818.195 669.38C878.627 706.418 905.858 664.705 941.23 670.612Z"
        fill="#9C78ED" />
    <path
        d="M881.352 669.376L961.465 617.952C962.538 617.264 962.848 615.834 962.16 614.764C961.472 613.691 960.042 613.381 958.971 614.069L872.81 669.376H881.352Z"
        fill="#7846D1" />
    <path
        d="M877.037 516.384C873.656 465.978 873.098 413.122 876.851 378.076C881.752 332.29 892.838 300.418 909.803 283.347C910.927 282.215 912.755 282.209 913.889 283.334C915.02 284.458 915.026 286.288 913.902 287.42C884.244 317.263 873.58 397.398 883 519.321L877.037 516.384Z"
        fill="#5B23A9" />
    <path
        d="M884.62 337.625C884.62 337.625 860.472 337.586 862.198 295.132C862.198 295.132 899.145 305.672 884.62 337.625Z"
        fill="#7846D1" />
    <path
        d="M882.598 359.466C882.598 359.466 881.292 335.352 923.779 334.714C923.779 334.714 915.308 372.191 882.598 359.466Z"
        fill="#7846D1" />
    <path
        d="M901.064 299.915C901.064 299.915 891.794 277.616 931.635 262.849C931.635 262.849 936.147 301.007 901.064 299.915Z"
        fill="#7846D1" />
    <path
        d="M877.176 403.282C877.176 403.282 854.438 411.415 841.701 370.878C841.701 370.878 880.037 368.299 877.176 403.282Z"
        fill="#7846D1" />
    <path
        d="M878.484 425.845C878.484 425.845 873.029 402.32 914.763 394.345C914.763 394.345 912.9 432.722 878.484 425.845Z"
        fill="#7846D1" />
    <path
        d="M877.206 456.916C877.206 456.916 854.625 465.478 841.124 425.191C841.124 425.191 879.403 421.888 877.206 456.916Z"
        fill="#7846D1" />
    <path
        d="M176.426 628.722L169.846 628.462L166.357 628.321L156.472 627.926C156.472 627.926 65.1083 472.823 122.343 422.242C139.963 406.671 170.767 419.582 163.958 491.149C157.646 557.492 176.426 628.722 176.426 628.722Z"
        fill="#7846D1" />
    <path
        d="M169.846 628.463L166.357 628.322C150.407 590.741 142.356 550.372 138.358 522.036C133.613 488.39 133.392 463.958 133.392 463.716C133.383 462.844 134.086 462.13 134.958 462.128C135.83 462.119 136.544 462.822 136.548 463.692C136.55 463.936 136.766 488.197 141.493 521.647C145.514 550.121 153.651 590.821 169.846 628.463Z"
        fill="#5B23A9" />
    <path
        d="M194.576 659.797L185.641 663.115L180.899 664.873L167.469 669.853C167.469 669.853 -41.0391 513.507 7.25984 414.03C22.1287 383.405 70.4839 383.492 101.262 482.917C129.795 575.08 194.576 659.797 194.576 659.797Z"
        fill="#9C78ED" />
    <path
        d="M185.641 663.115L180.9 664.874C138.646 623.546 105.394 574.088 84.2648 538.452C59.1755 496.136 45.267 463.614 45.1351 463.29C44.6376 462.128 45.1805 460.785 46.3421 460.296C47.5036 459.799 48.8469 460.341 49.3379 461.499C49.4763 461.825 63.2853 494.122 88.2362 536.185C109.475 571.992 143.026 621.844 185.641 663.115Z"
        fill="#7846D1" />
    <path
        d="M907.292 668.643C907.19 665.04 906.766 661.399 905.977 657.787C898.48 623.472 918.873 616.998 945.762 606.161C972.642 595.322 975.841 563.129 956.804 536.379C937.763 509.622 971.974 488.119 959.378 447.853C946.781 407.588 903.031 434.371 893.459 471.491C886.583 498.181 851.604 492.406 838.652 527.019C827.399 557.066 865.11 584.818 821.557 598.593C807.646 602.986 799.957 613.663 795.929 626.159C791.293 640.545 792.204 655.475 797.497 668.641L907.292 668.643Z"
        fill="#7846D1" />
    <path
        d="M854.022 668.642L925.76 491.546C926.439 489.87 925.628 487.957 923.949 487.278C922.273 486.599 920.361 487.41 919.682 489.089L846.949 668.642H854.022Z"
        fill="#5B23A9" />
    <path
        d="M256.293 133.235C256.293 133.235 257.8 101.352 238.409 95.2284C208.212 85.6914 199.807 101.352 195.147 111.7C189.175 124.962 191.721 150.975 209.737 153.486C236.633 157.237 254.632 142.145 256.293 133.235Z"
        fill="#403657" />
    <path
        d="M275.758 239.854C291.451 239.854 305.007 228.857 308.221 213.495C310.536 202.431 312.796 192.636 312.796 187.134V186.991C312.937 185.252 313.015 183.513 313.028 181.8C313.233 156.641 297.724 110.691 243.167 117.994C243.167 117.994 197.899 123.159 192.746 167.396C192.746 167.396 190.601 187.804 189.175 202.582C189.149 202.844 189.123 203.103 189.097 203.361C187.107 222.893 202.467 239.85 222.099 239.85H275.758V239.854Z"
        fill="#403657" />
    <path
        d="M340.527 292.437C340.527 292.437 350.174 368.86 361.192 408.093C361.192 408.093 376.849 400.802 397.339 390.901C419.558 380.168 451.5 360.584 451.5 360.584L459.573 380.03C459.573 380.03 377.063 457.902 349.733 462.312C322.402 466.721 305.652 368.86 305.652 368.86L340.527 292.437Z"
        fill="#7846D1" />
    <path
        d="M449.809 362.864C449.809 362.864 447.542 352.005 452.4 344.657C457.259 337.309 464.656 323.552 473.341 320.68C480.609 318.277 469.887 330.543 469.566 338.326C469.566 338.326 480.375 336.97 488.171 334.437C495.028 332.209 508.597 329.429 514.889 328.192C516.613 327.852 517.72 330.026 516.392 331.177C514.247 333.037 509.763 335.376 500.489 337.61C500.489 337.61 523.091 333.331 525.436 336.792C527.781 340.253 499.425 345.086 499.425 345.086C499.425 345.086 521.426 343.783 521.999 347.236C522.347 349.336 499.555 354.149 499.555 354.149C499.555 354.149 520.355 354.707 515.324 357.99C513.859 358.946 473.592 363.478 459.573 380.03C459.573 380.03 450.142 370.283 449.809 362.864Z"
        fill="#FFA681" />
    <path
        d="M201.396 277.384C201.396 277.384 155.236 290.998 115.484 299.966C115.484 299.966 114.452 282.727 113.412 259.993C112.282 235.343 114.314 197.931 114.314 197.931L93.3686 200.081C93.3686 200.081 64.1219 309.702 73.2435 335.839C82.3673 361.977 198.216 325.363 198.216 325.363L201.396 277.384Z"
        fill="#7846D1" />
    <path
        d="M113.113 200.504C113.113 200.504 123.743 197.333 127.894 189.564C132.047 181.794 143.517 166.149 136.438 160.356C133.853 158.24 131.99 167.468 125.296 171.452C125.296 171.452 121.348 161.301 119.866 153.237C118.562 146.145 114.554 132.889 112.65 126.766C112.129 125.089 109.689 125.148 109.311 126.863C108.696 129.636 108.772 134.693 111.218 143.912C111.218 143.912 104.232 121.996 100.07 121.581C95.9105 121.166 105.149 148.405 105.149 148.405C105.149 148.405 95.8283 128.433 92.521 129.573C90.5072 130.266 97.1154 152.603 97.1154 152.603C97.1154 152.603 86.7305 134.572 86.2352 140.56C86.0902 142.303 101.26 179.878 93.3689 200.083C93.3689 200.083 106.429 203.74 113.113 200.504Z"
        fill="#FFA681" />
    <path
        d="M338.8 588.538L339.168 590.171C303.225 614.508 168.773 597.891 168.773 597.891C169.005 595.071 169.303 592.12 169.697 589.07C170.116 585.668 170.638 582.146 171.235 578.506C172.859 568.718 175.037 558.136 177.484 547.245C178.271 543.817 179.056 540.339 179.885 536.843C182.312 526.45 184.894 515.909 187.339 505.643C188.184 502.113 189.015 498.633 189.818 495.172C190.938 490.368 191.998 485.641 193.015 481.06C194.338 474.965 195.519 469.109 196.51 463.596C197.176 459.886 197.758 456.33 198.202 452.953C198.714 449.38 199.065 446.003 199.279 442.876C197.142 434.978 195.15 427.241 193.296 419.737C192.372 415.917 191.466 412.182 190.577 408.487C187.815 396.666 185.388 385.416 183.268 374.878C182.515 371.049 181.771 367.322 181.096 363.688C178.745 351.259 176.848 340.011 175.319 330.198C174.728 326.282 174.172 322.633 173.685 319.188C173.147 315.417 172.686 311.931 172.284 308.768C170.48 294.851 169.857 286.962 169.857 286.962C170.173 286.707 170.506 286.476 170.848 286.227C174.925 283.328 181.302 280.603 188.388 278.182C195.868 275.617 204.141 273.387 211.433 271.626C212.536 271.362 213.622 271.105 214.682 270.856C224.264 268.617 231.428 267.317 231.428 267.317C264.03 274.148 273.331 269.753 273.331 269.753L289.907 274.642L291.856 275.325L303.934 279.565L304.421 279.744L326.082 287.369L340.527 292.437L334.92 318.294L332.476 329.585L325.091 363.623L322.664 374.873L315.312 408.792L312.894 419.93L306.807 448.035L308.02 453.403L310.397 463.823L314.168 480.39L317.596 495.373L319.956 505.758L327.051 537.001L329.419 547.328L336.454 578.212L338.8 588.538Z"
        fill="#9C78ED" />
    <path
        d="M291.853 275.325C288.384 295.703 278.503 316.204 257.963 318.417C233.148 321.101 220.282 289.975 214.684 270.854C224.266 268.615 234.197 266.426 234.197 266.426C266.799 273.255 273.089 269.095 273.089 269.095L289.904 274.641L291.853 275.325Z"
        fill="#FFA681" />
    <path
        d="M255.44 301.298C229.434 301.298 223.215 269.179 223.154 268.848C223.027 268.152 223.487 267.483 224.182 267.356C224.88 267.23 225.547 267.687 225.676 268.383C225.914 269.672 231.813 299.981 256.952 298.696C278.953 297.584 280.246 273.168 280.292 272.127C280.322 271.42 280.91 270.866 281.626 270.901C282.333 270.931 282.883 271.528 282.853 272.233C282.842 272.51 281.429 300.024 257.082 301.255C256.526 301.285 255.979 301.298 255.44 301.298Z"
        fill="white" />
    <path
        d="M208.787 292.442C208.787 295.949 205.945 298.791 202.438 298.791C198.932 298.791 196.09 295.949 196.09 292.442C196.09 288.936 198.932 286.094 202.438 286.094C205.945 286.094 208.787 288.936 208.787 292.442Z"
        fill="#7846D1" />
    <path
        d="M196.073 323.417C196.073 326.923 193.231 329.766 189.725 329.766C186.218 329.766 183.376 326.923 183.376 323.417C183.376 319.911 186.218 317.068 189.725 317.068C193.229 317.071 196.073 319.913 196.073 323.417Z"
        fill="#7846D1" />
    <path
        d="M236.604 338.06C236.604 341.567 233.762 344.409 230.256 344.409C226.749 344.409 223.907 341.567 223.907 338.06C223.907 334.554 226.749 331.712 230.256 331.712C233.764 331.712 236.604 334.556 236.604 338.06Z"
        fill="#7846D1" />
    <path
        d="M208.333 355.377C209.633 358.632 208.05 362.327 204.792 363.627C201.537 364.927 197.842 363.341 196.542 360.086C195.242 356.831 196.828 353.136 200.083 351.836C203.338 350.536 207.033 352.122 208.333 355.377Z"
        fill="#7846D1" />
    <path
        d="M263.364 367.101C263.364 370.607 260.522 373.449 257.015 373.449C253.509 373.449 250.667 370.607 250.667 367.101C250.667 363.594 253.509 360.752 257.015 360.752C260.522 360.752 263.364 363.594 263.364 367.101Z"
        fill="#7846D1" />
    <path
        d="M303.852 380.184C303.852 383.69 301.01 386.532 297.504 386.532C293.997 386.532 291.155 383.69 291.155 380.184C291.155 376.677 293.997 373.835 297.504 373.835C301.01 373.835 303.852 376.677 303.852 380.184Z"
        fill="#7846D1" />
    <path
        d="M311.998 298.79C311.998 302.296 309.156 305.139 305.649 305.139C302.143 305.139 299.301 302.296 299.301 298.79C299.301 295.284 302.143 292.441 305.649 292.441C309.156 292.444 311.998 295.284 311.998 298.79Z"
        fill="#7846D1" />
    <path
        d="M265.931 407.64C265.931 411.146 263.089 413.988 259.582 413.988C256.076 413.988 253.234 411.146 253.234 407.64C253.234 404.133 256.076 401.291 259.582 401.291C263.089 401.293 265.931 404.135 265.931 407.64Z"
        fill="#7846D1" />
    <path
        d="M226.823 427.323C226.823 430.83 223.981 433.672 220.474 433.672C216.968 433.672 214.126 430.83 214.126 427.323C214.126 423.817 216.968 420.975 220.474 420.975C223.981 420.977 226.823 423.819 226.823 427.323Z"
        fill="#7846D1" />
    <path
        d="M222.268 391.477C222.268 394.984 219.425 397.826 215.919 397.826C212.413 397.826 209.571 394.984 209.571 391.477C209.571 387.971 212.413 385.129 215.919 385.129C219.425 385.129 222.268 387.971 222.268 391.477Z"
        fill="#7846D1" />
    <path
        d="M284.808 339.723C284.808 343.229 281.966 346.071 278.459 346.071C274.953 346.071 272.111 343.229 272.111 339.723C272.111 336.216 274.953 333.374 278.459 333.374C281.966 333.374 284.808 336.216 284.808 339.723Z"
        fill="#7846D1" />
    <path
        d="M319.906 331.712C319.906 335.218 317.064 338.06 313.558 338.06C310.051 338.06 307.209 335.218 307.209 331.712C307.209 328.206 310.051 325.363 313.558 325.363C317.064 325.363 319.906 328.208 319.906 331.712Z"
        fill="#7846D1" />
    <path
        d="M297.503 418.143C297.503 421.65 294.661 424.492 291.155 424.492C287.648 424.492 284.806 421.65 284.806 418.143C284.806 414.637 287.648 411.795 291.155 411.795C294.661 411.795 297.503 414.637 297.503 418.143Z"
        fill="#7846D1" />
    <path
        d="M299.205 468.368C299.205 471.874 296.363 474.717 292.857 474.717C289.351 474.717 286.508 471.874 286.508 468.368C286.508 464.862 289.351 462.02 292.857 462.02C296.365 462.02 299.205 464.862 299.205 468.368Z"
        fill="#7846D1" />
    <path
        d="M266.894 447.415C268.194 450.67 266.61 454.365 263.353 455.665C260.097 456.965 256.403 455.379 255.103 452.124C253.803 448.869 255.388 445.174 258.644 443.874C261.901 442.574 265.594 444.16 266.894 447.415Z"
        fill="#7846D1" />
    <path
        d="M223.678 466.015C224.978 469.27 223.392 472.965 220.137 474.265C216.881 475.565 213.187 473.979 211.887 470.724C210.587 467.469 212.172 463.774 215.428 462.474C218.683 461.174 222.378 462.757 223.678 466.015Z"
        fill="#7846D1" />
    <path
        d="M352.25 668.597L350.935 660.687L345.813 630.006L344.056 619.496L339.166 590.171L330.275 590.571L212.408 595.916L168.775 597.887L165.969 620.694L164.656 631.319L160.782 662.826L160.071 668.597H352.25Z"
        fill="#9C78ED" />
    <path
        d="M352.243 668.596L351.041 661.447L350.941 660.697L350.091 655.646L349.241 650.645L345.791 629.992L344.792 623.892L344.041 619.492L343.942 618.841L339.49 592.086L339.189 590.185L338.789 588.535L338.439 587.083L336.438 578.232L332.488 560.93L331.337 555.979L329.386 547.326L327.035 536.974L325.434 529.873L324.284 524.921L319.934 505.767L318.333 498.766L317.582 495.365L317.232 493.814L314.182 480.362C266.275 494.515 215.516 486.114 193.012 481.063C192.013 485.614 190.912 490.364 189.811 495.166C189.56 496.218 189.311 497.267 189.06 498.316C188.66 499.966 188.26 501.617 187.859 503.267C187.71 504.067 187.509 504.818 187.31 505.618C185.461 513.47 183.51 521.471 181.608 529.423C181.208 531.073 180.858 532.724 180.457 534.324C180.256 535.174 180.057 535.975 179.858 536.825C179.058 540.324 178.258 543.827 177.457 547.227C176.458 551.778 175.506 556.227 174.606 560.629C174.256 562.28 173.906 563.88 173.607 565.481C172.707 569.932 171.907 574.282 171.206 578.483C170.605 582.134 170.105 585.634 169.705 589.084C169.556 590.133 169.454 591.185 169.305 592.184C169.156 593.884 168.954 595.534 168.805 597.185C168.805 597.436 168.755 597.635 168.755 597.886L165.954 620.689L165.504 624.238L164.905 629.189L164.654 631.29L161.555 656.243L160.953 661.244L160.754 662.845L160.062 668.592H352.243V668.596Z"
        fill="#403657" />
    <path
        d="M294.269 190.038C294.269 190.038 302.063 180.166 307.858 188.329C313.652 196.493 305.459 220.606 291.273 214.721L294.269 190.038Z"
        fill="#F97853" />
    <path
        d="M294.369 207.27C294.892 207.27 295.375 206.941 295.522 206.437C297.719 198.994 305.837 195.974 305.92 195.946C306.536 195.721 306.848 195.063 306.614 194.477C306.38 193.889 305.688 193.593 305.07 193.815C304.691 193.952 295.745 197.25 293.214 205.822C293.034 206.428 293.406 207.055 294.044 207.226C294.153 207.257 294.263 207.27 294.369 207.27Z"
        fill="#EA5143" />
    <path
        d="M302.562 203.519C302.785 203.519 303.01 203.461 303.211 203.337C303.767 202.996 303.927 202.293 303.57 201.763C303.512 201.674 302.076 199.593 299.071 198.315C298.47 198.057 297.758 198.315 297.488 198.89C297.218 199.463 297.488 200.138 298.094 200.396C300.417 201.384 301.546 202.98 301.557 202.996C301.784 203.335 302.169 203.519 302.562 203.519Z"
        fill="#EA5143" />
    <path
        d="M290.761 214.565C289.42 216.058 288.596 218.024 288.596 220.18C288.596 224.837 292.386 228.627 297.043 228.627C301.7 228.627 305.489 224.837 305.489 220.18C305.489 217.496 304.233 215.106 302.275 213.561C301.293 212.785 300.138 212.222 298.875 211.941C298.663 211.37 298.767 210.836 299.178 210.343C300.793 210.695 302.262 211.433 303.489 212.458C305.706 214.301 307.116 217.083 307.116 220.185C307.116 225.742 302.599 230.258 297.043 230.258C291.49 230.258 286.969 225.742 286.969 220.185C286.969 217.79 287.819 215.601 289.221 213.875C289.734 214.102 290.246 214.334 290.761 214.565Z"
        fill="white" />
    <path
        d="M234.197 240.479V270.058C234.197 270.058 247.945 280.666 258.672 281.587C269.388 282.522 273.091 269.877 273.091 269.877V242.347L234.197 240.479Z"
        fill="#FFA681" />
    <path
        d="M234.197 243.376V255.175C241.393 263.161 254.17 265.993 273.086 263.2L273.091 245.245L234.197 243.376Z"
        fill="#F97853" />
    <path
        d="M298.953 201.283C298.611 204.138 298.206 207.045 297.694 209.939C294.296 229.175 282.128 249.951 266.764 253.438C233.589 260.968 219.813 234.912 214.509 215.689C213.923 213.554 215.022 211.107 214.559 208.579C213.46 202.589 211.039 195.784 210.49 189.072C210.111 184.422 209.843 179.834 209.646 175.689C209.108 164 215.878 153.256 226.462 149.062C241.712 142.997 264.869 138.193 286.805 151.059C294.908 155.811 299.991 164.606 300.175 174.236C300.309 181.592 300.125 191.209 298.953 201.283Z"
        fill="#FFA681" />
    <path
        d="M256.881 216.168C256.262 216.168 255.717 215.722 255.611 215.093C255.494 214.39 255.966 213.726 256.669 213.609L261.094 212.865L254.997 196.627C254.746 195.961 255.083 195.219 255.75 194.968C256.416 194.721 257.16 195.054 257.409 195.721L264.605 214.888L257.095 216.149C257.024 216.162 256.952 216.168 256.881 216.168Z"
        fill="#F97853" />
    <path
        d="M272.756 194.682C272.756 197.52 274.218 199.822 276.024 199.822C277.828 199.822 279.293 197.52 279.293 194.682C279.293 191.844 277.831 189.543 276.024 189.543C274.218 189.543 272.756 191.844 272.756 194.682Z"
        fill="#403657" />
    <path
        d="M236.635 194.682C236.635 197.52 238.097 199.822 239.903 199.822C241.709 199.822 243.171 197.52 243.171 194.682C243.171 191.844 241.709 189.543 239.903 189.543C238.097 189.543 236.635 191.844 236.635 194.682Z"
        fill="#403657" />
    <path
        d="M285.63 181.2C283.002 180.688 277.69 179.842 272.031 180.043C270.543 180.095 269.349 181.218 269.554 182.403L269.559 182.433C269.723 183.379 270.738 184.017 271.927 183.926C275.784 183.636 285.872 183.699 290.568 185.096C290.698 184.417 290.244 183.694 289.582 183.063C288.576 182.102 287.166 181.499 285.63 181.2Z"
        fill="#403657" />
    <path
        d="M233.094 181.82C235.713 181.273 241.015 180.354 246.676 180.475C248.166 180.507 249.373 181.613 249.185 182.8L249.18 182.83C249.029 183.78 248.025 184.429 246.834 184.355C242.972 184.117 232.888 184.319 228.212 185.781C228.071 185.102 228.517 184.375 229.172 183.732C230.159 182.763 231.562 182.14 233.094 181.82Z"
        fill="#403657" />
    <path
        d="M272.756 223.838C271.802 228.357 268.627 236.667 257.933 236.667C247.212 236.667 244.206 229.072 243.172 223.838H272.756Z"
        fill="white" />
    <path
        d="M258.084 244.433C261.17 244.433 263.894 242.771 264.01 242.7C264.603 242.332 264.787 241.556 264.421 240.961C264.056 240.368 263.279 240.184 262.685 240.548C262.663 240.561 260.439 241.906 258.086 241.906C255.538 241.906 253.256 240.556 253.234 240.543C252.635 240.184 251.861 240.377 251.501 240.974C251.142 241.571 251.333 242.345 251.928 242.706C252.042 242.778 254.813 244.433 258.084 244.433Z"
        fill="#F97853" />
    <path
        d="M300.294 198.264C299.984 198.523 299.686 198.432 299.407 197.926C295.025 190.202 299.143 174.79 286.175 168.881C276.299 164.375 272.754 155.132 272.754 155.132C270.495 158.997 264.612 162.543 264.612 162.543C264.612 162.543 249.695 171.381 234.195 177.353C229.588 179.129 226.306 180.931 224.009 182.477C224.189 182.527 224.284 182.555 224.284 182.555C224.284 182.555 219.992 189.527 223.131 200.366C226.272 211.199 222.231 229.074 215.26 233.199C215.383 232.896 220.613 220.534 217.658 210.45C215.956 204.668 215.971 195.471 214.358 189.957C212.571 188.727 208.439 186.652 207.04 185.819C206.642 181.078 206.354 176.404 206.153 172.179C205.586 160.263 212.72 149.313 223.879 145.033C239.953 138.853 264.365 133.96 287.488 147.073C296.028 151.916 301.388 160.882 301.585 170.697C301.728 178.19 301.531 187.993 300.294 198.264Z"
        fill="#403657" />
    <path
        d="M214.36 189.958C214.36 189.958 205.299 178.964 199.952 186.891C194.605 194.819 202.5 219.123 215.591 213.408L214.36 189.958Z"
        fill="#FFA681" />
    <path
        d="M214.725 213.801C215.662 215.574 215.986 217.681 215.463 219.773C214.334 224.292 209.737 227.047 205.219 225.918C200.7 224.787 197.944 220.193 199.073 215.674C199.724 213.07 201.524 211.056 203.8 210.033C204.94 209.518 206.196 209.252 207.49 209.284C207.715 208.802 207.829 208.278 207.583 207.66C205.93 207.61 204.325 207.969 202.889 208.666C200.291 209.916 198.247 212.271 197.496 215.28C196.149 220.671 199.432 226.15 204.825 227.497C210.211 228.845 215.694 225.561 217.042 220.169C217.624 217.846 217.33 215.516 216.389 213.5C215.833 213.602 215.279 213.703 214.725 213.801Z"
        fill="white" />
    <path
        d="M212.396 205.282C211.911 205.282 211.468 204.961 211.331 204.473C209.302 197.244 201.814 194.313 201.738 194.285C201.169 194.066 200.882 193.428 201.098 192.857C201.314 192.286 201.952 191.998 202.523 192.215C202.874 192.347 211.128 195.55 213.464 203.876C213.628 204.464 213.287 205.074 212.698 205.241C212.597 205.269 212.495 205.282 212.396 205.282Z"
        fill="#F97853" />
    <path
        d="M204.836 201.641C204.63 201.641 204.422 201.585 204.239 201.466C203.724 201.135 203.577 200.452 203.908 199.937C203.964 199.852 205.288 197.83 208.061 196.591C208.614 196.34 209.272 196.591 209.523 197.149C209.772 197.707 209.523 198.36 208.965 198.611C206.821 199.569 205.779 201.122 205.77 201.135C205.556 201.462 205.199 201.641 204.836 201.641Z"
        fill="#F97853" />
    <path
        d="M694.306 428.69C673.221 443.827 640.232 454.21 640.232 454.21L633.477 429.914L628.207 410.959L624.489 397.6L586.679 397.574C588.727 404.66 590.843 411.898 592.969 419.027C595.697 428.223 598.418 437.227 601.005 445.529C604.654 457.212 608.02 467.486 610.732 474.828C611.366 476.541 612.103 478.406 612.927 480.396C617.98 494.047 622.062 508.853 641.35 499.565C658.33 491.386 681.358 480.049 692.865 472.522L694.306 428.69Z"
        fill="#FFA681" />
    <path
        d="M592.964 419.028C595.692 428.221 598.411 437.228 601 445.528C616.433 443.892 627.119 436.244 633.476 429.915L628.207 410.962L592.964 419.028Z"
        fill="#F97853" />
    <path
        d="M584.937 286.426C584.937 286.426 624.38 380.495 641.345 410.973C641.345 410.973 617.571 431.186 594.413 431.738C594.413 431.738 581.067 328.458 584.937 286.426Z"
        fill="#6020BD" />
    <path
        d="M492.585 668.665C492.981 662.081 493.355 655.817 493.697 650.007C495.092 626.26 495.992 610.053 495.992 610.053L486.693 609.635L481.45 609.399L418.226 606.592C418.226 606.592 417.075 624.718 415.719 651.337C415.442 656.783 415.154 662.589 414.866 668.663H492.585V668.665Z"
        fill="#9C78ED" />
    <path
        d="M486.691 609.637L495.99 610.055C495.99 610.055 495.092 626.262 493.695 650.008C469.404 652.033 442.882 652.857 415.717 651.339C417.073 624.72 418.224 606.594 418.224 606.594L481.448 609.401L486.691 609.637Z"
        fill="#7846D1" />
    <path
        d="M483.37 668.664C484.837 643.297 486.042 621.57 486.695 609.638L481.452 609.402C480.796 621.386 479.587 643.213 478.116 668.664H483.37Z"
        fill="#7846D1" />
    <path
        d="M512.962 668.664H590.68C590.393 662.588 590.107 656.784 589.828 651.338C588.472 624.719 587.321 606.593 587.321 606.593L524.097 609.4L518.856 609.636L509.557 610.054C509.557 610.054 510.455 626.261 511.85 650.008C512.191 655.815 512.566 662.082 512.962 668.664Z"
        fill="#9C78ED" />
    <path
        d="M518.856 609.636L509.555 610.054C509.555 610.054 510.452 626.261 511.85 650.008C536.141 652.032 562.662 652.856 589.828 651.338C588.472 624.719 587.321 606.593 587.321 606.593L524.097 609.4L518.856 609.636Z"
        fill="#7846D1" />
    <path
        d="M527.428 668.663C525.957 643.212 524.75 621.385 524.092 609.401L518.849 609.637C519.502 621.569 520.705 643.297 522.174 668.663H527.428Z"
        fill="#7846D1" />
    <path
        d="M404.504 561.514C404.495 562.816 404.504 564.101 404.504 565.367C404.532 588.49 404.646 606.408 404.761 615.206C427.095 621.256 449.426 625.164 471.768 626.971C472.787 627.046 473.784 627.122 474.803 627.198C475.346 627.237 475.887 627.273 476.43 627.301C477.628 627.388 478.835 627.464 480.025 627.52C481.357 627.606 482.679 627.671 484.02 627.738C499.22 628.441 514.417 628.167 529.628 626.921C532.7 626.663 535.754 626.369 538.825 626.036C539.024 626.017 539.215 625.997 539.416 625.98C540.197 625.893 540.975 625.798 541.765 625.703C542.241 625.647 542.717 625.588 543.182 625.532C560.863 623.421 578.546 619.969 596.237 615.203C596.285 611.208 596.304 605.284 596.304 597.817C596.304 596.428 596.304 595.003 596.296 593.508V593.499C596.287 582.818 596.22 569.522 596.105 554.493C596.097 553.208 596.086 551.914 596.077 550.602C595.991 540.595 595.887 529.877 595.753 518.701C595.733 517.407 595.725 516.114 595.705 514.812C595.562 503.35 595.392 491.442 595.193 479.353C595.069 471.972 594.935 464.525 594.784 457.066C594.632 449.515 594.47 441.953 594.288 434.439C594.249 432.803 594.213 431.166 594.165 429.531C592.435 358.47 589.439 293.156 584.483 285.871C581.05 280.829 573.183 274.904 563.919 268.932C562.788 268.21 561.637 267.476 560.467 266.745C556.519 264.282 524.324 253.343 520.234 250.938L486.202 248.561C485.993 248.684 453.454 259.661 453.246 259.774C451.849 260.572 450.43 261.381 449.032 262.19C436.982 269.142 425.092 276.466 418.243 282.774C417.244 283.686 416.351 284.58 415.589 285.456C414.982 286.15 414.439 286.825 414.002 287.491C413.593 288.09 413.193 289.098 412.812 290.478C408.694 305.44 406.535 364.239 405.46 428.213C405.384 432.799 405.317 437.411 405.25 442.033C405.222 444.06 405.194 446.095 405.163 448.131C405.135 449.528 405.116 450.936 405.107 452.336C405.099 453.039 405.088 453.733 405.079 454.438C405.032 457.919 404.993 461.39 404.964 464.845C404.936 467.404 404.908 469.952 404.878 472.502C404.571 504.721 404.476 536.014 404.504 561.514Z"
        fill="#7846D1" />
    <path
        d="M343.648 652.883C342.811 661.966 353.873 657.04 350.743 638.635C347.624 620.232 356.488 603.567 360.312 604.1C364.145 604.642 357.145 624.197 360.55 631.246C363.946 638.293 368.339 624.597 372.715 616.293C377.253 607.666 376.985 588.843 374.921 575.413C372.858 561.974 397.207 480.375 397.331 456.73L400.298 446.707L411.161 410.002L428.167 352.525C428.167 352.525 417.979 309.019 400.802 312.757C400.802 312.757 391.709 343.059 381.99 377.236C380.344 383.037 378.681 388.953 377.035 394.852C370.111 419.63 363.604 444.092 360.58 458.606C352.59 496.926 351.974 576.585 351.974 576.585C351.974 576.585 337.877 605.852 337.544 618.873C337.189 632.758 344.474 643.8 343.648 652.883Z"
        fill="#FFA681" />
    <path
        d="M377.032 394.847L400.298 446.704L411.161 409.999L381.99 377.233C380.342 383.035 378.679 388.951 377.032 394.847Z"
        fill="#F97853" />
    <path
        d="M375.88 379.401C386.085 396.902 396.463 414.308 406.801 431.742C410.205 420.339 413.735 409.391 417.045 399.327C417.053 399.299 417.064 399.279 417.073 399.251C418.395 395.228 419.688 391.347 420.925 387.638C420.945 387.57 420.964 387.503 420.992 387.447C421.421 386.145 421.838 384.86 422.266 383.606V383.597C427.203 368.674 431.027 356.812 432.119 349.899C435.067 331.285 427.032 294.818 415.712 287.626C415.418 288.282 414.525 286.257 413.993 287.494C412.005 292.089 403.177 303.436 398.81 314.487C398.25 315.895 397.679 317.36 397.088 318.852C390.764 335.105 383.031 356.249 375.88 379.401Z"
        fill="#7846D1" />
    <path
        d="M501.709 282.588C516.446 282.588 526.835 269.142 527.27 268.569C527.891 267.754 527.774 266.555 527.013 265.893C526.251 265.231 525.131 265.355 524.51 266.168C524.376 266.343 514.703 278.783 501.709 278.783C488.869 278.783 481.037 264.706 480.961 264.563C480.466 263.657 479.376 263.35 478.53 263.877C477.682 264.405 477.392 265.567 477.885 266.475C478.242 267.133 486.797 282.588 501.709 282.588Z"
        fill="#6020BD" />
    <path
        d="M564.018 411.42C564.291 411.42 564.566 411.353 564.827 411.212C565.71 410.734 566.065 409.579 565.617 408.634L559.19 395.052C558.745 394.107 557.666 393.728 556.781 394.208C555.896 394.686 555.544 395.841 555.991 396.787L562.418 410.369C562.731 411.037 563.363 411.42 564.018 411.42Z"
        fill="#6020BD" />
    <path
        d="M577.412 400.295C577.643 400.448 577.909 400.548 578.201 400.576C579.188 400.669 580.059 399.89 580.146 398.834L581.405 383.671C581.493 382.618 580.765 381.684 579.776 381.591C578.79 381.498 577.918 382.276 577.831 383.332L576.572 398.495C576.51 399.241 576.856 399.922 577.412 400.295Z"
        fill="#6020BD" />
    <path
        d="M542.883 376.785C543.746 376.785 544.505 376.118 544.65 375.18L546.971 360.162C547.131 359.117 546.471 358.128 545.494 357.955C544.514 357.784 543.592 358.49 543.432 359.536L541.111 374.555C540.951 375.599 541.611 376.588 542.589 376.761C542.688 376.776 542.788 376.785 542.883 376.785Z"
        fill="#6020BD" />
    <path
        d="M485.147 382.374C485.458 382.374 485.772 382.288 486.06 382.106C486.912 381.567 487.195 380.391 486.689 379.478L479.438 366.38C478.934 365.47 477.833 365.167 476.981 365.708C476.129 366.249 475.846 367.423 476.352 368.336L483.602 381.435C483.935 382.039 484.535 382.374 485.147 382.374Z"
        fill="#6020BD" />
    <path
        d="M556.076 323.666C556.409 323.666 556.746 323.567 557.047 323.359L568.998 315.092C569.831 314.517 570.068 313.329 569.53 312.44C568.991 311.551 567.882 311.296 567.049 311.871L555.098 320.138C554.265 320.714 554.027 321.901 554.566 322.79C554.912 323.357 555.487 323.666 556.076 323.666Z"
        fill="#6020BD" />
    <path
        d="M502.838 445.696C503.111 445.696 503.385 445.629 503.647 445.488C504.53 445.01 504.884 443.855 504.437 442.91L498.01 429.328C497.562 428.383 496.485 428.004 495.601 428.482C494.718 428.96 494.363 430.115 494.811 431.061L501.237 444.643C501.551 445.311 502.183 445.696 502.838 445.696Z"
        fill="#6020BD" />
    <path
        d="M531.075 333.885C531.672 333.885 532.256 333.567 532.598 332.985C533.123 332.087 532.868 330.902 532.029 330.342L519.966 322.265C519.126 321.705 518.019 321.973 517.493 322.873C516.967 323.77 517.223 324.956 518.062 325.516L530.125 333.593C530.422 333.79 530.75 333.885 531.075 333.885Z"
        fill="#6020BD" />
    <path
        d="M559.768 277.41C559.742 277.78 559.814 278.143 559.974 278.446C560.248 279.008 560.791 279.406 561.432 279.454C562.418 279.53 563.272 278.731 563.344 277.676L563.913 268.935C562.783 268.212 561.635 267.479 560.462 266.748L559.768 277.41Z"
        fill="#6020BD" />
    <path
        d="M575.851 360.742C576.448 360.742 577.032 360.424 577.373 359.842C577.899 358.945 577.644 357.759 576.805 357.199L564.741 349.122C563.902 348.562 562.794 348.83 562.269 349.73C561.743 350.628 561.998 351.811 562.838 352.373L574.901 360.45C575.195 360.647 575.524 360.742 575.851 360.742Z"
        fill="#6020BD" />
    <path
        d="M479.644 294.467C479.981 294.467 480.325 294.365 480.628 294.151C481.454 293.567 481.684 292.379 481.138 291.495L474.26 280.329C473.717 279.444 472.603 279.198 471.777 279.782C470.95 280.366 470.721 281.553 471.266 282.44L478.145 293.606C478.489 294.162 479.06 294.467 479.644 294.467Z"
        fill="#6020BD" />
    <path
        d="M473.477 487.339C473.948 487.339 474.418 487.143 474.77 486.749L484.627 475.767C485.313 475.003 485.289 473.79 484.575 473.057C483.862 472.321 482.726 472.347 482.04 473.113L472.183 484.093C471.495 484.856 471.521 486.07 472.235 486.805C472.583 487.162 473.031 487.339 473.477 487.339Z"
        fill="#6020BD" />
    <path
        d="M509.697 485.056C510.169 485.056 510.638 484.86 510.991 484.466L520.848 473.484C521.535 472.721 521.51 471.507 520.796 470.774C520.08 470.038 518.946 470.064 518.261 470.828L508.404 481.81C507.718 482.573 507.742 483.787 508.455 484.522C508.804 484.879 509.251 485.056 509.697 485.056Z"
        fill="#6020BD" />
    <path
        d="M535.739 559.284C535.903 558.813 535.897 558.272 535.676 557.781L529.522 544.054C529.094 543.098 528.023 542.696 527.13 543.154C526.236 543.613 525.86 544.757 526.288 545.713L532.442 559.44C532.871 560.396 533.941 560.798 534.835 560.34C535.272 560.117 535.583 559.73 535.739 559.284Z"
        fill="#6020BD" />
    <path
        d="M431.795 604.573C431.961 604.102 431.953 603.561 431.732 603.07L425.578 589.343C425.15 588.387 424.079 587.985 423.186 588.443C422.292 588.902 421.916 590.046 422.344 591.002L428.498 604.729C428.926 605.685 429.997 606.087 430.891 605.629C431.327 605.406 431.639 605.021 431.795 604.573Z"
        fill="#6020BD" />
    <path
        d="M476.43 627.307C477.63 627.391 478.831 627.469 480.023 627.525L481.277 618.975C481.429 617.928 480.76 616.948 479.783 616.788C478.805 616.625 477.888 617.339 477.736 618.386L476.43 627.307Z"
        fill="#6020BD" />
    <path
        d="M462.115 601.464C462.502 601.177 462.781 600.727 462.859 600.188L465.061 585.148C465.215 584.101 464.546 583.121 463.566 582.957C462.586 582.793 461.671 583.509 461.518 584.556L459.316 599.595C459.162 600.642 459.831 601.622 460.811 601.786C461.286 601.869 461.749 601.739 462.115 601.464Z"
        fill="#6020BD" />
    <path
        d="M548.656 475.721C548.961 475.721 549.27 475.637 549.554 475.462C550.41 474.932 550.702 473.757 550.207 472.84L543.078 459.667C542.582 458.75 541.486 458.438 540.627 458.968C539.77 459.498 539.476 460.673 539.974 461.59L547.103 474.765C547.434 475.377 548.035 475.721 548.656 475.721Z"
        fill="#6020BD" />
    <path
        d="M527.72 442.79C528.369 442.79 528.996 442.412 529.316 441.752L535.84 428.224C536.294 427.283 535.948 426.126 535.068 425.639C534.19 425.15 533.108 425.522 532.652 426.465L526.126 439.993C525.672 440.934 526.018 442.091 526.898 442.576C527.162 442.721 527.443 442.79 527.72 442.79Z"
        fill="#6020BD" />
    <path
        d="M584.418 440.807C584.604 441.045 584.844 441.224 585.093 441.339C585.699 441.605 586.408 441.51 586.942 441.034L594.279 434.443C594.243 432.808 594.208 431.17 594.165 429.535L584.632 438.094C583.877 438.78 583.778 439.987 584.418 440.807Z"
        fill="#6020BD" />
    <path
        d="M527.813 299.27C528.464 299.27 529.089 298.891 529.409 298.231L535.935 284.704C536.389 283.763 536.043 282.605 535.163 282.119C534.285 281.632 533.203 282.002 532.747 282.945L526.223 296.473C525.769 297.414 526.115 298.571 526.995 299.058C527.255 299.203 527.536 299.27 527.813 299.27Z"
        fill="#6020BD" />
    <path
        d="M485.991 348.828C486.103 348.828 486.218 348.817 486.332 348.793C487.306 348.592 487.942 347.586 487.753 346.546L485.054 331.601C484.866 330.559 483.925 329.882 482.954 330.081C481.98 330.282 481.344 331.288 481.533 332.328L484.232 347.273C484.396 348.192 485.147 348.828 485.991 348.828Z"
        fill="#6020BD" />
    <path
        d="M509.275 361.952C509.388 361.952 509.502 361.941 509.617 361.918C510.59 361.716 511.226 360.711 511.038 359.67L508.339 344.726C508.15 343.683 507.21 343.008 506.238 343.205C505.265 343.406 504.629 344.412 504.817 345.452L507.517 360.399C507.681 361.316 508.432 361.952 509.275 361.952Z"
        fill="#6020BD" />
    <path
        d="M492.594 312.639C493.189 312.639 493.768 312.326 494.11 311.75L501.737 298.9C502.267 298.006 502.02 296.819 501.183 296.252C500.344 295.685 499.239 295.951 498.707 296.843L491.08 309.693C490.55 310.587 490.796 311.774 491.633 312.341C491.932 312.544 492.265 312.639 492.594 312.639Z"
        fill="#6020BD" />
    <path
        d="M562.561 445.166C563.052 444.606 563.199 443.762 562.87 443.027L556.74 429.289C556.314 428.333 555.243 427.929 554.35 428.385C553.452 428.841 553.076 429.986 553.504 430.942L559.634 444.679C560.06 445.635 561.131 446.04 562.024 445.583C562.234 445.48 562.413 445.337 562.561 445.166Z"
        fill="#6020BD" />
    <path
        d="M516.42 405.309C517.136 405.309 517.813 404.846 518.09 404.089L523.277 389.914C523.639 388.928 523.184 387.816 522.261 387.429C521.337 387.042 520.297 387.528 519.938 388.517L514.751 402.691C514.389 403.678 514.844 404.79 515.767 405.177C515.981 405.265 516.202 405.309 516.42 405.309Z"
        fill="#6020BD" />
    <path
        d="M459.433 492.862C459.705 492.862 459.98 492.795 460.242 492.654C461.124 492.176 461.479 491.021 461.031 490.076L454.605 476.494C454.159 475.549 453.08 475.17 452.195 475.648C451.312 476.126 450.958 477.281 451.405 478.227L457.832 491.809C458.146 492.477 458.777 492.862 459.433 492.862Z"
        fill="#6020BD" />
    <path
        d="M553.883 590.476C553.885 590.766 553.95 591.062 554.084 591.339C554.538 592.28 555.622 592.648 556.502 592.159L569.139 585.157C570.017 584.673 570.363 583.513 569.907 582.572C569.452 581.631 568.369 581.266 567.488 581.752L554.852 588.754C554.229 589.096 553.876 589.775 553.883 590.476Z"
        fill="#6020BD" />
    <path
        d="M588.188 599.182C588.188 599.476 588.251 599.773 588.385 600.047C588.839 600.988 589.923 601.349 590.804 600.865L596.3 597.822C596.3 596.433 596.3 595.005 596.291 593.513L589.16 597.46C588.537 597.802 588.18 598.486 588.188 599.182Z"
        fill="#6020BD" />
    <path
        d="M535.09 616.112L539.411 625.984C540.194 625.9 540.977 625.805 541.767 625.708C542.238 625.651 542.71 625.593 543.182 625.537L538.334 614.483C537.917 613.523 536.85 613.103 535.95 613.56C535.055 614.012 534.663 615.152 535.09 616.112Z"
        fill="#6020BD" />
    <path
        d="M436.11 458.224C436.973 458.224 437.732 457.558 437.877 456.619L440.198 441.601C440.36 440.556 439.698 439.568 438.72 439.395C437.741 439.224 436.821 439.929 436.659 440.976L434.338 455.994C434.178 457.039 434.838 458.027 435.816 458.2C435.913 458.215 436.012 458.224 436.11 458.224Z"
        fill="#6020BD" />
    <path
        d="M434.629 347.41C434.94 347.41 435.254 347.324 435.54 347.142C436.392 346.603 436.675 345.427 436.169 344.514L428.918 331.417C428.414 330.506 427.313 330.203 426.463 330.744C425.611 331.285 425.328 332.459 425.834 333.372L433.084 346.469C433.42 347.075 434.017 347.41 434.629 347.41Z"
        fill="#6020BD" />
    <path
        d="M457.94 400.649C458.273 400.649 458.61 400.549 458.911 400.342L470.862 392.074C471.695 391.499 471.933 390.311 471.394 389.422C470.855 388.533 469.746 388.278 468.915 388.854L456.964 397.121C456.131 397.696 455.893 398.884 456.432 399.773C456.776 400.339 457.351 400.649 457.94 400.649Z"
        fill="#6020BD" />
    <path
        d="M584.476 489.94C584.749 489.94 585.024 489.873 585.285 489.733C586.168 489.255 586.523 488.099 586.075 487.154L579.648 473.572C579.201 472.627 578.124 472.249 577.239 472.729C576.354 473.207 576.002 474.362 576.449 475.305L582.876 488.887C583.192 489.557 583.821 489.94 584.476 489.94Z"
        fill="#6020BD" />
    <path
        d="M437.579 421.279C438.176 421.279 438.76 420.961 439.102 420.38C439.627 419.482 439.372 418.297 438.533 417.736L426.469 409.659C425.63 409.099 424.523 409.367 423.997 410.267C423.471 411.165 423.727 412.348 424.566 412.911L436.629 420.987C436.923 421.184 437.254 421.279 437.579 421.279Z"
        fill="#6020BD" />
    <path
        d="M466.499 440.492C466.938 440.925 467.569 441.115 468.188 440.936C469.144 440.657 469.709 439.603 469.449 438.582L465.713 423.893C465.452 422.872 464.47 422.266 463.511 422.546C462.555 422.825 461.991 423.878 462.25 424.899L465.986 439.588C466.079 439.947 466.261 440.257 466.499 440.492Z"
        fill="#6020BD" />
    <path
        d="M415.584 285.456L418.706 290.515C419.052 291.067 419.621 291.372 420.209 291.372C420.547 291.372 420.884 291.276 421.187 291.058C422.013 290.478 422.245 289.289 421.702 288.404L418.234 282.773C417.239 283.686 416.348 284.58 415.584 285.456Z"
        fill="#6020BD" />
    <path
        d="M401.943 318.852L405.261 324.236C405.607 324.796 406.176 325.101 406.764 325.101C407.101 325.101 407.441 324.998 407.75 324.788C408.577 324.197 408.8 323.01 408.257 322.125L403.552 314.487C403.028 315.893 402.494 317.358 401.943 318.852Z"
        fill="#6020BD" />
    <path
        d="M557.066 537.364C557.538 537.364 558.007 537.167 558.36 536.773L568.217 525.794C568.903 525.03 568.879 523.817 568.165 523.081C567.451 522.346 566.316 522.372 565.63 523.137L555.773 534.117C555.087 534.881 555.111 536.094 555.825 536.83C556.171 537.186 556.619 537.364 557.066 537.364Z"
        fill="#6020BD" />
    <path
        d="M491.481 575.754C491.952 575.754 492.421 575.557 492.774 575.163L502.631 564.181C503.317 563.418 503.293 562.204 502.579 561.469C501.865 560.733 500.73 560.759 500.044 561.525L490.187 572.505C489.501 573.268 489.525 574.482 490.239 575.217C490.587 575.576 491.035 575.754 491.481 575.754Z"
        fill="#6020BD" />
    <path
        d="M473.252 560.505C473.549 560.114 473.702 559.599 473.637 559.058L471.859 543.956C471.736 542.905 470.838 542.161 469.856 542.293C468.872 542.424 468.176 543.383 468.301 544.436L470.079 559.539C470.203 560.59 471.1 561.334 472.082 561.202C472.562 561.137 472.971 560.875 473.252 560.505Z"
        fill="#6020BD" />
    <path
        d="M510.608 603.072C511.08 603.072 511.549 602.875 511.902 602.481L521.759 591.501C522.445 590.738 522.421 589.524 521.707 588.791C520.993 588.056 519.858 588.082 519.172 588.847L509.315 599.829C508.627 600.593 508.653 601.806 509.367 602.539C509.715 602.894 510.163 603.072 510.608 603.072Z"
        fill="#6020BD" />
    <path
        d="M404.504 561.518C404.495 562.82 404.504 564.105 404.504 565.37L415.628 566.369C416.615 566.465 417.486 565.675 417.566 564.619C417.655 563.564 416.917 562.64 415.929 562.545L404.504 561.518Z"
        fill="#6020BD" />
    <path
        d="M534.802 514.274C535.274 514.274 535.743 514.075 536.096 513.684L545.953 502.702C546.639 501.938 546.615 500.725 545.901 499.989C545.185 499.254 544.052 499.28 543.366 500.046L533.509 511.025C532.823 511.789 532.847 513.005 533.561 513.738C533.909 514.097 534.355 514.274 534.802 514.274Z"
        fill="#6020BD" />
    <path
        d="M487.379 509.502C487.409 510.004 487.626 510.493 488.015 510.843L498.908 520.64C499.665 521.321 500.797 521.217 501.435 520.406C502.073 519.593 501.975 518.386 501.216 517.705L490.323 507.908C489.566 507.227 488.435 507.33 487.797 508.142C487.485 508.535 487.349 509.024 487.379 509.502Z"
        fill="#6020BD" />
    <path
        d="M435.477 563.389C435.782 563.389 436.091 563.307 436.372 563.132C437.229 562.602 437.523 561.427 437.025 560.51L429.896 547.335C429.401 546.418 428.304 546.106 427.445 546.636C426.589 547.166 426.294 548.341 426.792 549.258L433.921 562.433C434.254 563.047 434.858 563.389 435.477 563.389Z"
        fill="#6020BD" />
    <path
        d="M423.134 524.231C423.785 524.231 424.41 523.853 424.731 523.193L431.257 509.665C431.711 508.724 431.365 507.567 430.484 507.083C429.606 506.594 428.525 506.966 428.068 507.907L421.542 521.434C421.088 522.375 421.434 523.533 422.314 524.019C422.576 524.162 422.857 524.231 423.134 524.231Z"
        fill="#6020BD" />
    <path
        d="M442.597 370.634C443.246 370.634 443.873 370.255 444.193 369.596L450.717 356.068C451.171 355.127 450.825 353.97 449.945 353.483C449.067 352.996 447.985 353.366 447.529 354.309L441.005 367.837C440.551 368.778 440.897 369.935 441.777 370.422C442.039 370.565 442.32 370.634 442.597 370.634Z"
        fill="#6020BD" />
    <path
        d="M435.472 313.866C435.585 313.866 435.699 313.855 435.814 313.831C436.787 313.63 437.423 312.624 437.235 311.584L434.535 296.639C434.347 295.599 433.406 294.92 432.435 295.119C431.462 295.32 430.826 296.326 431.014 297.366L433.713 312.311C433.88 313.23 434.631 313.866 435.472 313.866Z"
        fill="#6020BD" />
    <path
        d="M402.697 365.439C402.81 365.439 402.924 365.428 403.039 365.404C404.012 365.203 404.648 364.197 404.46 363.157L401.761 348.212C401.573 347.172 400.632 346.493 399.66 346.692C398.687 346.893 398.051 347.899 398.239 348.939L400.939 363.884C401.105 364.803 401.856 365.439 402.697 365.439Z"
        fill="#6020BD" />
    <path
        d="M458.757 326.989C458.87 326.989 458.984 326.978 459.099 326.955C460.072 326.754 460.708 325.748 460.52 324.707L457.821 309.763C457.632 308.72 456.691 308.045 455.72 308.242C454.747 308.443 454.111 309.449 454.299 310.489L456.999 325.434C457.163 326.351 457.916 326.989 458.757 326.989Z"
        fill="#6020BD" />
    <path
        d="M448.072 274.926C448.418 275.011 448.757 274.983 449.067 274.87C449.627 274.66 450.081 274.156 450.224 273.501L453.239 259.776C451.844 260.575 450.429 261.384 449.023 262.193L446.737 272.616C446.506 273.652 447.1 274.68 448.072 274.926Z"
        fill="#6020BD" />
    <path
        d="M407.041 388.548C407.633 388.548 408.215 388.234 408.557 387.659L416.184 374.808C416.714 373.912 416.467 372.727 415.632 372.16C414.793 371.594 413.688 371.86 413.156 372.751L405.529 385.602C404.999 386.497 405.245 387.682 406.08 388.249C406.379 388.45 406.712 388.548 407.041 388.548Z"
        fill="#6020BD" />
    <path
        d="M457.977 526.608C458.468 526.048 458.613 525.205 458.286 524.469L452.158 510.731C451.732 509.775 450.661 509.371 449.768 509.827C448.87 510.284 448.494 511.43 448.922 512.384L455.05 526.122C455.476 527.078 456.547 527.484 457.44 527.026C457.648 526.92 457.827 526.777 457.977 526.608Z"
        fill="#6020BD" />
    <path
        d="M584.127 552.425L596.106 554.499C596.097 553.214 596.089 551.921 596.069 550.61L584.704 548.631C583.727 548.468 582.801 549.174 582.649 550.218C582.489 551.263 583.147 552.254 584.127 552.425Z"
        fill="#6020BD" />
    <path
        d="M587.771 517.325L595.748 518.705C595.731 517.412 595.722 516.118 595.703 514.816L588.349 513.542C587.371 513.371 586.454 514.085 586.294 515.13C586.136 516.174 586.793 517.154 587.771 517.325Z"
        fill="#6020BD" />
    <path
        d="M411.834 486.747C412.552 486.747 413.229 486.284 413.504 485.527L418.691 471.353C419.052 470.366 418.598 469.255 417.674 468.867C416.751 468.48 415.71 468.967 415.351 469.955L410.164 484.13C409.803 485.116 410.259 486.228 411.181 486.615C411.397 486.704 411.618 486.747 411.834 486.747Z"
        fill="#6020BD" />
    <path
        d="M405.245 442.031C408.613 428.116 412.844 412.65 417.038 399.325C417.047 399.297 417.058 399.278 417.066 399.25C418.36 395.131 419.653 391.223 420.919 387.636C420.938 387.569 420.958 387.504 420.986 387.446C421.375 386.315 421.775 385.22 422.165 384.156C422.221 383.965 422.26 383.784 422.26 383.604V383.596C422.26 382.957 421.86 382.358 421.224 382.12C420.395 381.826 419.482 382.244 419.188 383.072C414.888 394.789 409.809 411.663 405.453 428.213C405.379 432.794 405.312 437.408 405.245 442.031Z"
        fill="#6020BD" />
    <path
        d="M456.67 173.376C456.67 173.376 444.18 159.613 448.894 143.6C453.607 127.589 466.501 127.764 466.501 127.764C466.501 127.764 474.024 110.734 486.836 110.172C499.648 109.609 511.726 86.856 523.383 93.0359C535.042 99.2157 522.12 112.7 522.12 112.7C522.12 112.7 542.093 91.632 548.68 97.8119C555.266 103.992 539.535 120.565 539.535 120.565C539.535 120.565 556.318 108.768 561.831 113.26C567.345 117.755 548.68 137.138 548.68 137.138C548.68 137.138 560.756 158.91 548.602 168.672L456.67 173.376Z"
        fill="#403657" />
    <path
        d="M543.926 177.983C543.926 177.983 551.912 167.335 557.849 176.14C563.787 184.944 555.392 210.951 540.854 204.602L543.926 177.983Z"
        fill="#F97853" />
    <path
        d="M544.029 196.565C544.566 196.565 545.059 196.21 545.213 195.668C547.467 187.638 555.783 184.383 555.868 184.353C556.502 184.11 556.82 183.401 556.579 182.769C556.339 182.135 555.63 181.815 554.998 182.055C554.609 182.202 545.444 185.761 542.848 195.006C542.664 195.659 543.047 196.336 543.701 196.52C543.809 196.55 543.919 196.565 544.029 196.565Z"
        fill="#EA5143" />
    <path
        d="M552.424 192.521C552.653 192.521 552.883 192.458 553.088 192.326C553.659 191.958 553.824 191.199 553.456 190.628C553.395 190.533 551.922 188.288 548.844 186.912C548.228 186.633 547.499 186.912 547.222 187.531C546.945 188.149 547.222 188.876 547.841 189.153C550.222 190.217 551.377 191.941 551.39 191.958C551.626 192.324 552.022 192.521 552.424 192.521Z"
        fill="#EA5143" />
    <path
        d="M461.626 177.983C461.626 177.983 453.64 167.335 447.702 176.14C441.764 184.944 450.159 210.951 464.697 204.602L461.626 177.983Z"
        fill="#F97853" />
    <path
        d="M461.524 196.565C460.988 196.565 460.494 196.21 460.341 195.668C458.089 187.638 449.77 184.383 449.686 184.353C449.052 184.11 448.734 183.401 448.974 182.769C449.214 182.135 449.923 181.815 450.555 182.055C450.944 182.202 460.111 185.761 462.705 195.006C462.889 195.659 462.508 196.336 461.853 196.52C461.745 196.55 461.634 196.565 461.524 196.565Z"
        fill="#EA5143" />
    <path
        d="M453.127 192.521C452.898 192.521 452.669 192.458 452.463 192.326C451.892 191.958 451.728 191.199 452.096 190.628C452.156 190.533 453.627 188.288 456.707 186.912C457.324 186.633 458.053 186.912 458.329 187.531C458.606 188.149 458.329 188.876 457.711 189.153C455.329 190.217 454.172 191.941 454.161 191.958C453.928 192.324 453.532 192.521 453.127 192.521Z"
        fill="#EA5143" />
    <path
        d="M483.118 226.66V252.522C483.118 252.522 490.831 265.693 501.259 266.588C511.679 267.497 520.939 255.249 520.939 255.249V228.477L483.118 226.66Z"
        fill="#FFA681" />
    <path
        d="M483.118 226.66V238.135C490.115 245.901 502.546 247.841 520.939 245.126V228.479L483.118 226.66Z"
        fill="#F97853" />
    <path
        d="M455.857 160.247C456.33 170.296 457.287 182.868 459.207 192.909V192.937C459.207 192.965 459.216 192.996 459.227 193.035C459.227 193.045 459.235 193.045 459.235 193.054C459.709 195.507 460.239 197.815 460.819 199.889C461.167 201.105 461.543 202.379 461.967 203.683C468.098 222.915 482.3 250.749 517.993 238.015C533.024 232.657 540.854 217.133 544.843 200.296C545.074 199.292 545.297 198.297 545.49 197.341C545.624 196.703 545.751 196.087 545.866 195.477L546.039 194.579C546.067 194.425 546.087 194.319 546.097 194.25C546.108 194.211 546.108 194.192 546.108 194.192C548.464 181.246 548.821 168.153 548.648 158.798C548.464 149.259 543.251 140.531 534.949 135.83C512.464 123.077 488.722 127.836 473.092 133.842C462.238 138.004 455.297 148.653 455.857 160.247Z"
        fill="#FFA681" />
    <path
        d="M459.196 192.909C459.196 192.909 459.196 192.917 459.205 192.937C459.205 192.965 459.214 192.995 459.224 193.034C459.224 193.045 459.233 193.045 459.233 193.054C459.465 193.893 460.719 198.498 461.965 203.683C468.095 222.915 482.298 250.749 517.99 238.015C533.022 232.657 540.852 217.133 544.84 200.296C545.072 199.292 545.295 198.297 545.487 197.341C545.621 196.703 545.749 196.086 545.864 195.476L546.037 194.579C546.065 194.425 546.084 194.319 546.095 194.25C546.106 194.211 546.106 194.191 546.106 194.191L540.854 193.129C539.85 198.102 537.629 202.783 534.906 206.945C530.465 196.305 507.93 203.374 507.93 203.374L507.824 203.412C506.453 203.836 505.044 204.059 503.623 204.059C502.165 204.059 500.716 203.828 499.308 203.374C499.308 203.374 477.044 195.998 472.43 206.144C467.816 199 464.686 192.521 464.686 192.521L459.203 192.909H459.196ZM503.569 208.193C529.048 204.756 525.042 218.474 525.042 218.474C522.213 221.052 519.626 222.934 517.889 223.91C512.327 227.009 506.853 228.186 502.886 227.993C498.975 227.829 497.904 228.632 488.017 223.282C486.269 222.346 484.502 220.955 482.774 219.304C482.774 219.304 482.774 219.304 482.765 219.304V219.296C482.339 216.611 478.024 203.8 503.569 208.193Z"
        fill="#403657" />
    <path
        d="M480.483 178.947C480.483 181.707 481.907 183.946 483.661 183.946C485.415 183.946 486.838 181.707 486.838 178.947C486.838 176.187 485.415 173.948 483.661 173.948C481.905 173.948 480.483 176.187 480.483 178.947Z"
        fill="#403657" />
    <path
        d="M520.208 178.947C520.208 181.707 521.631 183.946 523.385 183.946C525.142 183.946 526.563 181.707 526.563 178.947C526.563 176.187 525.14 173.948 523.385 173.948C521.631 173.948 520.208 176.187 520.208 178.947Z"
        fill="#403657" />
    <path
        d="M472.346 162.094C472.346 162.094 485.478 156.905 495.588 161.272L494.578 166.896C494.578 166.896 479.737 165.641 472.261 168.67C471.591 166.507 471.491 164.318 472.346 162.094Z"
        fill="#403657" />
    <path
        d="M534.785 162.119C534.785 162.119 521.556 156.891 511.372 161.291L512.391 166.956C512.391 166.956 527.34 165.69 534.872 168.745C535.546 166.564 535.644 164.36 534.785 162.119Z"
        fill="#403657" />
    <path
        d="M502.349 201.287C500.277 201.287 498.22 200.48 497.902 200.35C497.275 200.095 496.974 199.377 497.229 198.75C497.485 198.123 498.203 197.82 498.83 198.075C499.94 198.525 502.604 199.232 503.757 198.54C503.98 198.406 504.285 198.142 504.361 197.396C504.804 193.104 503.63 178.724 503.619 178.579C503.563 177.902 504.067 177.31 504.744 177.253C505.423 177.197 506.013 177.701 506.07 178.376C506.119 178.977 507.275 193.13 506.807 197.647C506.632 199.347 505.739 200.216 505.021 200.647C504.235 201.123 503.29 201.287 502.349 201.287Z"
        fill="#F97853" />
    <path
        d="M518.013 210.647C517.081 215.341 513.979 223.974 503.535 223.974C493.066 223.974 490.131 216.085 489.123 210.647H518.013Z"
        fill="white" />
    <path
        d="M455.852 160.241C456.333 170.291 457.291 182.86 459.207 192.91L464.699 192.521C464.699 192.521 463.369 184.035 462.755 178.506C462.14 172.977 461.098 162.642 465.815 161.353C470.52 160.077 467.76 148.286 474.308 143.175C480.855 138.053 495.503 136.647 505.162 142.593C514.817 148.526 525.7 142.143 530.149 143.175C534.609 144.196 540.653 150.337 539.02 156.075C537.374 161.801 542.288 165.29 543.48 171.223C544.672 177.156 540.863 193.128 540.863 193.128L546.108 194.186C548.468 181.236 548.823 168.152 548.652 158.803C548.468 149.257 543.259 140.534 534.953 135.829C512.457 123.076 488.722 127.83 473.094 133.839C462.242 138.005 455.299 148.656 455.852 160.241Z"
        fill="#403657" />
    <path
        d="M681.936 436.98C678.596 467.44 658.709 535.49 644.939 548.819C627.012 566.173 568.014 602.709 537.284 621.441C531.74 624.82 557.781 647.324 557.781 647.324C557.781 647.324 639.376 612.432 670.537 584.922C679.351 577.14 697.251 552.595 717.456 505.841C723.581 491.664 738.427 463.075 737.656 444.434C736.77 422.978 702.684 426.508 681.936 436.98Z"
        fill="#7846D1" />
    <path
        d="M618.266 611.952C618.266 611.952 596.073 620.379 588.208 629.65C580.343 638.921 569.95 646.786 572.476 650.437C575.005 654.089 586.521 643.414 586.521 643.414C586.521 643.414 589.679 655.148 600.847 656.414C612.017 657.679 633.152 635.828 633.152 635.828L618.266 611.952Z"
        fill="#FFA681" />
    <path
        d="M837.328 522.028C837.334 523.955 837.317 526.235 837.282 528.82C837.248 531.394 837.192 534.264 837.114 537.405C837.051 539.557 836.984 541.833 836.906 544.221C836.832 546.232 836.755 548.315 836.67 550.479C836.575 552.687 836.473 554.963 836.361 557.309C834.817 589.21 831.081 633.257 822.866 668.569H650.212C655.97 642.904 664.781 602.424 671.769 549.905C672.061 547.697 672.353 545.467 672.641 543.213C672.929 540.959 673.208 538.686 673.489 536.393C673.641 535.173 673.788 533.942 673.933 532.713C674.051 531.697 674.168 530.684 674.281 529.685C674.601 526.854 674.893 524.068 675.152 521.336C675.371 519.054 675.574 516.813 675.765 514.6C678.726 479.29 677.681 452.827 681.934 436.979C686.889 418.528 744.667 397.375 744.667 397.375L780.866 399.268C780.866 399.268 815.379 410.537 833.828 426.734C852.283 442.938 836.85 491.282 837.3 518.733C837.317 519.679 837.321 520.78 837.328 522.028Z"
        fill="#9C78ED" />
    <path
        d="M837.282 528.819C821.585 530.725 805.208 531.478 789.139 531.478C736.514 531.478 687.112 523.433 675.15 521.337C675.369 519.055 675.572 516.814 675.762 514.602C689.662 517.063 770.098 530.366 837.326 522.029C837.332 523.955 837.317 526.234 837.282 528.819Z"
        fill="#E0D5F8" />
    <path
        d="M837.114 537.405C837.051 539.558 836.984 541.833 836.906 544.221C821.321 546.092 805.079 546.828 789.139 546.828C733.542 546.828 681.544 537.849 673.487 536.395C673.638 535.175 673.785 533.944 673.93 532.716C674.049 531.699 674.166 530.687 674.278 529.688C682.282 531.145 766.857 546.068 837.114 537.405Z"
        fill="#E0D5F8" />
    <path
        d="M836.67 550.479C836.575 552.687 836.474 554.963 836.361 557.31C820.147 559.371 803.169 560.176 786.522 560.176C732.694 560.176 682.247 551.766 671.77 549.905C672.062 547.697 672.354 545.467 672.641 543.213C685.1 545.434 768.19 559.44 836.67 550.479Z"
        fill="#E0D5F8" />
    <path
        d="M755.107 432.103C773.106 432.103 789.71 412.971 790.43 412.131C790.887 411.599 790.824 410.797 790.292 410.34C789.762 409.884 788.959 409.945 788.501 410.477C788.328 410.678 770.937 430.714 753.557 429.507C752.862 429.458 752.25 429.987 752.202 430.686C752.153 431.385 752.681 431.993 753.381 432.04C753.957 432.083 754.534 432.103 755.107 432.103Z"
        fill="#7846D1" />
    <path
        d="M770.712 647.256C771.348 647.256 771.897 646.778 771.971 646.132C772.051 645.435 771.551 644.806 770.855 644.724C724.362 639.372 705.102 558.893 704.912 558.082C704.754 557.399 704.07 556.975 703.387 557.133C702.703 557.293 702.279 557.974 702.437 558.658C703.227 562.045 722.309 641.693 770.563 647.248C770.614 647.254 770.664 647.256 770.712 647.256Z"
        fill="#7846D1" />
    <path
        d="M752.198 622.904C752.624 622.904 753.04 622.69 753.28 622.301C753.647 621.704 753.464 620.921 752.867 620.553C728.138 605.306 724.461 582.834 724.427 582.609C724.321 581.917 723.68 581.432 722.982 581.545C722.29 581.648 721.811 582.295 721.915 582.987C722.06 583.954 725.755 606.822 751.534 622.716C751.74 622.844 751.971 622.904 752.198 622.904Z"
        fill="#7846D1" />
    <path
        d="M766.637 364.651C794.767 364.651 817.57 341.848 817.57 313.718C817.57 285.588 794.767 262.784 766.637 262.784C738.507 262.784 715.703 285.588 715.703 313.718C715.703 341.848 738.507 364.651 766.637 364.651Z"
        fill="#403657" />
    <path
        d="M716.536 304.586C716.536 304.586 702.113 300.604 704.014 286.605C705.632 274.691 719.629 282.415 718.398 273.103C717.168 263.791 714.433 255.325 726.48 252.998C737.016 250.962 737.193 258.182 751.03 247.707C767.377 235.332 779.933 263.988 794.523 264.849C816.041 266.119 818.756 278.288 820.873 288.024C822.989 297.76 814.706 304.586 814.706 304.586H716.536Z"
        fill="#403657" />
    <path
        d="M724.26 327.972C724.26 327.972 716.192 317.215 710.194 326.11C704.196 335.004 712.677 361.277 727.364 354.863L724.26 327.972Z"
        fill="#F97853" />
    <path
        d="M724.156 346.745C723.613 346.745 723.116 346.385 722.962 345.838C720.684 337.727 712.283 334.439 712.199 334.406C711.559 334.162 711.236 333.446 711.481 332.806C711.723 332.166 712.439 331.843 713.079 332.085C713.473 332.235 722.733 335.828 725.355 345.168C725.538 345.827 725.156 346.513 724.494 346.699C724.379 346.729 724.266 346.745 724.156 346.745Z"
        fill="#EA5143" />
    <path
        d="M715.673 342.659C715.441 342.659 715.21 342.596 715.002 342.462C714.425 342.09 714.26 341.322 714.63 340.747C714.693 340.652 716.179 338.383 719.289 336.992C719.912 336.711 720.65 336.992 720.929 337.617C721.208 338.242 720.929 338.978 720.304 339.257C717.899 340.334 716.731 342.073 716.72 342.09C716.482 342.46 716.082 342.659 715.673 342.659Z"
        fill="#EA5143" />
    <path
        d="M782.776 377.147V403.275C782.776 403.275 772.034 414.789 761.498 415.695C750.972 416.612 744.567 404.108 744.567 404.108V378.984L782.776 377.147Z"
        fill="#FFA681" />
    <path
        d="M782.775 377.147V388.739C775.704 396.585 763.148 398.544 744.565 395.802V378.984L782.775 377.147Z"
        fill="#F97853" />
    <path
        d="M810.322 310.049C809.837 320.203 808.868 332.9 806.932 343.053C806.448 345.586 805.903 347.97 805.293 350.103C799.794 369.354 786.042 402.369 747.541 388.618C730.537 382.548 722.655 363.607 719.142 344.344C716.759 331.262 716.4 318.044 716.573 308.598C716.759 298.955 722.021 290.143 730.412 285.388C753.139 272.505 777.119 277.307 792.907 283.376C803.867 287.584 810.88 298.345 810.322 310.049Z"
        fill="#FFA681" />
    <path
        d="M764.13 328.501V330.562C764.13 334.713 765.748 338.609 768.694 341.534C771.595 344.419 775.43 346 779.507 346H780.009C783.546 345.924 786.76 344.501 789.578 341.767C792.403 339.009 794.023 335.068 794.023 330.939V328.503C794.023 327.828 793.896 327.184 793.664 326.585C793.394 325.858 792.974 325.213 792.436 324.675C791.454 323.693 790.106 323.087 788.607 323.087H769.55C767.394 323.087 765.534 324.346 764.664 326.174C764.342 326.84 764.154 327.582 764.139 328.36C764.13 328.404 764.13 328.458 764.13 328.501ZM766.377 328.501C766.377 326.749 767.801 325.332 769.546 325.332H788.603C790.357 325.332 791.774 326.749 791.774 328.501V330.937C791.774 334.458 790.402 337.824 788.004 340.153C785.613 342.477 782.907 343.684 779.963 343.751H779.505C776.029 343.751 772.754 342.401 770.273 339.937C767.764 337.441 766.377 334.114 766.377 330.562V328.501Z"
        fill="#403657" />
    <path
        d="M725.973 328.501V330.562C725.973 334.713 727.6 338.609 730.537 341.534C733.438 344.419 737.273 346 741.35 346H741.859C745.389 345.924 748.61 344.501 751.422 341.767C754.247 339.009 755.873 335.068 755.873 330.939V328.503C755.873 328.466 755.873 328.436 755.864 328.399C755.856 327.666 755.691 326.961 755.408 326.323C754.569 324.413 752.665 323.087 750.455 323.087H731.392C729.722 323.087 728.223 323.85 727.226 325.042C726.745 325.626 726.38 326.31 726.183 327.05C726.04 327.513 725.973 327.999 725.973 328.501ZM728.223 328.501C728.223 326.749 729.646 325.332 731.392 325.332H750.455C752.2 325.332 753.624 326.749 753.624 328.501V330.937C753.624 334.458 752.246 337.824 749.856 340.153C747.465 342.477 744.759 343.684 741.815 343.751H741.35C737.872 343.751 734.599 342.401 732.125 339.937C729.607 337.441 728.221 334.114 728.221 330.562V328.501H728.223Z"
        fill="#403657" />
    <path
        d="M807.603 322.177C801.131 321.898 796.509 323.764 794.681 324.675C794.17 324.922 792.808 325.808 792.749 325.845L793.82 327.753C793.835 327.744 795.325 326.855 795.909 326.585C797.703 325.748 801.683 324.069 807.603 324.418V322.177Z"
        fill="#403657" />
    <path
        d="M765.639 328.585L766.377 326.46C766.245 326.415 763.089 325.329 759.622 325.329C755.931 325.329 753.556 326.463 753.455 326.51L754.437 328.533C754.454 328.524 756.481 327.577 759.622 327.577C762.698 327.579 765.611 328.576 765.639 328.585Z"
        fill="#403657" />
    <path
        d="M718.102 322.717V324.971C722.757 325.356 727.057 327.434 727.12 327.46L728.108 325.444C727.855 325.317 723.239 323.091 718.102 322.717Z"
        fill="#403657" />
    <path
        d="M743.615 331.382C743.615 334.17 742.179 336.433 740.405 336.433C738.632 336.433 737.196 334.172 737.196 331.382C737.196 328.594 738.634 326.331 740.405 326.331C742.177 326.331 743.615 328.591 743.615 331.382Z"
        fill="#403657" />
    <path
        d="M781.209 331.382C781.209 334.17 779.771 336.433 777.999 336.433C776.225 336.433 774.789 334.172 774.789 331.382C774.789 328.594 776.228 326.331 777.999 326.331C779.773 326.331 781.209 328.591 781.209 331.382Z"
        fill="#403657" />
    <path
        d="M729.962 315.872C729.962 315.872 743.326 310.59 753.615 315.037L752.757 319.813C752.757 319.813 741.612 317.325 730.7 321.394C730.018 319.192 729.093 318.137 729.962 315.872Z"
        fill="#403657" />
    <path
        d="M791.116 315.872C791.116 315.872 777.753 310.59 767.461 315.037L768.319 319.813C768.319 319.813 779.464 317.325 790.376 321.394C791.058 319.192 791.985 318.137 791.116 315.872Z"
        fill="#403657" />
    <path
        d="M761.173 352.545C763.267 352.545 765.343 351.73 765.665 351.6C766.299 351.341 766.602 350.618 766.345 349.982C766.087 349.348 765.36 349.043 764.727 349.301C763.606 349.755 760.915 350.469 759.747 349.77C759.522 349.634 759.215 349.368 759.137 348.615C758.69 344.28 759.875 329.753 759.888 329.606C759.944 328.923 759.436 328.323 758.754 328.267C758.069 328.209 757.472 328.719 757.416 329.403C757.366 330.011 756.198 344.309 756.669 348.87C756.847 350.588 757.749 351.466 758.473 351.901C759.269 352.377 760.223 352.545 761.173 352.545Z"
        fill="#F97853" />
    <path
        d="M745.787 358.847C746.802 363.949 750.172 373.339 761.532 373.339C772.918 373.339 776.111 364.758 777.208 358.847H745.787Z"
        fill="white" />
    <path
        d="M761.378 379.821C764.591 379.821 767.314 378.194 767.428 378.125C768.015 377.77 768.203 377.007 767.846 376.42C767.491 375.832 766.728 375.646 766.141 376.001C766.122 376.014 763.879 377.338 761.376 377.338C759.079 377.338 756.881 376.02 756.86 376.005C756.278 375.646 755.512 375.826 755.153 376.41C754.792 376.992 754.974 377.757 755.558 378.116C755.668 378.188 758.346 379.821 761.378 379.821Z"
        fill="#F97853" />
    <path
        d="M722.984 336.252C722.048 331.135 721.12 324.527 721.795 321.141C723.004 315.147 727.966 311.624 726.311 305.846C724.656 300.045 730.765 293.835 735.268 292.805C739.759 291.763 750.269 294.001 760.615 289.089C770.49 284.395 787.653 287.752 790.452 294.09C793.838 301.762 789.23 302.487 798.469 310.785C802.146 314.092 797.781 322.681 797.158 328.266C796.879 330.836 796.838 332.091 796.939 334.851L796.976 336.252H808.032C809.249 327.589 809.946 318.037 810.327 310.045C810.887 298.338 803.863 287.588 792.907 283.376C777.117 277.307 753.146 272.498 730.408 285.386C722.024 290.145 716.755 298.948 716.577 308.593C716.437 316.084 716.636 325.954 717.916 336.25H722.984V336.252Z"
        fill="#403657" />
    <path
        d="M803.13 341.027C803.095 338.135 803.301 335.243 803.805 332.396C804.495 328.503 805.624 324.969 809.61 323.346C812.816 322.04 816.24 322.014 818.676 325.628C824.674 334.523 817.992 362.203 803.305 355.79L803.13 341.027Z"
        fill="#FFA681" />
    <path
        d="M806.145 347.73C806.677 347.624 807.095 347.174 807.14 346.607C807.785 338.208 815.382 333.339 815.457 333.29C816.037 332.924 816.212 332.158 815.849 331.579C815.485 330.999 814.72 330.821 814.14 331.185C813.783 331.408 805.405 336.744 804.664 346.417C804.612 347.101 805.122 347.698 805.808 347.75C805.922 347.758 806.037 347.75 806.145 347.73Z"
        fill="#F97853" />
    <path
        d="M813.664 342.06C813.891 342.015 814.106 341.906 814.283 341.736C814.776 341.26 814.787 340.472 814.311 339.981C814.231 339.899 812.33 337.965 809.007 337.21C808.343 337.057 807.675 337.476 807.523 338.145C807.37 338.813 807.789 339.477 808.458 339.631C811.027 340.215 812.514 341.694 812.529 341.707C812.834 342.023 813.264 342.14 813.664 342.06Z"
        fill="#F97853" />
    <path
        d="M826.486 421.068C808.347 448.563 738.921 543.621 723.256 554.663C702.865 569.039 647.277 589.48 615.361 610.79C604.517 618.032 630.137 638.523 630.137 638.523C630.137 638.523 707.933 616.652 742.97 594.286C752.882 587.959 794.105 546.664 820.389 510.037C829.393 497.489 844.039 480.062 846.159 461.526C848.597 440.192 841.896 428.778 826.486 421.068Z"
        fill="#7846D1" />
    <path
        d="M688.888 668.568H472.616C469.852 668.568 467.611 666.327 467.611 663.563V646.33C467.611 643.565 469.852 641.324 472.616 641.324H688.888C691.652 641.324 693.893 643.565 693.893 646.33V663.563C693.891 666.327 691.652 668.568 688.888 668.568Z"
        fill="#1A0B42" />
    <path
        d="M467.658 668.567L425.126 509.282C422.738 500.335 429.48 491.556 438.741 491.556H532.332C538.646 491.556 544.19 495.756 545.898 501.837L592.733 668.567H467.658Z"
        fill="#403657" />
    <path
        d="M545.903 501.839L592.348 667.197H603.042L556.597 501.839C554.877 495.757 549.342 491.552 543.026 491.552H532.332C538.648 491.55 544.183 495.757 545.903 501.839Z"
        fill="#1A0B42" />
    <path
        d="M521.841 587.194C524.273 597.7 517.727 606.218 507.221 606.218C496.715 606.218 486.226 597.702 483.795 587.194C481.364 576.688 487.909 568.17 498.415 568.17C508.921 568.17 519.41 576.688 521.841 587.194Z"
        fill="#614C6E" />
    <path
        d="M811.857 81.8964C803.982 81.8964 797.575 75.4894 797.575 67.6137C797.575 59.738 803.982 53.3311 811.857 53.3311C819.733 53.3311 826.14 59.738 826.14 67.6137C826.14 75.4894 819.733 81.8964 811.857 81.8964ZM811.857 57.8086C806.452 57.8086 802.054 62.2061 802.054 67.6116C802.054 73.0171 806.452 77.4146 811.857 77.4146C817.263 77.4146 821.66 73.0171 821.66 67.6116C821.658 62.2061 817.261 57.8086 811.857 57.8086Z"
        fill="#7846D1" />
    <path
        d="M863.276 132.005C855.4 132.005 848.993 125.598 848.993 117.722C848.993 109.846 855.4 103.439 863.276 103.439C871.151 103.439 877.558 109.846 877.558 117.722C877.558 125.598 871.151 132.005 863.276 132.005ZM863.276 107.919C857.87 107.919 853.473 112.317 853.473 117.722C853.473 123.128 857.87 127.525 863.276 127.525C868.681 127.525 873.079 123.128 873.079 117.722C873.079 112.317 868.681 107.919 863.276 107.919Z"
        fill="#9C78ED" />
    <path
        d="M880.924 178.421C879.686 178.421 878.683 177.418 878.683 176.18V166.3C878.683 165.062 879.686 164.059 880.924 164.059C882.161 164.059 883.165 165.062 883.165 166.3V176.18C883.162 177.418 882.161 178.421 880.924 178.421Z"
        fill="#7846D1" />
    <path
        d="M880.924 195.711C879.686 195.711 878.683 194.708 878.683 193.47V183.59C878.683 182.352 879.686 181.349 880.924 181.349C882.161 181.349 883.165 182.352 883.165 183.59V193.47C883.162 194.71 882.161 195.711 880.924 195.711Z"
        fill="#7846D1" />
    <path
        d="M894.792 182.125H885.916C884.679 182.125 883.676 181.122 883.676 179.885C883.676 178.647 884.679 177.644 885.916 177.644H894.792C896.029 177.644 897.032 178.647 897.032 179.885C897.032 181.122 896.029 182.125 894.792 182.125Z"
        fill="#7846D1" />
    <path
        d="M875.929 182.125H867.054C865.817 182.125 864.813 181.122 864.813 179.885C864.813 178.647 865.817 177.644 867.054 177.644H875.929C877.167 177.644 878.17 178.647 878.17 179.885C878.17 181.122 877.167 182.125 875.929 182.125Z"
        fill="#7846D1" />
    <path
        d="M802.054 123.055C800.817 123.055 799.813 122.051 799.813 120.814V110.933C799.813 109.696 800.817 108.692 802.054 108.692C803.292 108.692 804.295 109.696 804.295 110.933V120.814C804.295 122.051 803.292 123.055 802.054 123.055Z"
        fill="#5B23A9" />
    <path
        d="M802.054 140.346C800.817 140.346 799.813 139.342 799.813 138.105V128.224C799.813 126.987 800.817 125.983 802.054 125.983C803.292 125.983 804.295 126.987 804.295 128.224V138.105C804.295 139.342 803.292 140.346 802.054 140.346Z"
        fill="#5B23A9" />
    <path
        d="M815.924 126.762H807.049C805.812 126.762 804.808 125.758 804.808 124.521C804.808 123.284 805.812 122.28 807.049 122.28H815.924C817.162 122.28 818.165 123.284 818.165 124.521C818.163 125.758 817.162 126.762 815.924 126.762Z"
        fill="#5B23A9" />
    <path
        d="M797.062 126.762H788.187C786.95 126.762 785.946 125.758 785.946 124.521C785.946 123.284 786.95 122.28 788.187 122.28H797.062C798.3 122.28 799.303 123.284 799.303 124.521C799.301 125.758 798.3 126.762 797.062 126.762Z"
        fill="#5B23A9" />
    <path
        d="M148.986 16.3159C148.986 8.44018 155.393 2.0332 163.269 2.0332C171.144 2.0332 177.551 8.44018 177.551 16.3159C177.551 24.1916 171.144 30.5985 163.269 30.5985C155.393 30.6007 148.986 24.1916 148.986 16.3159ZM153.468 16.3159C153.468 21.7214 157.865 26.1189 163.271 26.1189C168.676 26.1189 173.074 21.7214 173.074 16.3159C173.074 10.9104 168.676 6.5129 163.271 6.5129C157.865 6.5129 153.468 10.9104 153.468 16.3159Z"
        fill="#7846D1" />
    <path
        d="M91.626 70.7604C91.626 62.8847 98.033 56.4756 105.909 56.4756C113.784 56.4756 120.191 62.8826 120.191 70.7604C120.191 78.6383 113.784 85.0431 105.909 85.0431C98.033 85.0431 91.626 78.6361 91.626 70.7604ZM96.1057 70.7604C96.1057 76.1659 100.503 80.5634 105.909 80.5634C111.314 80.5634 115.712 76.1659 115.712 70.7604C115.712 65.355 111.314 60.9575 105.909 60.9575C100.503 60.9575 96.1057 65.355 96.1057 70.7604Z"
        fill="#9C78ED" />
    <path
        d="M61.9284 90.8031C63.1657 90.8031 64.1694 89.7995 64.1694 88.5622V78.6813C64.1694 77.4441 63.1657 76.4404 61.9284 76.4404C60.6912 76.4404 59.6875 77.4441 59.6875 78.6813V88.5622C59.6875 89.7995 60.6912 90.8031 61.9284 90.8031Z"
        fill="#7846D1" />
    <path
        d="M61.9284 108.094C63.1657 108.094 64.1694 107.091 64.1694 105.853V95.9724C64.1694 94.7351 63.1657 93.7314 61.9284 93.7314C60.6912 93.7314 59.6875 94.7351 59.6875 95.9724V105.853C59.6875 107.091 60.6912 108.094 61.9284 108.094Z"
        fill="#7846D1" />
    <path
        d="M48.0615 94.5073H56.9365C58.1738 94.5073 59.1774 93.5036 59.1774 92.2663C59.1774 91.0291 58.1738 90.0254 56.9365 90.0254H48.0615C46.8242 90.0254 45.8206 91.0291 45.8206 92.2663C45.8206 93.5036 46.8242 94.5073 48.0615 94.5073Z"
        fill="#7846D1" />
    <path
        d="M66.9233 94.5073H75.7983C77.0356 94.5073 78.0393 93.5036 78.0393 92.2663C78.0393 91.0291 77.0356 90.0254 75.7983 90.0254H66.9233C65.686 90.0254 64.6824 91.0291 64.6824 92.2663C64.6824 93.5036 65.686 94.5073 66.9233 94.5073Z"
        fill="#7846D1" />
    <path
        d="M113.554 14.852C114.792 14.852 115.795 13.8483 115.795 12.6111V2.73019C115.795 1.49292 114.792 0.489258 113.554 0.489258C112.317 0.489258 111.313 1.49292 111.313 2.73019V12.6111C111.316 13.8483 112.319 14.852 113.554 14.852Z"
        fill="#5B23A9" />
    <path
        d="M113.554 32.143C114.792 32.143 115.795 31.1393 115.795 29.902V20.0212C115.795 18.7839 114.792 17.7803 113.554 17.7803C112.317 17.7803 111.313 18.7839 111.313 20.0212V29.902C111.316 31.1393 112.319 32.143 113.554 32.143Z"
        fill="#5B23A9" />
    <path
        d="M99.6872 18.5561H108.562C109.8 18.5561 110.803 17.5524 110.803 16.3152C110.803 15.0779 109.8 14.0742 108.562 14.0742H99.6872C98.4499 14.0742 97.4463 15.0779 97.4463 16.3152C97.4463 17.5524 98.4499 18.5561 99.6872 18.5561Z"
        fill="#5B23A9" />
    <path
        d="M118.549 18.5561H127.424C128.662 18.5561 129.665 17.5524 129.665 16.3152C129.665 15.0779 128.662 14.0742 127.424 14.0742H118.549C117.312 14.0742 116.308 15.0779 116.308 16.3152C116.308 17.5524 117.312 18.5561 118.549 18.5561Z"
        fill="#5B23A9" />
    <path
        d="M699.99 31.4815V74.9742C699.99 80.7236 695.327 85.3872 689.577 85.3872H610.606L586.765 93.9399C584.316 94.8202 581.974 92.4127 582.913 89.9901L591.93 66.7005V31.4794C591.93 25.73 596.594 21.0664 602.348 21.0664H689.575C695.325 21.0664 699.99 25.7321 699.99 31.4815Z"
        fill="#9C78ED" />
    <g opacity="0.5">
        <path
            d="M683.341 43.7844H610.894C609.306 43.7844 608.019 42.4973 608.019 40.9097C608.019 39.322 609.306 38.0371 610.894 38.0371H683.341C684.929 38.0371 686.216 39.3241 686.216 40.9097C686.216 42.4995 684.929 43.7844 683.341 43.7844Z"
            fill="#E0D5F8" />
        <path
            d="M683.341 55.3586H610.894C609.306 55.3586 608.019 54.0716 608.019 52.4839C608.019 50.8962 609.306 49.6113 610.894 49.6113H683.341C684.929 49.6113 686.216 50.8984 686.216 52.4839C686.216 54.0716 684.929 55.3586 683.341 55.3586Z"
            fill="#E0D5F8" />
        <path
            d="M683.341 66.9318H610.894C609.306 66.9318 608.019 65.6448 608.019 64.0593C608.019 62.4716 609.306 61.1846 610.894 61.1846H683.341C684.929 61.1846 686.216 62.4716 686.216 64.0593C686.216 65.6448 684.929 66.9318 683.341 66.9318Z"
            fill="#E0D5F8" />
    </g>
    <path
        d="M932.932 684.836V686.391C932.932 695.357 925.662 702.627 916.69 702.627H74.3211C65.3509 702.627 58.0852 695.357 58.0852 686.391V684.836C58.0852 675.87 65.3509 668.6 74.3211 668.6H916.69C925.662 668.6 932.932 675.87 932.932 684.836Z"
        fill="#5B23A9" />
    <path
        d="M932.932 684.836V685.612H58.0852V684.836C58.0852 675.87 65.3509 668.6 74.3211 668.6H916.69C925.662 668.6 932.932 675.87 932.932 684.836Z"
        fill="#7846D1" />
</svg>