<svg
      xmlns="http://www.w3.org/2000/svg"
      width="75"
      height="75"
      viewBox="0 0 75 75"
      fill="none"
    >
      <path
        d="M12.3121 53.3938C9.06719 53.3955 6.43047 50.7553 6.42988 47.5109L6.42871 29.4998C6.42754 26.2584 9.06367 23.6188 12.3045 23.6182C13.8801 23.617 15.3555 24.2281 16.4676 25.3391C17.5797 26.45 18.1914 27.9277 18.1926 29.4986L18.1908 47.5104C18.1949 48.2825 18.0451 49.0478 17.7503 49.7614C17.4554 50.4751 17.0213 51.1229 16.4734 51.667C15.9288 52.2162 15.2805 52.6516 14.5661 52.948C13.8517 53.2445 13.0855 53.396 12.3121 53.3938ZM12.3074 25.1984C9.93262 25.1973 8.00781 27.1268 8.00723 29.4998L8.01016 47.5092C8.01 48.6504 8.463 49.745 9.26958 50.5523C10.0762 51.3597 11.1703 51.8137 12.3115 51.8147C12.8766 51.8147 13.4362 51.7034 13.9583 51.487C14.4804 51.2707 14.9547 50.9535 15.3541 50.5537C15.7534 50.1538 16.0701 49.6792 16.2859 49.1569C16.5017 48.6346 16.6124 48.0749 16.6117 47.5098V29.4975C16.6105 28.3568 16.1564 27.2632 15.3493 26.4571C14.5422 25.651 13.4481 25.1983 12.3074 25.1984Z"
        fill="white"
      />
      <path
        d="M58.4422 26.0904L56.8613 26.0899L18.1197 26.0951L16.5383 26.0957L16.5371 24.5143C16.5336 18.0221 20.0703 11.984 25.8635 8.41681L23.6111 4.30528C23.3357 3.82364 23.2666 3.21368 23.4272 2.65587C23.5085 2.37766 23.6444 2.11841 23.8269 1.89319C24.0093 1.66797 24.2348 1.48127 24.49 1.34396C24.8056 1.17019 25.1604 1.08002 25.5207 1.08204C26.3188 1.08204 27.0494 1.51505 27.435 2.21466L29.7922 6.509C32.2508 5.60921 34.8493 5.15195 37.4674 5.15841C40.1662 5.15724 42.7543 5.61368 45.2041 6.51251L47.5578 2.21114C47.7453 1.86798 48.0218 1.58171 48.3583 1.38248C48.6947 1.18326 49.0787 1.07846 49.4697 1.07911C49.8296 1.07798 50.1842 1.16616 50.5016 1.33575C50.7573 1.47302 50.9829 1.66014 51.165 1.88608C51.3472 2.11202 51.4822 2.37218 51.5621 2.65118C51.6426 2.92631 51.6676 3.21471 51.6356 3.49958C51.6036 3.78446 51.5153 4.06013 51.3758 4.31056L49.1246 8.41974C54.9084 11.9945 58.441 18.0279 58.4404 24.509L58.4422 26.0904ZM46.9895 9.0256L49.9912 3.54415C50.0341 3.47529 50.0625 3.39842 50.0746 3.31823C50.0868 3.23804 50.0825 3.1562 50.062 3.07773C50.0415 2.99925 50.0052 2.92577 49.9554 2.86178C49.9056 2.79779 49.8432 2.74462 49.7721 2.70552C49.7011 2.66642 49.6228 2.64221 49.5421 2.63437C49.4613 2.62652 49.3798 2.63521 49.3026 2.6599C49.2253 2.68459 49.1539 2.72476 49.0927 2.77796C49.0315 2.83116 48.9817 2.89628 48.9465 2.96935L45.9137 8.50646C43.3625 7.37325 40.5061 6.73634 37.4867 6.73927C34.4738 6.73634 31.6227 7.37091 29.0791 8.50001L26.0434 2.97521C26.0063 2.90616 25.9559 2.84517 25.8951 2.79577C25.8342 2.74638 25.7642 2.70957 25.689 2.68749C25.6138 2.66541 25.535 2.6585 25.4571 2.66715C25.3792 2.6758 25.3039 2.69985 25.2354 2.7379C24.9441 2.89376 24.8369 3.25997 24.9992 3.54591L28.0022 9.02325C22.1018 12.0666 18.115 17.8615 18.1186 24.5149L56.8596 24.5102C56.8613 17.8592 52.8816 12.076 46.9895 9.0256ZM28.6754 17.4965C28.2445 17.4963 27.8314 17.3249 27.5269 17.0201C27.2225 16.7152 27.0515 16.302 27.0518 15.8711C27.052 15.4403 27.2234 15.0272 27.5282 14.7227C27.833 14.4182 28.2463 14.2472 28.6772 14.2475C29.108 14.2482 29.5211 14.4197 29.8258 14.7244C30.1306 15.029 30.3022 15.442 30.3031 15.8729C30.3025 16.304 30.1307 16.7172 29.8254 17.0217C29.5202 17.3262 29.1065 17.497 28.6754 17.4965ZM46.3162 17.493C46.1029 17.4934 45.8915 17.4516 45.6943 17.3702C45.4971 17.2887 45.318 17.1692 45.1671 17.0183C45.0162 16.8675 44.8965 16.6884 44.815 16.4912C44.7335 16.294 44.6917 16.0827 44.692 15.8693C44.6935 15.4386 44.8651 15.0259 45.1694 14.7211C45.4737 14.4163 45.8861 14.2439 46.3168 14.2416C46.7469 14.2452 47.1583 14.4181 47.4618 14.7229C47.7653 15.0277 47.9364 15.4398 47.9381 15.8699C47.9382 16.083 47.8963 16.294 47.8148 16.4909C47.7333 16.6877 47.6139 16.8666 47.4633 17.0174C47.3127 17.1681 47.1339 17.2876 46.9371 17.3693C46.7402 17.4509 46.5293 17.4929 46.3162 17.493ZM30.299 73.9217C27.057 73.9211 24.4186 71.2844 24.418 68.0401L24.4168 60.0906L22.8711 60.0924C22.0604 60.0952 21.2571 59.937 20.508 59.627C19.7589 59.317 19.0787 58.8614 18.507 58.2865C17.9314 57.7149 17.4752 57.0345 17.165 56.2849C16.8549 55.5352 16.697 54.7314 16.7006 53.9201L16.6947 26.0137V24.4311H18.2762L56.7271 24.4252L58.3092 24.424V26.0055L58.3133 53.9154C58.3139 57.3192 55.5447 60.0889 52.1422 60.0883L50.5871 60.0895L50.5889 68.0359C50.5889 71.2785 47.951 73.9182 44.7102 73.9182C43.9374 73.9218 43.1716 73.7715 42.4576 73.476C41.7435 73.1806 41.0954 72.7459 40.5512 72.1973C40.0022 71.6533 39.5668 71.0055 39.2704 70.2917C38.9739 69.5779 38.8223 68.8124 38.8244 68.0395V60.0895H36.1813V68.0377C36.1801 71.2809 33.5428 73.9223 30.299 73.9217Z"
        fill="white"
      />
      <path
        d="M18.2844 53.9189C18.2831 54.522 18.4008 55.1195 18.6309 55.677C18.861 56.2344 19.1989 56.741 19.6252 57.1677C20.0515 57.5943 20.5578 57.9325 21.1151 58.1631C21.6724 58.3936 22.2697 58.5118 22.8729 58.5109H25.9977L26.0012 68.0406C26.0006 70.4137 27.9283 72.342 30.299 72.3426C30.8641 72.3423 31.4235 72.2307 31.9454 72.0141C32.4673 71.7976 32.9414 71.4803 33.3407 71.0805C33.74 70.6807 34.0566 70.2061 34.2724 69.6839C34.4882 69.1617 34.5991 68.6021 34.5986 68.0371L34.5992 58.5104L40.4053 58.5086L40.4047 68.0377C40.407 70.4113 42.3371 72.342 44.7072 72.3373C47.0838 72.3391 49.0103 70.4084 49.0098 68.0342L49.0068 58.5074L52.1434 58.5068C54.674 58.5074 56.7324 56.4514 56.7324 53.9148L56.7271 26.0037L18.2773 26.0107L18.2844 53.9189ZM62.6932 53.3857C59.4494 53.3863 56.8109 50.7502 56.8115 47.5053L56.8068 29.4947C56.808 26.2504 59.4424 23.6113 62.6844 23.6113C65.9305 23.6107 68.5707 26.2492 68.5701 29.493L68.5719 47.5023C68.5725 50.7449 65.9363 53.3863 62.6932 53.3857ZM62.6873 25.1928C60.3125 25.1904 58.3883 27.1188 58.3883 29.4947L58.39 47.5047C58.3897 48.0697 58.5008 48.6291 58.7169 49.1512C58.933 49.6732 59.2499 50.1475 59.6494 50.5469C60.049 50.9463 60.5234 51.2631 61.0454 51.4791C61.5675 51.695 62.127 51.8059 62.692 51.8055C63.2569 51.8055 63.8162 51.6942 64.3381 51.4779C64.8599 51.2616 65.334 50.9447 65.7333 50.5451C66.1326 50.1455 66.4492 49.6712 66.6652 49.1492C66.8811 48.6272 66.992 48.0678 66.9916 47.5029L66.9869 29.4936C66.9873 28.9288 66.8764 28.3694 66.6604 27.8475C66.4445 27.3256 66.1278 26.8514 65.7285 26.452C65.3292 26.0526 64.8551 25.7358 64.3332 25.5197C63.8114 25.3036 63.2521 25.1925 62.6873 25.1928Z"
        fill="white"
      />
      <path
        d="M12.307 25.1981C9.93223 25.1969 8.00742 27.1264 8.00684 29.4994L8.00977 47.5088C8.00938 48.0739 8.12039 48.6335 8.33644 49.1557C8.55249 49.6778 8.86934 50.1522 9.26888 50.5518C9.66843 50.9514 10.1428 51.2683 10.6649 51.4845C11.187 51.7006 11.7466 51.8117 12.3117 51.8114C12.8767 51.812 13.4363 51.7011 13.9584 51.4851C14.4805 51.2691 14.9548 50.9522 15.3542 50.5526C15.7536 50.153 16.0703 49.6785 16.286 49.1562C16.5017 48.634 16.6123 48.0744 16.6113 47.5094V29.4971C16.6101 28.3564 16.156 27.2628 15.3489 26.4567C14.5418 25.6506 13.4477 25.1979 12.307 25.1981ZM46.9898 9.02503L49.9916 3.54359C50.0681 3.40454 50.0863 3.24084 50.0422 3.08838C49.9982 2.93592 49.8955 2.80715 49.7566 2.73031C49.6175 2.65507 49.4543 2.63792 49.3026 2.6826C49.1509 2.72728 49.023 2.83016 48.9469 2.96878L45.9146 8.50765C43.3635 7.3721 40.5082 6.73578 37.4871 6.73871C34.4742 6.73578 31.6201 7.37035 29.0795 8.49945L26.0438 2.97464C26.0067 2.90568 25.9563 2.84476 25.8955 2.7954C25.8348 2.74604 25.7648 2.70924 25.6897 2.68711C25.6146 2.66498 25.5359 2.65798 25.458 2.6665C25.3802 2.67502 25.3049 2.6989 25.2363 2.73675C25.1671 2.77373 25.106 2.82414 25.0565 2.88503C25.0071 2.94591 24.9702 3.01605 24.9482 3.09135C24.9261 3.16664 24.9193 3.24557 24.9282 3.32352C24.937 3.40148 24.9613 3.47689 24.9996 3.54535L28.0025 9.02327C22.1021 12.066 18.1154 17.861 18.1189 24.5143L56.86 24.5096C56.8617 17.8586 52.882 12.0754 46.9898 9.02503ZM28.6758 17.4959C28.2449 17.4957 27.8318 17.3243 27.5273 17.0195C27.2228 16.7147 27.0519 16.3014 27.0521 15.8705C27.0524 15.4397 27.2238 15.0266 27.5286 14.7221C27.8334 14.4176 28.2467 14.2467 28.6775 14.2469C29.1084 14.2477 29.5215 14.4192 29.8262 14.7238C30.131 15.0284 30.3026 15.4414 30.3035 15.8723C30.3029 16.3034 30.1311 16.7167 29.8258 17.0211C29.5206 17.3256 29.1069 17.4964 28.6758 17.4959ZM46.3166 17.4924C46.1033 17.4926 45.8921 17.4507 45.695 17.3691C45.4979 17.2876 45.3188 17.168 45.168 17.0172C45.0171 16.8665 44.8975 16.6874 44.8159 16.4903C44.7343 16.2933 44.6923 16.0821 44.6924 15.8688C44.6947 15.4383 44.8665 15.0261 45.1706 14.7214C45.4748 14.4167 45.8867 14.2441 46.3172 14.241C46.7473 14.2446 47.1587 14.4175 47.4622 14.7223C47.7657 15.0271 47.9368 15.4392 47.9385 15.8694C47.9387 16.0825 47.8969 16.2935 47.8155 16.4905C47.7341 16.6874 47.6147 16.8664 47.464 17.0171C47.3134 17.1679 47.1345 17.2874 46.9376 17.369C46.7407 17.4506 46.5297 17.4925 46.3166 17.4924ZM18.2771 26.0108L18.2836 53.9219C18.2829 54.5247 18.4011 55.1217 18.6315 55.6788C18.8619 56.2359 19.1999 56.742 19.6262 57.1682C20.0525 57.5944 20.5586 57.9324 21.1157 58.1627C21.6728 58.393 22.2698 58.5112 22.8727 58.5104L25.9975 58.5116L26.001 68.0412C26.0004 70.4143 27.9293 72.3432 30.2988 72.3432C32.6754 72.3432 34.6008 70.4125 34.6014 68.0383L34.599 58.511L40.4051 58.5092L40.4074 68.0383C40.4074 70.4096 42.3369 72.3426 44.707 72.3379C47.0836 72.3397 49.0102 70.409 49.0096 68.0348L49.0066 58.508L52.1426 58.5057C52.7455 58.5058 53.3424 58.3871 53.8995 58.1565C54.4565 57.9258 54.9626 57.5877 55.3889 57.1615C55.8153 56.7352 56.1535 56.2292 56.3843 55.6723C56.6151 55.1153 56.7339 54.5183 56.734 53.9155L56.7287 26.0043L18.2771 26.0108ZM66.9885 29.493C66.9886 28.9282 66.8773 28.3689 66.6612 27.847C66.445 27.3252 66.1282 26.8511 65.7287 26.4517C65.3293 26.0524 64.8551 25.7357 64.3332 25.5196C63.8113 25.3036 63.2519 25.1926 62.6871 25.1928C60.3123 25.1905 58.3881 27.1188 58.3881 29.4948L58.3916 47.5053C58.3912 48.0701 58.5022 48.6295 58.7182 49.1514C58.9341 49.6733 59.2509 50.1475 59.6502 50.5469C60.0496 50.9463 60.5238 51.263 61.0457 51.479C61.5676 51.6949 62.127 51.8059 62.6918 51.8055C63.2567 51.8056 63.8161 51.6943 64.338 51.4781C64.8598 51.2619 65.334 50.9449 65.7333 50.5453C66.1326 50.1457 66.4492 49.6714 66.6651 49.1493C66.881 48.6273 66.9919 48.0679 66.9914 47.503L66.9885 29.493Z"
        fill="#A4C439"
      />
    </svg>