<svg width="32" height="32" viewBox="0 0 32 32" fill="none" xmlns="http://www.w3.org/2000/svg">
<g clip-path="url(#clip0_4827_2236)">
<path d="M11.0099 22.3984C11.0099 22.3984 10.7981 23.0359 10.4786 23.3544C10.3855 23.4585 10.2707 23.541 10.1424 23.5961C10.0141 23.6513 9.87524 23.6777 9.73563 23.6737C9.21144 23.8144 8.67864 23.9208 8.14062 23.9922C8.14062 23.9922 8.88488 24.0987 9.73563 24.2049C10.0539 24.2049 10.0539 24.2049 10.2666 24.3114C10.7981 24.3114 11.0099 23.9922 11.0099 23.9922V22.3984ZM20.7874 22.3984C20.7874 22.3984 21.0001 23.0359 21.3186 23.3544C21.4121 23.4584 21.5271 23.5407 21.6555 23.5959C21.784 23.651 21.9229 23.6775 22.0626 23.6737C22.5864 23.8143 23.1188 23.9207 23.6564 23.9922C23.6564 23.9922 22.9131 24.0987 21.9564 24.2049C21.6379 24.2049 21.6379 24.2049 21.4249 24.3114C20.7874 24.3114 20.6809 23.9922 20.6809 23.9922L20.7874 22.3984Z" fill="#E9654B"/>
<path d="M27.4784 11.8769C27.4784 18.2156 22.3397 23.3544 16.0009 23.3544C9.66194 23.3544 4.52344 18.2156 4.52344 11.8769C4.52344 5.53889 9.66194 0.400391 16.0009 0.400391C22.3399 0.400391 27.4784 5.53889 27.4784 11.8769Z" fill="#B6CFEA"/>
<path d="M27.0576 11.877C27.0576 17.9815 22.1094 22.9295 16.0049 22.9295C9.90138 22.9295 4.95312 17.9815 4.95312 11.877C4.95312 5.77345 9.90138 0.824951 16.0049 0.824951C22.1094 0.824951 27.0574 5.7732 27.0574 11.8767L27.0576 11.877Z" fill="#E6F5F8"/>
<path d="M25.035 12.0899C25.035 17.0789 20.9913 21.1229 16.002 21.1229C11.0135 21.1229 6.96875 17.0789 6.96875 12.0896C6.96875 7.10139 11.0138 3.05664 16.002 3.05664C20.9913 3.05664 25.035 7.10189 25.035 12.0899Z" fill="#D0E8F0"/>
<path d="M10.6867 16.3408C10.6867 16.3408 11.4307 28.3496 11.4307 28.5626C11.4307 28.6681 11.5372 28.8808 11.0049 29.0938C10.4737 29.3058 8.77344 29.7313 8.77344 29.7313H11.3242C12.4932 29.7313 12.4932 28.7746 12.4932 28.5626C12.4932 28.3496 12.8117 23.7803 12.8117 23.7803C12.8117 23.7803 12.9179 29.2003 12.9179 29.4121C12.9179 29.6251 12.8117 29.9433 12.0684 30.1563C11.5372 30.2628 9.94244 30.5813 9.94244 30.5813H12.3869C13.8752 30.5813 13.8752 29.6251 13.8752 29.6251L14.1934 24.8428C14.1934 24.8428 14.2999 29.6251 14.2999 30.1563C14.2999 30.5813 13.9814 30.9006 12.8117 31.1123C12.0684 31.3253 11.1114 31.5381 11.1114 31.5381H13.8752C15.2559 31.4318 15.4689 30.4746 15.4689 30.4746L17.8067 18.5723L10.6867 16.3408Z" fill="#EE794B"/>
<path d="M21.3176 16.3409C21.3176 16.3409 20.5744 28.3496 20.5744 28.5626C20.5744 28.6681 20.4679 28.8809 20.9994 29.0939C21.5304 29.3059 23.2306 29.7314 23.2306 29.7314H20.6799C19.5109 29.7314 19.5109 28.7746 19.5109 28.5626C19.5109 28.3496 19.1926 23.7804 19.1926 23.7804C19.1926 23.7804 19.0861 29.2004 19.0861 29.4121C19.0861 29.6251 19.1926 29.9434 19.9366 30.1564L22.0616 30.5814H19.6176C18.1301 30.5814 18.1301 29.6251 18.1301 29.6251L17.8109 24.8429C17.8109 24.8429 17.7044 29.6251 17.7044 30.1564C17.7044 30.5814 18.0239 30.9006 19.1929 31.1124C19.9369 31.3254 20.8929 31.5381 20.8929 31.5381H18.1301C16.7481 31.4319 16.5351 30.4746 16.5351 30.4746L14.1976 18.5726L21.3176 16.3409ZM21.4239 10.4961C21.4239 13.4719 18.9796 15.8096 16.1104 15.8096C13.2414 15.8096 10.7969 13.3654 10.7969 10.4961C10.7969 7.62712 13.2414 5.18262 16.1104 5.18262C18.9794 5.18262 21.4239 7.52062 21.4239 10.4961Z" fill="#EE794B"/>
<mask id="mask0_4827_2236" style="mask-type:luminance" maskUnits="userSpaceOnUse" x="10" y="10" width="12" height="13">
<path d="M10.5 10.25H21.5V23H10.5V10.25Z" fill="white"/>
</mask>
<g mask="url(#mask0_4827_2236)">
<mask id="mask1_4827_2236" style="mask-type:luminance" maskUnits="userSpaceOnUse" x="10" y="10" width="12" height="15">
<path d="M21.4207 10.2832L20.7832 24.8427H11.2188L10.6875 10.2832" fill="white"/>
</mask>
<g mask="url(#mask1_4827_2236)">
<path d="M25.5644 13.365C25.5644 18.5887 21.3302 22.8232 16.1064 22.8232C10.8829 22.8232 6.64844 18.5887 6.64844 13.3652C6.64844 8.14173 10.8829 3.90723 16.1064 3.90723C21.3299 3.90723 25.5644 8.14123 25.5644 13.365Z" fill="#EE794B"/>
</g>
</g>
<mask id="mask2_4827_2236" style="mask-type:luminance" maskUnits="userSpaceOnUse" x="0" y="0" width="32" height="32">
<path d="M0 0H32V32H0V0Z" fill="black" fill-opacity="0.22"/>
</mask>
<g mask="url(#mask2_4827_2236)">
<mask id="mask3_4827_2236" style="mask-type:luminance" maskUnits="userSpaceOnUse" x="0" y="0" width="32" height="32">
<path d="M0 0H32V32H0V0Z" fill="white"/>
</mask>
<g mask="url(#mask3_4827_2236)">
<path d="M21.1046 16.3406C21.1046 16.3406 21.7421 10.7079 20.8916 8.58289C19.2979 4.86314 15.5781 5.18239 15.5781 5.18239C15.5781 5.18239 17.7031 6.03214 17.8096 9.22064C17.9161 11.4521 17.8096 14.7469 17.8096 14.7469L21.1046 16.3406Z" fill="#E34E3B"/>
</g>
</g>
<mask id="mask4_4827_2236" style="mask-type:luminance" maskUnits="userSpaceOnUse" x="0" y="0" width="32" height="32">
<path d="M0 0H32V32H0V0Z" fill="black" fill-opacity="0.502"/>
</mask>
<g mask="url(#mask4_4827_2236)">
<mask id="mask5_4827_2236" style="mask-type:luminance" maskUnits="userSpaceOnUse" x="0" y="0" width="32" height="32">
<path d="M0 0H32V32H0V0Z" fill="white"/>
</mask>
<g mask="url(#mask5_4827_2236)">
<path d="M14.6198 7.62693C14.6198 7.72457 14.6005 7.82124 14.5631 7.91143C14.5257 8.00162 14.4709 8.08355 14.4018 8.15256C14.3327 8.22156 14.2507 8.27629 14.1605 8.3136C14.0703 8.35092 13.9736 8.37011 13.8759 8.37006C13.7783 8.37001 13.6816 8.35073 13.5914 8.31332C13.5013 8.27591 13.4193 8.2211 13.3503 8.15203C13.2813 8.08295 13.2266 8.00096 13.1893 7.91074C13.1519 7.82051 13.1328 7.72382 13.1328 7.62618C13.1329 7.42899 13.2113 7.23992 13.3508 7.10056C13.4903 6.96119 13.6795 6.88296 13.8767 6.88306C14.0739 6.88316 14.2629 6.96158 14.4023 7.10109C14.5417 7.24059 14.6199 7.42974 14.6198 7.62693Z" fill="#FBDFC3"/>
</g>
</g>
<path d="M17.92 18.4657C17.92 20.2724 17.0695 21.4424 16.007 21.4424C14.9445 21.4424 14.0938 20.0604 14.0938 18.2539C14.0938 18.2539 14.9445 19.9539 16.1133 19.9539C17.2823 19.9539 17.92 18.4657 17.92 18.4657Z" fill="#010101"/>
<path d="M17.9151 18.4659C17.9151 19.6359 17.0646 20.2726 16.0021 20.2726C14.9396 20.2726 14.1953 19.4229 14.1953 18.3604C14.1953 18.3604 15.0458 19.4229 16.2148 19.4229C17.3838 19.4229 17.9151 18.4659 17.9151 18.4659Z" fill="white"/>
<path d="M23.0194 13.4718C23.0194 15.291 21.5449 16.7655 19.7257 16.7655C17.9064 16.7655 16.4307 15.291 16.4307 13.4718C16.4307 11.6525 17.9062 10.1768 19.7257 10.1768C21.5452 10.1768 23.0194 11.6523 23.0194 13.4718ZM15.5809 13.4718C15.5809 15.291 14.1054 16.7655 12.2859 16.7655C10.4664 16.7655 8.99219 15.291 8.99219 13.4718C8.99219 11.6525 10.4667 10.1768 12.2862 10.1768C14.1054 10.1768 15.5809 11.6523 15.5809 13.4718Z" fill="#E9654B"/>
<path d="M22.2764 13.4716C22.2764 14.8799 21.1339 16.0224 19.7257 16.0224C18.3174 16.0224 17.1747 14.8799 17.1747 13.4716C17.1747 12.0624 18.3172 10.9209 19.7257 10.9209C21.1337 10.9209 22.2764 12.0624 22.2764 13.4716ZM14.6239 13.4716C14.6239 14.8799 13.4824 16.0224 12.0742 16.0224C10.6649 16.0224 9.52344 14.8799 9.52344 13.4716C9.52334 13.1367 9.58925 12.8049 9.7174 12.4954C9.84555 12.1859 10.0334 11.9047 10.2703 11.6678C10.5072 11.4309 10.7884 11.243 11.0979 11.1149C11.4075 10.9867 11.7392 10.9208 12.0742 10.9209C13.4824 10.9209 14.6239 12.0624 14.6239 13.4716Z" fill="white"/>
<path d="M12.8156 13.1524C12.8157 13.2501 12.7965 13.3468 12.7592 13.4371C12.7218 13.5273 12.6671 13.6094 12.5981 13.6785C12.529 13.7476 12.4471 13.8024 12.3568 13.8398C12.2666 13.8772 12.1699 13.8965 12.0723 13.8966C11.9746 13.8966 11.8779 13.8774 11.7876 13.8401C11.6973 13.8028 11.6153 13.748 11.5462 13.679C11.4771 13.61 11.4223 13.528 11.3849 13.4378C11.3475 13.3476 11.3282 13.2509 11.3281 13.1532C11.328 12.9559 11.4062 12.7667 11.5456 12.6271C11.685 12.4876 11.8741 12.4091 12.0714 12.4089C12.2686 12.4088 12.4579 12.487 12.5974 12.6264C12.737 12.7658 12.8155 12.9552 12.8156 13.1524ZM20.4679 13.1524C20.4697 13.2513 20.4518 13.3495 20.4153 13.4413C20.3787 13.5332 20.3242 13.6168 20.255 13.6874C20.1857 13.7579 20.1031 13.8139 20.012 13.8522C19.9208 13.8905 19.823 13.9102 19.7241 13.9102C19.6253 13.9102 19.5274 13.8905 19.4363 13.8523C19.3451 13.8141 19.2625 13.7581 19.1932 13.6875C19.1239 13.617 19.0694 13.5334 19.0328 13.4416C18.9962 13.3497 18.9783 13.2515 18.9801 13.1527C18.9836 12.9578 19.0635 12.772 19.2026 12.6354C19.3417 12.4987 19.5288 12.4221 19.7238 12.4221C19.9187 12.422 20.1059 12.4985 20.2451 12.635C20.3842 12.7716 20.4642 12.9575 20.4679 13.1524Z" fill="#010101"/>
<path d="M4.31353 14.7469C4.24263 14.7513 4.1716 14.7406 4.10515 14.7154C4.03871 14.6903 3.97837 14.6513 3.92814 14.601C3.8779 14.5508 3.83892 14.4905 3.81378 14.424C3.78863 14.3576 3.77789 14.2866 3.78228 14.2156V9.9649C3.77772 9.89395 3.78833 9.82285 3.81342 9.75633C3.83851 9.68981 3.8775 9.62941 3.92778 9.57915C3.97804 9.52887 4.03844 9.48988 4.10496 9.46479C4.17148 9.4397 4.24259 9.42908 4.31353 9.43365C4.38444 9.42926 4.45547 9.44 4.52191 9.46514C4.58835 9.49029 4.64869 9.52927 4.69893 9.57951C4.74916 9.62974 4.78814 9.69008 4.81329 9.75652C4.83843 9.82296 4.84917 9.89399 4.84478 9.9649V14.2159C4.85353 14.3584 4.79978 14.4991 4.69828 14.6009C4.64817 14.6512 4.58792 14.6903 4.52154 14.7155C4.45516 14.7407 4.38416 14.7515 4.31328 14.7471L4.31353 14.7469ZM27.4805 14.7469C27.4096 14.7512 27.3386 14.7404 27.2722 14.7151C27.2059 14.6899 27.1456 14.6508 27.0955 14.6004C27.0452 14.5503 27.0062 14.4901 26.981 14.4238C26.9558 14.3574 26.945 14.2865 26.9493 14.2156V9.9649C26.9448 9.89388 26.9556 9.82273 26.9809 9.75621C27.0061 9.68968 27.0453 9.62932 27.0958 9.57915C27.1459 9.529 27.2062 9.49009 27.2725 9.465C27.3388 9.43991 27.4098 9.42923 27.4805 9.43365C27.5513 9.42923 27.6222 9.43991 27.6886 9.465C27.7549 9.49009 27.8151 9.529 27.8653 9.57915C27.9678 9.6809 28.0203 9.82165 28.0118 9.9649V14.2159C28.0161 14.2868 28.0053 14.3578 27.98 14.4242C27.9548 14.4906 27.9156 14.5508 27.8653 14.6009C27.8152 14.6512 27.7549 14.6903 27.6885 14.7155C27.6222 14.7407 27.5512 14.7515 27.4803 14.7471L27.4805 14.7469Z" fill="#B6CFEA"/>
<path d="M12.925 3.37598C12.925 3.51687 12.869 3.652 12.7694 3.75163C12.6698 3.85126 12.5346 3.90723 12.3937 3.90723C12.2528 3.90723 12.1177 3.85126 12.0181 3.75163C11.9185 3.652 11.8625 3.51687 11.8625 3.37598C11.8625 3.23508 11.9185 3.09995 12.0181 3.00033C12.1177 2.9007 12.2528 2.84473 12.3937 2.84473C12.5346 2.84473 12.6698 2.9007 12.7694 3.00033C12.869 3.09995 12.925 3.23508 12.925 3.37598ZM8.56849 17.7225C8.51068 17.7298 8.45198 17.724 8.39669 17.7056C8.3414 17.6872 8.29093 17.6567 8.24899 17.6162C6.97374 16.0225 6.33599 14.003 6.33599 11.9835C6.33026 10.3045 6.77043 8.65411 7.61149 7.20098C8.46404 5.81782 9.62852 4.65342 11.0117 3.80098C11.1005 3.76105 11.1995 3.74982 11.295 3.76887C11.3905 3.78791 11.4776 3.83628 11.5442 3.90723C11.5838 3.9959 11.5948 4.09469 11.5757 4.1899C11.5566 4.2851 11.5083 4.37198 11.4375 4.43848C10.1191 5.18321 9.02139 6.26378 8.25601 7.57032C7.49064 8.87686 7.08488 10.3628 7.07999 11.877C7.07729 13.7671 7.71405 15.6026 8.88674 17.085C8.99324 17.1915 8.99324 17.51 8.78024 17.6162C8.67399 17.7227 8.67399 17.7225 8.56849 17.7225Z" fill="white"/>
<mask id="mask6_4827_2236" style="mask-type:luminance" maskUnits="userSpaceOnUse" x="0" y="0" width="32" height="32">
<path d="M0 0H32V32H0V0Z" fill="black" fill-opacity="0.251"/>
</mask>
<g mask="url(#mask6_4827_2236)">
<mask id="mask7_4827_2236" style="mask-type:luminance" maskUnits="userSpaceOnUse" x="0" y="0" width="32" height="32">
<path d="M0 0H32V32H0V0Z" fill="white"/>
</mask>
<g mask="url(#mask7_4827_2236)">
<path d="M20.7892 22.7167V21.8674C19.3017 22.7169 17.707 23.5674 15.795 23.5674C13.669 23.5674 12.2873 22.6114 10.9062 21.8674L11.0118 22.7169C11.0118 22.7169 12.6068 24.4182 15.9005 24.4182C18.9825 24.3117 20.7892 22.7167 20.7892 22.7167Z" fill="#E9654B"/>
</g>
</g>
</g>
<defs>
<clipPath id="clip0_4827_2236">
<rect width="32" height="32" fill="white"/>
</clipPath>
</defs>
</svg>
