<svg width="60" height="60" viewBox="0 0 60 60" fill="none" xmlns="http://www.w3.org/2000/svg">
<mask id="path-1-inside-1_3788_5662" fill="white">
<path d="M15.0535 60H4.97318C2.85211 60 1.80208 60 1.16906 59.55C0.83109 59.3103 0.547771 58.9755 0.344035 58.5749C0.14411 58.1817 0.0267887 57.737 0.00202428 57.2784C-0.0369769 56.4211 0.48804 55.3961 1.53807 53.3138L26.4389 3.85625C27.5069 1.75608 28.0499 0.705999 28.7279 0.320254C29.0894 0.109542 29.4865 0 29.889 0C30.2914 0 30.6886 0.109542 31.05 0.320254C31.725 0.705999 32.25 1.75608 33.3001 3.85625L38.4392 13.9285L38.4572 13.9713C39.3003 15.4 39.9693 16.9466 40.4433 18.5788C40.7283 19.8647 40.7283 21.2576 40.4433 22.5649C39.9683 24.2185 39.2997 25.7841 38.4572 27.2153L25.3708 53.2745L25.3318 53.3602C24.6628 54.9139 23.8018 56.3604 22.7817 57.6462C21.8921 58.5926 20.8349 59.2884 19.6886 59.6821C18.6206 60 17.4356 60 15.0505 60M40.5393 60H54.9758C57.1358 60 58.2009 60 58.8399 59.5285C59.1764 59.2895 59.4586 58.9559 59.6619 58.557C59.8597 58.1632 59.975 57.7185 59.9979 57.2605C60.0369 56.4247 59.5299 55.4389 58.5189 53.4852L58.4049 53.2709L51.1716 39.3412L51.0966 39.1733C50.0796 37.2446 49.5546 36.2588 48.9006 35.8731C48.5424 35.6599 48.1475 35.549 47.747 35.549C47.3466 35.549 46.9517 35.6599 46.5935 35.8731C45.9215 36.2588 45.3935 37.2875 44.3434 39.3448L37.1042 53.2959V53.3388C36.0362 55.3889 35.5141 56.4247 35.5501 57.2605C35.573 57.7213 35.6894 58.1686 35.8892 58.5642C36.0909 58.9683 36.3732 59.3069 36.7112 59.55C37.3322 60 38.4002 60 40.5393 60Z"/>
</mask>
<path d="M1.16906 59.55L2.32792 57.9199L2.32583 57.9184L1.16906 59.55ZM0.344035 58.5749L-1.4387 59.4815L-1.43867 59.4815L0.344035 58.5749ZM0.00202428 57.2784L-1.99591 57.3693L-1.99552 57.3777L-1.99507 57.3862L0.00202428 57.2784ZM1.53807 53.3138L3.32387 54.2143L3.32443 54.2132L1.53807 53.3138ZM26.4389 3.85625L24.6561 2.94965L24.6525 2.95685L26.4389 3.85625ZM28.7279 0.320254L29.7169 2.05861L29.7261 2.0534L29.7352 2.04809L28.7279 0.320254ZM31.05 0.320254L30.0427 2.04809L30.0502 2.05244L30.0577 2.05672L31.05 0.320254ZM33.3001 3.85625L31.5112 4.75064L31.5149 4.75795L31.5186 4.76523L33.3001 3.85625ZM38.4392 13.9285L40.2832 13.1541L40.2545 13.0856L40.2207 13.0195L38.4392 13.9285ZM38.4572 13.9713L36.6132 14.7457L36.6658 14.8708L36.7348 14.9877L38.4572 13.9713ZM40.4433 18.5788L42.3959 18.146L42.3819 18.083L42.3639 18.0211L40.4433 18.5788ZM40.4433 22.5649L42.3656 23.117L42.3835 23.0545L42.3974 22.9909L40.4433 22.5649ZM38.4572 27.2153L36.7337 26.2006L36.6999 26.2581L36.6699 26.3177L38.4572 27.2153ZM25.3708 53.2745L23.5835 52.3769L23.5663 52.4113L23.5504 52.4462L25.3708 53.2745ZM25.3318 53.3602L23.5114 52.5319L23.5029 52.5505L23.4949 52.5692L25.3318 53.3602ZM22.7817 57.6462L24.2389 59.0162L24.2964 58.955L24.3486 58.8892L22.7817 57.6462ZM19.6886 59.6821L20.2592 61.599L20.299 61.5872L20.3384 61.5736L19.6886 59.6821ZM58.8399 59.5285L57.6815 57.8981L57.6669 57.9085L57.6525 57.9192L58.8399 59.5285ZM59.6619 58.557L61.4439 59.4652L61.4491 59.4548L59.6619 58.557ZM59.9979 57.2605L61.9954 57.3605L61.9957 57.3537L59.9979 57.2605ZM58.5189 53.4852L60.2951 52.566L60.2899 52.5559L60.2846 52.5459L58.5189 53.4852ZM58.4049 53.2709L56.6299 54.1926L56.6345 54.2014L56.6392 54.2102L58.4049 53.2709ZM51.1716 39.3412L49.3456 40.157L49.3696 40.2107L49.3967 40.2629L51.1716 39.3412ZM51.0966 39.1733L52.9227 38.3575L52.8961 38.2981L52.8657 38.2405L51.0966 39.1733ZM48.9006 35.8731L47.8778 37.5918L47.8845 37.5958L48.9006 35.8731ZM47.747 35.549V33.549V35.549ZM46.5935 35.8731L47.5891 37.6076L47.6028 37.5998L47.6162 37.5918L46.5935 35.8731ZM44.3434 39.3448L46.1187 40.266L46.1248 40.254L44.3434 39.3448ZM37.1042 53.2959L35.329 52.3747L35.1042 52.8079V53.2959H37.1042ZM37.1042 53.3388L38.8779 54.2628L39.1042 53.8285V53.3388H37.1042ZM35.5501 57.2605L33.552 57.3466L33.5526 57.3598L35.5501 57.2605ZM35.8892 58.5642L37.6786 57.6709L37.6744 57.6625L35.8892 58.5642ZM36.7112 59.55L37.8848 57.9305L37.8791 57.9264L36.7112 59.55ZM15.0535 60V58H4.97318V60V62H15.0535V60ZM4.97318 60V58C3.87292 58 3.19028 57.998 2.69773 57.9523C2.20409 57.9065 2.21069 57.8366 2.32792 57.9199L1.16906 59.55L0.0102043 61.18C0.760451 61.7134 1.60858 61.8685 2.32847 61.9352C3.04947 62.002 3.95238 62 4.97318 62V60ZM1.16906 59.55L2.32583 57.9184C2.27415 57.8818 2.19636 57.8052 2.12674 57.6683L0.344035 58.5749L-1.43867 59.4815C-1.10082 60.1458 -0.611971 60.7389 0.0122963 61.1815L1.16906 59.55ZM0.344035 58.5749L2.12677 57.6683C2.0584 57.5339 2.00949 57.3627 1.99912 57.1705L0.00202428 57.2784L-1.99507 57.3862C-1.95591 58.1113 -1.77018 58.8296 -1.4387 59.4815L0.344035 58.5749ZM0.00202428 57.2784L1.99996 57.1875C2.00053 57.2 1.98834 57.0561 2.21017 56.519C2.43178 55.9825 2.78248 55.2879 3.32387 54.2143L1.53807 53.3138L-0.247725 52.4132C-0.756364 53.4219 -1.1932 54.281 -1.48685 54.9919C-1.78028 55.7023 -2.03548 56.4995 -1.99591 57.3693L0.00202428 57.2784ZM1.53807 53.3138L3.32443 54.2132L28.2252 4.75564L26.4389 3.85625L24.6525 2.95685L-0.248289 52.4144L1.53807 53.3138ZM26.4389 3.85625L28.2216 4.76284C28.7697 3.68498 29.1307 2.98299 29.4313 2.4962C29.7479 1.98363 29.8349 1.99151 29.7169 2.05861L28.7279 0.320254L27.7389 -1.4181C26.943 -0.965254 26.4195 -0.239463 26.028 0.394489C25.6206 1.05421 25.176 1.92735 24.6561 2.94965L26.4389 3.85625ZM28.7279 0.320254L29.7352 2.04809C29.8035 2.00826 29.8548 2 29.889 2V0V-2C29.1182 -2 28.3752 -1.78918 27.7207 -1.40758L28.7279 0.320254ZM29.889 0V2C29.9232 2 29.9744 2.00826 30.0427 2.04809L31.05 0.320254L32.0573 -1.40758C31.4027 -1.78918 30.6597 -2 29.889 -2V0ZM31.05 0.320254L30.0577 2.05672C29.9309 1.98429 30.0125 1.96719 30.3233 2.48076C30.6184 2.96844 30.9705 3.66921 31.5112 4.75064L33.3001 3.85625L35.0889 2.96186C34.5796 1.94312 34.1442 1.06877 33.7455 0.409929C33.3625 -0.223024 32.8441 -0.958038 32.0423 -1.41621L31.05 0.320254ZM33.3001 3.85625L31.5186 4.76523L36.6577 14.8375L38.4392 13.9285L40.2207 13.0195L35.0816 2.94727L33.3001 3.85625ZM38.4392 13.9285L36.5952 14.7028L36.6132 14.7457L38.4572 13.9713L40.3012 13.197L40.2832 13.1541L38.4392 13.9285ZM38.4572 13.9713L36.7348 14.9877C37.4921 16.2712 38.0948 17.6635 38.5226 19.1366L40.4433 18.5788L42.3639 18.0211C41.8437 16.2297 41.1085 14.5289 40.1797 12.955L38.4572 13.9713ZM40.4433 18.5788L38.4907 19.0117C38.712 20.0101 38.7135 21.11 38.4892 22.1388L40.4433 22.5649L42.3974 22.9909C42.7431 21.4053 42.7446 19.7193 42.3959 18.146L40.4433 18.5788ZM40.4433 22.5649L38.521 22.0128C38.0909 23.5103 37.4877 24.9198 36.7337 26.2006L38.4572 27.2153L40.1808 28.2299C41.1118 26.6484 41.8458 24.9267 42.3656 23.117L40.4433 22.5649ZM38.4572 27.2153L36.6699 26.3177L23.5835 52.3769L25.3708 53.2745L27.1581 54.172L40.2445 28.1128L38.4572 27.2153ZM25.3708 53.2745L23.5504 52.4462L23.5114 52.5319L25.3318 53.3602L27.1523 54.1884L27.1913 54.1027L25.3708 53.2745ZM25.3318 53.3602L23.4949 52.5692C22.8936 53.9656 22.1223 55.2594 21.2149 56.4033L22.7817 57.6462L24.3486 58.8892C25.4813 57.4614 26.432 55.8622 27.1688 54.1512L25.3318 53.3602ZM22.7817 57.6462L21.3246 56.2763C20.6413 57.0032 19.8558 57.51 19.0389 57.7906L19.6886 59.6821L20.3384 61.5736C21.8141 61.0668 23.1429 60.182 24.2389 59.0162L22.7817 57.6462ZM19.6886 59.6821L19.1181 57.7652C18.3957 57.9802 17.5599 58 15.0505 58V60V62C17.3112 62 18.8455 62.0198 20.2592 61.599L19.6886 59.6821ZM40.5393 60V62H54.9758V60V58H40.5393V60ZM54.9758 60V62C56.0147 62 56.9347 62.0022 57.6686 61.932C58.4039 61.8617 59.2686 61.6977 60.0273 61.1379L58.8399 59.5285L57.6525 57.9192C57.7722 57.8309 57.7848 57.9026 57.2878 57.9502C56.7895 57.9978 56.0969 58 54.9758 58V60ZM58.8399 59.5285L59.9982 61.159C60.6197 60.7174 61.1067 60.1267 61.4438 59.4652L59.6619 58.557L57.88 57.6489C57.8106 57.7851 57.7331 57.8615 57.6815 57.8981L58.8399 59.5285ZM59.6619 58.557L61.4491 59.4548C61.7768 58.8025 61.9591 58.0847 61.9954 57.3605L59.9979 57.2605L58.0004 57.1605C57.9908 57.3524 57.9427 57.524 57.8747 57.6593L59.6619 58.557ZM59.9979 57.2605L61.9957 57.3537C62.0358 56.495 61.7862 55.713 61.498 55.0221C61.2106 54.3333 60.7856 53.5138 60.2951 52.566L58.5189 53.4852L56.7426 54.4044C57.2632 55.4103 57.5971 56.0606 57.8063 56.5621C58.0146 57.0614 57.999 57.1902 58.0001 57.1673L59.9979 57.2605ZM58.5189 53.4852L60.2846 52.5459L60.1706 52.3316L58.4049 53.2709L56.6392 54.2102L56.7532 54.4245L58.5189 53.4852ZM58.4049 53.2709L60.1798 52.3492L52.9466 38.4195L51.1716 39.3412L49.3967 40.2629L56.6299 54.1926L58.4049 53.2709ZM51.1716 39.3412L52.9977 38.5254L52.9227 38.3575L51.0966 39.1733L49.2706 39.9892L49.3456 40.157L51.1716 39.3412ZM51.0966 39.1733L52.8657 38.2405C52.3718 37.3038 51.9441 36.492 51.5509 35.8726C51.1693 35.2715 50.6661 34.5924 49.9166 34.1504L48.9006 35.8731L47.8845 37.5958C47.7891 37.5395 47.8754 37.5461 48.174 38.0165C48.4611 38.4687 48.8044 39.1142 49.3275 40.1062L51.0966 39.1733ZM48.9006 35.8731L49.9233 34.1544C49.269 33.765 48.5226 33.549 47.747 33.549V35.549V37.549C47.7723 37.549 47.8158 37.5549 47.8778 37.5918L48.9006 35.8731ZM47.747 35.549V33.549C46.9715 33.549 46.2251 33.765 45.5707 34.1544L46.5935 35.8731L47.6162 37.5918C47.6783 37.5549 47.7217 37.549 47.747 37.549V35.549ZM46.5935 35.8731L45.5978 34.1385C44.8107 34.5904 44.2945 35.3061 43.9084 35.9315C43.5084 36.5795 43.0718 37.4368 42.562 38.4356L44.3434 39.3448L46.1248 40.254C46.6651 39.1955 47.0175 38.5098 47.3121 38.0327C47.6205 37.533 47.7043 37.5415 47.5891 37.6076L46.5935 35.8731ZM44.3434 39.3448L42.5682 38.4236L35.329 52.3747L37.1042 53.2959L38.8794 54.2171L46.1187 40.266L44.3434 39.3448ZM37.1042 53.2959H35.1042V53.3388H37.1042H39.1042V53.2959H37.1042ZM37.1042 53.3388L35.3304 52.4147C34.8085 53.4166 34.367 54.2693 34.0684 54.9825C33.7724 55.6893 33.5149 56.4851 33.552 57.3466L35.5501 57.2605L37.5483 57.1744C37.5494 57.2001 37.5349 57.0601 37.7579 56.5276C37.9783 56.0014 38.3318 55.311 38.8779 54.2628L37.1042 53.3388ZM35.5501 57.2605L33.5526 57.3598C33.5888 58.0882 33.7729 58.8103 34.1039 59.4658L35.8892 58.5642L37.6744 57.6625C37.6059 57.5269 37.5573 57.3544 37.5477 57.1612L35.5501 57.2605ZM35.8892 58.5642L34.0997 59.4575C34.4338 60.1266 34.92 60.7252 35.5433 61.1736L36.7112 59.55L37.8791 57.9264C37.8264 57.8885 37.748 57.81 37.6786 57.6709L35.8892 58.5642ZM36.7112 59.55L35.5376 61.1694C36.2922 61.7163 37.1566 61.8695 37.8729 61.9354C38.5982 62.002 39.5093 62 40.5393 62V60V58C39.4303 58 38.7378 57.998 38.239 57.9521C37.7313 57.9055 37.7511 57.8337 37.8848 57.9305L36.7112 59.55Z" fill="#6B24FF" mask="url(#path-1-inside-1_3788_5662)"/>
</svg>
