<svg width="565" height="354" viewBox="0 0 565 354" fill="none" xmlns="http://www.w3.org/2000/svg">
<path d="M528.246 334.563C507.902 322.765 491.325 314.702 481.844 284.549C472.363 254.396 450.467 236.969 426.345 226.181C402.224 215.393 398.153 197.114 394.254 171.498C390.356 145.882 372.272 126.684 353.058 123.003C333.844 119.322 321.773 81.2324 284.576 81.2324C247.38 81.2324 235.309 119.322 216.094 123.003C196.88 126.684 178.796 145.883 174.898 171.498C171 197.114 166.929 215.392 142.807 226.181C118.686 236.969 96.7902 254.396 87.3092 284.549C77.8282 314.702 61.2512 322.766 40.9062 334.563C20.5622 346.361 22.2572 353.999 22.2572 353.999H284.576H546.895C546.895 353.999 548.591 346.36 528.246 334.563Z" fill="#7534FC" fill-opacity="0.5"/>
<path d="M17.9972 317.131L18.166 313.513L6.98335 312.991L6.81457 316.609L17.9972 317.131Z" stroke="#7B85EF" stroke-width="0.5" stroke-miterlimit="10"/>
<path d="M66.6751 151.381L68.6553 148.349L59.2817 142.228L57.3016 145.261L66.6751 151.381Z" stroke="#7B85EF" stroke-width="0.5" stroke-miterlimit="10"/>
<path d="M555.753 299.751L557.97 296.886L549.114 290.036L546.898 292.901L555.753 299.751Z" stroke="#7B85EF" stroke-width="0.5" stroke-miterlimit="10"/>
<path d="M493.825 153.369L496.041 150.504L487.187 143.654L484.971 146.518L493.825 153.369Z" stroke="#7B85EF" stroke-width="0.5" stroke-miterlimit="10"/>
<path d="M414.878 2.44861L411.812 0.519531L405.85 9.99498L408.916 11.9241L414.878 2.44861Z" stroke="#7B85EF" stroke-width="0.5" stroke-miterlimit="10"/>
<path d="M330.997 1.47729L328.887 4.4209L337.985 10.9442L340.095 8.00062L330.997 1.47729Z" stroke="#7B85EF" stroke-width="0.5" stroke-miterlimit="10"/>
<path d="M504.222 58.9327L502.291 55.8682L492.819 61.8362L494.75 64.9008L504.222 58.9327Z" stroke="#7B85EF" stroke-width="0.5" stroke-miterlimit="10"/>
<path d="M545.988 220.813L543.123 218.597L536.273 227.451L539.137 229.667L545.988 220.813Z" stroke="#7B85EF" stroke-width="0.5" stroke-miterlimit="10"/>
<path d="M527.119 282.728C531.083 281.736 533.492 277.718 532.499 273.755C531.507 269.791 527.489 267.382 523.525 268.375C519.562 269.367 517.153 273.385 518.146 277.349C519.138 281.312 523.156 283.721 527.119 282.728Z" stroke="#FFA8C7" stroke-width="0.5" stroke-miterlimit="10"/>
<path d="M25.9524 260.441C26.6069 256.408 23.8681 252.608 19.835 251.953C15.8019 251.299 12.0018 254.037 11.3473 258.07C10.6927 262.104 13.4316 265.904 17.4647 266.558C21.4978 267.213 25.2978 264.474 25.9524 260.441Z" stroke="#FFA8C7" stroke-width="0.5" stroke-miterlimit="10"/>
<path d="M112.837 117.555C112.837 121.641 109.525 124.953 105.439 124.953C101.353 124.953 98.041 121.641 98.041 117.555C98.041 113.47 101.353 110.157 105.439 110.157C109.525 110.158 112.837 113.47 112.837 117.555Z" stroke="#FFA8C7" stroke-width="0.5" stroke-miterlimit="10"/>
<path d="M382.02 31.1451C382.02 35.2311 378.708 38.5421 374.622 38.5421C370.536 38.5421 367.224 35.2301 367.224 31.1451C367.224 27.0591 370.536 23.7471 374.622 23.7471C378.708 23.7471 382.02 27.0591 382.02 31.1451Z" stroke="#FFA8C7" stroke-width="0.5" stroke-miterlimit="10"/>
<path d="M493.147 96.0264C497.233 96.0264 500.544 99.3384 500.544 103.424C500.544 107.51 497.232 110.822 493.147 110.822C489.061 110.822 485.749 107.51 485.749 103.424C485.75 99.3394 489.062 96.0264 493.147 96.0264Z" stroke="#FFA8C7" stroke-width="0.5" stroke-miterlimit="10"/>
<path d="M505.297 212.823C505.297 216.909 501.985 220.221 497.899 220.221C493.813 220.221 490.501 216.909 490.501 212.823C490.501 208.737 493.813 205.425 497.899 205.425C501.985 205.426 505.297 208.738 505.297 212.823Z" stroke="#FFA8C7" stroke-width="0.5" stroke-miterlimit="10"/>
<path d="M357.091 109.065H312.614V166H357.091V109.065Z" fill="#7B85EF"/>
<path d="M328.874 109.065H312.614V166H328.874V109.065Z" fill="#1A263D"/>
<path d="M304.004 130.766H259.526V166.001H304.004V130.766Z" fill="#243971"/>
<path d="M275.786 130.766H259.526V166.001H275.786V130.766Z" fill="#1A263D"/>
<path d="M411.134 63.1436H366.656V166.001H411.134V63.1436Z" fill="#5F88F0"/>
<path d="M382.917 63.1436H366.656V166.001H382.917V63.1436Z" fill="#1A263D"/>
<path d="M465.849 29.7188H421.371V166.001H465.849V29.7188Z" fill="#FFA8C7"/>
<path d="M437.632 29.7188H421.371V166.001H437.632V29.7188Z" fill="#1A263D"/>
<path d="M496.567 10.042L474.016 24.368L481.15 29.316C472.342 43.278 441.225 88.078 388.988 115.876C313.02 156.304 256.588 154.59 256.026 154.563L255.775 160.761C256.004 160.77 256.742 160.795 257.961 160.795C269.265 160.795 321.869 158.62 391.901 121.351C445.044 93.07 476.873 47.641 486.247 32.851L492.759 37.368L496.567 10.042Z" fill="white"/>
<path d="M495.018 8.46191L472.467 22.7879L479.601 27.7359C470.793 41.6979 439.676 86.4979 387.439 114.296C311.471 154.724 255.039 153.01 254.477 152.983L254.226 159.18C254.455 159.189 255.193 159.214 256.412 159.214C267.716 159.214 320.32 157.039 390.352 119.771C443.495 91.4899 475.324 46.0609 484.698 31.2709L491.21 35.7879L495.018 8.46191Z" fill="#7534FC" stroke="white" stroke-width="0.3876" stroke-miterlimit="10"/>
<path d="M453.685 332.58C453.685 332.58 465.25 325.652 473.732 316.192C482.213 306.733 498.983 291.146 508.043 287.353C511.127 295.829 515.56 305.785 505.73 316.192C495.899 326.599 490.888 324.073 485.683 333.725C480.479 343.377 474.84 349.43 466.552 353.683H435.759L453.685 332.58Z" fill="#5F88F0"/>
<path d="M499.271 297.382C497.536 301.253 496.696 307.9 493.488 310.7C484.959 318.145 469.993 320.536 465.282 324.219C468.1 321.884 471.068 319.163 473.731 316.193C482.212 306.734 498.982 291.147 508.042 287.354C504.857 288.976 501.006 293.511 499.271 297.382Z" fill="#243971"/>
<path d="M505.344 292.619C501.73 296.468 498.549 308.925 492.188 316.193C485.827 323.461 483.803 324.81 476.286 329.595C468.768 334.38 455.613 345.381 452.143 353.683" stroke="#182341" stroke-width="0.5" stroke-miterlimit="10"/>
<path d="M449.251 249.968C449.251 249.968 445.637 257.698 444.336 269.016C443.13 279.505 444.914 281.628 442.601 293.526C440.288 305.424 438.168 308.826 435.758 322.707C433.349 336.588 431.614 353.683 431.614 353.683H408.854C408.854 353.683 410.604 349.103 410.845 337.815C411.086 326.527 409.288 311.921 413.223 297.876C417.158 283.831 427.277 257.575 449.251 249.968Z" fill="#5F88F0"/>
<path d="M442.023 257.329C442.023 257.329 429.879 269.005 427.277 286.356C424.675 303.707 426.988 336.179 424.675 344.931" stroke="#182341" stroke-width="0.5" stroke-miterlimit="10"/>
<path d="M498.404 253.913C498.404 253.913 487.61 257.493 480.478 258.311C473.346 259.129 464.672 259.947 460.239 264.2C455.806 268.453 455.805 278.759 449.829 282.031C443.854 285.303 433.446 295.661 429.976 303.978C426.506 312.295 424.386 328.326 424.193 334.706C424 341.086 420.338 350.738 418.603 353.682H440.963C440.963 353.682 457.153 339.941 461.395 329.144C465.636 318.347 464.479 306.732 468.912 300.352C473.345 293.972 481.213 285.418 487.417 277.767C495.899 267.308 498.404 253.913 498.404 253.913Z" fill="#243971"/>
<path d="M468.913 300.353C467.86 301.868 467.128 303.686 466.559 305.71L466.552 305.714C468.142 291.028 471.034 282.503 476.431 277.768C481.828 273.034 496.67 260.803 498.405 253.913C498.405 253.913 495.899 267.308 487.418 277.768C481.214 285.419 473.346 293.973 468.913 300.353Z" fill="#5F88F0"/>
<path d="M491.079 259.129C483.754 264.855 474.887 268.584 468.719 275.144C462.551 281.704 454.322 295.152 449.25 304.464C440.038 321.376 433.251 345.832 427.276 353.684" stroke="#182341" stroke-width="0.5" stroke-miterlimit="10"/>
<path d="M151.693 307.901H55.0184C51.7534 307.901 49.1064 305.254 49.1064 301.989V236.774C49.1064 233.509 51.7534 230.862 55.0184 230.862H151.693C154.958 230.862 157.605 233.509 157.605 236.774V301.989C157.604 305.255 154.958 307.901 151.693 307.901Z" fill="#FFA8C7"/>
<path d="M55.0185 307.901H151.693C154.958 307.901 157.605 305.254 157.605 301.989V276.806L142.558 271.944C141.924 271.739 141.34 271.406 140.841 270.964L134.276 265.151C132.909 263.94 130.773 264.296 129.873 265.885L128.35 268.572C126.904 271.124 123.198 271.038 121.872 268.421L108.864 254.064C107.045 252.056 103.765 252.565 102.639 255.03L88.8115 285.311C87.7965 287.533 84.6255 287.491 83.6695 285.242L80.2265 277.136C79.8795 276.318 78.8255 276.095 78.1755 276.7C77.2355 277.577 75.7055 277.204 75.2745 275.993L72.0485 266.93C71.0195 264.038 67.1225 263.577 65.4465 266.15L63.6445 268.917C62.0895 271.305 58.7755 271.752 56.6425 269.863L49.1055 263.184V301.988C49.1065 305.255 51.7535 307.901 55.0185 307.901Z" fill="#F0E0C4"/>
<path d="M58.4639 238.068V300.696" stroke="#F4F4F4" stroke-width="0.5" stroke-miterlimit="10"/>
<path d="M61.7891 238.068V300.696" stroke="#F4F4F4" stroke-width="0.5" stroke-miterlimit="10"/>
<path d="M65.1152 238.068V300.696" stroke="#F4F4F4" stroke-width="0.5" stroke-miterlimit="10"/>
<path d="M68.4395 238.068V300.696" stroke="#F4F4F4" stroke-width="0.5" stroke-miterlimit="10"/>
<path d="M71.7646 238.068V300.696" stroke="#F4F4F4" stroke-width="0.5" stroke-miterlimit="10"/>
<path d="M75.0908 238.068V300.696" stroke="#F4F4F4" stroke-width="0.5" stroke-miterlimit="10"/>
<path d="M78.416 238.068V300.696" stroke="#F4F4F4" stroke-width="0.5" stroke-miterlimit="10"/>
<path d="M81.7412 238.068V300.696" stroke="#F4F4F4" stroke-width="0.5" stroke-miterlimit="10"/>
<path d="M85.0664 238.068V300.696" stroke="#F4F4F4" stroke-width="0.5" stroke-miterlimit="10"/>
<path d="M88.3916 238.068V300.696" stroke="#F4F4F4" stroke-width="0.5" stroke-miterlimit="10"/>
<path d="M91.7178 238.068V300.696" stroke="#F4F4F4" stroke-width="0.5" stroke-miterlimit="10"/>
<path d="M95.043 238.068V300.696" stroke="#F4F4F4" stroke-width="0.5" stroke-miterlimit="10"/>
<path d="M98.3682 238.068V300.696" stroke="#F4F4F4" stroke-width="0.5" stroke-miterlimit="10"/>
<path d="M101.694 238.068V300.696" stroke="#F4F4F4" stroke-width="0.5" stroke-miterlimit="10"/>
<path d="M105.019 238.068V300.696" stroke="#F4F4F4" stroke-width="0.5" stroke-miterlimit="10"/>
<path d="M108.344 238.068V300.696" stroke="#F4F4F4" stroke-width="0.5" stroke-miterlimit="10"/>
<path d="M111.67 238.068V300.696" stroke="#F4F4F4" stroke-width="0.5" stroke-miterlimit="10"/>
<path d="M114.995 238.068V300.696" stroke="#F4F4F4" stroke-width="0.5" stroke-miterlimit="10"/>
<path d="M118.32 238.068V300.696" stroke="#F4F4F4" stroke-width="0.5" stroke-miterlimit="10"/>
<path d="M121.646 238.068V300.696" stroke="#F4F4F4" stroke-width="0.5" stroke-miterlimit="10"/>
<path d="M124.971 238.068V300.696" stroke="#F4F4F4" stroke-width="0.5" stroke-miterlimit="10"/>
<path d="M128.296 238.068V300.696" stroke="#F4F4F4" stroke-width="0.5" stroke-miterlimit="10"/>
<path d="M131.622 238.068V300.696" stroke="#F4F4F4" stroke-width="0.5" stroke-miterlimit="10"/>
<path d="M134.947 238.068V300.696" stroke="#F4F4F4" stroke-width="0.5" stroke-miterlimit="10"/>
<path d="M138.271 238.068V300.696" stroke="#F4F4F4" stroke-width="0.5" stroke-miterlimit="10"/>
<path d="M141.598 238.068V300.696" stroke="#F4F4F4" stroke-width="0.5" stroke-miterlimit="10"/>
<path d="M144.923 238.068V300.696" stroke="#F4F4F4" stroke-width="0.5" stroke-miterlimit="10"/>
<path d="M148.249 238.068V300.696" stroke="#F4F4F4" stroke-width="0.5" stroke-miterlimit="10"/>
<path d="M58.4632 276.808C57.8582 276.808 57.3672 276.317 57.3672 275.712V262.322C57.3672 261.717 57.8582 261.226 58.4632 261.226C59.0682 261.226 59.5592 261.717 59.5592 262.322V275.712C59.5592 276.317 59.0692 276.808 58.4632 276.808Z" fill="#182341"/>
<path d="M61.8734 278.158H61.7044C61.1454 278.158 60.6924 277.705 60.6924 277.146V265.9C60.6924 265.341 61.1454 264.888 61.7044 264.888H61.8734C62.4324 264.888 62.8854 265.341 62.8854 265.9V277.146C62.8854 277.705 62.4324 278.158 61.8734 278.158Z" fill="#182341"/>
<path d="M65.1146 275.075C64.5096 275.075 64.0186 274.584 64.0186 273.979V256.831C64.0186 256.226 64.5096 255.735 65.1146 255.735C65.7196 255.735 66.2106 256.226 66.2106 256.831V273.979C66.2106 274.584 65.7196 275.075 65.1146 275.075Z" fill="#182341"/>
<path d="M68.4398 264.889C67.8348 264.889 67.3438 264.398 67.3438 263.793V255.325C67.3438 254.72 67.8348 254.229 68.4398 254.229C69.0458 254.229 69.5358 254.72 69.5358 255.325V263.793C69.5358 264.398 69.0458 264.889 68.4398 264.889Z" fill="#182341"/>
<path d="M71.7649 276.238C71.1599 276.238 70.6689 275.747 70.6689 275.142V263.623C70.6689 263.018 71.1599 262.527 71.7649 262.527C72.3699 262.527 72.8609 263.018 72.8609 263.623V275.142C72.8619 275.747 72.3709 276.238 71.7649 276.238Z" fill="#182341"/>
<path d="M75.0901 284.522C74.4851 284.522 73.9941 284.031 73.9941 283.426V274.133C73.9941 273.528 74.4851 273.037 75.0901 273.037C75.6951 273.037 76.1861 273.528 76.1861 274.133V283.426C76.1861 284.031 75.6951 284.522 75.0901 284.522Z" fill="#182341"/>
<path d="M78.4153 291.694C77.8103 291.694 77.3193 291.203 77.3193 290.598V273.615C77.3193 273.01 77.8103 272.519 78.4153 272.519C79.0203 272.519 79.5113 273.01 79.5113 273.615V290.598C79.5113 291.203 79.0213 291.694 78.4153 291.694Z" fill="#182341"/>
<path d="M81.7405 291.112C81.1355 291.112 80.6445 290.621 80.6445 290.016V276.626C80.6445 276.021 81.1355 275.53 81.7405 275.53C82.3455 275.53 82.8365 276.021 82.8365 276.626V290.016C82.8375 290.621 82.3465 291.112 81.7405 291.112Z" fill="#182341"/>
<path d="M85.2277 296.383H84.9047C84.3887 296.383 83.9697 295.965 83.9697 295.448V285.988C83.9697 285.472 84.3887 285.053 84.9047 285.053H85.2277C85.7437 285.053 86.1627 285.472 86.1627 285.988V295.448C86.1627 295.965 85.7447 296.383 85.2277 296.383Z" fill="#182341"/>
<path d="M88.3919 294.361C87.7869 294.361 87.2959 293.87 87.2959 293.265V279.875C87.2959 279.27 87.7869 278.779 88.3919 278.779C88.9969 278.779 89.4879 279.27 89.4879 279.875V293.265C89.4879 293.87 88.9979 294.361 88.3919 294.361Z" fill="#182341"/>
<path d="M91.7171 284.599C91.1121 284.599 90.6211 284.108 90.6211 283.503V273.615C90.6211 273.01 91.1121 272.519 91.7171 272.519C92.3221 272.519 92.8131 273.01 92.8131 273.615V283.503C92.8131 284.108 92.3221 284.599 91.7171 284.599Z" fill="#182341"/>
<path d="M95.0423 281.656C94.4373 281.656 93.9463 281.165 93.9463 280.56V267.17C93.9463 266.565 94.4373 266.074 95.0423 266.074C95.6473 266.074 96.1383 266.565 96.1383 267.17V280.56C96.1383 281.165 95.6473 281.656 95.0423 281.656Z" fill="#182341"/>
<path d="M98.3675 271.316C97.7615 271.316 97.2715 270.825 97.2715 270.22V252.124C97.2715 251.519 97.7625 251.028 98.3675 251.028C98.9725 251.028 99.4635 251.519 99.4635 252.124V270.22C99.4635 270.825 98.9735 271.316 98.3675 271.316Z" fill="#182341"/>
<path d="M101.694 265.404C101.089 265.404 100.598 264.913 100.598 264.308V250.918C100.598 250.313 101.089 249.822 101.694 249.822C102.299 249.822 102.79 250.313 102.79 250.918V264.308C102.79 264.914 102.299 265.404 101.694 265.404Z" fill="#182341"/>
<path d="M105.019 255.734C104.414 255.734 103.923 255.243 103.923 254.638V248.04C103.923 247.435 104.414 246.944 105.019 246.944C105.624 246.944 106.115 247.435 106.115 248.04V254.638C106.115 255.243 105.624 255.734 105.019 255.734Z" fill="#182341"/>
<path d="M108.343 263.847C107.737 263.847 107.247 263.356 107.247 262.751V249.361C107.247 248.756 107.738 248.265 108.343 248.265C108.948 248.265 109.439 248.756 109.439 249.361V262.751C109.44 263.356 108.949 263.847 108.343 263.847Z" fill="#182341"/>
<path d="M111.669 262.802C111.064 262.802 110.573 262.311 110.573 261.706V251.237C110.573 250.632 111.064 250.141 111.669 250.141C112.274 250.141 112.765 250.632 112.765 251.237V261.706C112.765 262.312 112.274 262.802 111.669 262.802Z" fill="#182341"/>
<path d="M114.994 269.811C114.389 269.811 113.898 269.32 113.898 268.715V255.325C113.898 254.72 114.389 254.229 114.994 254.229C115.599 254.229 116.09 254.72 116.09 255.325V268.715C116.09 269.32 115.599 269.811 114.994 269.811Z" fill="#182341"/>
<path d="M118.32 269.81C117.715 269.81 117.224 269.319 117.224 268.714V260.347C117.224 259.742 117.715 259.251 118.32 259.251C118.925 259.251 119.416 259.742 119.416 260.347V268.714C119.417 269.319 118.926 269.81 118.32 269.81Z" fill="#182341"/>
<path d="M121.646 276.808C121.041 276.808 120.55 276.317 120.55 275.712V262.322C120.55 261.717 121.041 261.226 121.646 261.226C122.251 261.226 122.742 261.717 122.742 262.322V275.712C122.742 276.317 122.251 276.808 121.646 276.808Z" fill="#182341"/>
<path d="M124.97 282.328C124.365 282.328 123.874 281.837 123.874 281.232V264.943C123.874 264.338 124.365 263.847 124.97 263.847C125.575 263.847 126.066 264.338 126.066 264.943V281.232C126.066 281.838 125.575 282.328 124.97 282.328Z" fill="#182341"/>
<path d="M128.295 276.808C127.69 276.808 127.199 276.317 127.199 275.712V262.322C127.199 261.717 127.69 261.226 128.295 261.226C128.9 261.226 129.391 261.717 129.391 262.322V275.712C129.392 276.317 128.901 276.808 128.295 276.808Z" fill="#182341"/>
<path d="M131.621 273.453C131.016 273.453 130.525 272.962 130.525 272.357V258.967C130.525 258.362 131.016 257.871 131.621 257.871C132.226 257.871 132.717 258.362 132.717 258.967V272.357C132.717 272.962 132.226 273.453 131.621 273.453Z" fill="#182341"/>
<path d="M134.947 275.456C134.342 275.456 133.851 274.965 133.851 274.36V260.97C133.851 260.365 134.342 259.874 134.947 259.874C135.552 259.874 136.043 260.365 136.043 260.97V274.36C136.043 274.965 135.553 275.456 134.947 275.456Z" fill="#182341"/>
<path d="M138.272 279.426C137.667 279.426 137.176 278.935 137.176 278.33V264.94C137.176 264.335 137.667 263.844 138.272 263.844C138.877 263.844 139.368 264.335 139.368 264.94V278.33C139.369 278.935 138.878 279.426 138.272 279.426Z" fill="#182341"/>
<path d="M141.598 276.34C140.993 276.34 140.502 275.849 140.502 275.244V261.854C140.502 261.249 140.993 260.758 141.598 260.758C142.204 260.758 142.694 261.249 142.694 261.854V275.244C142.694 275.849 142.203 276.34 141.598 276.34Z" fill="#182341"/>
<path d="M144.922 276.808C144.317 276.808 143.826 276.317 143.826 275.712V262.322C143.826 261.717 144.317 261.226 144.922 261.226C145.527 261.226 146.018 261.717 146.018 262.322V275.712C146.018 276.317 145.528 276.808 144.922 276.808Z" fill="#182341"/>
<path d="M148.248 276.808C147.643 276.808 147.152 276.317 147.152 275.712V262.322C147.152 261.717 147.643 261.226 148.248 261.226C148.853 261.226 149.344 261.717 149.344 262.322V275.712C149.344 276.317 148.853 276.808 148.248 276.808Z" fill="#182341"/>
<path d="M483.578 216.593C483.578 220.206 482.104 223.479 479.724 225.845C477.358 228.225 474.071 229.699 470.472 229.699H394.91C387.698 229.699 381.804 223.805 381.804 216.593C381.804 212.98 383.278 209.707 385.658 207.341C388.024 204.961 391.297 203.487 394.91 203.487H403.298C403.298 198.485 405.338 193.937 408.639 190.65C411.926 187.349 416.474 185.308 421.476 185.308H438.238C448.241 185.308 456.431 193.483 456.431 203.487H470.472C477.684 203.487 483.578 209.381 483.578 216.593Z" fill="#0000FF" fill-opacity="0.5"/>
<path d="M414.993 199.595H378.942C377.471 199.595 376.268 198.392 376.268 196.921V196.386C376.268 194.915 377.471 193.712 378.942 193.712H414.993C416.464 193.712 417.667 194.915 417.667 196.386V196.921C417.667 198.392 416.464 199.595 414.993 199.595Z" fill="#243971"/>
<path d="M399.689 209.915H377.402C376.315 209.915 375.426 209.026 375.426 207.939V207.544C375.426 206.457 376.315 205.568 377.402 205.568H399.689C400.776 205.568 401.665 206.457 401.665 207.544V207.939C401.665 209.026 400.776 209.915 399.689 209.915Z" fill="#EEC12D"/>
<path d="M427.18 239.014H393.912C392.638 239.014 391.596 237.972 391.596 236.698V236.235C391.596 234.961 392.638 233.919 393.912 233.919H427.18C428.454 233.919 429.496 234.961 429.496 236.235V236.698C429.496 237.972 428.454 239.014 427.18 239.014Z" fill="#FFA8C7"/>
<path d="M238.794 309.434C238.838 313.522 237.189 317.236 234.504 319.921C231.853 322.564 228.194 324.212 224.176 324.212H135.488C132.492 324.212 130.062 321.783 130.062 318.787V316.905V316.897C130.062 306.318 137.664 297.424 147.674 295.404C147.66 295.26 147.66 295.115 147.66 294.971C147.66 290.953 149.299 287.293 151.951 284.642C154.601 281.991 158.261 280.351 162.279 280.351H189.87C197.913 280.351 204.491 286.928 204.491 294.971H223.789C231.865 294.974 238.707 301.359 238.794 309.434Z" fill="#0000FF" fill-opacity="0.5"/>
<path d="M237.593 332.203H201.929C200.563 332.203 199.446 331.086 199.446 329.72V329.223C199.446 327.857 200.563 326.74 201.929 326.74H237.593C238.959 326.74 240.076 327.857 240.076 329.223V329.72C240.076 331.085 238.959 332.203 237.593 332.203Z" fill="#243971"/>
<path d="M245.983 310.888H219.876C218.571 310.888 217.503 309.82 217.503 308.515V308.04C217.503 306.735 218.571 305.667 219.876 305.667H245.983C247.288 305.667 248.356 306.735 248.356 308.04V308.515C248.357 309.82 247.289 310.888 245.983 310.888Z" fill="#FFA8C7"/>
<path d="M244.903 317.286H234.016C232.924 317.286 232.031 316.393 232.031 315.301V314.904C232.031 313.812 232.924 312.919 234.016 312.919H244.903C245.995 312.919 246.888 313.812 246.888 314.904V315.301C246.888 316.393 245.995 317.286 244.903 317.286Z" fill="#EEC12D"/>
<path d="M175.059 229.019C175.059 229.019 180.232 230.288 181.599 234.387C182.965 238.486 180.065 250.735 182.38 254.006C186.87 260.35 195.996 263.876 195.996 263.876L211.271 252.053C211.271 252.053 203.951 250.784 201.803 245.806C199.656 240.828 202.681 235.557 201.022 230.482C199.011 224.33 193.946 221.209 193.946 221.209L175.059 229.019Z" fill="#F0E0C4"/>
<path d="M206.404 253.751C206.135 253.608 205.964 253.339 205.948 253.036C205.932 252.733 206.069 252.453 206.316 252.289C206.398 252.234 206.448 252.135 206.442 252.036C206.437 251.937 206.376 251.844 206.288 251.8C205.084 251.168 203.276 250.052 201.951 248.48C201.808 248.31 201.671 248.134 201.539 247.952C201.061 247.292 200.671 246.556 200.445 245.753C199.983 244.121 199.994 242.142 200.148 240.163C200.153 240.075 200.159 239.982 200.17 239.894C200.176 239.8 200.181 239.707 200.192 239.614C200.258 238.839 200.34 238.075 200.423 237.333C200.709 234.733 200.978 232.276 200.44 230.66C199.544 227.978 196.059 224.636 194.597 223.322C194.52 223.25 194.405 223.228 194.3 223.267C193.998 223.388 193.657 223.328 193.409 223.108C193.332 223.037 193.217 223.015 193.112 223.059L180.844 227.907C180.75 227.945 180.679 228.028 180.668 228.132C180.652 228.237 180.695 228.335 180.778 228.401C181.025 228.588 181.146 228.89 181.102 229.198C181.063 229.511 180.86 229.764 180.569 229.88C180.47 229.918 180.404 230.006 180.388 230.105C180.377 230.209 180.415 230.308 180.498 230.374C180.542 230.412 180.591 230.446 180.635 230.49C180.761 230.583 180.877 230.682 180.992 230.787C181.064 230.842 181.135 230.908 181.201 230.968C181.861 231.578 182.339 232.21 182.63 232.848C183.323 234.376 183.652 237.168 183.57 240.202C183.57 240.383 183.565 240.57 183.554 240.752C183.51 241.818 183.417 242.901 183.268 243.962L183.12 244.984C182.587 248.645 182.169 251.536 184.06 253.916C185.126 255.263 188.221 257.384 190.881 259.077C191.062 259.198 191.249 259.308 191.425 259.423C192.777 260.269 193.959 260.978 194.635 261.374C194.679 261.401 194.729 261.412 194.778 261.412C194.838 261.412 194.894 261.396 194.943 261.363C195.218 261.176 195.575 261.16 195.866 261.33C195.96 261.385 196.08 261.385 196.174 261.319L203.199 256.471L204.056 255.877L206.431 254.239C206.513 254.184 206.557 254.091 206.552 253.986C206.547 253.888 206.492 253.8 206.404 253.751ZM202.969 255.933L202.106 256.527L195.988 260.754C195.598 260.589 195.152 260.606 194.779 260.798C194.037 260.358 192.8 259.616 191.432 258.748C191.251 258.638 191.075 258.523 190.888 258.407C188.343 256.774 185.496 254.801 184.506 253.559C182.775 251.377 183.159 248.728 183.687 245.067L183.835 244.045C183.989 242.946 184.088 241.819 184.126 240.714C184.137 240.527 184.148 240.346 184.143 240.164C184.22 237.064 183.868 234.195 183.153 232.612C182.884 232.018 182.477 231.441 181.927 230.88C181.872 230.82 181.812 230.759 181.751 230.704C181.647 230.594 181.531 230.49 181.416 230.391C181.339 230.32 181.257 230.248 181.174 230.182C181.443 229.957 181.625 229.638 181.674 229.275C181.723 228.918 181.641 228.572 181.443 228.286L193.173 223.652C193.514 223.888 193.937 223.965 194.338 223.861C195.828 225.208 199.065 228.357 199.895 230.842C200.395 232.337 200.131 234.734 199.851 237.273C199.769 238.037 199.681 238.829 199.615 239.626C199.604 239.714 199.593 239.807 199.593 239.901C199.582 239.989 199.571 240.082 199.571 240.176C199.417 242.188 199.412 244.21 199.89 245.909C200.099 246.667 200.445 247.36 200.868 247.998C200.989 248.179 201.115 248.355 201.253 248.526C202.539 250.191 204.353 251.395 205.672 252.121C205.463 252.385 205.353 252.715 205.375 253.066C205.391 253.423 205.534 253.753 205.776 253.995L202.969 255.933Z" fill="#7B85EF"/>
<path d="M178.687 229.763L177.511 228.848L178.863 227.97L179.744 228.848L178.687 229.763Z" fill="#7B85EF"/>
<path d="M193.066 222.377L193.867 221.709L194.579 222.377L193.734 222.955L193.066 222.377Z" fill="#7B85EF"/>
<path d="M194.727 262.303L195.312 261.571L196.24 262.108L195.703 262.937L194.727 262.303Z" fill="#7B85EF"/>
<path d="M206.536 252.946L207.707 252.091L208.696 252.852L207.61 253.677L206.536 252.946Z" fill="#7B85EF"/>
<path d="M189.759 243.471C190.055 244.956 190.564 246.515 191.77 247.431C192.497 247.983 193.452 248.247 194.349 248.077C195.246 247.908 196.06 247.287 196.402 246.441C196.754 245.569 196.597 244.586 196.435 243.66C196.223 242.452 196.003 241.22 195.425 240.138C194.846 239.056 193.837 238.13 192.62 237.975C189.199 237.54 189.311 241.224 189.759 243.471Z" fill="#7B85EF"/>
<path d="M476.64 183.331C476.64 183.331 479.41 180.963 482.234 181.841C485.057 182.718 490.705 189.22 493.447 189.24C498.765 189.278 504.368 185.615 504.368 185.615L503.898 172.407C503.898 172.407 500.27 175.968 496.647 175.174C493.024 174.38 491.303 170.594 487.821 169.49C483.6 168.151 479.843 169.72 479.843 169.72L476.64 183.331Z" fill="#F0E0C4"/>
<path d="M502.896 175.789C502.709 175.881 502.491 175.869 502.317 175.757C502.143 175.646 502.042 175.457 502.049 175.254C502.051 175.186 502.016 175.119 501.959 175.083C501.902 175.047 501.826 175.043 501.766 175.074C500.934 175.491 499.592 176.05 498.19 176.158C498.038 176.169 497.886 176.176 497.732 176.176C497.175 176.178 496.61 176.101 496.074 175.906C494.983 175.511 493.888 174.715 492.85 173.839C492.803 173.801 492.754 173.76 492.709 173.719C492.659 173.679 492.61 173.638 492.562 173.595C492.158 173.249 491.766 172.898 491.387 172.556C490.057 171.359 488.799 170.229 487.686 169.883C485.838 169.31 482.59 169.912 481.276 170.2C481.206 170.214 481.147 170.27 481.127 170.343C481.074 170.559 480.904 170.725 480.683 170.774C480.613 170.788 480.554 170.844 480.537 170.919L478.332 179.671C478.316 179.738 478.333 179.811 478.387 179.859C478.439 179.91 478.511 179.925 478.581 179.905C478.784 179.842 479 179.896 479.153 180.043C479.312 180.189 479.371 180.403 479.319 180.611C479.301 180.681 479.323 180.753 479.372 180.802C479.426 180.85 479.496 180.868 479.565 180.848C479.604 180.839 479.642 180.825 479.684 180.818C479.786 180.785 479.887 180.76 479.992 180.738C480.051 180.72 480.116 180.707 480.176 180.694C480.778 180.571 481.321 180.558 481.791 180.65C482.917 180.875 484.6 181.807 486.253 183.064C486.354 183.136 486.456 183.214 486.552 183.293C487.127 183.743 487.691 184.227 488.221 184.733L488.73 185.224C490.551 186.982 491.991 188.368 494.068 188.268C495.242 188.213 497.656 187.341 499.659 186.539C499.799 186.487 499.934 186.427 500.069 186.375C501.079 185.962 501.945 185.588 502.435 185.37C502.468 185.356 502.494 185.333 502.513 185.306C502.537 185.273 502.55 185.235 502.551 185.195C502.557 184.968 502.69 184.763 502.901 184.669C502.969 184.639 503.017 184.572 503.018 184.494L503.129 178.655L503.141 177.942L503.179 175.969C503.181 175.901 503.147 175.84 503.087 175.801C503.029 175.765 502.959 175.76 502.896 175.789ZM502.737 178.569L502.722 179.286L502.628 184.373C502.381 184.524 502.212 184.778 502.17 185.062C501.629 185.299 500.723 185.69 499.694 186.103C499.56 186.16 499.426 186.212 499.287 186.269C497.364 187.031 495.131 187.825 494.045 187.879C492.141 187.97 490.823 186.698 488.999 184.943L488.49 184.452C487.941 183.928 487.354 183.423 486.756 182.96C486.657 182.879 486.56 182.801 486.457 182.731C484.765 181.451 483.03 180.501 481.866 180.266C481.429 180.179 480.946 180.174 480.415 180.256C480.36 180.263 480.302 180.272 480.247 180.283C480.144 180.297 480.04 180.32 479.939 180.344C479.869 180.358 479.796 180.375 479.726 180.395C479.708 180.155 479.604 179.927 479.422 179.755C479.243 179.585 479.018 179.493 478.78 179.488L480.889 171.121C481.156 171.026 481.368 170.822 481.47 170.557C482.813 170.267 485.856 169.726 487.567 170.256C488.597 170.575 489.824 171.678 491.123 172.848C491.515 173.199 491.919 173.564 492.336 173.919C492.381 173.96 492.428 174.004 492.48 174.041C492.524 174.082 492.572 174.126 492.624 174.163C493.68 175.052 494.802 175.862 495.937 176.275C496.442 176.462 496.965 176.546 497.488 176.565C497.637 176.57 497.785 176.57 497.935 176.562C499.374 176.512 500.767 175.985 501.697 175.542C501.76 175.763 501.9 175.956 502.104 176.084C502.309 176.217 502.549 176.27 502.78 176.232L502.737 178.569Z" fill="#7B85EF"/>
<path d="M478.5 181.613L477.523 181.9L477.574 180.799L478.414 180.66L478.5 181.613Z" fill="#7B85EF"/>
<path d="M480.139 170.673L480.088 169.962L480.743 169.832L480.727 170.533L480.139 170.673Z" fill="#7B85EF"/>
<path d="M502.984 185.692L502.812 185.074L503.48 184.773L503.727 185.403L502.984 185.692Z" fill="#7B85EF"/>
<path d="M502.501 175.394L502.493 174.402L503.311 174.157L503.336 175.089L502.501 175.394Z" fill="#7B85EF"/>
<path d="M490.537 180.933C491.48 181.362 492.551 181.701 493.541 181.397C494.138 181.214 494.665 180.788 494.929 180.222C495.193 179.656 495.173 178.956 494.84 178.428C494.496 177.884 493.887 177.579 493.308 177.299C492.552 176.934 491.78 176.564 490.947 176.454C490.115 176.344 489.197 176.535 488.625 177.149C487.019 178.876 489.111 180.284 490.537 180.933Z" fill="#7B85EF"/>
<path d="M51.2181 349.57C51.2181 349.57 50.5792 345.235 53.2782 342.923C55.9772 340.61 66.2081 339.019 67.9811 336.241C71.4211 330.852 71.2752 322.806 71.2752 322.806L57.5292 314.838C57.5292 314.838 58.8342 320.808 55.7082 323.989C52.5822 327.169 47.6282 326.5 44.2772 329.339C40.2152 332.778 39.4102 337.605 39.4102 337.605L51.2181 349.57Z" fill="#F0E0C4"/>
<path d="M60.3332 318.018C60.3082 318.267 60.1552 318.481 59.9302 318.587C59.7052 318.693 59.4492 318.676 59.2462 318.538C59.1792 318.492 59.0882 318.485 59.0142 318.52C58.9402 318.555 58.8882 318.63 58.8822 318.711C58.7742 319.824 58.4852 321.548 57.6992 323.045C57.6132 323.207 57.5222 323.366 57.4252 323.523C57.0712 324.092 56.6312 324.618 56.0892 325.039C54.9892 325.897 53.4782 326.503 51.9232 327C51.8542 327.023 51.7822 327.048 51.7112 327.067C51.6382 327.092 51.5652 327.117 51.4912 327.137C50.8802 327.327 50.2722 327.501 49.6822 327.669C47.6132 328.258 45.6572 328.815 44.5942 329.727C42.8292 331.242 41.3642 334.934 40.8172 336.455C40.7862 336.536 40.8062 336.631 40.8672 336.698C41.0532 336.891 41.1132 337.169 41.0222 337.426C40.9922 337.507 41.0112 337.602 41.0762 337.668L48.5762 345.51C48.6342 345.569 48.7192 345.598 48.8022 345.574C48.8872 345.554 48.9482 345.49 48.9732 345.407C49.0392 345.161 49.2312 344.975 49.4802 344.913C49.7312 344.845 49.9862 344.922 50.1652 345.108C50.2252 345.171 50.3122 345.194 50.3932 345.176C50.4762 345.152 50.5392 345.092 50.5642 345.009C50.5802 344.964 50.5892 344.916 50.6092 344.868C50.6412 344.743 50.6812 344.624 50.7242 344.504C50.7442 344.432 50.7722 344.358 50.7972 344.289C51.0572 343.597 51.3902 343.037 51.7862 342.617C52.7352 341.615 54.7602 340.498 57.0972 339.619C57.2352 339.563 57.3792 339.509 57.5212 339.461C58.3472 339.164 59.2012 338.899 60.0552 338.683L60.8802 338.479C63.8342 337.749 66.1662 337.17 67.3932 334.992C68.0882 333.762 68.7442 330.746 69.2082 328.194C69.2442 328.018 69.2702 327.842 69.3032 327.672C69.5282 326.379 69.7022 325.259 69.7932 324.621C69.8002 324.579 69.7932 324.538 69.7782 324.5C69.7592 324.454 69.7302 324.417 69.6892 324.39C69.4612 324.239 69.3382 323.972 69.3772 323.697C69.3902 323.609 69.3522 323.517 69.2732 323.466L63.4002 319.619L62.6822 319.15L60.6972 317.849C60.6302 317.803 60.5452 317.799 60.4672 317.835C60.3932 317.867 60.3432 317.936 60.3332 318.018ZM63.0612 319.958L63.7812 320.431L68.8992 323.78C68.8942 324.128 69.0452 324.463 69.3082 324.688C69.2032 325.39 69.0222 326.562 68.7852 327.874C68.7582 328.046 68.7242 328.216 68.6942 328.394C68.2402 330.839 67.6202 333.621 66.9812 334.76C65.8562 336.756 63.7182 337.285 60.7662 338.019L59.9412 338.223C59.0562 338.447 58.1672 338.721 57.3132 339.035C57.1672 339.085 57.0262 339.133 56.8892 339.193C54.5042 340.096 52.4272 341.255 51.4432 342.29C51.0742 342.679 50.7612 343.168 50.5042 343.761C50.4752 343.822 50.4482 343.886 50.4252 343.95C50.3742 344.064 50.3302 344.184 50.2902 344.303C50.2592 344.384 50.2312 344.469 50.2062 344.552C49.9512 344.417 49.6522 344.378 49.3602 344.452C49.0732 344.525 48.8342 344.695 48.6782 344.935L41.5082 337.437C41.5822 337.104 41.5102 336.758 41.3062 336.484C41.8702 334.931 43.2652 331.488 44.9002 330.085C45.8842 329.24 47.7912 328.697 49.8132 328.123C50.4212 327.949 51.0512 327.77 51.6782 327.573C51.7482 327.554 51.8232 327.533 51.8942 327.504C51.9642 327.485 52.0392 327.464 52.1102 327.435C53.6902 326.928 55.2332 326.305 56.3782 325.413C56.8912 325.018 57.3112 324.54 57.6662 324.02C57.7672 323.872 57.8612 323.721 57.9492 323.563C58.8192 322.067 59.1732 320.311 59.3162 319.081C59.5822 319.158 59.8672 319.14 60.1282 319.014C60.3952 318.891 60.6022 318.679 60.7112 318.42L63.0612 319.958Z" fill="#7B85EF"/>
<path d="M50.6602 346.576L50.3273 347.755L49.2393 346.998L49.6342 346.054L50.6602 346.576Z" fill="#7B85EF"/>
<path d="M40.5714 337.913L39.8145 337.51L40.1015 336.76L40.8045 337.225L40.5714 337.913Z" fill="#7B85EF"/>
<path d="M70.4714 324.26L69.7324 324.041L69.8534 323.168L70.6524 323.32L70.4714 324.26Z" fill="#7B85EF"/>
<path d="M59.6791 318.166L58.6641 317.54L58.9371 316.55L59.9021 317.122L59.6791 318.166Z" fill="#7B85EF"/>
<path d="M57.666 333.888C58.706 333.202 59.735 332.33 60.059 331.127C60.254 330.402 60.158 329.592 59.751 328.962C59.344 328.331 58.618 327.903 57.868 327.906C57.095 327.908 56.394 328.333 55.739 328.744C54.884 329.28 54.014 329.83 53.369 330.607C52.724 331.383 52.332 332.44 52.592 333.415C53.322 336.154 56.093 334.925 57.666 333.888Z" fill="#7B85EF"/>
<path d="M348.319 229.797C348.319 229.797 347.734 225.481 350.443 223.213C353.153 220.945 363.341 219.48 365.135 216.739C368.616 211.422 368.564 203.422 368.564 203.422L354.991 195.344C354.991 195.344 356.219 201.294 353.076 204.419C349.932 207.545 345.015 206.822 341.651 209.606C337.573 212.98 336.717 217.769 336.717 217.769L348.319 229.797Z" fill="#F0E0C4"/>
<path d="M357.741 198.537C357.713 198.785 357.559 198.995 357.334 199.098C357.109 199.201 356.855 199.181 356.655 199.042C356.589 198.996 356.498 198.988 356.425 199.022C356.351 199.056 356.298 199.13 356.291 199.21C356.171 200.315 355.864 202.025 355.065 203.504C354.978 203.664 354.885 203.821 354.787 203.976C354.428 204.537 353.985 205.055 353.442 205.467C352.338 206.308 350.83 206.892 349.278 207.368C349.209 207.39 349.137 207.414 349.066 207.432C348.993 207.456 348.921 207.48 348.846 207.499C348.237 207.681 347.631 207.847 347.041 208.007C344.977 208.569 343.027 209.1 341.959 209.994C340.187 211.48 338.689 215.132 338.127 216.639C338.096 216.719 338.114 216.813 338.174 216.881C338.357 217.075 338.413 217.352 338.32 217.606C338.289 217.686 338.307 217.78 338.371 217.847L345.736 225.728C345.793 225.788 345.877 225.817 345.96 225.794C346.044 225.775 346.107 225.712 346.132 225.63C346.2 225.386 346.394 225.203 346.641 225.144C346.891 225.079 347.144 225.158 347.319 225.345C347.378 225.409 347.465 225.433 347.545 225.416C347.628 225.393 347.691 225.334 347.717 225.252C347.733 225.207 347.743 225.16 347.764 225.113C347.797 224.989 347.838 224.871 347.883 224.752C347.903 224.681 347.932 224.607 347.959 224.539C348.225 223.854 348.563 223.301 348.961 222.888C349.916 221.903 351.942 220.815 354.275 219.969C354.413 219.915 354.557 219.863 354.698 219.817C355.523 219.531 356.374 219.277 357.226 219.072L358.048 218.879C360.993 218.188 363.318 217.639 364.562 215.487C365.267 214.272 365.954 211.282 366.445 208.75C366.483 208.576 366.51 208.401 366.545 208.232C366.784 206.95 366.969 205.838 367.068 205.205C367.076 205.163 367.069 205.122 367.054 205.085C367.036 205.039 367.007 205.002 366.967 204.974C366.742 204.821 366.623 204.554 366.665 204.281C366.679 204.193 366.643 204.101 366.564 204.05L360.77 200.159L360.061 199.684L358.103 198.368C358.036 198.322 357.952 198.316 357.874 198.352C357.803 198.387 357.752 198.455 357.741 198.537ZM360.431 200.496L361.141 200.975L366.19 204.363C366.181 204.709 366.327 205.043 366.586 205.27C366.474 205.966 366.28 207.13 366.029 208.431C366 208.602 365.965 208.77 365.933 208.947C365.454 211.373 364.806 214.13 364.157 215.255C363.016 217.226 360.885 217.728 357.941 218.423L357.119 218.616C356.236 218.829 355.349 219.091 354.497 219.393C354.351 219.441 354.21 219.487 354.074 219.545C351.692 220.416 349.615 221.543 348.625 222.561C348.254 222.944 347.937 223.426 347.675 224.013C347.646 224.073 347.618 224.137 347.594 224.199C347.542 224.311 347.497 224.431 347.456 224.548C347.425 224.628 347.395 224.712 347.37 224.795C347.118 224.658 346.821 224.615 346.53 224.686C346.243 224.755 346.005 224.922 345.846 225.158L338.805 217.622C338.883 217.292 338.814 216.947 338.615 216.673C339.193 215.136 340.619 211.729 342.261 210.353C343.248 209.524 345.151 209.007 347.167 208.459C347.773 208.293 348.401 208.122 349.028 207.934C349.098 207.916 349.173 207.896 349.244 207.868C349.314 207.85 349.389 207.83 349.46 207.802C351.037 207.316 352.577 206.714 353.726 205.841C354.24 205.455 354.664 204.984 355.022 204.471C355.124 204.325 355.22 204.176 355.308 204.02C356.19 202.542 356.562 200.802 356.719 199.58C356.982 199.66 357.266 199.645 357.527 199.522C357.794 199.402 358.002 199.195 358.114 198.938L360.431 200.496Z" fill="#7B85EF"/>
<path d="M347.798 226.814L347.454 227.983L346.381 227.218L346.785 226.284L347.798 226.814Z" fill="#7B85EF"/>
<path d="M337.868 218.087L337.121 217.678L337.415 216.936L338.108 217.406L337.868 218.087Z" fill="#7B85EF"/>
<path d="M367.747 204.859L367.015 204.633L367.145 203.766L367.937 203.926L367.747 204.859Z" fill="#7B85EF"/>
<path d="M357.089 198.677L356.087 198.042L356.371 197.062L357.323 197.641L357.089 198.677Z" fill="#7B85EF"/>
<path d="M354.907 214.282C355.948 213.612 356.981 212.757 357.317 211.565C357.519 210.847 357.433 210.041 357.036 209.409C356.638 208.777 355.922 208.344 355.176 208.337C354.407 208.33 353.706 208.745 353.05 209.146C352.194 209.669 351.323 210.206 350.673 210.97C350.023 211.734 349.621 212.78 349.868 213.752C350.563 216.485 353.332 215.296 354.907 214.282Z" fill="#7B85EF"/>
<path d="M310.993 32.9932C330.811 38.2582 344.537 47.8392 349.326 61.5582" stroke="#7534FC" stroke-width="3" stroke-miterlimit="10"/>
<path d="M92.4502 77.6635C111.245 67.1615 132.543 57.5515 155.596 49.5055C216.264 28.3315 274.154 23.2075 310.993 32.9935" stroke="#7534FC" stroke-width="3" stroke-miterlimit="10"/>
<path d="M311.749 52.9118C311.623 53.0008 311.489 53.0938 311.346 53.1708C311.179 53.2608 311.012 53.3308 310.829 53.3898L310.377 53.6348L310.289 53.5288C309.162 53.7388 307.846 53.4678 306.419 52.7838C306.321 52.7348 306.222 52.6858 306.132 52.6318C305.295 52.2028 304.425 51.6388 303.527 50.9458C303.452 50.8838 303.37 50.8258 303.295 50.7638C302.591 50.2018 301.871 49.5558 301.146 48.8408C301.071 48.7788 301.005 48.7118 300.934 48.6378C300.304 48.0048 299.664 47.3158 299.03 46.5818C298.971 46.5108 298.913 46.4408 298.842 46.3658C298.267 45.6828 297.695 44.9668 297.129 44.2068C297.066 44.1278 297.007 44.0578 296.956 43.9828C296.424 43.2658 295.899 42.5248 295.386 41.7468C295.335 41.6718 295.284 41.5968 295.229 41.5138C294.745 40.7708 294.267 40.0038 293.793 39.2048C293.742 39.1298 293.699 39.0508 293.652 38.9638C293.315 38.3978 292.989 37.8158 292.667 37.2208C292.555 37.0148 292.439 36.8008 292.335 36.5898L292.202 36.3438C291.78 35.5268 291.382 34.7158 291.004 33.9058C290.961 33.8268 290.926 33.7428 290.891 33.6598C290.504 32.8128 290.142 31.9738 289.816 31.1448C289.781 31.0608 289.746 30.9778 289.711 30.8938C289.367 30.0138 289.053 29.1478 288.779 28.3018C288.744 28.2178 288.717 28.1308 288.69 28.0428C288.398 27.1238 288.138 26.2288 287.924 25.3608C287.897 25.2728 287.878 25.1808 287.851 25.0928C287.621 24.1198 287.433 23.1858 287.299 22.2948C287.288 22.1978 287.277 22.1018 287.257 22.0098C287.113 20.9488 287.036 19.9558 287.038 19.0308C287.035 18.9298 287.039 18.8248 287.044 18.7198C287.056 17.7388 287.16 16.8518 287.36 16.0668C287.388 15.9488 287.425 15.8268 287.461 15.7048C287.849 14.3768 288.531 13.4018 289.515 12.8698C289.705 12.7668 290.242 12.4138 290.454 12.3508L293.787 11.0068L295.275 13.6978C299.392 16.0728 304.286 21.6058 308.19 28.8128C312.167 36.1548 314.132 43.3978 313.779 48.1428L315.334 51.0328L311.749 52.9118Z" fill="#7B85EF"/>
<path d="M293.331 12.8317L287.36 16.0658C287.388 15.9478 287.425 15.8258 287.461 15.7038L293.202 12.5938L293.331 12.8317Z" fill="#F0E0C4"/>
<path d="M294.499 14.989L287.038 19.031C287.035 18.93 287.039 18.8249 287.044 18.7199L294.37 14.752L294.499 14.989Z" fill="#F0E0C4"/>
<path d="M295.925 17.6208L287.298 22.2938C287.287 22.1968 287.276 22.1008 287.256 22.0088L295.796 17.3828L295.925 17.6208Z" fill="#F0E0C4"/>
<path d="M297.352 20.2536L287.924 25.3606C287.897 25.2726 287.878 25.1806 287.851 25.0926L297.223 20.0156L297.352 20.2536Z" fill="#F0E0C4"/>
<path d="M298.777 22.8855L288.778 28.3015C288.743 28.2175 288.716 28.1305 288.689 28.0425L298.648 22.6475L298.777 22.8855Z" fill="#F0E0C4"/>
<path d="M300.203 25.5173L289.816 31.1443C289.781 31.0603 289.746 30.9773 289.711 30.8933L300.074 25.2793L300.203 25.5173Z" fill="#F0E0C4"/>
<path d="M301.63 28.1511L291.005 33.9061C290.962 33.8271 290.927 33.7431 290.892 33.6601L301.501 27.9131L301.63 28.1511Z" fill="#F0E0C4"/>
<path d="M302.926 30.5318L292.206 36.3389L292.339 36.5842L303.059 30.7771L302.926 30.5318Z" fill="#F0E0C4"/>
<path d="M304.481 33.4159L293.793 39.2059C293.742 39.1309 293.699 39.0519 293.652 38.9649L304.348 33.1709L304.481 33.4159Z" fill="#F0E0C4"/>
<path d="M305.908 36.0477L295.386 41.7477C295.335 41.6727 295.284 41.5977 295.229 41.5147L305.775 35.8027L305.908 36.0477Z" fill="#F0E0C4"/>
<path d="M307.332 38.6805L297.127 44.2085C297.064 44.1295 297.005 44.0595 296.954 43.9845L307.198 38.4355L307.332 38.6805Z" fill="#F0E0C4"/>
<path d="M308.758 41.3124L299.029 46.5824C298.97 46.5114 298.912 46.4414 298.841 46.3664L308.625 41.0664L308.758 41.3124Z" fill="#F0E0C4"/>
<path d="M310.185 43.9452L301.146 48.8412C301.071 48.7792 301.005 48.7122 300.934 48.6382L310.052 43.6992L310.185 43.9452Z" fill="#F0E0C4"/>
<path d="M311.606 46.57L303.526 50.947C303.451 50.885 303.369 50.827 303.294 50.765L311.477 46.333L311.606 46.57Z" fill="#F0E0C4"/>
<path d="M313.032 49.2028L306.419 52.7848C306.321 52.7358 306.222 52.6868 306.132 52.6328L312.903 48.9648L313.032 49.2028Z" fill="#F0E0C4"/>
<path d="M314.463 51.6792C310.177 54.0012 301.816 46.8602 295.787 35.7312C289.758 24.6022 288.346 13.6982 292.632 11.3762C296.918 9.0552 305.279 16.1952 311.308 27.3242C317.337 38.4532 318.749 49.3572 314.463 51.6792Z" fill="#F8C05A"/>
<path d="M313.623 50.1259C309.803 52.1949 302.005 45.1928 296.631 35.2728C291.258 25.3528 289.448 14.7788 293.268 12.7098C297.088 10.6408 305.091 17.8598 310.465 27.7798C315.838 37.6998 317.443 48.0569 313.623 50.1259Z" stroke="#F0E0C4" stroke-width="0.3238" stroke-miterlimit="10"/>
<path d="M308.849 39.5392C308.981 39.4482 309.074 39.3522 309.114 39.2402C309.162 39.1292 309.152 38.9862 309.09 38.8192C309.036 38.6532 308.972 38.5022 308.903 38.3812C308.834 38.2602 308.728 38.0792 308.575 37.8352L307.927 36.7932C308.253 36.3532 308.357 35.7622 308.232 35.0182C308.107 34.2742 307.814 33.5452 307.363 32.8162C306.901 32.0612 306.425 31.5022 305.943 31.1382C305.463 30.7672 305.036 30.5612 304.655 30.5282C304.275 30.4872 303.919 30.4972 303.59 30.5342C303.357 30.5622 303.142 30.5782 302.938 30.5712L302.869 30.5612C302.806 30.5592 302.743 30.5582 302.689 30.5502C302.412 30.5092 302.198 30.3582 302.025 30.0882C301.555 29.3322 301.561 28.8132 302.039 28.5142C302.29 28.3622 302.654 28.4562 303.147 28.7982L303.256 28.8622C303.748 29.1562 304.072 29.2522 304.229 29.1572C304.361 29.0662 304.422 28.8712 304.406 28.5532C304.369 28.0112 304.259 27.5852 304.068 27.2812C303.946 27.0972 303.719 26.8742 303.378 26.6262L303.058 26.3972C302.852 26.2482 302.565 26.1112 302.19 25.9842C301.815 25.8572 301.466 25.8212 301.126 25.8802L300.415 24.7342C300.263 24.4832 300.148 24.3082 300.07 24.1942C299.985 24.0792 299.885 23.9542 299.755 23.8242C299.626 23.6872 299.503 23.6132 299.386 23.6042C299.269 23.5942 299.138 23.6302 299.007 23.7132C298.869 23.7952 298.783 23.8922 298.743 24.0052C298.703 24.1172 298.705 24.2592 298.767 24.4262C298.82 24.5992 298.884 24.7512 298.953 24.8712C299.028 25.0002 299.135 25.1822 299.281 25.4172L299.421 25.6432L299.561 25.8692L300.012 26.5982C299.717 27.0422 299.604 27.6402 299.68 28.4002C299.697 28.5522 299.713 28.7042 299.753 28.8602C299.771 28.9502 299.797 29.0402 299.822 29.1382C299.982 29.7062 300.269 30.3162 300.682 30.9772C300.808 31.1852 300.937 31.3782 301.062 31.5462C301.121 31.6262 301.172 31.7042 301.233 31.7762C301.458 32.0622 301.675 32.2992 301.899 32.4902C302.302 32.8502 302.658 33.0532 302.958 33.1052C303.257 33.1582 303.563 33.1722 303.871 33.1632C304.189 33.1472 304.455 33.1082 304.685 33.0402C304.907 32.9792 305.143 32.9822 305.374 33.0722C305.614 33.1552 305.822 33.3442 306.006 33.6392C306.159 33.8822 306.233 34.1222 306.216 34.3402C306.206 34.5672 306.137 34.7142 306.015 34.7912C305.894 34.8602 305.786 34.8992 305.674 34.9132C305.563 34.9202 305.477 34.9152 305.402 34.8882C305.335 34.8622 305.254 34.8262 305.166 34.7822C305.071 34.7362 305.012 34.7042 304.984 34.6842C304.716 34.5812 304.521 34.5672 304.408 34.6372C304.225 34.7522 304.204 35.1032 304.335 35.7062C304.407 36.0162 304.488 36.2652 304.569 36.4582C304.596 36.5412 304.632 36.6172 304.67 36.6782C304.677 36.6872 304.69 36.7052 304.697 36.7062C304.813 36.8812 305.026 37.0392 305.339 37.2122L305.414 37.2392L305.589 37.3362C305.7 37.3842 305.874 37.4342 306.104 37.4762C306.342 37.5192 306.57 37.5222 306.796 37.4852L307.438 38.5182C307.629 38.8222 307.783 39.0582 307.894 39.2092C308.006 39.3592 308.152 39.4842 308.329 39.5652C308.501 39.6532 308.675 39.6472 308.849 39.5392Z" fill="#F0E0C4"/>
<path d="M213.983 143.96C224.452 140.179 305.175 191.928 321.861 218.236C338.548 244.544 375.576 320.832 375.576 320.832L389.678 335.972L398.623 339.557C399.804 340.03 399.767 341.716 398.562 342.123C395.247 343.243 389.632 344.388 383.295 342.504C374.118 339.775 371.326 333.16 371.326 333.16L376.601 347.465L373.681 348.653C373.681 348.653 362.143 333.87 366.265 324.982C366.265 324.982 351.034 304.28 341.037 294.154C331.04 284.028 307.272 260.348 303.279 240.516L171.135 160.527L213.983 143.96Z" fill="#FFA8C7"/>
<path d="M376.601 347.466L371.326 333.161C371.326 333.161 374.118 339.776 383.295 342.505C389.632 344.389 395.247 343.245 398.562 342.125C399.767 341.718 399.804 340.032 398.623 339.559L389.678 335.974L383.295 329.122L379.437 333.755C376.121 331.306 369.236 328.412 365.619 326.974C363.74 335.911 373.681 348.655 373.681 348.655L376.601 347.466Z" fill="#FF3C57"/>
<path d="M352.092 306.733C348.333 302.137 344.391 297.55 341.038 294.154C331.041 284.028 307.273 260.348 303.28 240.516L171.136 160.527L213.984 143.96C224.453 140.179 305.176 191.928 321.862 218.236C332.927 235.681 352.937 275.104 365.164 299.686" fill="#371F2C"/>
<path d="M320.018 215.595C303.038 193.129 223.513 135.137 213.418 138.783L164.32 163.253L303.279 240.517C304.408 246.125 307.119 252.04 310.652 257.869C302.161 243.571 311.582 219.874 320.018 215.595Z" fill="#371F2C"/>
<path d="M251.331 44.5811L253.212 34.4831C253.212 34.4831 252.114 31.8891 251.153 28.1271L245.889 21.0581L247.208 20.6441C248.254 20.3161 249.395 20.6041 250.16 21.3901L254.157 25.4961L258.198 7.87013C258.338 7.26013 258.909 6.84814 259.532 6.90814C260.178 6.97014 260.668 7.51713 260.66 8.16613L260.505 19.3791L267.69 20.7581C269.023 21.0141 269.977 22.1641 270.021 23.5211C270.125 26.7421 269.455 32.4841 263.987 35.7391L264.264 45.1471L251.331 44.5811Z" fill="#FFA8C7"/>
<path d="M255.375 25.2188C255.375 25.2188 261.085 27.3838 260.402 33.9188" stroke="#182341" stroke-width="0.6233" stroke-miterlimit="10"/>
<path d="M260.504 19.3779L259.953 24.7339C259.804 26.1789 260.783 27.4989 262.21 27.7759L269.259 29.1439" stroke="#182341" stroke-width="0.6233" stroke-miterlimit="10"/>
<path d="M263.695 20.499L262.792 27.89" stroke="#182341" stroke-width="0.6233" stroke-miterlimit="10"/>
<path d="M267.014 21.2598L266.11 28.6498" stroke="#182341" stroke-width="0.6233" stroke-miterlimit="10"/>
<path d="M249.244 44.6147L250.183 37.8467L266.234 38.8377L266.502 46.0407L249.244 44.6147Z" fill="#FBFAF1"/>
<path d="M192.001 57.7331C203.078 60.1071 239.029 83.3311 239.029 83.3311L248.706 42.8711L267.746 44.1351C267.746 44.1351 269.089 77.3071 267.607 96.3241C266.125 115.341 247.3 128.407 229.339 115.09C214.159 103.835 189.209 82.6811 189.209 82.6811L192.001 57.7331Z" fill="#7534FC"/>
<path d="M247.205 88.9561L239.029 83.3321L241.76 71.9131C244.112 79.7661 247.205 88.9561 247.205 88.9561Z" fill="#182341"/>
<path d="M216.738 105.337C206.832 97.4431 196.589 88.8911 191.878 84.9321L193.272 67.6221C193.272 67.6221 210.495 96.7521 216.738 105.337Z" fill="#182341"/>
<path d="M156.232 27.695C166.085 23.511 171.151 26.219 173.416 30.21C176.273 35.245 172.574 37.919 174.444 41.763C176.314 45.607 182.556 46.684 184.172 53.268C185.788 59.852 183.645 64.003 183.645 64.003L137.662 90.979C137.662 90.979 131.259 82.868 132.252 74.872C133.245 66.875 142.478 62.775 140.584 51.367C138.407 38.262 142.266 26.876 156.232 27.695Z" fill="#182341"/>
<path d="M167.953 64.1927C167.953 64.1927 186.105 55.9177 193.102 57.9227C198.15 59.3697 198.892 62.3327 204.075 78.5217C209.013 93.9487 203.74 114.987 205.667 124.51C207.977 135.928 219.213 139.73 219.213 139.73L155.398 169.413L160.349 133.916L134.12 84.2767C134.12 84.2767 134.468 77.5587 167.953 64.1927Z" fill="#7534FC"/>
<path d="M158.989 143.667L219.212 139.731L156.159 169.06L158.989 143.667Z" fill="#371F2C"/>
<path d="M154.526 99.6201L160.348 133.917L149.217 112.85L154.526 99.6201Z" fill="#182341"/>
<path d="M157.975 61.6571C157.975 61.6571 152.149 69.4631 150.321 74.7811C148.494 80.0991 165.63 78.3741 165.63 78.3741C165.63 78.3741 161.952 82.7551 168.002 83.5551C174.052 84.3551 181.255 80.51 185.071 83.354C185.071 83.354 185.419 78.0961 185.923 75.3491C186.652 71.3711 183.702 69.2251 180.885 70.0771C182.607 65.2441 182.031 60.6621 179.343 59.7071C176.654 58.7521 166.136 60.1071 166.136 60.1071L157.975 61.6571Z" fill="white"/>
<path d="M195.875 73.0498L204.651 87.6248" stroke="#182341" stroke-width="0.5866" stroke-miterlimit="10"/>
<path d="M183.081 80.4395L187.228 87.3074C189.259 90.6714 190.449 94.4755 190.698 98.3975L194.072 151.704" stroke="#182341" stroke-width="0.5866" stroke-miterlimit="10"/>
<path d="M157.644 36.2422C157.644 36.2422 158.293 42.3822 154.939 46.8332C154.939 46.8332 152.784 44.8322 150.924 46.3402C149.064 47.8482 150.703 53.4552 155.348 51.9842L157.321 69.0622C157.321 69.0622 172.839 73.0322 180.382 77.8862C180.382 77.8862 175.655 66.1322 170.765 62.6142L168.908 55.3762C168.908 55.3762 171.62 54.0982 172.073 51.2672C172.526 48.4362 169.878 45.2402 169.52 42.7082C169.162 40.1762 168.794 37.9392 168.794 37.9392C168.794 37.9392 162.872 40.7232 157.644 36.2422Z" fill="#FFA8C7"/>
<path d="M168.907 55.3764C165.237 57.3484 160.481 56.6294 158.91 55.1084C160.878 58.6894 164.958 60.6074 169.804 58.8724L168.907 55.3764Z" fill="#182341"/>
<path d="M187.097 203.477C221.513 208.507 268.18 190.065 269.939 189.557L273.321 188.581C273.321 188.581 272.602 207.546 279.363 230.972C286.125 254.398 289.257 277.988 286.326 288.544C283.849 297.466 286.2 305.61 291.244 317.144L293.28 316.556L290.267 302.721C290.267 302.721 294.737 309.764 300.443 312.528C306.15 315.292 315.595 315.752 316.013 314.651C316.43 313.55 307.288 305.65 307.288 305.65L297.922 286.786C297.922 286.786 301.398 232.6 302.605 212.154C303.811 191.709 303.797 171.654 303.896 163.687C304.034 152.545 294.53 141.358 281.735 145.051L180.32 154.393C177.744 155.137 141.043 196.746 187.097 203.477Z" fill="#FFA8C7"/>
<path d="M273.321 188.581C273.757 177.146 278.787 165.901 278.787 165.901" stroke="#182341" stroke-width="0.5866" stroke-miterlimit="10"/>
<path d="M303.138 297.292L297.079 300.474C293.649 298.749 288.357 292.023 286.202 289.048C283.95 297.774 286.294 305.829 291.244 317.144L293.28 316.556L290.267 302.721C290.267 302.721 294.737 309.764 300.443 312.528C306.149 315.292 315.596 315.752 316.013 314.651C316.43 313.55 307.288 305.65 307.288 305.65L303.138 297.292Z" fill="#FF3C57"/>
<path d="M298.837 272.48C299.954 254.958 301.794 225.915 302.605 212.156C303.811 191.711 303.797 171.656 303.896 163.689C304.034 152.547 294.53 141.36 281.735 145.053L180.32 154.395C177.745 155.138 141.043 196.748 187.097 203.478C221.513 208.508 268.18 190.066 269.939 189.558L273.321 188.582C273.321 188.582 272.602 207.547 279.363 230.973C283.589 245.614 286.397 260.319 287.194 271.867" fill="#371F2C"/>
<path d="M182.024 166.337L189.596 162.534C189.596 162.534 202.188 162.922 204.852 157.107C204.852 157.107 205.166 154.633 203.628 154.115C205.033 151.522 203.049 150.522 203.049 150.522C203.049 150.522 203.525 147.314 201.672 147.037C202.594 144.966 201.47 143.037 200.124 142.829C198.831 142.629 197.712 148.105 191.742 148.896C191.742 148.896 191.195 145.939 193.293 143.756C193.818 143.21 193.743 142.282 193.197 141.758L192.441 141.031C192.441 141.031 186.673 145.138 186.494 150.579C186.464 151.481 186.019 152.317 185.236 152.765L177.909 156.956L182.024 166.337Z" fill="#7534FC"/>
<path d="M134.119 84.2773C128.38 101.004 93.1081 197.053 132.336 193.528C153.124 191.66 188.743 169.665 188.743 169.665L183.359 150.269L147.703 161.569L154.526 99.6203C154.526 99.6203 145.586 84.4923 134.119 84.2773Z" fill="#7534FC"/>
<path d="M147.702 161.57L131.915 166.832C131.915 166.832 137.961 157.214 147.702 161.57Z" fill="#7534FC"/>
<path d="M349.326 61.5586C361.303 95.8776 313.386 144.722 238.712 178.213" stroke="#7534FC" stroke-width="3" stroke-miterlimit="10"/>
<path d="M109.16 64.8471C109.254 64.9081 109.353 64.9721 109.443 65.0471C109.549 65.1341 109.641 65.2271 109.73 65.3351L110.016 65.5721L109.969 65.6601C110.415 66.3591 110.589 67.3151 110.517 68.4571C110.511 68.5361 110.504 68.6161 110.493 68.6911C110.432 69.3681 110.289 70.1041 110.068 70.8941C110.047 70.9611 110.03 71.0321 110.009 71.0991C109.823 71.7231 109.584 72.3811 109.301 73.0601C109.28 73.1271 109.253 73.1901 109.222 73.2571C108.968 73.8511 108.679 74.4671 108.359 75.0901C108.327 75.1491 108.296 75.2071 108.265 75.2751C107.963 75.8461 107.637 76.4231 107.281 77.0081C107.245 77.0711 107.214 77.1301 107.177 77.1841C106.84 77.7351 106.485 78.2871 106.102 78.8421C106.065 78.8961 106.029 78.9511 105.988 79.0101C105.621 79.5361 105.236 80.0631 104.828 80.5981C104.792 80.6531 104.75 80.7031 104.704 80.7581C104.416 81.1371 104.113 81.5141 103.802 81.8901C103.694 82.0211 103.582 82.1561 103.469 82.2831L103.34 82.4391C102.906 82.9431 102.471 83.4291 102.029 83.9021C101.987 83.9521 101.941 83.9981 101.894 84.0441C101.431 84.5331 100.966 85.0031 100.499 85.4461C100.452 85.4921 100.406 85.5381 100.359 85.5841C99.8619 86.0531 99.3669 86.4981 98.8729 86.9111C98.8259 86.9571 98.7749 86.9991 98.7229 87.0411C98.1859 87.4861 97.6559 87.9021 97.1319 88.2811C97.0799 88.3231 97.0239 88.3611 96.9719 88.4031C96.3819 88.8201 95.8059 89.1991 95.2449 89.5301C95.1829 89.5641 95.1219 89.5971 95.0649 89.6351C94.3929 90.0181 93.7469 90.3391 93.1269 90.5881C93.0599 90.6181 92.9879 90.6431 92.9169 90.6681C92.2559 90.9251 91.6329 91.0961 91.0519 91.1741C90.9649 91.1871 90.8739 91.1961 90.7819 91.2041C89.7859 91.3031 88.9479 91.1091 88.3249 90.5941C88.2039 90.4941 87.8229 90.2291 87.7229 90.1051L85.9199 88.2341L87.3219 86.5081C87.7999 83.1051 90.1859 78.3251 93.9619 73.7571C97.8089 69.1031 102.134 65.8251 105.411 64.7781L106.928 62.9531L109.16 64.8471Z" fill="#7B85EF"/>
<path d="M87.2695 88.0459L91.0545 91.1739C90.9675 91.1869 90.8765 91.1959 90.7845 91.2039L87.1455 88.1959L87.2695 88.0459Z" fill="#F0E0C4"/>
<path d="M88.3994 86.6777L93.1284 90.5867C93.0614 90.6167 92.9894 90.6417 92.9184 90.6667L88.2744 86.8277L88.3994 86.6777Z" fill="#F0E0C4"/>
<path d="M89.7783 85.0098L95.2463 89.5298C95.1843 89.5638 95.1233 89.5968 95.0663 89.6348L89.6533 85.1608L89.7783 85.0098Z" fill="#F0E0C4"/>
<path d="M91.1582 83.3408L97.1342 88.2808C97.0822 88.3228 97.0262 88.3608 96.9742 88.4028L91.0332 83.4918L91.1582 83.3408Z" fill="#F0E0C4"/>
<path d="M92.5371 81.6729L98.8751 86.9119C98.8281 86.9579 98.7771 86.9999 98.7251 87.0419L92.4121 81.8239L92.5371 81.6729Z" fill="#F0E0C4"/>
<path d="M93.917 80.0039L100.501 85.4459C100.454 85.4919 100.408 85.5379 100.361 85.5839L93.792 80.1539L93.917 80.0039Z" fill="#F0E0C4"/>
<path d="M95.2969 78.335L102.032 83.902C101.99 83.952 101.944 83.998 101.897 84.044L95.1719 78.485L95.2969 78.335Z" fill="#F0E0C4"/>
<path d="M96.6775 76.6588L96.5488 76.8145L103.344 82.4311L103.473 82.2754L96.6775 76.6588Z" fill="#F0E0C4"/>
<path d="M98.0548 74.998L104.83 80.598C104.794 80.653 104.752 80.703 104.706 80.758L97.9258 75.154L98.0548 74.998Z" fill="#F0E0C4"/>
<path d="M99.4337 73.3291L106.104 78.8421C106.067 78.8961 106.031 78.9511 105.99 79.0101L99.3047 73.4851L99.4337 73.3291Z" fill="#F0E0C4"/>
<path d="M100.814 71.6611L107.283 77.0081C107.247 77.0711 107.216 77.1301 107.179 77.1841L100.685 71.8161L100.814 71.6611Z" fill="#F0E0C4"/>
<path d="M102.192 69.9922L108.359 75.0892C108.327 75.1482 108.296 75.2062 108.265 75.2742L102.063 70.1482L102.192 69.9922Z" fill="#F0E0C4"/>
<path d="M103.571 68.3232L109.301 73.0592C109.28 73.1262 109.253 73.1892 109.222 73.2562L103.442 68.4782L103.571 68.3232Z" fill="#F0E0C4"/>
<path d="M104.946 66.6602L110.067 70.8932C110.046 70.9602 110.029 71.0312 110.008 71.0982L104.821 66.8102L104.946 66.6602Z" fill="#F0E0C4"/>
<path d="M106.326 64.9912L110.518 68.4562C110.512 68.5352 110.505 68.6152 110.494 68.6902L106.202 65.1422L106.326 64.9912Z" fill="#F0E0C4"/>
<path d="M107.599 63.3615C110.316 65.6075 107.791 73.1465 101.96 80.2005C96.1292 87.2555 89.1992 91.1535 86.4832 88.9075C83.7662 86.6615 86.2912 79.1225 92.1222 72.0685C97.9522 65.0145 104.882 61.1165 107.599 63.3615Z" fill="#F8C05A"/>
<path d="M106.785 64.345C109.206 66.347 106.622 73.471 101.424 79.759C96.227 86.047 89.626 90.122 87.204 88.121C84.782 86.12 87.457 78.799 92.655 72.511C97.853 66.223 104.364 62.343 106.785 64.345Z" stroke="#F0E0C4" stroke-width="0.2341" stroke-miterlimit="10"/>
<path d="M100.978 70.4126C100.882 70.3486 100.792 70.3126 100.706 70.3156C100.618 70.3136 100.525 70.3586 100.43 70.4456C100.334 70.5266 100.249 70.6106 100.187 70.6896C100.125 70.7686 100.032 70.8886 99.9103 71.0576L99.3873 71.7746C99.0043 71.6756 98.5793 71.7656 98.1143 72.0506C97.6493 72.3356 97.2393 72.7296 96.8723 73.2296C96.4913 73.7436 96.2443 74.2146 96.1313 74.6356C96.0123 75.0586 95.9903 75.3996 96.0703 75.6646C96.1453 75.9306 96.2483 76.1666 96.3623 76.3766C96.4443 76.5246 96.5123 76.6646 96.5633 76.8036L96.5753 76.8526C96.5913 76.8946 96.6073 76.9376 96.6163 76.9756C96.6633 77.1726 96.6213 77.3566 96.4863 77.5456C96.1063 78.0656 95.7563 78.2016 95.4273 77.9616C95.2573 77.8346 95.2223 77.5646 95.3173 77.1416L95.3303 77.0516C95.3943 76.6416 95.3703 76.3986 95.2653 76.3196C95.1683 76.2556 95.0213 76.2686 94.8123 76.3646C94.4593 76.5366 94.2033 76.7256 94.0513 76.9356C93.9613 77.0676 93.8733 77.2796 93.7993 77.5756L93.7323 77.8526C93.6883 78.0316 93.6732 78.2606 93.6902 78.5466C93.7062 78.8326 93.7763 79.0766 93.9083 79.2886L93.3323 80.0756C93.2053 80.2456 93.1193 80.3706 93.0633 80.4526C93.0093 80.5406 92.9523 80.6416 92.9003 80.7636C92.8433 80.8876 92.8273 80.9896 92.8523 81.0706C92.8773 81.1516 92.9373 81.2296 93.0283 81.2956C93.1203 81.3656 93.2093 81.3966 93.2953 81.3936C93.3813 81.3906 93.4763 81.3506 93.5713 81.2636C93.6733 81.1816 93.7573 81.0976 93.8193 81.0186C93.8853 80.9326 93.9783 80.8126 94.0963 80.6506L94.2103 80.4956L94.3243 80.3406L94.6913 79.8416C95.0693 79.9186 95.5003 79.8336 95.9893 79.5766C96.0873 79.5246 96.1843 79.4716 96.2783 79.4026C96.3333 79.3666 96.3873 79.3246 96.4463 79.2816C96.7833 79.0206 97.1153 78.6636 97.4463 78.2076C97.5513 78.0666 97.6463 77.9276 97.7253 77.7986C97.7633 77.7376 97.8013 77.6816 97.8333 77.6216C97.9643 77.3936 98.0643 77.1836 98.1323 76.9816C98.2643 76.6136 98.3043 76.3206 98.2583 76.1056C98.2123 75.8906 98.1393 75.6816 98.0493 75.4776C97.9533 75.2686 97.8542 75.1016 97.7462 74.9646C97.6452 74.8326 97.5833 74.6736 97.5813 74.4936C97.5723 74.3106 97.6423 74.1196 97.7903 73.9166C97.9123 73.7486 98.0523 73.6336 98.2033 73.5856C98.3583 73.5306 98.4763 73.5376 98.5603 73.5986C98.6393 73.6606 98.6943 73.7226 98.7343 73.7946C98.7693 73.8676 98.7893 73.9266 98.7913 73.9836C98.7923 74.0356 98.7903 74.0996 98.7843 74.1706C98.7793 74.2466 98.7733 74.2946 98.7683 74.3196C98.7713 74.5276 98.8153 74.6616 98.8933 74.7186C99.0193 74.8096 99.2613 74.7286 99.6293 74.4786C99.8183 74.3466 99.9623 74.2246 100.07 74.1176C100.118 74.0776 100.16 74.0326 100.19 73.9906C100.194 73.9836 100.202 73.9706 100.201 73.9646C100.287 73.8396 100.335 73.6546 100.366 73.3976L100.364 73.3406L100.382 73.1976C100.384 73.1106 100.37 72.9806 100.336 72.8146C100.301 72.6436 100.241 72.4896 100.155 72.3486L100.674 71.6386C100.826 71.4286 100.943 71.2616 101.014 71.1456C101.085 71.0296 101.128 70.8976 101.135 70.7576C101.148 70.6156 101.097 70.4996 100.978 70.4126Z" fill="#F0E0C4"/>
<path d="M280.359 143.342C280.571 143.479 280.794 143.625 280.999 143.794C281.238 143.991 281.446 144.202 281.647 144.444L282.295 144.979L282.188 145.178C283.197 146.757 283.59 148.919 283.427 151.499C283.413 151.678 283.398 151.858 283.372 152.028C283.235 153.559 282.911 155.223 282.411 157.009C282.362 157.16 282.325 157.321 282.277 157.472C281.856 158.883 281.317 160.369 280.677 161.906C280.629 162.057 280.569 162.199 280.499 162.352C279.925 163.694 279.272 165.086 278.547 166.495C278.476 166.627 278.404 166.76 278.335 166.913C277.651 168.203 276.917 169.508 276.111 170.831C276.03 170.975 275.959 171.107 275.877 171.23C275.116 172.475 274.313 173.724 273.448 174.978C273.365 175.101 273.283 175.224 273.191 175.358C272.361 176.547 271.49 177.739 270.569 178.947C270.486 179.07 270.393 179.184 270.289 179.309C269.638 180.167 268.954 181.017 268.25 181.869C268.006 182.164 267.752 182.471 267.497 182.757L267.206 183.109C266.226 184.249 265.241 185.348 264.243 186.416C264.149 186.53 264.044 186.634 263.939 186.738C262.892 187.842 261.841 188.905 260.785 189.906C260.68 190.01 260.574 190.114 260.469 190.219C259.345 191.278 258.226 192.285 257.11 193.218C257.005 193.322 256.888 193.417 256.771 193.512C255.558 194.517 254.359 195.458 253.174 196.314C253.057 196.409 252.929 196.494 252.813 196.589C251.479 197.532 250.178 198.388 248.909 199.137C248.77 199.213 248.63 199.289 248.502 199.375C246.982 200.242 245.523 200.966 244.121 201.529C243.97 201.596 243.808 201.653 243.646 201.71C242.152 202.292 240.743 202.677 239.43 202.854C239.234 202.883 239.026 202.903 238.819 202.923C236.568 203.147 234.674 202.709 233.265 201.545C232.992 201.32 232.129 200.721 231.903 200.439L227.827 196.209L230.995 192.307C232.076 184.614 237.468 173.81 246.004 163.483C254.7 152.963 264.477 145.554 271.885 143.185L275.315 139.059L280.359 143.342Z" fill="#7B85EF"/>
<path d="M230.875 195.782L239.43 202.854C239.234 202.883 239.026 202.903 238.819 202.923L230.594 196.124L230.875 195.782Z" fill="#F0E0C4"/>
<path d="M233.428 192.692L244.12 201.529C243.969 201.596 243.807 201.653 243.645 201.71L233.146 193.033L233.428 192.692Z" fill="#F0E0C4"/>
<path d="M236.547 188.92L248.908 199.137C248.769 199.213 248.629 199.289 248.501 199.375L236.265 189.261L236.547 188.92Z" fill="#F0E0C4"/>
<path d="M239.665 185.148L253.173 196.314C253.056 196.409 252.928 196.494 252.812 196.589L239.383 185.489L239.665 185.148Z" fill="#F0E0C4"/>
<path d="M242.783 181.376L257.109 193.218C257.004 193.322 256.887 193.417 256.77 193.512L242.5 181.717L242.783 181.376Z" fill="#F0E0C4"/>
<path d="M245.901 177.604L260.784 189.906C260.679 190.01 260.573 190.114 260.468 190.219L245.619 177.945L245.901 177.604Z" fill="#F0E0C4"/>
<path d="M249.018 173.832L264.242 186.416C264.148 186.53 264.043 186.634 263.938 186.738L248.737 174.173L249.018 173.832Z" fill="#F0E0C4"/>
<path d="M252.139 170.045L251.848 170.397L267.208 183.094L267.499 182.741L252.139 170.045Z" fill="#F0E0C4"/>
<path d="M255.254 166.288L270.569 178.947C270.486 179.07 270.393 179.184 270.289 179.309L254.963 166.64L255.254 166.288Z" fill="#F0E0C4"/>
<path d="M258.372 162.516L273.448 174.978C273.365 175.101 273.283 175.224 273.191 175.358L258.081 162.868L258.372 162.516Z" fill="#F0E0C4"/>
<path d="M261.49 158.744L276.112 170.83C276.031 170.974 275.96 171.106 275.878 171.229L261.199 159.096L261.49 158.744Z" fill="#F0E0C4"/>
<path d="M264.607 154.973L278.547 166.496C278.476 166.628 278.404 166.761 278.335 166.914L264.315 155.326L264.607 154.973Z" fill="#F0E0C4"/>
<path d="M267.725 151.2L280.677 161.906C280.629 162.057 280.569 162.199 280.499 162.352L267.434 151.552L267.725 151.2Z" fill="#F0E0C4"/>
<path d="M270.834 147.44L282.411 157.009C282.362 157.16 282.325 157.321 282.277 157.472L270.552 147.78L270.834 147.44Z" fill="#F0E0C4"/>
<path d="M273.952 143.668L283.427 151.5C283.413 151.679 283.398 151.859 283.372 152.029L273.67 144.009L273.952 143.668Z" fill="#F0E0C4"/>
<path d="M276.828 139.984C282.969 145.06 277.262 162.102 264.081 178.049C250.9 193.996 235.236 202.808 229.095 197.732C222.954 192.656 228.661 175.613 241.842 159.667C255.023 143.72 270.687 134.907 276.828 139.984Z" fill="#F8C05A"/>
<path d="M274.99 142.206C280.463 146.731 274.621 162.835 262.872 177.048C251.124 191.261 236.202 200.474 230.729 195.949C225.255 191.425 231.302 174.877 243.051 160.663C254.799 146.451 269.516 137.682 274.99 142.206Z" stroke="#F0E0C4" stroke-width="0.5292" stroke-miterlimit="10"/>
<path d="M261.862 155.921C261.644 155.777 261.441 155.694 261.246 155.702C261.048 155.697 260.837 155.8 260.622 155.996C260.404 156.179 260.214 156.369 260.073 156.547C259.932 156.725 259.723 156.998 259.447 157.378L258.263 158.998C257.397 158.773 256.437 158.977 255.386 159.622C254.335 160.267 253.409 161.157 252.58 162.286C251.719 163.449 251.162 164.513 250.905 165.465C250.636 166.42 250.586 167.192 250.768 167.79C250.938 168.391 251.171 168.925 251.429 169.4C251.614 169.736 251.769 170.052 251.883 170.365L251.91 170.477C251.946 170.573 251.982 170.669 252.003 170.756C252.11 171.202 252.013 171.618 251.709 172.045C250.851 173.22 250.06 173.528 249.315 172.986C248.932 172.698 248.851 172.088 249.067 171.133L249.097 170.929C249.242 170.003 249.188 169.453 248.949 169.275C248.731 169.131 248.397 169.158 247.925 169.376C247.127 169.764 246.548 170.191 246.204 170.666C246 170.964 245.801 171.444 245.634 172.113L245.483 172.739C245.383 173.143 245.35 173.662 245.388 174.308C245.425 174.954 245.583 175.506 245.882 175.984L244.579 177.764C244.291 178.147 244.097 178.43 243.971 178.617C243.849 178.817 243.72 179.044 243.603 179.321C243.474 179.601 243.438 179.832 243.494 180.015C243.551 180.198 243.685 180.375 243.891 180.523C244.1 180.683 244.3 180.752 244.495 180.745C244.69 180.738 244.904 180.647 245.119 180.451C245.349 180.265 245.54 180.075 245.681 179.897C245.831 179.704 246.041 179.431 246.307 179.066L246.564 178.716L246.821 178.366L247.651 177.237C248.505 177.412 249.48 177.218 250.586 176.638C250.807 176.52 251.027 176.401 251.239 176.246C251.363 176.164 251.485 176.069 251.619 175.972C252.382 175.383 253.131 174.574 253.879 173.543C254.117 173.224 254.33 172.911 254.509 172.619C254.594 172.481 254.682 172.355 254.754 172.22C255.049 171.704 255.276 171.23 255.429 170.774C255.727 169.943 255.817 169.279 255.714 168.793C255.61 168.307 255.445 167.836 255.243 167.373C255.025 166.901 254.803 166.522 254.559 166.214C254.33 165.915 254.192 165.556 254.186 165.151C254.165 164.737 254.324 164.306 254.659 163.846C254.934 163.466 255.252 163.206 255.593 163.098C255.943 162.975 256.209 162.99 256.399 163.127C256.577 163.268 256.702 163.408 256.793 163.569C256.872 163.734 256.917 163.867 256.922 163.997C256.924 164.114 256.919 164.259 256.906 164.42C256.895 164.593 256.882 164.701 256.869 164.756C256.877 165.226 256.976 165.529 257.151 165.658C257.436 165.865 257.982 165.681 258.815 165.115C259.241 164.816 259.568 164.541 259.811 164.3C259.92 164.208 260.014 164.107 260.083 164.012C260.092 163.997 260.111 163.966 260.108 163.953C260.302 163.671 260.411 163.251 260.482 162.671L260.477 162.541L260.517 162.217C260.522 162.019 260.491 161.725 260.414 161.351C260.334 160.964 260.199 160.617 260.004 160.296L261.178 158.691C261.523 158.215 261.786 157.838 261.946 157.577C262.106 157.316 262.205 157.017 262.22 156.699C262.247 156.379 262.132 156.119 261.862 155.921Z" fill="#F0E0C4"/>
<path d="M238.711 178.213C228.043 182.997 216.829 187.468 205.166 191.539C133.141 216.677 65.0301 219.194 31.4121 200.993" stroke="#7534FC" stroke-width="3" stroke-miterlimit="10"/>
<path d="M37.8217 158.398C38.0557 158.351 38.3027 158.302 38.5527 158.281C38.8447 158.257 39.1237 158.262 39.4197 158.294L40.2107 158.229L40.2697 158.434C41.9937 158.837 43.6857 160.041 45.2767 161.895C45.3847 162.026 45.4937 162.157 45.5887 162.288C46.5057 163.414 47.3837 164.754 48.2227 166.292C48.2897 166.426 48.3707 166.558 48.4377 166.693C49.0837 167.925 49.6987 169.286 50.2797 170.747C50.3467 170.881 50.3997 171.018 50.4537 171.167C50.9507 172.454 51.4267 173.826 51.8657 175.257C51.9047 175.392 51.9437 175.529 51.9977 175.678C52.3857 177.002 52.7497 178.37 53.0767 179.796C53.1167 179.947 53.1557 180.083 53.1817 180.221C53.4877 181.565 53.7677 182.94 54.0107 184.359C54.0357 184.497 54.0607 184.633 54.0877 184.785C54.3107 186.136 54.5077 187.518 54.6807 188.943C54.7057 189.081 54.7177 189.218 54.7297 189.371C54.8547 190.381 54.9527 191.407 55.0387 192.448C55.0687 192.809 55.0987 193.185 55.1147 193.547L55.1497 193.977C55.2387 195.395 55.2967 196.787 55.3267 198.168C55.3377 198.307 55.3357 198.447 55.3337 198.586C55.3537 200.024 55.3437 201.436 55.2897 202.81C55.2867 202.95 55.2847 203.089 55.2827 203.229C55.2207 204.687 55.1277 206.107 54.9887 207.474C54.9857 207.614 54.9697 207.755 54.9537 207.896C54.7957 209.376 54.6057 210.803 54.3677 212.164C54.3517 212.305 54.3207 212.446 54.3047 212.587C54.0237 214.105 53.7087 215.543 53.3447 216.887C53.3007 217.03 53.2567 217.173 53.2267 217.315C52.7707 218.903 52.2607 220.357 51.6827 221.661C51.6247 221.806 51.5527 221.952 51.4807 222.098C50.8537 223.477 50.1547 224.665 49.3827 225.651C49.2697 225.8 49.1417 225.951 49.0147 226.102C47.6397 227.738 46.0697 228.69 44.3487 228.832C44.0157 228.86 43.0367 229.025 42.6987 228.983L37.1507 228.81L36.7207 224.081C32.3777 218.164 28.9007 207.298 27.8647 194.682C26.8087 181.83 28.5367 170.37 31.9857 163.882L31.5847 158.829L37.8217 158.398Z" fill="#7B85EF"/>
<path d="M38.9307 226.508L49.3817 225.65C49.2687 225.799 49.1407 225.949 49.0137 226.1L38.9647 226.925L38.9307 226.508Z" fill="#F0E0C4"/>
<path d="M38.6211 222.733L51.6811 221.66C51.6231 221.805 51.5511 221.95 51.4791 222.096L38.6541 223.149L38.6211 222.733Z" fill="#F0E0C4"/>
<path d="M38.2432 218.126L53.3442 216.886C53.3002 217.029 53.2562 217.173 53.2262 217.315L38.2782 218.543L38.2432 218.126Z" fill="#F0E0C4"/>
<path d="M37.8643 213.517L54.3673 212.162C54.3513 212.303 54.3203 212.445 54.3043 212.586L37.8993 213.934L37.8643 213.517Z" fill="#F0E0C4"/>
<path d="M37.4863 208.91L54.9883 207.472C54.9853 207.612 54.9693 207.753 54.9533 207.894L37.5203 209.326L37.4863 208.91Z" fill="#F0E0C4"/>
<path d="M37.1084 204.302L55.2904 202.809C55.2874 202.949 55.2854 203.089 55.2834 203.229L37.1424 204.719L37.1084 204.302Z" fill="#F0E0C4"/>
<path d="M36.7295 199.694L55.3275 198.166C55.3385 198.305 55.3365 198.445 55.3345 198.584L36.7635 200.109L36.7295 199.694Z" fill="#F0E0C4"/>
<path d="M55.1214 193.526L36.3574 195.068L36.3928 195.499L55.1568 193.957L55.1214 193.526Z" fill="#F0E0C4"/>
<path d="M35.9717 190.477L54.6807 188.94C54.7057 189.078 54.7177 189.216 54.7297 189.369L36.0067 190.907L35.9717 190.477Z" fill="#F0E0C4"/>
<path d="M35.5928 185.869L54.0108 184.356C54.0358 184.494 54.0608 184.631 54.0878 184.783L35.6278 186.299L35.5928 185.869Z" fill="#F0E0C4"/>
<path d="M35.2148 181.262L53.0778 179.795C53.1178 179.946 53.1568 180.082 53.1828 180.22L35.2508 181.693L35.2148 181.262Z" fill="#F0E0C4"/>
<path d="M34.8359 176.654L51.8659 175.255C51.9049 175.391 51.9439 175.528 51.9979 175.677L34.8709 177.084L34.8359 176.654Z" fill="#F0E0C4"/>
<path d="M34.458 172.045L50.281 170.745C50.348 170.879 50.401 171.015 50.455 171.164L34.494 172.475L34.458 172.045Z" fill="#F0E0C4"/>
<path d="M34.0811 167.452L48.2241 166.29C48.2911 166.424 48.3721 166.557 48.4391 166.692L34.1151 167.868L34.0811 167.452Z" fill="#F0E0C4"/>
<path d="M33.7021 162.844L45.2781 161.893C45.3861 162.024 45.4951 162.155 45.5901 162.286L33.7371 163.26L33.7021 162.844Z" fill="#F0E0C4"/>
<path d="M33.218 158.454C40.72 157.838 48.099 173.131 49.699 192.612C51.299 212.093 46.515 228.386 39.012 229.002C31.51 229.618 24.131 214.325 22.531 194.844C20.931 175.363 25.716 159.07 33.218 158.454Z" fill="#F8C05A"/>
<path d="M33.442 161.169C40.129 160.62 46.798 175.368 48.224 192.732C49.65 210.096 45.632 226.169 38.945 226.718C32.258 227.267 25.435 212.085 24.009 194.721C22.582 177.357 26.755 161.719 33.442 161.169Z" stroke="#F0E0C4" stroke-width="0.5" stroke-miterlimit="10"/>
<path d="M33.606 179.105C33.364 179.151 33.172 179.229 33.045 179.363C32.908 179.49 32.833 179.699 32.816 179.973C32.789 180.241 32.786 180.495 32.808 180.708C32.83 180.921 32.868 181.244 32.933 181.683L33.201 183.56C32.467 183.979 31.952 184.75 31.667 185.88C31.382 187.009 31.342 188.222 31.526 189.533C31.71 190.887 32.035 191.975 32.49 192.788C32.938 193.611 33.413 194.167 33.931 194.451C34.443 194.745 34.952 194.953 35.44 195.104C35.787 195.209 36.1 195.321 36.384 195.457L36.476 195.515C36.564 195.556 36.652 195.597 36.723 195.642C37.09 195.873 37.299 196.218 37.374 196.707C37.569 198.068 37.236 198.798 36.375 198.923C35.925 198.981 35.469 198.622 34.985 197.833L34.871 197.676C34.359 196.954 33.959 196.617 33.68 196.654C33.437 196.7 33.23 196.939 33.054 197.398C32.77 198.187 32.66 198.857 32.741 199.406C32.8 199.742 32.981 200.198 33.309 200.761L33.62 201.284C33.819 201.623 34.139 201.996 34.59 202.408C35.041 202.821 35.512 203.089 36.029 203.217L36.322 205.28C36.38 205.729 36.435 206.048 36.474 206.258C36.523 206.474 36.586 206.713 36.689 206.977C36.786 207.252 36.914 207.432 37.073 207.518C37.232 207.604 37.44 207.636 37.676 207.6C37.922 207.57 38.104 207.486 38.231 207.352C38.358 207.219 38.443 207.016 38.459 206.742C38.492 206.464 38.496 206.21 38.474 205.997C38.448 205.767 38.41 205.444 38.349 205.022L38.292 204.616L38.235 204.21L38.052 202.899C38.745 202.454 39.277 201.68 39.642 200.558C39.713 200.332 39.784 200.107 39.825 199.862C39.855 199.724 39.875 199.58 39.901 199.426C40.029 198.524 40.002 197.483 39.828 196.292C39.779 195.919 39.716 195.567 39.645 195.252C39.611 195.102 39.588 194.96 39.547 194.82C39.406 194.276 39.248 193.806 39.05 193.397C38.704 192.638 38.327 192.129 37.936 191.869C37.545 191.608 37.123 191.399 36.681 191.219C36.222 191.044 35.822 190.933 35.454 190.886C35.102 190.835 34.771 190.683 34.5 190.413C34.213 190.146 34.036 189.75 33.959 189.218C33.895 188.779 33.938 188.394 34.098 188.096C34.254 187.781 34.443 187.616 34.663 187.584C34.876 187.562 35.053 187.574 35.222 187.623C35.384 187.682 35.502 187.743 35.591 187.827C35.67 187.905 35.762 188.006 35.859 188.124C35.965 188.248 36.028 188.33 36.056 188.376C36.371 188.689 36.638 188.829 36.841 188.8C37.17 188.752 37.419 188.268 37.609 187.335C37.7 186.852 37.74 186.45 37.745 186.126C37.758 185.992 37.755 185.862 37.739 185.752C37.735 185.735 37.728 185.702 37.718 185.696C37.663 185.377 37.461 185.021 37.126 184.582L37.037 184.497L36.851 184.251C36.724 184.114 36.509 183.936 36.21 183.733C35.901 183.524 35.58 183.378 35.237 183.29L34.973 181.43C34.892 180.881 34.822 180.452 34.758 180.17C34.694 179.888 34.564 179.621 34.364 179.395C34.168 179.161 33.918 179.06 33.606 179.105Z" fill="#F0E0C4"/>
<path d="M31.4133 200.993C21.4813 195.616 14.5593 188.43 11.4373 179.485C1.13128 149.954 35.1733 109.668 92.4503 77.6641" stroke="#7534FC" stroke-width="3" stroke-miterlimit="10"/>
<path d="M1 353.565H564.479" stroke="#1A263D" stroke-width="0.5" stroke-miterlimit="10" stroke-linecap="round" stroke-linejoin="round"/>
</svg>
