<svg width="50" height="46" viewBox="0 0 50 46" fill="none" xmlns="http://www.w3.org/2000/svg">
<path d="M23.522 44.4634C23.5303 44.2815 23.5749 44.103 23.6531 43.9383C23.7313 43.7736 23.8416 43.6259 23.9777 43.5039C24.1137 43.3819 24.2728 43.2879 24.4456 43.2274C24.6185 43.1669 24.8017 43.1411 24.9847 43.1515C25.1676 43.1619 25.3467 43.2082 25.5115 43.2879C25.6763 43.3675 25.8236 43.4789 25.9448 43.6155C26.066 43.7521 26.1587 43.9112 26.2175 44.0837C26.2764 44.2562 26.3002 44.4385 26.2877 44.6202C26.2626 44.9817 26.0952 45.3187 25.8218 45.5583C25.5483 45.7979 25.1908 45.9207 24.8269 45.9C24.4629 45.8794 24.1218 45.717 23.8775 45.4481C23.6332 45.1791 23.5055 44.8253 23.522 44.4634ZM12.1779 42.9741C12.3364 42.7342 12.5843 42.5667 12.867 42.5084C13.1498 42.4501 13.4443 42.5059 13.6857 42.6634C13.9271 42.8209 14.0957 43.0672 14.1543 43.3482C14.213 43.6292 14.1569 43.9219 13.9984 44.1618C13.9199 44.2806 13.8187 44.3828 13.7004 44.4627C13.5821 44.5426 13.4492 44.5986 13.3092 44.6274C13.1692 44.6563 13.0248 44.6574 12.8843 44.6308C12.7438 44.6042 12.61 44.5504 12.4905 44.4724C12.371 44.3944 12.268 44.2938 12.1876 44.1763C12.1072 44.0588 12.0509 43.9267 12.0219 43.7875C11.9929 43.6484 11.9917 43.5049 12.0185 43.3653C12.0452 43.2257 12.0994 43.0929 12.1779 42.9741ZM36.5095 42.5496C36.6371 42.4854 36.7762 42.4469 36.9189 42.4362C37.0615 42.4256 37.2048 42.443 37.3407 42.4875C37.4765 42.5319 37.6022 42.6026 37.7105 42.6955C37.8188 42.7883 37.9076 42.9015 37.9718 43.0285C38.0688 43.2195 38.1067 43.4349 38.0805 43.6474C38.0543 43.8598 37.9653 44.0598 37.8248 44.2219C37.6843 44.3841 37.4985 44.5013 37.291 44.5585C37.0834 44.6158 36.8635 44.6106 36.6589 44.5436C36.4544 44.4766 36.2744 44.3508 36.1418 44.1822C36.0091 44.0136 35.9298 43.8096 35.9138 43.5962C35.8978 43.3828 35.9459 43.1694 36.0519 42.9831C36.158 42.7968 36.3172 42.646 36.5095 42.5496ZM14.8076 37.247C15.0518 36.8765 15.4341 36.6175 15.8705 36.5269C16.3068 36.4364 16.7615 36.5217 17.1345 36.7641C17.5075 37.0072 17.7682 37.3874 17.8592 37.8213C17.9503 38.2553 17.8642 38.7073 17.6201 39.0783C17.3744 39.4459 16.9923 39.702 16.5573 39.7907C16.1223 39.8793 15.6696 39.7933 15.2981 39.5515C14.9267 39.3096 14.6666 38.9315 14.5747 38.4998C14.4828 38.068 14.5665 37.6176 14.8076 37.247ZM33.0937 36.6306C33.2904 36.5309 33.505 36.4708 33.7251 36.4536C33.9452 36.4364 34.1666 36.4625 34.3765 36.5304C34.5865 36.5983 34.7809 36.7067 34.9487 36.8493C35.1164 36.992 35.2543 37.1661 35.3543 37.3617C35.5046 37.6545 35.5648 37.9848 35.5274 38.3114C35.49 38.6379 35.3565 38.9463 35.1437 39.198C34.931 39.4496 34.6483 39.6334 34.331 39.7263C34.0138 39.8192 33.676 39.8172 33.3599 39.7205C33.0438 39.6237 32.7634 39.4366 32.5537 39.1824C32.344 38.9282 32.2143 38.6182 32.1808 38.2912C32.1474 37.9642 32.2116 37.6347 32.3655 37.3438C32.5194 37.0528 32.7562 36.8134 33.0463 36.6554L33.0937 36.6306ZM23.098 35.61C23.2692 35.2598 23.5412 34.9679 23.8796 34.7715C24.2179 34.575 24.6073 34.4829 24.9984 34.5066C26.0867 34.5713 26.917 35.4994 26.8543 36.5813C26.8377 36.8719 26.7564 37.1553 26.6163 37.4109C26.4761 37.6665 26.2806 37.8881 26.0439 38.0595C25.8072 38.231 25.5351 38.3481 25.2473 38.4024C24.9595 38.4567 24.6632 38.4468 24.3797 38.3735C24.0962 38.3002 23.8327 38.1653 23.608 37.9785C23.3833 37.7917 23.2032 37.5577 23.0806 37.2933C22.958 37.0289 22.8959 36.7408 22.8989 36.4497C22.902 36.1586 22.9699 35.8718 23.098 35.61ZM5.59215 32.5653C5.91923 32.4035 6.29737 32.3767 6.64424 32.4907C6.99111 32.6047 7.27861 32.8503 7.44414 33.174C7.60966 33.4976 7.63981 33.8732 7.52802 34.2188C7.41623 34.5645 7.17155 34.8522 6.84725 35.0195C6.52296 35.1867 6.14533 35.2198 5.79658 35.1116C5.44782 35.0034 5.15621 34.7627 4.98522 34.4419C4.81423 34.121 4.77772 33.746 4.88364 33.3986C4.98956 33.0511 5.22933 32.7593 5.55074 32.5867L5.59215 32.5653ZM42.6711 32.9568C42.7699 32.8036 42.8982 32.6715 43.0488 32.5679C43.1993 32.4644 43.369 32.3915 43.548 32.3536C43.727 32.3156 43.9118 32.3133 44.0918 32.3467C44.2717 32.3802 44.4432 32.4487 44.5963 32.5484C44.7495 32.6481 44.8812 32.777 44.9838 32.9276C45.0865 33.0782 45.1582 33.2476 45.1946 33.4259C45.231 33.6041 45.2315 33.7878 45.1961 33.9663C45.1606 34.1448 45.0899 34.3145 44.988 34.4657C44.785 34.767 44.4704 34.9766 44.1127 35.0487C43.7551 35.1209 43.3832 35.0499 43.0779 34.8511C42.7726 34.6523 42.5587 34.3418 42.4825 33.9871C42.4063 33.6324 42.4741 33.2621 42.6711 32.9568ZM19.4468 26.8524C20.106 26.4987 20.865 26.3737 21.6037 26.497C22.3425 26.6204 23.0187 26.985 23.5254 27.5333C24.032 28.0816 24.3402 28.7822 24.4011 29.5241C24.462 30.266 24.2721 31.007 23.8615 31.6296C23.5561 32.0954 23.1382 32.4777 22.646 32.7417C22.1537 33.0058 21.6027 33.1431 21.0433 33.1412C20.2943 33.1406 19.5669 32.8918 18.9762 32.4341C18.3855 31.9764 17.9653 31.336 17.782 30.6143C17.5988 29.8925 17.6631 29.1307 17.9646 28.4493C18.2661 27.7679 18.7877 27.206 19.4468 26.8524ZM27.9511 26.6008C28.7149 26.3565 29.5413 26.3913 30.2815 26.699C31.0217 27.0066 31.627 27.5669 31.9882 28.2788C32.8191 29.9266 32.1531 31.9322 30.498 32.7646C30.0282 33.0016 29.5093 33.1268 28.9824 33.1303C28.1801 33.1303 27.4042 32.8455 26.7945 32.3272C26.1848 31.809 25.7815 31.0914 25.6571 30.3038C25.5327 29.5162 25.6954 28.7103 26.116 28.0314C26.5367 27.3524 27.1874 26.8451 27.9511 26.6008ZM11.7416 28.4583C11.9325 28.2378 12.1703 28.0621 12.4378 27.944C12.7052 27.8258 12.9958 27.7681 13.2884 27.7749C13.5811 27.7818 13.8685 27.853 14.1301 27.9836C14.3917 28.1141 14.6209 28.3007 14.8012 28.5299C14.9815 28.7591 15.1084 29.0251 15.1727 29.3089C15.2371 29.5927 15.2373 29.8871 15.1733 30.171C15.1094 30.4549 14.9828 30.7211 14.8029 30.9505C14.6229 31.18 14.394 31.3669 14.1326 31.4978C13.7238 31.7025 13.2562 31.7601 12.8094 31.6607C12.3627 31.5613 11.9644 31.3111 11.6825 30.9527C11.4005 30.5943 11.2523 30.1498 11.2631 29.695C11.2738 29.2402 11.4429 28.8031 11.7416 28.4583ZM35.13 28.6097C35.7298 27.7015 36.957 27.4486 37.8707 28.0449C38.7828 28.6423 39.0367 29.86 38.439 30.7686C37.8392 31.6766 36.6121 31.9295 35.6984 31.3334C34.7845 30.7371 34.53 29.5179 35.13 28.6097ZM13.6912 22.7914C13.7963 20.9721 15.347 19.5714 17.1795 19.6405C19.0115 19.7096 20.4509 21.2231 20.4173 23.0449C20.3841 24.846 18.9224 26.2936 17.1171 26.3277L17.0554 26.3283H16.8714C15.0334 26.2216 13.6248 24.6712 13.6974 22.8502L13.7004 22.7894L13.6912 22.7914ZM29.572 22.7537C29.6787 20.9089 31.2703 19.4992 33.1267 19.6051C33.5677 19.6276 33.9998 19.7372 34.3977 19.9274C34.7956 20.1175 35.1515 20.3846 35.4445 20.7128C35.8733 21.1899 36.1555 21.7791 36.2576 22.4107C36.3597 23.0423 36.2775 23.6897 36.0206 24.2762C35.7637 24.8628 35.343 25.3638 34.8083 25.72C34.2737 26.0762 33.6474 26.2725 33.0039 26.2858L32.9353 26.2866H32.7402C30.8838 26.1806 29.4652 24.599 29.5718 22.7541M5.6818 22.9063C5.70719 22.464 5.90825 22.0498 6.2408 21.7548C6.57334 21.4598 7.01016 21.3081 7.45524 21.333C7.90052 21.3584 8.31741 21.5585 8.61434 21.8893C8.91127 22.22 9.06394 22.6543 9.03883 23.0969C9.01339 23.5393 8.81216 23.9535 8.47939 24.2484C8.14662 24.5434 7.70958 24.6949 7.26441 24.6696C6.81924 24.6443 6.40241 24.4444 6.10561 24.1137C5.80881 23.783 5.65636 23.3487 5.6818 22.9063ZM40.9589 22.8306C40.9866 22.3899 41.1886 21.978 41.5209 21.6849C41.8532 21.3918 42.2888 21.2414 42.7324 21.2664C43.1759 21.2915 43.5915 21.49 43.8883 21.8186C44.185 22.1473 44.3388 22.5793 44.316 23.0202C44.2904 23.4627 44.0891 23.8771 43.7562 24.1722C43.4234 24.4673 42.9863 24.6191 42.541 24.5941C42.0959 24.5686 41.6793 24.3685 41.3827 24.0379C41.086 23.7072 40.9336 23.2728 40.9589 22.8306ZM1.10719 21.9399L1.14781 21.9414C1.29057 21.9491 1.4304 21.9848 1.55925 22.0464C1.68811 22.1079 1.80345 22.1942 1.89866 22.3002C1.99387 22.4062 2.06707 22.5298 2.11405 22.664C2.16103 22.7982 2.18087 22.9403 2.17242 23.0821C2.16017 23.2936 2.08559 23.4969 1.95798 23.6666C1.83037 23.8364 1.65536 23.9651 1.45471 24.0367C1.25407 24.1084 1.03665 24.1198 0.829523 24.0696C0.622391 24.0194 0.434687 23.9098 0.289765 23.7544C0.144843 23.599 0.0491009 23.4046 0.0144524 23.1956C-0.020196 22.9865 0.00777852 22.772 0.0948952 22.5786C0.182012 22.3852 0.324425 22.2216 0.504413 22.108C0.684402 21.9944 0.894021 21.936 1.10719 21.9399ZM48.9283 21.8283L48.9736 21.83C49.2617 21.847 49.5313 21.9768 49.7234 22.1909C49.9154 22.405 50.0143 22.6861 49.9982 22.9725C49.9859 23.1842 49.9113 23.3877 49.7836 23.5576C49.6559 23.7276 49.4808 23.8565 49.28 23.9283C49.0792 24.0002 48.8616 24.0118 48.6542 23.9617C48.4468 23.9117 48.2588 23.8022 48.1135 23.6468C47.9682 23.4914 47.8721 23.2971 47.837 23.0879C47.802 22.8787 47.8296 22.6638 47.9164 22.4701C48.0032 22.2763 48.1454 22.1122 48.3253 21.9981C48.5052 21.884 48.7149 21.8249 48.9283 21.8283ZM21.014 12.8014C21.6369 12.7985 22.2484 12.9679 22.7799 13.2908C23.3114 13.6136 23.742 14.0771 24.0234 14.6294C24.2834 15.1397 24.4074 15.7078 24.3837 16.2793C24.3599 16.8508 24.1892 17.4068 23.8877 17.8941C23.5862 18.3814 23.1641 18.7837 22.6617 19.0628C22.1592 19.3419 21.5932 19.4883 21.0175 19.4881C20.3933 19.49 19.7808 19.3187 19.2492 18.9935C18.7175 18.6683 18.2878 18.2021 18.0084 17.6473C17.7514 17.1375 17.6297 16.5708 17.655 16.0011C17.6802 15.4315 17.8515 14.8776 18.1526 14.3922C18.4537 13.9067 18.8746 13.5058 19.3754 13.2274C19.8761 12.949 20.4402 12.8024 21.014 12.8014ZM28.9548 12.7777C29.7038 12.7787 30.4311 13.0279 31.0215 13.4858C31.6119 13.9438 32.0318 14.5843 32.2147 15.3061C32.3976 16.0278 32.333 16.7896 32.0313 17.4708C31.7295 18.152 31.2077 18.7137 30.5485 19.0671C29.8893 19.4205 29.1304 19.5452 28.3918 19.4217C27.6532 19.2982 26.9771 18.9334 26.4706 18.3851C25.9641 17.8368 25.6561 17.1363 25.5953 16.3945C25.5345 15.6527 25.7244 14.9119 26.1349 14.2893C26.4417 13.8245 26.8602 13.443 27.3525 13.1791C27.8448 12.9152 28.3955 12.7773 28.9548 12.7777ZM11.5574 15.156C12.1568 14.2476 13.3836 13.9939 14.2976 14.5896C15.2117 15.1853 15.467 16.4044 14.8679 17.3127C14.2685 18.2211 13.0418 18.4749 12.1277 17.8795C11.9101 17.738 11.7227 17.5553 11.5762 17.3418C11.4297 17.1283 11.3271 16.8882 11.2741 16.6353C11.2211 16.3823 11.2189 16.1214 11.2675 15.8676C11.3161 15.6137 11.4146 15.3719 11.5574 15.156ZM35.8675 14.4266C36.0996 14.3101 36.3526 14.2402 36.6119 14.221C36.8711 14.2018 37.1317 14.2336 37.3786 14.3146C37.6255 14.3956 37.8539 14.5242 38.0508 14.693C38.2476 14.8618 38.409 15.0675 38.5257 15.2984C39.0173 16.2687 38.6244 17.4513 37.6482 17.94C36.672 18.4287 35.4818 18.038 34.99 17.068C34.4982 16.0979 34.8914 14.9151 35.8675 14.4264M5.0107 11.4597C5.21213 11.1543 5.52735 10.9411 5.88702 10.8667C6.06511 10.8299 6.24875 10.8283 6.42746 10.862C6.60617 10.8957 6.77645 10.9641 6.92857 11.0632C7.0807 11.1623 7.21169 11.2902 7.31406 11.4397C7.41644 11.5891 7.4882 11.7571 7.52524 11.9341C7.56228 12.111 7.56389 12.2935 7.52996 12.4711C7.49603 12.6487 7.42724 12.8179 7.3275 12.9691C7.12608 13.2744 6.81086 13.4877 6.45119 13.5621C6.09151 13.6364 5.71686 13.5657 5.40963 13.3655C5.1024 13.1654 4.88777 12.8521 4.81296 12.4947C4.73815 12.1373 4.80928 11.765 5.0107 11.4597ZM43.1576 10.9026C43.485 10.7434 43.8624 10.7189 44.2079 10.8343C44.5534 10.9498 44.8392 11.196 45.0033 11.5194C45.1674 11.8429 45.1965 12.2176 45.0844 12.5623C44.9723 12.907 44.728 13.1939 44.4045 13.3608C44.0761 13.525 43.6956 13.5529 43.3465 13.4384C42.9974 13.3239 42.7084 13.0764 42.5429 12.7502C42.3779 12.4241 42.3499 12.0463 42.4652 11.6998C42.5804 11.3533 42.8295 11.0664 43.1576 10.9024M22.9914 9.34268C23.0539 8.25867 23.989 7.43009 25.08 7.49181C26.1709 7.55353 27.005 8.48227 26.9433 9.56666C26.8818 10.6507 25.9476 11.48 24.8566 11.4193C23.7646 11.3574 22.9296 10.4279 22.9914 9.34268ZM15.389 6.30979C15.5862 6.21106 15.801 6.15189 16.0212 6.13566C16.2414 6.11943 16.4626 6.14645 16.6723 6.21519C16.882 6.28393 17.076 6.39304 17.2432 6.53629C17.4105 6.67953 17.5477 6.85411 17.647 7.05006C17.7464 7.246 17.8059 7.45947 17.8223 7.67828C17.8386 7.89709 17.8114 8.11696 17.7422 8.32533C17.673 8.53369 17.5633 8.72648 17.4191 8.89268C17.275 9.05888 17.0993 9.19523 16.9021 9.29396C16.5039 9.49336 16.0423 9.52738 15.6188 9.38856C15.1954 9.24973 14.8447 8.94942 14.6441 8.55369C14.4435 8.15797 14.4092 7.69924 14.5489 7.27842C14.6886 6.85761 14.9908 6.50918 15.389 6.30979ZM32.3726 6.84587C32.5547 6.56907 32.8153 6.35213 33.1215 6.22248C33.4276 6.09283 33.7656 6.05629 34.0926 6.11746C34.4197 6.17864 34.7211 6.3348 34.9589 6.56619C35.1966 6.79759 35.36 7.09384 35.4284 7.41749C35.4968 7.74115 35.467 8.07768 35.343 8.38455C35.2189 8.69142 35.0061 8.95486 34.7314 9.14157C34.4567 9.32827 34.1325 9.42986 33.7998 9.43349C33.467 9.43713 33.1406 9.34264 32.8619 9.16198C32.6765 9.04203 32.5167 8.88691 32.3918 8.70551C32.2668 8.5241 32.1791 8.31997 32.1336 8.10482C32.0882 7.88966 32.0859 7.66771 32.1269 7.45168C32.1679 7.23565 32.2514 7.02978 32.3726 6.84587ZM12.4992 1.44582C12.7563 1.31788 13.0539 1.2962 13.3271 1.38552C13.6002 1.47485 13.8267 1.66792 13.9571 1.92259C14.0876 2.17727 14.1113 2.47288 14.0232 2.7449C13.9351 3.01691 13.7423 3.24326 13.4869 3.37452C13.3587 3.43964 13.2189 3.47891 13.0754 3.49007C12.9319 3.50123 12.7876 3.48406 12.6508 3.43955C12.514 3.39504 12.3875 3.32407 12.2784 3.23073C12.1694 3.13739 12.08 3.02352 12.0154 2.89569C11.8866 2.63958 11.8652 2.34319 11.9559 2.07144C12.0466 1.79969 12.2419 1.57472 12.4992 1.44582ZM35.998 1.76413C36.0762 1.64518 36.1773 1.5427 36.2954 1.46255C36.4135 1.38241 36.5463 1.32616 36.6863 1.29703C36.8263 1.26789 36.9706 1.26644 37.1112 1.29275C37.2517 1.31907 37.3856 1.37263 37.5053 1.45038C37.625 1.52813 37.7282 1.62856 37.8088 1.74591C37.8895 1.86327 37.9461 1.99526 37.9754 2.13436C38.0047 2.27345 38.0061 2.41692 37.9797 2.55658C37.9532 2.69623 37.8993 2.82934 37.8211 2.94829C37.6631 3.18853 37.4155 3.35657 37.1329 3.41542C36.8502 3.47428 36.5556 3.41914 36.3138 3.26214C36.0721 3.10514 35.903 2.85913 35.8438 2.57823C35.7845 2.29734 35.84 2.00437 35.998 1.76413ZM24.4929 0.0832883C24.6653 0.0208363 24.8484 -0.00697122 25.0317 0.00147989C25.2149 0.009931 25.3946 0.0544724 25.5604 0.132518C25.7262 0.210564 25.8748 0.32056 25.9974 0.45612C26.1201 0.591679 26.2144 0.750103 26.275 0.922192C26.3355 1.09428 26.3611 1.27661 26.3501 1.45859C26.3392 1.64057 26.292 1.81858 26.2113 1.98228C26.1305 2.14598 26.0179 2.29212 25.8798 2.4122C25.7418 2.53229 25.5812 2.62393 25.4072 2.6818C25.0619 2.7967 24.6849 2.77182 24.3579 2.61255C24.0308 2.45328 23.7801 2.17244 23.6599 1.83082C23.5397 1.4892 23.5597 1.11428 23.7156 0.787216C23.8715 0.460154 24.1508 0.207265 24.4929 0.0832883Z" fill="#0033AD"/>
</svg>
