<svg width="120" height="120" viewBox="0 0 120 120" fill="none" xmlns="http://www.w3.org/2000/svg">
<circle cx="60" cy="60" r="59.2453" fill="#191C1F" stroke="white" stroke-width="1.50943"/>
<path d="M48.0481 99.0049C48.6313 99.1612 49.1436 99.411 49.585 99.7543C50.0244 100.105 50.3757 100.52 50.6391 100.999C50.8926 101.484 51.0496 102.018 51.1101 102.601C51.1706 103.184 51.1165 103.79 50.9477 104.42C50.7789 105.05 50.5275 105.599 50.1935 106.068C49.8497 106.543 49.4479 106.923 48.9881 107.208C48.5184 107.499 48.0066 107.682 47.4527 107.759C46.8988 107.836 46.3302 107.796 45.747 107.639C45.0938 107.464 44.5422 107.175 44.092 106.771C43.6398 106.375 43.3139 105.896 43.1144 105.334C42.9072 104.77 42.849 104.163 42.94 103.512L44.1531 103.837C44.0771 104.525 44.2078 105.11 44.5454 105.592C44.873 106.08 45.3635 106.412 46.0166 106.587C46.5687 106.734 47.0951 106.73 47.5957 106.572C48.0864 106.42 48.5141 106.131 48.8786 105.703C49.2411 105.284 49.5109 104.743 49.688 104.082C49.863 103.429 49.9006 102.822 49.8006 102.262C49.6908 101.708 49.4624 101.238 49.1155 100.854C48.7685 100.469 48.3189 100.203 47.7669 100.055C47.1137 99.8797 46.5204 99.9166 45.987 100.165C45.4438 100.42 45.0369 100.865 44.7665 101.501L43.5418 101.173C43.7982 100.558 44.1571 100.058 44.6186 99.6737C45.078 99.2967 45.6036 99.0458 46.1954 98.921C46.7774 98.8019 47.395 98.8299 48.0481 99.0049Z" fill="white"/>
<path d="M40.7522 95.8747C41.3027 96.1767 41.7203 96.5619 42.0051 97.0304C42.286 97.5058 42.4267 98.0192 42.4273 98.5705C42.424 99.1288 42.2733 99.6797 41.9752 100.223C41.6731 100.774 41.2915 101.193 40.8301 101.482C40.3617 101.767 39.8589 101.913 39.3217 101.922C38.7737 101.933 38.2244 101.788 37.6739 101.486C37.1163 101.18 36.6951 100.793 36.4103 100.324C36.1217 99.8629 35.9787 99.362 35.9813 98.8217C35.9768 98.2775 36.1256 97.7302 36.4276 97.1796C36.7258 96.6362 37.1094 96.2131 37.5785 95.9103C38.0367 95.6108 38.5418 95.4517 39.0937 95.4331C39.6418 95.4216 40.1946 95.5688 40.7522 95.8747ZM40.2585 96.7746C39.9268 96.5926 39.5964 96.5169 39.2674 96.5476C38.9313 96.5744 38.6133 96.6938 38.3134 96.9057C38.0134 97.1177 37.757 97.4177 37.544 97.8059C37.2265 98.3847 37.1321 98.9251 37.2606 99.4272C37.3782 99.9325 37.6806 100.319 38.1676 100.586C38.6475 100.849 39.1357 100.897 39.6321 100.728C40.1214 100.556 40.5229 100.184 40.8366 99.6122C41.0495 99.2241 41.1683 98.8485 41.193 98.4855C41.2106 98.1187 41.1404 97.7864 40.9824 97.4885C40.8174 97.1868 40.5761 96.9488 40.2585 96.7746Z" fill="white"/>
<path d="M35.859 92.1605L31.6984 96.701L30.817 95.8934L31.796 94.825L31.7514 94.7842L34.9331 91.3121L35.859 92.1605ZM32.6361 89.2073L29.9603 92.1275C29.672 92.442 29.5373 92.7499 29.5562 93.0511C29.5691 93.3468 29.7299 93.6361 30.0385 93.9189C30.3056 94.1636 30.5974 94.3218 30.9139 94.3935C31.2245 94.4597 31.5343 94.4433 31.8434 94.3443C32.1465 94.2399 32.4286 94.0453 32.6896 93.7604L31.8101 94.9526C31.3517 95.155 30.8784 95.2127 30.3903 95.1257C29.9022 95.0388 29.4534 94.8076 29.0438 94.4324C28.5572 93.9864 28.2994 93.4991 28.2706 92.9704C28.2419 92.4418 28.4341 91.9519 28.8475 91.5009L31.7191 88.367L32.6361 89.2073Z" fill="white"/>
<path d="M26.4654 79.934C26.8634 80.5297 27.0191 81.0598 26.9325 81.5243C26.8348 81.9866 26.5148 82.3989 25.9726 82.7612L21.2235 85.9344L20.141 85.1619L25.2917 81.7203C25.5594 81.5414 25.7099 81.3392 25.7432 81.1136C25.7764 80.8881 25.688 80.618 25.4777 80.3034C25.3972 80.1829 25.3156 80.0825 25.2329 80.0023C25.1502 79.922 25.0732 79.8573 25.0017 79.8082L25.845 79.2447C25.9277 79.296 26.0238 79.3818 26.1333 79.5023C26.2429 79.6227 26.3535 79.7666 26.4654 79.934ZM23.9159 85.6168L23.0826 86.1736L20.7345 82.6595L21.5678 82.1026L23.9159 85.6168Z" fill="white"/>
<path d="M22.6234 70.331C22.4934 70.4211 22.3442 70.5054 22.1757 70.5839C22.0045 70.6548 21.794 70.7357 21.5444 70.8265L21.565 70.8833L18.8077 71.8869C18.437 72.0218 18.1953 72.2168 18.0826 72.472C17.9595 72.7224 17.971 73.0481 18.1169 73.449C18.2573 73.8348 18.4459 74.1174 18.6825 74.2969C18.9164 74.4688 19.1802 74.5227 19.4739 74.4586L19.8827 75.582C19.3188 75.7273 18.7943 75.6398 18.3093 75.3194C17.8244 74.999 17.4483 74.472 17.1813 73.7382C16.9059 72.9817 16.8772 72.3496 17.0951 71.842C17.3054 71.3371 17.751 70.9607 18.4318 70.7129L21.1438 69.7258C21.3178 69.6625 21.4914 69.5865 21.6647 69.4977C21.838 69.4089 22.0185 69.3047 22.2062 69.1849L22.6234 70.331ZM23.4637 72.2868C23.6785 72.8769 23.7055 73.3982 23.5447 73.8508C23.3763 74.3062 23.0425 74.6247 22.5432 74.8064C22.0288 74.9937 21.558 74.9594 21.1308 74.7037C20.6933 74.4431 20.2963 73.9879 19.9398 73.3381L18.9396 71.5433L19.768 71.2418L20.6681 72.8674C20.869 73.2312 21.0771 73.4853 21.2925 73.6297C21.505 73.7665 21.7475 73.7853 22.0198 73.6862C22.2846 73.5898 22.4534 73.4299 22.5262 73.2063C22.5887 72.9779 22.5581 72.6936 22.4342 72.3531C22.2689 71.8992 22.023 71.5647 21.6962 71.3495C21.3667 71.1268 21.0355 71.076 20.7027 71.1971L21.4887 70.744C21.9392 70.7342 22.3374 70.8634 22.6835 71.1316C23.0219 71.4024 23.282 71.7875 23.4637 72.2868Z" fill="white"/>
<path d="M20.6919 60.6464C20.7559 61.2306 20.6768 61.7657 20.4547 62.2516C20.2245 62.7384 19.8839 63.1402 19.4326 63.4568C18.9805 63.7655 18.4464 63.9536 17.8302 64.0211C17.214 64.0885 16.6558 64.0201 16.1556 63.8157C15.6466 63.6042 15.231 63.2853 14.909 62.859C14.5869 62.4326 14.3944 61.9314 14.3313 61.3552C14.2778 60.867 14.3221 60.4208 14.464 60.0166C14.606 59.6123 14.8275 59.2681 15.1284 58.9841C15.4294 58.7001 15.8 58.4976 16.2402 58.3765L16.369 59.5528C16.0177 59.6723 15.7489 59.8799 15.5626 60.1756C15.3755 60.4634 15.3042 60.8113 15.3489 61.2194C15.3875 61.5715 15.5093 61.87 15.7142 62.1148C15.9192 62.3596 16.1897 62.5365 16.5255 62.6455C16.8614 62.7545 17.2494 62.7849 17.6895 62.7367C18.1217 62.6893 18.4939 62.5757 18.8062 62.3957C19.1186 62.2157 19.3523 61.9836 19.5074 61.6994C19.6546 61.416 19.7084 61.0943 19.669 60.7342C19.626 60.3421 19.4856 60.0213 19.2478 59.772C19.001 59.5156 18.6932 59.3671 18.3243 59.3265L18.1955 58.1502C18.6444 58.182 19.0469 58.308 19.4031 58.5281C19.7583 58.7403 20.049 59.0283 20.2752 59.3923C20.5013 59.7562 20.6402 60.1743 20.6919 60.6464Z" fill="white"/>
<path d="M20.9088 49.8653C20.8153 50.5757 20.5829 51.0769 20.2115 51.3691C19.8332 51.6522 19.3208 51.7512 18.6743 51.6661L13.0115 50.9205L12.7069 49.6259L18.8486 50.4345C19.1679 50.4765 19.4144 50.4237 19.5881 50.2761C19.7618 50.1284 19.8733 49.8671 19.9227 49.4919C19.9416 49.3483 19.9465 49.219 19.9373 49.1041C19.928 48.9892 19.9127 48.8897 19.8913 48.8057L20.8969 48.9381C20.9253 49.0312 20.9409 49.1591 20.9439 49.3219C20.9468 49.4846 20.9351 49.6658 20.9088 49.8653ZM15.2451 52.4569L14.2514 52.3261L14.8031 48.1359L15.7968 48.2667L15.2451 52.4569Z" fill="white"/>
<path d="M28.5195 37.8042C27.8823 38.7143 27.1257 39.2263 26.2499 39.3403C25.3741 39.4542 24.4416 39.1649 23.4524 38.4723L19.3177 35.5771L20.0519 34.5286L24.3053 37.5069C24.9845 37.9825 25.6107 38.19 26.1838 38.1294C26.7503 38.0642 27.2321 37.748 27.6292 37.1809C28.0356 36.6006 28.1725 36.0331 28.04 35.4784C27.9075 34.9238 27.4984 34.4063 26.8126 33.9261L22.5592 30.9478L23.2933 29.8993L27.4478 32.8083C28.4238 33.4917 29.0057 34.2677 29.1935 35.1363C29.386 35.9983 29.1613 36.8876 28.5195 37.8042Z" fill="white"/>
<path d="M33.4516 30.2415C32.8464 30.7723 32.2484 31.0611 31.6578 31.108C31.0671 31.1549 30.5353 30.9574 30.0622 30.5157L30.9338 29.7513C31.2097 29.9805 31.5112 30.0801 31.8383 30.0502C32.1662 30.0089 32.5057 29.8344 32.8567 29.5265C33.1654 29.2558 33.3537 28.9943 33.4216 28.7421C33.4894 28.4898 33.4358 28.2638 33.2606 28.0641C33.1332 27.9188 32.9787 27.8402 32.7969 27.8283C32.6159 27.8051 32.36 27.8796 32.0292 28.0518L31.1335 28.5322C30.5666 28.8259 30.0699 28.9617 29.6436 28.9394C29.2179 28.9058 28.8591 28.7226 28.5672 28.3897C28.2009 27.9721 28.0686 27.5099 28.1703 27.0031C28.2727 26.485 28.5963 25.9871 29.141 25.5094C29.6797 25.037 30.2186 24.7785 30.7578 24.734C31.303 24.6841 31.7879 24.8585 32.2124 25.2572L31.3408 26.0215C31.1134 25.8355 30.8615 25.7619 30.5852 25.8008C30.3095 25.8284 30.0234 25.9722 29.7269 26.2323C29.4484 26.4765 29.2787 26.7164 29.2176 26.952C29.1573 27.1762 29.2041 27.3761 29.358 27.5516C29.4854 27.6968 29.646 27.7701 29.8399 27.7714C30.0398 27.7674 30.2991 27.6846 30.6178 27.5229L31.5476 27.0448C32.085 26.7662 32.5744 26.6529 33.016 26.7046C33.4523 26.7503 33.8217 26.9457 34.1242 27.2907C34.4905 27.7083 34.6137 28.1784 34.4939 28.7011C34.3801 29.2185 34.0327 29.732 33.4516 30.2415Z" fill="white"/>
<path d="M43.1342 18.7846L42.6176 16.6733L44.7288 16.1567L45.2455 18.268L43.1342 18.7846Z" fill="white"/>
<path d="M67.9299 22.4627C67.3434 22.3192 66.8258 22.0807 66.377 21.7471C65.9301 21.4057 65.5698 20.9984 65.2961 20.5253C65.032 20.0463 64.8634 19.5161 64.7902 18.9346C64.717 18.3531 64.7579 17.7457 64.9129 17.1123C65.0679 16.4789 65.3072 15.9242 65.6309 15.4481C65.9644 14.9661 66.3578 14.5776 66.8113 14.2824C67.2745 13.9814 67.7821 13.7865 68.3342 13.6979C68.8863 13.6092 69.4556 13.6366 70.0421 13.7801C70.699 13.9408 71.2568 14.2182 71.7157 14.6123C72.1764 14.9986 72.5127 15.4704 72.7244 16.0277C72.9439 16.587 73.0153 17.1929 72.9385 17.8454L71.7186 17.5469C71.7796 16.8574 71.6361 16.2753 71.2881 15.8006C70.9499 15.32 70.4524 14.9994 69.7955 14.8386C69.2403 14.7028 68.7142 14.7191 68.2172 14.8875C67.7298 15.0501 67.3086 15.3489 66.9535 15.7842C66.6003 16.2116 66.3423 16.7576 66.1797 17.4223C66.019 18.0791 65.9947 18.6865 66.1068 19.2444C66.2286 19.7963 66.4672 20.2608 66.8225 20.6378C67.1778 21.0148 67.633 21.2712 68.1882 21.4071C68.8451 21.5678 69.4374 21.518 69.9652 21.2576C70.5028 20.9914 70.8998 20.5374 71.1563 19.8957L72.3879 20.197C72.145 20.8172 71.797 21.3246 71.3441 21.7194C70.893 22.1063 70.373 22.3685 69.784 22.5062C69.2048 22.638 68.5868 22.6235 67.9299 22.4627Z" fill="white"/>
<path d="M76.5416 25.4202C75.9847 25.1302 75.5587 24.7542 75.2638 24.2921C74.9726 23.8229 74.8207 23.3127 74.8081 22.7616C74.7992 22.2033 74.9379 21.6493 75.2241 21.0994C75.514 20.5425 75.8865 20.1147 76.3414 19.816C76.8035 19.5211 77.303 19.3636 77.8398 19.3436C78.3875 19.3201 78.9399 19.4534 79.4968 19.7433C80.0609 20.037 80.4905 20.4148 80.7854 20.8769C81.084 21.3319 81.2379 21.8295 81.2471 22.3698C81.2634 22.9137 81.1266 23.4642 80.8367 24.0212C80.5505 24.571 80.1761 25.0024 79.7138 25.3153C79.2622 25.6248 78.7607 25.7948 78.2093 25.8255C77.6617 25.8489 77.1058 25.7138 76.5416 25.4202ZM77.0156 24.5097C77.3512 24.6844 77.6831 24.7529 78.0114 24.715C78.3468 24.6809 78.6622 24.5546 78.9574 24.3362C79.2526 24.1178 79.5024 23.8122 79.7069 23.4194C80.0117 22.8339 80.0944 22.2915 79.9549 21.7924C79.8263 21.2898 79.5156 20.9102 79.0229 20.6537C78.5373 20.401 78.0482 20.3642 77.5556 20.5434C77.0701 20.7263 76.6768 21.1069 76.3757 21.6853C76.1713 22.0781 76.0607 22.4562 76.044 22.8195C76.0344 23.1867 76.1118 23.5174 76.2762 23.8117C76.4478 24.1098 76.6942 24.3425 77.0156 24.5097Z" fill="white"/>
<path d="M83.4347 28.4143L87.4953 23.7841L88.3941 24.5724L87.4387 25.6618L87.4841 25.7016L84.3789 29.2424L83.4347 28.4143ZM86.7213 31.2966L89.3328 28.3187C89.6141 27.9979 89.7421 27.6872 89.7166 27.3865C89.6973 27.0911 89.5302 26.8054 89.2155 26.5294C88.9431 26.2906 88.648 26.1388 88.33 26.074C88.018 26.0146 87.7086 26.0378 87.4018 26.1434C87.101 26.2544 86.8233 26.4552 86.5685 26.7457L87.4218 25.5346C87.8757 25.3223 88.3475 25.2543 88.8374 25.3306C89.3273 25.4068 89.7811 25.6281 90.1987 25.9943C90.695 26.4296 90.9633 26.9112 91.0036 27.4391C91.0439 27.9669 90.8624 28.4609 90.459 28.9209L87.6564 32.1166L86.7213 31.2966Z" fill="white"/>
<path d="M92.7992 37.0422C92.3883 36.4553 92.221 35.9287 92.2975 35.4624C92.3851 34.9981 92.696 34.579 93.2302 34.2049L97.9089 30.9288L99.0081 31.6776L93.9337 35.2307C93.6699 35.4154 93.5238 35.6209 93.4955 35.8471C93.4672 36.0733 93.5615 36.3414 93.7786 36.6513C93.8617 36.77 93.9454 36.8686 94.0299 36.9471C94.1143 37.0255 94.1928 37.0885 94.2653 37.136L93.4344 37.7178C93.3507 37.6683 93.2527 37.5846 93.1406 37.4665C93.0285 37.3485 92.9147 37.2071 92.7992 37.0422ZM95.2241 31.3051L96.0451 30.7303L98.4693 34.1923L97.6483 34.7672L95.2241 31.3051Z" fill="white"/>
<path d="M97.9146 45.3402C98.0426 45.2473 98.1899 45.1597 98.3567 45.0776C98.5263 45.003 98.7349 44.9176 98.9825 44.8213L98.9607 44.765L101.695 43.7015C102.063 43.5585 102.301 43.3582 102.408 43.1006C102.525 42.8476 102.507 42.5223 102.352 42.1246C102.203 41.742 102.009 41.4635 101.768 41.2893C101.53 41.1226 101.266 41.0744 100.973 41.1449L100.54 40.0307C101.101 39.8731 101.627 39.9492 102.119 40.2589C102.611 40.5686 102.998 41.0874 103.281 41.8151C103.573 42.5654 103.615 43.1967 103.409 43.709C103.209 44.2184 102.772 44.6044 102.097 44.8669L99.4071 45.913C99.2345 45.9801 99.0626 46.0599 98.8912 46.1524C98.7199 46.245 98.5417 46.3531 98.3567 46.4769L97.9146 45.3402ZM97.0318 43.4032C96.8042 42.818 96.7659 42.2974 96.9168 41.8413C97.0752 41.3824 97.402 41.0567 97.8971 40.8641C98.4073 40.6657 98.8788 40.6897 99.3114 40.936C99.7545 41.1869 100.161 41.6334 100.532 42.2753L101.571 44.0479L100.749 44.3674L99.8141 42.7617C99.6053 42.4024 99.3917 42.1529 99.1733 42.0133C98.9578 41.8812 98.715 41.8676 98.4448 41.9727C98.1822 42.0748 98.017 42.2384 97.949 42.4635C97.8915 42.6931 97.9284 42.9768 98.0597 43.3144C98.2348 43.7646 98.488 44.0937 98.8194 44.3017C99.1536 44.5172 99.4859 44.5608 99.816 44.4324L99.0401 44.9026C98.5899 44.9221 98.1889 44.8017 97.8371 44.5412C97.4928 44.2777 97.2244 43.8984 97.0318 43.4032Z" fill="white"/>
<path d="M99.3019 51.8653C99.2252 51.2827 99.2926 50.746 99.5041 50.2553C99.7235 49.7636 100.055 49.3545 100.5 49.0281C100.945 48.7097 101.475 48.51 102.089 48.4291C102.704 48.3482 103.263 48.4044 103.768 48.5978C104.282 48.7982 104.704 49.1079 105.035 49.5272C105.366 49.9464 105.57 50.4433 105.646 51.018C105.71 51.5048 105.675 51.9519 105.542 52.3592C105.409 52.7665 105.195 53.1154 104.9 53.4059C104.606 53.6964 104.24 53.907 103.802 54.0376L103.648 52.8644C103.996 52.7373 104.26 52.5238 104.44 52.2241C104.621 51.9323 104.685 51.5829 104.631 51.1759C104.585 50.8247 104.457 50.529 104.246 50.2887C104.036 50.0484 103.762 49.8775 103.424 49.7759C103.086 49.6742 102.697 49.6523 102.258 49.7101C101.827 49.7668 101.457 49.8886 101.149 50.0753C100.841 50.2621 100.612 50.4992 100.463 50.7868C100.322 51.0733 100.275 51.3961 100.323 51.7553C100.374 52.1464 100.522 52.4639 100.765 52.708C101.017 52.959 101.328 53.1007 101.698 53.1333L101.852 54.3065C101.403 54.2845 100.998 54.1673 100.637 53.955C100.277 53.7507 99.9799 53.469 99.7459 53.1101C99.5119 52.7511 99.3639 52.3362 99.3019 51.8653Z" fill="white"/>
<path d="M99.1266 61.1508C99.2046 60.4386 99.426 59.9324 99.7909 59.6322C100.163 59.3409 100.673 59.2308 101.321 59.3018L106.999 59.9236L107.332 61.2113L101.174 60.5369C100.854 60.5018 100.609 60.56 100.438 60.7114C100.268 60.8628 100.162 61.1265 100.121 61.5026C100.105 61.6467 100.103 61.776 100.115 61.8907C100.126 62.0054 100.144 62.1045 100.167 62.188L99.1587 62.0776C99.1283 61.9852 99.1099 61.8576 99.1034 61.6949C99.0969 61.5323 99.1047 61.3509 99.1266 61.1508ZM104.732 58.4363L105.729 58.5454L105.269 62.7467L104.272 62.6376L104.732 58.4363Z" fill="white"/>
<path d="M93.8319 82.2974C94.4492 81.3737 95.1943 80.8453 96.0675 80.7123C96.9406 80.5792 97.8792 80.8481 98.8833 81.519L103.08 84.3233L102.369 85.3875L98.0516 82.5028C97.3622 82.0421 96.7317 81.8483 96.16 81.9214C95.595 81.9989 95.1202 82.3255 94.7356 82.9012C94.342 83.4902 94.2175 84.0606 94.362 84.6122C94.5066 85.1639 94.9269 85.6722 95.6231 86.1374L99.9404 89.0222L99.2293 90.0864L95.0123 87.2688C94.0217 86.6068 93.423 85.8437 93.2163 84.9794C93.005 84.1218 93.2103 83.2278 93.8319 82.2974Z" fill="white"/>
<path d="M86.057 89.2719C86.6506 88.728 87.2421 88.4262 87.8316 88.3665C88.421 88.3067 88.9571 88.4925 89.4397 88.9239L88.585 89.707C88.3041 89.4839 88.0005 89.3909 87.6741 89.4279C87.3472 89.4764 87.0116 89.6583 86.6674 89.9737C86.3647 90.2511 86.1822 90.5166 86.1198 90.7703C86.0575 91.024 86.116 91.2488 86.2955 91.4446C86.426 91.5871 86.5823 91.6623 86.7643 91.6702C86.9458 91.6895 87.2 91.6095 87.5269 91.43L88.4119 90.9302C88.9723 90.6242 89.4658 90.4777 89.8926 90.4906C90.3189 90.5149 90.6816 90.6903 90.9807 91.0167C91.356 91.4263 91.4983 91.8855 91.4077 92.3943C91.3167 92.9145 91.004 93.4194 90.4698 93.9089C89.9416 94.3929 89.4084 94.6631 88.8704 94.7194C88.3264 94.7811 87.8378 94.6173 87.4047 94.228L88.2594 93.4449C88.4908 93.6259 88.7442 93.6939 89.0197 93.649C89.2946 93.6154 89.5775 93.4654 89.8684 93.1989C90.1414 92.9487 90.3059 92.7052 90.3618 92.4683C90.4172 92.2428 90.3661 92.044 90.2084 91.8719C90.0778 91.7294 89.9156 91.6597 89.7218 91.6626C89.522 91.671 89.2646 91.7594 88.9495 91.928L88.0304 92.4263C87.4992 92.7165 87.0123 92.8406 86.5697 92.7984C86.1326 92.7623 85.759 92.575 85.449 92.2367C85.0737 91.8272 84.9403 91.3598 85.0487 90.8346C85.1511 90.3149 85.4872 89.794 86.057 89.2719Z" fill="white"/>
<path d="M68.7289 101.125L69.2915 103.225L67.192 103.787L66.6294 101.688L68.7289 101.125Z" fill="white"/>
<rect x="38.4902" y="39.2451" width="42.2642" height="42.2642" rx="21.1321" fill="#6B24FF"/>
<path d="M63.867 62.0186L65.8617 63.208C66.2738 63.4541 66.4865 63.9326 66.3922 64.4035C66.0065 66.3348 64.067 67.5726 62.1674 67.051C57.6851 65.8209 54.1839 62.3303 52.9492 57.8382C52.4269 55.9378 53.6632 53.9967 55.5953 53.6103L55.608 53.608C56.0797 53.5137 56.5606 53.7273 56.8059 54.1416L57.9855 56.1333C58.4051 56.842 58.1967 57.7544 57.5106 58.2103L56.2571 59.0442C57.1417 61.1627 58.8322 62.8601 60.9446 63.7431L61.7861 62.4865C62.2458 61.802 63.159 61.5967 63.867 62.0186Z" fill="white"/>
</svg>
