<svg width="25" height="25" viewBox="0 0 25 25" fill="none" xmlns="http://www.w3.org/2000/svg">
<mask id="path-1-inside-1_4827_1310" fill="white">
<path d="M5.79343 9.35805L2.76343 6.32805C2.72821 6.29287 2.70028 6.2511 2.68121 6.20512C2.66215 6.15914 2.65234 6.10986 2.65234 6.06008C2.65234 6.01031 2.66215 5.96102 2.68121 5.91505C2.70028 5.86907 2.72821 5.82729 2.76343 5.79212L5.79343 2.76212C5.82862 2.72693 5.87039 2.69901 5.91637 2.67997C5.96235 2.66093 6.01163 2.65112 6.06139 2.65112C6.11116 2.65112 6.16044 2.66093 6.20641 2.67997C6.25239 2.69901 6.29417 2.72693 6.32936 2.76212C6.36455 2.79731 6.39246 2.83908 6.41151 2.88506C6.43055 2.93104 6.44035 2.98032 6.44035 3.03008C6.44035 3.07985 6.43055 3.12913 6.41151 3.17511C6.39246 3.22108 6.36455 3.26286 6.32936 3.29805L3.56732 6.06008L6.32936 8.82212C6.36455 8.85731 6.39246 8.89908 6.41151 8.94506C6.43055 8.99104 6.44035 9.04032 6.44035 9.09008C6.44035 9.13985 6.43055 9.18913 6.41151 9.23511C6.39246 9.28108 6.36455 9.32286 6.32936 9.35805C6.29417 9.39324 6.25239 9.42115 6.20641 9.4402C6.16044 9.45924 6.11116 9.46905 6.06139 9.46905C6.01163 9.46905 5.96235 9.45924 5.91637 9.4402C5.87039 9.42115 5.82862 9.39324 5.79343 9.35805ZM9.58092 9.35805C9.6161 9.39327 9.65787 9.4212 9.70385 9.44026C9.74983 9.45932 9.79912 9.46913 9.84889 9.46913C9.89866 9.46913 9.94795 9.45932 9.99393 9.44026C10.0399 9.4212 10.0817 9.39327 10.1169 9.35805L13.1469 6.32805C13.1821 6.29287 13.21 6.2511 13.2291 6.20512C13.2481 6.15914 13.2579 6.10986 13.2579 6.06008C13.2579 6.01031 13.2481 5.96102 13.2291 5.91505C13.21 5.86907 13.1821 5.82729 13.1469 5.79212L10.1169 2.76212C10.0817 2.72693 10.0399 2.69901 9.99391 2.67997C9.94794 2.66093 9.89866 2.65112 9.84889 2.65112C9.79912 2.65112 9.74985 2.66093 9.70387 2.67997C9.65789 2.69901 9.61611 2.72693 9.58092 2.76212C9.54574 2.79731 9.51782 2.83908 9.49878 2.88506C9.47973 2.93104 9.46993 2.98032 9.46993 3.03008C9.46993 3.07985 9.47973 3.12913 9.49878 3.17511C9.51782 3.22108 9.54574 3.26286 9.58092 3.29805L12.343 6.06008L9.58092 8.82212C9.54571 8.85729 9.51777 8.89907 9.49871 8.94504C9.47965 8.99102 9.46984 9.04031 9.46984 9.09008C9.46984 9.13986 9.47965 9.18914 9.49871 9.23512C9.51777 9.2811 9.54571 9.32287 9.58092 9.35805ZM18.9389 4.16633H16.6664C16.5659 4.16633 16.4696 4.20624 16.3986 4.27727C16.3275 4.3483 16.2876 4.44463 16.2876 4.54508C16.2876 4.64553 16.3275 4.74187 16.3986 4.8129C16.4696 4.88393 16.5659 4.92383 16.6664 4.92383H18.9389C19.0393 4.92383 19.1357 4.96374 19.2067 5.03477C19.2777 5.1058 19.3176 5.20213 19.3176 5.30258V18.9376C19.3176 19.038 19.2777 19.1344 19.2067 19.2054C19.1357 19.2764 19.0393 19.3163 18.9389 19.3163H5.30389C5.20344 19.3163 5.1071 19.2764 5.03607 19.2054C4.96505 19.1344 4.92514 19.038 4.92514 18.9376V12.8776C4.92514 12.7771 4.88524 12.6808 4.81421 12.6098C4.74318 12.5387 4.64684 12.4988 4.54639 12.4988C4.44594 12.4988 4.3496 12.5387 4.27857 12.6098C4.20755 12.6808 4.16764 12.7771 4.16764 12.8776V18.9376C4.16764 19.2389 4.28735 19.5279 4.50044 19.741C4.71353 19.9541 5.00254 20.0738 5.30389 20.0738H18.9389C19.2402 20.0738 19.5293 19.9541 19.7423 19.741C19.9554 19.5279 20.0751 19.2389 20.0751 18.9376V5.30258C20.0751 5.00123 19.9554 4.71222 19.7423 4.49913C19.5293 4.28605 19.2402 4.16633 18.9389 4.16633Z"/>
</mask>
<path d="M5.79343 9.35805L2.76343 6.32805C2.72821 6.29287 2.70028 6.2511 2.68121 6.20512C2.66215 6.15914 2.65234 6.10986 2.65234 6.06008C2.65234 6.01031 2.66215 5.96102 2.68121 5.91505C2.70028 5.86907 2.72821 5.82729 2.76343 5.79212L5.79343 2.76212C5.82862 2.72693 5.87039 2.69901 5.91637 2.67997C5.96235 2.66093 6.01163 2.65112 6.06139 2.65112C6.11116 2.65112 6.16044 2.66093 6.20641 2.67997C6.25239 2.69901 6.29417 2.72693 6.32936 2.76212C6.36455 2.79731 6.39246 2.83908 6.41151 2.88506C6.43055 2.93104 6.44035 2.98032 6.44035 3.03008C6.44035 3.07985 6.43055 3.12913 6.41151 3.17511C6.39246 3.22108 6.36455 3.26286 6.32936 3.29805L3.56732 6.06008L6.32936 8.82212C6.36455 8.85731 6.39246 8.89908 6.41151 8.94506C6.43055 8.99104 6.44035 9.04032 6.44035 9.09008C6.44035 9.13985 6.43055 9.18913 6.41151 9.23511C6.39246 9.28108 6.36455 9.32286 6.32936 9.35805C6.29417 9.39324 6.25239 9.42115 6.20641 9.4402C6.16044 9.45924 6.11116 9.46905 6.06139 9.46905C6.01163 9.46905 5.96235 9.45924 5.91637 9.4402C5.87039 9.42115 5.82862 9.39324 5.79343 9.35805ZM9.58092 9.35805C9.6161 9.39327 9.65787 9.4212 9.70385 9.44026C9.74983 9.45932 9.79912 9.46913 9.84889 9.46913C9.89866 9.46913 9.94795 9.45932 9.99393 9.44026C10.0399 9.4212 10.0817 9.39327 10.1169 9.35805L13.1469 6.32805C13.1821 6.29287 13.21 6.2511 13.2291 6.20512C13.2481 6.15914 13.2579 6.10986 13.2579 6.06008C13.2579 6.01031 13.2481 5.96102 13.2291 5.91505C13.21 5.86907 13.1821 5.82729 13.1469 5.79212L10.1169 2.76212C10.0817 2.72693 10.0399 2.69901 9.99391 2.67997C9.94794 2.66093 9.89866 2.65112 9.84889 2.65112C9.79912 2.65112 9.74985 2.66093 9.70387 2.67997C9.65789 2.69901 9.61611 2.72693 9.58092 2.76212C9.54574 2.79731 9.51782 2.83908 9.49878 2.88506C9.47973 2.93104 9.46993 2.98032 9.46993 3.03008C9.46993 3.07985 9.47973 3.12913 9.49878 3.17511C9.51782 3.22108 9.54574 3.26286 9.58092 3.29805L12.343 6.06008L9.58092 8.82212C9.54571 8.85729 9.51777 8.89907 9.49871 8.94504C9.47965 8.99102 9.46984 9.04031 9.46984 9.09008C9.46984 9.13986 9.47965 9.18914 9.49871 9.23512C9.51777 9.2811 9.54571 9.32287 9.58092 9.35805ZM18.9389 4.16633H16.6664C16.5659 4.16633 16.4696 4.20624 16.3986 4.27727C16.3275 4.3483 16.2876 4.44463 16.2876 4.54508C16.2876 4.64553 16.3275 4.74187 16.3986 4.8129C16.4696 4.88393 16.5659 4.92383 16.6664 4.92383H18.9389C19.0393 4.92383 19.1357 4.96374 19.2067 5.03477C19.2777 5.1058 19.3176 5.20213 19.3176 5.30258V18.9376C19.3176 19.038 19.2777 19.1344 19.2067 19.2054C19.1357 19.2764 19.0393 19.3163 18.9389 19.3163H5.30389C5.20344 19.3163 5.1071 19.2764 5.03607 19.2054C4.96505 19.1344 4.92514 19.038 4.92514 18.9376V12.8776C4.92514 12.7771 4.88524 12.6808 4.81421 12.6098C4.74318 12.5387 4.64684 12.4988 4.54639 12.4988C4.44594 12.4988 4.3496 12.5387 4.27857 12.6098C4.20755 12.6808 4.16764 12.7771 4.16764 12.8776V18.9376C4.16764 19.2389 4.28735 19.5279 4.50044 19.741C4.71353 19.9541 5.00254 20.0738 5.30389 20.0738H18.9389C19.2402 20.0738 19.5293 19.9541 19.7423 19.741C19.9554 19.5279 20.0751 19.2389 20.0751 18.9376V5.30258C20.0751 5.00123 19.9554 4.71222 19.7423 4.49913C19.5293 4.28605 19.2402 4.16633 18.9389 4.16633Z" fill="white"/>
<path d="M5.79343 9.35805L2.965 12.1865H2.965L5.79343 9.35805ZM2.76343 6.32805L5.59185 3.49962L5.59028 3.49805L2.76343 6.32805ZM2.65234 6.06008H-1.34766H2.65234ZM2.76343 5.79212L5.59028 8.62212L5.59185 8.62054L2.76343 5.79212ZM6.44035 3.03008H10.4404H6.44035ZM6.32936 3.29805L9.15778 6.12648V6.12648L6.32936 3.29805ZM3.56732 6.06008L0.738896 3.23166L-2.08953 6.06008L0.738896 8.88851L3.56732 6.06008ZM6.32936 8.82212L3.50093 11.6505L6.32936 8.82212ZM6.06139 9.46905V13.469V9.46905ZM9.58092 9.35805L12.4109 6.5312L12.4078 6.52805L9.58092 9.35805ZM10.1169 9.35805L7.28843 6.52962L7.28686 6.5312L10.1169 9.35805ZM13.1469 6.32805L10.32 3.49805L10.3184 3.49962L13.1469 6.32805ZM13.1469 5.79212L10.3184 8.62055L10.32 8.62212L13.1469 5.79212ZM10.1169 2.76212L7.28843 5.59054L10.1169 2.76212ZM9.46993 3.03008H5.46993H9.46993ZM12.343 6.06008L15.1714 8.88851L17.9998 6.06008L15.1714 3.23166L12.343 6.06008ZM9.58092 8.82212L12.4078 11.6521L12.4094 11.6505L9.58092 8.82212ZM4.16764 18.9376H8.16764H4.16764ZM18.9389 20.0738V24.0738V20.0738ZM20.0751 5.30258H24.0751H20.0751ZM5.79343 9.35805L8.62185 6.52962L5.59185 3.49962L2.76343 6.32805L-0.0650015 9.15648L2.965 12.1865L5.79343 9.35805ZM2.76343 6.32805L5.59028 3.49805C5.92698 3.83437 6.19407 4.23376 6.37631 4.67336L2.68121 6.20512L-1.01388 7.73688C-0.793523 8.26845 -0.470554 8.75138 -0.0634274 9.15805L2.76343 6.32805ZM2.68121 6.20512L6.37631 4.67336C6.55854 5.11297 6.65234 5.58419 6.65234 6.06008H2.65234H-1.34766C-1.34766 6.63552 -1.23423 7.20532 -1.01388 7.73688L2.68121 6.20512ZM2.65234 6.06008H6.65234C6.65234 6.53598 6.55854 7.0072 6.37631 7.44681L2.68121 5.91505L-1.01388 4.38328C-1.23423 4.91485 -1.34766 5.48464 -1.34766 6.06008H2.65234ZM2.68121 5.91505L6.37631 7.44681C6.19407 7.88641 5.92698 8.2858 5.59028 8.62212L2.76343 5.79212L-0.0634274 2.96212C-0.470554 3.36879 -0.793523 3.85172 -1.01388 4.38328L2.68121 5.91505ZM2.76343 5.79212L5.59185 8.62054L8.62185 5.59054L5.79343 2.76212L2.965 -0.066309L-0.0650012 2.96369L2.76343 5.79212ZM5.79343 2.76212L8.62185 5.59054C8.2856 5.92679 7.88642 6.19352 7.4471 6.37549L5.91637 2.67997L4.38564 -1.01555C3.85436 -0.795487 3.37163 -0.472936 2.965 -0.066309L5.79343 2.76212ZM5.91637 2.67997L7.4471 6.37549C7.00778 6.55746 6.53691 6.65112 6.06139 6.65112V2.65112V-1.34888C5.48634 -1.34888 4.91692 -1.23561 4.38564 -1.01555L5.91637 2.67997ZM6.06139 2.65112V6.65112C5.58587 6.65112 5.115 6.55746 4.67568 6.37549L6.20641 2.67997L7.73715 -1.01555C7.20587 -1.23561 6.63644 -1.34888 6.06139 -1.34888V2.65112ZM6.20641 2.67997L4.67568 6.37549C4.23636 6.19352 3.83718 5.92679 3.50093 5.59054L6.32936 2.76212L9.15778 -0.066309C8.75116 -0.472936 8.26842 -0.795487 7.73715 -1.01555L6.20641 2.67997ZM6.32936 2.76212L3.50093 5.59054C3.16467 5.25429 2.89796 4.85511 2.71599 4.4158L6.41151 2.88506L10.107 1.35433C9.88697 0.823063 9.56442 0.340327 9.15778 -0.066309L6.32936 2.76212ZM6.41151 2.88506L2.71599 4.4158C2.53402 3.9765 2.44035 3.50563 2.44035 3.03008H6.44035H10.4404C10.4404 2.455 10.3271 1.88558 10.107 1.35433L6.41151 2.88506ZM6.44035 3.03008H2.44035C2.44035 2.55453 2.53402 2.08367 2.71599 1.64437L6.41151 3.17511L10.107 4.70584C10.3271 4.17459 10.4404 3.60517 10.4404 3.03008H6.44035ZM6.41151 3.17511L2.71599 1.64437C2.89795 1.20507 3.16467 0.805882 3.50093 0.469623L6.32936 3.29805L9.15778 6.12648C9.56442 5.71984 9.88697 5.2371 10.107 4.70584L6.41151 3.17511ZM6.32936 3.29805L3.50093 0.469622L0.738896 3.23166L3.56732 6.06008L6.39575 8.88851L9.15778 6.12648L6.32936 3.29805ZM3.56732 6.06008L0.738896 8.88851L3.50093 11.6505L6.32936 8.82212L9.15778 5.99369L6.39575 3.23166L3.56732 6.06008ZM6.32936 8.82212L3.50093 11.6505C3.16467 11.3143 2.89795 10.9151 2.71599 10.4758L6.41151 8.94506L10.107 7.41433C9.88697 6.88307 9.56442 6.40033 9.15778 5.99369L6.32936 8.82212ZM6.41151 8.94506L2.71599 10.4758C2.53402 10.0365 2.44035 9.56563 2.44035 9.09008H6.44035H10.4404C10.4404 8.515 10.3271 7.94558 10.107 7.41433L6.41151 8.94506ZM6.44035 9.09008H2.44035C2.44035 8.61453 2.53402 8.14367 2.71599 7.70437L6.41151 9.23511L10.107 10.7658C10.3271 10.2346 10.4404 9.66517 10.4404 9.09008H6.44035ZM6.41151 9.23511L2.71599 7.70437C2.89795 7.26507 3.16467 6.86588 3.50093 6.52962L6.32936 9.35805L9.15778 12.1865C9.56442 11.7798 9.88697 11.2971 10.107 10.7658L6.41151 9.23511ZM6.32936 9.35805L3.50093 6.52962C3.83719 6.19336 4.23637 5.92665 4.67568 5.74468L6.20641 9.4402L7.73715 13.1357C8.26841 12.9157 8.75115 12.5931 9.15778 12.1865L6.32936 9.35805ZM6.20641 9.4402L4.67568 5.74468C5.11498 5.56272 5.58584 5.46905 6.06139 5.46905V9.46905V13.469C6.63647 13.469 7.20589 13.3558 7.73715 13.1357L6.20641 9.4402ZM6.06139 9.46905V5.46905C6.53694 5.46905 7.00781 5.56272 7.4471 5.74468L5.91637 9.4402L4.38564 13.1357C4.91689 13.3558 5.48631 13.469 6.06139 13.469V9.46905ZM5.91637 9.4402L7.4471 5.74468C7.88641 5.92665 8.28559 6.19336 8.62185 6.52962L5.79343 9.35805L2.965 12.1865C3.37164 12.5931 3.85438 12.9157 4.38564 13.1357L5.91637 9.4402ZM9.58092 9.35805L6.75092 12.1849C7.15761 12.592 7.64054 12.915 8.17209 13.1354L9.70385 9.44026L11.2356 5.74517C11.6752 5.9274 12.0746 6.19449 12.4109 6.5312L9.58092 9.35805ZM9.70385 9.44026L8.17209 13.1354C8.70369 13.3557 9.27348 13.4691 9.84889 13.4691V9.46913V5.46913C10.3248 5.46913 10.796 5.56292 11.2356 5.74517L9.70385 9.44026ZM9.84889 9.46913V13.4691C10.4243 13.4691 10.9941 13.3557 11.5257 13.1354L9.99393 9.44026L8.46217 5.74517C8.90182 5.56292 9.37304 5.46913 9.84889 5.46913V9.46913ZM9.99393 9.44026L11.5257 13.1354C12.0573 12.915 12.5402 12.592 12.9469 12.1849L10.1169 9.35805L7.28686 6.5312C7.62316 6.19452 8.02253 5.92742 8.46217 5.74517L9.99393 9.44026ZM10.1169 9.35805L12.9453 12.1865L15.9753 9.15648L13.1469 6.32805L10.3184 3.49962L7.28843 6.52962L10.1169 9.35805ZM13.1469 6.32805L15.9737 9.15805C16.3808 8.75138 16.7038 8.26846 16.9242 7.73688L13.2291 6.20512L9.53398 4.67336C9.71621 4.23375 9.98331 3.83437 10.32 3.49805L13.1469 6.32805ZM13.2291 6.20512L16.9242 7.73688C17.1445 7.20528 17.2579 6.63549 17.2579 6.06008H13.2579H9.25794C9.25794 5.58423 9.35173 5.113 9.53398 4.67336L13.2291 6.20512ZM13.2579 6.06008H17.2579C17.2579 5.48468 17.1445 4.91489 16.9242 4.38328L13.2291 5.91505L9.53398 7.44681C9.35173 7.00716 9.25794 6.53594 9.25794 6.06008H13.2579ZM13.2291 5.91505L16.9242 4.38328C16.7038 3.85171 16.3808 3.36879 15.9737 2.96212L13.1469 5.79212L10.32 8.62212C9.98331 8.2858 9.71621 7.88642 9.53398 7.44681L13.2291 5.91505ZM13.1469 5.79212L15.9753 2.96369L12.9453 -0.066309L10.1169 2.76212L7.28843 5.59054L10.3184 8.62054L13.1469 5.79212ZM10.1169 2.76212L12.9453 -0.066309C12.5387 -0.472936 12.0559 -0.795487 11.5246 -1.01555L9.99391 2.67997L8.46318 6.37549C8.02386 6.19352 7.62468 5.92679 7.28843 5.59054L10.1169 2.76212ZM9.99391 2.67997L11.5246 -1.01555C10.9934 -1.23561 10.4239 -1.34888 9.84889 -1.34888V2.65112V6.65112C9.37337 6.65112 8.9025 6.55746 8.46318 6.37549L9.99391 2.67997ZM9.84889 2.65112V-1.34888C9.27384 -1.34888 8.70442 -1.23561 8.17313 -1.01555L9.70387 2.67997L11.2346 6.37549C10.7953 6.55746 10.3244 6.65112 9.84889 6.65112V2.65112ZM9.70387 2.67997L8.17313 -1.01555C7.64186 -0.795487 7.15913 -0.472936 6.7525 -0.066309L9.58092 2.76212L12.4094 5.59054C12.0731 5.92679 11.6739 6.19352 11.2346 6.37549L9.70387 2.67997ZM9.58092 2.76212L6.7525 -0.066309C6.34586 0.340327 6.02332 0.823063 5.80326 1.35433L9.49878 2.88506L13.1943 4.4158C13.0123 4.85511 12.7456 5.25429 12.4094 5.59054L9.58092 2.76212ZM9.49878 2.88506L5.80326 1.35433C5.58321 1.88558 5.46993 2.455 5.46993 3.03008H9.46993H13.4699C13.4699 3.50563 13.3763 3.9765 13.1943 4.4158L9.49878 2.88506ZM9.46993 3.03008H5.46993C5.46993 3.60517 5.58321 4.17459 5.80326 4.70584L9.49878 3.17511L13.1943 1.64437C13.3763 2.08367 13.4699 2.55453 13.4699 3.03008H9.46993ZM9.49878 3.17511L5.80326 4.70584C6.02331 5.2371 6.34586 5.71984 6.7525 6.12648L9.58092 3.29805L12.4094 0.469623C12.7456 0.805882 13.0123 1.20507 13.1943 1.64437L9.49878 3.17511ZM9.58092 3.29805L6.7525 6.12648L9.51453 8.88851L12.343 6.06008L15.1714 3.23166L12.4094 0.469623L9.58092 3.29805ZM12.343 6.06008L9.51453 3.23166L6.7525 5.99369L9.58092 8.82212L12.4094 11.6505L15.1714 8.88851L12.343 6.06008ZM9.58092 8.82212L6.75407 5.99212C6.34697 6.39877 6.02399 6.88169 5.80362 7.41328L9.49871 8.94504L13.1938 10.4768C13.0116 10.9164 12.7445 11.3158 12.4078 11.6521L9.58092 8.82212ZM9.49871 8.94504L5.80362 7.41328C5.58325 7.94489 5.46984 8.51469 5.46984 9.09008H9.46984H13.4698C13.4698 9.56593 13.3761 10.0372 13.1938 10.4768L9.49871 8.94504ZM9.46984 9.09008H5.46984C5.46984 9.66549 5.58325 10.2353 5.80362 10.7669L9.49871 9.23512L13.1938 7.70336C13.3761 8.143 13.4698 8.61422 13.4698 9.09008H9.46984ZM9.49871 9.23512L5.80362 10.7669C6.02397 11.2984 6.34694 11.7814 6.75407 12.1881L9.58092 9.35805L12.4078 6.52805C12.7445 6.86438 13.0116 7.26377 13.1938 7.70336L9.49871 9.23512ZM18.9389 4.16633V0.166334H16.6664V4.16633V8.16633H18.9389V4.16633ZM16.6664 4.16633V0.166334C15.5051 0.166334 14.3913 0.627664 13.5701 1.44884L16.3986 4.27727L19.227 7.10569C18.5479 7.78481 17.6268 8.16633 16.6664 8.16633V4.16633ZM16.3986 4.27727L13.5701 1.44884C12.749 2.27002 12.2876 3.38377 12.2876 4.54508H16.2876H20.2876C20.2876 5.50549 19.9061 6.42657 19.227 7.10569L16.3986 4.27727ZM16.2876 4.54508H12.2876C12.2876 5.70639 12.749 6.82015 13.5701 7.64133L16.3986 4.8129L19.227 1.98447C19.9061 2.66359 20.2876 3.58468 20.2876 4.54508H16.2876ZM16.3986 4.8129L13.5701 7.64133C14.3913 8.4625 15.5051 8.92383 16.6664 8.92383V4.92383V0.923834C17.6268 0.923834 18.5479 1.30536 19.227 1.98447L16.3986 4.8129ZM16.6664 4.92383V8.92383H18.9389V4.92383V0.923834H16.6664V4.92383ZM18.9389 4.92383V8.92383C17.9785 8.92383 17.0574 8.54231 16.3783 7.86319L19.2067 5.03477L22.0351 2.20634C21.214 1.38516 20.1002 0.923834 18.9389 0.923834V4.92383ZM19.2067 5.03477L16.3783 7.86319C15.6992 7.18407 15.3176 6.26299 15.3176 5.30258H19.3176H23.3176C23.3176 4.14127 22.8563 3.02752 22.0351 2.20634L19.2067 5.03477ZM19.3176 5.30258H15.3176V18.9376H19.3176H23.3176V5.30258H19.3176ZM19.3176 18.9376H15.3176C15.3176 17.9772 15.6992 17.0561 16.3783 16.377L19.2067 19.2054L22.0351 22.0338C22.8563 21.2126 23.3176 20.0989 23.3176 18.9376H19.3176ZM19.2067 19.2054L16.3783 16.377C17.0574 15.6979 17.9785 15.3163 18.9389 15.3163V19.3163V23.3163C20.1002 23.3163 21.214 22.855 22.0351 22.0338L19.2067 19.2054ZM18.9389 19.3163V15.3163H5.30389V19.3163V23.3163H18.9389V19.3163ZM5.30389 19.3163V15.3163C6.2643 15.3163 7.18538 15.6979 7.8645 16.377L5.03607 19.2054L2.20765 22.0338C3.02883 22.855 4.14258 23.3163 5.30389 23.3163V19.3163ZM5.03607 19.2054L7.8645 16.377C8.54362 17.0561 8.92514 17.9772 8.92514 18.9376H4.92514H0.925142C0.925142 20.0989 1.38647 21.2127 2.20765 22.0338L5.03607 19.2054ZM4.92514 18.9376H8.92514V12.8776H4.92514H0.925142V18.9376H4.92514ZM4.92514 12.8776H8.92514C8.92514 11.7163 8.46381 10.6025 7.64264 9.78134L4.81421 12.6098L1.98578 15.4382C1.30666 14.7591 0.925142 13.838 0.925142 12.8776H4.92514ZM4.81421 12.6098L7.64264 9.78134C6.82146 8.96016 5.7077 8.49883 4.54639 8.49883V12.4988V16.4988C3.58598 16.4988 2.6649 16.1173 1.98578 15.4382L4.81421 12.6098ZM4.54639 12.4988V8.49883C3.38508 8.49883 2.27133 8.96016 1.45015 9.78134L4.27857 12.6098L7.107 15.4382C6.42788 16.1173 5.5068 16.4988 4.54639 16.4988V12.4988ZM4.27857 12.6098L1.45015 9.78134C0.628972 10.6025 0.167642 11.7163 0.167642 12.8776H4.16764H8.16764C8.16764 13.838 7.78612 14.7591 7.107 15.4382L4.27857 12.6098ZM4.16764 12.8776H0.167642V18.9376H4.16764H8.16764V12.8776H4.16764ZM4.16764 18.9376H0.167642C0.167642 20.2998 0.708781 21.6062 1.67201 22.5695L4.50044 19.741L7.32887 16.9126C7.86593 17.4497 8.16764 18.1781 8.16764 18.9376H4.16764ZM4.50044 19.741L1.67201 22.5695C2.63524 23.5327 3.94167 24.0738 5.30389 24.0738V20.0738V16.0738C6.06341 16.0738 6.79181 16.3756 7.32887 16.9126L4.50044 19.741ZM5.30389 20.0738V24.0738H18.9389V20.0738V16.0738H5.30389V20.0738ZM18.9389 20.0738V24.0738C20.3011 24.0738 21.6075 23.5327 22.5708 22.5695L19.7423 19.741L16.9139 16.9126C17.451 16.3756 18.1794 16.0738 18.9389 16.0738V20.0738ZM19.7423 19.741L22.5708 22.5695C23.534 21.6062 24.0751 20.2998 24.0751 18.9376H20.0751H16.0751C16.0751 18.1781 16.3769 17.4497 16.9139 16.9126L19.7423 19.741ZM20.0751 18.9376H24.0751V5.30258H20.0751H16.0751V18.9376H20.0751ZM20.0751 5.30258H24.0751C24.0751 3.94036 23.534 2.63394 22.5708 1.67071L19.7423 4.49913L16.9139 7.32756C16.3769 6.79051 16.0751 6.0621 16.0751 5.30258H20.0751ZM19.7423 4.49913L22.5708 1.67071C21.6075 0.707473 20.3011 0.166334 18.9389 0.166334V4.16633V8.16633C18.1794 8.16633 17.451 7.86462 16.9139 7.32756L19.7423 4.49913Z" fill="white" mask="url(#path-1-inside-1_4827_1310)"/>
</svg>
