<svg width="159" height="29" viewBox="0 0 159 29" fill="none" xmlns="http://www.w3.org/2000/svg">
<g clip-path="url(#clip0_1965_1981)">
<mask id="mask0_1965_1981" style="mask-type:luminance" maskUnits="userSpaceOnUse" x="0" y="0" width="159" height="29">
<path d="M158.375 0H0V28.0324H158.375V0Z" fill="white"/>
</mask>
<g mask="url(#mask0_1965_1981)">
<path d="M52.6085 10.3722C52.6104 10.5552 52.5764 10.7368 52.5088 10.9067C52.4462 11.0667 52.3513 11.2121 52.2302 11.3341C52.1093 11.4561 51.9646 11.5519 51.805 11.6158C51.6339 11.6855 51.4507 11.721 51.2657 11.72H47.7529V10.759H51.2657C51.3164 10.762 51.3672 10.7546 51.4147 10.7372C51.4624 10.7197 51.5059 10.6926 51.5427 10.6576C51.5772 10.619 51.6038 10.5739 51.6211 10.5249C51.6379 10.4759 51.6452 10.424 51.6418 10.3722V6.43311H52.6085V10.3722Z" fill="#191C1F"/>
<path d="M58.8872 11.2341C58.8877 11.2999 58.8752 11.3651 58.85 11.426C58.8265 11.4834 58.7917 11.5354 58.7473 11.5788C58.7022 11.622 58.6496 11.6564 58.5921 11.6802C58.5339 11.7055 58.4715 11.719 58.4081 11.72H56.2439C56.0355 11.7195 55.8279 11.6971 55.6242 11.6534C55.4151 11.6091 55.2116 11.5405 55.0182 11.4492C54.8203 11.3556 54.635 11.2373 54.4666 11.0972C54.2923 10.9513 54.1401 10.7805 54.0153 10.5902C53.881 10.3832 53.7785 10.1571 53.7117 9.91959C53.6345 9.64578 53.5975 9.36241 53.6008 9.07803V6.43311H54.559V9.07585C54.552 9.31054 54.5905 9.54437 54.6719 9.7646C54.7378 9.93669 54.8344 10.0953 54.9576 10.2325C55.0659 10.3521 55.1942 10.4519 55.3372 10.5272C55.4612 10.5918 55.5919 10.6435 55.7263 10.6815C55.8337 10.7131 55.9436 10.7347 56.0548 10.7459C56.1495 10.7546 56.2113 10.759 56.2411 10.759H57.9252V6.43311H58.8842L58.8872 11.2341Z" fill="#191C1F"/>
<path d="M65.0802 10.1622C65.0819 10.3339 65.0577 10.5049 65.008 10.6692C64.9641 10.8107 64.9004 10.9451 64.8179 11.0683C64.7421 11.1807 64.6485 11.2802 64.5412 11.363C64.4397 11.4416 64.3298 11.5084 64.2136 11.5622C64.1032 11.6128 63.9873 11.6512 63.8685 11.6766C63.7601 11.7003 63.6496 11.7127 63.5387 11.7135H59.8424V10.759H63.5387C63.6176 10.7639 63.6968 10.7519 63.7709 10.724C63.8446 10.696 63.912 10.6526 63.9678 10.5968C64.0742 10.4777 64.129 10.3215 64.1208 10.1622C64.1219 10.0793 64.1082 9.99692 64.0801 9.91888C64.0549 9.84799 64.0154 9.78294 63.9643 9.72767C63.9128 9.67281 63.8499 9.63002 63.7801 9.60238C63.7034 9.57199 63.6212 9.55699 63.5387 9.55819H61.3348C61.1644 9.55542 60.9952 9.52734 60.8332 9.47492C60.6516 9.41786 60.4821 9.32719 60.3339 9.20768C60.1734 9.07583 60.0428 8.91142 59.9506 8.72533C59.8424 8.49751 59.79 8.24729 59.7976 7.9953C59.7905 7.7452 59.8431 7.49699 59.9506 7.27105C60.039 7.0922 60.1627 6.93313 60.3144 6.80353C60.4663 6.67391 60.6428 6.57648 60.8332 6.51714C60.9952 6.46445 61.1644 6.43613 61.3348 6.43311H64.5962V7.392H61.3348C61.2561 7.38744 61.1775 7.39991 61.1039 7.42852C61.0307 7.45716 60.964 7.50127 60.9095 7.55784C60.8044 7.67778 60.7499 7.83332 60.7566 7.9924C60.7482 8.15173 60.803 8.30792 60.9095 8.42695C60.9651 8.48199 61.0317 8.52472 61.105 8.55229C61.1782 8.57986 61.2565 8.59168 61.3348 8.58699H63.5466C63.6574 8.59063 63.7673 8.60493 63.8751 8.62974C63.9939 8.6566 64.1095 8.69668 64.2194 8.74923C64.3355 8.80458 64.4448 8.87311 64.5455 8.95345C64.6512 9.03844 64.7436 9.1385 64.8201 9.25041C64.9034 9.37247 64.9674 9.50655 65.01 9.64801C65.0598 9.81479 65.0835 9.98823 65.0802 10.1622Z" fill="#191C1F"/>
<path d="M70.5973 7.392H68.4855V11.72H67.5267V7.392H65.4111V6.43311H70.5973V7.392Z" fill="#191C1F"/>
<path d="M76.0797 7.392H73.9671V11.72H73.0089V7.392H70.8926V6.43311H76.0797V7.392Z" fill="#191C1F"/>
<path d="M82.0671 8.20952C82.0696 8.40779 82.0422 8.60533 81.9858 8.79543C81.9372 8.95726 81.8639 9.11067 81.7684 9.25022C81.6797 9.37819 81.5723 9.49198 81.4494 9.58775C81.333 9.6788 81.2063 9.75608 81.072 9.81802C80.9447 9.8767 80.8112 9.92046 80.6739 9.9484C80.5497 9.97462 80.4228 9.98823 80.2958 9.98897L82.2953 11.7199H80.8132L78.8158 9.98897H78.1264V9.0315H80.2958C80.4091 9.023 80.5204 8.99734 80.6262 8.95547C80.7215 8.91735 80.8091 8.86185 80.8842 8.79179C80.9572 8.72189 81.0142 8.63718 81.0516 8.54339C81.0925 8.43688 81.1126 8.32353 81.1102 8.20952V7.60549C81.1126 7.56346 81.1056 7.52144 81.0899 7.48237C81.0792 7.45689 81.0616 7.43502 81.0384 7.41936C81.0185 7.40665 80.9962 7.3985 80.9726 7.39547C80.9488 7.39547 80.9277 7.39547 80.9081 7.39547H77.7431V11.7199H76.7842V6.91674C76.785 6.79018 76.8347 6.66875 76.9226 6.57778C76.9658 6.5333 77.0181 6.49826 77.0756 6.47495C77.1359 6.4482 77.201 6.43391 77.2669 6.43296H80.906C81.0931 6.42696 81.279 6.46671 81.4474 6.54883C81.5875 6.61855 81.7109 6.71731 81.8096 6.83852C81.8995 6.95057 81.9672 7.0786 82.009 7.21584C82.0476 7.33871 82.068 7.46657 82.0699 7.59534L82.0671 8.20952Z" fill="#191C1F"/>
<path d="M88.0639 8.20244C88.0667 8.40082 88.0389 8.59847 87.9812 8.78835C87.9318 8.94989 87.8585 9.10318 87.7639 9.24317C87.676 9.37177 87.5685 9.48569 87.445 9.58067C87.3279 9.67078 87.2014 9.74778 87.0674 9.81023C86.9409 9.86969 86.8078 9.9137 86.6708 9.94132C86.5465 9.96721 86.4203 9.98082 86.2931 9.98189H85.9064V11.72H84.9379V9.98189H84.5546C84.4276 9.98082 84.3014 9.96721 84.1771 9.94132C84.0394 9.91346 83.9054 9.86945 83.7784 9.81023C83.6441 9.74828 83.5176 9.67124 83.4009 9.58067C83.2781 9.4849 83.1704 9.37111 83.0819 9.24317C82.9853 9.10293 82.9107 8.94885 82.8608 8.78616C82.8032 8.59705 82.775 8.40016 82.7775 8.20244V6.43311H83.7365V8.20244C83.7346 8.31761 83.7547 8.4321 83.7951 8.53992C83.8323 8.63556 83.8888 8.72256 83.961 8.79557C84.0347 8.86855 84.1235 8.92442 84.2211 8.95925C84.3302 8.99875 84.4458 9.01815 84.5619 9.01647H86.291C86.3818 9.00198 86.4752 8.98317 86.5709 8.95925C86.6651 8.93687 86.7543 8.8963 86.8332 8.83977C86.916 8.77845 86.9828 8.69822 87.0281 8.60584C87.0861 8.47945 87.1132 8.34129 87.1078 8.20244V6.43311H88.066L88.0639 8.20244Z" fill="#191C1F"/>
<path d="M96.016 7.392H93.9033V11.72H92.9451V7.392H90.8291V6.43311H96.016V7.392Z" fill="#191C1F"/>
<path d="M101.497 11.72H98.0393C97.8917 11.7168 97.7452 11.6924 97.6046 11.6476C97.4459 11.5999 97.2981 11.5217 97.1698 11.4173C97.0298 11.3035 96.9156 11.1617 96.8342 11.0009C96.7389 10.8056 96.6928 10.5901 96.6999 10.373V6.91689C96.6996 6.79064 96.7481 6.66915 96.8355 6.57797C96.8791 6.53378 96.931 6.4988 96.9883 6.47512C97.0493 6.44825 97.1152 6.43396 97.182 6.43311H101.499V7.392H97.6573V10.3722C97.6537 10.4247 97.6606 10.4774 97.6776 10.5272C97.6947 10.577 97.7216 10.6228 97.7568 10.662C97.7962 10.6969 97.842 10.7236 97.8917 10.7406C97.9414 10.7577 97.9942 10.7646 98.0468 10.7612H101.497V11.72ZM101.066 9.56109H98.0393V8.59279H101.066V9.56109Z" fill="#191C1F"/>
<path d="M107.123 11.7201H103.665C103.569 11.7192 103.474 11.7085 103.38 11.6883C103.275 11.6672 103.174 11.6346 103.077 11.5912C102.975 11.5455 102.879 11.4879 102.791 11.4196C102.699 11.3472 102.617 11.2616 102.55 11.1654C102.476 11.0592 102.42 10.9425 102.383 10.8192C102.339 10.6753 102.317 10.5256 102.32 10.3752V7.77882C102.32 7.68287 102.331 7.58729 102.351 7.49347C102.372 7.3895 102.405 7.28822 102.448 7.19147C102.494 7.0896 102.552 6.99377 102.622 6.90612C102.695 6.81336 102.781 6.73208 102.878 6.66493C102.984 6.59184 103.1 6.53519 103.223 6.49693C103.366 6.45317 103.515 6.43165 103.665 6.43318H107.123V7.39208H103.665C103.613 7.38826 103.56 7.39514 103.51 7.41232C103.46 7.4295 103.414 7.45662 103.375 7.49203C103.34 7.53197 103.313 7.57853 103.296 7.62904C103.279 7.67951 103.272 7.73292 103.276 7.78608V10.3723C103.271 10.4244 103.277 10.4771 103.294 10.5264C103.312 10.5757 103.341 10.6206 103.377 10.6576C103.415 10.6946 103.459 10.7229 103.509 10.7405C103.558 10.7581 103.611 10.7644 103.663 10.7591H107.121L107.123 11.7201Z" fill="#191C1F"/>
<path d="M108.996 8.59279H112.362V6.43311H113.32V11.72H112.362V9.55819H108.996V11.72H108.037V6.43311H108.996V8.59279Z" fill="#191C1F"/>
<path d="M119.722 11.3079C119.722 11.3738 119.709 11.4391 119.683 11.4998C119.658 11.5566 119.623 11.6084 119.58 11.6526C119.536 11.6961 119.484 11.7303 119.427 11.7533C119.367 11.778 119.303 11.7906 119.239 11.7902C119.178 11.7899 119.117 11.7789 119.06 11.7576C118.999 11.7339 118.944 11.6962 118.9 11.6476L115.398 7.99595V11.72H114.439V6.84294C114.439 6.74808 114.468 6.65536 114.523 6.57789C114.575 6.49925 114.649 6.43681 114.735 6.39756C114.823 6.36072 114.921 6.35116 115.015 6.37004C115.11 6.38795 115.196 6.43537 115.262 6.50546L118.764 10.1564V6.43302H119.722V11.3079Z" fill="#191C1F"/>
<path d="M126.384 9.5807C126.387 9.88444 126.331 10.1859 126.218 10.4679C126.114 10.7299 125.958 10.9679 125.758 11.1672C125.559 11.3664 125.321 11.5228 125.058 11.6266C124.779 11.7387 124.481 11.795 124.179 11.7925H122.882C122.58 11.7955 122.281 11.7399 122.001 11.6288C121.739 11.5249 121.501 11.369 121.301 11.1704C121.101 10.9699 120.944 10.7319 120.838 10.4701C120.724 10.1884 120.667 9.88682 120.67 9.58285V8.5711C120.667 8.26764 120.724 7.96657 120.838 7.68534C120.944 7.42325 121.101 7.18507 121.301 6.98502C121.501 6.78739 121.739 6.63155 122.001 6.52658C122.281 6.41408 122.58 6.35775 122.882 6.36073H124.179C124.481 6.35751 124.779 6.41386 125.058 6.52658C125.319 6.63174 125.557 6.78756 125.757 6.98502C125.957 7.18458 126.114 7.42292 126.218 7.68534C126.331 7.9669 126.387 8.26785 126.384 8.5711V9.5807ZM125.426 8.5711C125.428 8.39554 125.397 8.22111 125.335 8.05689C125.28 7.90795 125.192 7.77272 125.08 7.66029C124.967 7.54784 124.832 7.46083 124.683 7.40507C124.521 7.34327 124.349 7.31254 124.176 7.31454H122.878C122.705 7.31272 122.533 7.34341 122.371 7.40507C122.223 7.46158 122.088 7.54813 121.975 7.65929C121.862 7.77096 121.775 7.90526 121.718 8.05328C121.656 8.21753 121.626 8.39195 121.628 8.56748V9.5807C121.626 9.75597 121.656 9.93017 121.718 10.0942C121.775 10.2422 121.862 10.3765 121.975 10.4882C122.088 10.5993 122.223 10.6859 122.371 10.7424C122.533 10.804 122.705 10.8347 122.878 10.8329H124.169C124.342 10.8346 124.514 10.8039 124.676 10.7424C124.824 10.6856 124.959 10.5991 125.072 10.4882C125.184 10.3762 125.271 10.242 125.328 10.0942C125.39 9.93021 125.421 9.75602 125.419 9.5807L125.426 8.5711Z" fill="#191C1F"/>
<path d="M132.187 11.72H127.816C127.75 11.7206 127.684 11.708 127.624 11.6831C127.566 11.6599 127.514 11.6254 127.471 11.5817C127.427 11.5381 127.393 11.4861 127.369 11.4289C127.344 11.368 127.332 11.3028 127.332 11.237V6.43311H128.291V10.759H132.187V11.72Z" fill="#191C1F"/>
<path d="M138.358 9.58067C138.361 9.88439 138.305 10.1858 138.192 10.4679C138.086 10.7297 137.93 10.9679 137.731 11.1682C137.531 11.3665 137.293 11.5224 137.032 11.6267C136.752 11.7386 136.454 11.7949 136.153 11.7925H134.856C134.554 11.7956 134.255 11.74 133.974 11.6288C133.712 11.5248 133.474 11.3688 133.273 11.1704C133.074 10.9699 132.917 10.7319 132.811 10.47C132.697 10.1883 132.64 9.88672 132.644 9.58286V8.5711C132.64 8.26771 132.698 7.96671 132.811 7.68535C132.917 7.42313 133.075 7.18495 133.275 6.985C133.476 6.78753 133.714 6.63172 133.976 6.52656C134.255 6.4142 134.554 6.35785 134.856 6.36072H136.153C136.454 6.35757 136.753 6.41393 137.032 6.52656C137.293 6.63192 137.53 6.7877 137.731 6.985C137.93 7.18497 138.087 7.42321 138.192 7.68535C138.304 7.96701 138.361 8.26787 138.358 8.5711V9.58067ZM137.399 8.5711C137.401 8.39557 137.371 8.22115 137.309 8.05687C137.252 7.90956 137.165 7.77545 137.055 7.66291C136.942 7.55162 136.808 7.46504 136.659 7.40869C136.498 7.34689 136.325 7.31617 136.152 7.31816H134.855C134.682 7.3165 134.51 7.34719 134.348 7.40869C134.199 7.46542 134.065 7.55195 133.951 7.66291C133.839 7.7748 133.752 7.90907 133.695 8.05687C133.633 8.22109 133.602 8.39554 133.605 8.5711V9.58067C133.602 9.756 133.633 9.93019 133.695 10.0942C133.752 10.242 133.839 10.3763 133.951 10.4881C134.065 10.5991 134.199 10.6856 134.348 10.7424C134.51 10.8039 134.682 10.8346 134.855 10.8329H136.145C136.318 10.8346 136.49 10.8039 136.652 10.7424C136.8 10.6856 136.935 10.5991 137.049 10.4881C137.161 10.3763 137.248 10.242 137.305 10.0942C137.367 9.93018 137.397 9.75598 137.395 9.58067L137.399 8.5711Z" fill="#191C1F"/>
<path d="M144.521 11.234C144.521 11.2997 144.509 11.365 144.484 11.4259C144.46 11.4831 144.426 11.535 144.382 11.5787C144.339 11.6223 144.286 11.6568 144.229 11.6801C144.169 11.7051 144.103 11.7177 144.038 11.717H140.58C140.483 11.7163 140.385 11.7056 140.29 11.6852C140.186 11.664 140.085 11.6314 139.988 11.5881C139.886 11.5424 139.791 11.4848 139.703 11.4165C139.61 11.3441 139.529 11.2585 139.461 11.1623C139.388 11.0563 139.331 10.9395 139.294 10.8161C139.25 10.6722 139.229 10.5225 139.231 10.3721V7.7786C139.231 7.68269 139.242 7.58708 139.262 7.49326C139.283 7.38937 139.316 7.28808 139.36 7.19127C139.406 7.08939 139.464 6.99355 139.533 6.90591C139.606 6.81299 139.692 6.73167 139.789 6.66472C139.895 6.5915 140.011 6.53482 140.134 6.49672C140.278 6.45251 140.429 6.43101 140.58 6.43299H144.477V7.39188H140.58C140.528 7.38796 140.475 7.3948 140.425 7.41198C140.375 7.42917 140.329 7.45633 140.29 7.49182C140.255 7.53165 140.228 7.5782 140.211 7.62873C140.194 7.67926 140.187 7.73271 140.191 7.78584V10.3721C140.185 10.4242 140.192 10.4769 140.209 10.5263C140.227 10.5757 140.255 10.6206 140.292 10.6577C140.329 10.6947 140.374 10.7231 140.424 10.7406C140.473 10.7581 140.526 10.7643 140.578 10.7589H143.56V9.55806H141.009V8.59265H144.036C144.102 8.59203 144.167 8.60537 144.227 8.63177C144.285 8.6563 144.337 8.69202 144.38 8.73679C144.423 8.78101 144.458 8.83281 144.482 8.88959C144.507 8.94849 144.519 9.01181 144.519 9.07571L144.521 11.234Z" fill="#191C1F"/>
<path d="M146.486 11.72H145.527V6.43311H146.486V11.72Z" fill="#191C1F"/>
<path d="M152.384 11.72H148.93C148.782 11.7168 148.636 11.6924 148.495 11.6476C148.337 11.5999 148.189 11.5217 148.06 11.4173C147.921 11.3035 147.806 11.1617 147.725 11.0009C147.63 10.8056 147.583 10.5901 147.591 10.373V6.91689C147.59 6.85255 147.603 6.78877 147.628 6.72933C147.649 6.67334 147.681 6.622 147.722 6.57797C147.766 6.53359 147.819 6.49861 147.876 6.47512C147.936 6.44837 148.002 6.43409 148.068 6.43311H152.384V7.392H148.543V10.3722C148.539 10.4247 148.546 10.4774 148.563 10.5272C148.58 10.577 148.607 10.6228 148.642 10.662C148.682 10.6969 148.728 10.7236 148.777 10.7406C148.827 10.7577 148.88 10.7646 148.932 10.7612H152.383L152.384 11.72ZM151.949 9.56109H148.93V8.59279H151.956L151.949 9.56109Z" fill="#191C1F"/>
<path d="M158.371 10.1622C158.373 10.3339 158.348 10.5049 158.298 10.6692C158.255 10.8108 158.191 10.9453 158.108 11.0683C158.033 11.1807 157.94 11.2802 157.832 11.363C157.731 11.4417 157.621 11.5085 157.504 11.5622C157.393 11.6129 157.278 11.6513 157.159 11.6766C157.051 11.7025 156.941 11.7171 156.83 11.72H153.133V10.759H156.83C156.909 10.7638 156.988 10.7519 157.062 10.7239C157.136 10.696 157.204 10.6526 157.26 10.5968C157.365 10.4775 157.421 10.3215 157.413 10.1622C157.413 10.0793 157.4 9.99699 157.372 9.91888C157.346 9.84811 157.307 9.78312 157.256 9.72767C157.204 9.67294 157.141 9.63016 157.071 9.60238C156.995 9.57199 156.913 9.55699 156.83 9.55819H154.626C154.455 9.55579 154.286 9.52796 154.124 9.47563C153.943 9.41868 153.773 9.32801 153.625 9.20839C153.464 9.07675 153.334 8.91229 153.242 8.72604C153.133 8.49833 153.081 8.24807 153.089 7.99603C153.081 7.74589 153.133 7.49758 153.242 7.27178C153.33 7.09332 153.454 6.93466 153.606 6.80546C153.758 6.67624 153.934 6.57913 154.124 6.52004C154.286 6.46625 154.455 6.43694 154.626 6.43311H157.887V7.392H154.626C154.547 7.38749 154.468 7.39995 154.395 7.42859C154.321 7.45721 154.255 7.5013 154.2 7.55784C154.095 7.67777 154.04 7.83331 154.047 7.9924C154.038 8.15173 154.093 8.30792 154.2 8.42695C154.256 8.48194 154.323 8.52462 154.396 8.55218C154.469 8.57975 154.548 8.5916 154.626 8.58699H156.837C156.948 8.59055 157.058 8.60487 157.165 8.62974C157.284 8.65672 157.4 8.69679 157.51 8.74923C157.627 8.80495 157.736 8.87344 157.837 8.95345C157.942 9.03863 158.035 9.13866 158.111 9.25041C158.194 9.37261 158.258 9.50667 158.301 9.64801C158.35 9.8149 158.374 9.98828 158.371 10.1622Z" fill="#191C1F"/>
<path d="M52.4265 18.9547C52.4284 19.1301 52.404 19.3048 52.3535 19.4728C52.3097 19.6158 52.2443 19.7514 52.1596 19.8749C52.0812 19.988 51.9862 20.0884 51.8775 20.1728C51.6764 20.3302 51.4412 20.4384 51.191 20.4891C51.0811 20.5122 50.9691 20.5244 50.8568 20.5255H48.9403V19.6774H50.8584C50.9587 19.6706 51.057 19.6483 51.15 19.6112C51.2342 19.5776 51.3114 19.5282 51.3766 19.4655C51.4403 19.4036 51.4898 19.3291 51.5225 19.2469C51.5583 19.154 51.5757 19.055 51.5743 18.9555V18.5708C51.5647 18.4711 51.5416 18.373 51.5058 18.2794C51.474 18.195 51.4259 18.1176 51.3644 18.0514C51.3022 17.9883 51.2279 17.9388 51.1455 17.9057C51.0529 17.8688 50.9537 17.8507 50.8541 17.8526H48.9468C48.9004 17.8491 48.8535 17.8551 48.8093 17.8702C48.7652 17.8852 48.7243 17.909 48.6895 17.94C48.6586 17.9742 48.6347 18.0145 48.6196 18.0582C48.6043 18.1017 48.5981 18.1481 48.6014 18.1942V21.6713H47.7535V18.1884C47.7478 17.9969 47.7885 17.807 47.8722 17.6347C47.944 17.4923 48.0452 17.3667 48.1689 17.2661C48.284 17.1749 48.4151 17.106 48.5553 17.0628C48.6798 17.0229 48.8097 17.0017 48.9403 16.9994H50.8584C51.0326 16.9969 51.2063 17.0215 51.3731 17.0723C51.5166 17.117 51.6526 17.183 51.7763 17.2684C51.8893 17.3463 51.9892 17.4413 52.073 17.5503C52.1526 17.6535 52.2203 17.7655 52.2749 17.8838C52.3269 17.9964 52.3655 18.1144 52.391 18.2357C52.4138 18.3458 52.4258 18.4578 52.4265 18.5701V18.9547Z" fill="#191C1F"/>
<path d="M56.1256 18.997H54.2178C54.1709 18.9935 54.1235 18.9992 54.0787 19.0139C54.0339 19.0286 53.9926 19.0521 53.9568 19.083C53.9257 19.1169 53.902 19.1568 53.8868 19.2003C53.8717 19.2437 53.8656 19.2898 53.8686 19.3357V21.6713H53.0206V19.3357C53.0189 19.2032 53.0376 19.0712 53.0762 18.9445C53.1093 18.8362 53.1584 18.7336 53.2221 18.64C53.2811 18.5545 53.3532 18.4784 53.4357 18.4148C53.5133 18.3546 53.5981 18.3038 53.6877 18.2634C53.7735 18.2249 53.8632 18.1961 53.9555 18.1774C54.0385 18.1595 54.1232 18.1501 54.2083 18.1497H56.1229L56.1256 18.997Z" fill="#191C1F"/>
<path d="M57.5444 17.4263H56.6963V16.6599H57.5444V17.4263ZM57.5444 21.6722H56.6963V18.1497H57.5444V21.6722Z" fill="#191C1F"/>
<path d="M62.5647 18.1499C62.4684 18.4487 62.3561 18.7422 62.2286 19.0292C62.1021 19.3152 61.9545 19.5913 61.7869 19.8554C61.6235 20.1145 61.4368 20.3583 61.2291 20.5839C61.0261 20.8041 60.7964 20.9981 60.5454 21.1615C60.2931 21.3247 60.0199 21.4529 59.7333 21.5426C59.4262 21.637 59.1067 21.6837 58.7854 21.681C58.7285 21.6813 58.6718 21.6701 58.6191 21.6482C58.5681 21.6276 58.5216 21.5971 58.4821 21.5586C58.4427 21.5198 58.4112 21.4735 58.3898 21.4222C58.3686 21.3711 58.3578 21.3161 58.3584 21.2607V18.1499H59.206V20.7973C59.4121 20.7976 59.6154 20.752 59.8017 20.6639C59.9971 20.5716 60.1788 20.4525 60.3413 20.31C60.5147 20.1595 60.6723 19.9921 60.8121 19.8101C60.954 19.6275 61.0831 19.4351 61.1987 19.2347C61.3078 19.0482 61.4052 18.855 61.4903 18.6562C61.5612 18.4905 61.6206 18.3201 61.668 18.1462L62.5647 18.1499Z" fill="#191C1F"/>
<path d="M66.3978 20.5056C66.3961 20.6346 66.3753 20.7625 66.3359 20.8853C66.2941 21.0226 66.2269 21.1509 66.1376 21.2633C66.038 21.3849 65.914 21.4842 65.773 21.5547C65.6045 21.6372 65.4184 21.6775 65.2308 21.6721H63.6997C63.5708 21.6703 63.4427 21.6494 63.3201 21.6102C63.1758 21.5666 63.042 21.4944 62.9267 21.3976C62.8116 21.301 62.7172 21.1819 62.6494 21.0476C62.5666 20.8793 62.5263 20.6932 62.5317 20.5056C62.5341 20.3761 62.5548 20.2475 62.5938 20.124C62.6361 19.9859 62.7044 19.8569 62.7951 19.7443C62.8946 19.6225 63.0187 19.5232 63.1597 19.4529C63.3282 19.3701 63.5148 19.3299 63.7028 19.3357H65.2338V20.1414H63.7028C63.653 20.1385 63.6035 20.1465 63.557 20.1648C63.511 20.1832 63.4692 20.2115 63.4351 20.2478C63.3713 20.3199 63.3374 20.4138 63.3402 20.5101C63.3377 20.5585 63.3463 20.6072 63.3651 20.652C63.3841 20.6968 63.4131 20.7367 63.4497 20.7687C63.5219 20.8305 63.6142 20.8636 63.7092 20.862H65.2322C65.2816 20.8648 65.3312 20.8571 65.3773 20.839C65.4237 20.8211 65.4653 20.7934 65.4997 20.7578C65.5632 20.6859 65.5968 20.5926 65.5938 20.4969V19.3159C65.5963 19.2673 65.5884 19.2187 65.5706 19.1732C65.5529 19.1278 65.5258 19.0864 65.491 19.0522C65.4564 19.0198 65.4159 18.9943 65.3714 18.9775C65.327 18.9609 65.2797 18.9531 65.2322 18.9547H63.3675V18.1497H65.2292C65.3582 18.1514 65.4864 18.1723 65.6091 18.2116C65.7469 18.2537 65.8752 18.3217 65.9875 18.4119C66.1094 18.5114 66.2089 18.6356 66.279 18.7762C66.3617 18.9449 66.4019 19.1311 66.3964 19.3189L66.3978 20.5056Z" fill="#191C1F"/>
<path d="M70.3134 18.9971H68.8342V21.6714H67.9755V18.9971H66.873V18.1498H67.9755V16.9995H68.8342V18.1498H70.3142L70.3134 18.9971Z" fill="#191C1F"/>
<path d="M74.6524 19.3162C74.6504 19.4449 74.6293 19.5729 74.5904 19.6956C74.5479 19.8331 74.48 19.9614 74.39 20.0738C74.2904 20.1955 74.1662 20.2948 74.0254 20.3652C73.8566 20.4481 73.6702 20.4883 73.4824 20.4824H71.9514V19.6774H73.4824C73.5318 19.6806 73.5815 19.6727 73.6279 19.6545C73.674 19.6361 73.7158 19.6079 73.7499 19.5718C73.8134 19.4994 73.8473 19.4058 73.8446 19.3095C73.8473 19.2609 73.8387 19.2124 73.8205 19.1673C73.8021 19.1223 73.7739 19.0818 73.7383 19.0488C73.6678 18.9863 73.5764 18.9527 73.4824 18.9547H71.9514C71.9018 18.9517 71.8522 18.9595 71.8061 18.9779C71.76 18.9961 71.7185 19.0243 71.6845 19.0604C71.6207 19.1326 71.5869 19.2264 71.5896 19.3227V20.5057C71.5869 20.5548 71.5949 20.6037 71.6132 20.6494C71.6314 20.695 71.6596 20.736 71.6954 20.7694C71.7678 20.8332 71.8616 20.8671 71.9578 20.8641H73.4808V21.6714H71.9499C71.821 21.6696 71.6929 21.6487 71.57 21.6094C71.4324 21.5671 71.3041 21.4992 71.1916 21.4091C71.0698 21.3096 70.9705 21.1855 70.9001 21.0448C70.8175 20.8765 70.7773 20.6904 70.7827 20.5029V19.3162C70.7844 19.1872 70.8052 19.0593 70.8446 18.9365C70.8869 18.7991 70.9552 18.6708 71.0453 18.5585C71.1448 18.4365 71.2689 18.3372 71.4096 18.2671C71.5782 18.1841 71.7645 18.1439 71.9521 18.1497H73.4832C73.6121 18.1515 73.74 18.1724 73.8628 18.2117C74.0067 18.2552 74.1406 18.3274 74.2559 18.424C74.3712 18.5205 74.4654 18.6393 74.5335 18.7734C74.6168 18.9419 74.6575 19.1282 74.6524 19.3162Z" fill="#191C1F"/>
<path d="M81.783 21.6714H77.9153C77.8575 21.6721 77.7998 21.6608 77.7463 21.6386C77.6953 21.6185 77.6491 21.588 77.6107 21.549C77.5722 21.5104 77.5418 21.4646 77.5211 21.4142C77.4988 21.3604 77.4877 21.3027 77.4883 21.2446V16.9995H78.3359V20.8249H81.783V21.6714Z" fill="#191C1F"/>
<path d="M83.1731 17.4263H82.3223V16.6599H83.1701L83.1731 17.4263ZM83.1731 21.6722H82.3223V18.1497H83.1701L83.1731 21.6722Z" fill="#191C1F"/>
<path d="M87.1329 21.6713H86.2829V19.3357C86.2862 19.2898 86.28 19.2437 86.2653 19.2003C86.2501 19.1569 86.2263 19.117 86.1956 19.083C86.1597 19.0521 86.1185 19.0286 86.0737 19.0139C86.0289 18.9992 85.9813 18.9935 85.9345 18.997H84.8322V21.6713H83.9844V18.57C83.9839 18.5134 83.9948 18.4574 84.0172 18.4054C84.0379 18.3549 84.0693 18.3093 84.1081 18.2713C84.1478 18.233 84.1942 18.2026 84.2452 18.1818C84.298 18.1603 84.3547 18.1495 84.4115 18.1497H85.9424C86.0711 18.1512 86.1986 18.1721 86.3209 18.2116C86.4596 18.2548 86.5901 18.3218 86.7059 18.4097V18.1497H87.8533C87.9389 18.15 88.0242 18.1593 88.1077 18.1774C88.1992 18.1962 88.2885 18.225 88.3739 18.2634C88.4636 18.3038 88.5481 18.3546 88.626 18.4148C88.7079 18.4786 88.7795 18.5545 88.8381 18.64C88.9016 18.7337 88.9506 18.8364 88.984 18.9445C89.0228 19.0712 89.0416 19.2032 89.0396 19.3357V21.6713H88.1908V19.3357C88.1975 19.2437 88.1674 19.153 88.1077 19.083C88.0732 19.0519 88.0326 19.0283 87.9886 19.0134C87.9446 18.9987 87.8982 18.993 87.8518 18.997H87.0887C87.1175 19.1075 87.1319 19.2214 87.131 19.3357L87.1329 21.6713Z" fill="#191C1F"/>
<path d="M90.6798 17.4263H89.8311V16.6599H90.679L90.6798 17.4263ZM90.6798 21.6722H89.8311V18.1497H90.679L90.6798 21.6722Z" fill="#191C1F"/>
<path d="M94.6969 18.9971H93.2164V21.6714H92.359V18.9971H91.2568V18.1498H92.359V16.9995H93.2164V18.1498H94.6969V18.9971Z" fill="#191C1F"/>
<path d="M99.0349 19.3161C99.033 19.4451 99.0117 19.5729 98.9723 19.6956C98.9303 19.8334 98.8621 19.9617 98.7716 20.0736C98.6723 20.1957 98.548 20.295 98.4072 20.3651C98.2386 20.448 98.0521 20.4883 97.864 20.4824H96.333V19.6774H97.864C97.9137 19.6804 97.9635 19.6725 98.0095 19.6543C98.0556 19.6361 98.0974 19.6079 98.1315 19.5718C98.1953 19.4994 98.229 19.4058 98.2262 19.3095C98.2289 19.2609 98.2207 19.2124 98.2021 19.1673C98.1838 19.1223 98.1559 19.0817 98.1199 19.0486C98.0494 18.9862 97.9581 18.9527 97.864 18.9547H96.333C96.2834 18.9517 96.2338 18.9596 96.1876 18.9778C96.1413 18.9962 96.0997 19.0242 96.0656 19.0604C96.0021 19.1327 95.9686 19.2265 95.9716 19.3226V20.5057C95.9687 20.5548 95.9766 20.6037 95.9949 20.6493C96.0131 20.6949 96.0413 20.736 96.077 20.7694C96.1494 20.8334 96.2433 20.8671 96.3396 20.8641H97.8624V21.6713H96.3316C96.2026 21.6696 96.0745 21.6488 95.9518 21.6094C95.8143 21.5671 95.6859 21.499 95.5734 21.4091C95.4518 21.3096 95.3523 21.1854 95.2818 21.0448C95.1989 20.8764 95.1586 20.6904 95.1647 20.5028V19.3161C95.1661 19.1872 95.1871 19.0592 95.2263 18.9365C95.2685 18.7989 95.3365 18.6704 95.4269 18.5585C95.5264 18.4367 95.6505 18.3374 95.7915 18.2671C95.9603 18.1842 96.1466 18.144 96.3346 18.1497H97.8656C97.9945 18.1514 98.1225 18.1723 98.2452 18.2116C98.3892 18.255 98.523 18.3272 98.638 18.4238C98.7533 18.5203 98.8475 18.6392 98.9154 18.7734C98.9989 18.9417 99.0402 19.1281 99.0349 19.3161Z" fill="#191C1F"/>
<path d="M103.473 20.4825C103.475 20.6155 103.456 20.7479 103.418 20.8751C103.385 20.9842 103.335 21.0876 103.272 21.1818C103.213 21.2677 103.141 21.3437 103.06 21.4069C102.981 21.4669 102.897 21.5177 102.807 21.5585C102.721 21.5966 102.632 21.6254 102.54 21.6444C102.455 21.662 102.37 21.6714 102.284 21.6722H100.753C100.62 21.6742 100.488 21.6555 100.361 21.6167C100.253 21.5838 100.15 21.5345 100.056 21.471C99.971 21.4121 99.8951 21.3404 99.8313 21.2583C99.7133 21.1055 99.6321 20.9275 99.5936 20.7382C99.5757 20.6551 99.5665 20.5703 99.566 20.4853V19.3358C99.56 19.1448 99.6009 18.9552 99.6848 18.7836C99.7569 18.6413 99.8577 18.5156 99.9814 18.415C100.095 18.3224 100.227 18.2533 100.368 18.2117C100.493 18.1726 100.622 18.1516 100.753 18.1497H102.284V18.9971H100.761C100.714 18.9937 100.668 18.9996 100.623 19.0143C100.579 19.029 100.538 19.0525 100.503 19.083C100.472 19.1169 100.448 19.157 100.433 19.2004C100.418 19.2438 100.412 19.2899 100.415 19.3358V20.476C100.412 20.5228 100.417 20.5702 100.432 20.6149C100.447 20.6597 100.47 20.701 100.501 20.7366C100.535 20.7678 100.575 20.7918 100.619 20.807C100.662 20.822 100.708 20.8282 100.754 20.8249H102.285C102.332 20.8287 102.379 20.8226 102.423 20.8076C102.467 20.7924 102.508 20.7683 102.543 20.7366C102.573 20.702 102.596 20.6616 102.61 20.618C102.625 20.5743 102.63 20.5284 102.627 20.4825V16.6599H103.475L103.473 20.4825Z" fill="#191C1F"/>
<path d="M40.4261 14.0237L32.345 0.0239258H28.3047L36.3848 14.0237L28.3047 28.0227H32.345L40.4261 14.0237Z" fill="url(#paint0_linear_1965_1981)"/>
<path d="M28.3057 21.0231H16.1848L14.1642 17.5227L12.1436 21.0231L14.1642 24.5237H26.285L28.3057 21.0231Z" fill="#E03E32"/>
<path d="M28.3057 14.0236L26.2848 17.5226H30.3254L32.346 14.0236L26.2848 3.52441H22.2451L28.3057 14.0236Z" fill="#5DC972"/>
<path d="M22.244 10.5229H18.2026L16.1836 14.0235L18.2026 17.5224H22.244L24.2629 14.0235L22.244 10.5229Z" fill="#3CB1E5"/>
<path d="M16.1844 7.02333H20.2242L18.2035 3.52441H14.1638L8.10254 14.0236L10.1232 17.5226L16.1844 7.02333Z" fill="#F2C762"/>
<path d="M4.0628 14.0237L6.08189 10.5231L8.10257 7.02338L10.1232 3.52445L12.1431 0.0239258H8.10257L6.08189 3.52445L0.0214844 14.0237L8.10257 28.0227H12.1431L4.0628 14.0237Z" fill="url(#paint1_linear_1965_1981)"/>
</g>
</g>
<defs>
<linearGradient id="paint0_linear_1965_1981" x1="34.3657" y1="0.0239258" x2="34.3657" y2="28.0227" gradientUnits="userSpaceOnUse">
<stop offset="0.01" stop-color="#3CB1E5"/>
<stop offset="1" stop-color="#4AA85E"/>
</linearGradient>
<linearGradient id="paint1_linear_1965_1981" x1="6.08269" y1="0.0239258" x2="6.08269" y2="28.0227" gradientUnits="userSpaceOnUse">
<stop offset="0.01" stop-color="#F2C762"/>
<stop offset="1" stop-color="#F9413D"/>
</linearGradient>
<clipPath id="clip0_1965_1981">
<rect width="158.375" height="28.0324" fill="white"/>
</clipPath>
</defs>
</svg>
