<svg width="226" height="40" viewBox="0 0 226 40" fill="none" xmlns="http://www.w3.org/2000/svg">
<g clip-path="url(#clip0_1965_1981)">
<mask id="mask0_1965_1981" style="mask-type:luminance" maskUnits="userSpaceOnUse" x="0" y="0" width="226" height="40">
<path d="M226 0H0V40H226V0Z" fill="white"/>
</mask>
<g mask="url(#mask0_1965_1981)">
<path d="M75.0725 14.8003C75.0752 15.0614 75.0266 15.3204 74.9301 15.5629C74.8408 15.7912 74.7055 15.9988 74.5326 16.1728C74.3601 16.3468 74.1536 16.4836 73.9258 16.5747C73.6817 16.6743 73.4202 16.7248 73.1562 16.7235H68.1436V15.3521H73.1562C73.2286 15.3565 73.3011 15.3459 73.3689 15.321C73.4369 15.2961 73.4991 15.2574 73.5515 15.2074C73.6008 15.1524 73.6387 15.088 73.6634 15.0181C73.6873 14.9482 73.6977 14.8742 73.693 14.8003V9.17944H75.0725V14.8003Z" fill="#191C1F"/>
<path d="M84.0313 16.0301C84.0319 16.124 84.0141 16.217 83.9781 16.3039C83.9447 16.3859 83.895 16.4601 83.8317 16.522C83.7673 16.5836 83.6923 16.6326 83.6102 16.6667C83.5271 16.7027 83.438 16.722 83.3476 16.7235H80.2593C79.9619 16.7227 79.6656 16.6908 79.375 16.6284C79.0767 16.5652 78.7862 16.4674 78.5103 16.337C78.2278 16.2035 77.9634 16.0347 77.7231 15.8347C77.4743 15.6265 77.2571 15.3828 77.079 15.1114C76.8874 14.8159 76.7412 14.4933 76.6458 14.1544C76.5357 13.7637 76.4829 13.3593 76.4876 12.9535V9.17944H77.8549V12.9504C77.845 13.2853 77.8999 13.619 78.016 13.9332C78.1101 14.1788 78.2479 14.4051 78.4237 14.6008C78.5783 14.7716 78.7614 14.914 78.9655 15.0214C79.1424 15.1136 79.3289 15.1874 79.5207 15.2416C79.674 15.2867 79.8308 15.3174 79.9895 15.3335C80.1246 15.3459 80.2128 15.3521 80.2552 15.3521H82.6585V9.17944H84.027L84.0313 16.0301Z" fill="#191C1F"/>
<path d="M92.8684 14.5006C92.8708 14.7456 92.8363 14.9895 92.7653 15.224C92.7027 15.4259 92.6119 15.6177 92.4941 15.7934C92.3859 15.9539 92.2523 16.0959 92.0993 16.214C91.9544 16.3262 91.7976 16.4215 91.6317 16.4982C91.4742 16.5705 91.3087 16.6252 91.1392 16.6615C90.9847 16.6953 90.8269 16.713 90.6687 16.7142H85.3941V15.3521H90.6687C90.7813 15.3591 90.8943 15.3421 91 15.3022C91.1051 15.2623 91.2014 15.2004 91.2809 15.1206C91.4328 14.9507 91.511 14.7279 91.4993 14.5006C91.5008 14.3823 91.4814 14.2647 91.4412 14.1534C91.4052 14.0522 91.349 13.9594 91.276 13.8805C91.2025 13.8022 91.1128 13.7412 91.0131 13.7017C90.9037 13.6584 90.7865 13.637 90.6687 13.6387H87.5237C87.2805 13.6347 87.0391 13.5947 86.8079 13.5199C86.5487 13.4385 86.3069 13.3091 86.0954 13.1385C85.8664 12.9504 85.68 12.7158 85.5485 12.4503C85.3941 12.1252 85.3193 11.7681 85.3301 11.4086C85.32 11.0517 85.395 10.6975 85.5485 10.3751C85.6746 10.1199 85.8511 9.89294 86.0676 9.70801C86.2843 9.52306 86.5363 9.38403 86.8079 9.29935C87.0391 9.22417 87.2805 9.18376 87.5237 9.17944H92.1777V10.5477H87.5237C87.4114 10.5412 87.2993 10.559 87.1942 10.5998C87.0898 10.6407 86.9946 10.7036 86.9169 10.7843C86.7668 10.9555 86.6891 11.1774 86.6986 11.4044C86.6866 11.6318 86.7648 11.8547 86.9169 12.0245C86.9962 12.103 87.0911 12.164 87.1958 12.2034C87.3002 12.2427 87.412 12.2596 87.5237 12.2529H90.68C90.838 12.2581 90.9948 12.2785 91.1487 12.3139C91.3182 12.3522 91.4832 12.4094 91.6401 12.4844C91.8057 12.5634 91.9616 12.6611 92.1054 12.7758C92.2561 12.897 92.3881 13.0398 92.4973 13.1995C92.6161 13.3737 92.7075 13.565 92.7682 13.7669C92.8392 14.0048 92.8731 14.2523 92.8684 14.5006Z" fill="#191C1F"/>
<path d="M100.741 10.5477H97.7279V16.7235H96.3597V10.5477H93.3408V9.17944H100.741V10.5477Z" fill="#191C1F"/>
<path d="M108.565 10.5477H105.55V16.7235H104.183V10.5477H101.163V9.17944H108.565V10.5477Z" fill="#191C1F"/>
<path d="M117.108 11.7146C117.112 11.9975 117.073 12.2794 116.992 12.5506C116.923 12.7815 116.818 13.0004 116.682 13.1996C116.555 13.3822 116.402 13.5445 116.227 13.6812C116.06 13.8111 115.88 13.9214 115.688 14.0098C115.506 14.0935 115.316 14.1559 115.12 14.1958C114.943 14.2332 114.762 14.2526 114.58 14.2537L117.434 16.7236H115.319L112.468 14.2537H111.485V12.8875H114.58C114.742 12.8753 114.901 12.8387 115.052 12.779C115.188 12.7246 115.313 12.6454 115.42 12.5454C115.524 12.4457 115.606 12.3248 115.659 12.191C115.717 12.039 115.746 11.8772 115.743 11.7146V10.8527C115.746 10.7927 115.736 10.7327 115.714 10.677C115.698 10.6406 115.673 10.6094 115.64 10.5871C115.612 10.5689 115.58 10.5573 115.546 10.553C115.512 10.553 115.482 10.553 115.454 10.553H110.938V16.7236H109.569V9.86986C109.57 9.68927 109.641 9.51601 109.767 9.3862C109.829 9.32272 109.903 9.27273 109.985 9.23947C110.071 9.2013 110.164 9.18091 110.258 9.17956H115.451C115.718 9.17099 115.983 9.22771 116.224 9.34489C116.424 9.44437 116.6 9.58529 116.741 9.75824C116.869 9.91813 116.965 10.1008 117.025 10.2967C117.08 10.472 117.109 10.6544 117.112 10.8382L117.108 11.7146Z" fill="#191C1F"/>
<path d="M125.666 11.7041C125.67 11.9872 125.63 12.2693 125.548 12.5402C125.477 12.7707 125.373 12.9894 125.238 13.1892C125.112 13.3727 124.959 13.5352 124.783 13.6708C124.616 13.7994 124.435 13.9092 124.244 13.9983C124.063 14.0832 123.874 14.146 123.678 14.1854C123.501 14.2223 123.321 14.2417 123.139 14.2433H122.587V16.7235H121.205V14.2433H120.658C120.477 14.2417 120.297 14.2223 120.119 14.1854C119.923 14.1456 119.732 14.0828 119.551 13.9983C119.359 13.9099 119.178 13.8 119.012 13.6708C118.837 13.5341 118.683 13.3717 118.557 13.1892C118.419 12.9891 118.312 12.7692 118.241 12.5371C118.159 12.2672 118.119 11.9863 118.122 11.7041V9.17944H119.491V11.7041C119.488 11.8685 119.517 12.0319 119.574 12.1857C119.627 12.3222 119.708 12.4463 119.811 12.5505C119.916 12.6546 120.043 12.7344 120.182 12.7841C120.338 12.8404 120.503 12.8681 120.669 12.8657H123.136C123.266 12.845 123.399 12.8182 123.535 12.7841C123.67 12.7521 123.797 12.6942 123.91 12.6136C124.028 12.5261 124.123 12.4116 124.188 12.2798C124.271 12.0994 124.309 11.9023 124.302 11.7041V9.17944H125.669L125.666 11.7041Z" fill="#191C1F"/>
<path d="M137.014 10.5477H133.999V16.7235H132.632V10.5477H129.612V9.17944H137.014V10.5477Z" fill="#191C1F"/>
<path d="M144.836 16.7235H139.902C139.691 16.7188 139.482 16.684 139.281 16.6201C139.055 16.5521 138.844 16.4405 138.661 16.2916C138.461 16.1292 138.298 15.9267 138.182 15.6973C138.046 15.4187 137.98 15.1111 137.99 14.8013V9.86977C137.99 9.68961 138.059 9.51626 138.184 9.38616C138.246 9.3231 138.32 9.27318 138.402 9.2394C138.489 9.20105 138.583 9.18066 138.678 9.17944H144.838V10.5477H139.356V14.8003C139.351 14.8752 139.361 14.9504 139.385 15.0214C139.41 15.0924 139.448 15.1578 139.498 15.2137C139.555 15.2635 139.62 15.3016 139.691 15.3259C139.762 15.3502 139.837 15.3602 139.912 15.3553H144.836V16.7235ZM144.22 13.6428H139.902V12.2611H144.22V13.6428Z" fill="#191C1F"/>
<path d="M152.864 16.7236H147.929C147.792 16.7223 147.656 16.7071 147.522 16.6782C147.373 16.648 147.228 16.6016 147.09 16.5397C146.944 16.4745 146.808 16.3923 146.682 16.2947C146.55 16.1915 146.434 16.0693 146.338 15.932C146.233 15.7805 146.153 15.6139 146.099 15.438C146.036 15.2328 146.006 15.0191 146.009 14.8045V11.0997C146.01 10.9628 146.026 10.8264 146.054 10.6925C146.084 10.5441 146.131 10.3996 146.193 10.2616C146.258 10.1162 146.341 9.97946 146.44 9.8544C146.544 9.72204 146.668 9.60606 146.806 9.51024C146.957 9.40595 147.123 9.32511 147.298 9.27051C147.502 9.20807 147.716 9.17736 147.929 9.17955H152.864V10.5478H147.929C147.854 10.5424 147.779 10.5522 147.708 10.5767C147.637 10.6012 147.571 10.6399 147.516 10.6904C147.465 10.7474 147.427 10.8139 147.403 10.8859C147.378 10.958 147.369 11.0342 147.374 11.11V14.8004C147.366 14.8747 147.375 14.9498 147.4 15.0203C147.426 15.0907 147.466 15.1546 147.519 15.2074C147.572 15.2603 147.636 15.3007 147.706 15.3258C147.777 15.3508 147.852 15.3599 147.926 15.3523H152.861L152.864 16.7236Z" fill="#191C1F"/>
<path d="M155.535 12.2611H160.338V9.17944H161.705V16.7235H160.338V13.6387H155.535V16.7235H154.167V9.17944H155.535V12.2611Z" fill="#191C1F"/>
<path d="M170.841 16.1356C170.842 16.2296 170.823 16.3228 170.786 16.4094C170.751 16.4905 170.7 16.5643 170.639 16.6275C170.576 16.6895 170.502 16.7383 170.42 16.7712C170.335 16.8064 170.244 16.8243 170.152 16.8239C170.065 16.8234 169.979 16.8076 169.897 16.7773C169.81 16.7435 169.732 16.6896 169.669 16.6203L164.672 11.4097V16.7236H163.304V9.76444C163.303 9.62908 163.345 9.49678 163.423 9.38623C163.497 9.27403 163.602 9.18492 163.725 9.12892C163.851 9.07635 163.991 9.0627 164.125 9.08964C164.26 9.1152 164.383 9.18286 164.478 9.28289L169.475 14.4924V9.17952H170.841V16.1356Z" fill="#191C1F"/>
<path d="M180.348 13.6708C180.353 14.1042 180.273 14.5343 180.111 14.9367C179.963 15.3106 179.74 15.6501 179.455 15.9345C179.171 16.2189 178.831 16.442 178.457 16.5902C178.058 16.75 177.632 16.8304 177.202 16.8268H175.351C174.921 16.8311 174.494 16.7518 174.093 16.5933C173.72 16.445 173.38 16.2225 173.094 15.9391C172.81 15.6531 172.586 15.3134 172.435 14.9398C172.271 14.5379 172.19 14.1076 172.195 13.6738V12.2301C172.19 11.7971 172.272 11.3675 172.435 10.9662C172.585 10.5922 172.809 10.2524 173.094 9.96694C173.381 9.68493 173.72 9.46255 174.093 9.31277C174.493 9.15225 174.92 9.07186 175.351 9.07611H177.202C177.632 9.07153 178.058 9.15193 178.457 9.31277C178.829 9.46283 179.168 9.68518 179.454 9.96694C179.739 10.2517 179.963 10.5918 180.111 10.9662C180.273 11.368 180.353 11.7974 180.348 12.2301V13.6708ZM178.981 12.2301C178.984 11.9796 178.94 11.7307 178.852 11.4964C178.772 11.2839 178.648 11.0909 178.487 10.9305C178.327 10.77 178.134 10.6459 177.921 10.5663C177.69 10.4781 177.445 10.4343 177.197 10.4371H175.346C175.099 10.4345 174.853 10.4783 174.622 10.5663C174.41 10.6469 174.218 10.7704 174.056 10.9291C173.895 11.0884 173.771 11.28 173.69 11.4913C173.602 11.7256 173.558 11.9745 173.562 12.225V13.6708C173.558 13.9209 173.602 14.1694 173.69 14.4035C173.771 14.6147 173.895 14.8063 174.056 14.9656C174.218 15.1243 174.41 15.2477 174.622 15.3284C174.853 15.4163 175.099 15.4601 175.346 15.4575H177.187C177.434 15.4599 177.68 15.4161 177.911 15.3284C178.122 15.2474 178.315 15.1239 178.477 14.9656C178.636 14.8059 178.761 14.6144 178.841 14.4035C178.93 14.1695 178.974 13.9209 178.971 13.6708L178.981 12.2301Z" fill="#191C1F"/>
<path d="M188.631 16.7235H182.392C182.298 16.7243 182.205 16.7064 182.118 16.6708C182.036 16.6376 181.962 16.5884 181.9 16.5261C181.838 16.4638 181.788 16.3897 181.755 16.3081C181.719 16.2212 181.701 16.1281 181.702 16.0342V9.17944H183.071V15.3521H188.631V16.7235Z" fill="#191C1F"/>
<path d="M197.435 13.6707C197.44 14.1041 197.359 14.5342 197.198 14.9367C197.048 15.3104 196.824 15.6502 196.54 15.936C196.256 16.2189 195.916 16.4414 195.543 16.5902C195.145 16.7499 194.719 16.8303 194.289 16.8269H192.438C192.007 16.8312 191.58 16.7519 191.18 16.5933C190.806 16.4448 190.466 16.2223 190.18 15.9391C189.896 15.6531 189.672 15.3134 189.52 14.9398C189.358 14.5377 189.276 14.1074 189.281 13.6738V12.2301C189.277 11.7972 189.358 11.3677 189.52 10.9663C189.672 10.5921 189.896 10.2522 190.182 9.96691C190.469 9.68512 190.809 9.4628 191.182 9.31274C191.581 9.15242 192.008 9.07202 192.438 9.07611H194.289C194.719 9.07161 195.145 9.15204 195.543 9.31274C195.916 9.46309 196.254 9.68537 196.54 9.96691C196.825 10.2522 197.049 10.5922 197.198 10.9663C197.359 11.3682 197.439 11.7975 197.435 12.2301V13.6707ZM196.067 12.2301C196.071 11.9797 196.027 11.7308 195.939 11.4964C195.858 11.2862 195.734 11.0948 195.576 10.9342C195.415 10.7754 195.223 10.6519 195.012 10.5715C194.781 10.4833 194.535 10.4395 194.288 10.4423H192.437C192.189 10.4399 191.944 10.4837 191.713 10.5715C191.501 10.6524 191.309 10.7759 191.147 10.9342C190.987 11.0939 190.863 11.2855 190.782 11.4964C190.694 11.7307 190.649 11.9796 190.653 12.2301V13.6707C190.649 13.9209 190.694 14.1695 190.782 14.4034C190.863 14.6144 190.987 14.806 191.147 14.9656C191.309 15.1239 191.501 15.2474 191.713 15.3284C191.944 15.4161 192.189 15.4599 192.437 15.4576H194.277C194.525 15.46 194.771 15.4162 195.002 15.3284C195.213 15.2474 195.406 15.1239 195.567 14.9656C195.727 14.806 195.852 14.6145 195.934 14.4034C196.022 14.1694 196.065 13.9209 196.062 13.6707L196.067 12.2301Z" fill="#191C1F"/>
<path d="M206.231 16.03C206.231 16.1239 206.214 16.217 206.178 16.3038C206.145 16.3854 206.095 16.4596 206.033 16.5219C205.971 16.5842 205.896 16.6334 205.815 16.6666C205.728 16.7023 205.635 16.7202 205.542 16.7193H200.608C200.468 16.7183 200.33 16.703 200.194 16.6738C200.046 16.6436 199.901 16.5971 199.763 16.5353C199.618 16.4702 199.481 16.3879 199.355 16.2904C199.223 16.1872 199.107 16.0649 199.011 15.9277C198.906 15.7764 198.826 15.6098 198.772 15.4337C198.709 15.2284 198.679 15.0147 198.682 14.8002V11.0995C198.683 10.9626 198.698 10.8262 198.726 10.6923C198.757 10.5441 198.804 10.3995 198.866 10.2614C198.932 10.116 199.015 9.97926 199.113 9.8542C199.217 9.72162 199.341 9.60557 199.479 9.51004C199.63 9.40557 199.795 9.32469 199.97 9.27032C200.177 9.20724 200.392 9.17655 200.608 9.17938H206.168V10.5476H200.608C200.533 10.542 200.457 10.5518 200.386 10.5763C200.315 10.6008 200.249 10.6396 200.194 10.6902C200.143 10.7471 200.105 10.8135 200.081 10.8856C200.056 10.9577 200.046 11.034 200.052 11.1098V14.8002C200.044 14.8746 200.053 14.9498 200.078 15.0203C200.104 15.0908 200.144 15.1548 200.197 15.2077C200.25 15.2606 200.314 15.301 200.384 15.3259C200.455 15.3509 200.53 15.3599 200.604 15.3521H204.859V13.6386H201.22V12.2611H205.539C205.633 12.2602 205.726 12.2792 205.812 12.3169C205.894 12.3519 205.968 12.4028 206.03 12.4667C206.091 12.5298 206.141 12.6037 206.175 12.6848C206.211 12.7688 206.228 12.8592 206.228 12.9503L206.231 16.03Z" fill="#191C1F"/>
<path d="M209.033 16.7235H207.665V9.17944H209.033V16.7235Z" fill="#191C1F"/>
<path d="M217.451 16.7235H212.522C212.311 16.7188 212.102 16.684 211.901 16.6201C211.675 16.5521 211.464 16.4405 211.28 16.2916C211.081 16.1292 210.918 15.9267 210.802 15.6973C210.666 15.4187 210.6 15.1111 210.61 14.8013V9.86977C210.61 9.77795 210.628 9.68695 210.664 9.60213C210.694 9.52225 210.74 9.44898 210.799 9.38616C210.861 9.32283 210.936 9.27291 211.018 9.2394C211.104 9.20123 211.197 9.18084 211.291 9.17944H217.451V10.5477H211.97V14.8003C211.964 14.8752 211.974 14.9504 211.998 15.0214C212.023 15.0924 212.061 15.1578 212.111 15.2137C212.167 15.2635 212.233 15.3016 212.304 15.3259C212.375 15.3502 212.45 15.3602 212.525 15.3553H217.449L217.451 16.7235ZM216.83 13.6428H212.522V12.2611H216.841L216.83 13.6428Z" fill="#191C1F"/>
<path d="M225.993 14.5006C225.995 14.7456 225.96 14.9895 225.889 15.224C225.828 15.4261 225.736 15.618 225.618 15.7934C225.51 15.9538 225.378 16.0959 225.224 16.214C225.079 16.3262 224.922 16.4216 224.756 16.4982C224.598 16.5706 224.433 16.6254 224.264 16.6615C224.11 16.6984 223.952 16.7192 223.794 16.7235H218.519V15.3521H223.794C223.907 15.3591 224.02 15.342 224.125 15.3021C224.231 15.2622 224.327 15.2003 224.407 15.1206C224.558 14.9505 224.637 14.7279 224.625 14.5006C224.627 14.3823 224.607 14.2648 224.567 14.1534C224.531 14.0524 224.475 13.9596 224.402 13.8805C224.328 13.8024 224.238 13.7414 224.138 13.7017C224.029 13.6584 223.912 13.637 223.794 13.6387H220.649C220.406 13.6353 220.164 13.5956 219.933 13.5209C219.674 13.4396 219.432 13.3102 219.22 13.1396C218.991 12.9517 218.805 12.717 218.674 12.4513C218.519 12.1264 218.444 11.7693 218.455 11.4096C218.445 11.0527 218.519 10.6984 218.674 10.3762C218.8 10.1215 218.977 9.89513 219.193 9.71077C219.41 9.52638 219.661 9.38781 219.933 9.30349C220.164 9.22674 220.405 9.18491 220.649 9.17944H225.303V10.5477H220.649C220.536 10.5413 220.424 10.5591 220.319 10.5999C220.214 10.6408 220.119 10.7037 220.041 10.7843C219.891 10.9555 219.813 11.1774 219.823 11.4044C219.811 11.6318 219.889 11.8547 220.041 12.0245C220.12 12.103 220.216 12.1639 220.32 12.2032C220.425 12.2425 220.537 12.2594 220.649 12.2529H223.804C223.962 12.258 224.119 12.2784 224.273 12.3139C224.443 12.3524 224.608 12.4095 224.765 12.4844C224.931 12.5639 225.087 12.6616 225.23 12.7758C225.381 12.8973 225.513 13.0401 225.622 13.1995C225.741 13.3739 225.832 13.5652 225.893 13.7669C225.964 14.005 225.997 14.2524 225.993 14.5006Z" fill="#191C1F"/>
<path d="M74.8127 27.0469C74.8154 27.2971 74.7806 27.5463 74.7085 27.7861C74.6461 27.9902 74.5528 28.1836 74.4319 28.3599C74.32 28.5213 74.1844 28.6645 74.0293 28.785C73.7423 29.0096 73.4067 29.164 73.0496 29.2363C72.8928 29.2693 72.733 29.2867 72.5728 29.2883H69.838V28.0781H72.575C72.7181 28.0684 72.8584 28.0365 72.9911 27.9836C73.1113 27.9357 73.2214 27.8652 73.3145 27.7757C73.4054 27.6874 73.4761 27.5811 73.5227 27.4639C73.5737 27.3312 73.5986 27.19 73.5966 27.048V26.4991C73.583 26.3567 73.55 26.2168 73.4989 26.0833C73.4535 25.9628 73.3848 25.8523 73.2971 25.7579C73.2083 25.6679 73.1023 25.5972 72.9848 25.55C72.8526 25.4973 72.7111 25.4715 72.5689 25.4742H69.8472C69.781 25.4693 69.7141 25.4779 69.6511 25.4993C69.588 25.5208 69.5297 25.5547 69.48 25.599C69.4359 25.6478 69.4018 25.7052 69.3803 25.7676C69.3584 25.8297 69.3496 25.8959 69.3543 25.9617V30.9233H68.1443V25.9533C68.1362 25.6801 68.1943 25.4092 68.3138 25.1633C68.4162 24.9601 68.5606 24.7809 68.7371 24.6374C68.9014 24.5072 69.0885 24.4089 69.2885 24.3472C69.4662 24.2903 69.6515 24.26 69.838 24.2568H72.575C72.8236 24.2532 73.0716 24.2883 73.3095 24.3608C73.5143 24.4245 73.7084 24.5188 73.8849 24.6406C74.0461 24.7518 74.1887 24.8874 74.3082 25.0428C74.4219 25.1902 74.5184 25.35 74.5964 25.5188C74.6705 25.6794 74.7257 25.8478 74.762 26.0209C74.7946 26.178 74.8118 26.3377 74.8127 26.498V27.0469Z" fill="#191C1F"/>
<path d="M80.0901 27.1075H77.3677C77.3008 27.1025 77.2332 27.1106 77.1692 27.1317C77.1053 27.1527 77.0463 27.1861 76.9952 27.2302C76.9509 27.2786 76.917 27.3355 76.8953 27.3976C76.8739 27.4596 76.865 27.5253 76.8693 27.5909V30.9235H75.6593V27.5909C75.6569 27.4017 75.6835 27.2135 75.7387 27.0327C75.7859 26.8781 75.856 26.7317 75.9468 26.5981C76.0311 26.4761 76.1339 26.3676 76.2517 26.2767C76.3624 26.1909 76.4833 26.1183 76.6113 26.0607C76.7337 26.0058 76.8617 25.9647 76.9934 25.938C77.1118 25.9124 77.2327 25.8991 77.3541 25.8984H80.0862L80.0901 27.1075Z" fill="#191C1F"/>
<path d="M82.1155 24.866H80.9053V23.7725H82.1155V24.866ZM82.1155 30.9246H80.9053V25.8983H82.1155V30.9246Z" fill="#191C1F"/>
<path d="M89.2787 25.8983C89.1413 26.3247 88.9811 26.7435 88.7992 27.153C88.6186 27.5611 88.408 27.955 88.1689 28.3319C87.9356 28.7017 87.6692 29.0494 87.3729 29.3715C87.0831 29.6856 86.7554 29.9624 86.3972 30.1957C86.0372 30.4284 85.6474 30.6115 85.2383 30.7394C84.8001 30.8741 84.3443 30.9407 83.8857 30.9369C83.8046 30.9374 83.7237 30.9213 83.6484 30.8901C83.5756 30.8607 83.5092 30.8171 83.4529 30.7622C83.3966 30.7068 83.3517 30.6409 83.3212 30.5676C83.2909 30.4946 83.2755 30.4162 83.2764 30.3371V25.8983H84.486V29.6759C84.78 29.6763 85.0702 29.6113 85.3359 29.4856C85.6148 29.3539 85.874 29.1839 86.1059 28.9805C86.3534 28.7658 86.5783 28.527 86.7778 28.2673C86.9803 28.0067 87.1645 27.7322 87.3295 27.4463C87.4852 27.1801 87.6242 26.9044 87.7456 26.6207C87.8468 26.3844 87.9316 26.1412 87.9991 25.8931L89.2787 25.8983Z" fill="#191C1F"/>
<path d="M94.748 29.2602C94.7456 29.4442 94.7159 29.6268 94.6597 29.8019C94.6 29.9979 94.5042 30.1809 94.3767 30.3414C94.2346 30.5149 94.0576 30.6566 93.8565 30.7572C93.616 30.8749 93.3505 30.9323 93.0826 30.9247H90.8979C90.7139 30.9222 90.5311 30.8923 90.3562 30.8363C90.1503 30.7741 89.9593 30.6711 89.7948 30.533C89.6305 30.3952 89.4958 30.2252 89.3991 30.0336C89.2809 29.7934 89.2235 29.5278 89.2311 29.2602C89.2345 29.0754 89.2641 28.8919 89.3197 28.7156C89.3801 28.5186 89.4775 28.3346 89.607 28.1739C89.7489 28.0001 89.9261 27.8584 90.1272 27.7581C90.3677 27.6399 90.6339 27.5825 90.9022 27.5909H93.0869V28.7405H90.9022C90.8312 28.7364 90.7605 28.7477 90.6943 28.7739C90.6285 28.8001 90.5688 28.8406 90.5203 28.8923C90.4292 28.9952 90.3808 29.1292 90.3849 29.2666C90.3813 29.3357 90.3935 29.4051 90.4204 29.4691C90.4475 29.533 90.4888 29.59 90.5411 29.6356C90.6441 29.7237 90.7759 29.771 90.9115 29.7687H93.0847C93.1552 29.7728 93.2259 29.7617 93.2917 29.736C93.3579 29.7104 93.4174 29.6709 93.4664 29.62C93.557 29.5174 93.6049 29.3843 93.6006 29.2478V27.5626C93.6043 27.4932 93.593 27.4239 93.5676 27.359C93.5423 27.2941 93.5037 27.2352 93.454 27.1863C93.4047 27.14 93.3468 27.1036 93.2833 27.0797C93.2201 27.056 93.1525 27.0449 93.0847 27.0471H90.4238V25.8984H93.0804C93.2646 25.9009 93.4474 25.9308 93.6226 25.9868C93.8192 26.0469 94.0022 26.1439 94.1625 26.2727C94.3365 26.4146 94.4784 26.5918 94.5785 26.7924C94.6965 27.0331 94.7539 27.2989 94.746 27.5669L94.748 29.2602Z" fill="#191C1F"/>
<path d="M100.337 27.1072H98.2263V30.9233H97.0009V27.1072H95.4277V25.8982H97.0009V24.2568H98.2263V25.8982H100.338L100.337 27.1072Z" fill="#191C1F"/>
<path d="M106.528 27.5627C106.525 27.7464 106.495 27.929 106.439 28.1041C106.378 28.3003 106.282 28.4833 106.153 28.6438C106.011 28.8174 105.834 28.9591 105.633 29.0596C105.392 29.1778 105.126 29.2352 104.858 29.2268H102.673V28.0781H104.858C104.928 28.0827 104.999 28.0714 105.066 28.0454C105.131 28.0192 105.191 27.9789 105.24 27.9274C105.33 27.8241 105.379 27.6906 105.375 27.5532C105.379 27.4838 105.366 27.4146 105.34 27.3502C105.314 27.2861 105.274 27.2282 105.223 27.1812C105.123 27.0919 104.992 27.044 104.858 27.047H102.673C102.602 27.0427 102.532 27.0537 102.466 27.08C102.4 27.1059 102.341 27.1462 102.292 27.1977C102.201 27.3007 102.153 27.4345 102.157 27.5719V29.2601C102.153 29.3301 102.164 29.4 102.191 29.465C102.217 29.5301 102.257 29.5887 102.308 29.6363C102.411 29.7274 102.545 29.7758 102.682 29.7715H104.856V30.9233H102.671C102.487 30.9209 102.304 30.891 102.129 30.835C101.933 30.7746 101.75 30.6777 101.589 30.5491C101.415 30.4072 101.274 30.23 101.173 30.0293C101.055 29.7891 100.998 29.5236 101.006 29.256V27.5627C101.008 27.3787 101.038 27.1961 101.094 27.021C101.154 26.8248 101.252 26.6418 101.38 26.4815C101.522 26.3075 101.699 26.1658 101.9 26.0657C102.141 25.9473 102.407 25.8899 102.674 25.8983H104.859C105.043 25.9007 105.226 25.9306 105.401 25.9866C105.606 26.0488 105.797 26.1518 105.962 26.2897C106.126 26.4273 106.261 26.5968 106.358 26.7882C106.477 27.0287 106.535 27.2944 106.528 27.5627Z" fill="#191C1F"/>
<path d="M116.704 30.9233H111.185C111.102 30.9242 111.02 30.9081 110.943 30.8765C110.871 30.8478 110.805 30.8042 110.75 30.7486C110.695 30.6934 110.652 30.6281 110.622 30.5563C110.59 30.4794 110.574 30.3972 110.575 30.3142V24.2568H111.785V29.7154H116.704V30.9233Z" fill="#191C1F"/>
<path d="M118.687 24.866H117.473V23.7725H118.682L118.687 24.866ZM118.687 30.9246H117.473V25.8983H118.682L118.687 30.9246Z" fill="#191C1F"/>
<path d="M124.338 30.9235H123.125V27.5909C123.129 27.5253 123.121 27.4596 123.1 27.3977C123.078 27.3357 123.044 27.2788 123 27.2302C122.949 27.1861 122.89 27.1527 122.826 27.1317C122.762 27.1106 122.694 27.1025 122.627 27.1075H121.055V30.9235H119.845V26.4982C119.844 26.4175 119.86 26.3375 119.892 26.2634C119.921 26.1913 119.966 26.1262 120.021 26.072C120.078 26.0173 120.144 25.9739 120.217 25.9443C120.292 25.9136 120.373 25.8982 120.454 25.8984H122.639C122.823 25.9007 123.004 25.9305 123.179 25.9868C123.377 26.0485 123.563 26.1441 123.728 26.2695V25.8984H125.366C125.488 25.8989 125.61 25.9122 125.729 25.938C125.859 25.9649 125.987 26.006 126.109 26.0607C126.236 26.1183 126.357 26.1909 126.468 26.2767C126.585 26.3678 126.687 26.4761 126.771 26.5981C126.862 26.7319 126.931 26.8783 126.979 27.0327C127.034 27.2135 127.061 27.4017 127.058 27.5909V30.9235H125.847V27.5909C125.857 27.4596 125.814 27.3301 125.729 27.2302C125.679 27.1859 125.622 27.1522 125.559 27.131C125.496 27.11 125.43 27.1018 125.363 27.1075H124.275C124.316 27.2652 124.336 27.4277 124.335 27.5909L124.338 30.9235Z" fill="#191C1F"/>
<path d="M129.399 24.866H128.188V23.7725H129.398L129.399 24.866ZM129.399 30.9246H128.188V25.8983H129.398L129.399 30.9246Z" fill="#191C1F"/>
<path d="M135.132 27.1072H133.019V30.9233H131.795V27.1072H130.223V25.8982H131.795V24.2568H133.019V25.8982H135.132V27.1072Z" fill="#191C1F"/>
<path d="M141.321 27.5626C141.319 27.7466 141.288 27.929 141.232 28.1041C141.172 28.3007 141.075 28.4838 140.946 28.6435C140.804 28.8178 140.627 28.9595 140.426 29.0593C140.185 29.1778 139.919 29.2352 139.651 29.2268H137.466V28.0781H139.651C139.722 28.0824 139.793 28.0711 139.858 28.0451C139.924 28.0191 139.984 27.9789 140.032 27.9274C140.123 27.8241 140.172 27.6905 140.167 27.5531C140.171 27.4838 140.16 27.4146 140.133 27.3502C140.107 27.286 140.067 27.2282 140.016 27.1809C139.915 27.0919 139.785 27.044 139.651 27.0469H137.466C137.395 27.0426 137.324 27.0539 137.258 27.0799C137.192 27.1061 137.133 27.1461 137.084 27.1977C136.994 27.3009 136.946 27.4347 136.95 27.5719V29.26C136.946 29.3301 136.957 29.3999 136.983 29.465C137.009 29.5301 137.05 29.5886 137.101 29.6363C137.204 29.7276 137.338 29.7757 137.475 29.7714H139.648V30.9233H137.464C137.28 30.9208 137.097 30.8912 136.922 30.8349C136.726 30.7746 136.542 30.6774 136.382 30.5491C136.208 30.4071 136.066 30.23 135.966 30.0293C135.848 29.7891 135.79 29.5235 135.799 29.256V27.5626C135.801 27.3787 135.831 27.1961 135.887 27.0209C135.947 26.8245 136.044 26.6413 136.173 26.4815C136.315 26.3077 136.492 26.166 136.693 26.0657C136.934 25.9475 137.2 25.8901 137.468 25.8982H139.653C139.837 25.9007 140.019 25.9305 140.195 25.9866C140.4 26.0485 140.591 26.1516 140.755 26.2894C140.92 26.427 141.054 26.5968 141.151 26.7882C141.27 27.0284 141.329 27.2944 141.321 27.5626Z" fill="#191C1F"/>
<path d="M147.655 29.2269C147.658 29.4168 147.631 29.6057 147.576 29.7871C147.529 29.9429 147.459 30.0904 147.368 30.2249C147.284 30.3474 147.182 30.4559 147.065 30.546C146.954 30.6317 146.833 30.7042 146.705 30.7623C146.583 30.8168 146.455 30.8579 146.324 30.885C146.203 30.9101 146.081 30.9234 145.958 30.9246H143.774C143.584 30.9275 143.396 30.9008 143.215 30.8455C143.06 30.7984 142.914 30.7282 142.78 30.6375C142.658 30.5535 142.55 30.4511 142.458 30.334C142.29 30.116 142.174 29.862 142.119 29.5919C142.094 29.4733 142.081 29.3523 142.08 29.231V27.5908C142.071 27.3182 142.13 27.0477 142.249 26.8027C142.352 26.5998 142.496 26.4204 142.673 26.2769C142.835 26.1447 143.023 26.0461 143.224 25.9867C143.402 25.9309 143.587 25.901 143.774 25.8983H145.958V27.1074H143.785C143.718 27.1026 143.652 27.111 143.588 27.132C143.525 27.153 143.467 27.1865 143.417 27.2301C143.372 27.2784 143.339 27.3356 143.317 27.3975C143.296 27.4595 143.287 27.5252 143.292 27.5908V29.2177C143.287 29.2845 143.295 29.3521 143.316 29.4158C143.337 29.4798 143.371 29.5388 143.414 29.5896C143.463 29.6342 143.52 29.6683 143.582 29.69C143.644 29.7114 143.71 29.7203 143.775 29.7155H145.96C146.027 29.7209 146.094 29.7123 146.157 29.6909C146.22 29.6692 146.278 29.6348 146.327 29.5896C146.371 29.5401 146.403 29.4825 146.424 29.4204C146.445 29.358 146.453 29.2925 146.448 29.2269V23.7725H147.658L147.655 29.2269Z" fill="#191C1F"/>
<path d="M57.6878 20.0107L46.1561 0.0341797H40.3906L51.9209 20.0107L40.3906 39.9862H46.1561L57.6878 20.0107Z" fill="url(#paint0_linear_1965_1981)"/>
<path d="M40.3914 29.9982H23.095L20.2116 25.0034L17.3281 29.9982L20.2116 34.9933H37.5079L40.3914 29.9982Z" fill="#E03E32"/>
<path d="M40.3915 20.0108L37.5077 25.0035H43.2737L46.157 20.0108L37.5077 5.0293H31.7432L40.3915 20.0108Z" fill="#5DC972"/>
<path d="M31.7419 15.0156H25.9748L23.0938 20.0106L25.9748 25.0034H31.7419L34.6229 20.0106L31.7419 15.0156Z" fill="#3CB1E5"/>
<path d="M23.0943 10.022H28.8591L25.9755 5.0293H20.2108L11.5615 20.0108L14.445 25.0035L23.0943 10.022Z" fill="#F2C762"/>
<path d="M5.7972 20.0107L8.67843 15.0157L11.5619 10.0219L14.4454 5.02915L17.3278 0.0341797H11.5619L8.67843 5.02915L0.0302734 20.0107L11.5619 39.9862H17.3278L5.7972 20.0107Z" fill="url(#paint1_linear_1965_1981)"/>
</g>
</g>
<defs>
<linearGradient id="paint0_linear_1965_1981" x1="49.0396" y1="0.0341797" x2="49.0396" y2="39.9862" gradientUnits="userSpaceOnUse">
<stop offset="0.01" stop-color="#3CB1E5"/>
<stop offset="1" stop-color="#4AA85E"/>
</linearGradient>
<linearGradient id="paint1_linear_1965_1981" x1="8.67956" y1="0.0341797" x2="8.67956" y2="39.9862" gradientUnits="userSpaceOnUse">
<stop offset="0.01" stop-color="#F2C762"/>
<stop offset="1" stop-color="#F9413D"/>
</linearGradient>
<clipPath id="clip0_1965_1981">
<rect width="226" height="40" fill="white"/>
</clipPath>
</defs>
</svg>
