<svg width="321" height="351" viewBox="0 0 321 351" fill="none" xmlns="http://www.w3.org/2000/svg">
<path d="M160.134 27.9258C85.9573 27.9258 25.8203 88.0608 25.8203 162.242C25.8203 236.422 85.9583 296.556 160.134 296.556C234.318 296.556 294.451 236.421 294.451 162.242C294.451 88.0598 234.317 27.9258 160.134 27.9258ZM160.237 286.152C91.9053 286.152 36.5153 230.462 36.5153 161.767C36.5153 93.0718 91.9063 37.3788 160.237 37.3788C228.567 37.3788 283.966 93.0718 283.966 161.768C283.966 230.464 228.567 286.152 160.237 286.152Z" fill="url(#paint0_linear_375_1268)"/>
<path d="M160.134 3.06396C74.0134 3.06396 4.19141 74.33 4.19141 162.242C4.19141 250.152 74.0134 321.418 160.134 321.418C246.263 321.418 316.08 250.152 316.08 162.242C316.079 74.33 246.263 3.06396 160.134 3.06396ZM160.134 296.516C87.4864 296.516 28.5904 236.399 28.5904 162.242C28.5904 88.084 87.4864 27.969 160.134 27.969C232.789 27.969 291.683 88.084 291.683 162.242C291.683 236.398 232.788 296.516 160.134 296.516Z" fill="url(#paint1_linear_375_1268)"/>
<path d="M160.134 0C71.693 0 0 72.639 0 162.242C0 251.844 71.693 324.482 160.134 324.482C248.576 324.482 320.271 251.843 320.271 162.242C320.27 72.638 248.576 0 160.134 0ZM160.134 321.119C73.984 321.119 4.15 249.986 4.15 162.244C4.15 74.492 73.984 3.359 160.134 3.359C246.279 3.359 316.117 74.492 316.117 162.244C316.117 249.986 246.279 321.119 160.134 321.119Z" fill="url(#paint2_linear_375_1268)"/>
<path d="M282.226 163.265C281.12 230.144 226.009 283.473 159.126 282.374C92.2399 281.27 38.9119 226.162 40.0169 159.276C41.1199 92.3931 96.2289 39.0661 163.113 40.1671C230 41.2731 283.324 96.3821 282.226 163.265Z" fill="url(#paint3_linear_375_1268)"/>
<path d="M163.178 36.196C94.0997 35.059 37.1837 90.131 36.0457 159.21C34.9057 228.285 89.9847 285.206 159.06 286.344C228.137 287.479 285.057 232.404 286.197 163.327C287.326 94.25 232.256 37.332 163.178 36.196ZM159.147 281.204C92.9067 280.112 40.0947 225.533 41.1867 159.294C42.2757 93.06 96.8577 40.246 163.095 41.337C229.333 42.428 282.143 97.008 281.056 163.244C279.96 229.481 225.387 282.294 159.147 281.204Z" fill="url(#paint4_linear_375_1268)"/>
<path d="M162.511 72.6118C113.544 71.8408 73.2284 110.911 72.4614 159.878C71.6904 208.847 110.761 249.162 159.725 249.928C208.697 250.698 249.008 211.627 249.78 162.66C250.547 113.696 211.481 73.3778 162.511 72.6118ZM159.785 246.288C112.832 245.548 75.3644 206.889 76.1024 159.932C76.8404 112.983 115.502 75.5168 162.454 76.2508C209.411 76.9908 246.87 115.652 246.138 162.604C245.396 209.558 206.738 247.022 159.785 246.288Z" fill="url(#paint5_linear_375_1268)"/>
<path d="M155.495 68.7522L155.264 51.7732L159.096 51.7222C160.107 51.7082 161.022 51.9612 161.843 52.4842C162.544 52.9262 163.049 53.6172 163.36 54.5622C163.53 55.0662 163.619 55.6642 163.628 56.3582C163.645 57.4962 163.355 58.4122 162.759 59.1072C162.51 59.3992 162.215 59.6252 161.875 59.7832C162.446 59.9902 162.934 60.4142 163.341 61.0492C163.608 61.4782 163.81 62.0342 163.945 62.7192C164.012 63.0702 164.05 63.4642 164.056 63.8972C164.069 64.9712 163.879 65.8852 163.484 66.6402C163.175 67.2302 162.735 67.7052 162.162 68.0652C161.518 68.4712 160.875 68.6792 160.234 68.6872L155.495 68.7522ZM158.121 58.6692L159.191 58.6532C159.984 58.6432 160.512 58.2472 160.772 57.4682C160.867 57.1782 160.912 56.8212 160.906 56.3962C160.897 55.6922 160.718 55.1622 160.37 54.8052C160.049 54.4752 159.637 54.3142 159.131 54.3212L158.062 54.3352L158.121 58.6692ZM158.223 66.1822L159.293 66.1682C160.16 66.1572 160.754 65.7012 161.075 64.8022C161.188 64.4962 161.243 64.1422 161.237 63.7452C161.224 62.7962 161.034 62.1082 160.667 61.6792C160.336 61.2872 159.855 61.0952 159.224 61.1042L158.154 61.1192L158.223 66.1822Z" fill="url(#paint6_linear_375_1268)"/>
<path d="M168.609 68.9774L166.055 68.8074L167.18 51.8784L169.735 52.0484L168.609 68.9774Z" fill="url(#paint7_linear_375_1268)"/>
<path d="M175.13 55.1971L172.435 54.8121L172.799 52.2661L180.708 53.3981L180.343 55.9441L177.662 55.5611L175.623 69.8081L173.09 69.4471L175.13 55.1971Z" fill="url(#paint8_linear_375_1268)"/>
<path d="M183.571 71.6533C182.476 71.3783 181.641 70.7633 181.066 69.8053C180.49 68.8473 180.338 67.8263 180.61 66.7413L182.852 57.7543C183.126 56.6583 183.744 55.8253 184.706 55.2513C185.667 54.6763 186.691 54.5253 187.777 54.7953C188.872 55.0673 189.704 55.6863 190.274 56.6463C190.843 57.6083 190.993 58.6303 190.722 59.7173L190.253 61.5953L187.678 60.9533L188.159 59.0223C188.258 58.6283 188.201 58.2563 187.991 57.9053C187.781 57.5553 187.478 57.3303 187.084 57.2333C186.689 57.1333 186.319 57.1913 185.973 57.4033C185.628 57.6143 185.406 57.9173 185.308 58.3113L183.059 67.3243C182.96 67.7183 183.015 68.0873 183.222 68.4323C183.429 68.7763 183.729 68.9983 184.124 69.0963C184.519 69.1953 184.89 69.1413 185.239 68.9343C185.588 68.7283 185.812 68.4293 185.91 68.0353L186.477 65.7623L189.052 66.4043L188.479 68.7043C188.206 69.7993 187.588 70.6323 186.628 71.2013C185.667 71.7703 184.647 71.9203 183.571 71.6533Z" fill="url(#paint9_linear_375_1268)"/>
<path d="M198.857 58.1673C199.917 58.5553 200.68 59.2573 201.149 60.2753C201.618 61.2933 201.66 62.3273 201.275 63.3793L198.092 72.0763C197.703 73.1363 197.001 73.8993 195.984 74.3683C194.966 74.8363 193.932 74.8793 192.881 74.4943C191.82 74.1063 191.059 73.4043 190.594 72.3883C190.13 71.3723 190.09 70.3383 190.475 69.2883L193.659 60.5903C194.046 59.5303 194.75 58.7663 195.766 58.2973C196.784 57.8293 197.813 57.7863 198.857 58.1673ZM198.789 62.4113C198.929 62.0303 198.913 61.6563 198.744 61.2923C198.575 60.9273 198.3 60.6753 197.918 60.5353C197.537 60.3953 197.161 60.4093 196.793 60.5783C196.423 60.7443 196.169 61.0193 196.03 61.4003L192.836 70.1253C192.696 70.5063 192.714 70.8803 192.888 71.2463C193.061 71.6133 193.339 71.8673 193.72 72.0053C194.101 72.1453 194.474 72.1313 194.839 71.9613C195.205 71.7933 195.457 71.5183 195.596 71.1353L198.789 62.4113Z" fill="url(#paint10_linear_375_1268)"/>
<path d="M200.876 77.6232L198.55 76.5562L205.629 61.1362L207.955 62.2042L200.876 77.6232Z" fill="url(#paint11_linear_375_1268)"/>
<path d="M213.557 65.035L210.907 76.644L216.515 66.706L218.743 67.963L210.399 82.752L208.005 81.4L210.283 70.2L204.939 79.669L202.71 78.412L211.055 63.623L213.557 65.035Z" fill="url(#paint12_linear_375_1268)"/>
<path d="M215.691 80.3651C216.324 79.4341 217.578 79.2461 218.481 79.8851C219.384 80.5231 219.61 81.7551 218.972 82.6601C218.323 83.5781 217.1 83.7871 216.182 83.1391C215.279 82.4991 215.042 81.2831 215.691 80.3651Z" fill="url(#paint13_linear_375_1268)"/>
<path d="M219.83 89.5482L231.19 76.9282L234.038 79.4922C234.79 80.1682 235.29 80.9762 235.536 81.9172C235.751 82.7162 235.653 83.5692 235.24 84.4742C235.022 84.9582 234.681 85.4582 234.216 85.9742C233.455 86.8202 232.62 87.2952 231.712 87.4012C231.331 87.4452 230.961 87.4122 230.604 87.2962C230.881 87.8372 230.954 88.4792 230.819 89.2202C230.725 89.7192 230.494 90.2642 230.129 90.8592C229.941 91.1622 229.702 91.4762 229.412 91.7972C228.693 92.5972 227.933 93.1372 227.129 93.4232C226.501 93.6482 225.855 93.6982 225.191 93.5722C224.442 93.4332 223.83 93.1492 223.353 92.7192L219.83 89.5482ZM223.578 89.5142L224.373 90.2302C225.017 90.8102 225.762 90.8792 226.608 90.4382C226.901 90.2892 227.18 90.0672 227.445 89.7712C228.08 89.0672 228.407 88.4322 228.429 87.8682C228.452 87.3552 228.229 86.8892 227.76 86.4652L226.967 85.7512L223.578 89.5142ZM228.605 83.9282L229.4 84.6452C229.99 85.1772 230.646 85.2452 231.366 84.8492C231.633 84.7012 231.909 84.4682 232.193 84.1542C232.664 83.6292 232.892 83.1182 232.88 82.6222C232.868 82.1612 232.675 81.7622 232.299 81.4252L231.504 80.7092L228.605 83.9282Z" fill="url(#paint14_linear_375_1268)"/>
<path d="M229.292 98.6112L227.534 96.7512L239.864 85.0962L241.622 86.9562L229.292 98.6112Z" fill="url(#paint15_linear_375_1268)"/>
<path d="M243.443 92.94L241.729 90.8271L243.728 89.2061L248.759 95.412L246.761 97.0311L245.055 94.9281L233.875 103.995L232.263 102.007L243.443 92.94Z" fill="url(#paint16_linear_375_1268)"/>
<path d="M238.443 110.727C237.825 109.782 237.629 108.764 237.858 107.67C238.085 106.576 238.667 105.723 239.604 105.109L247.352 100.034C248.295 99.4153 249.315 99.2223 250.412 99.4543C251.508 99.6843 252.363 100.27 252.976 101.206C253.595 102.15 253.786 103.167 253.553 104.26C253.319 105.352 252.734 106.205 251.798 106.819L250.178 107.879L248.723 105.659L250.388 104.569C250.727 104.347 250.939 104.035 251.023 103.636C251.106 103.236 251.037 102.866 250.814 102.526C250.592 102.186 250.281 101.976 249.885 101.897C249.487 101.817 249.118 101.89 248.778 102.111L241.008 107.202C240.668 107.424 240.458 107.733 240.375 108.126C240.293 108.519 240.363 108.887 240.585 109.227C240.808 109.566 241.117 109.779 241.513 109.866C241.909 109.95 242.277 109.883 242.617 109.66L244.576 108.376L246.031 110.596L244.049 111.894C243.105 112.513 242.087 112.704 240.994 112.47C239.902 112.236 239.052 111.655 238.443 110.727Z" fill="url(#paint17_linear_375_1268)"/>
<path d="M258.837 111.227C259.353 112.232 259.437 113.266 259.09 114.331C258.744 115.397 258.072 116.185 257.077 116.695L248.836 120.922C247.833 121.438 246.797 121.522 245.732 121.175C244.667 120.829 243.879 120.157 243.368 119.163C242.853 118.157 242.77 117.125 243.118 116.065C243.467 115.002 244.138 114.217 245.134 113.707L253.375 109.478C254.378 108.964 255.413 108.879 256.478 109.226C257.544 109.573 258.33 110.239 258.837 111.227ZM255.908 114.298C256.269 114.112 256.512 113.829 256.636 113.446C256.759 113.063 256.727 112.691 256.543 112.331C256.357 111.969 256.072 111.725 255.687 111.597C255.302 111.469 254.929 111.499 254.568 111.684L246.303 115.925C245.941 116.109 245.7 116.395 245.579 116.783C245.458 117.17 245.49 117.544 245.675 117.905C245.86 118.265 246.145 118.508 246.528 118.632C246.911 118.754 247.283 118.724 247.644 118.538L255.908 114.298Z" fill="url(#paint18_linear_375_1268)"/>
<path d="M247.116 126.877L246.132 124.515L261.793 117.989L262.777 120.351L247.116 126.877Z" fill="url(#paint19_linear_375_1268)"/>
<path d="M264.965 126.219L255.142 132.949L266.005 129.452L266.789 131.889L250.625 137.091L249.783 134.474L259.055 127.791L248.705 131.123L247.92 128.686L264.084 123.484L264.965 126.219Z" fill="url(#paint20_linear_375_1268)"/>
<path d="M256.89 142.453C257.995 142.241 259.016 142.992 259.206 144.082C259.396 145.171 258.685 146.204 257.595 146.394C256.487 146.587 255.472 145.873 255.28 144.765C255.09 143.676 255.782 142.646 256.89 142.453Z" fill="url(#paint21_linear_375_1268)"/>
<path d="M253.337 151.875L270.293 150.958L270.501 154.785C270.555 155.794 270.338 156.72 269.85 157.56C269.437 158.278 268.765 158.812 267.835 159.159C267.339 159.349 266.743 159.463 266.049 159.5C264.914 159.562 263.986 159.309 263.269 158.743C262.967 158.506 262.729 158.22 262.558 157.887C262.372 158.467 261.97 158.97 261.352 159.403C260.934 159.687 260.384 159.912 259.707 160.075C259.358 160.157 258.968 160.209 258.535 160.233C257.462 160.292 256.541 160.137 255.77 159.772C255.168 159.488 254.675 159.068 254.292 158.509C253.86 157.881 253.627 157.248 253.593 156.608L253.337 151.875ZM256.014 154.496L256.072 155.565C256.118 156.43 256.597 157.005 257.508 157.29C257.821 157.391 258.175 157.43 258.572 157.409C259.518 157.358 260.197 157.14 260.611 156.757C260.99 156.411 261.163 155.922 261.129 155.292L261.071 154.223L256.014 154.496ZM263.518 154.092L263.576 155.159C263.62 155.952 264.036 156.464 264.826 156.691C265.119 156.774 265.478 156.806 265.902 156.783C266.605 156.744 267.128 156.543 267.47 156.181C267.786 155.848 267.931 155.429 267.904 154.924L267.846 153.856L263.518 154.092Z" fill="url(#paint22_linear_375_1268)"/>
<path d="M253.634 164.933L253.717 162.374L270.675 162.931L270.591 165.488L253.634 164.933Z" fill="url(#paint23_linear_375_1268)"/>
<path d="M267.676 170.906L267.951 168.198L270.51 168.457L269.704 176.406L267.144 176.145L267.418 173.451L253.098 171.997L253.356 169.451L267.676 170.906Z" fill="url(#paint24_linear_375_1268)"/>
<path d="M251.583 180.023C251.81 178.919 252.391 178.059 253.324 177.445C254.257 176.829 255.271 176.636 256.368 176.861L265.438 178.732C266.543 178.959 267.403 179.542 268.016 180.478C268.63 181.417 268.823 182.434 268.597 183.53C268.37 184.635 267.787 185.491 266.85 186.101C265.914 186.709 264.897 186.901 263.801 186.676L261.904 186.284L262.44 183.684L264.389 184.087C264.787 184.168 265.157 184.097 265.498 183.872C265.839 183.649 266.051 183.336 266.133 182.939C266.216 182.54 266.143 182.173 265.918 181.836C265.692 181.5 265.381 181.29 264.983 181.208L255.885 179.332C255.487 179.25 255.12 179.319 254.785 179.541C254.449 179.763 254.239 180.071 254.157 180.47C254.075 180.868 254.144 181.236 254.365 181.577C254.585 181.918 254.894 182.128 255.292 182.21L257.586 182.683L257.05 185.283L254.73 184.804C253.624 184.577 252.767 183.994 252.158 183.057C251.551 182.123 251.358 181.11 251.583 180.023Z" fill="url(#paint25_linear_375_1268)"/>
<path d="M265.688 194.735C265.345 195.81 264.674 196.603 263.677 197.113C262.68 197.624 261.648 197.709 260.582 197.366L251.76 194.545C250.686 194.201 249.893 193.531 249.383 192.534C248.872 191.536 248.788 190.506 249.129 189.438C249.473 188.364 250.143 187.575 251.138 187.067C252.134 186.562 253.165 186.479 254.231 186.819L263.052 189.642C264.127 189.984 264.92 190.655 265.431 191.653C265.94 192.65 266.027 193.679 265.688 194.735ZM261.445 194.844C261.833 194.968 262.205 194.936 262.562 194.754C262.92 194.569 263.16 194.284 263.284 193.896C263.408 193.51 263.378 193.135 263.195 192.774C263.012 192.412 262.728 192.169 262.341 192.045L253.494 189.216C253.106 189.092 252.734 189.124 252.375 189.314C252.017 189.502 251.775 189.79 251.652 190.176C251.528 190.565 251.558 190.935 251.742 191.294C251.926 191.652 252.211 191.891 252.599 192.015L261.445 194.844Z" fill="url(#paint26_linear_375_1268)"/>
<path d="M246.334 197.554L247.304 195.186L263.003 201.621L262.033 203.988L246.334 197.554Z" fill="url(#paint27_linear_375_1268)"/>
<path d="M259.431 209.712L247.723 207.542L257.884 212.736L256.719 215.016L241.6 207.287L242.85 204.84L254.135 206.654L244.453 201.705L245.618 199.426L260.737 207.154L259.431 209.712Z" fill="url(#paint28_linear_375_1268)"/>
<path d="M243.242 213.998C244.186 214.611 244.404 215.859 243.786 216.776C243.17 217.695 241.942 217.948 241.024 217.331C240.091 216.703 239.852 215.487 240.48 214.553C241.097 213.636 242.31 213.37 243.242 213.998Z" fill="url(#paint29_linear_375_1268)"/>
<path d="M232.777 220.058L245.385 231.434L242.817 234.28C242.14 235.03 241.333 235.529 240.392 235.775C239.592 235.989 238.74 235.888 237.836 235.475C237.352 235.257 236.852 234.915 236.336 234.45C235.492 233.687 235.017 232.852 234.912 231.943C234.868 231.562 234.903 231.193 235.018 230.837C234.477 231.113 233.835 231.185 233.093 231.05C232.596 230.954 232.051 230.723 231.457 230.358C231.153 230.168 230.84 229.929 230.518 229.638C229.721 228.918 229.179 228.158 228.896 227.354C228.672 226.726 228.623 226.079 228.749 225.416C228.889 224.666 229.173 224.054 229.603 223.579L232.777 220.058ZM232.807 223.807L232.09 224.6C231.509 225.244 231.44 225.989 231.879 226.836C232.029 227.129 232.251 227.409 232.546 227.675C233.25 228.31 233.883 228.638 234.446 228.661C234.959 228.684 235.427 228.462 235.85 227.994L236.567 227.2L232.807 223.807ZM238.387 228.841L237.67 229.633C237.137 230.224 237.069 230.88 237.464 231.6C237.612 231.868 237.843 232.144 238.159 232.428C238.681 232.899 239.191 233.129 239.689 233.116C240.149 233.105 240.548 232.912 240.887 232.536L241.603 231.743L238.387 228.841Z" fill="url(#paint30_linear_375_1268)"/>
<path d="M223.717 229.497L225.578 227.74L237.221 240.082L235.36 241.839L223.717 229.497Z" fill="url(#paint31_linear_375_1268)"/>
<path d="M229.374 243.657L231.489 241.944L233.108 243.945L226.899 248.972L225.279 246.972L227.383 245.268L218.328 234.079L220.317 232.469L229.374 243.657Z" fill="url(#paint32_linear_375_1268)"/>
<path d="M211.578 238.647C212.522 238.029 213.542 237.837 214.635 238.065C215.728 238.294 216.581 238.878 217.194 239.814L222.26 247.568C222.877 248.512 223.069 249.533 222.837 250.629C222.603 251.725 222.019 252.578 221.082 253.191C220.138 253.808 219.119 253.998 218.028 253.764C216.936 253.528 216.084 252.941 215.471 252.005L214.412 250.385L216.633 248.932L217.722 250.599C217.944 250.939 218.255 251.15 218.655 251.234C219.055 251.319 219.425 251.25 219.765 251.027C220.105 250.806 220.315 250.495 220.395 250.098C220.475 249.701 220.404 249.331 220.182 248.991L215.1 241.216C214.878 240.875 214.57 240.665 214.177 240.583C213.784 240.5 213.417 240.571 213.076 240.793C212.736 241.015 212.523 241.325 212.437 241.72C212.351 242.116 212.418 242.485 212.641 242.825L213.922 244.786L211.701 246.236L210.405 244.254C209.788 243.309 209.597 242.292 209.832 241.199C210.066 240.104 210.648 239.255 211.578 238.647Z" fill="url(#paint33_linear_375_1268)"/>
<path d="M211.09 259.023C210.085 259.537 209.051 259.621 207.985 259.275C206.921 258.927 206.132 258.255 205.623 257.259L201.402 249.015C200.888 248.01 200.804 246.976 201.152 245.91C201.5 244.845 202.17 244.057 203.167 243.548C204.171 243.034 205.205 242.95 206.265 243.299C207.327 243.649 208.112 244.321 208.621 245.318L212.843 253.561C213.357 254.567 213.441 255.6 213.094 256.666C212.746 257.732 212.078 258.517 211.09 259.023ZM208.022 256.092C208.208 256.454 208.491 256.695 208.874 256.819C209.256 256.943 209.628 256.911 209.99 256.727C210.352 256.542 210.596 256.258 210.723 255.873C210.851 255.488 210.823 255.114 210.637 254.752L206.403 246.485C206.218 246.124 205.933 245.881 205.546 245.76C205.16 245.638 204.786 245.67 204.424 245.856C204.062 246.041 203.82 246.324 203.695 246.708C203.572 247.091 203.604 247.463 203.788 247.825L208.022 256.092Z" fill="url(#paint34_linear_375_1268)"/>
<path d="M195.416 247.304L197.779 246.322L204.286 261.991L201.923 262.972L195.416 247.304Z" fill="url(#paint35_linear_375_1268)"/>
<path d="M196.051 265.155L189.334 255.324L192.817 266.193L190.38 266.973L185.195 250.804L187.813 249.965L194.486 259.245L191.166 248.892L193.603 248.109L198.787 264.279L196.051 265.155Z" fill="url(#paint36_linear_375_1268)"/>
<path d="M181.597 256.701C181.828 257.803 181.095 258.836 180.008 259.045C178.922 259.254 177.876 258.561 177.667 257.476C177.454 256.371 178.151 255.343 179.255 255.13C180.342 254.923 181.384 255.597 181.597 256.701Z" fill="url(#paint37_linear_375_1268)"/>
<path d="M170.441 253.492L171.344 270.45L167.517 270.652C166.507 270.707 165.583 270.489 164.744 270.001C164.026 269.587 163.493 268.914 163.145 267.983C162.956 267.487 162.843 266.893 162.806 266.197C162.745 265.063 163 264.135 163.567 263.418C163.804 263.115 164.09 262.879 164.424 262.708C163.844 262.521 163.339 262.119 162.909 261.5C162.625 261.082 162.401 260.533 162.238 259.854C162.156 259.506 162.103 259.117 162.081 258.684C162.024 257.611 162.178 256.689 162.543 255.919C162.828 255.316 163.25 254.823 163.807 254.442C164.435 254.011 165.069 253.777 165.709 253.743L170.441 253.492ZM167.817 256.168L166.75 256.225C165.884 256.271 165.308 256.75 165.022 257.659C164.922 257.972 164.881 258.326 164.903 258.723C164.953 259.669 165.171 260.349 165.553 260.762C165.899 261.141 166.388 261.315 167.018 261.282L168.086 261.225L167.817 256.168ZM168.217 263.672L167.148 263.729C166.356 263.772 165.844 264.188 165.615 264.978C165.532 265.272 165.501 265.631 165.523 266.054C165.561 266.756 165.76 267.28 166.122 267.622C166.455 267.939 166.875 268.084 167.379 268.057L168.446 268L168.217 263.672Z" fill="url(#paint38_linear_375_1268)"/>
<path d="M157.346 253.778L159.904 253.861L159.35 270.818L156.793 270.735L157.346 253.778Z" fill="url(#paint39_linear_375_1268)"/>
<path d="M151.358 267.815L154.066 268.093L153.803 270.652L145.856 269.836L146.118 267.275L148.812 267.552L150.282 253.233L152.827 253.496L151.358 267.815Z" fill="url(#paint40_linear_375_1268)"/>
<path d="M142.278 251.712C143.384 251.941 144.242 252.522 144.855 253.456C145.468 254.39 145.662 255.405 145.435 256.5L143.557 265.57C143.327 266.674 142.744 267.533 141.806 268.146C140.868 268.758 139.852 268.952 138.756 268.724C137.651 268.495 136.794 267.912 136.186 266.974C135.579 266.037 135.389 265.02 135.615 263.924L136.008 262.028L138.606 262.567L138.203 264.516C138.12 264.913 138.192 265.283 138.416 265.624C138.64 265.966 138.952 266.178 139.35 266.261C139.747 266.343 140.115 266.272 140.452 266.046C140.788 265.821 140.998 265.509 141.08 265.112L142.964 256.015C143.046 255.617 142.977 255.251 142.757 254.913C142.536 254.578 142.227 254.369 141.829 254.286C141.431 254.204 141.062 254.274 140.721 254.493C140.381 254.713 140.17 255.021 140.087 255.419L139.613 257.713L137.013 257.174L137.493 254.855C137.721 253.749 138.305 252.894 139.242 252.286C140.179 251.678 141.191 251.487 142.278 251.712Z" fill="url(#paint41_linear_375_1268)"/>
<path d="M127.533 265.798C126.459 265.452 125.667 264.782 125.158 263.784C124.648 262.785 124.565 261.754 124.907 260.688L127.738 251.87C128.084 250.796 128.755 250.005 129.752 249.494C130.751 248.986 131.783 248.902 132.848 249.244C133.923 249.589 134.712 250.26 135.217 251.256C135.722 252.253 135.804 253.282 135.461 254.349L132.631 263.168C132.285 264.241 131.614 265.033 130.617 265.542C129.618 266.052 128.59 266.137 127.533 265.798ZM127.43 261.555C127.306 261.942 127.336 262.314 127.518 262.672C127.703 263.03 127.988 263.271 128.375 263.395C128.761 263.519 129.136 263.489 129.498 263.307C129.86 263.124 130.103 262.841 130.227 262.454L133.066 253.609C133.19 253.222 133.159 252.85 132.97 252.49C132.782 252.132 132.494 251.889 132.108 251.765C131.721 251.64 131.349 251.671 130.991 251.855C130.633 252.037 130.392 252.323 130.268 252.709L127.43 261.555Z" fill="url(#paint42_linear_375_1268)"/>
<path d="M124.737 246.442L127.104 247.413L120.651 263.106L118.284 262.132L124.737 246.442Z" fill="url(#paint43_linear_375_1268)"/>
<path d="M112.584 259.533L114.765 247.828L109.562 257.983L107.284 256.816L115.026 241.704L117.473 242.958L115.648 254.239L120.606 244.563L122.883 245.73L115.14 260.841L112.584 259.533Z" fill="url(#paint44_linear_375_1268)"/>
<path d="M108.297 243.333C107.684 244.275 106.436 244.491 105.519 243.874C104.602 243.255 104.35 242.028 104.967 241.111C105.595 240.178 106.813 239.94 107.746 240.57C108.662 241.188 108.926 242.401 108.297 243.333Z" fill="url(#paint45_linear_375_1268)"/>
<path d="M102.262 232.872L90.8763 245.469L88.0333 242.9C87.2833 242.223 86.7853 241.412 86.5393 240.472C86.3263 239.673 86.4263 238.82 86.8423 237.917C87.0603 237.432 87.4033 236.933 87.8683 236.417C88.6313 235.573 89.4673 235.099 90.3763 234.997C90.7573 234.953 91.1263 234.988 91.4843 235.104C91.2073 234.563 91.1363 233.92 91.2713 233.178C91.3683 232.682 91.5993 232.137 91.9663 231.543C92.1553 231.24 92.3953 230.926 92.6853 230.605C93.4063 229.807 94.1673 229.268 94.9723 228.984C95.6003 228.761 96.2453 228.713 96.9103 228.838C97.6593 228.978 98.2703 229.263 98.7473 229.695L102.262 232.872ZM93.4753 238.473L92.6813 237.755C92.0923 237.223 91.4363 237.154 90.7153 237.548C90.4483 237.697 90.1723 237.927 89.8873 238.243C89.4153 238.764 89.1853 239.275 89.1973 239.773C89.2083 240.232 89.4003 240.631 89.7753 240.969L90.5693 241.688L93.4753 238.473ZM98.5143 232.899L97.7213 232.181C97.0783 231.599 96.3343 231.528 95.4863 231.968C95.1943 232.117 94.9143 232.339 94.6483 232.633C94.0123 233.337 93.6833 233.97 93.6613 234.534C93.6353 235.046 93.8573 235.514 94.3263 235.938L95.1193 236.656L98.5143 232.899Z" fill="url(#paint46_linear_375_1268)"/>
<path d="M92.8188 223.789L94.5728 225.652L82.2189 237.281L80.4648 235.417L92.8188 223.789Z" fill="url(#paint47_linear_375_1268)"/>
<path d="M78.6675 229.446L80.3775 231.564L78.3765 233.181L73.3555 226.966L75.3575 225.349L77.0595 227.456L88.2565 218.411L89.8645 220.402L78.6675 229.446Z" fill="url(#paint48_linear_375_1268)"/>
<path d="M83.6834 211.64C84.2994 212.585 84.4924 213.605 84.2624 214.697C84.0314 215.791 83.4474 216.642 82.5104 217.254L74.7524 222.313C73.8064 222.928 72.7854 223.12 71.6904 222.886C70.5944 222.652 69.7414 222.065 69.1294 221.127C68.5144 220.182 68.3234 219.164 68.5604 218.072C68.7974 216.981 69.3844 216.128 70.3214 215.518L71.9444 214.46L73.3934 216.683L71.7264 217.77C71.3854 217.992 71.1734 218.304 71.0894 218.703C71.0054 219.101 71.0744 219.473 71.2954 219.812C71.5174 220.153 71.8274 220.364 72.2244 220.443C72.6214 220.523 72.9904 220.452 73.3304 220.23L81.1114 215.159C81.4514 214.935 81.6624 214.629 81.7464 214.235C81.8294 213.841 81.7604 213.474 81.5384 213.133C81.3164 212.793 81.0074 212.58 80.6114 212.493C80.2154 212.406 79.8464 212.473 79.5074 212.695L77.5454 213.975L76.0954 211.752L78.0804 210.457C79.0264 209.842 80.0434 209.652 81.1364 209.888C82.2264 210.127 83.0764 210.71 83.6834 211.64Z" fill="url(#paint49_linear_375_1268)"/>
<path d="M63.3068 211.129C62.7938 210.124 62.7118 209.09 63.0598 208.024C63.4098 206.96 64.0818 206.173 65.0778 205.664L73.3278 201.453C74.3328 200.939 75.3678 200.857 76.4318 201.206C77.4968 201.554 78.2838 202.226 78.7918 203.224C79.3058 204.228 79.3858 205.262 79.0358 206.322C78.6858 207.383 78.0128 208.168 77.0158 208.676L68.7668 212.887C67.7618 213.4 66.7258 213.483 65.6618 213.134C64.5968 212.787 63.8118 212.118 63.3068 211.129ZM66.2418 208.065C65.8808 208.25 65.6378 208.533 65.5148 208.916C65.3908 209.297 65.4208 209.669 65.6058 210.031C65.7908 210.393 66.0748 210.637 66.4598 210.767C66.8438 210.895 67.2178 210.867 67.5788 210.682L75.8518 206.458C76.2138 206.272 76.4568 205.986 76.5768 205.6C76.6998 205.214 76.6678 204.839 76.4828 204.478C76.2988 204.116 76.0148 203.873 75.6318 203.749C75.2498 203.625 74.8778 203.655 74.5158 203.841L66.2418 208.065Z" fill="url(#paint50_linear_375_1268)"/>
<path d="M75.0588 195.498L76.0378 197.863L60.3638 204.359L59.3848 201.994L75.0588 195.498Z" fill="url(#paint51_linear_375_1268)"/>
<path d="M57.2007 196.101L67.0367 189.393L56.1667 192.867L55.3877 190.429L71.5637 185.262L72.3997 187.879L63.1137 194.543L73.4717 191.234L74.2507 193.67L58.0767 198.839L57.2007 196.101Z" fill="url(#paint52_linear_375_1268)"/>
<path d="M66.0559 183.392C64.9589 183.642 63.9129 182.927 63.6849 181.844C63.4569 180.763 64.1319 179.704 65.2139 179.477C66.3149 179.247 67.3539 179.924 67.5849 181.025C67.8119 182.107 67.1579 183.162 66.0559 183.392Z" fill="url(#paint53_linear_375_1268)"/>
<path d="M69.0135 171.691L52.0695 172.794L51.8215 168.969C51.7555 167.962 51.9625 167.034 52.4415 166.189C52.8465 165.465 53.5125 164.924 54.4395 164.566C54.9335 164.371 55.5265 164.25 56.2205 164.206C57.3555 164.131 58.2855 164.374 59.0095 164.933C59.3145 165.167 59.5535 165.449 59.7295 165.783C59.9085 165.202 60.3055 164.691 60.9185 164.252C61.3345 163.963 61.8795 163.734 62.5555 163.563C62.9035 163.478 63.2935 163.421 63.7255 163.393C64.7975 163.322 65.7205 163.466 66.4945 163.824C67.1005 164.1 67.5975 164.515 67.9865 165.069C68.4255 165.692 68.6645 166.324 68.7065 166.962L69.0135 171.691ZM58.8075 169.588L58.7385 168.521C58.6865 167.728 58.2655 167.221 57.4735 167.001C57.1785 166.921 56.8195 166.895 56.3965 166.921C55.6935 166.967 55.1725 167.173 54.8345 167.54C54.5215 167.877 54.3815 168.297 54.4145 168.801L54.4835 169.868L58.8075 169.588ZM66.3075 169.1L66.2375 168.032C66.1815 167.167 65.6965 166.596 64.7825 166.322C64.4695 166.224 64.1145 166.189 63.7175 166.215C62.7715 166.276 62.0935 166.501 61.6855 166.889C61.3095 167.24 61.1415 167.729 61.1835 168.361L61.2535 169.428L66.3075 169.1Z" fill="url(#paint54_linear_375_1268)"/>
<path d="M68.5461 158.616V161.175L51.5791 161.17L51.5801 158.611L68.5461 158.616Z" fill="url(#paint55_linear_375_1268)"/>
<path d="M54.4701 152.778L54.2241 155.489L51.6611 155.257L52.3831 147.301L54.9451 147.533L54.7001 150.23L69.0351 151.53L68.8041 154.078L54.4701 152.778Z" fill="url(#paint56_linear_375_1268)"/>
<path d="M70.465 143.49C70.25 144.596 69.677 145.464 68.752 146.088C67.826 146.712 66.813 146.916 65.714 146.703L56.624 144.932C55.516 144.716 54.65 144.143 54.027 143.211C53.404 142.28 53.199 141.267 53.413 140.167C53.629 139.059 54.202 138.197 55.132 137.576C56.062 136.957 57.076 136.755 58.174 136.97L60.075 137.341L59.567 139.945L57.613 139.564C57.215 139.486 56.845 139.562 56.507 139.791C56.168 140.018 55.96 140.332 55.883 140.731C55.805 141.129 55.881 141.497 56.109 141.83C56.339 142.165 56.652 142.371 57.051 142.449L66.169 144.225C66.568 144.302 66.934 144.229 67.267 144.003C67.601 143.779 67.807 143.468 67.884 143.068C67.963 142.67 67.889 142.3 67.665 141.964C67.441 141.626 67.13 141.418 66.731 141.34L64.432 140.891L64.94 138.286L67.265 138.74C68.373 138.956 69.236 139.529 69.854 140.458C70.474 141.391 70.677 142.4 70.465 143.49Z" fill="url(#paint57_linear_375_1268)"/>
<path d="M56.2003 128.936C56.5323 127.857 57.1933 127.058 58.1853 126.535C59.1773 126.015 60.2073 125.917 61.2773 126.248L70.1293 128.973C71.2083 129.304 72.0073 129.966 72.5283 130.957C73.0503 131.95 73.1463 132.98 72.8163 134.049C72.4843 135.129 71.8233 135.925 70.8333 136.443C69.8433 136.96 68.8123 137.053 67.7423 136.725L58.8903 134C57.8123 133.668 57.0123 133.007 56.4913 132.014C55.9703 131.023 55.8723 129.996 56.2003 128.936ZM60.4403 128.782C60.0523 128.663 59.6803 128.697 59.3253 128.885C58.9703 129.073 58.7323 129.363 58.6133 129.751C58.4933 130.138 58.5273 130.511 58.7143 130.872C58.9013 131.232 59.1893 131.472 59.5773 131.592L68.4553 134.324C68.8443 134.443 69.2163 134.408 69.5723 134.215C69.9293 134.023 70.1673 133.732 70.2873 133.344C70.4063 132.956 70.3733 132.583 70.1843 132.229C69.9953 131.872 69.7083 131.637 69.3183 131.516L60.4403 128.782Z" fill="url(#paint58_linear_375_1268)"/>
<path d="M75.5245 125.898L74.5785 128.275L58.8125 122.011L59.7575 119.633L75.5245 125.898Z" fill="url(#paint59_linear_375_1268)"/>
<path d="M62.2917 113.894L74.0217 115.937L63.8047 110.852L64.9447 108.562L80.1478 116.125L78.9227 118.586L67.6197 116.894L77.3537 121.739L76.2147 124.03L61.0107 116.466L62.2917 113.894Z" fill="url(#paint60_linear_375_1268)"/>
<path d="M78.7218 108.975C77.7738 108.367 77.5498 107.12 78.1628 106.2C78.7748 105.278 80.0008 105.017 80.9218 105.631C81.8588 106.253 82.1038 107.468 81.4808 108.406C80.8678 109.325 79.6578 109.597 78.7218 108.975Z" fill="url(#paint61_linear_375_1268)"/>
<path d="M89.1329 102.884L76.4619 91.5812L79.0129 88.7212C79.6859 87.9672 80.4919 87.4642 81.4299 87.2122C82.2289 86.9942 83.0829 87.0882 83.9889 87.4982C84.4739 87.7122 84.9759 88.0532 85.4939 88.5142C86.3429 89.2712 86.8219 90.1042 86.9319 91.0132C86.9779 91.3942 86.9449 91.7632 86.8319 92.1212C87.3719 91.8412 88.0129 91.7672 88.7559 91.8972C89.2539 91.9892 89.7999 92.2182 90.3959 92.5802C90.7019 92.7662 91.0149 93.0062 91.3389 93.2932C92.1399 94.0092 92.6849 94.7662 92.9739 95.5692C93.2019 96.1952 93.2549 96.8402 93.1329 97.5052C92.9959 98.2562 92.7159 98.8692 92.2889 99.3482L89.1329 102.884ZM83.4749 94.1352L84.1859 93.3372C84.7149 92.7432 84.7799 92.0892 84.3809 91.3692C84.2319 91.1022 83.9999 90.8282 83.6829 90.5462C83.1569 90.0782 82.6459 89.8512 82.1479 89.8672C81.6879 89.8792 81.2899 90.0742 80.9539 90.4522L80.2419 91.2502L83.4749 94.1352ZM89.0829 99.1372L89.7949 98.3392C90.3719 97.6922 90.4379 96.9472 89.9939 96.1032C89.8429 95.8112 89.6199 95.5342 89.3229 95.2682C88.6159 94.6372 87.9799 94.3122 87.4159 94.2932C86.9029 94.2722 86.4359 94.4972 86.0159 94.9692L85.3039 95.7672L89.0829 99.1372Z" fill="url(#paint62_linear_375_1268)"/>
<path d="M98.1674 93.3683L96.3144 95.1353L84.6084 82.8563L86.4604 81.0903L98.1674 93.3683Z" fill="url(#paint63_linear_375_1268)"/>
<path d="M92.4196 79.2562L90.3146 80.9802L88.6846 78.9892L94.8686 73.9302L96.4966 75.9202L94.4006 77.6362L103.517 88.7762L101.537 90.3972L92.4196 79.2562Z" fill="url(#paint64_linear_375_1268)"/>
<path d="M110.257 84.1593C109.316 84.7813 108.298 84.9803 107.203 84.7563C106.108 84.5333 105.252 83.9553 104.635 83.0203L99.5277 75.2943C98.9057 74.3523 98.7077 73.3323 98.9347 72.2373C99.1607 71.1403 99.7427 70.2833 100.676 69.6653C101.618 69.0443 102.634 68.8473 103.728 69.0763C104.821 69.3063 105.676 69.8883 106.293 70.8233L107.36 72.4373L105.147 73.9013L104.049 72.2403C103.825 71.9023 103.513 71.6923 103.113 71.6103C102.713 71.5293 102.343 71.6003 102.004 71.8233C101.665 72.0473 101.457 72.3593 101.38 72.7563C101.301 73.1543 101.375 73.5223 101.599 73.8613L106.721 81.6102C106.946 81.9482 107.254 82.1603 107.648 82.2393C108.041 82.3193 108.408 82.2483 108.748 82.0233C109.086 81.8003 109.298 81.4893 109.382 81.0943C109.466 80.6963 109.396 80.3303 109.172 79.9893L107.881 78.0352L110.094 76.5723L111.402 78.5493C112.024 79.4913 112.22 80.5073 111.99 81.6013C111.762 82.6933 111.184 83.5453 110.257 84.1593Z" fill="url(#paint65_linear_375_1268)"/>
<path d="M110.634 63.7833C111.636 63.2633 112.671 63.1753 113.738 63.5153C114.804 63.8573 115.596 64.5243 116.111 65.5163L120.377 73.7393C120.897 74.7413 120.985 75.7753 120.644 76.8433C120.303 77.9103 119.635 78.7013 118.642 79.2173C117.641 79.7373 116.608 79.8243 115.545 79.4793C114.482 79.1373 113.694 78.4693 113.178 77.4743L108.912 69.2543C108.393 68.2523 108.304 67.2183 108.645 66.1503C108.985 65.0833 109.649 64.2943 110.634 63.7833ZM113.718 66.6993C113.531 66.3393 113.246 66.0983 112.863 65.9753C112.479 65.8543 112.107 65.8863 111.746 66.0743C111.386 66.2613 111.142 66.5483 111.017 66.9323C110.892 67.3173 110.922 67.6913 111.109 68.0513L115.386 76.2973C115.574 76.6593 115.862 76.8983 116.249 77.0173C116.635 77.1383 117.01 77.1043 117.37 76.9173C117.731 76.7303 117.972 76.4453 118.094 76.0623C118.215 75.6773 118.182 75.3063 117.995 74.9453L113.718 66.6993Z" fill="url(#paint66_linear_375_1268)"/>
<path d="M126.335 75.4352L123.977 76.4302L117.381 60.7972L119.739 59.8022L126.335 75.4352Z" fill="url(#paint67_linear_375_1268)"/>
<path d="M125.631 57.5761L132.401 67.3691L128.859 56.5201L131.292 55.7261L136.562 71.8681L133.95 72.7211L127.227 63.4791L130.603 73.8151L128.17 74.6091L122.899 58.4671L125.631 57.5761Z" fill="url(#paint68_linear_375_1268)"/>
<path d="M140.142 65.9482C139.906 64.8492 140.633 63.8112 141.719 63.5972C142.803 63.3832 143.852 64.0692 144.067 65.1542C144.284 66.2572 143.595 67.2872 142.492 67.5052C141.407 67.7202 140.361 67.0532 140.142 65.9482Z" fill="url(#paint69_linear_375_1268)"/>
<path d="M161.076 160.204L166.389 76.5421L166.516 76.5491L161.337 160.223L161.176 160.202L176.932 77.8641L177.127 77.9011L161.503 160.266L161.274 160.207L187.225 80.4911L187.484 80.5761L161.66 160.33L161.374 160.217L197.111 84.3841L197.423 84.5311L161.805 160.421L161.471 160.238L206.432 89.4821L206.785 89.7061L161.938 160.535L161.571 160.268L215.045 95.7041L215.423 96.0161L162.051 160.663L161.668 160.303L222.812 102.952L223.197 103.362L162.144 160.812L161.764 160.352L229.614 111.117L229.988 111.631L162.216 160.975L161.857 160.41L235.344 120.062L235.685 120.682L162.263 161.145L161.947 160.473L239.911 129.655L240.198 130.38L162.283 161.321L162.031 160.546L243.252 139.776L243.447 140.54L162.261 161.441L162.118 160.693L245.3 150.267L245.392 150.996L162.227 161.557L162.183 160.851L246.015 160.931V161.612L162.183 161.665L162.224 161.015L245.385 171.6L245.306 172.221L162.128 161.766L162.24 161.18L243.42 182.105L243.277 182.659L162.065 161.865L162.232 161.347L240.149 192.282L239.959 192.762L161.993 161.951L162.201 161.51L235.626 201.966L235.403 202.372L161.914 162.034L162.146 161.665L229.92 211.006L229.679 211.336L161.827 162.103L162.07 161.808L223.125 219.255L222.883 219.514L161.737 162.165L161.975 161.942L215.35 226.589L215.118 226.78L161.641 162.218L161.861 162.059L206.735 232.87L206.482 233.029L161.494 162.289L161.781 162.134L197.426 238.011L197.107 238.161L161.34 162.341L161.694 162.201L187.549 241.945L187.16 242.071L161.179 162.368L161.6 162.26L177.256 244.618L176.8 244.704L161.013 162.371L161.5 162.309L166.709 245.98L166.193 246.012L160.849 162.352H161.393L156.077 246.014L155.506 245.978L160.69 162.305L161.283 162.381L145.523 244.72L144.907 244.603L160.535 162.238L161.167 162.401L135.211 242.113L134.563 241.904L160.392 162.149L161.049 162.41L125.309 238.241L124.644 237.929L160.265 162.038L160.932 162.405L115.968 233.159L115.301 232.737L160.153 161.912L160.813 162.391L107.327 226.946L106.694 226.421L160.078 161.781L160.679 162.346L99.5235 219.686L98.9545 219.079L160.018 161.642L160.55 162.284L92.6895 211.508L92.1955 210.829L159.977 161.499L160.428 162.212L86.9335 202.541L86.5245 201.796L159.955 161.349L160.318 162.12L82.3485 192.92L82.0325 192.122L159.954 161.198L160.22 162.015L79.0045 182.8L78.7885 181.96L159.97 161.047L160.133 161.901L76.9535 172.344L76.8445 171.475L160.007 160.9L160.062 161.778L76.2285 161.713V160.828L160.062 160.761L160.006 161.647L76.8425 151.075L76.9545 150.188L160.134 160.625L159.967 161.506L78.7835 140.595L79.0075 139.72L160.226 160.5L159.945 161.361L82.0315 130.419L82.3505 129.612L160.312 160.432L159.962 161.179L86.5415 120.715L86.9185 120.027L160.405 160.376L160.007 161.001L92.2345 111.658L92.6485 111.089L160.499 160.325L160.076 160.836L99.0245 103.386L99.4505 102.932L160.594 160.284L160.172 160.681L106.801 96.0321L107.217 95.6881L160.69 160.254L160.288 160.546L115.441 89.7151L115.828 89.4681L160.786 160.228L160.421 160.428L124.806 84.5391L125.147 84.3791L160.883 160.21L160.57 160.334L134.748 80.5781L135.028 80.4881L160.978 160.205L160.732 160.267L145.11 77.9021L145.318 77.8631L161.072 160.201L160.902 160.222L155.725 76.5481L155.856 76.5391L161.166 160.202H161.076V160.204ZM161.076 160.209L155.726 76.5501L155.857 76.5431L161.074 160.213L160.904 160.235L145.11 77.9041L145.318 77.8651L160.982 160.221L160.736 160.285L134.748 80.5811L135.028 80.4891L160.889 160.233L160.578 160.355L124.805 84.5401L125.146 84.3801L160.798 160.252L160.433 160.452L115.44 89.7161L115.827 89.4711L160.708 160.278L160.305 160.572L106.801 96.0321L107.217 95.6881L160.619 160.311L160.197 160.708L99.0245 103.386L99.4505 102.932L160.531 160.353L160.109 160.862L92.2355 111.658L92.6495 111.089L160.443 160.403L160.046 161.031L86.5415 120.717L86.9185 120.029L160.361 160.458L160.01 161.203L82.0325 130.422L82.3515 129.617L160.281 160.52L160.001 161.382L78.7835 140.599L79.0085 139.722L160.191 160.637L160.023 161.518L76.8435 151.076L76.9565 150.189L160.118 160.765L160.062 161.652L76.2295 161.714V160.829L160.062 160.898L160.117 161.775L76.9545 172.345L76.8445 171.476L160.025 161.037L160.187 161.892L79.0045 182.801L78.7895 181.961L160.007 161.181L160.273 162L82.3495 192.921L82.0335 192.123L160.005 161.326L160.368 162.097L86.9345 202.539L86.5245 201.796L160.021 161.47L160.472 162.181L92.6895 211.508L92.1935 210.829L160.057 161.608L160.589 162.25L99.5215 219.684L98.9525 219.079L160.112 161.743L160.713 162.307L107.325 226.944L106.692 226.421L160.182 161.869L160.842 162.348L115.968 233.159L115.3 232.735L160.287 161.995L160.954 162.363L125.309 238.241L124.644 237.927L160.41 162.107L161.067 162.366L135.212 242.112L134.564 241.901L160.546 162.197L161.178 162.359L145.522 244.718L144.906 244.599L160.693 162.266L161.286 162.34L156.075 246.012L155.504 245.974L160.848 162.315H161.392L166.708 245.976L166.191 246.01L161.007 162.336L161.493 162.276L177.253 244.615L176.797 244.701L161.169 162.338L161.59 162.23L187.546 241.942L187.157 242.068L161.329 162.315L161.683 162.175L197.423 238.008L197.103 238.158L161.481 162.269L161.767 162.111L206.731 232.865L206.478 233.027L161.627 162.202L161.846 162.042L215.346 226.586L215.114 226.777L161.719 162.148L161.956 161.924L223.121 219.252L222.878 219.509L161.804 162.084L162.047 161.792L229.916 211.001L229.675 211.333L161.885 162.015L162.118 161.648L235.62 201.964L235.396 202.37L161.958 161.938L162.167 161.495L240.143 192.281L239.953 192.761L162.026 161.852L162.194 161.334L243.413 182.103L243.27 182.657L162.084 161.758L162.196 161.171L245.378 171.599L245.298 172.22L162.133 161.662L162.174 161.009L246.005 160.929V161.61L162.174 161.557L162.129 160.852L245.291 150.265L245.383 150.995L162.204 161.448L162.062 160.702L243.242 139.775L243.438 140.541L162.225 161.335L161.974 160.56L239.902 129.653L240.189 130.38L162.213 161.162L161.897 160.49L235.337 120.059L235.678 120.679L162.174 160.995L161.814 160.429L229.608 111.113L229.981 111.627L162.11 160.833L161.728 160.372L222.806 102.949L223.192 103.361L162.023 160.685L161.64 160.325L215.039 95.7011L215.417 96.0131L161.914 160.554L161.547 160.288L206.425 89.4791L206.777 89.7031L161.787 160.439L161.453 160.256L197.103 84.3821L197.415 84.5291L161.645 160.345L161.359 160.231L187.217 80.4871L187.476 80.5721L161.491 160.275L161.262 160.216L176.923 77.8591L177.118 77.8961L161.335 160.233L161.174 160.213L166.388 76.5431L166.515 76.5501L161.166 160.209H161.076Z" fill="url(#paint70_linear_375_1268)"/>
<path d="M200.318 170.581C199.312 167.388 197.991 164.572 196.397 162.21C194.836 159.891 193.081 157.912 191.172 156.319C192.529 155.099 193.835 153.675 195.085 152.049C198.12 148.093 199.715 142.69 199.822 135.991C199.885 131.883 199.174 127.966 197.7 124.345C196.217 120.682 193.979 117.435 191.05 114.689C188.166 111.994 184.635 109.839 180.558 108.286C179.868 108.018 179.157 107.776 178.424 107.55L180.061 98.1089C180.27 96.8859 179.938 95.6369 179.149 94.6869C178.361 93.7329 177.196 93.1759 175.962 93.1569L165.702 92.9929C163.363 92.9549 161.442 94.8249 161.406 97.1569L161.269 105.755L160.8 105.748L160.936 97.1459C160.975 94.8139 159.114 92.8899 156.773 92.8529L146.519 92.6949C145.311 92.6749 144.154 93.1699 143.338 94.0639C142.523 94.9539 142.123 96.1479 142.243 97.3519L143.075 105.472L126.336 105.209C123.998 105.172 122.077 107.036 122.039 109.371L121.864 120.735C121.827 123.07 123.689 124.993 126.028 125.028L131.194 125.111L130.11 193.949L124.943 193.869C122.607 193.832 120.688 195.695 120.649 198.029L120.467 209.533C120.432 211.87 122.296 213.794 124.631 213.831L142.066 214.103L140.274 224.434C140.062 225.65 140.394 226.901 141.183 227.852C141.972 228.806 143.137 229.365 144.379 229.384L154.629 229.544C156.967 229.581 158.889 227.721 158.926 225.384L159.098 214.369L159.567 214.378L159.394 225.391C159.359 227.726 161.224 229.649 163.556 229.684L173.814 229.846C175.019 229.865 176.181 229.37 176.999 228.478C177.812 227.588 178.21 226.392 178.089 225.191L176.884 213.317C178.096 213.015 179.269 212.661 180.4 212.25C184.715 210.675 188.505 208.406 191.656 205.512C194.844 202.581 197.339 199.035 199.068 194.965C200.783 190.938 201.694 186.5 201.768 181.76C201.836 177.594 201.347 173.833 200.318 170.581ZM164.641 194.491L152.879 194.305L153.315 166.43L165.078 166.615C167.393 166.65 169.441 167.048 171.147 167.789C172.866 168.535 174.272 169.511 175.452 170.757C176.63 172.014 177.506 173.443 178.115 175.116C178.74 176.828 179.042 178.71 179.013 180.705C178.98 182.703 178.616 184.498 177.9 186.184C177.186 187.881 176.212 189.325 174.931 190.604C173.666 191.865 172.201 192.816 170.463 193.507C168.748 194.195 166.787 194.523 164.641 194.491ZM174.127 143.927C172.326 145.8 169.291 146.716 165.113 146.649L153.628 146.472L153.959 125.466L165.307 125.649C167.459 125.679 169.315 126.013 170.814 126.628C172.287 127.239 173.46 128.007 174.393 128.97C175.309 129.913 175.959 130.961 176.383 132.174C176.842 133.481 177.064 134.836 177.044 136.197C176.993 139.415 176.04 141.942 174.127 143.927Z" fill="url(#paint71_linear_375_1268)"/>
<path d="M196.291 171.858C195.395 169.035 194.264 166.611 192.891 164.572C191.525 162.546 190.026 160.861 188.413 159.526C186.792 158.193 185.248 157.088 183.769 156.224C186.594 154.96 189.241 152.713 191.731 149.473C194.211 146.243 195.499 141.722 195.592 135.924C195.646 132.371 195.043 129.039 193.781 125.936C192.52 122.826 190.647 120.111 188.157 117.777C185.668 115.447 182.632 113.596 179.052 112.233C177.345 111.58 175.52 111.082 173.583 110.726L175.891 97.3839L165.634 97.2249L165.435 110.054L156.508 109.912L156.71 97.0829L146.456 96.9219L147.761 109.776L126.272 109.439L126.09 120.803L135.486 120.95L134.274 198.241L124.878 198.096L124.697 209.6L147.077 209.951L144.441 225.156L154.695 225.318L154.935 210.075L163.864 210.214L163.625 225.458L173.88 225.618L172.28 209.893C174.642 209.57 176.868 209.039 178.954 208.279C182.758 206.889 186.042 204.928 188.793 202.398C191.541 199.871 193.674 196.839 195.177 193.307C196.678 189.78 197.473 185.904 197.536 181.696C197.597 177.959 197.178 174.679 196.291 171.858ZM180.375 130.775C181.004 132.562 181.299 134.394 181.273 136.261C181.207 140.563 179.841 144.098 177.177 146.859C174.513 149.62 170.471 150.962 165.045 150.879L149.333 150.63L149.796 121.172L165.37 121.417C168.079 121.459 170.437 121.898 172.429 122.722C174.432 123.55 176.099 124.648 177.433 126.027C178.766 127.404 179.751 128.989 180.375 130.775ZM181.796 187.838C180.87 190.019 179.577 191.94 177.916 193.599C176.252 195.257 174.296 196.536 172.032 197.434C169.776 198.333 167.291 198.761 164.577 198.716L148.587 198.465L149.155 162.134L165.147 162.387C168.045 162.431 170.609 162.942 172.836 163.908C175.069 164.884 176.964 166.196 178.527 167.857C180.092 169.522 181.28 171.461 182.089 173.666C182.893 175.881 183.277 178.244 183.239 180.77C183.199 183.299 182.722 185.652 181.796 187.838Z" fill="url(#paint72_linear_375_1268)"/>
<g opacity="0.5">
<path opacity="0.0244" d="M268.748 335.999C268.748 343.879 220.119 350.265 160.135 350.265C100.151 350.265 51.5225 343.88 51.5225 335.999C51.5225 328.119 100.15 321.73 160.135 321.73C220.119 321.731 268.748 328.119 268.748 335.999Z" fill="#3C3C3B"/>
<path opacity="0.0488" d="M266.846 335.999C266.846 343.741 219.065 350.017 160.136 350.017C101.2 350.017 53.4209 343.742 53.4209 335.999C53.4209 328.255 101.2 321.98 160.136 321.98C219.065 321.98 266.846 328.255 266.846 335.999Z" fill="#3C3C3B"/>
<path opacity="0.0732" d="M264.95 335.999C264.95 343.604 218.022 349.769 160.135 349.769C102.245 349.769 55.3164 343.604 55.3164 335.999C55.3164 328.394 102.245 322.228 160.135 322.228C218.022 322.228 264.95 328.394 264.95 335.999Z" fill="#3C3C3B"/>
<path opacity="0.0976" d="M263.056 335.999C263.056 343.466 216.974 349.519 160.136 349.519C103.291 349.519 57.207 343.466 57.207 335.999C57.207 328.527 103.291 322.478 160.136 322.478C216.974 322.478 263.056 328.527 263.056 335.999Z" fill="#3C3C3B"/>
<path opacity="0.122" d="M261.163 335.999C261.163 343.326 215.928 349.269 160.135 349.269C104.332 349.269 59.1064 343.327 59.1064 335.999C59.1064 328.669 104.332 322.724 160.135 322.724C215.928 322.724 261.163 328.669 261.163 335.999Z" fill="#3C3C3B"/>
<path opacity="0.1463" d="M259.264 335.999C259.264 343.19 214.889 349.018 160.136 349.018C105.387 349.018 61.002 343.19 61.002 335.999C61.002 328.807 105.387 322.975 160.136 322.975C214.889 322.975 259.264 328.807 259.264 335.999Z" fill="#3C3C3B"/>
<path opacity="0.1707" d="M257.374 335.999C257.374 343.052 213.837 348.772 160.136 348.772C106.432 348.772 62.8916 343.052 62.8916 335.999C62.8916 328.942 106.431 323.226 160.136 323.226C213.837 323.226 257.374 328.942 257.374 335.999Z" fill="#3C3C3B"/>
<path opacity="0.1951" d="M255.479 335.999C255.479 342.915 212.793 348.521 160.136 348.521C107.476 348.521 64.79 342.915 64.79 335.999C64.79 329.078 107.476 323.473 160.136 323.473C212.792 323.473 255.479 329.078 255.479 335.999Z" fill="#3C3C3B"/>
<path opacity="0.2195" d="M253.581 335.999C253.581 342.778 211.742 348.272 160.136 348.272C108.523 348.272 66.6865 342.778 66.6865 335.999C66.6865 329.216 108.523 323.722 160.136 323.722C211.741 323.722 253.581 329.216 253.581 335.999Z" fill="#3C3C3B"/>
<path opacity="0.2439" d="M251.688 335.999C251.688 342.64 210.697 348.025 160.136 348.025C109.571 348.025 68.585 342.64 68.585 335.999C68.585 329.354 109.57 323.97 160.136 323.97C210.697 323.97 251.688 329.354 251.688 335.999Z" fill="#3C3C3B"/>
<path opacity="0.2683" d="M249.792 335.999C249.792 342.5 209.65 347.776 160.136 347.776C110.616 347.776 70.4736 342.5 70.4736 335.999C70.4736 329.494 110.616 324.218 160.136 324.218C209.651 324.218 249.792 329.494 249.792 335.999Z" fill="#3C3C3B"/>
<path opacity="0.2927" d="M247.895 335.999C247.895 342.365 208.603 347.525 160.136 347.525C111.664 347.525 72.3682 342.365 72.3682 335.999C72.3682 329.63 111.665 324.467 160.136 324.467C208.603 324.467 247.895 329.63 247.895 335.999Z" fill="#3C3C3B"/>
<path opacity="0.3171" d="M246.002 335.999C246.002 342.227 207.559 347.275 160.136 347.275C112.715 347.275 74.2627 342.227 74.2627 335.999C74.2627 329.767 112.715 324.716 160.136 324.716C207.559 324.716 246.002 329.767 246.002 335.999Z" fill="#3C3C3B"/>
<path opacity="0.3415" d="M244.109 335.999C244.109 342.09 206.506 347.027 160.136 347.027C113.761 347.027 76.1641 342.09 76.1641 335.999C76.1641 329.904 113.761 324.966 160.136 324.966C206.506 324.966 244.109 329.904 244.109 335.999Z" fill="#3C3C3B"/>
<path opacity="0.3659" d="M242.211 335.999C242.211 341.949 205.467 346.778 160.136 346.778C114.803 346.778 78.0586 341.949 78.0586 335.999C78.0586 330.041 114.803 325.217 160.136 325.217C205.467 325.217 242.211 330.041 242.211 335.999Z" fill="#3C3C3B"/>
<path opacity="0.3902" d="M240.319 335.999C240.319 341.813 204.414 346.532 160.136 346.532C115.848 346.532 79.9521 341.814 79.9521 335.999C79.9521 330.181 115.847 325.463 160.136 325.463C204.414 325.463 240.319 330.181 240.319 335.999Z" fill="#3C3C3B"/>
<path opacity="0.4146" d="M238.423 335.999C238.423 341.676 203.373 346.282 160.136 346.282C116.901 346.282 81.8477 341.676 81.8477 335.999C81.8477 330.318 116.901 325.713 160.136 325.713C203.373 325.713 238.423 330.318 238.423 335.999Z" fill="#3C3C3B"/>
<path opacity="0.439" d="M236.53 335.999C236.53 341.542 202.322 346.031 160.136 346.031C117.947 346.031 83.7432 341.542 83.7432 335.999C83.7432 330.456 117.946 325.961 160.136 325.961C202.322 325.961 236.53 330.456 236.53 335.999Z" fill="#3C3C3B"/>
<path opacity="0.4634" d="M234.632 335.999C234.632 341.401 201.275 345.785 160.136 345.785C118.996 345.785 85.6387 341.401 85.6387 335.999C85.6387 330.593 118.996 326.21 160.136 326.21C201.275 326.211 234.632 330.593 234.632 335.999Z" fill="#3C3C3B"/>
<path opacity="0.4878" d="M232.737 335.999C232.737 341.264 200.235 345.535 160.136 345.535C120.039 345.535 87.5322 341.264 87.5322 335.999C87.5322 330.73 120.039 326.46 160.136 326.46C200.235 326.46 232.737 330.73 232.737 335.999Z" fill="#3C3C3B"/>
<path opacity="0.5122" d="M230.844 335.999C230.844 341.126 199.187 345.286 160.136 345.286C121.081 345.286 89.4287 341.126 89.4287 335.999C89.4287 330.87 121.081 326.709 160.136 326.709C199.187 326.71 230.844 330.87 230.844 335.999Z" fill="#3C3C3B"/>
<path opacity="0.5366" d="M228.945 335.999C228.945 340.99 198.136 345.037 160.136 345.037C122.131 345.037 91.3223 340.991 91.3223 335.999C91.3223 331.006 122.131 326.956 160.136 326.956C198.136 326.956 228.945 331.006 228.945 335.999Z" fill="#3C3C3B"/>
<path opacity="0.561" d="M227.049 335.999C227.049 340.852 197.091 344.788 160.136 344.788C123.179 344.788 93.2178 340.852 93.2178 335.999C93.2178 331.144 123.179 327.207 160.136 327.207C197.091 327.207 227.049 331.144 227.049 335.999Z" fill="#3C3C3B"/>
<path opacity="0.5854" d="M225.154 335.999C225.154 340.715 196.043 344.54 160.136 344.54C124.224 344.54 95.1143 340.715 95.1143 335.999C95.1143 331.279 124.225 327.458 160.136 327.458C196.042 327.458 225.154 331.279 225.154 335.999Z" fill="#3C3C3B"/>
<path opacity="0.6098" d="M223.258 335.999C223.258 340.58 194.997 344.292 160.136 344.292C125.269 344.292 97.0059 340.58 97.0059 335.999C97.0059 331.419 125.269 327.703 160.136 327.703C194.997 327.703 223.258 331.419 223.258 335.999Z" fill="#3C3C3B"/>
<path opacity="0.6341" d="M221.365 335.999C221.365 340.441 193.948 344.04 160.136 344.04C126.315 344.04 98.9023 340.442 98.9023 335.999C98.9023 331.555 126.316 327.954 160.136 327.954C193.948 327.954 221.365 331.555 221.365 335.999Z" fill="#3C3C3B"/>
<path opacity="0.6585" d="M219.47 335.999C219.47 340.303 192.906 343.792 160.136 343.792C127.366 343.792 100.799 340.303 100.799 335.999C100.799 331.693 127.365 328.203 160.136 328.203C192.906 328.203 219.47 331.693 219.47 335.999Z" fill="#3C3C3B"/>
<path opacity="0.6829" d="M217.577 335.999C217.577 340.162 191.858 343.544 160.136 343.544C128.414 343.544 102.698 340.162 102.698 335.999C102.698 331.83 128.415 328.45 160.136 328.45C191.859 328.45 217.577 331.83 217.577 335.999Z" fill="#3C3C3B"/>
<path opacity="0.7073" d="M215.682 335.999C215.682 340.026 190.808 343.292 160.136 343.292C129.459 343.292 104.59 340.026 104.59 335.999C104.59 331.967 129.459 328.699 160.136 328.699C190.808 328.699 215.682 331.967 215.682 335.999Z" fill="#3C3C3B"/>
<path opacity="0.7317" d="M213.782 335.999C213.782 339.888 189.765 343.046 160.136 343.046C130.502 343.046 106.486 339.888 106.486 335.999C106.486 332.106 130.503 328.95 160.136 328.95C189.764 328.95 213.782 332.107 213.782 335.999Z" fill="#3C3C3B"/>
<path opacity="0.7561" d="M211.89 335.999C211.89 339.754 188.715 342.794 160.136 342.794C131.551 342.794 108.384 339.754 108.384 335.999C108.384 332.243 131.551 329.198 160.136 329.198C188.715 329.198 211.89 332.243 211.89 335.999Z" fill="#3C3C3B"/>
<path opacity="0.7805" d="M209.988 335.999C209.988 339.614 187.675 342.548 160.135 342.548C132.597 342.548 110.271 339.614 110.271 335.999C110.271 332.378 132.597 329.446 160.135 329.446C187.674 329.446 209.988 332.378 209.988 335.999Z" fill="#3C3C3B"/>
<path opacity="0.8049" d="M208.098 335.999C208.098 339.476 186.622 342.3 160.136 342.3C133.644 342.3 112.166 339.475 112.166 335.999C112.166 332.519 133.643 329.695 160.136 329.695C186.622 329.695 208.098 332.519 208.098 335.999Z" fill="#3C3C3B"/>
<path opacity="0.8293" d="M206.206 335.999C206.206 339.338 185.576 342.047 160.136 342.047C134.689 342.047 114.059 339.338 114.059 335.999C114.059 332.654 134.688 329.946 160.136 329.946C185.576 329.946 206.206 332.654 206.206 335.999Z" fill="#3C3C3B"/>
<path opacity="0.8537" d="M204.309 335.999C204.309 339.202 184.527 341.801 160.136 341.801C135.74 341.801 115.957 339.202 115.957 335.999C115.957 332.793 135.74 330.196 160.136 330.196C184.528 330.196 204.309 332.793 204.309 335.999Z" fill="#3C3C3B"/>
<path opacity="0.878" d="M202.413 335.999C202.413 339.063 183.483 341.55 160.135 341.55C136.783 341.55 117.854 339.064 117.854 335.999C117.854 332.932 136.783 330.44 160.135 330.44C183.484 330.44 202.413 332.932 202.413 335.999Z" fill="#3C3C3B"/>
<path opacity="0.9024" d="M200.516 335.999C200.516 338.929 182.437 341.301 160.136 341.301C137.833 341.301 119.747 338.929 119.747 335.999C119.747 333.067 137.833 330.694 160.136 330.694C182.438 330.694 200.516 333.067 200.516 335.999Z" fill="#3C3C3B"/>
<path opacity="0.9268" d="M198.621 335.999C198.621 338.79 181.392 341.052 160.135 341.052C138.879 341.052 121.646 338.79 121.646 335.999C121.646 333.203 138.879 330.94 160.135 330.94C181.391 330.94 198.621 333.203 198.621 335.999Z" fill="#3C3C3B"/>
<path opacity="0.9512" d="M196.728 335.999C196.728 338.655 180.347 340.803 160.136 340.803C139.923 340.803 123.547 338.656 123.547 335.999C123.547 333.341 139.923 331.187 160.136 331.187C180.347 331.187 196.728 333.341 196.728 335.999Z" fill="#3C3C3B"/>
<path opacity="0.9756" d="M194.831 335.999C194.831 338.514 179.296 340.556 160.136 340.556C140.974 340.556 125.436 338.514 125.436 335.999C125.436 333.479 140.974 331.438 160.136 331.438C179.296 331.439 194.831 333.479 194.831 335.999Z" fill="#3C3C3B"/>
<path d="M192.939 335.999C192.939 338.377 178.253 340.307 160.136 340.307C142.022 340.307 127.337 338.377 127.337 335.999C127.337 333.617 142.022 331.688 160.136 331.688C178.253 331.688 192.939 333.617 192.939 335.999Z" fill="#3C3C3B"/>
</g>
<defs>
<linearGradient id="paint0_linear_375_1268" x1="267.465" y1="64.2447" x2="59.6169" y2="254.019" gradientUnits="userSpaceOnUse">
<stop stop-color="#424241"/>
<stop offset="0.5854" stop-color="white"/>
<stop offset="1" stop-color="#424241"/>
</linearGradient>
<linearGradient id="paint1_linear_375_1268" x1="5.39951" y1="162.241" x2="313.491" y2="162.241" gradientUnits="userSpaceOnUse">
<stop stop-color="#282727"/>
<stop offset="0.0508" stop-color="#3C3C3B"/>
<stop offset="0.1446" stop-color="#605F5F"/>
<stop offset="0.2709" stop-color="#929291"/>
<stop offset="0.4231" stop-color="#CFCFCE"/>
<stop offset="0.5463" stop-color="white"/>
<stop offset="1" stop-color="#373636"/>
</linearGradient>
<linearGradient id="paint2_linear_375_1268" x1="55.035" y1="36.7055" x2="263.237" y2="285.391" gradientUnits="userSpaceOnUse">
<stop offset="0.0625" stop-color="#575756"/>
<stop offset="0.1667" stop-color="#E2E1E1"/>
<stop offset="0.4063" stop-color="#696968"/>
<stop offset="0.6458" stop-color="#575756"/>
<stop offset="0.8385" stop-color="white"/>
<stop offset="0.9427" stop-color="#575756"/>
</linearGradient>
<linearGradient id="paint3_linear_375_1268" x1="40.0169" y1="159.273" x2="282.226" y2="163.27" gradientUnits="userSpaceOnUse">
<stop stop-color="#6E3511"/>
<stop offset="0.0927" stop-color="#D39338"/>
<stop offset="0.2195" stop-color="#D09037"/>
<stop offset="0.3317" stop-color="#F1B644"/>
<stop offset="0.4829" stop-color="#C58433"/>
<stop offset="0.5268" stop-color="#CA8935"/>
<stop offset="0.6341" stop-color="#D7983A"/>
<stop offset="0.7707" stop-color="#BF7F31"/>
<stop offset="0.8927" stop-color="#E3A43E"/>
<stop offset="1" stop-color="#6E3511"/>
</linearGradient>
<linearGradient id="paint4_linear_375_1268" x1="36.0444" y1="159.306" x2="286.198" y2="163.234" gradientUnits="userSpaceOnUse">
<stop stop-color="#6E3511"/>
<stop offset="0.5268" stop-color="#F1AF00"/>
<stop offset="1" stop-color="#6E3511"/>
</linearGradient>
<linearGradient id="paint5_linear_375_1268" x1="72.4612" y1="159.878" x2="249.78" y2="162.662" gradientUnits="userSpaceOnUse">
<stop stop-color="#6E3511"/>
<stop offset="0.5268" stop-color="#F1AF00"/>
<stop offset="1" stop-color="#6E3511"/>
</linearGradient>
<linearGradient id="paint6_linear_375_1268" x1="105.98" y1="29.9631" x2="331.741" y2="161.303" gradientUnits="userSpaceOnUse">
<stop stop-color="#6E3511"/>
<stop offset="0.5268" stop-color="#F7A400"/>
<stop offset="1" stop-color="#6E3511"/>
</linearGradient>
<linearGradient id="paint7_linear_375_1268" x1="108.389" y1="25.8091" x2="334.172" y2="157.162" gradientUnits="userSpaceOnUse">
<stop stop-color="#6E3511"/>
<stop offset="0.5268" stop-color="#F7A400"/>
<stop offset="1" stop-color="#6E3511"/>
</linearGradient>
<linearGradient id="paint8_linear_375_1268" x1="110.24" y1="22.6426" x2="335.999" y2="153.982" gradientUnits="userSpaceOnUse">
<stop stop-color="#6E3511"/>
<stop offset="0.5268" stop-color="#F7A400"/>
<stop offset="1" stop-color="#6E3511"/>
</linearGradient>
<linearGradient id="paint9_linear_375_1268" x1="111.678" y1="20.1762" x2="337.43" y2="151.511" gradientUnits="userSpaceOnUse">
<stop stop-color="#6E3511"/>
<stop offset="0.5268" stop-color="#F7A400"/>
<stop offset="1" stop-color="#6E3511"/>
</linearGradient>
<linearGradient id="paint10_linear_375_1268" x1="112.908" y1="18.0678" x2="338.654" y2="149.4" gradientUnits="userSpaceOnUse">
<stop stop-color="#6E3511"/>
<stop offset="0.5268" stop-color="#F7A400"/>
<stop offset="1" stop-color="#6E3511"/>
</linearGradient>
<linearGradient id="paint11_linear_375_1268" x1="113.464" y1="17.1442" x2="339.173" y2="148.454" gradientUnits="userSpaceOnUse">
<stop stop-color="#6E3511"/>
<stop offset="0.5268" stop-color="#F7A400"/>
<stop offset="1" stop-color="#6E3511"/>
</linearGradient>
<linearGradient id="paint12_linear_375_1268" x1="113.674" y1="16.7247" x2="339.448" y2="148.073" gradientUnits="userSpaceOnUse">
<stop stop-color="#6E3511"/>
<stop offset="0.5268" stop-color="#F7A400"/>
<stop offset="1" stop-color="#6E3511"/>
</linearGradient>
<linearGradient id="paint13_linear_375_1268" x1="111.705" y1="20.0612" x2="337.522" y2="151.434" gradientUnits="userSpaceOnUse">
<stop stop-color="#6E3511"/>
<stop offset="0.5268" stop-color="#F7A400"/>
<stop offset="1" stop-color="#6E3511"/>
</linearGradient>
<linearGradient id="paint14_linear_375_1268" x1="112.78" y1="18.2547" x2="338.556" y2="149.603" gradientUnits="userSpaceOnUse">
<stop stop-color="#6E3511"/>
<stop offset="0.5268" stop-color="#F7A400"/>
<stop offset="1" stop-color="#6E3511"/>
</linearGradient>
<linearGradient id="paint15_linear_375_1268" x1="111.608" y1="20.3136" x2="337.348" y2="151.641" gradientUnits="userSpaceOnUse">
<stop stop-color="#6E3511"/>
<stop offset="0.5268" stop-color="#F7A400"/>
<stop offset="1" stop-color="#6E3511"/>
</linearGradient>
<linearGradient id="paint16_linear_375_1268" x1="110.606" y1="22.0202" x2="336.358" y2="153.355" gradientUnits="userSpaceOnUse">
<stop stop-color="#6E3511"/>
<stop offset="0.5268" stop-color="#F7A400"/>
<stop offset="1" stop-color="#6E3511"/>
</linearGradient>
<linearGradient id="paint17_linear_375_1268" x1="108.279" y1="26.0121" x2="334.038" y2="157.351" gradientUnits="userSpaceOnUse">
<stop stop-color="#6E3511"/>
<stop offset="0.5268" stop-color="#F7A400"/>
<stop offset="1" stop-color="#6E3511"/>
</linearGradient>
<linearGradient id="paint18_linear_375_1268" x1="105.631" y1="30.5692" x2="331.387" y2="161.906" gradientUnits="userSpaceOnUse">
<stop stop-color="#6E3511"/>
<stop offset="0.5268" stop-color="#F7A400"/>
<stop offset="1" stop-color="#6E3511"/>
</linearGradient>
<linearGradient id="paint19_linear_375_1268" x1="103.331" y1="34.5154" x2="329.091" y2="165.856" gradientUnits="userSpaceOnUse">
<stop stop-color="#6E3511"/>
<stop offset="0.5268" stop-color="#F7A400"/>
<stop offset="1" stop-color="#6E3511"/>
</linearGradient>
<linearGradient id="paint20_linear_375_1268" x1="100.647" y1="39.1193" x2="326.412" y2="170.462" gradientUnits="userSpaceOnUse">
<stop stop-color="#6E3511"/>
<stop offset="0.5268" stop-color="#F7A400"/>
<stop offset="1" stop-color="#6E3511"/>
</linearGradient>
<linearGradient id="paint21_linear_375_1268" x1="94.5073" y1="49.7489" x2="320.228" y2="181.065" gradientUnits="userSpaceOnUse">
<stop stop-color="#6E3511"/>
<stop offset="0.5268" stop-color="#F7A400"/>
<stop offset="1" stop-color="#6E3511"/>
</linearGradient>
<linearGradient id="paint22_linear_375_1268" x1="91.1868" y1="55.4004" x2="316.942" y2="186.737" gradientUnits="userSpaceOnUse">
<stop stop-color="#6E3511"/>
<stop offset="0.5268" stop-color="#F7A400"/>
<stop offset="1" stop-color="#6E3511"/>
</linearGradient>
<linearGradient id="paint23_linear_375_1268" x1="87.2504" y1="62.1795" x2="312.996" y2="193.511" gradientUnits="userSpaceOnUse">
<stop stop-color="#6E3511"/>
<stop offset="0.5268" stop-color="#F7A400"/>
<stop offset="1" stop-color="#6E3511"/>
</linearGradient>
<linearGradient id="paint24_linear_375_1268" x1="84.4086" y1="67.0255" x2="310.175" y2="198.369" gradientUnits="userSpaceOnUse">
<stop stop-color="#6E3511"/>
<stop offset="0.5268" stop-color="#F7A400"/>
<stop offset="1" stop-color="#6E3511"/>
</linearGradient>
<linearGradient id="paint25_linear_375_1268" x1="78.9752" y1="76.4057" x2="304.723" y2="207.738" gradientUnits="userSpaceOnUse">
<stop stop-color="#6E3511"/>
<stop offset="0.5268" stop-color="#F7A400"/>
<stop offset="1" stop-color="#6E3511"/>
</linearGradient>
<linearGradient id="paint26_linear_375_1268" x1="73.8013" y1="85.2792" x2="299.558" y2="216.617" gradientUnits="userSpaceOnUse">
<stop stop-color="#6E3511"/>
<stop offset="0.5268" stop-color="#F7A400"/>
<stop offset="1" stop-color="#6E3511"/>
</linearGradient>
<linearGradient id="paint27_linear_375_1268" x1="69.8508" y1="92.0661" x2="295.61" y2="223.405" gradientUnits="userSpaceOnUse">
<stop stop-color="#6E3511"/>
<stop offset="0.5268" stop-color="#F7A400"/>
<stop offset="1" stop-color="#6E3511"/>
</linearGradient>
<linearGradient id="paint28_linear_375_1268" x1="65.657" y1="99.2962" x2="291.404" y2="230.628" gradientUnits="userSpaceOnUse">
<stop stop-color="#6E3511"/>
<stop offset="0.5268" stop-color="#F7A400"/>
<stop offset="1" stop-color="#6E3511"/>
</linearGradient>
<linearGradient id="paint29_linear_375_1268" x1="59.7355" y1="109.552" x2="285.441" y2="240.859" gradientUnits="userSpaceOnUse">
<stop stop-color="#6E3511"/>
<stop offset="0.5268" stop-color="#F7A400"/>
<stop offset="1" stop-color="#6E3511"/>
</linearGradient>
<linearGradient id="paint30_linear_375_1268" x1="52.6971" y1="121.544" x2="278.461" y2="252.886" gradientUnits="userSpaceOnUse">
<stop stop-color="#6E3511"/>
<stop offset="0.5268" stop-color="#F7A400"/>
<stop offset="1" stop-color="#6E3511"/>
</linearGradient>
<linearGradient id="paint31_linear_375_1268" x1="48.4489" y1="128.897" x2="274.186" y2="260.223" gradientUnits="userSpaceOnUse">
<stop stop-color="#6E3511"/>
<stop offset="0.5268" stop-color="#F7A400"/>
<stop offset="1" stop-color="#6E3511"/>
</linearGradient>
<linearGradient id="paint32_linear_375_1268" x1="44.1173" y1="136.297" x2="269.878" y2="267.637" gradientUnits="userSpaceOnUse">
<stop stop-color="#6E3511"/>
<stop offset="0.5268" stop-color="#F7A400"/>
<stop offset="1" stop-color="#6E3511"/>
</linearGradient>
<linearGradient id="paint33_linear_375_1268" x1="40.0263" y1="143.344" x2="265.778" y2="274.679" gradientUnits="userSpaceOnUse">
<stop stop-color="#6E3511"/>
<stop offset="0.5268" stop-color="#F7A400"/>
<stop offset="1" stop-color="#6E3511"/>
</linearGradient>
<linearGradient id="paint34_linear_375_1268" x1="35.3499" y1="151.356" x2="261.117" y2="282.7" gradientUnits="userSpaceOnUse">
<stop stop-color="#6E3511"/>
<stop offset="0.5268" stop-color="#F7A400"/>
<stop offset="1" stop-color="#6E3511"/>
</linearGradient>
<linearGradient id="paint35_linear_375_1268" x1="32.0681" y1="157.037" x2="257.813" y2="288.367" gradientUnits="userSpaceOnUse">
<stop stop-color="#6E3511"/>
<stop offset="0.5268" stop-color="#F7A400"/>
<stop offset="1" stop-color="#6E3511"/>
</linearGradient>
<linearGradient id="paint36_linear_375_1268" x1="28.813" y1="162.607" x2="254.572" y2="293.946" gradientUnits="userSpaceOnUse">
<stop stop-color="#6E3511"/>
<stop offset="0.5268" stop-color="#F7A400"/>
<stop offset="1" stop-color="#6E3511"/>
</linearGradient>
<linearGradient id="paint37_linear_375_1268" x1="25.8973" y1="167.649" x2="251.637" y2="298.977" gradientUnits="userSpaceOnUse">
<stop stop-color="#6E3511"/>
<stop offset="0.5268" stop-color="#F7A400"/>
<stop offset="1" stop-color="#6E3511"/>
</linearGradient>
<linearGradient id="paint38_linear_375_1268" x1="20.8202" y1="176.36" x2="246.57" y2="307.693" gradientUnits="userSpaceOnUse">
<stop stop-color="#6E3511"/>
<stop offset="0.5268" stop-color="#F7A400"/>
<stop offset="1" stop-color="#6E3511"/>
</linearGradient>
<linearGradient id="paint39_linear_375_1268" x1="18.246" y1="180.792" x2="243.989" y2="312.122" gradientUnits="userSpaceOnUse">
<stop stop-color="#6E3511"/>
<stop offset="0.5268" stop-color="#F7A400"/>
<stop offset="1" stop-color="#6E3511"/>
</linearGradient>
<linearGradient id="paint40_linear_375_1268" x1="16.2291" y1="184.226" x2="241.999" y2="315.571" gradientUnits="userSpaceOnUse">
<stop stop-color="#6E3511"/>
<stop offset="0.5268" stop-color="#F7A400"/>
<stop offset="1" stop-color="#6E3511"/>
</linearGradient>
<linearGradient id="paint41_linear_375_1268" x1="14.6353" y1="186.984" x2="240.388" y2="318.32" gradientUnits="userSpaceOnUse">
<stop stop-color="#6E3511"/>
<stop offset="0.5268" stop-color="#F7A400"/>
<stop offset="1" stop-color="#6E3511"/>
</linearGradient>
<linearGradient id="paint42_linear_375_1268" x1="13.1953" y1="189.457" x2="238.949" y2="320.793" gradientUnits="userSpaceOnUse">
<stop stop-color="#6E3511"/>
<stop offset="0.5268" stop-color="#F7A400"/>
<stop offset="1" stop-color="#6E3511"/>
</linearGradient>
<linearGradient id="paint43_linear_375_1268" x1="12.497" y1="190.665" x2="238.245" y2="321.998" gradientUnits="userSpaceOnUse">
<stop stop-color="#6E3511"/>
<stop offset="0.5268" stop-color="#F7A400"/>
<stop offset="1" stop-color="#6E3511"/>
</linearGradient>
<linearGradient id="paint44_linear_375_1268" x1="12.0893" y1="191.356" x2="237.843" y2="322.692" gradientUnits="userSpaceOnUse">
<stop stop-color="#6E3511"/>
<stop offset="0.5268" stop-color="#F7A400"/>
<stop offset="1" stop-color="#6E3511"/>
</linearGradient>
<linearGradient id="paint45_linear_375_1268" x1="13.8733" y1="188.258" x2="239.664" y2="319.615" gradientUnits="userSpaceOnUse">
<stop stop-color="#6E3511"/>
<stop offset="0.5268" stop-color="#F7A400"/>
<stop offset="1" stop-color="#6E3511"/>
</linearGradient>
<linearGradient id="paint46_linear_375_1268" x1="12.9214" y1="189.901" x2="238.707" y2="321.256" gradientUnits="userSpaceOnUse">
<stop stop-color="#6E3511"/>
<stop offset="0.5268" stop-color="#F7A400"/>
<stop offset="1" stop-color="#6E3511"/>
</linearGradient>
<linearGradient id="paint47_linear_375_1268" x1="14.1314" y1="187.841" x2="239.892" y2="319.182" gradientUnits="userSpaceOnUse">
<stop stop-color="#6E3511"/>
<stop offset="0.5268" stop-color="#F7A400"/>
<stop offset="1" stop-color="#6E3511"/>
</linearGradient>
<linearGradient id="paint48_linear_375_1268" x1="15.1243" y1="186.123" x2="240.903" y2="317.474" gradientUnits="userSpaceOnUse">
<stop stop-color="#6E3511"/>
<stop offset="0.5268" stop-color="#F7A400"/>
<stop offset="1" stop-color="#6E3511"/>
</linearGradient>
<linearGradient id="paint49_linear_375_1268" x1="17.4751" y1="182.102" x2="243.226" y2="313.436" gradientUnits="userSpaceOnUse">
<stop stop-color="#6E3511"/>
<stop offset="0.5268" stop-color="#F7A400"/>
<stop offset="1" stop-color="#6E3511"/>
</linearGradient>
<linearGradient id="paint50_linear_375_1268" x1="20.1249" y1="177.546" x2="245.873" y2="308.879" gradientUnits="userSpaceOnUse">
<stop stop-color="#6E3511"/>
<stop offset="0.5268" stop-color="#F7A400"/>
<stop offset="1" stop-color="#6E3511"/>
</linearGradient>
<linearGradient id="paint51_linear_375_1268" x1="22.4268" y1="173.583" x2="248.186" y2="304.922" gradientUnits="userSpaceOnUse">
<stop stop-color="#6E3511"/>
<stop offset="0.5268" stop-color="#F7A400"/>
<stop offset="1" stop-color="#6E3511"/>
</linearGradient>
<linearGradient id="paint52_linear_375_1268" x1="25.1191" y1="168.954" x2="250.877" y2="300.293" gradientUnits="userSpaceOnUse">
<stop stop-color="#6E3511"/>
<stop offset="0.5268" stop-color="#F7A400"/>
<stop offset="1" stop-color="#6E3511"/>
</linearGradient>
<linearGradient id="paint53_linear_375_1268" x1="29.941" y1="160.67" x2="255.695" y2="292.006" gradientUnits="userSpaceOnUse">
<stop stop-color="#6E3511"/>
<stop offset="0.5268" stop-color="#F7A400"/>
<stop offset="1" stop-color="#6E3511"/>
</linearGradient>
<linearGradient id="paint54_linear_375_1268" x1="34.0441" y1="153.616" x2="259.801" y2="284.954" gradientUnits="userSpaceOnUse">
<stop stop-color="#6E3511"/>
<stop offset="0.5268" stop-color="#F7A400"/>
<stop offset="1" stop-color="#6E3511"/>
</linearGradient>
<linearGradient id="paint55_linear_375_1268" x1="37.8951" y1="146.996" x2="263.651" y2="278.333" gradientUnits="userSpaceOnUse">
<stop stop-color="#6E3511"/>
<stop offset="0.5268" stop-color="#F7A400"/>
<stop offset="1" stop-color="#6E3511"/>
</linearGradient>
<linearGradient id="paint56_linear_375_1268" x1="40.7936" y1="142.017" x2="266.538" y2="273.348" gradientUnits="userSpaceOnUse">
<stop stop-color="#6E3511"/>
<stop offset="0.5268" stop-color="#F7A400"/>
<stop offset="1" stop-color="#6E3511"/>
</linearGradient>
<linearGradient id="paint57_linear_375_1268" x1="46.2186" y1="132.689" x2="271.975" y2="264.026" gradientUnits="userSpaceOnUse">
<stop stop-color="#6E3511"/>
<stop offset="0.5268" stop-color="#F7A400"/>
<stop offset="1" stop-color="#6E3511"/>
</linearGradient>
<linearGradient id="paint58_linear_375_1268" x1="51.3671" y1="123.84" x2="277.117" y2="255.174" gradientUnits="userSpaceOnUse">
<stop stop-color="#6E3511"/>
<stop offset="0.5268" stop-color="#F7A400"/>
<stop offset="1" stop-color="#6E3511"/>
</linearGradient>
<linearGradient id="paint59_linear_375_1268" x1="55.3131" y1="117.058" x2="281.052" y2="248.386" gradientUnits="userSpaceOnUse">
<stop stop-color="#6E3511"/>
<stop offset="0.5268" stop-color="#F7A400"/>
<stop offset="1" stop-color="#6E3511"/>
</linearGradient>
<linearGradient id="paint60_linear_375_1268" x1="59.5037" y1="109.851" x2="285.269" y2="241.193" gradientUnits="userSpaceOnUse">
<stop stop-color="#6E3511"/>
<stop offset="0.5268" stop-color="#F7A400"/>
<stop offset="1" stop-color="#6E3511"/>
</linearGradient>
<linearGradient id="paint61_linear_375_1268" x1="65.7495" y1="99.1163" x2="291.518" y2="230.461" gradientUnits="userSpaceOnUse">
<stop stop-color="#6E3511"/>
<stop offset="0.5268" stop-color="#F7A400"/>
<stop offset="1" stop-color="#6E3511"/>
</linearGradient>
<linearGradient id="paint62_linear_375_1268" x1="72.724" y1="87.1264" x2="298.496" y2="218.473" gradientUnits="userSpaceOnUse">
<stop stop-color="#6E3511"/>
<stop offset="0.5268" stop-color="#F7A400"/>
<stop offset="1" stop-color="#6E3511"/>
</linearGradient>
<linearGradient id="paint63_linear_375_1268" x1="77.0161" y1="79.7524" x2="302.766" y2="211.086" gradientUnits="userSpaceOnUse">
<stop stop-color="#6E3511"/>
<stop offset="0.5268" stop-color="#F7A400"/>
<stop offset="1" stop-color="#6E3511"/>
</linearGradient>
<linearGradient id="paint64_linear_375_1268" x1="81.3258" y1="72.3446" x2="307.079" y2="203.68" gradientUnits="userSpaceOnUse">
<stop stop-color="#6E3511"/>
<stop offset="0.5268" stop-color="#F7A400"/>
<stop offset="1" stop-color="#6E3511"/>
</linearGradient>
<linearGradient id="paint65_linear_375_1268" x1="85.4398" y1="65.2699" x2="311.204" y2="196.612" gradientUnits="userSpaceOnUse">
<stop stop-color="#6E3511"/>
<stop offset="0.5268" stop-color="#F7A400"/>
<stop offset="1" stop-color="#6E3511"/>
</linearGradient>
<linearGradient id="paint66_linear_375_1268" x1="90.1162" y1="57.2295" x2="315.891" y2="188.578" gradientUnits="userSpaceOnUse">
<stop stop-color="#6E3511"/>
<stop offset="0.5268" stop-color="#F7A400"/>
<stop offset="1" stop-color="#6E3511"/>
</linearGradient>
<linearGradient id="paint67_linear_375_1268" x1="93.4128" y1="51.5683" x2="319.162" y2="182.902" gradientUnits="userSpaceOnUse">
<stop stop-color="#6E3511"/>
<stop offset="0.5268" stop-color="#F7A400"/>
<stop offset="1" stop-color="#6E3511"/>
</linearGradient>
<linearGradient id="paint68_linear_375_1268" x1="96.6877" y1="45.9434" x2="322.429" y2="177.272" gradientUnits="userSpaceOnUse">
<stop stop-color="#6E3511"/>
<stop offset="0.5268" stop-color="#F7A400"/>
<stop offset="1" stop-color="#6E3511"/>
</linearGradient>
<linearGradient id="paint69_linear_375_1268" x1="99.6487" y1="40.8547" x2="325.392" y2="172.185" gradientUnits="userSpaceOnUse">
<stop stop-color="#6E3511"/>
<stop offset="0.5268" stop-color="#F7A400"/>
<stop offset="1" stop-color="#6E3511"/>
</linearGradient>
<linearGradient id="paint70_linear_375_1268" x1="76.2289" y1="161.277" x2="246.013" y2="161.277" gradientUnits="userSpaceOnUse">
<stop stop-color="#C37406"/>
<stop offset="0.3268" stop-color="#F8D53A"/>
<stop offset="0.4146" stop-color="#FFF04A"/>
<stop offset="0.9854" stop-color="#984D00"/>
</linearGradient>
<linearGradient id="paint71_linear_375_1268" x1="121.234" y1="160.658" x2="202.079" y2="161.928" gradientUnits="userSpaceOnUse">
<stop stop-color="#6E3511"/>
<stop offset="0.5268" stop-color="#F1AF00"/>
<stop offset="1" stop-color="#6E3511"/>
</linearGradient>
<linearGradient id="paint72_linear_375_1268" x1="125.464" y1="160.725" x2="197.848" y2="161.862" gradientUnits="userSpaceOnUse">
<stop stop-color="#C37406"/>
<stop offset="0.3268" stop-color="#F8D53A"/>
<stop offset="0.4146" stop-color="#FFF04A"/>
<stop offset="0.9854" stop-color="#984D00"/>
</linearGradient>
</defs>
</svg>
