<svg width="438" height="373" viewBox="0 0 438 373" fill="none" xmlns="http://www.w3.org/2000/svg">
<path d="M373.583 163.877C367.188 122.094 349.072 81.6204 317.156 51.6083C285.089 21.4514 241.732 1.52259 192.933 0.0834442C186.467 -0.108181 180.059 0.0320668 173.726 0.485306C86.2516 6.7279 13.3077 72.836 1.61468 157.784C-12.0916 257.39 63.3511 347.006 156.184 361.36C271.648 379.214 399.652 334.18 373.583 163.877Z" fill="#462FD5"/>
<mask id="mask0_7345_14126" style="mask-type:luminance" maskUnits="userSpaceOnUse" x="0" y="130" width="143" height="223">
<path d="M142.865 130.117H0.0351562V352.053H142.865V130.117Z" fill="white"/>
</mask>
<g mask="url(#mask0_7345_14126)">
<mask id="mask1_7345_14126" style="mask-type:luminance" maskUnits="userSpaceOnUse" x="28" y="265" width="217" height="197">
<path d="M243.9 437.165L210.596 461.273C210.596 461.273 191.96 448.727 191.394 430.762C190.24 394.109 158.218 397.678 144.583 397.167C124.019 396.395 106.234 386.748 120.878 366.343C135.522 345.938 94.4737 330.065 61.0843 333.605C28.4103 337.07 3.3971 280.988 73.4273 266.995C115.249 258.639 134.437 295.504 148.552 311.817C162.667 328.131 189.602 310.829 196.135 338.51C201.715 362.155 196.922 385.811 216.937 390.356C236.953 394.9 248.224 408.081 243.9 437.165Z" fill="white"/>
</mask>
<g mask="url(#mask1_7345_14126)">
<path d="M243.9 437.165L210.596 461.273C210.596 461.273 191.96 448.727 191.394 430.762C190.24 394.109 158.218 397.678 144.583 397.167C124.019 396.395 108.626 387.309 118.179 367.272C128.988 344.6 94.4739 330.065 61.0843 333.605C28.4103 337.07 3.3971 280.988 73.4273 266.995C115.249 258.639 134.437 295.504 148.552 311.817C162.667 328.131 189.602 310.829 196.135 338.51C201.715 362.155 196.922 385.811 216.937 390.356C236.953 394.9 248.224 408.081 243.9 437.165Z" fill="url(#paint0_linear_7345_14126)"/>
</g>
<mask id="mask2_7345_14126" style="mask-type:luminance" maskUnits="userSpaceOnUse" x="28" y="265" width="217" height="197">
<path d="M243.9 437.165L210.596 461.273C210.596 461.273 191.96 448.727 191.394 430.762C190.24 394.109 158.218 397.678 144.583 397.167C124.019 396.395 106.234 386.748 120.878 366.343C135.522 345.938 94.4737 330.065 61.0843 333.605C28.4103 337.07 3.3971 280.988 73.4273 266.995C115.249 258.639 134.437 295.504 148.552 311.817C162.667 328.131 189.602 310.829 196.135 338.51C201.715 362.155 196.922 385.811 216.937 390.356C236.953 394.9 248.224 408.081 243.9 437.165Z" fill="white"/>
</mask>
<g mask="url(#mask2_7345_14126)">
<g opacity="0.9">
<path d="M231.724 450.691L230.94 451.065C230.709 450.58 207.353 402.09 169.704 361.001C135.02 323.147 80.7545 284.012 19.2029 312.541L18.8379 311.754C46.2377 299.054 74.4949 298.474 102.825 310.031C125.456 319.263 148.176 336.218 170.356 360.427C208.088 401.612 231.491 450.205 231.724 450.691Z" fill="#BEB8F2"/>
<path d="M114.454 315.371L113.693 315.789C99.7754 290.475 67.0514 263.892 66.7227 263.627L67.2675 262.951C67.5979 263.218 100.455 289.908 114.454 315.371Z" fill="#BEB8F2"/>
<path d="M95.367 308.188C61.0251 310.574 44.034 333.656 43.8666 333.889L43.1621 333.382C43.3319 333.146 60.544 309.738 95.3068 307.322L95.367 308.188Z" fill="#BEB8F2"/>
</g>
</g>
<path d="M112.15 317.239C108.547 325.814 112.918 333.705 116.976 338.919C117.867 338.848 118.398 339.034 119.309 339.16C127.538 340.303 131.292 339.037 139.581 338.883C141.366 338.849 146.573 337.159 148.656 336.332L152.515 334.728C152.515 334.728 158.327 314.123 147.037 309.543C135.746 304.963 138.784 284.693 139.069 273.757C139.245 267.041 137.174 263.913 136.842 261.435C133.331 235.204 140.693 226.809 134.311 218.98C127.266 210.338 116.278 218.095 108.117 209.098C98.9025 198.939 106.728 182.228 95.8592 174.563C93.9959 173.249 92.0455 171.949 89.0714 171.313C81.7301 169.742 76.2047 174.363 70.6386 168.834C59.4508 157.721 42.1826 154.877 32.761 168.118C23.4626 181.187 37.0451 204.435 68.4249 221.356C89.369 235.934 89.9665 240.787 89.0866 252.807C88.4706 261.227 81.2225 283.646 93.8428 291.261C106.463 298.876 116.269 307.435 112.15 317.239Z" fill="url(#paint1_linear_7345_14126)"/>
<mask id="mask3_7345_14126" style="mask-type:luminance" maskUnits="userSpaceOnUse" x="29" y="159" width="125" height="187">
<path d="M122.64 345.197L151.895 335.512C151.895 335.512 158.327 314.123 147.036 309.543C135.746 304.963 138.783 284.693 139.069 273.757C139.844 244.083 105.868 249.703 103.606 211.611C103.004 201.48 105.489 181.843 95.8591 174.563C84.8878 166.268 77.7966 175.944 70.6387 168.834C59.4509 157.721 42.1825 154.877 32.7611 168.118C23.4625 181.186 37.0452 204.434 68.4248 221.356C89.3692 235.934 89.9664 240.787 89.0867 252.807C88.4705 261.226 81.2226 283.646 93.8428 291.261C106.463 298.876 116.268 307.435 112.15 317.238C105.883 332.156 122.64 345.197 122.64 345.197Z" fill="white"/>
</mask>
<g mask="url(#mask3_7345_14126)">
<g opacity="0.5">
<path d="M135.3 339.564L135.898 339.442C135.255 336.131 134.562 332.801 133.839 329.544C128.484 305.43 120.895 282.741 111.283 262.108C103.138 244.625 93.4305 228.369 82.4294 213.794C73.5822 202.072 63.8541 191.367 53.5155 181.978C46.2474 175.377 38.7552 169.49 31.2463 164.479C29.9379 163.605 28.5448 162.783 27.1975 161.987C25.4025 160.926 23.5462 159.83 21.8764 158.605L21.4902 159.058C23.183 160.3 25.0516 161.404 26.8589 162.471C28.1996 163.263 29.5857 164.082 30.8808 164.946C38.3661 169.941 45.8362 175.811 53.0834 182.393C63.3964 191.76 73.1012 202.439 81.928 214.133C92.9066 228.679 102.595 244.902 110.724 262.351C120.32 282.95 127.897 305.602 133.243 329.679C133.966 332.932 134.658 336.257 135.3 339.564Z" fill="#FCFDFE"/>
<path d="M94.5049 232.409L95.0408 232.121C82.6813 211.061 90.0314 169.552 90.1072 169.135L89.5076 169.061C89.4314 169.479 82.0464 211.18 94.5049 232.409Z" fill="#FCFDFE"/>
<path d="M123.439 294.353L124.004 294.124C117.434 278.829 85.0443 269.377 84.718 269.283L84.5195 269.828C84.8433 269.921 116.971 279.297 123.439 294.353Z" fill="#FCFDFE"/>
<path d="M126.353 303.361L126.95 303.227C124.646 292.623 127.613 276.797 135.304 258.664C135.69 257.752 135.69 257.752 135.669 257.646L135.071 257.773L135.37 257.71L135.073 257.665C135.055 257.728 134.909 258.072 134.739 258.471C127.005 276.708 124.026 292.65 126.353 303.361Z" fill="#FCFDFE"/>
<path d="M134.034 333.54L134.571 333.254C128.536 322.869 109.825 320.178 109.636 320.152L109.525 320.715C109.711 320.741 128.137 323.393 134.034 333.54Z" fill="#FCFDFE"/>
<path d="M136.221 339.528C137.96 329.924 142.689 320.368 150.677 310.317L150.193 309.988C142.144 320.118 137.378 329.756 135.621 339.454L136.221 339.528Z" fill="#FCFDFE"/>
<path d="M59.0714 188.019L59.5902 187.705C52.0058 176.379 46.9134 162.736 45.24 158.253C44.8349 157.167 44.6909 156.786 44.6157 156.662L44.084 156.957C44.1399 157.052 44.3715 157.673 44.6646 158.458C46.3434 162.956 51.4523 176.642 59.0714 188.019Z" fill="#FCFDFE"/>
<path d="M74.3858 204.624L74.7881 204.184C64.5657 196.112 37.3564 198.744 36.2031 198.86L36.2457 199.426C36.5254 199.398 64.354 196.704 74.3858 204.624Z" fill="#FCFDFE"/>
</g>
</g>
<path d="M171.206 401.856C173.177 401.096 168.187 391.186 170.789 376.283C171.439 372.559 173.576 352.005 188.519 347.75C191.42 346.924 194.321 346.098 197.221 345.271C198.117 338.076 197.628 331.129 188.127 330.802C173.373 330.295 167.681 307.284 169.581 298.176C171.932 286.904 176.849 260.569 154.066 259.441C135.099 258.501 122.511 261.616 116.246 240.267C109.981 218.917 94.3854 208.485 73.9782 214.889C52.5028 221.629 28.2537 198.532 12.5365 212.144C-14.8496 235.864 24.4001 276.626 65.4364 281.105C106.472 285.584 87.7715 303.875 90.8617 321.85C91.2431 323.502 91.9617 326.034 93.3775 328.862C102.094 346.271 122.125 344.698 139.616 356.397C163.471 372.352 167.885 403.137 171.206 401.856Z" fill="url(#paint2_linear_7345_14126)"/>
<mask id="mask4_7345_14126" style="mask-type:luminance" maskUnits="userSpaceOnUse" x="3" y="207" width="195" height="156">
<path d="M149.414 362.953L196.81 350.868C198.04 343.802 198.74 331.167 188.128 330.802C173.373 330.295 167.681 307.284 169.581 298.176C171.933 286.904 176.849 260.569 154.066 259.44C135.099 258.501 122.511 261.616 116.246 240.267C109.981 218.917 94.3853 208.485 73.9782 214.889C52.5028 221.628 28.2536 198.532 12.5365 212.145C-14.8497 235.864 24.4002 276.626 65.4362 281.105C106.472 285.584 87.7714 303.875 90.8615 321.85C95.0802 346.389 128.366 332.699 139.679 339.953C148.549 345.641 149.609 356.25 149.414 362.953Z" fill="white"/>
</mask>
<g mask="url(#mask4_7345_14126)">
<g opacity="0.5">
<path d="M170.029 350.194L170.991 349.749C139.672 283.589 74.3565 233.544 0.534869 219.145L0.287109 220.133C73.7978 234.472 138.839 284.309 170.029 350.194Z" fill="#FCFDFE"/>
<path d="M163.914 338.185L164.71 337.496C144.597 316.063 89.3506 326.158 88.7949 326.263L88.9595 327.252C89.5093 327.149 144.184 317.16 163.914 338.185Z" fill="#FCFDFE"/>
<path d="M98.8447 264.108L99.6969 263.484C85.3688 245.183 92.094 209.813 92.1635 209.458L91.1286 209.309C91.058 209.668 84.2518 245.469 98.8447 264.108Z" fill="#FCFDFE"/>
<path d="M58.2948 239.427L58.6377 238.461C32.406 230.797 -1.56191 247.172 -1.90234 247.339L-1.45194 248.234C-1.11604 248.069 32.472 231.881 58.2948 239.427Z" fill="#FCFDFE"/>
</g>
</g>
</g>
<mask id="mask5_7345_14126" style="mask-type:luminance" maskUnits="userSpaceOnUse" x="299" y="99" width="139" height="242">
<path d="M311.531 336.12L352.377 340.804C352.377 340.804 362.469 320.732 354.155 304.797C337.191 272.285 366.85 259.697 378.484 252.566C396.028 241.813 406.799 224.684 384.032 214.08C361.265 203.475 389.26 169.515 420.097 156.232C450.273 143.233 444.579 82.0899 376.683 104.228C336.135 117.448 337.485 158.986 333.181 180.124C328.876 201.263 296.918 199.388 304.795 226.717C311.524 250.061 327.299 268.329 312.082 282.103C296.865 295.877 293.503 312.891 311.531 336.12Z" fill="white"/>
</mask>
<g mask="url(#mask5_7345_14126)">
<path d="M311.531 336.12L352.377 340.804C352.377 340.804 362.469 320.732 354.155 304.797C337.191 272.285 366.85 259.697 378.484 252.566C396.028 241.813 404.99 226.346 386.84 213.566C366.304 199.106 389.26 169.516 420.097 156.232C450.273 143.233 444.579 82.0899 376.682 104.228C336.135 117.448 337.485 158.986 333.18 180.124C328.876 201.263 296.918 199.388 304.795 226.717C311.524 250.061 327.299 268.329 312.082 282.103C296.865 295.877 293.503 312.891 311.531 336.12Z" fill="url(#paint3_linear_7345_14126)"/>
</g>
<mask id="mask6_7345_14126" style="mask-type:luminance" maskUnits="userSpaceOnUse" x="299" y="99" width="139" height="242">
<path d="M311.531 336.12L352.377 340.804C352.377 340.804 362.469 320.732 354.155 304.797C337.191 272.285 366.85 259.697 378.484 252.566C396.028 241.813 406.799 224.684 384.032 214.08C361.265 203.475 389.26 169.515 420.097 156.232C450.273 143.233 444.579 82.0899 376.683 104.228C336.135 117.448 337.485 158.986 333.181 180.124C328.876 201.263 296.918 199.388 304.795 226.717C311.524 250.061 327.299 268.329 312.082 282.103C296.865 295.877 293.503 312.891 311.531 336.12Z" fill="white"/>
</mask>
<g mask="url(#mask6_7345_14126)">
<g opacity="0.9">
<path d="M328.775 341.938L329.641 341.879C329.605 341.343 326.189 287.629 338.858 233.359C350.529 183.362 378.639 122.649 446.272 117.338L446.204 116.473C416.097 118.837 391.185 132.185 372.159 156.147C356.96 175.288 345.47 201.206 338.008 233.179C325.314 287.573 328.739 341.4 328.775 341.938Z" fill="#BEB8F2"/>
<path d="M364.641 166.503L365.509 166.494C365.229 137.608 380.718 98.396 380.874 98.0033L380.068 97.6816C379.911 98.0762 364.359 137.447 364.641 166.503Z" fill="#BEB8F2"/>
<path d="M377.755 150.886C408.856 136.129 434.982 147.916 435.242 148.037L435.607 147.25C435.343 147.127 408.865 135.164 377.383 150.101L377.755 150.886Z" fill="#BEB8F2"/>
<path d="M332.509 269.29C346.812 229.741 403.249 226.11 403.802 226.121L403.875 225.257C403.334 225.195 346.123 229.094 331.693 268.995L332.509 269.29Z" fill="#BEB8F2"/>
<path d="M334.217 252.033L335.082 251.954C332.646 225.228 306.39 204.02 306.125 203.809L305.584 204.487C305.846 204.696 331.815 225.68 334.217 252.033Z" fill="#BEB8F2"/>
<path d="M329.289 333.415C332.347 317.734 356.376 307.795 356.618 307.696L356.291 306.893C355.284 307.302 331.585 317.105 328.438 333.249L329.289 333.415Z" fill="#BEB8F2"/>
<path d="M328.31 320.706L329.177 320.659C328.483 308.046 311.364 292.12 305.738 286.887C304.943 286.147 304.257 285.509 304.157 285.371L303.447 285.87C303.585 286.067 304.04 286.492 305.147 287.522C310.709 292.697 327.636 308.443 328.31 320.706Z" fill="#BEB8F2"/>
</g>
</g>
<path d="M328.757 177.643C336.101 183.351 336.16 192.371 335.18 198.905C334.368 199.28 333.996 199.702 333.264 200.259C326.652 205.29 322.759 206.027 315.459 209.956C313.888 210.802 308.521 211.881 306.3 212.182L302.15 212.676C302.15 212.676 286.982 197.567 294.577 188.039C302.172 178.513 289.588 162.335 283.977 152.943C280.531 147.176 280.803 143.434 279.877 141.112C270.077 116.528 259.545 112.82 261.269 102.868C263.172 91.8819 276.552 93.2555 279.254 81.4136C282.305 68.0419 267.292 57.3129 273.006 45.3038C273.986 43.2449 275.049 41.1561 277.329 39.1432C282.957 34.175 290.038 35.4933 292.179 27.9459C296.482 12.7753 310.138 1.8305 324.841 8.75218C339.353 15.5834 338.912 42.5048 319.858 72.6373C308.751 95.6113 310.61 100.134 317.27 110.179C321.934 117.215 339.243 133.202 331.977 146.026C324.71 158.851 320.36 171.118 328.757 177.643Z" fill="url(#paint4_linear_7345_14126)"/>
<mask id="mask7_7345_14126" style="mask-type:luminance" maskUnits="userSpaceOnUse" x="271" y="6" width="65" height="208">
<path d="M333.32 207.154L303.074 213.055C303.074 213.055 286.982 197.566 294.577 188.039C302.172 178.512 289.587 162.335 283.976 152.943C268.752 127.46 301.12 115.701 284.417 81.3922C279.975 72.2672 268.182 56.3704 273.006 45.3038C278.501 32.6955 289.425 37.6521 292.178 27.9458C296.481 12.7752 310.137 1.8306 324.841 8.75211C339.352 15.5834 338.911 42.5048 319.857 72.6372C308.75 95.6114 310.609 100.134 317.269 110.179C321.933 117.215 339.242 133.202 331.976 146.026C324.71 158.85 320.36 171.117 328.756 177.643C341.531 187.572 333.32 207.154 333.32 207.154Z" fill="white"/>
</mask>
<g mask="url(#mask7_7345_14126)">
<g opacity="0.5">
<path d="M319.525 208.449L318.943 208.636C317.881 205.435 316.852 202.193 315.885 199C308.73 175.357 304.221 151.862 302.483 129.166C301.01 109.935 301.502 91.0079 303.944 72.9105C305.909 58.3566 309.139 44.2577 313.547 31.0053C316.646 21.6891 320.289 12.8843 324.377 4.83593C325.089 3.43312 325.9 2.03307 326.684 0.678782C327.729 -1.12526 328.809 -2.99092 329.664 -4.87695L330.223 -4.67157C329.356 -2.75966 328.269 -0.881382 327.217 0.934952C326.437 2.28228 325.63 3.67555 324.925 5.06412C320.85 13.0873 317.217 21.8657 314.127 31.1557C309.73 44.3751 306.508 58.4407 304.548 72.961C302.111 91.0211 301.62 109.91 303.09 129.104C304.825 151.762 309.327 175.22 316.471 198.826C317.436 202.015 318.464 205.252 319.525 208.449Z" fill="#FCFDFE"/>
<path d="M302.545 95.057L301.937 95.0689C302.385 70.6546 275.628 38.0798 275.357 37.7537L275.843 37.3945C276.115 37.7222 302.996 70.4473 302.545 95.057Z" fill="#FCFDFE"/>
<path d="M307.696 163.23L307.091 163.308C305.319 146.756 328.915 122.638 329.154 122.396L329.594 122.774C329.357 123.014 305.952 146.936 307.696 163.23Z" fill="#FCFDFE"/>
<path d="M309.574 172.509L308.989 172.685C305.798 162.314 295.453 149.975 279.86 137.941C279.076 137.335 279.076 137.335 279.043 137.233L279.626 137.051L279.335 137.142L279.571 136.957C279.619 137.003 279.914 137.232 280.258 137.496C295.94 149.599 306.352 162.033 309.574 172.509Z" fill="#FCFDFE"/>
<path d="M317.674 202.579L317.066 202.593C317.235 190.583 332.224 179.064 332.375 178.949L332.748 179.385C332.599 179.499 317.839 190.844 317.674 202.579Z" fill="#FCFDFE"/>
<path d="M318.704 208.871C312.479 201.353 303.673 195.343 291.783 190.498L292.044 189.975C304.025 194.857 312.905 200.921 319.19 208.512L318.704 208.871Z" fill="#FCFDFE"/>
<path d="M311.665 38.9953L311.059 38.9751C312.117 25.3856 309.866 10.9979 309.127 6.27023C308.948 5.1257 308.886 4.72268 308.891 4.57794L309.499 4.57422C309.497 4.68484 309.599 5.33902 309.729 6.16737C310.47 10.9103 312.728 25.3438 311.665 38.9953Z" fill="#FCFDFE"/>
<path d="M306.459 60.9758L305.893 60.7891C310.845 48.7427 335.85 37.6969 336.912 37.2324L337.153 37.7464C336.895 37.8589 311.32 49.1543 306.459 60.9758Z" fill="#FCFDFE"/>
</g>
</g>
<path d="M342.314 265.708C340.223 266.012 339.714 254.929 330.14 243.215C327.748 240.289 315.808 223.422 300.698 227.039C297.765 227.741 294.831 228.443 291.898 229.145C287.59 223.313 284.61 217.018 292.731 212.076C305.342 204.4 299.021 181.554 292.9 174.547C285.324 165.875 268.128 145.333 287.432 133.18C303.502 123.062 316.001 119.605 310.994 97.9267C305.988 76.2477 314.466 59.5094 335.392 55.086C357.414 50.4311 367.225 18.412 387.597 22.5709C423.095 29.8183 408.87 84.5876 375.3 108.61C341.73 132.632 366.997 139.406 373.116 156.587C373.593 158.214 374.209 160.774 374.361 163.932C375.299 183.379 357.07 191.828 347.56 210.6C334.591 236.201 345.836 265.197 342.314 265.708Z" fill="url(#paint5_linear_7345_14126)"/>
<mask id="mask8_7345_14126" style="mask-type:luminance" maskUnits="userSpaceOnUse" x="278" y="22" width="131" height="212">
<path d="M342.235 221.118L295.001 233.822C290.465 228.266 283.66 217.597 292.731 212.076C305.342 204.401 299.021 181.554 292.9 174.547C285.324 165.875 268.128 145.333 287.432 133.18C303.502 123.062 316.001 119.605 310.994 97.9266C305.988 76.2476 314.466 59.5093 335.392 55.0859C357.414 50.431 367.225 18.4117 387.597 22.5709C423.096 29.8182 408.87 84.5873 375.3 108.61C341.73 132.632 366.997 139.406 373.116 156.587C381.47 180.043 345.747 184.43 339.443 196.3C334.501 205.605 338.779 215.371 342.235 221.118Z" fill="white"/>
</mask>
<g mask="url(#mask8_7345_14126)">
<g opacity="0.5">
<path d="M318.013 220.105L316.956 220.189C311.817 147.171 344.209 71.5317 401.49 22.7891L402.191 23.5291C345.151 72.0662 312.895 147.39 318.013 220.105Z" fill="#FCFDFE"/>
<path d="M318.82 180.008L317.797 180.288C309.821 152.634 278.457 137.953 278.141 137.808L278.617 136.904C278.937 137.051 310.717 151.918 318.82 180.008Z" fill="#FCFDFE"/>
<path d="M317.455 206.642L316.424 206.431C323.446 177.89 376.547 159.603 377.082 159.422L377.424 160.365C376.894 160.544 324.344 178.644 317.455 206.642Z" fill="#FCFDFE"/>
<path d="M337.849 110.177L336.8 110.051C340.316 87.076 317.114 59.5459 316.879 59.2705L317.708 58.6328C317.945 58.9115 341.429 86.7778 337.849 110.177Z" fill="#FCFDFE"/>
<path d="M361.091 68.7846L360.318 68.1108C379.423 48.5701 417.057 46.1893 417.436 46.168L417.482 47.1686C417.108 47.1894 379.898 49.548 361.091 68.7846Z" fill="#FCFDFE"/>
</g>
</g>
<path d="M383.131 88.5339C383.131 77.6922 376.795 68.6354 368.864 68.304L76.5678 56.0884C76.2401 56.0749 75.9251 56.0708 75.6013 56.0771C69.4637 56.1958 64.1822 59.8583 60.9342 65.4824C58.8854 69.0299 57.793 73.3579 57.793 78.0777V94.4254V350.98C57.793 352.553 57.8243 354.071 58.0778 355.53C58.1412 355.895 58.1612 356.253 58.2393 356.61C58.5523 358.036 58.9566 359.393 59.4908 360.67C61.762 366.101 65.9066 370.065 70.9556 371.48C72.7406 371.981 74.6308 372.198 76.5953 372.014L302.287 350.904H302.285L368.866 344.623C376.796 343.88 383.132 334.454 383.132 323.613V102.616V88.5339H383.131Z" fill="#B7C0CE"/>
<path d="M376.95 68.1247L83.5896 55.9007C73.0988 55.4636 64.5254 65.3262 64.5254 77.9332V351.287C64.5254 363.893 73.0989 373.312 83.5896 372.332L376.95 344.917C384.91 344.173 391.318 334.769 391.318 323.907V88.3906C391.318 77.5287 384.91 68.4564 376.95 68.1247Z" fill="white"/>
<path d="M83.59 365.102C76.4707 365.746 70.6465 359.32 70.6465 350.774V78.1296C70.6465 69.584 76.4705 62.8564 83.59 63.1312L376.951 74.4495C382.367 74.6584 386.753 80.8467 386.753 88.2451V324.29C386.753 331.688 382.367 338.103 376.951 338.593L83.59 365.102Z" fill="#F4F7FA"/>
<path d="M376.95 68.1247L83.5897 55.9007C73.0991 55.4636 64.5254 65.3262 64.5254 77.9332V94.3078L391.318 102.499V88.3906C391.318 77.5287 384.91 68.4564 376.95 68.1247Z" fill="#D8DEE8"/>
<path d="M98.3188 76.1511C98.3188 79.8517 95.5793 82.7776 92.1912 82.6858C88.7932 82.5938 86.0312 79.503 86.0312 75.7829C86.0312 72.0627 88.7932 69.1376 92.1912 69.2492C95.5793 69.3606 98.3188 72.4505 98.3188 76.1511Z" fill="white"/>
<path d="M119.589 76.7892C119.589 80.456 116.899 83.3557 113.573 83.2656C110.237 83.1752 107.525 80.1136 107.525 76.4277C107.525 72.7417 110.237 69.8426 113.573 69.9522C116.899 70.0614 119.589 73.1224 119.589 76.7892Z" fill="white"/>
<path d="M140.47 77.415C140.47 81.0486 137.829 83.9226 134.563 83.8342C131.287 83.7454 128.625 80.7124 128.625 77.06C128.625 73.4076 131.287 70.534 134.563 70.6416C137.829 70.7488 140.47 73.7813 140.47 77.415Z" fill="white"/>
<path d="M374.539 295.394L86.7324 315.309V303.757L374.539 285.264V295.394Z" fill="#D8DEE8"/>
<path d="M374.539 320.246L86.7324 343.648V332.096L374.539 310.115V320.246Z" fill="#D8DEE8"/>
<g opacity="0.3">
<path d="M267.22 202.33C233.213 141.99 173.168 162.688 134.388 94.2907C127.327 81.8372 122.524 69.1274 119.224 57.3855L83.5897 55.9007C73.0991 55.4636 64.5254 65.3262 64.5254 77.9332V351.287C64.5254 363.894 73.0993 373.312 83.5897 372.332L310.078 351.166C303.616 339.948 297.635 327.299 292.561 313.038C272.997 258.054 287.502 238.317 267.22 202.33Z" fill="white"/>
</g>
<path d="M353.12 320.813C326.127 323.914 303.482 303.45 303.482 275.1C303.482 246.751 326.127 222.502 353.12 221.089C379.229 219.724 399.848 240.357 399.848 267.046C399.848 293.734 379.229 317.814 353.12 320.813Z" fill="url(#paint6_linear_7345_14126)"/>
<path d="M356.388 321.803C329.435 324.907 306.824 304.464 306.824 276.135C306.824 247.806 329.435 223.57 356.388 222.153C382.459 220.781 403.048 241.395 403.048 268.064C403.048 294.733 382.459 318.8 356.388 321.803Z" fill="url(#paint7_linear_7345_14126)"/>
<path d="M399.918 268.327C399.918 293.246 380.727 315.616 356.389 318.367C331.283 321.204 310.342 302.201 310.342 275.84C310.342 249.48 331.283 226.964 356.389 225.589C380.727 224.257 399.918 243.407 399.918 268.327Z" fill="white"/>
<mask id="mask9_7345_14126" style="mask-type:luminance" maskUnits="userSpaceOnUse" x="313" y="228" width="84" height="88">
<path d="M396.776 268.59C396.776 291.71 378.95 312.429 356.389 314.93C333.169 317.504 313.844 299.902 313.844 275.546C313.844 251.19 333.169 230.346 356.389 229.025C378.95 227.741 396.776 245.469 396.776 268.59Z" fill="white"/>
</mask>
<g mask="url(#mask9_7345_14126)">
<path d="M351.002 240.229C343.042 240.696 335.463 245.943 332.091 252.598C328.02 260.631 333.454 263.94 330.802 276.624C328.357 288.318 322.637 290.847 323.583 298.281C324.619 306.421 332.424 310.841 335.501 312.584C349.289 320.393 370.669 317.746 381.449 304.748C382.347 303.665 389.755 294.734 387.758 287.421C385.969 280.872 378.285 281.586 376.69 274.739C375.315 268.837 380.575 266.383 380.075 257.69C379.977 255.989 379.514 247.937 373.656 244.733C369.747 242.594 365.444 243.703 363.865 244.197C361.968 242.803 357.341 239.858 351.002 240.229Z" fill="url(#paint8_linear_7345_14126)"/>
<path d="M310.342 308.051C310.342 308.051 350.847 279.72 399.918 298.776C399.918 298.776 393.728 319.886 356.389 325.275C317.212 330.928 310.342 308.051 310.342 308.051Z" fill="url(#paint9_linear_7345_14126)"/>
<path d="M349.282 272.575L347.776 284.267C347.262 288.259 344.624 291.818 340.95 293.463L328.627 298.983C328.627 298.983 352.153 308.227 381.515 293.631L368.177 290.153C364.377 289.052 361.783 285.584 361.617 281.364L361.232 271.572L349.282 272.575Z" fill="url(#paint10_linear_7345_14126)"/>
<path d="M367.47 260.9C367.47 270.606 361.815 281.543 354.783 282.177C347.688 282.817 341.891 272.744 341.891 262.882C341.891 253.019 347.688 247.231 354.783 246.749C361.815 246.271 367.47 251.195 367.47 260.9Z" fill="url(#paint11_linear_7345_14126)"/>
<path d="M360.41 252.653C356.591 253.133 350.795 254.506 346.771 259.165C339.997 267.007 343.216 278.323 340.201 279.273C337.511 280.12 333.34 272.215 333.407 263.136C333.463 255.532 335.993 246.4 342.566 243.712C346.416 242.137 347.549 244.205 359.915 244.632C367.088 244.879 364.277 248.4 365.89 249.526C373.033 254.517 372.131 272.673 368.287 273.232C366.461 273.497 363.937 268.976 360.41 252.653Z" fill="url(#paint12_linear_7345_14126)"/>
</g>
<path d="M234.27 326.245C205.802 329.463 181.914 308.473 181.914 279.353C181.914 250.233 205.802 225.31 234.27 223.843C261.796 222.424 283.528 243.593 283.528 270.99C283.528 298.387 261.796 323.134 234.27 326.245Z" fill="url(#paint13_linear_7345_14126)"/>
<path d="M237.715 327.256C209.291 330.478 185.439 309.509 185.439 280.411C185.439 251.314 209.291 226.404 237.715 224.931C265.2 223.507 286.899 244.655 286.899 272.031C286.899 299.408 265.2 324.14 237.715 327.256Z" fill="url(#paint14_linear_7345_14126)"/>
<path d="M283.602 272.304C283.602 297.885 263.375 320.873 237.716 323.728C211.24 326.673 189.15 307.181 189.15 280.105C189.15 253.029 211.24 229.888 237.716 228.46C263.375 227.075 283.602 246.722 283.602 272.304Z" fill="white"/>
<mask id="mask10_7345_14126" style="mask-type:luminance" maskUnits="userSpaceOnUse" x="192" y="231" width="89" height="90">
<path d="M280.29 272.578C280.29 296.313 261.502 317.605 237.717 320.2C213.231 322.872 192.846 304.817 192.846 279.8C192.846 254.784 213.231 233.362 237.717 231.989C261.502 230.655 280.29 248.843 280.29 272.578Z" fill="white"/>
</mask>
<g mask="url(#mask10_7345_14126)">
<path d="M187.668 350.834C183.716 340.787 189.292 323.801 192.798 316.078C202.986 293.635 221.587 292.266 236.725 291.152C251.497 290.065 265.667 289.022 275.98 305.325C282.693 315.935 288.847 335.584 284.745 346.366C280.422 357.728 268.374 349.639 239.461 350.831C207.229 352.16 192.594 363.354 187.668 350.834Z" fill="url(#paint15_linear_7345_14126)"/>
<path d="M250.672 292.983C250.672 295.731 244.004 299.263 235.752 299.553C227.47 299.845 220.734 296.763 220.734 293.998C220.734 291.232 227.47 292.242 235.752 291.964C244.004 291.687 250.672 290.236 250.672 292.983Z" fill="url(#paint16_linear_7345_14126)"/>
<path d="M230.241 274.422C227.958 274.489 233.224 290.403 224.925 292.889C224.121 293.13 223.989 294.217 224.721 294.589C226.952 295.724 231.124 297.114 237.951 296.877C242.375 296.724 245.605 294.935 247.281 293.746C247.854 293.339 247.797 292.479 247.184 292.181C244.644 290.949 241.114 286.873 242.168 274.478L230.241 274.422Z" fill="url(#paint17_linear_7345_14126)"/>
<path d="M223.299 258.257C223.333 258.458 224.025 273.137 227.376 280.374C228.337 282.449 233.098 282.047 236.173 281.698C238.841 281.395 243.018 282.242 244.192 280.357C248.909 272.788 248.11 254.426 248.11 254.426C248.11 254.426 245.694 248.367 235.759 248.773C225.78 249.182 223.299 258.257 223.299 258.257Z" fill="url(#paint18_linear_7345_14126)"/>
<path d="M225.642 266.087C225.642 266.087 223.549 263.707 221.575 263.436C219.599 263.165 218.311 268.324 221.007 271.581C223.7 274.835 226.81 271.982 226.81 271.982L225.642 266.087Z" fill="url(#paint19_linear_7345_14126)"/>
<path d="M245.937 265.523C245.937 265.523 248.01 263.041 249.961 262.664C251.911 262.288 253.18 267.34 250.522 270.726C247.86 274.117 244.779 271.459 244.779 271.459L245.937 265.523Z" fill="url(#paint20_linear_7345_14126)"/>
<path d="M224.003 265.949C224.267 266.426 224.568 266.869 224.772 266.81C225.618 266.565 222.354 258.394 225.361 255.424C226.913 253.89 228.661 255.208 235.006 254.759C241.377 254.308 243.004 252.736 244.925 253.86C246.674 254.883 248.238 257.888 246.942 266.945C247.303 266.851 247.664 266.757 248.024 266.663C247.539 263.722 248.069 261.843 248.675 260.652C249.117 259.783 249.917 258.657 249.854 257.063C249.816 256.074 249.49 256.038 249.437 255.23C249.28 252.859 251.969 252.153 252.098 249.804C252.198 247.997 250.652 247.623 250.935 245.729C251.175 244.119 252.382 243.791 252.191 242.636C251.985 241.39 250.368 240.495 249.233 240.195C248.074 239.89 247.655 240.267 246.975 239.81C245.876 239.071 246.404 237.704 245.61 237.219C244.195 236.353 241.378 239.994 239.556 239.142C238.452 238.626 238.877 237.006 237.9 236.636C236.01 235.92 232.667 241.315 231.32 240.638C230.676 240.314 231.297 239.003 230.393 238.068C229.33 236.969 226.778 237.026 225.613 238.239C224.527 239.371 225.449 240.673 224.299 242.103C223.266 243.387 222.072 242.896 220.905 243.933C218.92 245.697 219.611 249.569 219.858 250.95C220.706 255.704 223.346 256.603 222.754 259.872C222.602 260.709 222.249 261.645 222.501 262.997C222.748 264.324 223.439 265.31 224.003 265.949Z" fill="url(#paint21_linear_7345_14126)"/>
<g opacity="0.3">
<path d="M248.235 255.026C248.003 252.698 249.798 251.568 249.496 249.911C249.254 248.58 247.752 247.413 246.341 247.19C243.326 246.713 241.373 251.23 238.369 250.819C236.043 250.501 236.301 247.672 233.673 246.598C229.503 244.895 225.123 250.495 222.34 249.038C221.503 248.6 220.656 247.443 220.596 244.25C218.997 246.125 219.624 249.646 219.857 250.95C220.706 255.704 223.346 256.603 222.753 259.872C222.602 260.709 222.249 261.644 222.501 262.997C222.748 264.324 223.439 265.31 224.003 265.949C224.266 266.426 224.568 266.869 224.772 266.81C225.618 266.565 222.354 258.394 225.36 255.424C226.913 253.891 228.661 255.208 235.005 254.759C241.377 254.308 243.004 252.736 244.925 253.86C246.674 254.883 248.238 257.888 246.942 266.945C247.303 266.851 247.664 266.757 248.024 266.663C247.538 263.722 248.068 261.843 248.674 260.652C248.857 260.294 249.099 259.891 249.317 259.431C249.271 258.655 249.14 257.805 248.865 256.916C248.543 255.872 248.309 255.774 248.235 255.026Z" fill="url(#paint22_linear_7345_14126)"/>
</g>
</g>
<path d="M233.918 173.703C200.916 175.006 173.182 148.162 173.182 113.819C173.182 79.477 200.916 52.2588 233.918 53.1174C265.778 53.9463 290.895 80.8099 290.895 113.027C290.895 145.243 265.778 172.445 233.918 173.703Z" fill="url(#paint23_linear_7345_14126)"/>
<path d="M238.044 173.672C205.102 174.974 177.418 148.154 177.418 113.843C177.418 79.5319 205.102 52.3385 238.044 53.1955C269.846 54.023 294.918 80.8621 294.918 113.05C294.918 145.238 269.846 172.415 238.044 173.672Z" fill="url(#paint24_linear_7345_14126)"/>
<path d="M291.108 113.077C291.108 143.157 267.734 168.413 238.043 169.519C207.361 170.662 181.727 145.738 181.727 113.815C181.727 81.892 207.361 56.6223 238.043 57.3513C267.734 58.0566 291.108 82.9969 291.108 113.077Z" fill="white"/>
<mask id="mask11_7345_14126" style="mask-type:luminance" maskUnits="userSpaceOnUse" x="186" y="61" width="102" height="105">
<path d="M287.282 113.101C287.282 141.013 265.567 164.4 238.042 165.363C209.668 166.356 186.016 143.276 186.016 113.784C186.016 84.2927 209.668 60.8938 238.042 61.5038C265.567 62.0956 287.282 85.1895 287.282 113.101Z" fill="white"/>
</mask>
<g mask="url(#mask11_7345_14126)">
<path d="M289.839 184.047C284.532 191.472 273.139 186.949 238.811 187.576C202.294 188.245 189.353 193.231 183.467 185.312C178.034 178.007 182.536 151.574 189.001 144.157C196.323 135.763 206.782 133.116 220.288 132.077C225.566 131.671 231.307 131.513 237.504 131.349C243.415 131.196 248.661 131.055 253.374 131.15C265.055 131.382 273.461 133.03 280.499 139.355C289.693 147.615 295.545 176.066 289.839 184.047Z" fill="url(#paint25_linear_7345_14126)"/>
<path d="M253.373 131.15C253.346 131.665 253.275 132.172 253.157 132.65C251.347 139.865 247.383 154.963 243.419 165.419C240.682 172.642 237.943 177.65 235.92 176.305C234.334 175.253 232.434 171.548 230.494 166.668C226.562 156.772 222.473 142.022 220.524 134.681C220.305 133.863 220.236 132.942 220.288 132.077C225.566 131.67 231.307 131.512 237.504 131.349C243.415 131.196 248.661 131.055 253.373 131.15Z" fill="#F9F9F9"/>
<path d="M228.523 114.709C228.523 114.709 230.864 131.604 227.627 133.212L236.829 143.277L246.113 131.386C246.113 131.386 242.608 128.723 243.532 114.791L228.523 114.709Z" fill="url(#paint26_linear_7345_14126)"/>
<path d="M233.25 139.669L240.115 139.414L237.96 145.634L234.427 145.639L233.25 139.669Z" fill="url(#paint27_linear_7345_14126)"/>
<path d="M243.419 165.668C240.682 172.891 237.943 177.775 235.92 176.43C234.334 175.378 232.434 171.859 230.494 166.979L234.426 145.639L237.96 145.635L243.419 165.668Z" fill="url(#paint28_linear_7345_14126)"/>
<path d="M250.506 102.392C250.506 112.82 244.37 124.103 236.74 124.203C229.042 124.303 222.75 112.999 222.75 102.4C222.75 91.8019 229.042 86.0628 236.74 86.1335C244.37 86.2035 250.506 91.9635 250.506 102.392Z" fill="url(#paint29_linear_7345_14126)"/>
<path d="M222.333 105.075C223.107 104.949 223.879 104.824 224.651 104.698C224.297 103.832 222.832 99.9912 224.651 96.6339C226.395 93.4149 230.496 91.8648 233.621 92.0943C237.166 92.3545 239.29 94.0337 241.065 92.7511C242.062 92.0307 242.384 90.7146 242.498 89.689C242.577 90.3461 242.755 91.3185 243.214 92.3943C244.532 95.4832 246.759 96.1332 247.97 98.1732C248.786 99.5459 249.316 101.841 247.97 105.884C248.642 105.842 249.313 105.799 249.984 105.757C250.691 103.488 251.54 100.272 252.067 96.337C252.85 90.4968 253.389 86.4781 251.166 84.4976C250.723 84.1028 248.761 82.5341 244.058 83.9419C242.955 82.7547 240.628 80.5757 237.042 79.4458C235.8 79.0544 229.631 77.11 224.145 81.0776C220.406 83.7818 217.471 88.8805 218.415 93.128C218.914 95.3734 220.278 96.387 221.477 100.726C221.984 102.557 222.217 104.097 222.333 105.075Z" fill="url(#paint30_linear_7345_14126)"/>
<path d="M248.598 106.244C248.598 106.244 249.479 101.673 252.154 102.125C254.82 102.576 250.998 110.064 248.598 110.977V106.244Z" fill="url(#paint31_linear_7345_14126)"/>
<path d="M224.488 106.305C224.488 106.305 223.581 101.669 220.815 102.13C218.04 102.592 222.012 110.204 224.488 111.106V106.305Z" fill="url(#paint32_linear_7345_14126)"/>
</g>
<path d="M114.919 332.271C84.9416 333.276 59.7773 309.87 59.7773 280.063C59.7773 250.256 84.9416 226.684 114.919 227.491C143.895 228.271 166.763 251.686 166.763 279.71C166.763 307.734 143.895 331.3 114.919 332.271Z" fill="url(#paint33_linear_7345_14126)"/>
<path d="M118.529 332.122C88.5976 333.125 63.4727 309.736 63.4727 279.953C63.4727 250.169 88.5976 226.616 118.529 227.422C147.46 228.202 170.293 251.6 170.293 279.602C170.293 307.605 147.46 331.152 118.529 332.122Z" fill="url(#paint34_linear_7345_14126)"/>
<path d="M166.822 279.615C166.822 305.782 145.537 327.663 118.528 328.512C90.6487 329.388 67.3809 307.654 67.3809 279.941C67.3809 252.228 90.6487 230.34 118.528 231.034C145.537 231.705 166.822 253.447 166.822 279.615Z" fill="white"/>
<mask id="mask12_7345_14126" style="mask-type:luminance" maskUnits="userSpaceOnUse" x="71" y="234" width="93" height="91">
<path d="M163.338 279.626C163.338 303.905 143.566 324.167 118.528 324.901C92.7452 325.658 71.2734 305.531 71.2734 279.927C71.2734 254.323 92.7452 234.056 118.528 234.643C143.566 235.214 163.338 255.347 163.338 279.626Z" fill="white"/>
</mask>
<g mask="url(#mask12_7345_14126)">
<path d="M81.3227 313.346C78.6018 305.781 88.801 302.811 90.0966 284.97C90.1846 283.759 91.9069 259.409 95.7419 254.646C96.2512 254.013 96.8188 253.508 96.8188 253.508C98.7333 252.016 101.689 252.114 112.207 247.581C121.183 243.712 120.665 243.829 121.823 243.595C128.546 242.234 138.452 248.032 141.702 255.979C144.613 263.098 141.12 269.334 146.337 281.822L146.337 281.823C152.789 299.779 156.009 308.738 153.095 314.544C144.218 332.234 87.4186 330.294 81.3227 313.346Z" fill="url(#paint35_linear_7345_14126)"/>
<path d="M67.3809 313.803C67.3809 313.803 112.376 287.438 166.822 311.588C166.822 311.588 159.958 333.237 118.528 335.769C75.0157 338.43 67.3809 313.803 67.3809 313.803Z" fill="url(#paint36_linear_7345_14126)"/>
<path d="M110.638 279.797L108.966 291.957C108.395 296.108 105.467 299.625 101.387 301.045L87.6992 305.808C87.6992 305.808 113.826 317.501 146.411 304.636L131.613 299.86C127.395 298.383 124.516 294.521 124.332 290.074L123.905 279.754L110.638 279.797Z" fill="url(#paint37_linear_7345_14126)"/>
<path d="M130.826 269.071C130.826 279.267 124.55 290.279 116.744 290.353C108.867 290.427 102.43 279.352 102.43 268.988C102.43 258.624 108.867 253.033 116.744 253.128C124.55 253.222 130.826 258.875 130.826 269.071Z" fill="url(#paint38_linear_7345_14126)"/>
<path d="M101.952 275.672C103.317 275.598 101.347 264.835 106.628 261.854C110.128 259.879 116.188 261.686 119.589 265.192C124.939 270.708 121.947 278.648 125.997 280.323C128.564 281.385 131.987 279.099 133.624 277.432C138.732 272.234 138.036 261.262 131.996 255.046C127.169 250.08 120.602 249.856 119.037 249.85C110.061 249.814 101.788 256.297 99.8871 263.996C98.4251 269.917 100.943 275.726 101.952 275.672Z" fill="url(#paint39_linear_7345_14126)"/>
</g>
<path d="M354.912 217.13C354.325 217.14 353.814 216.657 353.814 216.051V197.7L114.848 200.844V220.189C114.848 220.827 114.403 221.353 113.749 221.365C113.096 221.376 112.65 220.867 112.65 220.228V199.632C112.65 198.993 112.795 198.645 113.449 198.637L355.168 195.576C355.756 195.569 356.011 195.89 356.011 196.496V216.015C356.011 216.621 355.5 217.12 354.912 217.13Z" fill="url(#paint40_linear_7345_14126)"/>
<path d="M237.353 219.21C236.733 219.221 236.254 218.725 236.254 218.103V177.999C236.254 177.376 236.733 176.868 237.353 176.863C237.972 176.858 238.451 177.359 238.451 177.981V218.066C238.451 218.687 237.972 219.199 237.353 219.21Z" fill="url(#paint41_linear_7345_14126)"/>
<defs>
<linearGradient id="paint0_linear_7345_14126" x1="44.645" y1="286.001" x2="247.355" y2="426.431" gradientUnits="userSpaceOnUse">
<stop offset="0.0036" stop-color="#E38DDD"/>
<stop offset="1" stop-color="#9571F6"/>
</linearGradient>
<linearGradient id="paint1_linear_7345_14126" x1="54.9718" y1="151.596" x2="171.52" y2="364.133" gradientUnits="userSpaceOnUse">
<stop offset="0.0036" stop-color="#E38DDD"/>
<stop offset="1" stop-color="#9571F6"/>
</linearGradient>
<linearGradient id="paint2_linear_7345_14126" x1="86.2359" y1="255.671" x2="244.889" y2="413.198" gradientUnits="userSpaceOnUse">
<stop stop-color="#FCB148"/>
<stop offset="0.0521" stop-color="#FDBA46"/>
<stop offset="0.1424" stop-color="#FFC244"/>
<stop offset="0.3183" stop-color="#FFC444"/>
<stop offset="0.4849" stop-color="#FDB946"/>
<stop offset="0.7754" stop-color="#F99C4D"/>
<stop offset="0.8658" stop-color="#F8924F"/>
<stop offset="1" stop-color="#F8924F"/>
</linearGradient>
<linearGradient id="paint3_linear_7345_14126" x1="411.072" y1="106.676" x2="303.261" y2="328.461" gradientUnits="userSpaceOnUse">
<stop offset="0.0036" stop-color="#E38DDD"/>
<stop offset="1" stop-color="#9571F6"/>
</linearGradient>
<linearGradient id="paint4_linear_7345_14126" x1="297.387" y1="5.23994" x2="299.991" y2="247.622" gradientUnits="userSpaceOnUse">
<stop offset="0.0036" stop-color="#E38DDD"/>
<stop offset="1" stop-color="#9571F6"/>
</linearGradient>
<linearGradient id="paint5_linear_7345_14126" x1="344.703" y1="96.6372" x2="283.641" y2="311.71" gradientUnits="userSpaceOnUse">
<stop stop-color="#FCB148"/>
<stop offset="0.0521" stop-color="#FDBA46"/>
<stop offset="0.1424" stop-color="#FFC244"/>
<stop offset="0.3183" stop-color="#FFC444"/>
<stop offset="0.4849" stop-color="#FDB946"/>
<stop offset="0.7754" stop-color="#F99C4D"/>
<stop offset="0.8658" stop-color="#F8924F"/>
<stop offset="1" stop-color="#F8924F"/>
</linearGradient>
<linearGradient id="paint6_linear_7345_14126" x1="303.482" y1="271.075" x2="399.848" y2="271.075" gradientUnits="userSpaceOnUse">
<stop stop-color="#444B8C"/>
<stop offset="0.9964" stop-color="#26264F"/>
</linearGradient>
<linearGradient id="paint7_linear_7345_14126" x1="306.824" y1="272.101" x2="403.048" y2="272.101" gradientUnits="userSpaceOnUse">
<stop offset="0.0036" stop-color="#E38DDD"/>
<stop offset="1" stop-color="#9571F6"/>
</linearGradient>
<linearGradient id="paint8_linear_7345_14126" x1="371.169" y1="237.72" x2="357.347" y2="280.568" gradientUnits="userSpaceOnUse">
<stop stop-color="#AB316D"/>
<stop offset="1" stop-color="#792D3D"/>
</linearGradient>
<linearGradient id="paint9_linear_7345_14126" x1="310.342" y1="309.179" x2="399.918" y2="309.179" gradientUnits="userSpaceOnUse">
<stop stop-color="#FF9085"/>
<stop offset="1" stop-color="#FB6FBB"/>
</linearGradient>
<linearGradient id="paint10_linear_7345_14126" x1="354.965" y1="275.661" x2="355.145" y2="310.636" gradientUnits="userSpaceOnUse">
<stop offset="0.0036" stop-color="#F36F56"/>
<stop offset="1" stop-color="#FFC444"/>
</linearGradient>
<linearGradient id="paint11_linear_7345_14126" x1="360.013" y1="226.063" x2="352.042" y2="279.779" gradientUnits="userSpaceOnUse">
<stop offset="0.0036" stop-color="#F36F56"/>
<stop offset="1" stop-color="#FFC444"/>
</linearGradient>
<linearGradient id="paint12_linear_7345_14126" x1="361.521" y1="234.404" x2="347.194" y2="278.816" gradientUnits="userSpaceOnUse">
<stop stop-color="#AB316D"/>
<stop offset="1" stop-color="#792D3D"/>
</linearGradient>
<linearGradient id="paint13_linear_7345_14126" x1="181.914" y1="275.173" x2="283.528" y2="275.173" gradientUnits="userSpaceOnUse">
<stop stop-color="#444B8C"/>
<stop offset="0.9964" stop-color="#26264F"/>
</linearGradient>
<linearGradient id="paint14_linear_7345_14126" x1="185.439" y1="276.223" x2="286.899" y2="276.223" gradientUnits="userSpaceOnUse">
<stop offset="0.0036" stop-color="#E38DDD"/>
<stop offset="1" stop-color="#9571F6"/>
</linearGradient>
<linearGradient id="paint15_linear_7345_14126" x1="217.852" y1="342.395" x2="265.987" y2="310.305" gradientUnits="userSpaceOnUse">
<stop offset="0.0036" stop-color="#E38DDD"/>
<stop offset="1" stop-color="#9571F6"/>
</linearGradient>
<linearGradient id="paint16_linear_7345_14126" x1="235.822" y1="300.744" x2="235.439" y2="277.399" gradientUnits="userSpaceOnUse">
<stop stop-color="#AA80F9"/>
<stop offset="0.9964" stop-color="#6165D7"/>
</linearGradient>
<linearGradient id="paint17_linear_7345_14126" x1="236.02" y1="303.035" x2="235.894" y2="282.832" gradientUnits="userSpaceOnUse">
<stop stop-color="#AB316D"/>
<stop offset="1" stop-color="#792D3D"/>
</linearGradient>
<linearGradient id="paint18_linear_7345_14126" x1="234.317" y1="277.001" x2="237.651" y2="236.864" gradientUnits="userSpaceOnUse">
<stop stop-color="#AB316D"/>
<stop offset="1" stop-color="#792D3D"/>
</linearGradient>
<linearGradient id="paint19_linear_7345_14126" x1="222.574" y1="276.25" x2="225.876" y2="236.501" gradientUnits="userSpaceOnUse">
<stop stop-color="#AB316D"/>
<stop offset="1" stop-color="#792D3D"/>
</linearGradient>
<linearGradient id="paint20_linear_7345_14126" x1="247.685" y1="277.696" x2="251.017" y2="237.58" gradientUnits="userSpaceOnUse">
<stop stop-color="#AB316D"/>
<stop offset="1" stop-color="#792D3D"/>
</linearGradient>
<linearGradient id="paint21_linear_7345_14126" x1="233.414" y1="257.774" x2="242.328" y2="230.126" gradientUnits="userSpaceOnUse">
<stop stop-color="#311944"/>
<stop offset="1" stop-color="#6B3976"/>
</linearGradient>
<linearGradient id="paint22_linear_7345_14126" x1="233.438" y1="257.699" x2="242.415" y2="229.857" gradientUnits="userSpaceOnUse">
<stop stop-color="#311944"/>
<stop offset="1" stop-color="#6B3976"/>
</linearGradient>
<linearGradient id="paint23_linear_7345_14126" x1="173.182" y1="113.423" x2="290.895" y2="113.423" gradientUnits="userSpaceOnUse">
<stop stop-color="#444B8C"/>
<stop offset="0.9964" stop-color="#26264F"/>
</linearGradient>
<linearGradient id="paint24_linear_7345_14126" x1="177.418" y1="113.447" x2="294.918" y2="113.447" gradientUnits="userSpaceOnUse">
<stop stop-color="#FF9085"/>
<stop offset="1" stop-color="#FB6FBB"/>
</linearGradient>
<linearGradient id="paint25_linear_7345_14126" x1="280.042" y1="83.7534" x2="218.344" y2="205.202" gradientUnits="userSpaceOnUse">
<stop stop-color="#444B8C"/>
<stop offset="0.9964" stop-color="#3E4177"/>
</linearGradient>
<linearGradient id="paint26_linear_7345_14126" x1="233.826" y1="115.278" x2="241.305" y2="152.491" gradientUnits="userSpaceOnUse">
<stop stop-color="#FFC444"/>
<stop offset="0.9964" stop-color="#F36F56"/>
</linearGradient>
<linearGradient id="paint27_linear_7345_14126" x1="233.25" y1="142.526" x2="240.115" y2="142.526" gradientUnits="userSpaceOnUse">
<stop stop-color="#444B8C"/>
<stop offset="0.9964" stop-color="#3E4177"/>
</linearGradient>
<linearGradient id="paint28_linear_7345_14126" x1="230.494" y1="161.144" x2="243.419" y2="161.144" gradientUnits="userSpaceOnUse">
<stop stop-color="#444B8C"/>
<stop offset="0.9964" stop-color="#3E4177"/>
</linearGradient>
<linearGradient id="paint29_linear_7345_14126" x1="242.265" y1="67.7188" x2="233.152" y2="123.994" gradientUnits="userSpaceOnUse">
<stop offset="0.0036" stop-color="#F36F56"/>
<stop offset="1" stop-color="#FFC444"/>
</linearGradient>
<linearGradient id="paint30_linear_7345_14126" x1="237.466" y1="79.315" x2="233.015" y2="106.805" gradientUnits="userSpaceOnUse">
<stop stop-color="#444B8C"/>
<stop offset="0.9964" stop-color="#26264F"/>
</linearGradient>
<linearGradient id="paint31_linear_7345_14126" x1="256.442" y1="70.3517" x2="247.407" y2="126.15" gradientUnits="userSpaceOnUse">
<stop offset="0.0036" stop-color="#F36F56"/>
<stop offset="1" stop-color="#FFC444"/>
</linearGradient>
<linearGradient id="paint32_linear_7345_14126" x1="228.983" y1="65.1856" x2="219.793" y2="121.94" gradientUnits="userSpaceOnUse">
<stop offset="0.0036" stop-color="#F36F56"/>
<stop offset="1" stop-color="#FFC444"/>
</linearGradient>
<linearGradient id="paint33_linear_7345_14126" x1="59.7774" y1="279.887" x2="166.763" y2="279.887" gradientUnits="userSpaceOnUse">
<stop stop-color="#444B8C"/>
<stop offset="0.9964" stop-color="#26264F"/>
</linearGradient>
<linearGradient id="paint34_linear_7345_14126" x1="63.4727" y1="279.778" x2="170.293" y2="279.778" gradientUnits="userSpaceOnUse">
<stop offset="0.0036" stop-color="#E38DDD"/>
<stop offset="1" stop-color="#9571F6"/>
</linearGradient>
<linearGradient id="paint35_linear_7345_14126" x1="183.495" y1="172.615" x2="57.1329" y2="411.92" gradientUnits="userSpaceOnUse">
<stop stop-color="#AB316D"/>
<stop offset="1" stop-color="#792D3D"/>
</linearGradient>
<linearGradient id="paint36_linear_7345_14126" x1="117.154" y1="311.753" x2="112.363" y2="397.388" gradientUnits="userSpaceOnUse">
<stop stop-color="#444B8C"/>
<stop offset="0.9964" stop-color="#26264F"/>
</linearGradient>
<linearGradient id="paint37_linear_7345_14126" x1="116.945" y1="283.912" x2="117.13" y2="319.665" gradientUnits="userSpaceOnUse">
<stop offset="0.0036" stop-color="#F36F56"/>
<stop offset="1" stop-color="#FFC444"/>
</linearGradient>
<linearGradient id="paint38_linear_7345_14126" x1="122.177" y1="231.732" x2="113.866" y2="287.743" gradientUnits="userSpaceOnUse">
<stop offset="0.0036" stop-color="#F36F56"/>
<stop offset="1" stop-color="#FFC444"/>
</linearGradient>
<linearGradient id="paint39_linear_7345_14126" x1="142.701" y1="221.556" x2="94.4762" y2="312.885" gradientUnits="userSpaceOnUse">
<stop stop-color="#AB316D"/>
<stop offset="1" stop-color="#792D3D"/>
</linearGradient>
<linearGradient id="paint40_linear_7345_14126" x1="112.65" y1="208.471" x2="356.011" y2="208.471" gradientUnits="userSpaceOnUse">
<stop stop-color="#444B8C"/>
<stop offset="0.9964" stop-color="#26264F"/>
</linearGradient>
<linearGradient id="paint41_linear_7345_14126" x1="236.254" y1="198.037" x2="238.451" y2="198.037" gradientUnits="userSpaceOnUse">
<stop stop-color="#444B8C"/>
<stop offset="0.9964" stop-color="#26264F"/>
</linearGradient>
</defs>
</svg>
