<svg width="438" height="367" viewBox="0 0 438 367" fill="none" xmlns="http://www.w3.org/2000/svg">
<mask id="mask0_1433_6105" style="mask-type:luminance" maskUnits="userSpaceOnUse" x="0" y="124" width="143" height="223">
<path d="M142.864 124.118H0.0341797V346.054H142.864V124.118Z" fill="white"/>
</mask>
<g mask="url(#mask0_1433_6105)">
<mask id="mask1_1433_6105" style="mask-type:luminance" maskUnits="userSpaceOnUse" x="28" y="259" width="217" height="197">
<path d="M243.898 431.167L210.594 455.274C210.594 455.274 191.959 442.728 191.393 424.763C190.238 388.11 158.217 391.68 144.581 391.168C124.018 390.397 106.233 380.749 120.877 360.344C135.521 339.939 94.4722 324.066 61.0828 327.607C28.4088 331.072 3.39564 274.989 73.4258 260.997C115.248 252.64 134.435 289.506 148.551 305.819C162.666 322.132 189.6 304.83 196.133 332.512C201.714 356.157 196.921 379.813 216.936 384.357C236.951 388.902 248.223 402.083 243.898 431.167Z" fill="white"/>
</mask>
<g mask="url(#mask1_1433_6105)">
<path d="M243.898 431.167L210.594 455.274C210.594 455.274 191.959 442.728 191.393 424.763C190.238 388.11 158.217 391.68 144.581 391.168C124.018 390.397 108.625 381.31 118.178 361.273C128.987 338.602 94.4724 324.066 61.0828 327.607C28.4088 331.072 3.39564 274.989 73.4258 260.997C115.248 252.64 134.435 289.506 148.551 305.819C162.666 322.132 189.6 304.83 196.133 332.512C201.714 356.157 196.921 379.813 216.936 384.357C236.951 388.902 248.223 402.083 243.898 431.167Z" fill="url(#paint0_linear_1433_6105)"/>
</g>
<mask id="mask2_1433_6105" style="mask-type:luminance" maskUnits="userSpaceOnUse" x="28" y="259" width="217" height="197">
<path d="M243.898 431.167L210.594 455.274C210.594 455.274 191.959 442.728 191.393 424.763C190.238 388.11 158.217 391.68 144.581 391.168C124.018 390.397 106.233 380.749 120.877 360.344C135.521 339.939 94.4722 324.066 61.0828 327.607C28.4088 331.072 3.39564 274.989 73.4258 260.997C115.248 252.64 134.435 289.506 148.551 305.819C162.666 322.132 189.6 304.83 196.133 332.512C201.714 356.157 196.921 379.813 216.936 384.357C236.951 388.902 248.223 402.083 243.898 431.167Z" fill="white"/>
</mask>
<g mask="url(#mask2_1433_6105)">
<g opacity="0.9">
<path d="M231.722 444.691L230.938 445.065C230.707 444.58 207.351 396.09 169.702 355.001C135.018 317.147 80.7525 278.012 19.201 306.541L18.8359 305.754C46.2357 293.054 74.493 292.474 102.823 304.031C125.454 313.263 148.174 330.218 170.354 354.427C208.086 395.612 231.49 444.205 231.722 444.691Z" fill="#BEB8F2"/>
<path d="M114.453 309.372L113.692 309.79C99.7739 284.476 67.05 257.893 66.7212 257.628L67.266 256.952C67.5965 257.219 100.453 283.909 114.453 309.372Z" fill="#BEB8F2"/>
<path d="M95.3655 302.189C61.0237 304.575 44.0325 327.657 43.8651 327.89L43.1606 327.383C43.3305 327.146 60.5425 303.738 95.3053 301.323L95.3655 302.189Z" fill="#BEB8F2"/>
</g>
</g>
<path d="M112.148 311.24C108.546 319.816 112.917 327.706 116.974 332.921C117.865 332.849 118.396 333.035 119.308 333.162C127.537 334.304 131.291 333.038 139.58 332.884C141.364 332.851 146.571 331.161 148.654 330.333L152.514 328.729C152.514 328.729 158.325 308.124 147.035 303.544C135.745 298.964 138.782 278.695 139.068 267.758C139.243 261.042 137.172 257.915 136.84 255.437C133.329 229.205 140.692 220.81 134.31 212.981C127.265 204.339 116.276 212.096 108.116 203.1C98.901 192.941 106.726 176.229 95.8577 168.564C93.9945 167.25 92.0441 165.951 89.0699 165.314C81.7286 163.743 76.2033 168.364 70.6372 162.835C59.4493 151.723 42.1811 148.879 32.7595 162.12C23.4611 175.188 37.0436 198.436 68.4235 215.357C89.3675 229.935 89.9651 234.788 89.0851 246.809C88.4691 255.228 81.2211 277.647 93.8413 285.262C106.462 292.877 116.267 301.436 112.148 311.24Z" fill="url(#paint1_linear_1433_6105)"/>
<mask id="mask3_1433_6105" style="mask-type:luminance" maskUnits="userSpaceOnUse" x="29" y="153" width="125" height="187">
<path d="M122.638 339.199L151.893 329.513C151.893 329.513 158.325 308.124 147.035 303.544C135.745 298.964 138.782 278.695 139.068 267.758C139.843 238.084 105.867 243.704 103.604 205.613C103.003 195.482 105.488 175.845 95.8576 168.564C84.8863 160.27 77.7952 169.945 70.6372 162.835C59.4494 151.722 42.1811 148.879 32.7596 162.12C23.4611 175.188 37.0437 198.436 68.4234 215.357C89.3677 229.935 89.965 234.788 89.0852 246.809C88.469 255.228 81.2212 277.647 93.8414 285.262C106.462 292.877 116.267 301.436 112.148 311.24C105.881 326.157 122.638 339.199 122.638 339.199Z" fill="white"/>
</mask>
<g mask="url(#mask3_1433_6105)">
<g opacity="0.5">
<path d="M135.299 333.565L135.897 333.443C135.254 330.132 134.561 326.801 133.838 323.544C128.483 299.43 120.894 276.741 111.282 256.108C103.137 238.625 93.4296 222.37 82.4284 207.794C73.5812 196.072 63.8531 185.368 53.5145 175.978C46.2464 169.378 38.7542 163.49 31.2453 158.479C29.937 157.606 28.5439 156.783 27.1965 155.987C25.4015 154.927 23.5453 153.831 21.8755 152.606L21.4893 153.059C23.182 154.3 25.0506 155.404 26.8579 156.472C28.1986 157.263 29.5847 158.082 30.8798 158.947C38.3651 163.942 45.8352 169.812 53.0824 176.394C63.3955 185.76 73.1003 196.439 81.927 208.134C92.9056 222.68 102.594 238.903 110.723 256.352C120.319 276.95 127.896 299.603 133.242 323.68C133.965 326.932 134.657 330.258 135.299 333.565Z" fill="#FCFDFE"/>
<path d="M94.5049 226.411L95.0408 226.123C82.6813 205.063 90.0314 163.554 90.1072 163.137L89.5076 163.062C89.4314 163.481 82.0464 205.182 94.5049 226.411Z" fill="#FCFDFE"/>
<path d="M123.439 288.354L124.004 288.125C117.434 272.83 85.0443 263.378 84.718 263.284L84.5195 263.829C84.8433 263.922 116.971 273.298 123.439 288.354Z" fill="#FCFDFE"/>
<path d="M126.352 297.362L126.948 297.229C124.645 286.625 127.612 270.799 135.302 252.666C135.689 251.754 135.689 251.754 135.668 251.648L135.07 251.775L135.369 251.712L135.072 251.667C135.053 251.73 134.907 252.074 134.738 252.473C127.003 270.71 124.025 286.652 126.352 297.362Z" fill="#FCFDFE"/>
<path d="M134.033 327.541L134.57 327.255C128.535 316.87 109.824 314.179 109.636 314.153L109.524 314.716C109.71 314.742 128.136 317.394 134.033 327.541Z" fill="#FCFDFE"/>
<path d="M136.22 333.529C137.959 323.925 142.688 314.369 150.676 304.318L150.192 303.989C142.143 314.119 137.377 323.757 135.62 333.455L136.22 333.529Z" fill="#FCFDFE"/>
<path d="M59.0704 182.02L59.5892 181.706C52.0048 170.38 46.9124 156.737 45.239 152.254C44.8339 151.168 44.69 150.787 44.6148 150.663L44.083 150.958C44.139 151.053 44.3705 151.674 44.6636 152.459C46.3425 156.957 51.4514 170.643 59.0704 182.02Z" fill="#FCFDFE"/>
<path d="M74.3858 198.625L74.7881 198.185C64.5657 190.113 37.3564 192.745 36.2031 192.861L36.2457 193.427C36.5254 193.399 64.354 190.705 74.3858 198.625Z" fill="#FCFDFE"/>
</g>
</g>
<path d="M171.205 395.858C173.176 395.098 168.186 385.188 170.788 370.285C171.438 366.561 173.574 346.007 188.518 341.752C191.418 340.926 194.319 340.099 197.22 339.273C198.115 332.078 197.627 325.131 188.126 324.804C173.372 324.297 167.679 301.286 169.579 292.178C171.931 280.906 176.848 254.571 154.064 253.443C135.098 252.503 122.509 255.618 116.244 234.269C109.98 212.919 94.3839 202.487 73.9768 208.891C52.5013 215.631 28.2523 192.534 12.535 206.146C-14.851 229.866 24.3987 270.628 65.4349 275.107C106.471 279.586 87.77 297.877 90.8602 315.852C91.2416 317.504 91.9603 320.036 93.376 322.864C102.092 340.273 122.123 338.7 139.615 350.399C163.469 366.354 167.884 397.139 171.205 395.858Z" fill="url(#paint2_linear_1433_6105)"/>
<mask id="mask4_1433_6105" style="mask-type:luminance" maskUnits="userSpaceOnUse" x="3" y="201" width="195" height="156">
<path d="M149.413 356.955L196.809 344.87C198.038 337.804 198.739 325.169 188.126 324.804C173.372 324.297 167.68 301.286 169.579 292.178C171.931 280.906 176.848 254.571 154.064 253.442C135.098 252.503 122.509 255.618 116.245 234.269C109.98 212.919 94.3838 202.487 73.9767 208.891C52.5014 215.63 28.2522 192.533 12.5351 206.147C-14.8511 229.866 24.3987 270.628 65.4347 275.107C106.471 279.586 87.7699 297.877 90.86 315.852C95.0787 340.391 128.364 326.701 139.678 333.955C148.547 339.642 149.607 350.252 149.413 356.955Z" fill="white"/>
</mask>
<g mask="url(#mask4_1433_6105)">
<g opacity="0.5">
<path d="M170.027 344.196L170.99 343.751C139.67 277.591 74.3551 227.546 0.533404 213.146L0.285645 214.135C73.7963 228.474 138.838 278.311 170.027 344.196Z" fill="#FCFDFE"/>
<path d="M163.913 332.188L164.709 331.499C144.596 310.066 89.3491 320.161 88.7935 320.266L88.9581 321.255C89.5078 321.152 144.182 311.163 163.913 332.188Z" fill="#FCFDFE"/>
<path d="M98.8442 258.11L99.6964 257.486C85.3683 239.185 92.0935 203.816 92.163 203.461L91.1282 203.311C91.0575 203.671 84.2513 239.471 98.8442 258.11Z" fill="#FCFDFE"/>
<path d="M58.2938 233.43L58.6367 232.464C32.405 224.8 -1.56289 241.175 -1.90332 241.342L-1.45292 242.237C-1.11702 242.071 32.471 225.884 58.2938 233.43Z" fill="#FCFDFE"/>
</g>
</g>
</g>
<mask id="mask5_1433_6105" style="mask-type:luminance" maskUnits="userSpaceOnUse" x="299" y="93" width="139" height="242">
<path d="M311.531 330.121L352.377 334.805C352.377 334.805 362.468 314.733 354.154 298.798C337.191 266.286 366.85 253.698 378.483 246.567C396.028 235.814 406.799 218.685 384.032 208.08C361.264 197.476 389.259 163.516 420.097 150.233C450.273 137.234 444.579 76.0908 376.682 98.2286C336.135 111.449 337.485 152.987 333.18 174.125C328.875 195.264 296.918 193.389 304.795 220.718C311.523 244.062 327.298 262.33 312.082 276.104C296.865 289.878 293.503 306.892 311.531 330.121Z" fill="white"/>
</mask>
<g mask="url(#mask5_1433_6105)">
<path d="M311.531 330.121L352.377 334.805C352.377 334.805 362.468 314.733 354.154 298.798C337.191 266.286 366.85 253.698 378.483 246.567C396.028 235.814 404.989 220.347 386.839 207.567C366.304 193.107 389.259 163.516 420.096 150.233C450.273 137.234 444.578 76.0908 376.682 98.2286C336.134 111.449 337.485 152.987 333.18 174.125C328.875 195.264 296.918 193.389 304.795 220.718C311.523 244.062 327.298 262.33 312.081 276.104C296.865 289.878 293.503 306.892 311.531 330.121Z" fill="url(#paint3_linear_1433_6105)"/>
</g>
<mask id="mask6_1433_6105" style="mask-type:luminance" maskUnits="userSpaceOnUse" x="299" y="93" width="139" height="242">
<path d="M311.531 330.121L352.377 334.805C352.377 334.805 362.468 314.733 354.154 298.798C337.191 266.286 366.85 253.698 378.483 246.567C396.028 235.814 406.799 218.685 384.032 208.08C361.264 197.476 389.259 163.516 420.097 150.233C450.273 137.234 444.579 76.0908 376.682 98.2286C336.135 111.449 337.485 152.987 333.18 174.125C328.875 195.264 296.918 193.389 304.795 220.718C311.523 244.062 327.298 262.33 312.082 276.104C296.865 289.878 293.503 306.892 311.531 330.121Z" fill="white"/>
</mask>
<g mask="url(#mask6_1433_6105)">
<g opacity="0.9">
<path d="M328.774 335.939L329.64 335.881C329.604 335.344 326.188 281.631 338.857 227.361C350.528 177.364 378.638 116.651 446.271 111.339L446.204 110.474C416.096 112.838 391.184 126.187 372.158 150.148C356.959 169.29 345.469 195.207 338.007 227.181C325.313 281.575 328.738 335.402 328.774 335.939Z" fill="#BEB8F2"/>
<path d="M364.64 160.505L365.508 160.496C365.228 131.609 380.717 92.3974 380.873 92.0048L380.067 91.6831C379.91 92.0777 364.358 131.449 364.64 160.505Z" fill="#BEB8F2"/>
<path d="M377.754 144.887C408.856 130.13 434.981 141.917 435.241 142.038L435.607 141.251C435.343 141.128 408.865 129.165 377.382 144.102L377.754 144.887Z" fill="#BEB8F2"/>
<path d="M332.507 263.292C346.81 223.743 403.247 220.112 403.8 220.123L403.873 219.259C403.332 219.197 346.121 223.096 331.691 262.997L332.507 263.292Z" fill="#BEB8F2"/>
<path d="M334.216 246.035L335.081 245.955C332.645 219.23 306.39 198.022 306.124 197.811L305.583 198.489C305.846 198.698 331.815 219.682 334.216 246.035Z" fill="#BEB8F2"/>
<path d="M329.289 327.416C332.347 311.735 356.375 301.796 356.617 301.697L356.291 300.894C355.284 301.303 331.585 311.106 328.437 327.25L329.289 327.416Z" fill="#BEB8F2"/>
<path d="M328.309 314.707L329.175 314.66C328.482 302.047 311.362 286.121 305.737 280.888C304.942 280.148 304.256 279.51 304.156 279.372L303.446 279.871C303.584 280.068 304.039 280.493 305.146 281.523C310.708 286.698 327.634 302.444 328.309 314.707Z" fill="#BEB8F2"/>
</g>
</g>
<path d="M328.757 171.644C336.101 177.352 336.16 186.372 335.18 192.906C334.368 193.28 333.997 193.703 333.264 194.26C326.653 199.291 322.76 200.028 315.46 203.957C313.889 204.803 308.522 205.882 306.3 206.183L302.15 206.677C302.15 206.677 286.983 191.568 294.578 182.04C302.173 172.514 289.588 156.336 283.977 146.944C280.532 141.177 280.804 137.435 279.878 135.113C270.078 110.529 259.545 106.821 261.269 96.8692C263.172 85.8829 276.553 87.2564 279.255 75.4146C282.305 62.0429 267.292 51.3139 273.007 39.3048C273.987 37.2459 275.049 35.157 277.329 33.1442C282.958 28.176 290.039 29.4942 292.18 21.9468C296.482 6.77623 310.139 -4.16852 324.842 2.75315C339.353 9.58442 338.912 36.5058 319.859 66.6383C308.751 89.6123 310.61 94.1353 317.27 104.18C321.935 111.216 339.243 127.203 331.977 140.027C324.711 152.851 320.361 165.118 328.757 171.644Z" fill="url(#paint4_linear_1433_6105)"/>
<mask id="mask7_1433_6105" style="mask-type:luminance" maskUnits="userSpaceOnUse" x="271" y="0" width="65" height="208">
<path d="M333.321 201.155L303.075 207.057C303.075 207.057 286.983 191.568 294.578 182.041C302.173 172.514 289.588 156.336 283.977 146.944C268.753 121.461 301.121 109.702 284.418 75.3937C279.976 66.2687 268.183 50.3719 273.006 39.3052C278.502 26.697 289.426 31.6535 292.179 21.9473C296.482 6.77666 310.138 -4.16793 324.842 2.75358C339.353 9.58484 338.912 36.5063 319.858 66.6387C308.751 89.6129 310.61 94.1357 317.27 104.181C321.934 111.217 339.243 127.203 331.977 140.028C324.711 152.852 320.361 165.119 328.757 171.644C341.532 181.573 333.321 201.155 333.321 201.155Z" fill="white"/>
</mask>
<g mask="url(#mask7_1433_6105)">
<g opacity="0.5">
<path d="M319.524 202.451L318.943 202.638C317.88 199.437 316.851 196.195 315.884 193.002C308.729 169.359 304.22 145.864 302.482 123.168C301.009 103.937 301.501 85.0098 303.943 66.9125C305.908 52.3585 309.138 38.2597 313.546 25.0073C316.645 15.6911 320.288 6.88629 324.376 -1.16212C325.088 -2.56492 325.899 -3.96498 326.683 -5.31926C327.728 -7.12331 328.808 -8.98896 329.663 -10.875L330.222 -10.6696C329.355 -8.7577 328.268 -6.87943 327.216 -5.06309C326.436 -3.71576 325.629 -2.32249 324.924 -0.933924C320.849 7.08926 317.216 15.8677 314.126 25.1577C309.73 38.3771 306.507 52.4426 304.547 66.9629C302.11 85.0231 301.619 103.912 303.089 123.106C304.824 145.764 309.326 169.222 316.47 192.828C317.435 196.017 318.463 199.254 319.524 202.451Z" fill="#FCFDFE"/>
<path d="M302.545 89.0584L301.937 89.0704C302.385 64.6561 275.628 32.0812 275.357 31.7552L275.843 31.396C276.115 31.7237 302.996 64.4487 302.545 89.0584Z" fill="#FCFDFE"/>
<path d="M307.696 157.232L307.091 157.31C305.319 140.758 328.915 116.641 329.153 116.399L329.593 116.776C329.357 117.016 305.952 140.939 307.696 157.232Z" fill="#FCFDFE"/>
<path d="M309.573 166.512L308.988 166.688C305.797 156.317 295.452 143.978 279.859 131.944C279.075 131.338 279.075 131.338 279.042 131.236L279.625 131.053L279.334 131.145L279.571 130.96C279.618 131.006 279.914 131.235 280.257 131.499C295.939 143.602 306.351 156.036 309.573 166.512Z" fill="#FCFDFE"/>
<path d="M317.674 196.581L317.066 196.595C317.234 184.585 332.224 173.066 332.375 172.951L332.747 173.387C332.598 173.501 317.839 184.846 317.674 196.581Z" fill="#FCFDFE"/>
<path d="M318.704 202.872C312.479 195.354 303.673 189.344 291.783 184.499L292.044 183.976C304.025 188.859 312.905 194.922 319.19 202.514L318.704 202.872Z" fill="#FCFDFE"/>
<path d="M311.666 32.9972L311.06 32.977C312.117 19.3876 309.867 4.99989 309.128 0.272182C308.949 -0.872346 308.887 -1.27536 308.892 -1.42011L309.5 -1.42383C309.498 -1.31321 309.6 -0.659028 309.73 0.169328C310.471 4.91224 312.729 19.3457 311.666 32.9972Z" fill="#FCFDFE"/>
<path d="M306.458 54.9782L305.892 54.7916C310.844 42.7451 335.849 31.6993 336.911 31.2349L337.152 31.7488C336.894 31.8614 311.319 43.1567 306.458 54.9782Z" fill="#FCFDFE"/>
</g>
</g>
<path d="M342.314 259.71C340.224 260.014 339.715 248.931 330.14 237.217C327.748 234.291 315.809 217.424 300.698 221.041C297.765 221.743 294.832 222.445 291.899 223.147C287.591 217.315 284.611 211.02 292.731 206.078C305.342 198.402 299.022 175.556 292.9 168.549C285.324 159.877 268.128 139.335 287.432 127.182C303.503 117.064 316.002 113.607 310.995 91.9286C305.988 70.2497 314.467 53.5113 335.393 49.088C357.414 44.433 367.225 12.4139 387.598 16.5728C423.096 23.8202 408.871 78.5895 375.301 102.612C341.731 126.634 366.997 133.408 373.116 150.589C373.594 152.216 374.209 154.776 374.362 157.934C375.3 177.381 357.07 185.83 347.561 204.602C334.592 230.203 345.837 259.199 342.314 259.71Z" fill="url(#paint5_linear_1433_6105)"/>
<mask id="mask8_1433_6105" style="mask-type:luminance" maskUnits="userSpaceOnUse" x="278" y="16" width="131" height="212">
<path d="M342.235 215.12L295.001 227.824C290.466 222.268 283.661 211.599 292.731 206.078C305.342 198.402 299.022 175.556 292.9 168.549C285.324 159.877 268.128 139.335 287.432 127.182C303.502 117.064 316.001 113.607 310.995 91.9285C305.988 70.2496 314.467 53.5112 335.393 49.0879C357.414 44.4329 367.225 12.4136 387.598 16.5729C423.096 23.8201 408.871 78.5893 375.301 102.612C341.731 126.634 366.997 133.408 373.116 150.589C381.47 174.045 345.748 178.432 339.444 190.302C334.502 199.607 338.779 209.373 342.235 215.12Z" fill="white"/>
</mask>
<g mask="url(#mask8_1433_6105)">
<g opacity="0.5">
<path d="M318.012 214.106L316.955 214.19C311.817 141.172 344.208 65.5327 401.49 16.79L402.19 17.5301C345.15 66.0672 312.895 141.391 318.012 214.106Z" fill="#FCFDFE"/>
<path d="M318.82 174.009L317.797 174.289C309.821 146.634 278.457 131.954 278.141 131.809L278.617 130.905C278.937 131.052 310.717 145.919 318.82 174.009Z" fill="#FCFDFE"/>
<path d="M317.454 200.643L316.423 200.432C323.445 171.891 376.546 153.604 377.081 153.423L377.423 154.366C376.893 154.545 324.343 172.645 317.454 200.643Z" fill="#FCFDFE"/>
<path d="M337.849 104.177L336.8 104.051C340.316 81.076 317.114 53.5459 316.879 53.2705L317.708 52.6328C317.946 52.9115 341.43 80.7778 337.849 104.177Z" fill="#FCFDFE"/>
<path d="M361.092 62.786L360.319 62.1123C379.424 42.5715 417.058 40.1908 417.437 40.1694L417.483 41.17C417.109 41.1909 379.899 43.5495 361.092 62.786Z" fill="#FCFDFE"/>
</g>
</g>
<path d="M383.131 82.5334C383.131 71.6917 376.795 62.6349 368.864 62.3035L76.5678 50.088C76.2401 50.0744 75.9251 50.0703 75.6013 50.0766C69.4637 50.1953 64.1822 53.8578 60.9342 59.4819C58.8854 63.0294 57.793 67.3574 57.793 72.0772V88.4249V344.98C57.793 346.553 57.8243 348.071 58.0778 349.53C58.1412 349.894 58.1612 350.253 58.2393 350.609C58.5523 352.035 58.9566 353.392 59.4908 354.669C61.762 360.101 65.9066 364.064 70.9556 365.48C72.7406 365.98 74.6308 366.197 76.5953 366.013L302.287 344.904H302.285L368.866 338.623C376.796 337.88 383.132 328.454 383.132 317.612V96.6153V82.5334H383.131Z" fill="#B7C0CE"/>
<path d="M376.95 62.1242L83.5896 49.9002C73.0988 49.4631 64.5254 59.3257 64.5254 71.9327V345.286C64.5254 357.893 73.0989 367.312 83.5896 366.331L376.95 338.916C384.91 338.172 391.318 328.768 391.318 317.906V82.3901C391.318 71.5282 384.91 62.4559 376.95 62.1242Z" fill="white"/>
<path d="M83.5895 359.101C76.4702 359.745 70.646 353.319 70.646 344.773V72.1286C70.646 63.583 76.47 56.8554 83.5895 57.1302L376.95 68.4485C382.367 68.6575 386.752 74.8457 386.752 82.2442V318.289C386.752 325.687 382.367 332.102 376.95 332.592L83.5895 359.101Z" fill="#F4F7FA"/>
<path d="M376.95 62.1242L83.5897 49.9002C73.0991 49.4631 64.5254 59.3257 64.5254 71.9327V88.3073L391.318 96.4982V82.3901C391.318 71.5282 384.91 62.4559 376.95 62.1242Z" fill="#D8DEE8"/>
<path d="M98.3193 70.1506C98.3193 73.8512 95.5798 76.7772 92.1917 76.6853C88.7937 76.5933 86.0317 73.5026 86.0317 69.7824C86.0317 66.0622 88.7937 63.1371 92.1917 63.2487C95.5798 63.3601 98.3193 66.45 98.3193 70.1506Z" fill="white"/>
<path d="M119.588 70.7882C119.588 74.455 116.898 77.3547 113.572 77.2646C110.236 77.1742 107.524 74.1126 107.524 70.4267C107.524 66.7407 110.236 63.8416 113.572 63.9513C116.898 64.0604 119.588 67.1214 119.588 70.7882Z" fill="white"/>
<path d="M140.471 71.414C140.471 75.0476 137.83 77.9216 134.564 77.8332C131.288 77.7444 128.626 74.7114 128.626 71.059C128.626 67.4066 131.288 64.5331 134.564 64.6406C137.83 64.7478 140.471 67.7803 140.471 71.414Z" fill="white"/>
<path d="M374.539 289.394L86.7329 309.309V297.757L374.539 279.264V289.394Z" fill="#D8DEE8"/>
<path d="M374.539 314.246L86.7329 337.648V326.096L374.539 304.115V314.246Z" fill="#D8DEE8"/>
<g opacity="0.3">
<path d="M267.22 196.33C233.213 135.99 173.168 156.688 134.388 88.2902C127.327 75.8367 122.524 63.1269 119.224 51.385L83.5897 49.9002C73.0991 49.4631 64.5254 59.3257 64.5254 71.9327V345.286C64.5254 357.893 73.0993 367.312 83.5897 366.331L310.078 345.165C303.616 333.948 297.635 321.299 292.561 307.038C272.997 252.054 287.502 232.316 267.22 196.33Z" fill="white"/>
</g>
<path d="M353.12 314.814C326.126 317.914 303.482 297.451 303.482 269.101C303.482 240.751 326.126 216.502 353.12 215.09C379.229 213.724 399.848 234.358 399.848 261.046C399.848 287.734 379.229 311.815 353.12 314.814Z" fill="url(#paint6_linear_1433_6105)"/>
<path d="M356.388 315.803C329.434 318.907 306.824 298.464 306.824 270.135C306.824 241.806 329.434 217.57 356.388 216.153C382.459 214.781 403.047 235.395 403.047 262.064C403.047 288.733 382.459 312.8 356.388 315.803Z" fill="url(#paint7_linear_1433_6105)"/>
<path d="M399.917 262.327C399.917 287.246 380.726 309.616 356.388 312.367C331.282 315.204 310.341 296.201 310.341 269.84C310.341 243.48 331.282 220.964 356.388 219.589C380.726 218.257 399.917 237.407 399.917 262.327Z" fill="white"/>
<mask id="mask9_1433_6105" style="mask-type:luminance" maskUnits="userSpaceOnUse" x="313" y="222" width="84" height="88">
<path d="M396.775 262.59C396.775 285.711 378.949 306.43 356.388 308.931C333.168 311.504 313.843 293.902 313.843 269.546C313.843 245.19 333.168 224.346 356.388 223.025C378.949 221.741 396.775 239.47 396.775 262.59Z" fill="white"/>
</mask>
<g mask="url(#mask9_1433_6105)">
<path d="M351 234.229C343.041 234.696 335.462 239.943 332.089 246.598C328.019 254.631 333.452 257.94 330.8 270.624C328.355 282.318 322.635 284.847 323.582 292.281C324.618 300.421 332.423 304.841 335.499 306.584C349.288 314.393 370.667 311.746 381.448 298.748C382.346 297.665 389.754 288.734 387.756 281.421C385.968 274.872 378.283 275.586 376.688 268.739C375.313 262.837 380.573 260.383 380.073 251.69C379.975 249.989 379.512 241.937 373.655 238.733C369.746 236.594 365.443 237.703 363.864 238.197C361.967 236.803 357.34 233.858 351 234.229Z" fill="url(#paint8_linear_1433_6105)"/>
<path d="M310.341 302.051C310.341 302.051 350.846 273.72 399.917 292.777C399.917 292.777 393.727 313.887 356.388 319.275C317.211 324.929 310.341 302.051 310.341 302.051Z" fill="url(#paint9_linear_1433_6105)"/>
<path d="M349.281 266.574L347.775 278.267C347.261 282.258 344.624 285.817 340.95 287.463L328.626 292.983C328.626 292.983 352.153 302.227 381.514 287.631L368.177 284.152C364.376 283.052 361.782 279.583 361.617 275.364L361.232 265.572L349.281 266.574Z" fill="url(#paint10_linear_1433_6105)"/>
<path d="M367.468 254.901C367.468 264.606 361.813 275.543 354.781 276.178C347.686 276.817 341.889 266.745 341.889 256.882C341.889 247.02 347.686 241.231 354.781 240.749C361.813 240.271 367.468 245.195 367.468 254.901Z" fill="url(#paint11_linear_1433_6105)"/>
<path d="M360.408 246.654C356.59 247.133 350.793 248.506 346.769 253.166C339.995 261.008 343.215 272.323 340.199 273.273C337.51 274.12 333.338 266.215 333.405 257.136C333.462 249.533 335.991 240.4 342.564 237.712C346.414 236.138 347.547 238.205 359.913 238.632C367.086 238.879 364.275 242.401 365.888 243.527C373.031 248.517 372.129 266.674 368.285 267.232C366.459 267.498 363.935 262.977 360.408 246.654Z" fill="url(#paint12_linear_1433_6105)"/>
</g>
<path d="M234.27 320.245C205.803 323.463 181.915 302.473 181.915 273.352C181.915 244.232 205.803 219.31 234.27 217.842C261.797 216.423 283.529 237.592 283.529 264.99C283.529 292.387 261.797 317.133 234.27 320.245Z" fill="url(#paint13_linear_1433_6105)"/>
<path d="M237.716 321.257C209.292 324.479 185.44 303.51 185.44 274.412C185.44 245.314 209.292 220.405 237.716 218.932C265.201 217.507 286.9 238.655 286.9 266.032C286.9 293.409 265.201 318.141 237.716 321.257Z" fill="url(#paint14_linear_1433_6105)"/>
<path d="M283.602 266.304C283.602 291.886 263.375 314.874 237.716 317.728C211.241 320.673 189.151 301.181 189.151 274.105C189.151 247.03 211.241 223.889 237.716 222.46C263.375 221.076 283.602 240.722 283.602 266.304Z" fill="white"/>
<mask id="mask10_1433_6105" style="mask-type:luminance" maskUnits="userSpaceOnUse" x="192" y="225" width="89" height="90">
<path d="M280.29 266.578C280.29 290.313 261.502 311.604 237.716 314.2C213.23 316.871 192.845 298.816 192.845 273.8C192.845 248.784 213.23 227.361 237.716 225.988C261.502 224.655 280.29 242.843 280.29 266.578Z" fill="white"/>
</mask>
<g mask="url(#mask10_1433_6105)">
<path d="M187.669 344.833C183.716 334.786 189.293 317.8 192.799 310.077C202.987 287.634 221.588 286.265 236.726 285.151C251.498 284.064 265.667 283.021 275.981 299.324C282.693 309.934 288.848 329.583 284.745 340.365C280.422 351.727 268.375 343.638 239.462 344.83C207.23 346.159 192.595 357.353 187.669 344.833Z" fill="url(#paint15_linear_1433_6105)"/>
<path d="M250.672 286.981C250.672 289.729 244.005 293.261 235.753 293.552C227.471 293.843 220.735 290.761 220.735 287.996C220.735 285.23 227.471 286.24 235.753 285.962C244.005 285.686 250.672 284.234 250.672 286.981Z" fill="url(#paint16_linear_1433_6105)"/>
<path d="M230.242 268.421C227.959 268.489 233.225 284.403 224.926 286.888C224.122 287.129 223.99 288.217 224.722 288.589C226.953 289.724 231.125 291.113 237.952 290.877C242.376 290.724 245.606 288.935 247.282 287.745C247.855 287.339 247.798 286.478 247.185 286.181C244.645 284.949 241.115 280.872 242.169 268.478L230.242 268.421Z" fill="url(#paint17_linear_1433_6105)"/>
<path d="M223.3 252.256C223.335 252.457 224.026 267.136 227.377 274.373C228.338 276.448 233.099 276.046 236.175 275.697C238.843 275.394 243.019 276.241 244.194 274.356C248.911 266.787 248.112 248.425 248.112 248.425C248.112 248.425 245.696 242.366 235.76 242.772C225.781 243.181 223.3 252.256 223.3 252.256Z" fill="url(#paint18_linear_1433_6105)"/>
<path d="M225.641 260.085C225.641 260.085 223.548 257.706 221.574 257.435C219.598 257.163 218.31 262.323 221.007 265.58C223.7 268.833 226.809 265.98 226.809 265.98L225.641 260.085Z" fill="url(#paint19_linear_1433_6105)"/>
<path d="M245.939 259.522C245.939 259.522 248.012 257.04 249.963 256.663C251.912 256.287 253.181 261.339 250.523 264.725C247.861 268.116 244.781 265.458 244.781 265.458L245.939 259.522Z" fill="url(#paint20_linear_1433_6105)"/>
<path d="M224.003 259.948C224.267 260.425 224.569 260.868 224.773 260.809C225.619 260.564 222.355 252.393 225.361 249.423C226.914 247.889 228.662 249.207 235.006 248.758C241.378 248.307 243.005 246.735 244.926 247.859C246.675 248.882 248.239 251.887 246.943 260.944C247.304 260.85 247.664 260.756 248.025 260.662C247.539 257.721 248.069 255.842 248.675 254.651C249.117 253.782 249.917 252.656 249.855 251.062C249.816 250.073 249.491 250.037 249.437 249.229C249.28 246.858 251.969 246.152 252.099 243.803C252.198 241.996 250.653 241.622 250.935 239.728C251.176 238.118 252.382 237.79 252.191 236.635C251.985 235.389 250.369 234.494 249.233 234.194C248.074 233.889 247.655 234.266 246.975 233.809C245.877 233.07 246.405 231.703 245.61 231.218C244.195 230.352 241.379 233.993 239.557 233.141C238.453 232.625 238.878 231.005 237.9 230.635C236.011 229.92 232.667 235.314 231.321 234.637C230.676 234.313 231.298 233.002 230.393 232.067C229.331 230.968 226.778 231.025 225.613 232.238C224.527 233.37 225.45 234.672 224.3 236.102C223.266 237.386 222.072 236.895 220.905 237.932C218.921 239.696 219.612 243.568 219.858 244.949C220.707 249.704 223.346 250.602 222.754 253.872C222.603 254.708 222.25 255.644 222.502 256.996C222.749 258.323 223.439 259.309 224.003 259.948Z" fill="url(#paint21_linear_1433_6105)"/>
<g opacity="0.3">
<path d="M248.236 249.025C248.004 246.697 249.799 245.567 249.497 243.91C249.255 242.579 247.753 241.412 246.342 241.189C243.327 240.712 241.374 245.229 238.37 244.818C236.044 244.5 236.302 241.671 233.674 240.597C229.504 238.894 225.124 244.494 222.341 243.037C221.504 242.599 220.657 241.442 220.597 238.249C218.998 240.124 219.625 243.645 219.858 244.949C220.707 249.703 223.347 250.602 222.754 253.871C222.603 254.708 222.25 255.643 222.502 256.996C222.749 258.323 223.44 259.309 224.003 259.948C224.267 260.425 224.569 260.868 224.773 260.809C225.619 260.565 222.355 252.393 225.361 249.423C226.914 247.89 228.662 249.207 235.006 248.758C241.378 248.307 243.005 246.735 244.926 247.859C246.675 248.882 248.239 251.887 246.943 260.944C247.304 260.85 247.664 260.756 248.025 260.662C247.539 257.721 248.069 255.842 248.675 254.651C248.858 254.293 249.1 253.89 249.318 253.43C249.272 252.654 249.141 251.805 248.866 250.915C248.544 249.871 248.31 249.773 248.236 249.025Z" fill="url(#paint22_linear_1433_6105)"/>
</g>
</g>
<path d="M233.918 167.703C200.916 169.006 173.182 142.161 173.182 107.819C173.182 73.4765 200.916 46.2583 233.918 47.1169C265.778 47.9458 290.895 74.8094 290.895 107.026C290.895 139.243 265.778 166.445 233.918 167.703Z" fill="url(#paint23_linear_1433_6105)"/>
<path d="M238.043 167.672C205.101 168.974 177.417 142.154 177.417 107.843C177.417 73.5319 205.101 46.3385 238.043 47.1955C269.845 48.023 294.918 74.8621 294.918 107.05C294.918 139.238 269.845 166.415 238.043 167.672Z" fill="url(#paint24_linear_1433_6105)"/>
<path d="M291.109 107.076C291.109 137.156 267.734 162.411 238.043 163.518C207.361 164.66 181.727 139.737 181.727 107.814C181.727 75.8905 207.361 50.6208 238.043 51.3499C267.734 52.0551 291.109 76.9954 291.109 107.076Z" fill="white"/>
<mask id="mask11_1433_6105" style="mask-type:luminance" maskUnits="userSpaceOnUse" x="186" y="55" width="102" height="105">
<path d="M287.283 107.102C287.283 135.013 265.568 158.4 238.043 159.363C209.669 160.356 186.017 137.276 186.017 107.785C186.017 78.2932 209.669 54.8943 238.043 55.5043C265.568 56.0961 287.283 79.1899 287.283 107.102Z" fill="white"/>
</mask>
<g mask="url(#mask11_1433_6105)">
<path d="M289.841 178.047C284.533 185.472 273.14 180.949 238.813 181.576C202.295 182.245 189.355 187.231 183.468 179.312C178.036 172.007 182.537 145.574 189.003 138.157C196.325 129.763 206.784 127.116 220.289 126.077C225.568 125.671 231.309 125.513 237.506 125.349C243.417 125.196 248.662 125.055 253.375 125.15C265.057 125.382 273.462 127.03 280.501 133.355C289.694 141.615 295.547 170.066 289.841 178.047Z" fill="url(#paint25_linear_1433_6105)"/>
<path d="M253.375 125.15C253.348 125.665 253.277 126.172 253.159 126.65C251.349 133.865 247.385 148.963 243.421 159.419C240.684 166.642 237.945 171.65 235.922 170.305C234.336 169.253 232.436 165.548 230.496 160.668C226.564 150.772 222.475 136.022 220.526 128.681C220.307 127.863 220.238 126.942 220.29 126.077C225.568 125.67 231.309 125.512 237.506 125.349C243.417 125.196 248.663 125.055 253.375 125.15Z" fill="#F9F9F9"/>
<path d="M228.526 108.708C228.526 108.708 230.866 125.604 227.629 127.212L236.832 137.277L246.116 125.386C246.116 125.386 242.611 122.722 243.534 108.791L228.526 108.708Z" fill="url(#paint26_linear_1433_6105)"/>
<path d="M233.251 133.669L240.116 133.414L237.961 139.634L234.428 139.639L233.251 133.669Z" fill="url(#paint27_linear_1433_6105)"/>
<path d="M243.421 159.667C240.684 166.89 237.945 171.774 235.921 170.429C234.336 169.377 232.436 165.858 230.496 160.978L234.428 139.638L237.962 139.634L243.421 159.667Z" fill="url(#paint28_linear_1433_6105)"/>
<path d="M250.506 96.3912C250.506 106.819 244.371 118.103 236.741 118.202C229.042 118.303 222.75 106.998 222.75 96.3999C222.75 85.8014 229.042 80.0623 236.741 80.133C244.371 80.203 250.506 85.963 250.506 96.3912Z" fill="url(#paint29_linear_1433_6105)"/>
<path d="M222.334 99.075C223.108 98.9493 223.88 98.8238 224.652 98.6985C224.298 97.8317 222.833 93.9912 224.652 90.6339C226.396 87.4149 230.497 85.8648 233.622 86.0943C237.167 86.3545 239.291 88.0337 241.066 86.7511C242.063 86.0307 242.385 84.7146 242.499 83.689C242.578 84.3461 242.756 85.3185 243.215 86.3943C244.533 89.4832 246.76 90.1332 247.971 92.1732C248.787 93.5459 249.317 95.8415 247.971 99.8839C248.643 99.8416 249.314 99.7992 249.985 99.7568C250.692 97.4878 251.541 94.2716 252.068 90.337C252.851 84.4968 253.39 80.4781 251.167 78.4976C250.723 78.1028 248.762 76.5341 244.059 77.9419C242.956 76.7547 240.629 74.5757 237.043 73.4458C235.801 73.0544 229.631 71.11 224.146 75.0776C220.407 77.7818 217.472 82.8805 218.416 87.128C218.915 89.3734 220.279 90.387 221.478 94.7257C221.985 96.5572 222.218 98.0974 222.334 99.075Z" fill="url(#paint30_linear_1433_6105)"/>
<path d="M248.598 100.244C248.598 100.244 249.48 95.6728 252.154 96.1253C254.821 96.5765 250.999 104.064 248.598 104.977V100.244Z" fill="url(#paint31_linear_1433_6105)"/>
<path d="M224.489 100.306C224.489 100.306 223.581 95.6699 220.815 96.1303C218.041 96.5922 222.013 104.204 224.489 105.106V100.306Z" fill="url(#paint32_linear_1433_6105)"/>
</g>
<path d="M114.92 326.271C84.9421 327.276 59.7778 303.869 59.7778 274.062C59.7778 244.256 84.9421 220.683 114.92 221.49C143.895 222.27 166.764 245.685 166.764 273.71C166.764 301.734 143.895 325.3 114.92 326.271Z" fill="url(#paint33_linear_1433_6105)"/>
<path d="M118.529 326.122C88.5976 327.125 63.4727 303.736 63.4727 273.953C63.4727 244.169 88.5976 220.616 118.529 221.422C147.46 222.202 170.293 245.6 170.293 273.602C170.293 301.605 147.46 325.152 118.529 326.122Z" fill="url(#paint34_linear_1433_6105)"/>
<path d="M166.823 273.614C166.823 299.781 145.538 321.663 118.529 322.512C90.6497 323.388 67.3818 301.653 67.3818 273.94C67.3818 246.227 90.6497 224.34 118.529 225.033C145.538 225.705 166.823 247.447 166.823 273.614Z" fill="white"/>
<mask id="mask12_1433_6105" style="mask-type:luminance" maskUnits="userSpaceOnUse" x="71" y="228" width="93" height="91">
<path d="M163.338 273.626C163.338 297.905 143.566 318.167 118.529 318.901C92.7457 319.658 71.2739 299.531 71.2739 273.927C71.2739 248.323 92.7457 228.056 118.529 228.643C143.566 229.214 163.338 249.347 163.338 273.626Z" fill="white"/>
</mask>
<g mask="url(#mask12_1433_6105)">
<path d="M81.3241 307.347C78.6033 299.782 88.8025 296.812 90.098 278.971C90.186 277.76 91.9084 253.41 95.7434 248.647C96.2527 248.014 96.8203 247.509 96.8203 247.509C98.7348 246.017 101.691 246.115 112.208 241.582C121.184 237.713 120.667 237.83 121.824 237.596C128.548 236.235 138.454 242.033 141.704 249.98C144.615 257.099 141.121 263.335 146.339 275.823L146.339 275.824C152.791 293.78 156.01 302.739 153.097 308.545C144.22 326.235 87.42 324.295 81.3241 307.347Z" fill="url(#paint35_linear_1433_6105)"/>
<path d="M67.3818 307.804C67.3818 307.804 112.377 281.439 166.823 305.589C166.823 305.589 159.959 327.238 118.529 329.77C75.0167 332.431 67.3818 307.804 67.3818 307.804Z" fill="url(#paint36_linear_1433_6105)"/>
<path d="M110.639 273.798L108.967 285.958C108.396 290.109 105.468 293.626 101.388 295.046L87.7002 299.809C87.7002 299.809 113.827 311.502 146.412 298.637L131.614 293.861C127.396 292.384 124.517 288.522 124.333 284.075L123.906 273.755L110.639 273.798Z" fill="url(#paint37_linear_1433_6105)"/>
<path d="M130.827 263.072C130.827 273.267 124.551 284.28 116.745 284.353C108.868 284.427 102.431 273.353 102.431 262.989C102.431 252.624 108.868 247.033 116.745 247.129C124.551 247.223 130.827 252.876 130.827 263.072Z" fill="url(#paint38_linear_1433_6105)"/>
<path d="M101.954 269.674C103.318 269.6 101.348 258.837 106.63 255.856C110.129 253.881 116.189 255.688 119.59 259.194C124.941 264.71 121.949 272.65 125.998 274.325C128.565 275.387 131.988 273.101 133.626 271.434C138.733 266.236 138.038 255.264 131.997 249.048C127.17 244.082 120.603 243.858 119.039 243.852C110.062 243.816 101.789 250.299 99.8885 257.998C98.4265 263.919 100.944 269.728 101.954 269.674Z" fill="url(#paint39_linear_1433_6105)"/>
</g>
<path d="M354.912 211.129C354.325 211.139 353.814 210.656 353.814 210.05V191.699L114.848 194.843V214.188C114.848 214.826 114.403 215.352 113.749 215.364C113.096 215.375 112.65 214.866 112.65 214.227V193.631C112.65 192.992 112.795 192.644 113.449 192.636L355.168 189.575C355.756 189.568 356.011 189.889 356.011 190.495V210.014C356.011 210.62 355.5 211.119 354.912 211.129Z" fill="url(#paint40_linear_1433_6105)"/>
<path d="M237.352 213.209C236.733 213.22 236.253 212.724 236.253 212.102V171.998C236.253 171.375 236.733 170.867 237.352 170.862C237.972 170.857 238.451 171.358 238.451 171.98V212.065C238.451 212.686 237.972 213.198 237.352 213.209Z" fill="url(#paint41_linear_1433_6105)"/>
<defs>
<linearGradient id="paint0_linear_1433_6105" x1="44.6435" y1="280.003" x2="247.353" y2="420.433" gradientUnits="userSpaceOnUse">
<stop offset="0.0036" stop-color="#E38DDD"/>
<stop offset="1" stop-color="#9571F6"/>
</linearGradient>
<linearGradient id="paint1_linear_1433_6105" x1="54.9704" y1="145.598" x2="171.519" y2="358.134" gradientUnits="userSpaceOnUse">
<stop offset="0.0036" stop-color="#E38DDD"/>
<stop offset="1" stop-color="#9571F6"/>
</linearGradient>
<linearGradient id="paint2_linear_1433_6105" x1="86.2344" y1="249.673" x2="244.887" y2="407.2" gradientUnits="userSpaceOnUse">
<stop stop-color="#FCB148"/>
<stop offset="0.0521" stop-color="#FDBA46"/>
<stop offset="0.1424" stop-color="#FFC244"/>
<stop offset="0.3183" stop-color="#FFC444"/>
<stop offset="0.4849" stop-color="#FDB946"/>
<stop offset="0.7754" stop-color="#F99C4D"/>
<stop offset="0.8658" stop-color="#F8924F"/>
<stop offset="1" stop-color="#F8924F"/>
</linearGradient>
<linearGradient id="paint3_linear_1433_6105" x1="411.072" y1="100.677" x2="303.261" y2="322.462" gradientUnits="userSpaceOnUse">
<stop offset="0.0036" stop-color="#E38DDD"/>
<stop offset="1" stop-color="#9571F6"/>
</linearGradient>
<linearGradient id="paint4_linear_1433_6105" x1="297.387" y1="-0.759079" x2="299.992" y2="241.623" gradientUnits="userSpaceOnUse">
<stop offset="0.0036" stop-color="#E38DDD"/>
<stop offset="1" stop-color="#9571F6"/>
</linearGradient>
<linearGradient id="paint5_linear_1433_6105" x1="344.704" y1="90.6392" x2="283.641" y2="305.712" gradientUnits="userSpaceOnUse">
<stop stop-color="#FCB148"/>
<stop offset="0.0521" stop-color="#FDBA46"/>
<stop offset="0.1424" stop-color="#FFC244"/>
<stop offset="0.3183" stop-color="#FFC444"/>
<stop offset="0.4849" stop-color="#FDB946"/>
<stop offset="0.7754" stop-color="#F99C4D"/>
<stop offset="0.8658" stop-color="#F8924F"/>
<stop offset="1" stop-color="#F8924F"/>
</linearGradient>
<linearGradient id="paint6_linear_1433_6105" x1="303.482" y1="265.075" x2="399.848" y2="265.075" gradientUnits="userSpaceOnUse">
<stop stop-color="#444B8C"/>
<stop offset="0.9964" stop-color="#26264F"/>
</linearGradient>
<linearGradient id="paint7_linear_1433_6105" x1="306.824" y1="266.101" x2="403.047" y2="266.101" gradientUnits="userSpaceOnUse">
<stop offset="0.0036" stop-color="#E38DDD"/>
<stop offset="1" stop-color="#9571F6"/>
</linearGradient>
<linearGradient id="paint8_linear_1433_6105" x1="371.167" y1="231.72" x2="357.345" y2="274.568" gradientUnits="userSpaceOnUse">
<stop stop-color="#AB316D"/>
<stop offset="1" stop-color="#792D3D"/>
</linearGradient>
<linearGradient id="paint9_linear_1433_6105" x1="310.341" y1="303.18" x2="399.917" y2="303.18" gradientUnits="userSpaceOnUse">
<stop stop-color="#FF9085"/>
<stop offset="1" stop-color="#FB6FBB"/>
</linearGradient>
<linearGradient id="paint10_linear_1433_6105" x1="354.964" y1="269.661" x2="355.144" y2="304.635" gradientUnits="userSpaceOnUse">
<stop offset="0.0036" stop-color="#F36F56"/>
<stop offset="1" stop-color="#FFC444"/>
</linearGradient>
<linearGradient id="paint11_linear_1433_6105" x1="360.011" y1="220.063" x2="352.04" y2="273.78" gradientUnits="userSpaceOnUse">
<stop offset="0.0036" stop-color="#F36F56"/>
<stop offset="1" stop-color="#FFC444"/>
</linearGradient>
<linearGradient id="paint12_linear_1433_6105" x1="361.519" y1="228.405" x2="347.192" y2="272.817" gradientUnits="userSpaceOnUse">
<stop stop-color="#AB316D"/>
<stop offset="1" stop-color="#792D3D"/>
</linearGradient>
<linearGradient id="paint13_linear_1433_6105" x1="181.915" y1="269.173" x2="283.529" y2="269.173" gradientUnits="userSpaceOnUse">
<stop stop-color="#444B8C"/>
<stop offset="0.9964" stop-color="#26264F"/>
</linearGradient>
<linearGradient id="paint14_linear_1433_6105" x1="185.44" y1="270.224" x2="286.9" y2="270.224" gradientUnits="userSpaceOnUse">
<stop offset="0.0036" stop-color="#E38DDD"/>
<stop offset="1" stop-color="#9571F6"/>
</linearGradient>
<linearGradient id="paint15_linear_1433_6105" x1="217.853" y1="336.394" x2="265.988" y2="304.304" gradientUnits="userSpaceOnUse">
<stop offset="0.0036" stop-color="#E38DDD"/>
<stop offset="1" stop-color="#9571F6"/>
</linearGradient>
<linearGradient id="paint16_linear_1433_6105" x1="235.822" y1="294.742" x2="235.44" y2="271.397" gradientUnits="userSpaceOnUse">
<stop stop-color="#AA80F9"/>
<stop offset="0.9964" stop-color="#6165D7"/>
</linearGradient>
<linearGradient id="paint17_linear_1433_6105" x1="236.021" y1="297.034" x2="235.895" y2="276.831" gradientUnits="userSpaceOnUse">
<stop stop-color="#AB316D"/>
<stop offset="1" stop-color="#792D3D"/>
</linearGradient>
<linearGradient id="paint18_linear_1433_6105" x1="234.319" y1="271" x2="237.653" y2="230.863" gradientUnits="userSpaceOnUse">
<stop stop-color="#AB316D"/>
<stop offset="1" stop-color="#792D3D"/>
</linearGradient>
<linearGradient id="paint19_linear_1433_6105" x1="222.573" y1="270.248" x2="225.875" y2="230.499" gradientUnits="userSpaceOnUse">
<stop stop-color="#AB316D"/>
<stop offset="1" stop-color="#792D3D"/>
</linearGradient>
<linearGradient id="paint20_linear_1433_6105" x1="247.686" y1="271.695" x2="251.019" y2="231.579" gradientUnits="userSpaceOnUse">
<stop stop-color="#AB316D"/>
<stop offset="1" stop-color="#792D3D"/>
</linearGradient>
<linearGradient id="paint21_linear_1433_6105" x1="233.414" y1="251.773" x2="242.329" y2="224.125" gradientUnits="userSpaceOnUse">
<stop stop-color="#311944"/>
<stop offset="1" stop-color="#6B3976"/>
</linearGradient>
<linearGradient id="paint22_linear_1433_6105" x1="233.439" y1="251.698" x2="242.416" y2="223.856" gradientUnits="userSpaceOnUse">
<stop stop-color="#311944"/>
<stop offset="1" stop-color="#6B3976"/>
</linearGradient>
<linearGradient id="paint23_linear_1433_6105" x1="173.182" y1="107.423" x2="290.895" y2="107.423" gradientUnits="userSpaceOnUse">
<stop stop-color="#444B8C"/>
<stop offset="0.9964" stop-color="#26264F"/>
</linearGradient>
<linearGradient id="paint24_linear_1433_6105" x1="177.418" y1="107.447" x2="294.918" y2="107.447" gradientUnits="userSpaceOnUse">
<stop stop-color="#FF9085"/>
<stop offset="1" stop-color="#FB6FBB"/>
</linearGradient>
<linearGradient id="paint25_linear_1433_6105" x1="280.043" y1="77.7534" x2="218.345" y2="199.202" gradientUnits="userSpaceOnUse">
<stop stop-color="#444B8C"/>
<stop offset="0.9964" stop-color="#3E4177"/>
</linearGradient>
<linearGradient id="paint26_linear_1433_6105" x1="233.829" y1="109.278" x2="241.308" y2="146.491" gradientUnits="userSpaceOnUse">
<stop stop-color="#FFC444"/>
<stop offset="0.9964" stop-color="#F36F56"/>
</linearGradient>
<linearGradient id="paint27_linear_1433_6105" x1="233.251" y1="136.526" x2="240.116" y2="136.526" gradientUnits="userSpaceOnUse">
<stop stop-color="#444B8C"/>
<stop offset="0.9964" stop-color="#3E4177"/>
</linearGradient>
<linearGradient id="paint28_linear_1433_6105" x1="230.496" y1="155.143" x2="243.421" y2="155.143" gradientUnits="userSpaceOnUse">
<stop stop-color="#444B8C"/>
<stop offset="0.9964" stop-color="#3E4177"/>
</linearGradient>
<linearGradient id="paint29_linear_1433_6105" x1="242.265" y1="61.7183" x2="233.153" y2="117.993" gradientUnits="userSpaceOnUse">
<stop offset="0.0036" stop-color="#F36F56"/>
<stop offset="1" stop-color="#FFC444"/>
</linearGradient>
<linearGradient id="paint30_linear_1433_6105" x1="237.467" y1="73.315" x2="233.016" y2="100.805" gradientUnits="userSpaceOnUse">
<stop stop-color="#444B8C"/>
<stop offset="0.9964" stop-color="#26264F"/>
</linearGradient>
<linearGradient id="paint31_linear_1433_6105" x1="256.443" y1="64.3517" x2="247.407" y2="120.15" gradientUnits="userSpaceOnUse">
<stop offset="0.0036" stop-color="#F36F56"/>
<stop offset="1" stop-color="#FFC444"/>
</linearGradient>
<linearGradient id="paint32_linear_1433_6105" x1="228.983" y1="59.1861" x2="219.794" y2="115.94" gradientUnits="userSpaceOnUse">
<stop offset="0.0036" stop-color="#F36F56"/>
<stop offset="1" stop-color="#FFC444"/>
</linearGradient>
<linearGradient id="paint33_linear_1433_6105" x1="59.7778" y1="273.886" x2="166.764" y2="273.886" gradientUnits="userSpaceOnUse">
<stop stop-color="#444B8C"/>
<stop offset="0.9964" stop-color="#26264F"/>
</linearGradient>
<linearGradient id="paint34_linear_1433_6105" x1="63.4727" y1="273.778" x2="170.293" y2="273.778" gradientUnits="userSpaceOnUse">
<stop offset="0.0036" stop-color="#E38DDD"/>
<stop offset="1" stop-color="#9571F6"/>
</linearGradient>
<linearGradient id="paint35_linear_1433_6105" x1="183.496" y1="166.616" x2="57.1343" y2="405.921" gradientUnits="userSpaceOnUse">
<stop stop-color="#AB316D"/>
<stop offset="1" stop-color="#792D3D"/>
</linearGradient>
<linearGradient id="paint36_linear_1433_6105" x1="117.155" y1="305.753" x2="112.364" y2="391.389" gradientUnits="userSpaceOnUse">
<stop stop-color="#444B8C"/>
<stop offset="0.9964" stop-color="#26264F"/>
</linearGradient>
<linearGradient id="paint37_linear_1433_6105" x1="116.946" y1="277.913" x2="117.131" y2="313.666" gradientUnits="userSpaceOnUse">
<stop offset="0.0036" stop-color="#F36F56"/>
<stop offset="1" stop-color="#FFC444"/>
</linearGradient>
<linearGradient id="paint38_linear_1433_6105" x1="122.178" y1="225.732" x2="113.867" y2="281.743" gradientUnits="userSpaceOnUse">
<stop offset="0.0036" stop-color="#F36F56"/>
<stop offset="1" stop-color="#FFC444"/>
</linearGradient>
<linearGradient id="paint39_linear_1433_6105" x1="142.703" y1="215.558" x2="94.4777" y2="306.887" gradientUnits="userSpaceOnUse">
<stop stop-color="#AB316D"/>
<stop offset="1" stop-color="#792D3D"/>
</linearGradient>
<linearGradient id="paint40_linear_1433_6105" x1="112.65" y1="202.47" x2="356.011" y2="202.47" gradientUnits="userSpaceOnUse">
<stop stop-color="#444B8C"/>
<stop offset="0.9964" stop-color="#26264F"/>
</linearGradient>
<linearGradient id="paint41_linear_1433_6105" x1="236.253" y1="192.036" x2="238.451" y2="192.036" gradientUnits="userSpaceOnUse">
<stop stop-color="#444B8C"/>
<stop offset="0.9964" stop-color="#26264F"/>
</linearGradient>
</defs>
</svg>
