<svg width="48" height="48" viewBox="0 0 48 48" fill="none" xmlns="http://www.w3.org/2000/svg">
<path d="M47.0244 17.3213C47.169 17.9522 47.2816 18.593 47.3594 19.2441H47.3604C47.4536 20.024 47.5 20.8276 47.5 21.6543C47.4999 26.7919 45.9021 31.2935 42.7051 35.1807C39.5054 39.0691 35.4438 41.4785 30.502 42.4199L29.1885 42.6709L30.3438 43.3438L35.0801 46.1035L34.3838 47.3125L25.9316 42.335L30.8193 33.8623L32.0146 34.5645L28.5303 40.5654L28.0195 41.4453L29.0273 41.3125C33.888 40.6732 37.9575 38.4891 41.2148 34.7744C44.4735 31.0581 46.1067 26.6923 46.1084 21.7002C46.1084 20.8325 46.0504 19.9783 45.9355 19.1387C45.851 18.5221 45.732 17.9162 45.5791 17.3213H47.0244ZM14.0244 19.002L12.8096 19.7383L9.46289 13.9004L8.97559 13.0508L8.57324 13.9443C8.02604 15.1599 7.62316 16.4244 7.36523 17.7373C7.10836 19.0449 6.9805 20.3707 6.98047 21.7139C6.98047 26.1596 8.29465 30.1223 10.9229 33.583C13.4154 36.865 16.5693 39.1434 20.375 40.4102L19.6504 41.6572C15.6184 40.2587 12.2812 37.7926 9.63086 34.2471C6.90475 30.6001 5.54004 26.413 5.54004 21.668C5.54006 20.4311 5.64184 19.2072 5.84473 17.9961C6.04665 16.7908 6.36853 15.6119 6.81152 14.459L7.32129 13.1328L6.09375 13.8477L1.33887 16.6152L0.673828 15.4111L9.13086 10.4756L14.0244 19.002ZM26.498 0.5C29.5504 0.5 32.4314 1.11871 35.1455 2.35449C37.8588 3.58991 40.2222 5.36748 42.2373 7.69238L43.1152 8.70508V1.61621H44.5098V11.4883L34.7344 11.4863V10.0703H42.3877L41.751 9.26172C39.8989 6.90866 37.6388 5.09393 34.9746 3.82324C32.3133 2.55403 29.5009 1.91767 26.5439 1.91602C23.9504 1.91602 21.5174 2.38696 19.25 3.33203C17.194 4.18872 15.3496 5.34656 13.7188 6.80469L12.9893 5.52344C14.7736 4.00015 16.774 2.79426 18.9932 1.90625H18.9941C21.3323 0.969744 23.8322 0.500057 26.498 0.5Z" fill="#191C1F" stroke="#191C1F"/>
<mask id="path-2-inside-1_4827_1350" fill="white">
<path d="M29.6 19.6C30.2365 19.6 30.847 19.7896 31.2971 20.1272C31.7471 20.4648 32 20.9226 32 21.4V26.2C32 26.6774 31.7471 27.1352 31.2971 27.4728C30.847 27.8104 30.2365 28 29.6 28H22.4C21.7635 28 21.153 27.8104 20.7029 27.4728C20.2529 27.1352 20 26.6774 20 26.2V21.4C20 20.9226 20.2529 20.4648 20.7029 20.1272C21.153 19.7896 21.7635 19.6 22.4 19.6V18.7C22.4 17.2 24 16 26 16C28 16 29.6 17.2 29.6 18.7V19.6ZM22.4 20.2C21.9757 20.2 21.5687 20.3264 21.2686 20.5515C20.9686 20.7765 20.8 21.0817 20.8 21.4V26.2C20.8 26.5183 20.9686 26.8235 21.2686 27.0485C21.5687 27.2736 21.9757 27.4 22.4 27.4H29.6C30.0243 27.4 30.4313 27.2736 30.7314 27.0485C31.0314 26.8235 31.2 26.5183 31.2 26.2V21.4C31.2 21.0817 31.0314 20.7765 30.7314 20.5515C30.4313 20.3264 30.0243 20.2 29.6 20.2H22.4ZM28.8 19.6V18.7C28.8 18.143 28.505 17.6089 27.9799 17.2151C27.4548 16.8212 26.7426 16.6 26 16.6C25.2574 16.6 24.5452 16.8212 24.0201 17.2151C23.495 17.6089 23.2 18.143 23.2 18.7V19.6H28.8ZM26 23.2C25.6817 23.2 25.3765 23.2948 25.1515 23.4636C24.9264 23.6324 24.8 23.8613 24.8 24.1C24.8 24.3387 24.9264 24.5676 25.1515 24.7364C25.3765 24.9052 25.6817 25 26 25C26.3183 25 26.6235 24.9052 26.8485 24.7364C27.0736 24.5676 27.2 24.3387 27.2 24.1C27.2 23.8613 27.0736 23.6324 26.8485 23.4636C26.6235 23.2948 26.3183 23.2 26 23.2ZM26 22.6C26.5304 22.6 27.0391 22.758 27.4142 23.0393C27.7893 23.3206 28 23.7022 28 24.1C28 24.4978 27.7893 24.8794 27.4142 25.1607C27.0391 25.442 26.5304 25.6 26 25.6C25.4696 25.6 24.9609 25.442 24.5858 25.1607C24.2107 24.8794 24 24.4978 24 24.1C24 23.7022 24.2107 23.3206 24.5858 23.0393C24.9609 22.758 25.4696 22.6 26 22.6Z"/>
</mask>
<path d="M29.6 19.6C30.2365 19.6 30.847 19.7896 31.2971 20.1272C31.7471 20.4648 32 20.9226 32 21.4V26.2C32 26.6774 31.7471 27.1352 31.2971 27.4728C30.847 27.8104 30.2365 28 29.6 28H22.4C21.7635 28 21.153 27.8104 20.7029 27.4728C20.2529 27.1352 20 26.6774 20 26.2V21.4C20 20.9226 20.2529 20.4648 20.7029 20.1272C21.153 19.7896 21.7635 19.6 22.4 19.6V18.7C22.4 17.2 24 16 26 16C28 16 29.6 17.2 29.6 18.7V19.6ZM22.4 20.2C21.9757 20.2 21.5687 20.3264 21.2686 20.5515C20.9686 20.7765 20.8 21.0817 20.8 21.4V26.2C20.8 26.5183 20.9686 26.8235 21.2686 27.0485C21.5687 27.2736 21.9757 27.4 22.4 27.4H29.6C30.0243 27.4 30.4313 27.2736 30.7314 27.0485C31.0314 26.8235 31.2 26.5183 31.2 26.2V21.4C31.2 21.0817 31.0314 20.7765 30.7314 20.5515C30.4313 20.3264 30.0243 20.2 29.6 20.2H22.4ZM28.8 19.6V18.7C28.8 18.143 28.505 17.6089 27.9799 17.2151C27.4548 16.8212 26.7426 16.6 26 16.6C25.2574 16.6 24.5452 16.8212 24.0201 17.2151C23.495 17.6089 23.2 18.143 23.2 18.7V19.6H28.8ZM26 23.2C25.6817 23.2 25.3765 23.2948 25.1515 23.4636C24.9264 23.6324 24.8 23.8613 24.8 24.1C24.8 24.3387 24.9264 24.5676 25.1515 24.7364C25.3765 24.9052 25.6817 25 26 25C26.3183 25 26.6235 24.9052 26.8485 24.7364C27.0736 24.5676 27.2 24.3387 27.2 24.1C27.2 23.8613 27.0736 23.6324 26.8485 23.4636C26.6235 23.2948 26.3183 23.2 26 23.2ZM26 22.6C26.5304 22.6 27.0391 22.758 27.4142 23.0393C27.7893 23.3206 28 23.7022 28 24.1C28 24.4978 27.7893 24.8794 27.4142 25.1607C27.0391 25.442 26.5304 25.6 26 25.6C25.4696 25.6 24.9609 25.442 24.5858 25.1607C24.2107 24.8794 24 24.4978 24 24.1C24 23.7022 24.2107 23.3206 24.5858 23.0393C24.9609 22.758 25.4696 22.6 26 22.6Z" fill="#191C1F"/>
<path d="M29.6 19.6H28.6V20.6H29.6V19.6ZM32 21.4H33H32ZM32 26.2H33H32ZM29.6 28V29V28ZM22.4 28V29V28ZM20 26.2H19H20ZM20 21.4H21H20ZM22.4 19.6V20.6L23.4 20.6V19.6H22.4ZM20.8 21.4H19.8H20.8ZM20.8 26.2H19.8H20.8ZM28.8 19.6V20.6H29.8V19.6H28.8ZM28.8 18.7H27.8H28.8ZM23.2 18.7H22.2H23.2ZM23.2 19.6H22.2V20.6H23.2V19.6ZM24.8 24.1H23.8H24.8ZM27.2 24.1H28.2H27.2ZM29.6 19.6V20.6C30.0499 20.6 30.4424 20.7363 30.6971 20.9272L31.2971 20.1272L31.8971 19.3272C31.2515 18.843 30.4231 18.6 29.6 18.6V19.6ZM31.2971 20.1272L30.6971 20.9272C30.9462 21.114 31 21.2959 31 21.4H32H33C33 20.5493 32.5481 19.8155 31.8971 19.3272L31.2971 20.1272ZM32 21.4H31V26.2H32H33V21.4H32ZM32 26.2H31C31 26.3041 30.9462 26.486 30.6971 26.6728L31.2971 27.4728L31.8971 28.2728C32.5481 27.7845 33 27.0507 33 26.2H32ZM31.2971 27.4728L30.6971 26.6728C30.4424 26.8637 30.0499 27 29.6 27V28V29C30.4231 29 31.2515 28.757 31.8971 28.2728L31.2971 27.4728ZM29.6 28V27H22.4V28V29H29.6V28ZM22.4 28V27C21.9501 27 21.5576 26.8637 21.3029 26.6728L20.7029 27.4728L20.1029 28.2728C20.7485 28.757 21.5769 29 22.4 29V28ZM20.7029 27.4728L21.3029 26.6728C21.0538 26.486 21 26.3041 21 26.2H20H19C19 27.0507 19.4519 27.7845 20.1029 28.2728L20.7029 27.4728ZM20 26.2H21V21.4H20H19V26.2H20ZM20 21.4H21C21 21.2959 21.0538 21.114 21.3029 20.9272L20.7029 20.1272L20.1029 19.3272C19.4519 19.8155 19 20.5493 19 21.4H20ZM20.7029 20.1272L21.3029 20.9272C21.5576 20.7363 21.9501 20.6 22.4 20.6V19.6V18.6C21.5769 18.6 20.7485 18.843 20.1029 19.3272L20.7029 20.1272ZM22.4 19.6H23.4V18.7H22.4H21.4V19.6H22.4ZM22.4 18.7H23.4C23.4 18.3317 23.593 17.9303 24.05 17.5875C24.5089 17.2433 25.1928 17 26 17V16V15C24.8072 15 23.6911 15.3567 22.85 15.9875C22.007 16.6197 21.4 17.5683 21.4 18.7H22.4ZM26 16V17C26.8072 17 27.4911 17.2433 27.95 17.5875C28.407 17.9303 28.6 18.3317 28.6 18.7H29.6H30.6C30.6 17.5683 29.993 16.6197 29.15 15.9875C28.3089 15.3567 27.1928 15 26 15V16ZM29.6 18.7H28.6V19.6H29.6H30.6V18.7H29.6ZM22.4 20.2V19.2C21.789 19.2 21.1642 19.3798 20.6686 19.7515L21.2686 20.5515L21.8686 21.3515C21.9732 21.273 22.1623 21.2 22.4 21.2V20.2ZM21.2686 20.5515L20.6686 19.7515C20.1676 20.1273 19.8 20.7085 19.8 21.4H20.8H21.8C21.8 21.421 21.7937 21.4304 21.7972 21.4242C21.8015 21.4164 21.8197 21.3882 21.8686 21.3515L21.2686 20.5515ZM20.8 21.4H19.8V26.2H20.8H21.8V21.4H20.8ZM20.8 26.2H19.8C19.8 26.8915 20.1676 27.4727 20.6686 27.8485L21.2686 27.0485L21.8686 26.2485C21.8197 26.2118 21.8015 26.1836 21.7972 26.1758C21.7937 26.1696 21.8 26.179 21.8 26.2H20.8ZM21.2686 27.0485L20.6686 27.8485C21.1642 28.2202 21.789 28.4 22.4 28.4V27.4V26.4C22.1623 26.4 21.9732 26.327 21.8686 26.2485L21.2686 27.0485ZM22.4 27.4V28.4H29.6V27.4V26.4H22.4V27.4ZM29.6 27.4V28.4C30.211 28.4 30.8358 28.2202 31.3314 27.8485L30.7314 27.0485L30.1314 26.2485C30.0268 26.327 29.8377 26.4 29.6 26.4V27.4ZM30.7314 27.0485L31.3314 27.8485C31.8324 27.4727 32.2 26.8915 32.2 26.2H31.2H30.2C30.2 26.179 30.2063 26.1696 30.2028 26.1758C30.1985 26.1836 30.1803 26.2118 30.1314 26.2485L30.7314 27.0485ZM31.2 26.2H32.2V21.4H31.2H30.2V26.2H31.2ZM31.2 21.4H32.2C32.2 20.7085 31.8324 20.1273 31.3314 19.7515L30.7314 20.5515L30.1314 21.3515C30.1803 21.3882 30.1985 21.4164 30.2028 21.4242C30.2063 21.4304 30.2 21.421 30.2 21.4H31.2ZM30.7314 20.5515L31.3314 19.7515C30.8358 19.3798 30.211 19.2 29.6 19.2V20.2V21.2C29.8377 21.2 30.0268 21.273 30.1314 21.3515L30.7314 20.5515ZM29.6 20.2V19.2H22.4V20.2V21.2H29.6V20.2ZM28.8 19.6H29.8V18.7H28.8H27.8V19.6H28.8ZM28.8 18.7H29.8C29.8 17.7698 29.306 16.9596 28.5799 16.4151L27.9799 17.2151L27.3799 18.0151C27.704 18.2582 27.8 18.5163 27.8 18.7H28.8ZM27.9799 17.2151L28.5799 16.4151C27.8593 15.8746 26.9292 15.6 26 15.6V16.6V17.6C26.556 17.6 27.0503 17.7679 27.3799 18.0151L27.9799 17.2151ZM26 16.6V15.6C25.0708 15.6 24.1407 15.8746 23.4201 16.4151L24.0201 17.2151L24.6201 18.0151C24.9497 17.7679 25.444 17.6 26 17.6V16.6ZM24.0201 17.2151L23.4201 16.4151C22.694 16.9596 22.2 17.7698 22.2 18.7H23.2H24.2C24.2 18.5163 24.296 18.2582 24.6201 18.0151L24.0201 17.2151ZM23.2 18.7H22.2V19.6H23.2H24.2V18.7H23.2ZM23.2 19.6V20.6H28.8V19.6V18.6H23.2V19.6ZM26 23.2V22.2C25.4951 22.2 24.972 22.3482 24.5515 22.6636L25.1515 23.4636L25.7515 24.2636C25.781 24.2414 25.8684 24.2 26 24.2V23.2ZM25.1515 23.4636L24.5515 22.6636C24.1254 22.9831 23.8 23.488 23.8 24.1H24.8H25.8C25.8 24.1608 25.7832 24.2092 25.7667 24.239C25.7511 24.2673 25.74 24.2722 25.7515 24.2636L25.1515 23.4636ZM24.8 24.1H23.8C23.8 24.712 24.1254 25.2169 24.5515 25.5364L25.1515 24.7364L25.7515 23.9364C25.74 23.9278 25.7511 23.9327 25.7667 23.961C25.7832 23.9908 25.8 24.0392 25.8 24.1H24.8ZM25.1515 24.7364L24.5515 25.5364C24.972 25.8518 25.4951 26 26 26V25V24C25.8684 24 25.781 23.9586 25.7515 23.9364L25.1515 24.7364ZM26 25V26C26.5049 26 27.028 25.8518 27.4485 25.5364L26.8485 24.7364L26.2485 23.9364C26.219 23.9586 26.1316 24 26 24V25ZM26.8485 24.7364L27.4485 25.5364C27.8746 25.2169 28.2 24.712 28.2 24.1H27.2H26.2C26.2 24.0392 26.2168 23.9908 26.2333 23.961C26.2489 23.9327 26.26 23.9278 26.2485 23.9364L26.8485 24.7364ZM27.2 24.1H28.2C28.2 23.488 27.8746 22.9831 27.4485 22.6636L26.8485 23.4636L26.2485 24.2636C26.26 24.2722 26.2489 24.2673 26.2333 24.239C26.2168 24.2092 26.2 24.1608 26.2 24.1H27.2ZM26.8485 23.4636L27.4485 22.6636C27.028 22.3482 26.5049 22.2 26 22.2V23.2V24.2C26.1316 24.2 26.219 24.2414 26.2485 24.2636L26.8485 23.4636ZM26 22.6V23.6C26.3438 23.6 26.6346 23.7046 26.8142 23.8393L27.4142 23.0393L28.0142 22.2393C27.4437 21.8114 26.717 21.6 26 21.6V22.6ZM27.4142 23.0393L26.8142 23.8393C26.9883 23.9699 27 24.0755 27 24.1H28H29C29 23.3289 28.5903 22.6714 28.0142 22.2393L27.4142 23.0393ZM28 24.1H27C27 24.1245 26.9883 24.2301 26.8142 24.3607L27.4142 25.1607L28.0142 25.9607C28.5903 25.5286 29 24.8711 29 24.1H28ZM27.4142 25.1607L26.8142 24.3607C26.6346 24.4954 26.3438 24.6 26 24.6V25.6V26.6C26.717 26.6 27.4437 26.3886 28.0142 25.9607L27.4142 25.1607ZM26 25.6V24.6C25.6562 24.6 25.3654 24.4954 25.1858 24.3607L24.5858 25.1607L23.9858 25.9607C24.5563 26.3886 25.283 26.6 26 26.6V25.6ZM24.5858 25.1607L25.1858 24.3607C25.0117 24.2301 25 24.1245 25 24.1H24H23C23 24.8711 23.4097 25.5286 23.9858 25.9607L24.5858 25.1607ZM24 24.1H25C25 24.0755 25.0117 23.9699 25.1858 23.8393L24.5858 23.0393L23.9858 22.2393C23.4097 22.6714 23 23.3289 23 24.1H24ZM24.5858 23.0393L25.1858 23.8393C25.3654 23.7046 25.6562 23.6 26 23.6V22.6V21.6C25.283 21.6 24.5563 21.8114 23.9858 22.2393L24.5858 23.0393Z" fill="#191C1F" mask="url(#path-2-inside-1_4827_1350)"/>
<path d="M26 34.0001C26 34.0001 35.9998 31.1429 35.9998 24L26 34.0001Z" fill="#191C1F"/>
<path d="M26 34.0001C26 34.0001 35.9998 31.1429 35.9998 24" stroke="#191C1F" stroke-linecap="round" stroke-linejoin="round"/>
<path d="M35.9998 24.0001V15.4286C35.9998 15.4286 32.6665 14 26 14" fill="#191C1F"/>
<path d="M35.9998 24.0001V15.4286C35.9998 15.4286 32.6665 14 26 14" stroke="#191C1F" stroke-linecap="round" stroke-linejoin="round"/>
<path d="M25.9998 34.0001C25.9998 34.0001 16 31.1429 16 24L25.9998 34.0001Z" fill="#191C1F"/>
<path d="M25.9998 34.0001C25.9998 34.0001 16 31.1429 16 24" stroke="#191C1F" stroke-linecap="round" stroke-linejoin="round"/>
<path d="M16 24.0001V15.4286C16 15.4286 19.3333 14 25.9998 14" fill="#191C1F"/>
<path d="M16 24.0001V15.4286C16 15.4286 19.3333 14 25.9998 14" stroke="#191C1F" stroke-linecap="round" stroke-linejoin="round"/>
</svg>
