<svg width="1320" height="320" viewBox="0 0 1320 320" fill="none" xmlns="http://www.w3.org/2000/svg">
<g clipPath="url(#clip0_2295_8408)">
<rect width="1320" height="320" rx="20" fill="url(#paint0_linear_2295_8408)"/>
<path d="M776.211 194.605L762.605 181L749 194.605L762.605 208.211L776.211 194.605Z" stroke="url(#paint1_linear_2295_8408)" strokeWidth="3" strokeMiterlimit="10" strokeLinecap="round" strokeLinejoin="round"/>
<path d="M640.211 151.605L626.605 138L613 151.605L626.605 165.211L640.211 151.605Z" stroke="url(#paint2_linear_2295_8408)" strokeWidth="3" strokeMiterlimit="10" strokeLinecap="round" strokeLinejoin="round"/>
<path d="M328.56 198.78C328.56 201.972 325.972 204.56 322.78 204.56C319.588 204.56 317 201.972 317 198.78C317 195.588 319.588 193 322.78 193C325.973 193 328.56 195.588 328.56 198.78Z" fill="url(#paint3_linear_2295_8408)"/>
<path d="M566.56 198.78C566.56 201.972 563.972 204.56 560.78 204.56C557.588 204.56 555 201.972 555 198.78C555 195.588 557.588 193 560.78 193C563.973 193 566.56 195.588 566.56 198.78Z" fill="url(#paint4_linear_2295_8408)"/>
<path d="M495.78 210.341C495.78 213.533 493.192 216.121 490 216.121C486.808 216.121 484.22 213.533 484.22 210.341C484.22 207.149 486.808 204.561 490 204.561C493.193 204.561 495.78 207.149 495.78 210.341Z" fill="url(#paint5_linear_2295_8408)"/>
<path d="M374.542 191.361C377.303 191.361 379.542 189.123 379.542 186.361C379.542 183.6 377.303 181.361 374.542 181.361C371.781 181.361 369.542 183.6 369.542 186.361C369.542 189.123 371.781 191.361 374.542 191.361Z" fill="url(#paint6_linear_2295_8408)"/>
<path d="M705.712 152.195C708.473 152.195 710.712 149.957 710.712 147.195C710.712 144.434 708.473 142.195 705.712 142.195C702.95 142.195 700.712 144.434 700.712 147.195C700.712 149.957 702.95 152.195 705.712 152.195Z" fill="url(#paint7_linear_2295_8408)"/>
<path d="M705.712 276.195C708.473 276.195 710.712 273.957 710.712 271.195C710.712 268.434 708.473 266.195 705.712 266.195C702.95 266.195 700.712 268.434 700.712 271.195C700.712 273.957 702.95 276.195 705.712 276.195Z" fill="url(#paint8_linear_2295_8408)"/>
<g filter="url(#filter0_f_2295_8408)">
<circle cx="1045" cy="216" r="471" fill="#8C34FC"/>
</g>
<path d="M1165.1 286.669C1163.32 286.754 1161.53 286.805 1159.73 286.805C1097.94 286.805 1047.66 236.529 1047.66 174.733C1047.66 112.936 1097.94 62.6618 1159.73 62.6618C1221.53 62.6618 1271.81 112.936 1271.81 174.733C1271.81 175.97 1271.75 177.194 1271.71 178.421H1305.42C1305.45 177.196 1305.47 175.966 1305.47 174.733C1305.47 94.3753 1240.09 29 1159.73 29C1079.38 29 1014 94.3767 1014 174.733C1014 255.092 1079.38 320.467 1159.73 320.467C1161.53 320.467 1163.32 320.423 1165.1 320.358V286.669Z" fill="url(#paint9_linear_2295_8408)"/>
<path d="M156.256 36.7343L400.083 34.9982C401.78 34.9868 403.186 35.7108 403.211 36.608C403.235 37.5051 401.863 38.249 400.166 38.2618L156.339 39.9979C154.642 40.0093 153.235 39.2853 153.211 38.3881C153.19 37.4909 154.559 36.7471 156.256 36.7343Z" fill="url(#paint10_linear_2295_8408)"/>
<path d="M694.045 284.736L937.872 283C939.569 282.989 940.976 283.713 941 284.61C941.024 285.507 939.652 286.251 937.955 286.264L694.128 288C692.431 288.011 691.024 287.287 691 286.39C690.979 285.493 692.348 284.749 694.045 284.736Z" fill="url(#paint11_linear_2295_8408)"/>
<path d="M1046.84 146.736L1194.11 145C1195.14 144.989 1195.99 145.713 1196 146.61C1196.01 147.507 1195.19 148.251 1194.16 148.264L1046.89 150C1045.86 150.011 1045.01 149.287 1045 148.39C1044.99 147.493 1045.81 146.749 1046.84 146.736Z" fill="url(#paint12_linear_2295_8408)"/>
<path d="M68.203 94.2347L54.5977 80.6294L40.9923 94.2347L54.5977 107.84L68.203 94.2347Z" stroke="url(#paint13_linear_2295_8408)" strokeWidth="3" strokeMiterlimit="10" strokeLinecap="round" strokeLinejoin="round"/>
<path d="M175.211 85.6053L161.605 72L148 85.6053L161.605 99.2106L175.211 85.6053Z" stroke="url(#paint14_linear_2295_8408)" strokeWidth="3" strokeMiterlimit="10" strokeLinecap="round" strokeLinejoin="round"/>
<path d="M1258.21 245.605L1244.61 232L1231 245.605L1244.61 259.211L1258.21 245.605Z" stroke="url(#paint15_linear_2295_8408)" strokeWidth="3" strokeMiterlimit="10" strokeLinecap="round" strokeLinejoin="round"/>
<path d="M1271.21 52.6053L1257.61 39L1244 52.6053L1257.61 66.2106L1271.21 52.6053Z" stroke="url(#paint16_linear_2295_8408)" strokeWidth="3" strokeMiterlimit="10" strokeLinecap="round" strokeLinejoin="round"/>
<path d="M103.5 288.06C103.5 291.252 100.912 293.84 97.7204 293.84C94.5284 293.84 91.9404 291.252 91.9404 288.06C91.9404 284.868 94.5284 282.28 97.7204 282.28C100.913 282.28 103.5 284.868 103.5 288.06Z" fill="url(#paint17_linear_2295_8408)"/>
<path d="M900.56 40.78C900.56 43.972 897.972 46.56 894.78 46.56C891.588 46.56 889 43.972 889 40.78C889 37.588 891.588 35 894.78 35C897.973 35 900.56 37.588 900.56 40.78Z" fill="url(#paint18_linear_2295_8408)"/>
<path d="M618.712 276.195C621.473 276.195 623.712 273.957 623.712 271.195C623.712 268.434 621.473 266.195 618.712 266.195C615.95 266.195 613.712 268.434 613.712 271.195C613.712 273.957 615.95 276.195 618.712 276.195Z" fill="url(#paint19_linear_2295_8408)"/>
<path d="M1107.97 144.793C1109.53 142.514 1108.95 139.402 1106.67 137.842C1104.39 136.282 1101.28 136.864 1099.72 139.142C1098.16 141.421 1098.74 144.532 1101.02 146.093C1103.3 147.653 1106.41 147.071 1107.97 144.793Z" fill="url(#paint20_linear_2295_8408)"/>
<path d="M1210.28 214.858C1211.84 212.579 1211.26 209.467 1208.98 207.907C1206.7 206.347 1203.59 206.929 1202.03 209.207C1200.47 211.486 1201.05 214.597 1203.33 216.158C1205.61 217.718 1208.72 217.136 1210.28 214.858Z" fill="url(#paint21_linear_2295_8408)"/>
</g>
<defs>
<filter id="filter0_f_2295_8408" x="74" y="-755" width="1942" height="1942" filterUnits="userSpaceOnUse" color-interpolation-filters="sRGB">
<feFlood flood-opacity="0" result="BackgroundImageFix"/>
<feBlend mode="normal" in="SourceGraphic" in2="BackgroundImageFix" result="shape"/>
<feGaussianBlur stdDeviation="250" result="effect1_foregroundBlur_2295_8408"/>
</filter>
<linearGradient id="paint0_linear_2295_8408" x1="-37.5643" y1="83.4512" x2="908.034" y2="891.362" gradientUnits="userSpaceOnUse">
<stop stopColor="#953AB3"/>
<stop offset="0.0707" stopColor="#842FAB"/>
<stop offset="0.2599" stopColor="#5D1699"/>
<stop offset="0.4103" stopColor="#44068E"/>
<stop offset="0.5021" stopColor="#3B008A"/>
<stop offset="0.59" stopColor="#3C0590"/>
<stop offset="0.7108" stopColor="#3F15A2"/>
<stop offset="0.8508" stopColor="#442EBF"/>
<stop offset="1" stopColor="#4B50E6"/>
</linearGradient>
<linearGradient id="paint1_linear_2295_8408" x1="762.606" y1="183.485" x2="762.606" y2="205.726" gradientUnits="userSpaceOnUse">
<stop stopColor="#D6A245"/>
<stop offset="0.117" stopColor="#D29442"/>
<stop offset="0.5055" stopColor="#C76C3B"/>
<stop offset="0.8132" stopColor="#C15336"/>
<stop offset="1" stopColor="#BE4A34"/>
</linearGradient>
<linearGradient id="paint2_linear_2295_8408" x1="626.606" y1="140.485" x2="626.606" y2="162.726" gradientUnits="userSpaceOnUse">
<stop stopColor="#D6A245"/>
<stop offset="0.117" stopColor="#D29442"/>
<stop offset="0.5055" stopColor="#C76C3B"/>
<stop offset="0.8132" stopColor="#C15336"/>
<stop offset="1" stopColor="#BE4A34"/>
</linearGradient>
<linearGradient id="paint3_linear_2295_8408" x1="317.001" y1="198.78" x2="328.561" y2="198.78" gradientUnits="userSpaceOnUse">
<stop stopColor="#D6A245"/>
<stop offset="0.117" stopColor="#D29442"/>
<stop offset="0.5055" stopColor="#C76C3B"/>
<stop offset="0.8132" stopColor="#C15336"/>
<stop offset="1" stopColor="#BE4A34"/>
</linearGradient>
<linearGradient id="paint4_linear_2295_8408" x1="555.001" y1="198.78" x2="566.561" y2="198.78" gradientUnits="userSpaceOnUse">
<stop stopColor="#D6A245"/>
<stop offset="0.117" stopColor="#D29442"/>
<stop offset="0.5055" stopColor="#C76C3B"/>
<stop offset="0.8132" stopColor="#C15336"/>
<stop offset="1" stopColor="#BE4A34"/>
</linearGradient>
<linearGradient id="paint5_linear_2295_8408" x1="484.221" y1="210.34" x2="495.78" y2="210.34" gradientUnits="userSpaceOnUse">
<stop stopColor="#D6A245"/>
<stop offset="0.117" stopColor="#D29442"/>
<stop offset="0.5055" stopColor="#C76C3B"/>
<stop offset="0.8132" stopColor="#C15336"/>
<stop offset="1" stopColor="#BE4A34"/>
</linearGradient>
<linearGradient id="paint6_linear_2295_8408" x1="369.542" y1="186.361" x2="379.542" y2="186.361" gradientUnits="userSpaceOnUse">
<stop stopColor="#D6A245"/>
<stop offset="0.117" stopColor="#D29442"/>
<stop offset="0.5055" stopColor="#C76C3B"/>
<stop offset="0.8132" stopColor="#C15336"/>
<stop offset="1" stopColor="#BE4A34"/>
</linearGradient>
<linearGradient id="paint7_linear_2295_8408" x1="700.712" y1="147.195" x2="710.712" y2="147.195" gradientUnits="userSpaceOnUse">
<stop stopColor="#D6A245"/>
<stop offset="0.117" stopColor="#D29442"/>
<stop offset="0.5055" stopColor="#C76C3B"/>
<stop offset="0.8132" stopColor="#C15336"/>
<stop offset="1" stopColor="#BE4A34"/>
</linearGradient>
<linearGradient id="paint8_linear_2295_8408" x1="700.712" y1="271.195" x2="710.712" y2="271.195" gradientUnits="userSpaceOnUse">
<stop stopColor="#D6A245"/>
<stop offset="0.117" stopColor="#D29442"/>
<stop offset="0.5055" stopColor="#C76C3B"/>
<stop offset="0.8132" stopColor="#C15336"/>
<stop offset="1" stopColor="#BE4A34"/>
</linearGradient>
<linearGradient id="paint9_linear_2295_8408" x1="1014" y1="174.733" x2="1305.47" y2="174.733" gradientUnits="userSpaceOnUse">
<stop stopColor="#DB35B3"/>
<stop offset="0.0748" stopColor="#BC2BAB"/>
<stop offset="0.2191" stopColor="#85189D"/>
<stop offset="0.3436" stopColor="#5D0B93"/>
<stop offset="0.4421" stopColor="#44038C"/>
<stop offset="0.5021" stopColor="#3B008A"/>
<stop offset="0.5731" stopColor="#3C068F"/>
<stop offset="0.6708" stopColor="#40189F"/>
<stop offset="0.784" stopColor="#4535B8"/>
<stop offset="0.9077" stopColor="#4D5DDC"/>
<stop offset="1" stopColor="#5480FA"/>
</linearGradient>
<linearGradient id="paint10_linear_2295_8408" x1="358.937" y1="51.7466" x2="335.592" y2="-21.0428" gradientUnits="userSpaceOnUse">
<stop stopColor="#D6A245"/>
<stop offset="0.117" stopColor="#D29442"/>
<stop offset="0.5055" stopColor="#C76C3B"/>
<stop offset="0.8132" stopColor="#C15336"/>
<stop offset="1" stopColor="#BE4A34"/>
</linearGradient>
<linearGradient id="paint11_linear_2295_8408" x1="896.726" y1="299.749" x2="873.381" y2="226.959" gradientUnits="userSpaceOnUse">
<stop stopColor="#D6A245"/>
<stop offset="0.117" stopColor="#D29442"/>
<stop offset="0.5055" stopColor="#C76C3B"/>
<stop offset="0.8132" stopColor="#C15336"/>
<stop offset="1" stopColor="#BE4A34"/>
</linearGradient>
<linearGradient id="paint12_linear_2295_8408" x1="1169.26" y1="161.749" x2="1136.01" y2="99.1278" gradientUnits="userSpaceOnUse">
<stop stopColor="#D6A245"/>
<stop offset="0.117" stopColor="#D29442"/>
<stop offset="0.5055" stopColor="#C76C3B"/>
<stop offset="0.8132" stopColor="#C15336"/>
<stop offset="1" stopColor="#BE4A34"/>
</linearGradient>
<linearGradient id="paint13_linear_2295_8408" x1="54.5977" y1="83.1145" x2="54.5977" y2="105.355" gradientUnits="userSpaceOnUse">
<stop stopColor="#D6A245"/>
<stop offset="0.117" stopColor="#D29442"/>
<stop offset="0.5055" stopColor="#C76C3B"/>
<stop offset="0.8132" stopColor="#C15336"/>
<stop offset="1" stopColor="#BE4A34"/>
</linearGradient>
<linearGradient id="paint14_linear_2295_8408" x1="161.606" y1="74.4851" x2="161.606" y2="96.7255" gradientUnits="userSpaceOnUse">
<stop stopColor="#D6A245"/>
<stop offset="0.117" stopColor="#D29442"/>
<stop offset="0.5055" stopColor="#C76C3B"/>
<stop offset="0.8132" stopColor="#C15336"/>
<stop offset="1" stopColor="#BE4A34"/>
</linearGradient>
<linearGradient id="paint15_linear_2295_8408" x1="1244.61" y1="234.485" x2="1244.61" y2="256.726" gradientUnits="userSpaceOnUse">
<stop stopColor="#D6A245"/>
<stop offset="0.117" stopColor="#D29442"/>
<stop offset="0.5055" stopColor="#C76C3B"/>
<stop offset="0.8132" stopColor="#C15336"/>
<stop offset="1" stopColor="#BE4A34"/>
</linearGradient>
<linearGradient id="paint16_linear_2295_8408" x1="1257.61" y1="41.4851" x2="1257.61" y2="63.7255" gradientUnits="userSpaceOnUse">
<stop stopColor="#D6A245"/>
<stop offset="0.117" stopColor="#D29442"/>
<stop offset="0.5055" stopColor="#C76C3B"/>
<stop offset="0.8132" stopColor="#C15336"/>
<stop offset="1" stopColor="#BE4A34"/>
</linearGradient>
<linearGradient id="paint17_linear_2295_8408" x1="91.9413" y1="288.06" x2="103.501" y2="288.06" gradientUnits="userSpaceOnUse">
<stop stopColor="#D6A245"/>
<stop offset="0.117" stopColor="#D29442"/>
<stop offset="0.5055" stopColor="#C76C3B"/>
<stop offset="0.8132" stopColor="#C15336"/>
<stop offset="1" stopColor="#BE4A34"/>
</linearGradient>
<linearGradient id="paint18_linear_2295_8408" x1="889.001" y1="40.7798" x2="900.561" y2="40.7798" gradientUnits="userSpaceOnUse">
<stop stopColor="#D6A245"/>
<stop offset="0.117" stopColor="#D29442"/>
<stop offset="0.5055" stopColor="#C76C3B"/>
<stop offset="0.8132" stopColor="#C15336"/>
<stop offset="1" stopColor="#BE4A34"/>
</linearGradient>
<linearGradient id="paint19_linear_2295_8408" x1="613.712" y1="271.195" x2="623.712" y2="271.195" gradientUnits="userSpaceOnUse">
<stop stopColor="#D6A245"/>
<stop offset="0.117" stopColor="#D29442"/>
<stop offset="0.5055" stopColor="#C76C3B"/>
<stop offset="0.8132" stopColor="#C15336"/>
<stop offset="1" stopColor="#BE4A34"/>
</linearGradient>
<linearGradient id="paint20_linear_2295_8408" x1="1101.02" y1="146.093" x2="1106.67" y2="137.842" gradientUnits="userSpaceOnUse">
<stop stopColor="#D6A245"/>
<stop offset="0.117" stopColor="#D29442"/>
<stop offset="0.5055" stopColor="#C76C3B"/>
<stop offset="0.8132" stopColor="#C15336"/>
<stop offset="1" stopColor="#BE4A34"/>
</linearGradient>
<linearGradient id="paint21_linear_2295_8408" x1="1203.33" y1="216.158" x2="1208.98" y2="207.907" gradientUnits="userSpaceOnUse">
<stop stopColor="#D6A245"/>
<stop offset="0.117" stopColor="#D29442"/>
<stop offset="0.5055" stopColor="#C76C3B"/>
<stop offset="0.8132" stopColor="#C15336"/>
<stop offset="1" stopColor="#BE4A34"/>
</linearGradient>
<clipPath id="clip0_2295_8408">
<rect width="1320" height="320" rx="20" fill="white"/>
</clipPath>
</defs>
</svg>
