<svg width="24" height="24" viewBox="0 0 24 24" fill="none" xmlns="http://www.w3.org/2000/svg">
<g clip-path="url(#clip0_3788_5912)">
<path fill-rule="evenodd" clip-rule="evenodd" d="M17.566 19.1953H2.92936C2.34904 19.1953 1.87695 18.6051 1.87695 17.8797V5.0086C1.87695 4.2832 2.34905 3.69308 2.92936 3.69308H17.566C18.1463 3.69308 18.6184 4.28322 18.6184 5.0086V11.8C18.6184 11.9523 18.5196 12.0758 18.3977 12.0758C18.2758 12.0758 18.177 11.9523 18.177 11.8V5.0086C18.177 4.58742 17.9029 4.24478 17.566 4.24478H2.92936C2.59241 4.24478 2.3183 4.58744 2.3183 5.0086V17.8798C2.3183 18.301 2.59243 18.6436 2.92936 18.6436L17.566 18.6436C17.678 18.6436 17.7877 18.6048 17.8834 18.5314C17.9873 18.4517 18.1231 18.4924 18.1869 18.6222C18.2506 18.7521 18.2181 18.9219 18.1142 19.0016C17.9492 19.1283 17.7596 19.1953 17.566 19.1953Z" fill="#050A14"/>
<path fill-rule="evenodd" clip-rule="evenodd" d="M18.3977 7.38705H2.09762C1.97573 7.38705 1.87695 7.26358 1.87695 7.11122C1.87695 6.95884 1.97573 6.83537 2.09762 6.83537H18.3977C18.5196 6.83537 18.6183 6.95884 18.6183 7.11122C18.6183 7.26358 18.5196 7.38705 18.3977 7.38705Z" fill="#050A14"/>
<path fill-rule="evenodd" clip-rule="evenodd" d="M8.30957 5.81007H3.54098C3.41909 5.81007 3.32031 5.68658 3.32031 5.53422C3.32031 5.38186 3.41909 5.25837 3.54098 5.25837H8.30957C8.43147 5.25837 8.53025 5.38186 8.53025 5.53422C8.53025 5.68658 8.43147 5.81007 8.30957 5.81007Z" fill="#050A14"/>
<path fill-rule="evenodd" clip-rule="evenodd" d="M14.2175 6.51223C13.7896 6.51223 13.4414 6.07707 13.4414 5.5421C13.4414 5.00714 13.7896 4.57198 14.2175 4.57198C14.6454 4.57198 14.9936 5.00714 14.9936 5.5421C14.9936 6.07707 14.6454 6.51223 14.2175 6.51223ZM14.2175 5.12366C14.0329 5.12366 13.8828 5.31137 13.8828 5.54209C13.8828 5.77282 14.0329 5.96053 14.2175 5.96053C14.4021 5.96053 14.5523 5.77282 14.5523 5.54209C14.5523 5.31137 14.4021 5.12366 14.2175 5.12366Z" fill="#050A14"/>
<path fill-rule="evenodd" clip-rule="evenodd" d="M16.3952 6.51223C15.9673 6.51223 15.6191 6.07707 15.6191 5.5421C15.6191 5.00714 15.9673 4.57198 16.3952 4.57198C16.8232 4.57198 17.1714 5.00714 17.1714 5.5421C17.1714 6.07707 16.8232 6.51223 16.3952 6.51223ZM16.3952 5.12366C16.2107 5.12366 16.0605 5.31137 16.0605 5.54209C16.0605 5.77282 16.2107 5.96053 16.3952 5.96053C16.5798 5.96053 16.73 5.77282 16.73 5.54209C16.73 5.31137 16.5798 5.12366 16.3952 5.12366Z" fill="#050A14"/>
<path fill-rule="evenodd" clip-rule="evenodd" d="M4.42778 16.4072H2.09762C1.97573 16.4072 1.87695 16.2837 1.87695 16.1313C1.87695 15.979 1.97573 15.8555 2.09762 15.8555H4.42778C4.54967 15.8555 4.64845 15.979 4.64845 16.1313C4.64845 16.2837 4.54965 16.4072 4.42778 16.4072Z" fill="#050A14"/>
<path fill-rule="evenodd" clip-rule="evenodd" d="M3.56616 15.1549H2.09762C1.97573 15.1549 1.87695 15.0314 1.87695 14.8791C1.87695 14.7267 1.97573 14.6032 2.09762 14.6032H3.56616C3.68806 14.6032 3.78684 14.7267 3.78684 14.8791C3.78684 15.0314 3.68803 15.1549 3.56616 15.1549Z" fill="#050A14"/>
<path fill-rule="evenodd" clip-rule="evenodd" d="M18.3965 11.4267H16.0664C15.9445 11.4267 15.8457 11.3032 15.8457 11.1508C15.8457 10.9985 15.9445 10.875 16.0664 10.875H18.3965C18.5184 10.875 18.6172 10.9985 18.6172 11.1508C18.6172 11.3032 18.5184 11.4267 18.3965 11.4267Z" fill="#050A14"/>
<path fill-rule="evenodd" clip-rule="evenodd" d="M18.3963 10.1745H16.9277C16.8058 10.1745 16.707 10.051 16.707 9.89861C16.707 9.74625 16.8058 9.62276 16.9277 9.62276H18.3963C18.5181 9.62276 18.6169 9.74625 18.6169 9.89861C18.6169 10.051 18.5181 10.1745 18.3963 10.1745Z" fill="#050A14"/>
<path fill-rule="evenodd" clip-rule="evenodd" d="M13.0102 13.5433C12.9343 13.5433 12.8604 13.4944 12.8194 13.4065C12.2871 12.2669 11.3015 11.5589 10.2472 11.5589C9.19287 11.5589 8.2072 12.2669 7.67493 13.4066C7.61345 13.5381 7.47835 13.5824 7.37312 13.5057C7.26784 13.4289 7.23237 13.2599 7.29382 13.1283C7.90486 11.82 9.03659 11.0072 10.2472 11.0072C11.4578 11.0072 12.5895 11.82 13.2006 13.1284C13.262 13.2599 13.2265 13.4289 13.1212 13.5056C13.0862 13.5312 13.0479 13.5433 13.0102 13.5433Z" fill="#050A14"/>
<path fill-rule="evenodd" clip-rule="evenodd" d="M7.7109 10.3445C7.65442 10.3445 7.59798 10.3175 7.55489 10.2636C7.46868 10.1559 7.46868 9.98123 7.55489 9.87349L8.78103 8.3408C8.86724 8.23312 9.00695 8.23312 9.09315 8.3408C9.17936 8.44857 9.17936 8.62319 9.09315 8.73095L7.867 10.2636C7.82389 10.3175 7.76739 10.3445 7.7109 10.3445Z" fill="#050A14"/>
<path fill-rule="evenodd" clip-rule="evenodd" d="M8.93704 10.3445C8.88055 10.3445 8.82413 10.3175 8.78102 10.2636L7.55489 8.73095C7.46868 8.62319 7.46868 8.44857 7.55489 8.3408C7.64109 8.23312 7.7808 8.23312 7.867 8.3408L9.09315 9.87349C9.17936 9.98123 9.17936 10.1559 9.09315 10.2636C9.04997 10.3175 8.99353 10.3445 8.93704 10.3445Z" fill="#050A14"/>
<path fill-rule="evenodd" clip-rule="evenodd" d="M11.5586 10.3445C11.5021 10.3445 11.4456 10.3176 11.4025 10.2637C11.3163 10.1559 11.3163 9.98127 11.4025 9.87353L12.6287 8.34084C12.7148 8.23316 12.8546 8.23308 12.9407 8.34084C13.0269 8.44861 13.0269 8.62323 12.9407 8.73099L11.7147 10.2637C11.6715 10.3176 11.6151 10.3445 11.5586 10.3445Z" fill="#050A14"/>
<path fill-rule="evenodd" clip-rule="evenodd" d="M12.7847 10.3445C12.7283 10.3445 12.6717 10.3176 12.6287 10.2637L11.4025 8.73101C11.3163 8.62325 11.3163 8.44863 11.4025 8.34086C11.4887 8.2331 11.6285 8.2331 11.7147 8.34086L12.9407 9.87355C13.0269 9.98129 13.0269 10.1559 12.9407 10.2637C12.8977 10.3176 12.8412 10.3445 12.7847 10.3445Z" fill="#050A14"/>
<path fill-rule="evenodd" clip-rule="evenodd" d="M6.18011 17.7734H5.78318C5.66129 17.7734 5.5625 17.6499 5.5625 17.4976V14.7686C5.5625 14.6163 5.66129 14.4928 5.78318 14.4928H6.18011C6.90369 14.4928 7.49234 15.2286 7.49234 16.1331C7.49234 17.0375 6.90369 17.7734 6.18011 17.7734ZM6.00386 17.2218H6.18011C6.66032 17.2218 7.05105 16.7334 7.05105 16.1331C7.05105 15.5329 6.66039 15.0445 6.18011 15.0445L6.00386 15.0446V17.2218Z" fill="#050A14"/>
<path fill-rule="evenodd" clip-rule="evenodd" d="M8.7055 17.7433H8.30857C8.18668 17.7433 8.08789 17.6198 8.08789 17.4674V14.7385C8.08789 14.5861 8.18668 14.4627 8.30857 14.4627H8.7055C9.42909 14.4627 10.0177 15.1985 10.0177 16.1029C10.0177 17.0074 9.42909 17.7433 8.7055 17.7433ZM8.52925 17.1917H8.7055C9.18571 17.1917 9.57644 16.7032 9.57644 16.103C9.57644 15.5027 9.18578 15.0144 8.7055 15.0144L8.52925 15.0144V17.1917Z" fill="#050A14"/>
<path fill-rule="evenodd" clip-rule="evenodd" d="M11.5828 17.712C10.8683 17.712 10.2871 16.9854 10.2871 16.0923C10.2871 15.1993 10.8683 14.4727 11.5828 14.4727C12.2973 14.4727 12.8785 15.1993 12.8785 16.0923C12.8785 16.9854 12.2973 17.712 11.5828 17.712ZM11.5828 15.0244C11.1117 15.0244 10.7284 15.5035 10.7284 16.0923C10.7284 16.6812 11.1116 17.1603 11.5828 17.1603C12.0539 17.1603 12.4372 16.6812 12.4372 16.0923C12.4372 15.5035 12.0539 15.0244 11.5828 15.0244Z" fill="#050A14"/>
<path fill-rule="evenodd" clip-rule="evenodd" d="M14.1074 17.6887C13.654 17.6887 13.2852 17.2277 13.2852 16.661C13.2852 16.5086 13.3839 16.3851 13.5058 16.3851C13.6277 16.3851 13.7265 16.5086 13.7265 16.661C13.7265 16.9235 13.8974 17.137 14.1074 17.137C14.3173 17.137 14.4882 16.9235 14.4882 16.661C14.4882 16.3985 14.3173 16.1849 14.1074 16.1849C13.654 16.1849 13.2852 15.724 13.2852 15.1573C13.2852 14.5906 13.654 14.1295 14.1074 14.1295C14.5607 14.1295 14.9295 14.5906 14.9295 15.1573C14.9295 15.3096 14.8308 15.4331 14.7089 15.4331C14.587 15.4331 14.4882 15.3096 14.4882 15.1573C14.4882 14.8948 14.3173 14.6812 14.1074 14.6812C13.8974 14.6812 13.7265 14.8948 13.7265 15.1573C13.7265 15.4196 13.8974 15.6332 14.1074 15.6332C14.5607 15.6332 14.9295 16.0943 14.9295 16.661C14.9295 17.2277 14.5607 17.6887 14.1074 17.6887Z" fill="#050A14"/>
<path fill-rule="evenodd" clip-rule="evenodd" d="M18.8273 19.1952C18.289 19.1952 17.7565 19.0163 17.2877 18.6779C15.8148 17.6149 15.3083 15.2522 16.1587 13.4111C16.7081 12.2216 17.7327 11.4827 18.8327 11.4827C19.371 11.4827 19.9035 11.6615 20.3722 11.9998C21.0857 12.5147 21.5962 13.3461 21.8094 14.341C22.0226 15.3358 21.9132 16.3748 21.5012 17.2667C20.9519 18.4562 19.9272 19.1952 18.8273 19.1952ZM18.8327 12.0344C17.8899 12.0344 17.0117 12.6675 16.5409 13.6869C15.8122 15.2646 16.2463 17.2892 17.5084 18.2002C17.9102 18.4901 18.3663 18.6434 18.8273 18.6434C19.7701 18.6434 20.6483 18.0103 21.1191 16.9909C21.4721 16.2266 21.5658 15.3363 21.3831 14.4838C21.2004 13.6314 20.7631 12.9189 20.1516 12.4776C19.7498 12.1877 19.2937 12.0344 18.8327 12.0344Z" fill="#050A14"/>
<path fill-rule="evenodd" clip-rule="evenodd" d="M20.9854 13.2545C20.948 13.2545 20.91 13.2426 20.8753 13.2174C20.7698 13.1412 20.7336 12.9726 20.7946 12.8407L21.0961 12.1881C21.1351 12.1036 21.1109 11.991 21.0433 11.9422L20.07 11.2399C20.037 11.216 19.9982 11.2098 19.961 11.2224C19.9235 11.2349 19.8924 11.2645 19.8734 11.3057L19.5719 11.9583C19.511 12.0903 19.376 12.1355 19.2705 12.0593C19.165 11.983 19.1288 11.8144 19.1898 11.6825L19.4913 11.0298C19.5692 10.861 19.6955 10.7401 19.8468 10.6894C19.9981 10.6387 20.1558 10.6645 20.2909 10.762L21.2642 11.4643C21.5436 11.666 21.6396 12.1143 21.4784 12.4637L21.1769 13.1164C21.1359 13.2051 21.0617 13.2545 20.9854 13.2545Z" fill="#050A14"/>
<path fill-rule="evenodd" clip-rule="evenodd" d="M20.6702 11.6338C20.6594 11.6338 20.6483 11.6327 20.6373 11.6307C20.5167 11.6082 20.4336 11.4678 20.4517 11.3172C20.5112 10.8194 20.8917 9.8377 21.9058 9.685C22.0263 9.66698 22.1367 9.77464 22.1512 9.92584C22.1658 10.0771 22.0795 10.2145 21.9585 10.2327C21.0213 10.3738 20.8894 11.3884 20.8882 11.3987C20.8717 11.5355 20.7776 11.6338 20.6702 11.6338Z" fill="#050A14"/>
<path fill-rule="evenodd" clip-rule="evenodd" d="M22.2341 9.57981C22.1967 9.57981 22.1588 9.56789 22.124 9.54275C22.0185 9.46658 21.9823 9.29785 22.0433 9.16597L22.1978 8.83166C22.2587 8.6997 22.3936 8.65437 22.4992 8.73074C22.6048 8.8069 22.6409 8.97563 22.5799 9.10751L22.4255 9.44182C22.3846 9.5303 22.3104 9.57981 22.2341 9.57981Z" fill="#050A14"/>
<path fill-rule="evenodd" clip-rule="evenodd" d="M22.842 10.2347H22.5332C22.4113 10.2347 22.3125 10.1112 22.3125 9.95886C22.3125 9.8065 22.4113 9.68303 22.5332 9.68303H22.842C22.9639 9.68303 23.0627 9.8065 23.0627 9.95886C23.0627 10.1112 22.9639 10.2347 22.842 10.2347Z" fill="#050A14"/>
<path fill-rule="evenodd" clip-rule="evenodd" d="M22.3891 11.2171C22.3128 11.2171 22.2386 11.1676 22.1978 11.0791L22.0433 10.7448C21.9823 10.6129 22.0185 10.4441 22.124 10.368C22.2296 10.2916 22.3645 10.3371 22.4254 10.4689L22.5799 10.8032C22.6409 10.9351 22.6047 11.1039 22.4992 11.18C22.4644 11.2052 22.4265 11.2171 22.3891 11.2171Z" fill="#050A14"/>
<path fill-rule="evenodd" clip-rule="evenodd" d="M21.6293 9.57984C21.5531 9.57984 21.4789 9.53033 21.438 9.44183L21.2835 9.1075C21.2226 8.9756 21.2587 8.80687 21.3643 8.73075C21.4698 8.65436 21.6048 8.69971 21.6657 8.83165L21.8202 9.16598C21.8811 9.29788 21.845 9.46661 21.7394 9.54275C21.7047 9.56792 21.6667 9.57984 21.6293 9.57984Z" fill="#050A14"/>
</g>
<defs>
<clipPath id="clip0_3788_5912">
<rect width="24" height="24" fill="white"/>
</clipPath>
</defs>
</svg>
