<svg width="500" height="500" viewBox="0 0 500 500" fill="none" xmlns="http://www.w3.org/2000/svg">
<mask id="mask0_173_22357" style="mask-type:luminance" maskUnits="userSpaceOnUse" x="0" y="0" width="500" height="500">
<path d="M500 0L0 0L0 500H500V0Z" fill="white"/>
</mask>
<g mask="url(#mask0_173_22357)">
<path d="M63.1025 414.931C64.3261 407.392 59.2064 400.288 51.6674 399.065C44.1283 397.841 37.0249 402.961 35.8013 410.5C34.5778 418.039 39.6975 425.142 47.2366 426.366C54.7756 427.589 61.879 422.47 63.1025 414.931Z" fill="#271021"/>
<path d="M38.9864 411.1C46.925 407.811 50.6949 398.711 47.4068 390.773C44.1187 382.835 35.0177 379.065 27.0791 382.354C19.1406 385.642 15.3706 394.743 18.6587 402.681C21.9469 410.619 31.0479 414.388 38.9864 411.1Z" fill="#271021"/>
<path d="M23.7377 402.248C25.3499 390.424 17.0717 379.531 5.24769 377.919C-6.57629 376.307 -17.4685 384.585 -19.0808 396.409C-20.693 408.233 -12.4148 419.125 -0.590791 420.738C11.2332 422.35 22.1254 414.072 23.7377 402.248Z" fill="#271021"/>
<path d="M20.9245 378.569C20.9245 379.762 19.9575 380.73 18.7635 380.73C17.5705 380.73 16.6025 379.763 16.6025 378.569C16.6025 377.376 17.5695 376.408 18.7635 376.408C19.9575 376.409 20.9245 377.376 20.9245 378.569Z" fill="#271021"/>
<path d="M69.3253 472.346C80.3042 472.346 89.2043 463.446 89.2043 452.467C89.2043 441.488 80.3042 432.588 69.3253 432.588C58.3464 432.588 49.4463 441.488 49.4463 452.467C49.4463 463.446 58.3464 472.346 69.3253 472.346Z" fill="#271021"/>
<path d="M84.8664 487.889C88.9169 483.838 88.9169 477.271 84.8664 473.221C80.8159 469.17 74.2488 469.17 70.1983 473.221C66.1478 477.271 66.1478 483.838 70.1983 487.889C74.2488 491.939 80.8159 491.939 84.8664 487.889Z" fill="#271021"/>
<path d="M106.125 501.129C113.678 494.18 114.167 482.424 107.218 474.871C100.269 467.319 88.513 466.83 80.9604 473.779C73.4078 480.728 72.9186 492.484 79.8677 500.037C86.8169 507.589 98.5729 508.078 106.125 501.129Z" fill="#271021"/>
<path d="M114.701 528.958C126.157 528.958 135.444 519.671 135.444 508.215C135.444 496.759 126.157 487.472 114.701 487.472C103.245 487.472 93.958 496.759 93.958 508.215C93.958 519.671 103.245 528.958 114.701 528.958Z" fill="#271021"/>
<path d="M147.276 513.009C148.487 507.9 145.328 502.777 140.219 501.566C135.11 500.354 129.987 503.514 128.775 508.623C127.564 513.732 130.724 518.855 135.832 520.066C140.941 521.278 146.065 518.118 147.276 513.009Z" fill="#271021"/>
<path d="M122.48 480.125C122.48 481.796 121.126 483.15 119.455 483.15C117.784 483.15 116.43 481.796 116.43 480.125C116.43 478.454 117.784 477.1 119.455 477.1C121.126 477.1 122.48 478.454 122.48 480.125Z" fill="#271021"/>
<path d="M50.913 420.132C50.913 424.123 47.677 427.359 43.686 427.359C39.695 427.359 36.459 424.123 36.459 420.132C36.459 416.141 39.695 412.905 43.686 412.905C47.677 412.905 50.913 416.141 50.913 420.132Z" fill="#7B0A52"/>
<path d="M41.5086 417.141C43.837 407.28 37.7308 397.399 27.8701 395.071C18.0095 392.742 8.12828 398.848 5.7999 408.709C3.47151 418.57 9.57765 428.451 19.4383 430.779C29.299 433.108 39.1802 427.002 41.5086 417.141Z" fill="#7B0A52"/>
<path d="M5.51754 424.666C8.63211 420.867 8.07734 415.263 4.27845 412.148C0.479557 409.033 -5.1249 409.588 -8.23948 413.387C-11.354 417.186 -10.7993 422.79 -7.00041 425.905C-3.20152 429.02 2.40297 428.465 5.51754 424.666Z" fill="#7B0A52"/>
<path d="M-12.312 423.146C-4.20004 423.146 2.376 416.57 2.376 408.458C2.376 400.346 -4.20004 393.77 -12.312 393.77C-20.424 393.77 -27 400.346 -27 408.458C-27 416.57 -20.424 423.146 -12.312 423.146Z" fill="#7B0A52"/>
<path d="M68.9799 476.559C75.2758 470.263 75.2758 460.055 68.9799 453.759C62.6839 447.463 52.4761 447.463 46.1801 453.759C39.8842 460.055 39.8842 470.263 46.1801 476.559C52.4761 482.855 62.6839 482.855 68.9799 476.559Z" fill="#7B0A52"/>
<path d="M62.5874 494.627C68.4212 494.627 73.1504 489.898 73.1504 484.064C73.1504 478.23 68.4212 473.501 62.5874 473.501C56.7536 473.501 52.0244 478.23 52.0244 484.064C52.0244 489.898 56.7536 494.627 62.5874 494.627Z" fill="#7B0A52"/>
<path d="M103.505 510.827C105.079 501.129 98.493 491.99 88.7946 490.416C79.0962 488.842 69.9581 495.429 68.3841 505.127C66.8101 514.825 73.3963 523.963 83.0947 525.537C92.7931 527.111 101.931 520.525 103.505 510.827Z" fill="#7B0A52"/>
<path d="M75.6571 496.268C76.8566 491.188 73.711 486.098 68.6313 484.898C63.5515 483.699 58.4612 486.845 57.2617 491.924C56.0622 497.004 59.2078 502.094 64.2876 503.294C69.3673 504.493 74.4576 501.348 75.6571 496.268Z" fill="#7B0A52"/>
<path d="M98.1671 482.396C98.1671 484.238 96.6741 485.732 94.8311 485.732C92.9891 485.732 91.4951 484.239 91.4951 482.396C91.4951 480.554 92.9881 479.061 94.8311 479.061C96.6731 479.061 98.1671 480.554 98.1671 482.396Z" fill="#7B0A52"/>
<path d="M80.9331 461.271C80.9331 462.806 79.689 464.051 78.153 464.051C76.618 464.051 75.373 462.806 75.373 461.271C75.373 459.736 76.617 458.491 78.153 458.491C79.689 458.491 80.9331 459.736 80.9331 461.271Z" fill="#7B0A52"/>
<path d="M42.574 391.224C42.574 392.452 41.578 393.448 40.35 393.448C39.122 393.448 38.126 392.452 38.126 391.224C38.126 389.996 39.122 389 40.35 389C41.579 389 42.574 389.996 42.574 391.224Z" fill="#7B0A52"/>
<path d="M24.4883 457.64C36.7915 452.544 42.634 438.439 37.5377 426.135C32.4414 413.832 18.3362 407.99 6.03294 413.086C-6.27035 418.182 -12.1128 432.287 -7.01648 444.591C-1.92018 456.894 12.185 462.736 24.4883 457.64Z" fill="#F2396B"/>
<path d="M-11.8293 432.027C-4.20553 427.71 -1.52449 418.031 -5.84098 410.407C-10.1575 402.783 -19.8369 400.102 -27.4607 404.419C-35.0844 408.735 -37.7654 418.415 -33.4489 426.038C-29.1325 433.662 -19.453 436.343 -11.8293 432.027Z" fill="#F2396B"/>
<path d="M51.3094 439.572C57.5042 433.377 57.5042 423.334 51.3094 417.139C45.1145 410.944 35.0707 410.944 28.8759 417.139C22.6811 423.334 22.6811 433.377 28.8759 439.572C35.0707 445.767 45.1145 445.767 51.3094 439.572Z" fill="#F2396B"/>
<path d="M5.67086 510.447L-16.7441 485.041L179.836 289L203.77 313.849L5.67086 510.447Z" fill="#F2396B"/>
<path d="M60.5093 474.412C62.4419 466.227 57.3736 458.026 49.1888 456.093C41.004 454.16 32.8022 459.229 30.8695 467.414C28.9368 475.598 34.0052 483.8 42.19 485.733C50.3748 487.665 58.5766 482.597 60.5093 474.412Z" fill="#F2396B"/>
<path d="M68.0484 494.814C70.3851 484.918 64.2573 475.002 54.3617 472.665C44.4661 470.329 34.5499 476.456 32.2133 486.352C29.8766 496.248 36.0044 506.164 45.9 508.5C55.7956 510.837 65.7118 504.709 68.0484 494.814Z" fill="#F2396B"/>
<path d="M79.6291 490.409C81.3815 490.409 82.8021 488.988 82.8021 487.236C82.8021 485.483 81.3815 484.062 79.6291 484.062C77.8767 484.062 76.4561 485.483 76.4561 487.236C76.4561 488.988 77.8767 490.409 79.6291 490.409Z" fill="#F2396B"/>
<path d="M25.7482 406.095C27.5006 406.095 28.9212 404.674 28.9212 402.922C28.9212 401.17 27.5006 399.749 25.7482 399.749C23.9958 399.749 22.5752 401.17 22.5752 402.922C22.5752 404.674 23.9958 406.095 25.7482 406.095Z" fill="#F2396B"/>
<path d="M78.4367 523.625C86.5258 520.274 90.367 511 87.0164 502.911C83.6657 494.822 74.3919 490.981 66.3028 494.331C58.2137 497.682 54.3725 506.956 57.7232 515.045C61.0739 523.134 70.3476 526.975 78.4367 523.625Z" fill="#F2396B"/>
<path d="M19.3142 458.972C19.747 443.008 7.15648 429.716 -8.80755 429.283C-24.7716 428.851 -38.0638 441.441 -38.4966 457.405C-38.9294 473.369 -26.3389 486.661 -10.3748 487.094C5.58918 487.527 18.8814 474.936 19.3142 458.972Z" fill="#EC6408"/>
<path d="M34.9168 515.63C47.4098 512.344 54.8732 499.552 51.5869 487.059C48.3005 474.567 35.5089 467.103 23.016 470.389C10.523 473.676 3.0596 486.467 6.34592 498.96C9.63224 511.453 22.4239 518.917 34.9168 515.63Z" fill="#EC6408"/>
<path d="M4.28769 511.231L-15.6123 488.481L181.499 293L202.87 315.143L4.28769 511.231Z" fill="#EC6408"/>
<path d="M-0.599641 506.072L-12.3066 493.712L186.385 298.16L198.092 310.519L-0.599641 506.072Z" fill="#FFCC00"/>
<path d="M6.59536 491.326C12.1868 485.458 11.9634 476.169 6.0964 470.578C0.229347 464.987 -9.05962 465.21 -14.6511 471.077C-20.2426 476.944 -20.0192 486.233 -14.1522 491.824C-8.28512 497.416 1.00387 497.193 6.59536 491.326Z" fill="#FFCC00"/>
<path d="M25.933 510.918C19.567 516.948 9.51698 516.676 3.48599 510.309C-2.54401 503.943 -2.27201 493.893 4.09499 487.862C10.461 481.832 20.511 482.104 26.542 488.471C32.572 494.838 32.299 504.888 25.933 510.918Z" fill="#FFCC00"/>
<path d="M30.3377 551.344C41.9771 544.089 45.5307 528.771 38.275 517.132C31.0192 505.492 15.7017 501.939 4.06228 509.194C-7.57711 516.45 -11.1307 531.768 -3.87497 543.407C3.38079 555.046 18.6983 558.6 30.3377 551.344Z" fill="#FFCC00"/>
<path d="M13.9862 517.434C13.9862 517.434 8.10221 499.869 -2.64479 488.866C-13.3928 477.863 -30.1608 466.697 -34.3458 466.751C-38.5318 466.805 -50.8808 471.658 -51.0708 472.49C-51.2608 473.322 2.45921 529.004 2.45921 529.004L13.9862 517.434Z" fill="#FFCC00"/>
<path d="M-12.2671 509.461L-15.9531 505.569L185.522 307.382L189.208 311.273L-12.2671 509.461Z" fill="white"/>
<path d="M1.05743 510.069C-6.18257 516.927 -17.6116 516.617 -24.4696 509.377C-31.3276 502.137 -31.0176 490.708 -23.7776 483.85C-16.5376 476.992 -5.10857 477.302 1.74943 484.542C8.60743 491.783 8.29843 503.211 1.05743 510.069Z" fill="white"/>
<path d="M12.3368 507.508C9.52984 510.167 5.09784 510.047 2.43884 507.24C-0.220161 504.433 -0.10016 500.001 2.70684 497.342C5.51384 494.683 9.94584 494.803 12.6048 497.61C15.2638 500.417 15.1438 504.848 12.3368 507.508Z" fill="white"/>
</g>
<mask id="mask1_173_22357" style="mask-type:luminance" maskUnits="userSpaceOnUse" x="0" y="0" width="500" height="500">
<path d="M500 0L0 0L0 500H500V0Z" fill="white"/>
</mask>
<g mask="url(#mask1_173_22357)">
<path d="M152.149 278.531C152.149 278.531 105.432 298.202 100.439 300.709C95.7658 303.056 83.3888 311.833 68.3258 330.43C67.0098 332.055 68.4048 334.447 70.4678 334.105C85.8028 331.559 123.044 317.503 123.044 317.503L152.149 278.531Z" fill="#F59E00"/>
<path d="M123.045 317.504C123.045 317.504 85.8038 331.56 70.4688 334.106C68.4058 334.449 67.0108 332.056 68.3268 330.431C68.9118 329.709 69.4838 329.029 70.0598 328.337C101.076 324.677 128.578 302.513 137.214 284.841C145.635 281.274 152.149 278.531 152.149 278.531L123.045 317.504Z" fill="#EF7914"/>
<path d="M129.671 289.128C129.671 289.128 105.818 298.912 101.885 300.945C97.9522 302.978 94.4672 305.666 89.9012 309.688C85.3352 313.71 75.7852 323.521 75.7852 323.521C75.7852 323.521 94.0412 307.672 100.827 304.039C118.959 294.334 129.671 289.128 129.671 289.128Z" fill="#FFEE00"/>
<path d="M108.296 340.345C108.296 340.345 69.952 355.556 59.625 359.985C49.298 364.414 36.489 381.259 25 394.487C29.644 397.207 46.473 389.002 52.931 386.748C59.39 384.494 80.935 387.233 80.935 387.233L108.296 340.345Z" fill="#F59E00"/>
<path d="M80.935 387.233C80.935 387.233 59.39 384.493 52.931 386.748C46.472 389.002 29.643 397.207 25 394.487C28.617 390.322 32.365 385.799 36.126 381.418C73.473 382.677 86.236 367.204 92.116 346.791C101.105 343.198 108.296 340.345 108.296 340.345L80.935 387.233Z" fill="#EF7914"/>
<path d="M83.3226 352.277C83.3226 352.277 63.1756 359.829 59.3326 361.701C55.4895 363.573 40.8936 377.876 40.8936 377.876C40.8936 377.876 52.2055 368.729 59.1445 364.661C69.0765 358.84 83.3226 352.277 83.3226 352.277Z" fill="#FFEE00"/>
<path d="M224.204 353.075C224.204 353.075 203.114 399.169 200.455 404.082C197.966 408.681 188.815 420.784 169.766 435.271C168.102 436.537 165.753 435.069 166.158 433.018C169.172 417.768 184.36 380.974 184.36 380.974L224.204 353.075Z" fill="#F59E00"/>
<path d="M184.359 380.974C184.359 380.974 169.171 417.768 166.157 433.018C165.752 435.069 168.101 436.537 169.765 435.271C170.504 434.709 171.201 434.157 171.911 433.603C176.518 402.713 199.513 375.902 217.44 367.81C221.263 359.502 224.203 353.075 224.203 353.075L184.359 380.974Z" fill="#EF7914"/>
<path d="M212.924 375.218C212.924 375.218 202.416 398.761 200.263 402.63C198.11 406.499 195.317 409.9 191.157 414.342C186.997 418.784 176.899 428.029 176.899 428.029C176.899 428.029 193.299 410.266 197.137 403.594C207.394 385.766 212.924 375.218 212.924 375.218Z" fill="#FFEE00"/>
<path d="M161.078 395.018C161.078 395.018 144.701 432.879 139.959 443.066C135.216 453.253 117.987 465.541 104.414 476.62C101.838 471.895 110.553 455.325 113.004 448.938C115.455 442.551 113.375 420.932 113.375 420.932L161.078 395.018Z" fill="#F59E00"/>
<path d="M113.375 420.932C113.375 420.932 115.454 442.551 113.004 448.938C110.553 455.325 101.838 471.895 104.414 476.62C108.687 473.132 113.323 469.524 117.817 465.899C117.7 428.531 133.556 416.247 154.14 410.993C158.006 402.118 161.077 395.018 161.077 395.018L113.375 420.932Z" fill="#EF7914"/>
<path d="M148.387 419.613C148.387 419.613 140.222 439.52 138.233 443.304C136.244 447.088 121.502 461.239 121.502 461.239C121.502 461.239 130.991 450.212 135.269 443.401C141.392 433.651 148.387 419.613 148.387 419.613Z" fill="#FFEE00"/>
<path d="M76.1709 391.898C76.1709 391.898 83.5599 415.996 107.239 424.216C161.072 402.909 236.074 353.93 263.272 312.489C295.155 263.91 289.335 213.327 289.335 213.327C289.335 213.327 230.825 207.113 181.035 248.88C136.833 285.959 101.99 348.897 76.1709 391.898Z" fill="#FFFCE5"/>
<path d="M107.425 393.887L88.6055 412.112C93.2155 416.926 99.3115 421.462 107.243 424.215C112.684 422.061 118.348 419.613 124.151 416.93C109.623 416.841 100.847 402.477 107.425 393.887Z" fill="#FCD9A8"/>
<path d="M289.336 213.327C289.336 213.327 256.17 209.809 218.53 225.892C225.618 237.437 245.73 268.812 279.276 280.782C292.864 243.758 289.336 213.327 289.336 213.327Z" fill="#FBBD00"/>
<path d="M195.874 243.514C195.108 242.157 194.375 240.78 193.645 239.399C190.517 241.502 187.401 243.771 184.312 246.216C184.84 247.193 185.353 248.178 185.898 249.144C189.223 247.267 192.549 245.391 195.874 243.514Z" fill="#EB5D0B"/>
<path d="M175.925 254.775C178.109 258.644 180.421 262.428 182.857 266.121C186.044 264.019 189.231 261.917 192.418 259.814C190.127 256.341 187.953 252.783 185.9 249.145C182.574 251.021 179.25 252.898 175.925 254.775Z" fill="#EB5D0B"/>
<path d="M201.979 253.507C198.792 255.609 195.605 257.711 192.418 259.814C194.709 263.287 197.115 266.674 199.633 269.971C202.668 267.654 205.702 265.337 208.737 263.02C206.378 259.932 204.124 256.76 201.979 253.507Z" fill="#EB5D0B"/>
<path d="M190.529 276.922C193.206 280.428 196.001 283.838 198.908 287.146C201.776 284.626 204.644 282.105 207.511 279.585C204.777 276.475 202.149 273.268 199.632 269.971C196.598 272.288 193.564 274.605 190.529 276.922Z" fill="#EB5D0B"/>
<path d="M216.115 272.023C213.247 274.543 210.379 277.064 207.511 279.584C210.245 282.695 213.084 285.709 216.023 288.623C218.711 285.911 221.399 283.2 224.086 280.488C221.335 277.759 218.676 274.936 216.115 272.023Z" fill="#EB5D0B"/>
<path d="M207.961 296.757C211.087 299.856 214.319 302.847 217.652 305.724C220.147 302.834 222.642 299.944 225.137 297.055C222.003 294.349 218.963 291.536 216.024 288.622C213.336 291.334 210.648 294.046 207.961 296.757Z" fill="#EB5D0B"/>
<path d="M232.622 288.386C230.127 291.276 227.632 294.166 225.137 297.056C228.271 299.762 231.501 302.362 234.819 304.85C237.109 301.795 239.4 298.741 241.69 295.686C238.582 293.356 235.558 290.921 232.622 288.386Z" fill="#EB5D0B"/>
<path d="M227.949 314.014C231.478 316.66 235.103 319.188 238.817 321.591C240.891 318.386 242.965 315.18 245.039 311.975C241.546 309.715 238.138 307.338 234.819 304.85C232.529 307.905 230.239 310.96 227.949 314.014Z" fill="#EB5D0B"/>
<path d="M251.262 302.358C249.188 305.563 247.114 308.769 245.039 311.974C248.532 314.234 252.109 316.377 255.765 318.399C257.612 315.058 259.46 311.716 261.307 308.375C257.883 306.482 254.533 304.475 251.262 302.358Z" fill="#EB5D0B"/>
<path d="M255.766 318.399C253.919 321.74 252.071 325.082 250.224 328.423C250.367 328.502 250.513 328.574 250.656 328.652C253.356 325.634 255.851 322.633 258.139 319.658C257.349 319.236 256.548 318.832 255.766 318.399Z" fill="#EB5D0B"/>
<path d="M288.062 217.061C289.291 223.096 286.704 265.265 268.726 293.182C276.161 273.772 282.071 251.189 288.062 217.061Z" fill="white"/>
<path d="M287.552 216.313L239.371 249.147C239.371 249.147 244.625 257.349 255.546 264.351C266.544 249.078 287.552 216.313 287.552 216.313Z" fill="#FFE900"/>
<path d="M286.834 213.147C275.168 212.524 224.744 212.214 181.035 248.879C136.833 285.958 101.99 348.896 76.1709 391.897C76.1709 391.897 77.5659 396.411 81.0539 402.194L81.0509 402.198C81.3129 402.633 81.5899 403.077 81.8769 403.525C81.9469 403.634 82.0219 403.745 82.0939 403.856C82.3619 404.269 82.6399 404.685 82.9289 405.106C83.0509 405.284 83.1739 405.462 83.3009 405.641C83.5879 406.049 83.8859 406.46 84.1929 406.873C84.2989 407.016 84.3989 407.157 84.5079 407.3C84.8839 407.797 85.2799 408.296 85.6859 408.795C85.8709 409.023 86.0629 409.251 86.2549 409.479C86.5209 409.796 86.7939 410.112 87.0719 410.428C87.2809 410.666 87.4869 410.903 87.7029 411.14C88.1379 411.618 88.5849 412.094 89.0489 412.567L89.0499 412.566C89.1099 412.627 89.1629 412.689 89.2239 412.75C89.3879 412.472 89.5569 412.186 89.7219 411.906L184.902 318.306C175.31 320.577 144.051 343.298 117.072 366.68C156.604 304.123 214.165 228.513 286.834 213.147Z" fill="#FCD9A8"/>
<path d="M188.428 315.113C188.428 315.113 96.2794 394.898 75.8594 424.209C103.976 411.216 168.219 335.749 188.428 315.113Z" fill="#F59E00"/>
<path d="M101.185 399.019C112.702 387.946 161.946 338.604 184.389 319.335C185.877 317.754 187.232 316.334 188.429 315.113C188.429 315.113 96.2804 394.898 75.8604 424.209C78.2654 423.098 80.9393 421.52 83.8223 419.568C82.2223 418.306 93.0084 406.88 101.185 399.019Z" fill="#EF7914"/>
<path d="M171.47 257.437C171.138 257.752 170.807 258.069 170.476 258.386C176.21 269.498 199.256 309.109 246.85 332.767C247.168 332.432 247.48 332.097 247.793 331.762C199.75 308.024 176.81 267.897 171.47 257.437Z" fill="#E19F67"/>
<path d="M168.266 260.523C167.611 261.168 166.961 261.825 166.31 262.48C172.379 274.128 195.556 313.353 242.881 336.845C243.542 336.182 244.182 335.521 244.826 334.859C196.523 311.192 173.53 270.85 168.266 260.523Z" fill="#E19F67"/>
<path d="M201.025 234.739C200.667 234.951 200.308 235.157 199.95 235.372C207.859 249.322 229.49 281.476 269.746 301.662C269.946 301.295 270.145 300.928 270.342 300.561C230.317 280.506 208.841 248.535 201.025 234.739Z" fill="#E19F67"/>
<path d="M197.533 236.859C196.83 237.3 196.127 237.752 195.425 238.209C203.102 251.951 225.25 285.574 267.208 306.136C267.634 305.413 268.052 304.689 268.463 303.966C226.82 283.617 204.968 250.223 197.533 236.859Z" fill="#E19F67"/>
</g>
</svg>
