<svg width="500" height="500" viewBox="0 0 500 500" fill="none" xmlns="http://www.w3.org/2000/svg">
<mask id="mask0_173_27321" style="mask-type:luminance" maskUnits="userSpaceOnUse" x="0" y="0" width="500" height="500">
<path d="M500 0L0 0L0 500H500V0Z" fill="white"/>
</mask>
<g mask="url(#mask0_173_27321)">
<path d="M63.1025 414.931C64.3261 407.392 59.2064 400.289 51.6674 399.065C44.1283 397.842 37.0249 402.961 35.8013 410.5C34.5778 418.039 39.6975 425.143 47.2366 426.366C54.7756 427.59 61.879 422.47 63.1025 414.931Z" fill="#271021"/>
<path d="M38.9864 411.1C46.925 407.811 50.6949 398.711 47.4068 390.773C44.1187 382.835 35.0177 379.065 27.0791 382.354C19.1406 385.642 15.3706 394.743 18.6587 402.681C21.9469 410.619 31.0479 414.388 38.9864 411.1Z" fill="#271021"/>
<path d="M23.7377 402.248C25.3499 390.424 17.0717 379.531 5.24769 377.919C-6.57629 376.307 -17.4685 384.585 -19.0808 396.409C-20.693 408.233 -12.4148 419.125 -0.590791 420.738C11.2332 422.35 22.1254 414.072 23.7377 402.248Z" fill="#271021"/>
<path d="M20.9245 378.569C20.9245 379.762 19.9575 380.73 18.7635 380.73C17.5705 380.73 16.6025 379.763 16.6025 378.569C16.6025 377.376 17.5695 376.408 18.7635 376.408C19.9575 376.409 20.9245 377.376 20.9245 378.569Z" fill="#271021"/>
<path d="M69.3253 472.346C80.3042 472.346 89.2043 463.446 89.2043 452.467C89.2043 441.488 80.3042 432.588 69.3253 432.588C58.3464 432.588 49.4463 441.488 49.4463 452.467C49.4463 463.446 58.3464 472.346 69.3253 472.346Z" fill="#271021"/>
<path d="M84.8664 487.889C88.9169 483.838 88.9169 477.271 84.8664 473.221C80.8159 469.17 74.2488 469.17 70.1983 473.221C66.1478 477.271 66.1478 483.838 70.1983 487.889C74.2488 491.939 80.8159 491.939 84.8664 487.889Z" fill="#271021"/>
<path d="M106.125 501.129C113.678 494.18 114.167 482.424 107.218 474.871C100.269 467.319 88.513 466.83 80.9604 473.779C73.4078 480.728 72.9186 492.484 79.8677 500.037C86.8169 507.589 98.5729 508.078 106.125 501.129Z" fill="#271021"/>
<path d="M114.701 528.958C126.157 528.958 135.444 519.671 135.444 508.215C135.444 496.759 126.157 487.472 114.701 487.472C103.245 487.472 93.958 496.759 93.958 508.215C93.958 519.671 103.245 528.958 114.701 528.958Z" fill="#271021"/>
<path d="M147.276 513.009C148.487 507.9 145.328 502.777 140.219 501.566C135.11 500.354 129.987 503.514 128.775 508.623C127.564 513.732 130.724 518.855 135.832 520.066C140.941 521.278 146.065 518.118 147.276 513.009Z" fill="#271021"/>
<path d="M122.48 480.125C122.48 481.796 121.126 483.15 119.455 483.15C117.784 483.15 116.43 481.796 116.43 480.125C116.43 478.454 117.784 477.1 119.455 477.1C121.126 477.1 122.48 478.454 122.48 480.125Z" fill="#271021"/>
<path d="M50.913 420.132C50.913 424.123 47.677 427.359 43.686 427.359C39.695 427.359 36.459 424.123 36.459 420.132C36.459 416.141 39.695 412.905 43.686 412.905C47.677 412.905 50.913 416.141 50.913 420.132Z" fill="#7B0A52"/>
<path d="M41.5086 417.141C43.837 407.28 37.7308 397.399 27.8701 395.071C18.0095 392.742 8.12828 398.848 5.7999 408.709C3.47151 418.57 9.57765 428.451 19.4383 430.779C29.299 433.108 39.1802 427.002 41.5086 417.141Z" fill="#7B0A52"/>
<path d="M5.51754 424.666C8.63211 420.867 8.07734 415.263 4.27845 412.148C0.479557 409.033 -5.1249 409.588 -8.23948 413.387C-11.354 417.186 -10.7993 422.79 -7.00041 425.905C-3.20152 429.02 2.40297 428.465 5.51754 424.666Z" fill="#7B0A52"/>
<path d="M-12.312 423.146C-4.20004 423.146 2.376 416.57 2.376 408.458C2.376 400.346 -4.20004 393.77 -12.312 393.77C-20.424 393.77 -27 400.346 -27 408.458C-27 416.57 -20.424 423.146 -12.312 423.146Z" fill="#7B0A52"/>
<path d="M68.9799 476.56C75.2758 470.264 75.2758 460.056 68.9799 453.76C62.6839 447.464 52.4761 447.464 46.1801 453.76C39.8842 460.056 39.8842 470.264 46.1801 476.56C52.4761 482.855 62.6839 482.855 68.9799 476.56Z" fill="#7B0A52"/>
<path d="M62.5874 494.627C68.4212 494.627 73.1504 489.898 73.1504 484.064C73.1504 478.23 68.4212 473.501 62.5874 473.501C56.7536 473.501 52.0244 478.23 52.0244 484.064C52.0244 489.898 56.7536 494.627 62.5874 494.627Z" fill="#7B0A52"/>
<path d="M103.505 510.827C105.079 501.129 98.493 491.99 88.7946 490.416C79.0962 488.842 69.9581 495.429 68.3841 505.127C66.8101 514.825 73.3963 523.963 83.0947 525.537C92.7931 527.111 101.931 520.525 103.505 510.827Z" fill="#7B0A52"/>
<path d="M75.6571 496.269C76.8566 491.189 73.711 486.098 68.6313 484.899C63.5515 483.7 58.4612 486.845 57.2617 491.925C56.0622 497.005 59.2078 502.095 64.2876 503.294C69.3673 504.494 74.4576 501.348 75.6571 496.269Z" fill="#7B0A52"/>
<path d="M98.1671 482.396C98.1671 484.238 96.6741 485.732 94.8311 485.732C92.9891 485.732 91.4951 484.239 91.4951 482.396C91.4951 480.554 92.9881 479.061 94.8311 479.061C96.6731 479.061 98.1671 480.554 98.1671 482.396Z" fill="#7B0A52"/>
<path d="M80.9331 461.271C80.9331 462.806 79.689 464.051 78.153 464.051C76.618 464.051 75.373 462.806 75.373 461.271C75.373 459.736 76.617 458.491 78.153 458.491C79.689 458.491 80.9331 459.736 80.9331 461.271Z" fill="#7B0A52"/>
<path d="M42.574 391.224C42.574 392.452 41.578 393.448 40.35 393.448C39.122 393.448 38.126 392.452 38.126 391.224C38.126 389.996 39.122 389 40.35 389C41.579 389 42.574 389.996 42.574 391.224Z" fill="#7B0A52"/>
<path d="M23.4883 462.64C35.7915 457.544 41.634 443.439 36.5377 431.136C31.4414 418.832 17.3362 412.99 5.03294 418.086C-7.27035 423.183 -13.1128 437.288 -8.01648 449.591C-2.92018 461.894 11.185 467.737 23.4883 462.64Z" fill="#F2396B"/>
<path d="M-12.8293 437.027C-5.20553 432.71 -2.52449 423.031 -6.84098 415.407C-11.1575 407.783 -20.8369 405.102 -28.4607 409.419C-36.0844 413.735 -38.7654 423.415 -34.4489 431.038C-30.1325 438.662 -20.453 441.343 -12.8293 437.027Z" fill="#F2396B"/>
<path d="M50.3094 444.572C56.5042 438.377 56.5042 428.334 50.3094 422.139C44.1145 415.944 34.0707 415.944 27.8759 422.139C21.6811 428.334 21.6811 438.377 27.8759 444.572C34.0707 450.767 44.1145 450.767 50.3094 444.572Z" fill="#F2396B"/>
<path d="M4.67086 515.447L-17.7441 490.041L178.836 294L202.77 318.849L4.67086 515.447Z" fill="#F2396B"/>
<path d="M59.5093 479.412C61.4419 471.227 56.3736 463.026 48.1888 461.093C40.004 459.16 31.8022 464.229 29.8695 472.414C27.9368 480.598 33.0052 488.8 41.19 490.733C49.3748 492.665 57.5766 487.597 59.5093 479.412Z" fill="#F2396B"/>
<path d="M67.0484 499.814C69.3851 489.919 63.2573 480.002 53.3617 477.666C43.4661 475.329 33.5499 481.457 31.2133 491.352C28.8766 501.248 35.0044 511.164 44.9 513.501C54.7956 515.837 64.7118 509.71 67.0484 499.814Z" fill="#F2396B"/>
<path d="M78.6291 495.409C80.3815 495.409 81.8021 493.988 81.8021 492.236C81.8021 490.484 80.3815 489.063 78.6291 489.063C76.8767 489.063 75.4561 490.484 75.4561 492.236C75.4561 493.988 76.8767 495.409 78.6291 495.409Z" fill="#F2396B"/>
<path d="M24.7482 411.095C26.5006 411.095 27.9212 409.674 27.9212 407.922C27.9212 406.17 26.5006 404.749 24.7482 404.749C22.9958 404.749 21.5752 406.17 21.5752 407.922C21.5752 409.674 22.9958 411.095 24.7482 411.095Z" fill="#F2396B"/>
<path d="M77.4367 528.624C85.5258 525.274 89.367 516 86.0164 507.911C82.6657 499.822 73.3919 495.98 65.3028 499.331C57.2137 502.682 53.3725 511.955 56.7232 520.045C60.0739 528.134 69.3476 531.975 77.4367 528.624Z" fill="#F2396B"/>
<path d="M39.8358 437.029C40.347 418.174 25.4763 402.475 6.62119 401.964C-12.2339 401.452 -27.9334 416.323 -28.4445 435.178C-28.9557 454.033 -14.085 469.733 4.77005 470.244C23.6252 470.755 39.3246 455.884 39.8358 437.029Z" fill="#EC6408"/>
<path d="M-12.207 420.704C-4.86915 414.923 -3.60676 404.288 -9.38736 396.951C-15.168 389.613 -25.8026 388.35 -33.1404 394.131C-40.4783 399.912 -41.7407 410.546 -35.9601 417.884C-30.1795 425.222 -19.5448 426.484 -12.207 420.704Z" fill="#EC6408"/>
<path d="M2.38514 395.354C1.02923 396.639 -1.1121 396.582 -2.39713 395.224C-3.68217 393.869 -3.6243 391.727 -2.26721 390.442C-0.911311 389.157 1.23002 389.215 2.51506 390.572C3.80009 391.929 3.74222 394.069 2.38514 395.354Z" fill="#EC6408"/>
<path d="M58.2633 503.948C73.0187 500.067 81.8338 484.959 77.9523 470.203C74.0708 455.448 58.9626 446.633 44.2073 450.514C29.4519 454.396 20.6368 469.504 24.5183 484.259C28.3997 499.015 43.5079 507.83 58.2633 503.948Z" fill="#EC6408"/>
<path d="M22.0869 498.752L-1.41699 471.882L231.391 241L256.632 267.153L22.0869 498.752Z" fill="#EC6408"/>
<path d="M84.8599 501.282C82.3737 503.638 78.4477 503.531 76.0926 501.045C73.7375 498.559 73.8438 494.633 76.33 492.278C78.8163 489.923 82.7422 490.029 85.0973 492.515C87.4524 495.001 87.3461 498.927 84.8599 501.282Z" fill="#EC6408"/>
<path d="M90.6149 519.469C91.9205 505.686 81.8057 493.455 68.0229 492.149C54.24 490.844 42.0085 500.958 40.7029 514.741C39.3973 528.524 49.5121 540.756 63.2949 542.061C77.0777 543.367 89.3093 533.252 90.6149 519.469Z" fill="#EC6408"/>
<path d="M99.5734 502.878C97.7652 504.591 94.9105 504.514 93.1967 502.706C91.4841 500.898 91.5609 498.043 93.3691 496.329C95.1774 494.616 98.0321 494.693 99.7459 496.501C101.46 498.31 101.382 501.166 99.5734 502.878Z" fill="#EC6408"/>
<path d="M15.0254 492.008L1.18066 477.391L236.155 246.13L250 260.746L15.0254 492.008Z" fill="#FFCC00"/>
<path d="M23.5348 474.569C30.1473 467.63 29.8831 456.645 22.9447 450.032C16.0063 443.42 5.0211 443.684 -1.59142 450.622C-8.20395 457.561 -7.93978 468.546 -1.00137 475.159C5.93703 481.771 16.9222 481.507 23.5348 474.569Z" fill="#FFCC00"/>
<path d="M-1.60539 457.041C-4.41526 459.703 -8.85121 459.582 -11.5133 456.772C-14.1753 453.962 -14.0547 449.526 -11.2448 446.864C-8.43494 444.202 -3.99898 444.323 -1.33694 447.133C1.32511 449.943 1.20566 454.378 -1.60539 457.041Z" fill="#FFCC00"/>
<path d="M46.4035 497.738C38.875 504.87 26.9898 504.548 19.8575 497.018C12.7264 489.49 13.0481 477.605 20.5777 470.472C28.1062 463.341 39.9914 463.663 47.1237 471.192C54.2548 478.722 53.9319 490.607 46.4035 497.738Z" fill="#FFCC00"/>
<path d="M51.613 545.547C65.3779 536.966 69.5804 518.852 60.9997 505.087C52.419 491.322 34.3044 487.119 20.5396 495.7C6.77479 504.281 2.57226 522.395 11.153 536.16C19.7337 549.925 37.8482 554.128 51.613 545.547Z" fill="#FFCC00"/>
<path d="M32.2752 505.445C32.2752 505.445 25.3168 484.672 12.6073 471.66C-0.103313 458.648 -19.9332 445.443 -24.8824 445.507C-29.8328 445.57 -44.4368 451.31 -44.6615 452.294C-44.8862 453.277 18.6433 519.127 18.6433 519.127L32.2752 505.445Z" fill="#FFCC00"/>
<path d="M61.4672 492.658C60.242 493.82 58.3072 493.766 57.1471 492.541C55.9858 491.316 56.039 489.381 57.2642 488.22C58.4894 487.059 60.4241 487.112 61.5854 488.337C62.7456 489.563 62.6923 491.498 61.4672 492.658Z" fill="#FFCC00"/>
<path d="M4.40791 435.383C3.72673 436.027 2.65293 435.999 2.00723 435.318C1.36271 434.636 1.39109 433.563 2.07227 432.917C2.75345 432.272 3.82726 432.301 4.47296 432.982C5.11866 433.663 5.08909 434.737 4.40791 435.383Z" fill="#FFCC00"/>
<path d="M2.41619 496.646L-2.07473 491.979L239.48 250.587L243.971 255.254L2.41619 496.646Z" fill="white"/>
<path d="M18.5229 497.254C9.84009 505.609 -3.97261 505.344 -12.3282 496.661C-20.6838 487.978 -20.4181 474.166 -11.7354 465.81C-3.05259 457.454 10.7601 457.72 19.1157 466.403C27.4713 475.087 27.2068 488.898 18.5229 497.254Z" fill="white"/>
<path d="M32.1273 494.052C28.7609 497.292 23.4046 497.189 20.1649 493.822C16.9253 490.456 17.028 485.1 20.3944 481.86C23.7608 478.62 29.1171 478.723 32.3568 482.09C35.5964 485.456 35.4937 490.811 32.1273 494.052Z" fill="white"/>
<path d="M29.9978 535.511C42.4915 534.404 51.7222 523.378 50.6153 510.885C49.5083 498.391 38.4827 489.16 25.989 490.267C13.4953 491.374 4.26458 502.4 5.37156 514.893C6.47854 527.387 17.5041 536.618 29.9978 535.511Z" fill="white"/>
</g>
<mask id="mask1_173_27321" style="mask-type:luminance" maskUnits="userSpaceOnUse" x="0" y="0" width="500" height="500">
<path d="M500 0L0 0L0 500H500V0Z" fill="white"/>
</mask>
<g mask="url(#mask1_173_27321)">
<path d="M301.149 121.531C301.149 121.531 254.432 141.202 249.439 143.709C244.766 146.056 232.389 154.833 217.326 173.43C216.01 175.055 217.405 177.447 219.468 177.105C234.803 174.559 272.044 160.503 272.044 160.503L301.149 121.531Z" fill="#F59E00"/>
<path d="M272.045 160.504C272.045 160.504 234.804 174.56 219.469 177.106C217.406 177.449 216.011 175.056 217.327 173.431C217.912 172.709 218.484 172.029 219.06 171.337C250.076 167.677 277.578 145.513 286.214 127.841C294.635 124.274 301.149 121.531 301.149 121.531L272.045 160.504Z" fill="#EF7914"/>
<path d="M278.671 132.128C278.671 132.128 254.818 141.912 250.885 143.945C246.952 145.978 243.467 148.666 238.901 152.688C234.335 156.71 224.785 166.521 224.785 166.521C224.785 166.521 243.041 150.672 249.827 147.039C267.959 137.334 278.671 132.128 278.671 132.128Z" fill="#FFEE00"/>
<path d="M257.296 183.345C257.296 183.345 218.952 198.556 208.625 202.985C198.298 207.414 185.489 224.259 174 237.487C178.644 240.207 195.473 232.002 201.931 229.748C208.39 227.494 229.935 230.233 229.935 230.233L257.296 183.345Z" fill="#F59E00"/>
<path d="M229.935 230.233C229.935 230.233 208.39 227.493 201.931 229.748C195.472 232.002 178.643 240.207 174 237.487C177.617 233.322 181.365 228.799 185.126 224.418C222.473 225.677 235.236 210.204 241.116 189.791C250.105 186.198 257.296 183.345 257.296 183.345L229.935 230.233Z" fill="#EF7914"/>
<path d="M232.323 195.278C232.323 195.278 212.176 202.83 208.333 204.702C204.49 206.574 189.894 220.877 189.894 220.877C189.894 220.877 201.206 211.73 208.145 207.662C218.077 201.841 232.323 195.278 232.323 195.278Z" fill="#FFEE00"/>
<path d="M373.204 196.075C373.204 196.075 352.114 242.169 349.455 247.082C346.966 251.681 337.815 263.784 318.766 278.271C317.102 279.537 314.753 278.069 315.158 276.018C318.172 260.768 333.36 223.974 333.36 223.974L373.204 196.075Z" fill="#F59E00"/>
<path d="M333.359 223.974C333.359 223.974 318.171 260.768 315.157 276.018C314.752 278.069 317.101 279.537 318.765 278.271C319.504 277.709 320.201 277.157 320.911 276.603C325.518 245.713 348.513 218.902 366.44 210.81C370.263 202.502 373.203 196.075 373.203 196.075L333.359 223.974Z" fill="#EF7914"/>
<path d="M361.924 218.218C361.924 218.218 351.416 241.761 349.263 245.63C347.11 249.499 344.317 252.9 340.157 257.342C335.997 261.784 325.899 271.029 325.899 271.029C325.899 271.029 342.299 253.266 346.137 246.594C356.394 228.766 361.924 218.218 361.924 218.218Z" fill="#FFEE00"/>
<path d="M310.078 238.018C310.078 238.018 293.701 275.879 288.959 286.066C284.216 296.253 266.987 308.541 253.414 319.62C250.838 314.895 259.553 298.325 262.004 291.938C264.455 285.551 262.375 263.932 262.375 263.932L310.078 238.018Z" fill="#F59E00"/>
<path d="M262.375 263.932C262.375 263.932 264.454 285.551 262.004 291.938C259.553 298.325 250.838 314.895 253.414 319.62C257.687 316.132 262.323 312.524 266.817 308.899C266.7 271.531 282.556 259.247 303.14 253.993C307.006 245.118 310.077 238.018 310.077 238.018L262.375 263.932Z" fill="#EF7914"/>
<path d="M297.387 262.614C297.387 262.614 289.222 282.521 287.233 286.305C285.244 290.089 270.502 304.24 270.502 304.24C270.502 304.24 279.991 293.213 284.269 286.402C290.392 276.652 297.387 262.614 297.387 262.614Z" fill="#FFEE00"/>
<path d="M225.171 234.898C225.171 234.898 232.56 258.996 256.239 267.216C310.072 245.909 385.074 196.93 412.272 155.489C444.155 106.91 438.335 56.3268 438.335 56.3268C438.335 56.3268 379.825 50.1128 330.035 91.8798C285.833 128.959 250.99 191.897 225.171 234.898Z" fill="#FFFCE5"/>
<path d="M256.425 236.887L237.605 255.112C242.215 259.926 248.311 264.462 256.243 267.215C261.684 265.061 267.348 262.613 273.151 259.93C258.623 259.841 249.847 245.477 256.425 236.887Z" fill="#FCD9A8"/>
<path d="M438.336 56.3268C438.336 56.3268 405.17 52.8088 367.53 68.8918C374.618 80.4368 394.73 111.812 428.276 123.782C441.864 86.7578 438.336 56.3268 438.336 56.3268Z" fill="#FBBD00"/>
<path d="M344.874 86.5149C344.108 85.1579 343.375 83.7809 342.645 82.3999C339.517 84.5029 336.401 86.7719 333.312 89.2169C333.84 90.1939 334.353 91.1789 334.898 92.1449C338.223 90.2679 341.549 88.3919 344.874 86.5149Z" fill="#EB5D0B"/>
<path d="M324.925 97.775C327.109 101.644 329.421 105.428 331.857 109.121C335.044 107.019 338.231 104.917 341.418 102.814C339.127 99.341 336.953 95.783 334.9 92.145C331.574 94.021 328.25 95.898 324.925 97.775Z" fill="#EB5D0B"/>
<path d="M350.979 96.5068C347.792 98.6088 344.605 100.711 341.418 102.814C343.709 106.287 346.115 109.674 348.633 112.971C351.668 110.654 354.702 108.337 357.737 106.02C355.378 102.932 353.124 99.7598 350.979 96.5068Z" fill="#EB5D0B"/>
<path d="M339.529 119.922C342.206 123.428 345.001 126.838 347.908 130.146C350.776 127.626 353.644 125.105 356.511 122.585C353.777 119.475 351.149 116.268 348.632 112.971C345.598 115.288 342.564 117.605 339.529 119.922Z" fill="#EB5D0B"/>
<path d="M365.115 115.024C362.247 117.544 359.379 120.065 356.511 122.585C359.245 125.696 362.084 128.71 365.023 131.624C367.711 128.912 370.399 126.201 373.086 123.489C370.335 120.76 367.676 117.937 365.115 115.024Z" fill="#EB5D0B"/>
<path d="M356.961 139.758C360.087 142.857 363.319 145.848 366.652 148.725C369.147 145.835 371.642 142.945 374.137 140.056C371.003 137.35 367.963 134.537 365.024 131.623C362.336 134.335 359.648 137.047 356.961 139.758Z" fill="#EB5D0B"/>
<path d="M381.622 131.386C379.127 134.276 376.632 137.166 374.137 140.056C377.271 142.762 380.501 145.362 383.819 147.85C386.109 144.795 388.4 141.741 390.69 138.686C387.582 136.356 384.558 133.921 381.622 131.386Z" fill="#EB5D0B"/>
<path d="M376.949 157.014C380.478 159.66 384.103 162.188 387.817 164.591C389.891 161.386 391.965 158.18 394.039 154.975C390.546 152.715 387.138 150.338 383.819 147.85C381.529 150.905 379.239 153.96 376.949 157.014Z" fill="#EB5D0B"/>
<path d="M400.262 145.359C398.188 148.564 396.114 151.77 394.039 154.975C397.532 157.235 401.109 159.378 404.765 161.4C406.612 158.059 408.46 154.717 410.307 151.376C406.883 149.483 403.533 147.476 400.262 145.359Z" fill="#EB5D0B"/>
<path d="M404.766 161.4C402.919 164.741 401.071 168.083 399.224 171.424C399.367 171.503 399.513 171.575 399.656 171.653C402.356 168.635 404.851 165.634 407.139 162.659C406.349 162.237 405.548 161.833 404.766 161.4Z" fill="#EB5D0B"/>
<path d="M437.062 60.0605C438.291 66.0955 435.704 108.265 417.726 136.182C425.161 116.772 431.071 94.1885 437.062 60.0605Z" fill="white"/>
<path d="M436.552 59.314L388.371 92.148C388.371 92.148 393.625 100.35 404.546 107.352C415.544 92.079 436.552 59.314 436.552 59.314Z" fill="#FFE900"/>
<path d="M435.834 56.148C424.168 55.525 373.744 55.215 330.035 91.88C285.833 128.959 250.99 191.897 225.171 234.898C225.171 234.898 226.566 239.412 230.054 245.195L230.051 245.199C230.313 245.634 230.59 246.078 230.877 246.526C230.947 246.635 231.022 246.746 231.094 246.857C231.362 247.27 231.64 247.686 231.929 248.107C232.051 248.285 232.174 248.463 232.301 248.642C232.588 249.05 232.886 249.461 233.193 249.874C233.299 250.017 233.399 250.158 233.508 250.301C233.884 250.798 234.28 251.297 234.686 251.796C234.871 252.024 235.063 252.252 235.255 252.48C235.521 252.797 235.794 253.113 236.072 253.429C236.281 253.667 236.487 253.904 236.703 254.141C237.138 254.619 237.585 255.095 238.049 255.568L238.05 255.567C238.11 255.628 238.163 255.69 238.224 255.751C238.388 255.473 238.557 255.187 238.722 254.907L333.902 161.307C324.31 163.578 293.051 186.299 266.072 209.681C305.604 147.124 363.165 71.514 435.834 56.148Z" fill="#FCD9A8"/>
<path d="M337.428 158.114C337.428 158.114 245.279 237.899 224.859 267.21C252.976 254.217 317.219 178.75 337.428 158.114Z" fill="#F59E00"/>
<path d="M250.185 242.02C261.702 230.947 310.946 181.605 333.389 162.336C334.877 160.755 336.232 159.335 337.429 158.114C337.429 158.114 245.28 237.899 224.86 267.21C227.265 266.099 229.939 264.521 232.822 262.569C231.222 261.307 242.008 249.881 250.185 242.02Z" fill="#EF7914"/>
<path d="M320.47 100.436C320.138 100.751 319.807 101.068 319.476 101.385C325.21 112.497 348.256 152.108 395.85 175.766C396.168 175.431 396.48 175.096 396.793 174.761C348.75 151.023 325.81 110.896 320.47 100.436Z" fill="#E19F67"/>
<path d="M317.266 103.523C316.611 104.168 315.961 104.825 315.31 105.48C321.379 117.128 344.556 156.353 391.881 179.845C392.542 179.182 393.182 178.521 393.826 177.859C345.523 154.192 322.53 113.85 317.266 103.523Z" fill="#E19F67"/>
<path d="M350.025 77.7388C349.667 77.9508 349.308 78.1568 348.95 78.3718C356.859 92.3218 378.49 124.476 418.746 144.662C418.946 144.295 419.145 143.928 419.342 143.561C379.317 123.506 357.841 91.5348 350.025 77.7388Z" fill="#E19F67"/>
<path d="M346.533 79.8589C345.83 80.2999 345.127 80.7519 344.425 81.2089C352.102 94.9509 374.25 128.574 416.208 149.136C416.634 148.413 417.052 147.689 417.463 146.966C375.82 126.617 353.968 93.2229 346.533 79.8589Z" fill="#E19F67"/>
</g>
</svg>
