<svg width="508" height="504" viewBox="0 0 508 504" fill="none" xmlns="http://www.w3.org/2000/svg">
<rect x="0.0674612" y="-0.347058" width="387.25" height="0.5" transform="matrix(0.829038 -0.559193 -0.559193 -0.829038 108.505 374.27)" stroke="#000091" stroke-width="0.5" stroke-dasharray="10 10"/>
<path d="M90.9622 360.23L85.5465 368.569L84.7078 368.024L90.1235 359.685L90.9622 360.23ZM101.794 343.551L96.378 351.89L95.5393 351.345L100.955 343.006L101.794 343.551ZM112.625 326.872L107.21 335.211L106.371 334.666L111.787 326.327L112.625 326.872ZM123.457 310.192L118.041 318.532L117.202 317.987L122.618 309.648L123.457 310.192ZM134.288 293.513L128.873 301.853L128.034 301.308L133.45 292.969L134.288 293.513ZM139.704 285.174L138.865 284.629L144.281 276.29L145.12 276.834L139.704 285.174ZM150.536 268.495L149.697 267.95L155.113 259.611L155.951 260.155L150.536 268.495ZM161.367 251.816L160.528 251.271L165.944 242.932L166.783 243.476L161.367 251.816ZM172.199 235.137L171.36 234.592L176.776 226.252L177.614 226.797L172.199 235.137ZM183.03 218.458L182.191 217.913L187.607 209.573L188.446 210.118L183.03 218.458ZM193.862 201.778L193.023 201.234L198.439 192.894L199.277 193.439L193.862 201.778ZM204.693 185.099L203.854 184.555L209.27 176.215L210.109 176.76L204.693 185.099ZM215.525 168.42L214.686 167.876L220.102 159.536L220.94 160.081L215.525 168.42ZM226.356 151.741L225.517 151.197L230.933 142.857L231.772 143.402L226.356 151.741ZM237.188 135.062L236.349 134.518L241.765 126.178L242.603 126.723L237.188 135.062ZM248.019 118.383L247.18 117.839L252.596 109.499L253.435 110.044L248.019 118.383ZM258.851 101.704L258.012 101.159L263.428 92.8199L264.266 93.3646L258.851 101.704ZM269.682 85.025L268.843 84.4804L274.259 76.1409L275.098 76.6855L269.682 85.025ZM280.514 68.346L279.675 67.8013L285.091 59.4618L285.929 60.0064L280.514 68.346ZM291.345 51.6669L290.506 51.1223L295.922 42.7827L296.761 43.3274L291.345 51.6669Z" stroke="#000091" stroke-width="3" stroke-dasharray="10 10"/>
<path d="M32.9537 270.626L32.2846 269.883L39.5565 263.335L40.2256 264.078L32.9537 270.626ZM54.7698 250.983L47.4978 257.53L46.8287 256.787L54.1006 250.239L54.7698 250.983ZM69.3139 237.887L62.042 244.435L61.3728 243.692L68.6448 237.144L69.3139 237.887ZM83.858 224.791L76.5861 231.339L75.9169 230.596L83.1889 224.048L83.858 224.791ZM98.4022 211.696L91.1302 218.244L90.4611 217.5L97.733 210.953L98.4022 211.696ZM112.946 198.6L105.674 205.148L105.005 204.405L112.277 197.857L112.946 198.6ZM127.49 185.505L120.218 192.052L119.549 191.309L126.821 184.761L127.49 185.505ZM134.763 178.957L134.093 178.214L141.365 171.666L142.035 172.409L134.763 178.957ZM149.307 165.861L148.638 165.118L155.91 158.57L156.579 159.313L149.307 165.861ZM163.851 152.766L163.182 152.022L170.454 145.475L171.123 146.218L163.851 152.766ZM178.395 139.67L177.726 138.927L184.998 132.379L185.667 133.122L178.395 139.67ZM192.939 126.574L192.27 125.831L199.542 119.284L200.211 120.027L192.939 126.574ZM207.483 113.479L206.814 112.736L214.086 106.188L214.755 106.931L207.483 113.479ZM222.027 100.383L221.358 99.6401L228.63 93.0923L229.299 93.8355L222.027 100.383ZM236.571 87.2877L235.902 86.5445L243.174 79.9967L243.844 80.7399L236.571 87.2877ZM251.116 74.1921L250.446 73.4489L257.718 66.9011L258.388 67.6443L251.116 74.1921ZM265.66 61.0965L264.991 60.3533L272.263 53.8055L272.932 54.5487L265.66 61.0965ZM280.204 48.0009L279.535 47.2578L286.807 40.71L287.476 41.4531L280.204 48.0009ZM294.748 34.9053L294.079 34.1621L301.351 27.6144L302.02 28.3575L294.748 34.9053Z" stroke="#000091" stroke-width="3" stroke-dasharray="10 10"/>
<rect x="-0.350918" y="0.0430873" width="397.25" height="0.5" transform="matrix(-0.788011 -0.615661 -0.615661 0.788011 338.891 479.272)" stroke="#000091" stroke-width="0.5" stroke-dasharray="10 10"/>
<rect x="-0.347058" y="0.0674612" width="397.25" height="0.5" transform="matrix(-0.829037 -0.559193 -0.559193 0.829037 467.875 304.236)" stroke="#000091" stroke-width="0.5" stroke-dasharray="10 10"/>
<rect x="-0.255138" y="-0.244754" width="407.25" height="0.5" transform="matrix(-0.0207679 -0.999784 -0.999784 0.0207679 317.215 452.518)" stroke="#000091" stroke-width="0.5" stroke-dasharray="10 10"/>
<circle cx="260" cy="253" r="224.5" stroke="#000091"/>
<rect x="253" width="70" height="70" rx="35" fill="#7534FC"/>
<path d="M306.799 30.0802C307.57 24.8365 303.591 21.9988 298.1 20.1172L299.889 12.992L295.571 11.9124L293.844 18.8526C292.703 18.575 291.53 18.2973 290.358 18.0506L292.086 11.0796L287.767 10L286.009 17.0944C285.053 16.8785 284.128 16.6626 283.233 16.4466V16.4158L277.249 14.9352L276.108 19.562C276.108 19.562 279.316 20.3023 279.254 20.3331C281.012 20.765 281.321 21.9371 281.259 22.8624L279.223 30.9747C279.347 31.0056 279.501 31.0364 279.686 31.1289C279.532 31.0981 279.377 31.0672 279.223 31.0056L276.385 42.3566C276.169 42.8809 275.614 43.6829 274.411 43.3745C274.442 43.4361 271.265 42.6033 271.265 42.6033L269.106 47.5694L274.751 48.9883C275.799 49.2659 276.817 49.5126 277.835 49.7903L276.046 56.9772L280.364 58.0568L282.153 50.9315C283.326 51.24 284.498 51.5484 285.608 51.826L283.85 58.9204L288.168 60L289.957 52.8131C297.36 54.2011 302.912 53.6459 305.226 46.9525C307.107 41.5854 305.133 38.4701 301.247 36.4343C304.115 35.7866 306.244 33.905 306.799 30.0802ZM296.897 43.9605C295.571 49.3276 286.503 46.4281 283.572 45.6878L285.947 36.1567C288.878 36.897 298.316 38.3467 296.897 43.9605ZM298.255 29.9877C297.021 34.892 289.495 32.3936 287.058 31.7767L289.217 23.14C291.654 23.7569 299.519 24.8982 298.255 29.9877Z" fill="white"/>
<rect x="438" y="272" width="70" height="70" rx="35" fill="#7534FC"/>
<g clip-path="url(#clip0_157_9635)">
<path d="M468.317 293.378C467.776 293.3 467.75 293.274 468.008 293.249C468.498 293.171 469.633 293.274 470.433 293.455C472.29 293.894 473.967 295.029 475.748 297.015L476.212 297.557L476.883 297.454C479.747 296.99 482.688 297.351 485.139 298.486C485.81 298.796 486.867 299.415 486.996 299.57C487.048 299.621 487.125 299.957 487.177 300.292C487.358 301.505 487.28 302.408 486.893 303.104C486.687 303.491 486.687 303.594 486.816 303.93C486.919 304.188 487.229 304.368 487.512 304.368C488.132 304.368 488.777 303.388 489.086 302.021L489.215 301.479L489.447 301.737C490.763 303.207 491.795 305.246 491.95 306.69L492.002 307.077L491.769 306.742C491.382 306.149 491.021 305.762 490.531 305.426C489.654 304.833 488.725 304.652 486.274 304.523C484.055 304.394 482.791 304.214 481.553 303.801C479.437 303.104 478.353 302.201 475.851 298.873C474.741 297.402 474.045 296.603 473.348 295.932C471.826 294.461 470.304 293.687 468.317 293.378Z" fill="white"/>
<path d="M487.538 296.654C487.59 295.674 487.719 295.029 488.003 294.436C488.106 294.203 488.209 293.997 488.235 293.997C488.261 293.997 488.209 294.178 488.132 294.384C487.925 294.952 487.899 295.751 488.028 296.654C488.209 297.815 488.286 297.97 489.525 299.234C490.092 299.828 490.763 300.576 491.021 300.886L491.46 301.453L491.021 301.04C490.479 300.524 489.241 299.544 488.957 299.415C488.777 299.312 488.751 299.312 488.622 299.441C488.519 299.544 488.493 299.699 488.493 300.447C488.467 301.608 488.312 302.33 487.925 303.079C487.719 303.466 487.693 303.388 487.874 302.95C488.003 302.614 488.028 302.459 488.028 301.35C488.028 299.105 487.77 298.564 486.197 297.661C485.81 297.428 485.139 297.093 484.752 296.912C484.339 296.732 484.029 296.577 484.055 296.577C484.107 296.525 485.629 296.964 486.222 297.222C487.125 297.583 487.28 297.609 487.383 297.583C487.461 297.506 487.512 297.299 487.538 296.654Z" fill="white"/>
<path d="M469.375 300.498C468.292 299.002 467.595 296.68 467.75 294.951L467.802 294.41L468.06 294.461C468.524 294.539 469.324 294.848 469.711 295.08C470.743 295.7 471.207 296.551 471.646 298.667C471.775 299.286 471.955 300.008 472.033 300.24C472.162 300.627 472.652 301.53 473.065 302.098C473.349 302.511 473.168 302.717 472.523 302.666C471.543 302.562 470.227 301.659 469.375 300.498Z" fill="white"/>
<path d="M486.222 311.721C481.114 309.657 479.308 307.877 479.308 304.858C479.308 304.42 479.334 304.059 479.334 304.059C479.36 304.059 479.54 304.213 479.773 304.394C480.804 305.22 481.965 305.581 485.19 306.045C487.074 306.329 488.157 306.535 489.138 306.871C492.26 307.903 494.195 310.018 494.659 312.882C494.788 313.708 494.711 315.282 494.504 316.107C494.324 316.752 493.808 317.939 493.679 317.965C493.653 317.965 493.601 317.836 493.601 317.629C493.55 316.546 493.008 315.514 492.105 314.714C491.021 313.785 489.628 313.089 486.222 311.721Z" fill="white"/>
<path d="M482.61 312.573C482.559 312.186 482.43 311.695 482.352 311.489L482.223 311.102L482.456 311.386C482.791 311.773 483.049 312.237 483.281 312.882C483.462 313.372 483.462 313.527 483.462 314.327C483.462 315.101 483.436 315.282 483.281 315.72C483.023 316.417 482.714 316.907 482.198 317.449C481.269 318.403 480.056 318.919 478.328 319.152C478.018 319.177 477.141 319.255 476.367 319.306C474.432 319.41 473.142 319.616 471.981 320.029C471.826 320.08 471.671 320.132 471.645 320.106C471.594 320.055 472.394 319.59 473.039 319.281C473.942 318.842 474.87 318.61 476.909 318.249C477.915 318.094 478.947 317.887 479.205 317.784C481.759 316.984 483.023 314.998 482.61 312.573Z" fill="white"/>
<path d="M484.958 316.727C484.287 315.256 484.133 313.863 484.494 312.547C484.545 312.418 484.597 312.289 484.649 312.289C484.7 312.289 484.855 312.366 485.01 312.47C485.319 312.676 485.964 313.037 487.616 313.94C489.705 315.075 490.892 315.953 491.718 316.959C492.44 317.836 492.879 318.842 493.085 320.081C493.214 320.777 493.137 322.454 492.956 323.151C492.389 325.344 491.099 327.098 489.215 328.104C488.931 328.259 488.699 328.362 488.673 328.362C488.648 328.362 488.751 328.104 488.906 327.795C489.525 326.479 489.602 325.215 489.138 323.796C488.854 322.919 488.261 321.861 487.074 320.081C485.655 318.017 485.319 317.475 484.958 316.727Z" fill="white"/>
<path d="M465.738 324.621C467.647 323.022 469.995 321.887 472.162 321.525C473.091 321.371 474.639 321.422 475.49 321.654C476.857 322.016 478.096 322.79 478.741 323.744C479.36 324.673 479.644 325.473 479.927 327.253C480.031 327.95 480.16 328.672 480.185 328.827C480.392 329.756 480.805 330.478 481.321 330.865C482.12 331.458 483.514 331.484 484.881 330.968C485.113 330.891 485.32 330.813 485.32 330.839C485.371 330.891 484.675 331.355 484.21 331.587C483.565 331.923 483.049 332.026 482.353 332.026C481.114 332.026 480.056 331.381 479.205 330.091C479.024 329.833 478.663 329.085 478.354 328.388C477.451 326.298 476.986 325.679 475.929 324.983C475 324.389 473.813 324.26 472.91 324.699C471.723 325.266 471.414 326.789 472.239 327.717C472.575 328.104 473.194 328.414 473.71 328.491C474.664 328.62 475.49 327.872 475.49 326.918C475.49 326.298 475.258 325.937 474.639 325.653C473.813 325.292 472.91 325.705 472.936 326.505C472.936 326.84 473.091 327.047 473.426 327.201C473.632 327.305 473.632 327.305 473.478 327.279C472.729 327.124 472.549 326.195 473.142 325.602C473.865 324.879 475.387 325.189 475.903 326.195C476.109 326.608 476.135 327.434 475.954 327.95C475.516 329.085 474.277 329.678 473.013 329.343C472.162 329.111 471.801 328.878 470.769 327.821C468.963 325.963 468.266 325.602 465.686 325.215L465.196 325.137L465.738 324.621Z" fill="white"/>
<path fill-rule="evenodd" clip-rule="evenodd" d="M452.167 283.109C458.178 290.411 467.44 301.763 467.905 302.382C468.292 302.898 468.137 303.388 467.492 303.749C467.131 303.956 466.383 304.162 466.021 304.162C465.609 304.162 465.118 303.956 464.783 303.62C464.551 303.388 463.545 301.917 461.274 298.383C459.546 295.674 458.075 293.429 458.049 293.404C457.946 293.352 457.946 293.352 461.094 298.976C463.08 302.511 463.725 303.775 463.725 303.93C463.725 304.265 463.622 304.446 463.209 304.91C462.513 305.684 462.203 306.561 461.971 308.393C461.713 310.431 461.016 311.876 459.03 314.327C457.869 315.772 457.688 316.03 457.404 316.623C457.043 317.346 456.94 317.759 456.888 318.687C456.837 319.668 456.94 320.287 457.224 321.216C457.482 322.041 457.765 322.583 458.462 323.641C459.055 324.57 459.417 325.266 459.417 325.524C459.417 325.731 459.468 325.731 460.397 325.524C462.616 325.008 464.448 324.131 465.454 323.047C466.073 322.377 466.228 322.015 466.228 321.087C466.228 320.493 466.202 320.364 466.047 320.003C465.789 319.436 465.299 318.971 464.241 318.249C462.848 317.294 462.255 316.52 462.1 315.488C461.971 314.611 462.126 314.018 462.9 312.392C463.699 310.715 463.906 310.019 464.035 308.316C464.112 307.232 464.241 306.794 464.551 306.458C464.886 306.097 465.17 305.968 465.97 305.865C467.286 305.684 468.137 305.349 468.808 304.704C469.401 304.162 469.659 303.62 469.685 302.82L469.711 302.227L469.375 301.866C468.163 300.473 451.367 282 451.29 282C451.264 282 451.677 282.49 452.167 283.109ZM460.087 319.797C460.371 319.306 460.216 318.687 459.752 318.378C459.313 318.094 458.643 318.223 458.643 318.61C458.643 318.713 458.694 318.816 458.849 318.868C459.081 318.997 459.107 319.126 458.926 319.41C458.746 319.693 458.746 319.951 458.978 320.132C459.339 320.416 459.829 320.261 460.087 319.797Z" fill="white"/>
<path fill-rule="evenodd" clip-rule="evenodd" d="M470.536 306.226C469.917 306.407 469.324 307.078 469.143 307.748C469.04 308.161 469.091 308.909 469.272 309.142C469.556 309.503 469.814 309.606 470.536 309.606C471.955 309.606 473.168 308.987 473.297 308.239C473.426 307.619 472.884 306.768 472.136 306.381C471.749 306.175 470.949 306.097 470.536 306.226ZM472.187 307.516C472.394 307.207 472.316 306.871 471.929 306.639C471.233 306.2 470.175 306.562 470.175 307.232C470.175 307.568 470.717 307.929 471.233 307.929C471.568 307.929 472.033 307.723 472.187 307.516Z" fill="white"/>
</g>
<g clip-path="url(#clip1_157_9635)">
<rect y="219" width="70" height="70" rx="35" fill="white"/>
<path fill-rule="evenodd" clip-rule="evenodd" d="M35 289C15.6691 289 0 273.331 0 254C0 234.669 15.6691 219 35 219C54.3309 219 70 234.669 70 254C70 273.331 54.3309 289 35 289ZM54.6875 268.394V240.046L39.3969 245.471V261.265L54.6875 268.394ZM32.4253 275.875V247.742L17.5 240.783V268.919L32.4253 275.875ZM54.3222 239.031L54.4556 238.985L39.7359 232.125L39.6003 232.171L39.2131 232.309L39.0294 232.374L18.0906 239.803L32.8103 246.663L39.0294 244.458L39.3947 244.327L54.075 239.121L54.32 239.033L54.3222 239.031Z" fill="#7534FC"/>
</g>
<rect x="70" y="56" width="70" height="70" rx="35" fill="#7534FC"/>
<path d="M119.25 95.4161C117.84 94.606 116.242 94.3627 114.663 94.306C113.346 94.2677 111.373 93.4043 111.373 90.9976C111.373 89.2108 112.82 87.7641 114.681 87.6891C116.26 87.6324 117.858 87.3891 119.268 86.5791C121.186 85.4707 122.586 83.6468 123.16 81.5076C123.735 79.3685 123.438 77.0888 122.333 75.1686C121.215 73.2506 119.383 71.8534 117.237 71.2825C115.091 70.7116 112.807 71.0133 110.883 72.1218C109.611 72.8533 108.555 73.9081 107.822 75.1794C107.089 76.4506 106.705 77.893 106.709 79.3604C106.709 80.9772 107.293 82.4622 108.026 83.8539C108.646 85.019 108.948 87.1807 106.843 88.4041C105.263 89.3042 103.289 88.7408 102.311 87.1624C101.484 85.8274 100.488 84.5873 99.0775 83.7789C98.1283 83.2293 97.0801 82.8721 95.9928 82.7277C94.9055 82.5833 93.8004 82.6546 92.7406 82.9373C91.6808 83.2201 90.6872 83.7089 89.8164 84.3758C88.9455 85.0427 88.2146 85.8746 87.6654 86.8241C86.5619 88.7443 86.265 91.0237 86.84 93.1625C87.4149 95.3013 88.8146 97.1247 90.7322 98.2328C92.002 98.9627 93.441 99.3468 94.9057 99.3468C96.3703 99.3468 97.8093 98.9627 99.0792 98.2328C100.489 97.4245 101.486 96.1828 102.313 94.8494C102.989 93.7593 104.701 92.3676 106.843 93.6093C108.423 94.511 108.911 96.5044 108.028 98.1595C107.294 99.5312 106.711 101.035 106.711 102.651C106.712 104.865 107.591 106.987 109.156 108.553C110.721 110.118 112.843 110.998 115.056 111C117.27 110.999 119.392 110.119 120.957 108.554C122.522 106.989 123.402 104.866 123.403 102.653C123.412 101.187 123.032 99.7454 122.302 98.474C121.573 97.2026 120.52 96.1487 119.25 95.4161Z" fill="white"/>
<g clip-path="url(#clip2_157_9635)">
<rect x="295" y="434" width="70" height="70" rx="35" fill="white"/>
<path d="M330 434C349.331 434 365 449.669 365 469C365 488.331 349.331 504 330 504C310.669 504 295 488.331 295 469C295 449.669 310.669 434 330 434ZM345.472 450.406H317.522C315.263 450.406 313.594 452.112 313.594 454.444V483.604C313.581 484.541 313.924 485.448 314.552 486.143C315.181 486.838 316.049 487.269 316.982 487.351L317.354 487.364C317.85 487.372 318.342 487.281 318.802 487.095C319.262 486.909 319.679 486.632 320.03 486.282C320.381 485.931 320.657 485.514 320.843 485.054C321.029 484.594 321.12 484.102 321.112 483.606V457.601L339.702 457.599L328.716 468.562C328.37 468.905 328.095 469.313 327.908 469.763C327.721 470.213 327.624 470.695 327.624 471.182C327.624 471.669 327.721 472.151 327.908 472.601C328.095 473.051 328.37 473.459 328.716 473.802L341.261 486.308C341.958 486.988 342.895 487.366 343.869 487.36C344.843 487.353 345.775 486.962 346.462 486.272C347.149 485.581 347.536 484.648 347.538 483.674C347.541 482.7 347.158 481.764 346.474 481.071L336.547 471.177L345.822 461.93C346.522 461.237 346.912 460.294 346.909 459.312L346.925 451.837C346.923 451.454 346.774 451.086 346.509 450.809L346.503 450.813L346.338 450.675C346.087 450.494 345.783 450.399 345.472 450.406Z" fill="#7534FC"/>
</g>
<g clip-path="url(#clip3_157_9635)">
<rect x="54" y="364" width="70" height="70" rx="35" fill="white"/>
<path d="M89 364C82.0777 364 75.3108 366.053 69.5551 369.899C63.7993 373.744 59.3133 379.211 56.6642 385.606C54.0152 392.001 53.322 399.039 54.6725 405.828C56.023 412.617 59.3564 418.854 64.2513 423.749C69.1461 428.644 75.3825 431.977 82.1719 433.327C88.9612 434.678 95.9985 433.985 102.394 431.336C108.789 428.687 114.256 424.201 118.101 418.445C121.947 412.689 124 405.922 124 399C124 389.717 120.313 380.815 113.749 374.251C107.185 367.687 98.2826 364 89 364ZM88.2358 374.727H95.7725C95.9267 374.728 96.0787 374.764 96.2168 374.832C96.3548 374.901 96.4751 375 96.5683 375.123C96.6615 375.246 96.725 375.389 96.7539 375.54C96.7828 375.692 96.7764 375.848 96.735 375.996L90.8142 396.174L96.3704 394.476L95.1804 398.516L89.5688 400.149L85.9288 412.44H105.4C105.555 412.441 105.707 412.477 105.845 412.547C105.983 412.616 106.102 412.716 106.195 412.84C106.288 412.963 106.351 413.106 106.379 413.258C106.407 413.41 106.399 413.566 106.357 413.715L104.66 419.548C104.578 419.825 104.409 420.069 104.178 420.243C103.947 420.416 103.665 420.51 103.376 420.51H73.6379L78.6633 403.53L73.1042 405.221L74.3292 401.252L79.9 399.56L86.9642 375.702C87.0416 375.423 87.208 375.177 87.4381 375.001C87.6681 374.825 87.9492 374.729 88.2388 374.727H88.2358Z" fill="#7534FC"/>
</g>
<g clip-path="url(#clip4_157_9635)">
<path d="M459 179C478.33 179 494 163.33 494 144C494 124.67 478.33 109 459 109C439.67 109 424 124.67 424 144C424 163.33 439.67 179 459 179Z" fill="#7534FC"/>
<path fill-rule="evenodd" clip-rule="evenodd" d="M459 168.627C445.398 168.627 434.373 157.602 434.373 144C434.373 130.398 445.398 119.373 459 119.373C472.602 119.373 483.627 130.398 483.627 144C483.627 157.602 472.602 168.627 459 168.627ZM459 167.179C471.801 167.179 482.179 156.801 482.179 144C482.179 131.199 471.801 120.821 459 120.821C446.199 120.821 435.821 131.199 435.821 144C435.821 156.801 446.199 167.179 459 167.179Z" fill="white"/>
<path d="M454.822 161.789C455.364 161.566 457.486 159.929 459.536 158.168C462.076 156.008 464.52 153.735 466.86 151.359C469.104 149.114 469.938 148.15 470.075 147.651C470.561 145.899 465.252 126.638 464.171 126.224C463.513 125.971 457.624 130.868 452.409 135.996C449.351 139.001 448.504 140.001 448.439 140.655C448.395 141.161 448.57 142.427 448.896 143.928C450.193 149.882 452.553 158.109 453.748 160.811C454.249 161.957 454.306 162.007 454.82 161.789H454.822Z" fill="white"/>
</g>
<defs>
<clipPath id="clip0_157_9635">
<rect width="43.4211" height="50" fill="white" transform="translate(451.29 282)"/>
</clipPath>
<clipPath id="clip1_157_9635">
<rect y="219" width="70" height="70" rx="35" fill="white"/>
</clipPath>
<clipPath id="clip2_157_9635">
<rect x="295" y="434" width="70" height="70" rx="35" fill="white"/>
</clipPath>
<clipPath id="clip3_157_9635">
<rect x="54" y="364" width="70" height="70" rx="35" fill="white"/>
</clipPath>
<clipPath id="clip4_157_9635">
<rect width="70" height="70" fill="white" transform="translate(424 109)"/>
</clipPath>
</defs>
</svg>
