<svg width="48" height="48" viewBox="0 0 48 48" fill="none" xmlns="http://www.w3.org/2000/svg">
<rect width="48" height="48" rx="8" fill="#2B2E3A"/>
<path d="M18.8822 13.2161C16.703 12.7763 14.4559 12.7978 12.2856 13.2792L12.3912 13.2603C11.5923 13.4152 10.834 13.7335 10.1638 14.1951C9.49354 14.6568 8.92587 15.2518 8.49631 15.943L8.48213 15.9683C7.86134 17.0188 7.62716 18.2532 7.8201 19.4581L7.81695 19.4281C8.03763 20.9539 8.54518 22.3237 9.28444 23.539L9.25764 23.4917C9.30808 23.5715 9.37165 23.6351 9.44836 23.6824L9.45152 23.684C9.52993 23.7264 9.6177 23.7486 9.70687 23.7486H9.73209H9.73051C9.85362 23.7427 9.96956 23.689 10.0536 23.5989C10.0995 23.5585 10.1365 23.5091 10.1622 23.4538C10.188 23.3984 10.202 23.3383 10.2034 23.2773V23.2694C10.2036 23.2202 10.1962 23.1713 10.1813 23.1244L10.1829 23.1276C10.1693 23.0934 10.1619 23.0571 10.1608 23.0204C9.48729 21.9354 9.03664 20.727 8.83521 19.4659L8.82732 19.4092C8.66014 18.3958 8.84777 17.3558 9.35852 16.4648L9.34748 16.4868C9.73371 15.895 10.2365 15.3881 10.8251 14.9971C11.4137 14.606 12.0759 14.339 12.7711 14.2123L12.8026 14.2076C14.769 13.7958 16.8 13.8017 18.764 14.2249L18.6694 14.2076H18.6757C18.6988 14.2076 18.7183 14.2149 18.734 14.2297L18.7561 14.2517H18.7655C18.8321 14.2533 18.8983 14.2407 18.9597 14.2149C19.021 14.1891 19.0763 14.1506 19.1218 14.102C19.1693 14.055 19.207 13.999 19.2327 13.9373C19.2584 13.8756 19.2716 13.8094 19.2715 13.7426V13.7095C19.2715 13.5942 19.2333 13.4822 19.1628 13.3911L19.1643 13.3927C19.0929 13.308 18.9962 13.2483 18.8885 13.2224H18.8853L18.8822 13.2161ZM11.8316 26.972C12.898 28.0975 14.0386 29.1501 15.2458 30.1229L15.312 30.1749C16.4563 31.1002 17.7331 31.9876 19.0729 32.7805L19.2211 32.8624C20.9017 33.8259 22.6601 34.6469 24.4779 35.3167L24.7285 35.3986C26.2196 35.9692 27.9771 36.4405 29.7945 36.7321L29.9506 36.7526C30.7245 36.8834 31.6151 36.9575 32.523 36.9575C33.2166 36.9575 33.8985 36.915 34.569 36.8298L34.4886 36.8377C35.7398 36.698 36.9421 36.2719 38.002 35.5925L37.9689 35.6114C38.0251 35.5539 38.0747 35.4905 38.1171 35.4223L38.1203 35.4175C38.1614 35.3472 38.1837 35.2673 38.1849 35.1858V35.1764C38.185 35.1095 38.1718 35.0433 38.1461 34.9816C38.1204 34.92 38.0827 34.864 38.0351 34.817C37.9881 34.7695 37.9322 34.7317 37.8705 34.706C37.8088 34.6803 37.7426 34.6671 37.6758 34.6672H37.6694C37.6242 34.6726 37.5806 34.6876 37.5418 34.7114L37.5433 34.7098C37.4969 34.7317 37.4543 34.7609 37.4172 34.7965C36.4509 35.4087 35.3533 35.7836 34.2143 35.8904L34.1844 35.892C32.7358 36.0469 31.2728 36.0002 29.8371 35.7533L29.9301 35.7659C28.1944 35.4836 26.4906 35.0311 24.8435 34.415L25.0295 34.4765C23.2018 33.8181 21.4441 32.9796 19.7822 31.9734L19.9146 32.0475C18.5147 31.2515 17.1778 30.3493 15.9157 29.349L15.9819 29.3994C14.7839 28.4554 13.6613 27.4193 12.6245 26.3005L12.6072 26.2816C12.5521 26.229 12.4881 26.1868 12.418 26.1571L12.4149 26.1555C12.3545 26.128 12.2889 26.1135 12.2226 26.113H12.2147C12.1478 26.1129 12.0816 26.1261 12.02 26.1518C11.9583 26.1775 11.9023 26.2152 11.8553 26.2627C11.8078 26.3097 11.7701 26.3657 11.7443 26.4274C11.7186 26.4891 11.7055 26.5553 11.7055 26.6221V26.6284C11.7055 26.6914 11.7203 26.7492 11.7497 26.8018L11.7481 26.8002L11.8316 26.972ZM36.7237 26.3273C38.1696 24.7581 39.2594 22.895 39.9188 20.8656L39.9487 20.76C40.1646 20.1387 40.2739 19.4853 40.2718 18.8276C40.2718 17.7951 40.0086 16.8242 39.5468 15.9777L39.5625 16.0092C38.968 14.9943 38.0604 14.1996 36.9759 13.7442L36.9396 13.7316C35.6343 13.186 34.2325 12.9084 32.8178 12.9151H32.7673H32.7705H32.7531C32.6911 12.9147 32.6298 12.928 32.5734 12.9538C32.5171 12.9797 32.4671 13.0176 32.4269 13.0648C32.3448 13.1622 32.3 13.2857 32.3008 13.4132V13.4321V13.4305V13.4478C32.3008 13.5802 32.348 13.7016 32.4284 13.7962V13.7946C32.4686 13.8418 32.5187 13.8797 32.575 13.9056C32.6314 13.9314 32.6927 13.9447 32.7547 13.9444H32.7736C32.8524 13.9412 32.9454 13.9412 33.0384 13.9412C34.2742 13.9412 35.4548 14.1871 36.5298 14.6332L36.4699 14.6111C37.3837 14.9849 38.1602 15.631 38.694 16.4616L38.705 16.4805C39.0258 17.1219 39.2114 17.8224 39.2502 18.5385C39.2889 19.2547 39.1801 19.9711 38.9304 20.6434L38.9415 20.6071C38.3266 22.4901 37.3198 24.2215 35.9876 25.6874L35.9971 25.6763L35.9119 25.8482C35.8838 25.901 35.8692 25.9601 35.8694 26.02V26.0263C35.8694 26.1666 35.9261 26.2942 36.0191 26.3857C36.0661 26.4332 36.1221 26.4709 36.1838 26.4966C36.2455 26.5223 36.3117 26.5355 36.3785 26.5354H36.3974C36.4703 26.5358 36.5415 26.5131 36.6008 26.4708H36.5992C36.6521 26.4327 36.7074 26.398 36.7647 26.3667L36.771 26.3636L36.7237 26.3273ZM28.4263 13.3895C26.708 13.7899 25.0245 14.327 23.3918 14.9957L23.6125 14.9153C21.907 15.6089 20.4789 16.3229 19.1139 17.1299L19.2715 17.0433C17.4949 18.0623 15.8187 19.2471 14.2654 20.5819L14.3079 20.5472C12.9507 21.7046 11.7125 22.9946 10.6116 24.398L10.5675 24.4563C9.64182 25.6312 8.89354 26.9355 8.34657 28.3276L8.31032 28.4316C7.95304 29.3099 7.7715 30.2498 7.77597 31.1979C7.77597 31.5279 7.79699 31.8515 7.83902 32.1689L7.83429 32.1311C7.86581 32.2509 7.92309 32.3512 8.0061 32.4321C8.08964 32.5109 8.20155 32.5582 8.32608 32.5582H8.35287H8.36076C8.42722 32.5583 8.49304 32.5453 8.55445 32.5199C8.61585 32.4944 8.67162 32.4571 8.71856 32.4101C8.76609 32.3631 8.8038 32.3071 8.82951 32.2454C8.85521 32.1837 8.8684 32.1175 8.86831 32.0507V31.9593C8.74079 30.8097 8.91236 29.6467 9.3664 28.5829L9.34906 28.6271C9.87665 27.2826 10.6065 26.0266 11.5132 24.9024L11.4928 24.9292C12.5592 23.5925 13.7557 22.3649 15.0645 21.2644L15.1039 21.2329C16.5591 20.005 18.1175 18.9049 19.7617 17.9449L19.9178 17.8597C21.0432 17.182 22.3704 16.5121 23.7465 15.9367L23.953 15.8611C25.3336 15.284 26.7577 14.817 28.212 14.4645L28.4232 14.4204C28.5961 14.3862 28.7582 14.311 28.8961 14.2013L28.8945 14.2029C28.9752 14.1158 29.0202 14.0016 29.0206 13.8829V13.8561V13.8577C29.0147 13.7346 28.961 13.6186 28.8708 13.5345C28.8305 13.4887 28.7811 13.4517 28.7258 13.4259C28.6704 13.4002 28.6103 13.3861 28.5493 13.3848H28.4232L28.4263 13.3895ZM16.4327 35.2615C17.1182 37.3453 18.2354 39.2611 19.7113 40.884L19.7003 40.8713C20.2353 41.4899 20.8929 41.9907 21.6314 42.342C22.3699 42.6934 23.1733 42.8877 23.9908 42.9126H24.0003C25.187 42.9027 26.3382 42.5071 27.2804 41.7856L27.2678 41.795C28.3722 40.9599 29.2987 39.9128 29.9931 38.715L30.0199 38.6646C30.0427 38.6183 30.0632 38.571 30.0814 38.5227L30.0846 38.5149C30.0991 38.469 30.1065 38.4211 30.1066 38.373V38.3572C30.1067 38.2904 30.0935 38.2242 30.0678 38.1625C30.0421 38.1008 30.0044 38.0448 29.9569 37.9978C29.9099 37.9503 29.8539 37.9126 29.7922 37.8869C29.7305 37.8612 29.6643 37.848 29.5975 37.8481H29.588C29.5053 37.8492 29.4243 37.8721 29.3532 37.9143L29.3548 37.9127C29.2782 37.9618 29.2131 38.0269 29.164 38.1035L29.1625 38.1066C28.545 39.1849 27.7276 40.1355 26.754 40.9076L26.7335 40.9234C25.9555 41.5368 24.9972 41.877 24.0066 41.8912H24.0034C23.297 41.8589 22.6052 41.6785 21.9731 41.3616C21.3409 41.0447 20.7824 40.5984 20.3339 40.0517L20.3276 40.0422C19.0401 38.583 18.063 36.8771 17.4557 35.0282L17.4273 34.9257C17.3681 34.8376 17.2964 34.7585 17.2145 34.6909L17.2129 34.6893C17.1302 34.6214 17.0268 34.5836 16.9198 34.5821H16.9119C16.7888 34.588 16.6728 34.6418 16.5888 34.7319C16.5412 34.7789 16.5035 34.8348 16.4778 34.8965C16.4521 34.9582 16.4389 35.0244 16.439 35.0913V35.2694L16.4327 35.2615ZM31.9083 34.3599C32.3055 33.132 32.6507 31.6519 32.8777 30.134L32.8966 29.9763C33.1157 28.5577 33.2402 26.9216 33.2402 25.2571V25.2019V25.205V24.8331C33.2402 22.7556 33.0526 20.7222 32.6932 18.7503L32.7248 18.9568C32.4108 17.1228 31.8998 15.3281 31.2005 13.6039L31.2636 13.7773C30.7017 12.3436 29.9327 11.0001 28.9812 9.78937L29.0064 9.82247C28.2628 8.84517 27.2995 8.05677 26.1944 7.52116L26.1487 7.50066C26.1204 7.47418 26.0834 7.45903 26.0446 7.45811H25.917C25.7894 7.45783 25.6658 7.50311 25.5686 7.58578C25.5214 7.62597 25.4851 7.676 25.4592 7.73236C25.4334 7.78872 25.4201 7.85005 25.4205 7.91206V7.93098V7.94201C25.4215 8.0513 25.4504 8.1485 25.5071 8.23362L25.5056 8.23204C25.5581 8.3119 25.6285 8.36865 25.7168 8.40228L25.7199 8.40385C26.7428 8.90301 27.6305 9.64097 28.3081 10.5554L28.3223 10.5743C29.1357 11.6462 29.8292 12.8725 30.3494 14.1887L30.3856 14.2927C30.9562 15.6956 31.4338 17.3475 31.738 19.0577L31.7601 19.2106C32.0754 20.9003 32.255 22.8438 32.255 24.8299V24.956V24.9497V25.2334C32.2549 26.8356 32.1327 28.4353 31.8894 30.0189L31.9114 29.8455C31.679 31.4158 31.3152 32.9639 30.8238 34.4734L30.8806 34.2732L30.9231 34.1471V34.1959C30.9231 34.3362 30.9799 34.4639 31.0729 34.5553C31.1199 34.6029 31.1758 34.6406 31.2375 34.6663C31.2992 34.692 31.3654 34.7052 31.4322 34.7051H31.4464C31.554 34.7039 31.658 34.6661 31.7412 34.5979C31.8168 34.5398 31.8756 34.4625 31.9114 34.3741L31.913 34.3709L31.9083 34.3599ZM41.4524 33.8429V33.8113C41.4524 33.1572 41.1813 32.5661 40.7447 32.1437C40.5244 31.9189 40.2615 31.7405 39.9714 31.6187C39.6812 31.4969 39.3696 31.4342 39.055 31.4344H38.9998H39.0029H38.973C38.3173 31.4344 37.7262 31.7071 37.3053 32.1437C36.8687 32.5661 36.596 33.1572 36.596 33.8113V33.8444V33.8933C36.596 34.5553 36.8671 35.1543 37.3053 35.583C37.7278 36.0212 38.3189 36.2939 38.9746 36.2939H39.0061H39.0565C39.7186 36.2939 40.316 36.0228 40.7463 35.5846C40.9705 35.3644 41.1486 35.1017 41.2701 34.8118C41.3917 34.5219 41.4542 34.2108 41.454 33.8965V33.8381V33.8413L41.4524 33.8429ZM40.42 33.8429V33.8744C40.4201 34.0562 40.3841 34.2363 40.314 34.404C40.2439 34.5718 40.1412 34.724 40.0117 34.8517C39.8841 34.9811 39.7319 35.0839 39.5641 35.1539C39.3963 35.224 39.2163 35.26 39.0345 35.2599H39.0014H38.9982C38.8155 35.26 38.6345 35.224 38.4657 35.1539C38.2969 35.0839 38.1436 34.9812 38.0146 34.8517C37.879 34.7262 37.7707 34.5741 37.6967 34.4049C37.6226 34.2356 37.5844 34.0528 37.5843 33.8681V33.8413V33.8429C37.5845 33.6576 37.6226 33.4743 37.6963 33.3043C37.77 33.1343 37.8779 32.9812 38.0131 32.8546C38.1396 32.7191 38.2926 32.611 38.4626 32.5369C38.6326 32.4629 38.816 32.4246 39.0014 32.4242H39.0266C39.4144 32.4242 39.7643 32.5898 40.0086 32.853L40.0102 32.8546C40.2624 33.1068 40.4184 33.4551 40.4184 33.8397L40.42 33.8429ZM8.99441 36.3002H9.02435C9.6785 36.3002 10.2696 36.0291 10.692 35.5925C10.9172 35.3722 11.0961 35.109 11.2182 34.8186C11.3403 34.5282 11.4031 34.2162 11.4029 33.9012V33.8208C11.4029 33.1651 11.1302 32.574 10.6936 32.1531C10.4775 31.9289 10.2185 31.7505 9.93199 31.6287C9.64546 31.5068 9.3373 31.4439 9.02593 31.4438H8.99283H8.99441H8.94397C8.28194 31.4438 7.68297 31.7149 7.25423 32.1531C6.81761 32.5756 6.54492 33.1667 6.54492 33.8208V33.8539V33.8523V33.9028C6.54492 34.5648 6.81604 35.1638 7.25423 35.5925C7.47445 35.8167 7.73718 35.9948 8.02704 36.1164C8.3169 36.2379 8.62809 36.3004 8.94239 36.3002H8.99756H8.99441ZM8.99441 35.2678H8.96288C8.78106 35.2679 8.60102 35.2319 8.43324 35.1618C8.26547 35.0917 8.11331 34.989 7.98561 34.8595C7.85617 34.7318 7.75342 34.5797 7.68333 34.4119C7.61325 34.2441 7.57722 34.0641 7.57736 33.8823V33.846C7.57736 33.4614 7.73341 33.1146 7.98561 32.8624C8.11103 32.7268 8.26315 32.6185 8.43241 32.5445C8.60168 32.4704 8.78443 32.4322 8.96919 32.4321H8.99598C9.38531 32.4337 9.73524 32.5976 9.98271 32.8609C10.1182 32.9874 10.2263 33.1404 10.3003 33.3104C10.3743 33.4804 10.4127 33.6638 10.413 33.8492V33.8744C10.413 34.0588 10.3749 34.2411 10.3011 34.4101C10.2273 34.5791 10.1195 34.731 9.98429 34.8564L9.98271 34.858C9.72236 35.116 9.37044 35.2605 9.00386 35.2599H8.99441V35.2678ZM24.0003 9.947H24.0523C24.7143 9.947 25.3117 9.67588 25.742 9.23769C26.1802 8.81525 26.4529 8.22416 26.4529 7.56844V7.48648C26.4529 6.82446 26.1818 6.22706 25.7436 5.79674C25.5233 5.57202 25.2604 5.39352 24.9702 5.27172C24.6801 5.14992 24.3685 5.08727 24.0538 5.08743H23.9987H24.0018H23.9719C23.3162 5.08743 22.7251 5.36012 22.3042 5.79674C21.866 6.22706 21.5949 6.82446 21.5949 7.48648V7.54165V7.53849V7.56844C21.5949 8.22416 21.8676 8.81525 22.3042 9.23611C22.7266 9.67273 23.3177 9.94542 23.9719 9.94542H23.9987H23.9971L24.0003 9.947ZM24.0003 8.91613H23.9892C23.8107 8.91599 23.6341 8.87975 23.4699 8.8096C23.3058 8.73944 23.1575 8.63681 23.034 8.50788C22.9051 8.38441 22.8025 8.23614 22.7323 8.07199C22.6621 7.90784 22.6259 7.7312 22.6258 7.55268V7.50855C22.6258 7.12552 22.7818 6.78032 23.034 6.53127C23.1575 6.40235 23.3058 6.29972 23.4699 6.22956C23.6341 6.15941 23.8107 6.12317 23.9892 6.12303H24.0334C24.4164 6.12303 24.7616 6.27907 25.0106 6.53127C25.2628 6.78032 25.4189 7.12552 25.4189 7.50855V7.54165V7.54007V7.5511C25.4187 7.72962 25.3825 7.90626 25.3123 8.07041C25.2422 8.23457 25.1396 8.38283 25.0106 8.50631C24.8829 8.63622 24.7305 8.73937 24.5625 8.80974C24.3944 8.88011 24.214 8.91627 24.0318 8.91613H24.0003ZM24.388 26.671C24.3295 26.6976 24.2663 26.7121 24.202 26.7135H23.9703C23.4927 26.7135 23.0608 26.5165 22.7519 26.1981C22.5881 26.04 22.458 25.8505 22.3694 25.6408C22.2808 25.4311 22.2356 25.2057 22.2364 24.9781V24.9134C22.2364 24.4437 22.435 24.0213 22.7519 23.725L22.7534 23.7234C23.0655 23.4176 23.4943 23.2284 23.9672 23.2284H24.0018H24.0334C24.4463 23.2284 24.8246 23.375 25.121 23.6178L25.1178 23.6162C25.4141 23.8495 25.6269 24.1758 25.7168 24.5509L25.7184 24.5619V24.5793C25.7184 24.6486 25.7257 24.7164 25.7404 24.7826L25.7389 24.7763C25.7536 24.8288 25.7609 24.8861 25.7609 24.9481V24.9812C25.7609 25.3942 25.6143 25.7725 25.3716 26.0688L25.3732 26.0657C25.1288 26.3683 24.7884 26.5858 24.3975 26.6678L24.3864 26.6694L24.388 26.671Z" fill="#9FEAF9"/>
</svg>
