<svg width="400" height="400" viewBox="0 0 400 400" fill="none" xmlns="http://www.w3.org/2000/svg">
<path d="M302.665 40.0776C285.057 31.7552 265.824 26.9392 246.416 25.5424C211.709 23.0448 177.051 33.3232 143.69 41.6608C136.63 43.4256 130.906 45.2368 125.364 50.1712C120.497 54.5048 116.613 59.8912 113.459 65.5672C107.454 76.3728 103.537 88.3384 96.5126 98.5104C83.8942 116.779 62.575 127.427 49.3006 145.226C37.4518 161.113 33.0158 181.528 33.0078 201.347C32.991 241.857 51.5134 282.592 83.8502 306.991C116.188 331.39 162.017 337.766 198.71 320.602C230.376 305.79 252.737 276.149 283.05 258.735C300.457 248.735 320.426 242.798 335.581 229.631C354.117 213.527 362.819 188.748 366.495 164.47C370.125 140.502 369.415 115.149 359.203 93.164C348.089 69.2352 326.534 51.3192 302.665 40.0776Z" fill="#7534FC" fill-opacity="0.4"/>
<path d="M127.6 390.4C174.213 390.4 212 386.639 212 382C212 377.361 174.213 373.6 127.6 373.6C80.9874 373.6 43.2002 377.361 43.2002 382C43.2002 386.639 80.9874 390.4 127.6 390.4Z" fill="#7534FC" fill-opacity="0.7"/>
<path d="M181.318 115.704C183.27 115.867 185.279 116.09 186.996 117.033C188.713 117.976 190.079 119.822 189.873 121.77C189.706 123.34 188.559 124.67 187.196 125.465C185.833 126.26 184.262 126.609 182.721 126.946C170.818 129.553 158.857 132.168 146.695 132.894C144.233 133.041 141.721 133.104 139.349 132.427C136.978 131.75 134.737 130.222 133.762 127.957C132.731 125.562 133.29 122.688 134.729 120.513C138.999 114.058 148.002 115.767 154.809 115.466C163.641 115.074 172.502 114.968 181.318 115.704Z" fill="#EBA37B"/>
<path d="M142.176 116.731C143.99 117.934 145.843 119.172 147.141 120.921C148.438 122.669 149.09 125.059 148.237 127.062C147.405 129.014 145.307 130.197 143.205 130.483C140.639 130.832 138.255 129.93 135.757 129.604C132.926 129.235 130.107 128.955 127.344 128.196C124.201 127.333 121.151 125.913 118.795 123.661C116.636 121.598 115.14 118.909 114.193 116.077C113.5 114.003 113.089 111.743 113.678 109.638C114.217 107.712 115.609 106.043 117.407 105.167C121.59 103.129 126.073 106.064 129.494 108.327C133.725 111.123 137.949 113.93 142.176 116.731Z" fill="#EBA37B"/>
<path d="M141.236 116.312C141.327 118.096 141.217 119.89 140.908 121.65" stroke="black" stroke-width="1.1253" stroke-miterlimit="10" stroke-linecap="round" stroke-linejoin="round"/>
<path d="M134.549 111.214C131.489 117.685 127.322 123.63 122.284 128.716C116.705 127.326 111.101 125.625 106.307 122.453C101.513 119.281 97.5678 114.43 96.6614 108.752C96.251 106.183 96.7182 103.416 97.587 100.988C98.3326 98.9064 99.8382 95.5728 102.214 95.0368C103.221 94.8096 104.271 94.9544 105.284 95.1464C108.717 95.7968 112.044 96.9936 115.109 98.6672C118.02 100.256 120.913 101.902 123.713 103.681C127.427 106.041 131.043 108.554 134.549 111.214Z" fill="#7534FC"/>
<path d="M132.814 110.274C130.383 114.789 127.576 119.1 124.43 123.149" stroke="black" stroke-width="1.1253" stroke-miterlimit="10" stroke-linecap="round" stroke-linejoin="round"/>
<path d="M189.373 364.059C188.054 363.62 186.651 363.516 185.268 363.376C177.928 362.625 170.676 360.702 164.096 357.364C162.263 356.433 160.467 355.388 158.497 354.796C153.272 353.224 147.7 355.032 142.248 355.239C140.471 362.084 140.675 369.732 141.491 376.769C145.64 376.861 149.789 376.953 153.939 377.045C154.425 375.477 154.912 373.91 155.399 372.342C155.694 371.39 165.764 373.318 166.718 373.819C168.164 374.576 169.279 375.73 170.887 376.339C172.575 376.978 174.37 377.323 176.168 377.45C179.549 377.69 182.936 377.2 186.29 376.712C187.969 376.467 189.749 376.177 191.025 375.059C192.771 373.528 192.951 371.052 192.828 368.885C192.689 366.404 191.904 364.9 189.373 364.059Z" fill="#7534FC"/>
<path d="M159.79 359.401C159.278 360.395 159.71 361.854 160.785 362.163C161.443 362.353 162.162 362.093 162.702 361.673C163.243 361.252 163.647 360.686 164.078 360.152C165.642 358.215 167.651 356.638 169.906 355.579C170.824 355.148 171.838 354.796 172.838 354.967C173.838 355.137 174.783 355.991 174.731 357.005C174.693 357.743 174.143 358.379 173.484 358.712C172.825 359.045 172.068 359.123 171.33 359.156C169.282 359.247 167.357 359.022 165.418 358.391C163.622 357.81 160.864 357.319 159.79 359.401Z" stroke="black" stroke-width="1.1253" stroke-miterlimit="10" stroke-linecap="round"/>
<path d="M170.892 363.394C172.985 361.51 175.563 360.167 178.307 359.532" stroke="black" stroke-width="1.1253" stroke-miterlimit="10" stroke-linecap="round"/>
<path d="M174.622 365.385C176.645 363.255 179.236 361.669 182.053 360.835" stroke="black" stroke-width="1.1253" stroke-miterlimit="10" stroke-linecap="round"/>
<path d="M180.628 367.09C182.266 364.759 184.563 362.895 187.182 361.773" stroke="black" stroke-width="1.1253" stroke-miterlimit="10" stroke-linecap="round"/>
<path d="M140.847 369.132C148.315 370.109 155.954 368.692 163.403 369.799C168.214 370.513 172.845 372.268 177.688 372.702C182.441 373.128 187.204 372.265 191.899 371.407" stroke="black" stroke-width="1.1253" stroke-miterlimit="10" stroke-linecap="round"/>
<path d="M101.589 225.587L138.592 355.979H166.501L133.641 191.679L98.9805 195.73L101.589 225.587Z" fill="#200026"/>
<path d="M123.75 199.388C125.307 201.771 126.893 204.188 129.057 206.037C131.22 207.886 134.08 209.122 136.895 208.703" stroke="white" stroke-width="1.1253" stroke-miterlimit="10" stroke-linecap="round" stroke-linejoin="round"/>
<path d="M137.908 352.666C146.979 351.363 156.123 350.563 165.282 350.271" stroke="white" stroke-width="1.1253" stroke-miterlimit="10" stroke-linecap="round" stroke-linejoin="round"/>
<path d="M141.41 275.675C140.717 275.71 140.136 276.266 139.865 276.906C139.593 277.545 139.57 278.258 139.554 278.952C139.517 280.562 139.502 282.226 140.113 283.717C140.725 285.208 142.127 286.494 143.737 286.461" stroke="white" stroke-width="1.1253" stroke-miterlimit="10" stroke-linecap="round" stroke-linejoin="round"/>
<path d="M112.85 372.162C111.531 371.723 110.127 371.619 108.744 371.479C101.405 370.728 94.1522 368.806 87.573 365.467C85.7394 364.536 83.9434 363.491 81.9738 362.899C76.749 361.327 71.177 363.135 65.725 363.342C63.9474 370.188 64.1514 377.835 64.9674 384.872C69.117 384.964 73.2658 385.056 77.4154 385.148C77.9018 383.58 78.3882 382.013 78.8754 380.445C79.1706 379.493 89.2402 381.421 90.1946 381.922C91.641 382.679 92.7554 383.833 94.3634 384.442C96.0514 385.081 97.8466 385.426 99.6442 385.553C103.026 385.793 106.412 385.303 109.767 384.815C111.447 384.57 113.227 384.28 114.503 383.162C116.248 381.63 116.428 379.155 116.306 376.988C116.165 374.506 115.381 373.003 112.85 372.162Z" fill="#7534FC"/>
<path d="M77.4249 368.416C76.6977 369.38 76.2177 370.724 76.8017 371.78C77.3369 372.748 78.5713 373.102 79.6761 373.072C82.8913 372.981 85.5009 370.52 87.5793 368.065C89.6585 365.611 91.7353 362.871 94.7825 361.843C95.7865 361.504 96.8929 361.376 97.9057 361.687C98.9185 361.998 99.8129 362.806 100.039 363.84C100.393 365.458 99.0145 367.04 97.4369 367.54C90.9769 369.59 82.5865 361.571 77.4249 368.416Z" stroke="black" stroke-width="1.1253" stroke-miterlimit="10" stroke-linecap="round"/>
<path d="M89.041 371.925C92.0818 370.233 95.5362 369.291 99.0154 369.206" stroke="black" stroke-width="1.1253" stroke-miterlimit="10" stroke-linecap="round"/>
<path d="M95.1396 373.028C97.8932 371.312 101.023 370.204 104.242 369.803" stroke="black" stroke-width="1.1253" stroke-miterlimit="10" stroke-linecap="round"/>
<path d="M102.822 374.157C104.308 372.172 106.387 370.637 108.721 369.803" stroke="black" stroke-width="1.1253" stroke-miterlimit="10" stroke-linecap="round"/>
<path d="M65.0645 377.321C73.7589 376.824 82.5268 377.639 90.9804 379.731C95.0828 380.746 99.1285 382.063 103.321 382.589C107.514 383.115 111.963 382.789 115.634 380.695" stroke="black" stroke-width="1.1253" stroke-miterlimit="10" stroke-linecap="round"/>
<path d="M59.8184 205.183L63.8696 364.081H86.376L100.33 227.689L110.683 223.638L115.185 196.63L59.8184 205.183Z" fill="#200026"/>
<path d="M60.1035 217.92C63.6283 218.04 67.1819 216.884 69.9619 214.713C72.7411 212.543 74.7251 209.375 75.4635 205.927" stroke="white" stroke-width="1.1253" stroke-miterlimit="10" stroke-linecap="round" stroke-linejoin="round"/>
<path d="M106.385 203.897C105.932 208.307 105.907 212.759 106.308 217.175C104.769 217.07 103.209 217.299 101.768 217.844" stroke="white" stroke-width="1.1253" stroke-miterlimit="10" stroke-linecap="round" stroke-linejoin="round"/>
<path d="M63.8047 359.247C71.4063 359.179 79.0055 358.738 86.5639 357.925" stroke="white" stroke-width="1.1253" stroke-miterlimit="10" stroke-linecap="round" stroke-linejoin="round"/>
<path d="M86.2564 279.529C83.5756 282.297 81.8964 286.016 81.5932 289.856C81.5324 290.627 81.53 291.426 81.8244 292.14C82.1188 292.855 82.774 293.467 83.546 293.502" stroke="white" stroke-width="1.1253" stroke-miterlimit="10" stroke-linecap="round" stroke-linejoin="round"/>
<path d="M141.389 170.298C141.389 163.034 143.584 157.266 147.974 152.995C152.364 148.726 158.351 146.589 165.936 146.589C171.364 146.589 175.695 148.106 178.928 151.139C182.161 154.174 183.777 158.443 183.777 163.951C183.777 170.897 181.581 176.524 177.192 180.834C172.801 185.146 167.093 187.301 160.069 187.301C154.16 187.301 149.571 185.783 146.298 182.75C143.025 179.718 141.389 175.566 141.389 170.298Z" fill="#7534FC"/>
<path d="M149.444 138.4L151.121 129.06C152.636 120.84 155.57 113.775 159.922 107.866C164.272 101.96 171.157 95.7724 180.577 89.306C190.475 82.6004 196.761 77.5316 199.436 74.0988C202.11 70.6675 203.447 66.8355 203.447 62.6035C203.447 53.1051 198.138 48.3547 187.522 48.3547C183.529 48.3547 179.278 48.9948 174.769 50.2708C170.258 51.5484 162.215 54.9011 150.641 60.3292L139.625 33.866C157.985 23.8884 175.746 18.8979 192.91 18.8979C207.039 18.8979 218.214 22.3916 226.438 29.3756C234.658 36.3612 238.771 46.1203 238.771 58.6524C238.771 65.2796 237.633 71.2459 235.358 76.554C233.083 81.8635 229.791 86.7731 225.479 91.2819C221.168 95.7931 213.584 101.68 202.728 108.944C197.619 112.378 193.767 115.291 191.174 117.685C188.579 120.08 186.483 122.655 184.887 125.408C183.29 128.162 181.774 132.494 180.337 138.4H149.444Z" fill="#200026"/>
<path d="M147.845 136.393L149.521 127.053C151.037 118.832 153.97 111.767 158.322 105.858C162.673 99.952 169.557 93.7649 178.977 87.2985C188.875 80.5928 195.161 75.524 197.837 72.0912C200.51 68.66 201.848 64.8281 201.848 60.5961C201.848 51.0969 196.538 46.3464 185.922 46.3464C181.929 46.3464 177.678 46.9864 173.169 48.2624C168.658 49.5401 160.615 52.8928 149.041 58.3209L138.025 31.8576C156.385 21.88 174.146 16.8896 191.31 16.8896C205.44 16.8896 216.614 20.3832 224.838 27.3672C233.058 34.3528 237.171 44.112 237.171 56.6441C237.171 63.2713 236.033 69.2376 233.758 74.5457C231.483 79.8552 228.191 84.7649 223.88 89.2737C219.569 93.7849 211.985 99.6729 201.129 106.936C196.019 110.37 192.167 113.282 189.574 115.677C186.979 118.072 184.884 120.646 183.288 123.4C181.69 126.154 180.174 130.486 178.737 136.392L147.845 136.393Z" fill="#7534FC"/>
<path d="M151.136 24.7082C151.244 28.4898 153.731 31.9514 156.994 33.8666C160.257 35.7818 164.185 36.3082 167.959 36.0442C179.225 35.257 189.64 27.181 193.207 16.4658" stroke="white" stroke-width="1.1253" stroke-miterlimit="10" stroke-linecap="round" stroke-linejoin="round"/>
<path d="M196.336 47.9938C199.687 46.349 203.087 44.6874 206.755 43.993C210.422 43.2986 214.451 43.6786 217.488 45.8474C220.167 47.761 221.807 50.8769 222.511 54.0937C224.089 61.2937 221.015 69.2954 215.023 73.5874C209.031 77.8794 200.465 78.2137 194.156 74.4025" stroke="white" stroke-width="1.1253" stroke-miterlimit="10" stroke-linecap="round" stroke-linejoin="round"/>
<path d="M189.632 115.192C185.637 109.763 183.295 102.543 185.592 96.2044C188.071 89.3644 195.442 85.2356 202.689 84.5948C209.936 83.9532 217.113 86.1724 223.942 88.6812" stroke="white" stroke-width="1.1253" stroke-miterlimit="10" stroke-linecap="round" stroke-linejoin="round"/>
<path d="M200.031 28.5555C199.255 31.4235 200.463 34.7371 202.943 36.3739C205.422 38.0115 208.991 37.7995 211.215 35.8291C212.905 34.3323 213.732 32.0571 213.968 29.8123C214.202 27.5947 213.859 25.1891 212.403 23.4995C208.817 19.3363 201.181 24.3139 200.031 28.5555Z" stroke="white" stroke-width="1.1253" stroke-miterlimit="10" stroke-linecap="round" stroke-linejoin="round"/>
<path d="M170.8 93.2002C173.965 95.8322 175.426 100.374 174.598 104.407C173.771 108.439 170.598 111.901 166.652 113.075C162.706 114.25 158.402 113.476 155.504 110.551" stroke="white" stroke-width="1.1253" stroke-miterlimit="10" stroke-linecap="round" stroke-linejoin="round"/>
<path d="M169.059 146.418C164.267 150.922 162.787 158.586 165.557 164.551C168.327 170.516 175.137 174.33 181.671 173.575" stroke="white" stroke-width="1.1253" stroke-miterlimit="10" stroke-linecap="round" stroke-linejoin="round"/>
<path d="M149.515 169.717C150.229 172.377 152.754 174.444 155.503 174.617C157.59 174.748 159.803 173.739 160.765 171.883C161.443 170.572 161.449 168.984 161.013 167.575C160.462 165.795 159.22 164.238 157.605 163.307C155.658 162.185 152.781 161.653 151.122 163.441C149.596 165.087 148.93 167.538 149.515 169.717Z" stroke="white" stroke-width="1.1253" stroke-miterlimit="10" stroke-linecap="round" stroke-linejoin="round"/>
<path d="M59.5415 208.923C73.2631 207.392 86.9855 205.86 100.708 204.329C107.729 203.546 114.749 202.767 121.769 201.979C124.892 201.628 135.441 198.88 135.441 198.88C135.441 198.88 134.626 196.934 134.395 195.839C132.055 184.721 129.577 173.885 128.361 162.603C126.85 148.597 125.34 134.591 123.829 120.585C123.085 113.684 122.098 106.242 117.292 101.236C112.653 96.4051 105.497 95.0059 98.8047 94.7691C84.3239 94.2571 59.5007 96.0475 53.8687 112.498C52.5703 116.291 52.3895 120.365 52.3191 124.373C51.8183 152.863 57.3343 180.666 59.5415 208.923Z" fill="#7534FC"/>
<path d="M56.0918 176.119C56.2678 171.481 60.547 167.388 65.1878 167.417C70.8886 167.453 75.7222 172.763 81.3982 172.228C85.3158 171.858 88.363 168.816 91.2054 166.094C94.0478 163.372 97.5438 160.626 101.453 161.076C106.132 161.613 109.207 166.476 113.739 167.756C116.537 168.546 119.62 167.834 122.08 166.284C124.54 164.733 126.433 162.413 127.925 159.918" stroke="white" stroke-width="1.1253" stroke-miterlimit="10" stroke-linecap="round" stroke-linejoin="round"/>
<path d="M53.9824 154.056C55.1608 151.019 58.7032 149.47 61.96 149.523C65.2168 149.578 68.3016 150.88 71.3584 152.006C74.4152 153.131 77.6928 154.108 80.8904 153.487C84.848 152.717 87.8992 149.683 90.9208 147.014C93.9424 144.344 97.636 141.775 101.638 142.262C106.021 142.795 109.127 146.767 113.182 148.514C117.416 150.338 122.688 149.427 126.065 146.288" stroke="white" stroke-width="1.1253" stroke-miterlimit="10" stroke-linecap="round" stroke-linejoin="round"/>
<path d="M124.248 125.765C124.446 119.334 123.375 112.866 121.112 106.843" stroke="black" stroke-width="1.1253" stroke-miterlimit="10" stroke-linecap="round" stroke-linejoin="round"/>
<path d="M72.1733 97.3187C71.6413 98.5595 71.6245 99.9907 72.0093 101.285C72.3941 102.58 73.1637 103.74 74.1197 104.694C76.3141 106.885 79.4373 107.971 82.5317 108.172C85.6261 108.375 88.7181 107.763 91.7109 106.954C93.6261 106.436 95.5357 105.829 97.2645 104.855C98.9933 103.88 100.544 102.512 101.464 100.753C102.384 98.9947 102.612 96.8227 101.804 95.0107" stroke="black" stroke-width="1.1253" stroke-miterlimit="10" stroke-linecap="round" stroke-linejoin="round"/>
<path d="M72.2265 74.2354C69.8265 77.509 71.7497 83.0522 72.2089 86.7178C72.7321 90.8946 73.2553 95.0714 73.7793 99.2474C73.8929 100.158 74.0257 101.115 74.5801 101.845C75.0473 102.462 75.7593 102.839 76.4649 103.157C80.2545 104.863 84.5729 105.371 88.6545 104.59C90.7705 104.185 92.8177 103.435 94.7009 102.391C95.7017 101.837 96.6569 101.199 97.5513 100.486C98.1721 99.9906 99.4465 99.3834 99.5569 98.541C99.6201 98.0602 99.4665 97.5794 99.3121 97.1202C96.3281 88.265 91.7041 79.5722 84.1401 74.0858C82.1209 72.621 79.7649 71.369 77.2745 71.5042C75.2993 71.6106 73.3945 72.6418 72.2265 74.2354Z" fill="#F7AC81"/>
<path d="M86.6076 96.6487C90.586 97.9839 95.11 97.5983 98.8052 95.6095C97.9036 93.3519 96.9964 91.0847 95.7652 88.9879C95.4604 88.4695 95.1156 87.9423 94.5916 87.6479C93.7804 87.1927 92.7748 87.4071 91.87 87.6215C88.194 88.4919 84.366 89.1511 80.5828 88.6775C79.914 88.5935 78.8204 88.1367 78.2756 88.7359C77.7236 89.3431 78.3468 90.0671 78.7052 90.5983C79.5908 91.9119 80.6796 93.0879 81.9164 94.0775C83.3164 95.1959 84.9084 96.0783 86.6076 96.6487Z" fill="#F78681"/>
<path d="M108.299 76.2939C108.469 78.5595 108.547 80.9547 107.498 82.9699C106.178 85.5043 103.395 86.8651 100.768 87.9915C96.8874 89.6555 92.8819 91.1931 88.6787 91.5867C84.4747 91.9803 79.9987 91.1099 76.7571 88.4043C74.9779 86.9195 73.6523 84.9643 72.5195 82.9427C69.5531 77.6499 67.7402 71.5963 68.105 65.5403C68.4698 59.4843 71.1714 53.4555 75.9498 49.7179C79.2338 47.1491 83.2723 45.7691 87.2555 44.5363C89.3675 43.8819 91.6755 43.2603 93.7427 44.0451C96.0451 44.9187 97.3971 47.2043 99.5331 48.3531C101 49.1419 102.587 49.0971 103.399 50.7195C104.569 53.0563 104.997 56.1403 105.59 58.6747C106.232 61.4211 106.775 64.1907 107.215 66.9763C107.702 70.0651 108.064 73.1747 108.299 76.2939Z" fill="#F7AC81"/>
<path d="M61.8125 48.9097C58.5613 50.4329 56.1357 53.4993 55.1397 56.9489C54.1437 60.3977 54.5229 64.1777 55.9317 67.4801C56.5669 68.9697 57.4269 70.3985 58.6669 71.4393C60.0253 72.5801 61.7653 73.1897 63.5189 73.4577C66.8181 73.9625 70.3109 73.2873 73.1029 71.4585C75.8949 69.6297 77.9325 66.6369 78.4597 63.3409C78.9869 60.0457 77.9469 56.5033 75.6141 54.1169C85.3557 54.1289 95.2165 52.6193 104.41 49.3993C106.571 48.6425 108.75 47.7705 110.472 46.2601C112.193 44.7497 113.398 42.4737 113.077 40.2065C112.709 37.5993 110.408 35.6001 107.904 34.7881C105.4 33.9761 102.699 34.1217 100.07 34.2761C93.4901 34.6625 86.9101 35.0497 80.3301 35.4361C78.6453 35.5353 76.9605 35.6401 75.2749 35.7329C74.0485 35.8009 72.9645 35.4649 71.7405 35.5097C69.1165 35.6049 66.5253 36.6209 64.5669 38.3745C63.0109 39.7673 61.8725 41.6097 61.2789 43.6081C60.9813 44.6089 60.7517 45.7361 60.8077 46.7865C60.8213 47.0425 61.2301 49.1825 61.8125 48.9097Z" fill="#200026"/>
<path d="M56.284 61.2051C56.8792 60.4875 57.4752 59.7699 58.0704 59.0523C58.2296 59.4795 58.2064 59.9499 58.1992 60.4067C58.192 60.8627 58.2096 61.3419 58.4368 61.7379C58.664 62.1339 59.1664 62.4083 59.5872 62.2323C59.924 62.0923 60.1008 61.7291 60.248 61.3963C61.0816 59.5163 61.9144 57.6371 62.748 55.7571C62.8984 55.4179 63.052 55.0635 63.0368 54.6923C63.0216 54.3211 62.7832 53.9315 62.416 53.8731C62.0744 53.8195 61.756 54.0595 61.5368 54.3267C61.3176 54.5939 61.1424 54.9083 60.8568 55.1027C60.5704 55.2963 60.1152 55.3083 59.9344 55.0139C59.7272 54.6763 60.0176 54.2499 60.0016 53.8539C59.9608 52.8379 58.8192 53.1379 58.4216 53.7107C58.0168 54.2939 57.6696 55.0555 57.3376 55.6883C56.4568 57.3691 56.0736 59.3155 56.284 61.2051Z" fill="#31003B"/>
<path d="M65.7845 58.3242C65.3901 59.4698 65.3949 60.709 65.4037 61.921C65.4053 62.1586 65.4317 62.4402 65.6389 62.5562C65.9373 62.7234 66.2629 62.3922 66.4453 62.1026C66.7357 61.6434 67.0253 61.1834 67.3157 60.7234C67.4349 60.5346 67.5765 60.3298 67.7941 60.2834C68.1253 60.2122 68.4133 60.5674 68.4381 60.905C68.4629 61.2426 68.3197 61.5666 68.2469 61.897C68.1741 62.2274 68.1965 62.6266 68.4645 62.8322C68.8933 63.1618 69.5053 62.7234 69.7549 62.2434C70.0045 61.7634 70.1645 61.1674 70.6517 60.933C71.0301 60.7514 71.5133 60.8738 71.8053 61.1754C72.0973 61.477 72.2085 61.9242 72.1573 62.341C72.1029 62.7826 71.8829 63.1946 71.8549 63.6386C71.8269 64.0826 72.1149 64.6106 72.5597 64.5842C72.8357 64.5682 73.0517 64.3466 73.2261 64.1314C74.7965 62.1986 75.4317 59.5386 74.9037 57.1042C74.7349 56.3266 74.2989 55.4442 73.5069 55.3714C73.0221 55.3274 72.5701 55.6154 72.2037 55.9362C71.8373 56.257 71.4981 56.6306 71.0493 56.8194C70.6005 57.0082 69.9909 56.9402 69.7485 56.5178C69.4805 56.0498 69.7309 55.3162 69.2821 55.0178C68.6125 54.573 68.0157 55.7538 67.5797 56.0978C66.7629 56.7434 66.1381 57.2978 65.7845 58.3242Z" fill="#31003B"/>
<path d="M73.4376 49.3945C73.568 48.7793 72.3728 48.4577 72.5504 47.8537C72.6344 47.5681 72.9944 47.4665 73.2896 47.4985C73.5856 47.5305 73.876 47.6481 74.1712 47.6097C74.6872 47.5425 75.0352 47.0001 75.0553 46.4801C75.0752 45.9609 74.8456 45.4665 74.6 45.0081C74.3552 44.5497 74.0841 44.0881 74.0089 43.5745C73.8737 42.6489 74.4857 41.6705 75.3769 41.3873C75.9201 41.2145 76.5104 41.2809 77.068 41.1617C77.6248 41.0425 78.2048 40.6153 78.1672 40.0465C78.1264 39.4297 77.4296 39.1057 76.836 38.9313C74.5656 38.2649 72.2128 37.8769 69.848 37.7793C69.8448 39.1521 71.7105 40.1209 71.4209 41.4625C71.2225 42.3817 70.1417 42.7649 69.2201 42.9521C68.2985 43.1393 67.2168 43.4113 66.8792 44.2889C66.4904 45.2993 67.5761 47.1265 68.4097 47.7521C69.7945 48.7913 71.7336 49.3065 73.4376 49.3945Z" fill="#31003B"/>
<path d="M87.3059 49.1075C87.5515 49.0419 87.8235 48.9451 87.9283 48.7131C88.1139 48.3035 87.6235 47.8995 87.1827 47.8131C86.7419 47.7259 86.2267 47.7419 85.9275 47.4059C86.7667 47.2531 87.7651 46.9603 87.9803 46.1355C88.1171 45.6107 87.8611 45.0611 87.5259 44.6355C87.1899 44.2099 86.7683 43.8507 86.4859 43.3883C86.1675 42.8675 86.0467 42.2123 86.2299 41.6299C86.4131 41.0475 86.9227 40.5619 87.5267 40.4731C88.1371 40.3835 88.9635 40.5835 89.2171 40.0211C89.4283 39.5523 88.9499 39.0635 88.4859 38.8427C86.9979 38.1355 85.2539 38.3875 83.6283 38.6539C82.9251 38.7691 82.0675 39.0291 81.9483 39.7315C81.8523 40.2987 82.3139 40.7859 82.6019 41.2843C83.0747 42.1011 83.0947 43.1611 82.6539 43.9955C82.2987 44.6675 81.6915 45.1619 81.1467 45.6915C80.6019 46.2219 80.0843 46.8539 80.0027 47.6091C79.6779 50.6275 85.7915 49.5139 87.3059 49.1075Z" fill="#31003B"/>
<path d="M95.4313 37.7689C95.2033 37.8761 94.9553 38.0217 94.8993 38.2673C94.8057 38.6785 95.2953 38.9665 95.7025 39.0761C96.1105 39.1849 96.6169 39.3585 96.6537 39.7785C96.7033 40.3385 95.8681 40.5721 95.7097 41.1113C95.5881 41.5249 95.9233 41.9441 96.3049 42.1449C96.6865 42.3457 97.1281 42.4169 97.4993 42.6361C98.1385 43.0129 98.4721 43.7969 98.4273 44.5377C98.3833 45.2785 98.0065 45.9697 97.5033 46.5153C97.2505 46.7889 96.9633 47.0353 96.7593 47.3473C96.5553 47.6593 96.4441 48.0633 96.5889 48.4073C96.7457 48.7817 97.1697 48.9865 97.5753 49.0049C97.9809 49.0233 98.3753 48.8881 98.7593 48.7561C100.272 48.2337 101.784 47.7113 103.297 47.1889C103.555 47.1001 103.819 47.0065 104.02 46.8233C104.221 46.6393 104.342 46.3401 104.238 46.0889C104.072 45.6905 103.531 45.6761 103.107 45.5961C102.304 45.4433 101.627 44.8025 101.379 44.0241C101.131 43.2449 101.298 42.3585 101.767 41.6889C102.093 41.2233 102.585 40.7281 102.415 40.1857C102.292 39.7977 101.867 39.5913 101.467 39.5105C101.068 39.4297 100.644 39.4265 100.28 39.2441C99.9161 39.0617 99.6377 38.6057 99.8297 38.2465C100.006 37.9161 100.476 37.8329 100.652 37.5025C101.266 36.3489 98.9961 36.4793 98.4745 36.6345C97.4649 36.9329 96.3817 37.3225 95.4313 37.7689Z" fill="#31003B"/>
<path d="M69.0128 86.4359C75.2248 85.9063 73.784 77.3999 71.7912 73.6591C70.4984 71.2327 68.1352 68.0439 64.9824 68.9703C63.3064 69.4623 62.0264 70.9151 61.4176 72.5527C60.8096 74.1903 60.7992 75.9943 61.0248 77.7271C61.3072 79.8871 61.9752 82.0527 63.3384 83.7527C64.7008 85.4519 66.8416 86.6207 69.0128 86.4359Z" fill="#F7AC81"/>
<path d="M67.7243 73.1917C67.3499 72.6669 66.5291 72.6349 65.9851 72.9813C65.4419 73.3277 65.1323 73.9437 64.9355 74.5573C64.4491 76.0757 64.5379 77.8325 65.4331 79.1517C66.3283 80.4717 68.1091 81.2149 69.6075 80.6701" stroke="black" stroke-width="1.1253" stroke-miterlimit="10" stroke-linecap="round" stroke-linejoin="round"/>
<path d="M89.338 68.6357C89.3964 68.9101 89.4868 69.1925 89.6908 69.3845C90.0508 69.7229 90.6628 69.6549 91.0484 69.3469C91.4348 69.0389 91.6348 68.5549 91.762 68.0781C91.906 67.5365 91.9732 66.9573 91.8132 66.4197C91.654 65.8829 91.2308 65.3989 90.6812 65.2925C89.0596 64.9773 89.1364 67.6805 89.338 68.6357Z" fill="black"/>
<path d="M100.82 64.9688C100.905 65.3064 101.047 65.6416 101.3 65.8808C101.553 66.1208 101.932 66.2472 102.261 66.132C102.663 65.9904 102.872 65.5536 103.009 65.1488C103.205 64.5664 103.342 63.9416 103.221 63.3392C103.081 62.6392 102.306 61.676 101.523 62.1352C100.657 62.644 100.611 64.1368 100.82 64.9688Z" fill="black"/>
<path d="M96.7656 65.5205C97.4792 67.9861 98.56 70.3453 99.9616 72.4957C100.156 72.7941 100.365 73.1565 100.227 73.4853C100.117 73.7493 99.824 73.8789 99.5576 73.9845C98.82 74.2749 98.0824 74.5661 97.3456 74.8565" stroke="black" stroke-width="1.1253" stroke-miterlimit="10" stroke-linecap="round" stroke-linejoin="round"/>
<path d="M93.9004 81.9136C95.3172 80.052 97.5612 78.8456 99.8956 78.6904" stroke="black" stroke-width="1.1253" stroke-miterlimit="10" stroke-linecap="round" stroke-linejoin="round"/>
<path d="M85.667 62.2993C86.7846 62.7969 88.0758 62.8921 89.255 62.5641C90.4334 62.2361 91.4902 61.4881 92.191 60.4849" stroke="black" stroke-width="1.1253" stroke-miterlimit="10" stroke-linecap="round" stroke-linejoin="round"/>
<path d="M98.8994 59.4127C99.557 58.6207 100.268 57.8287 101.201 57.3943C102.134 56.9599 103.348 56.9703 104.091 57.6823" stroke="black" stroke-width="1.1253" stroke-miterlimit="10" stroke-linecap="round" stroke-linejoin="round"/>
<path d="M82.0288 74.7719C81.6728 75.8255 81.9184 77.0271 82.5336 77.9527C83.3648 79.2047 85.0256 79.9871 86.4272 79.4463C87.1448 79.1687 87.7136 78.5887 88.1192 77.9351C88.6256 77.1191 88.9112 76.1479 88.8144 75.1927C88.7176 74.2375 88.2128 73.3087 87.4016 72.7951C85.7584 71.7551 82.6408 72.9591 82.0288 74.7719Z" fill="#F78681"/>
<path d="M102.237 71.2462C101.913 72.5294 102.66 73.9942 103.888 74.4878C105.116 74.9814 106.668 74.4398 107.323 73.2902C108.113 71.903 107.568 69.347 105.91 68.7902C104.606 68.3518 102.544 70.0262 102.237 71.2462Z" fill="#F78681"/>
<path d="M177.781 113.105C177.825 112.301 178.042 111.516 178.487 110.85C179.034 110.032 179.874 109.463 180.699 108.926C182.041 108.054 183.433 107.2 184.986 106.81C186.023 106.549 187.202 106.527 188.077 107.141C188.919 107.73 189.301 108.767 189.636 109.738C190.445 112.086 191.255 114.433 192.062 116.781C192.767 118.829 192.821 121.111 191.777 123.062C190.909 124.686 189.295 125.893 187.491 126.267C184.389 126.912 181.942 125.118 180.513 122.482C179.857 121.268 179.496 119.843 179.175 118.508C178.854 117.174 178.129 115.962 177.877 114.586C177.79 114.101 177.753 113.599 177.781 113.105Z" fill="#F7AC81"/>
<path d="M178.757 110.873C180.526 113.896 182.121 117.02 183.534 120.225" stroke="black" stroke-width="1.1253" stroke-miterlimit="10" stroke-linecap="round" stroke-linejoin="round"/>
<path d="M182.307 108.203C184.873 111.593 185.403 114.567 187.399 118.323" stroke="black" stroke-width="1.1253" stroke-miterlimit="10" stroke-linecap="round" stroke-linejoin="round"/>
<path d="M185.348 106.97C187.042 109.998 188.425 113.2 189.469 116.51" stroke="black" stroke-width="1.1253" stroke-miterlimit="10" stroke-linecap="round" stroke-linejoin="round"/>
<path d="M94.3843 124.914C98.7995 128.108 103.338 131.434 106.116 136.122C108.043 139.372 108.879 143.86 106.408 146.718C105.063 148.275 102.966 149.027 100.911 149.142C98.8571 149.258 96.8163 148.804 94.8227 148.294C88.2083 146.604 81.7595 144.27 75.5947 141.337C70.7363 139.025 65.9867 136.288 62.2387 132.428C58.4907 128.568 55.8075 123.45 55.7603 118.07C55.6963 110.624 61.7171 101.848 69.4203 106.864C77.9899 112.443 86.0971 118.921 94.3843 124.914Z" fill="#F7AC81"/>
<path d="M49.6035 116.067C48.7027 121.858 50.5939 127.87 54.0123 132.63C57.4307 137.39 63.6179 142.168 68.8211 144.864C75.2915 136.72 81.6571 127.782 86.8267 118.756C82.7411 116.3 77.5643 111.902 73.9099 108.839C70.5771 106.046 66.0835 102.858 61.5499 102.665C57.8467 102.507 54.1035 106.36 52.2515 109.196C50.9003 111.265 49.9835 113.624 49.6035 116.067Z" fill="#7534FC"/>
<path d="M51.8457 130.227C56.2505 136.021 61.7841 140.952 68.0449 144.661C69.2129 142.78 71.7041 141.793 72.8721 139.912" stroke="black" stroke-width="1.1253" stroke-miterlimit="10" stroke-linecap="round" stroke-linejoin="round"/>
<path d="M73.875 108.01C77.267 111.692 82.9806 116.635 87.2766 119.207" stroke="black" stroke-width="1.1253" stroke-miterlimit="10" stroke-linecap="round" stroke-linejoin="round"/>
<path d="M64.9639 142.809C69.4247 133.131 75.8551 124.367 83.7471 117.207" stroke="black" stroke-width="1.1253" stroke-miterlimit="10" stroke-linecap="round" stroke-linejoin="round"/>
<path d="M92.0176 136.404C90.8184 140.628 92.748 145.538 96.5032 147.814C99.8056 149.817 103.936 149.77 107.772 149.322C114.826 148.499 121.698 146.535 128.442 144.309C134.078 142.448 139.65 140.399 145.187 138.261C147.802 137.252 150.528 136.137 152.294 133.962C154.061 131.787 154.431 128.21 152.328 126.357C150.927 125.123 148.901 124.979 147.034 124.937C138.601 124.746 130.172 125.377 121.802 126.365C117.646 126.856 113.501 127.436 109.362 128.048C105.994 128.545 102.057 128.496 98.8392 129.52C95.6472 130.535 92.94 133.158 92.0176 136.404Z" fill="#F7AC81"/>
<path d="M99.9446 130.105C99.5406 131.742 99.3774 133.437 99.4622 135.121" stroke="black" stroke-width="1.1253" stroke-miterlimit="10" stroke-linecap="round" stroke-linejoin="round"/>
<path d="M95.9951 143.121C97.4543 142.705 98.9943 142.438 100.487 142.706C101.98 142.975 103.426 143.858 104.058 145.237" stroke="black" stroke-width="1.1253" stroke-miterlimit="10" stroke-linecap="round" stroke-linejoin="round"/>
<path d="M155.981 120.772C156.821 120.423 157.663 120.092 158.492 119.769C160.376 119.037 162.44 118.384 164.388 118.927C165.94 119.36 167.225 120.54 167.969 121.969C169.263 124.454 169.246 127.612 167.416 129.809C166.192 131.277 164.478 132.242 162.751 133.058C158.049 135.277 152.983 136.615 147.906 137.733C146.528 138.036 145.078 138.323 143.727 137.919C142.995 137.7 142.305 137.261 141.911 136.607C141.121 135.295 141.708 133.604 142.432 132.255C143.662 129.961 145.256 127.863 147.134 126.061C149.605 123.688 152.784 122.1 155.981 120.772Z" fill="#F7AC81"/>
<path d="M165.631 119.587C162.459 120.879 159.351 122.33 156.324 123.933" stroke="black" stroke-width="1.1253" stroke-miterlimit="10" stroke-linecap="round" stroke-linejoin="round"/>
<path d="M168.127 122.342C164.289 123.443 160.554 124.908 156.99 126.711" stroke="black" stroke-width="1.1253" stroke-miterlimit="10" stroke-linecap="round" stroke-linejoin="round"/>
<path d="M168.834 125.983C165.023 127.581 161.214 129.179 157.404 130.777" stroke="black" stroke-width="1.1253" stroke-miterlimit="10" stroke-linecap="round" stroke-linejoin="round"/>
<path d="M154.016 117.124C154.46 116.641 155.124 116.115 155.697 116.436C156.092 116.658 156.196 117.18 156.184 117.633C156.139 119.387 155.035 120.919 153.909 122.266C153.053 123.291 152.156 124.283 151.222 125.239C150.599 125.876 149.906 126.527 149.031 126.698C148.307 126.839 146.868 126.483 146.621 125.642C146.393 124.863 148.109 123.555 148.633 122.983C150.427 121.031 152.221 119.078 154.016 117.124Z" fill="#F7AC81"/>
<path d="M155.936 116.691C155.164 116.406 154.276 116.635 153.589 117.09C152.903 117.544 152.377 118.198 151.864 118.842C150.75 120.238 149.636 121.633 148.523 123.029C147.594 124.193 147.033 124.917 145.446 124.957C141.235 125.063 137.023 125.17 132.812 125.277C130.02 125.347 127.228 125.418 124.436 125.489" stroke="black" stroke-width="1.1253" stroke-miterlimit="10" stroke-linecap="round" stroke-linejoin="round"/>
<path d="M25.0926 40.2677C19.0222 40.5317 13.1414 44.5973 11.2598 50.3757C9.37899 56.1533 12.0318 63.2165 17.4926 65.8813C19.6038 66.9109 21.9678 67.2901 24.1686 68.1101C26.3694 68.9309 28.5478 70.3789 29.2718 72.6125C29.8438 74.3797 29.4054 76.2909 29.3398 78.1477C29.2742 80.0037 29.7966 82.1573 31.4782 82.9453C33.739 84.0045 36.2526 81.8237 37.239 79.5309C39.7654 73.6589 36.6862 66.0141 30.795 63.5317C28.9518 62.7549 26.9422 62.4437 25.0822 61.7093C23.2214 60.9749 21.415 59.6621 20.8718 57.7373C20.2078 55.3845 21.8022 52.7645 24.0726 51.8573C26.343 50.9501 29.0246 51.5501 31.0198 52.9637C33.683 54.8501 36.2478 58.5429 39.911 56.5661C42.5454 55.1445 43.535 51.0477 42.3326 48.3917C40.0814 43.4157 29.9358 40.0573 25.0926 40.2677Z" fill="#7534FC"/>
<path d="M25.525 92.8028C24.9634 94.7044 25.4258 96.8988 26.5986 98.4228C27.7714 99.946 29.5922 100.795 31.4018 100.8C32.2778 100.804 33.1874 100.604 33.8794 100.01C34.6786 99.3252 35.0834 98.1964 35.1802 97.0844C35.6474 91.7276 27.5314 86.01 25.525 92.8028Z" fill="#7534FC"/>
<path d="M11.2363 48.979C14.3811 50.9862 18.5891 51.2022 21.9219 49.5262C25.2547 47.8502 27.5923 44.3446 27.8571 40.623" stroke="white" stroke-width="1.1253" stroke-miterlimit="10" stroke-linecap="round" stroke-linejoin="round"/>
<path d="M31.2937 64.2485C29.9737 66.8501 29.9737 70.0805 31.2937 72.6821C32.6137 75.2837 35.2209 77.1917 38.0993 77.6629" stroke="white" stroke-width="1.1253" stroke-miterlimit="10" stroke-linecap="round" stroke-linejoin="round"/>
<path d="M39.8821 56.1459C37.3661 53.8083 35.6517 50.6227 35.0861 47.2347C34.8429 45.7771 34.9165 44.0387 36.0949 43.1475" stroke="white" stroke-width="1.1253" stroke-miterlimit="10" stroke-linecap="round" stroke-linejoin="round"/>
<path d="M25.5859 92.2046C25.9635 93.4758 26.7235 94.6534 27.8139 95.4086C28.9043 96.163 30.3347 96.4574 31.6003 96.0622C32.8659 95.667 33.9075 94.5406 34.0771 93.2254" stroke="white" stroke-width="1.1253" stroke-miterlimit="10" stroke-linecap="round" stroke-linejoin="round"/>
<path d="M294 390.4C340.612 390.4 378.4 386.639 378.4 382C378.4 377.361 340.612 373.6 294 373.6C247.387 373.6 209.6 377.361 209.6 382C209.6 386.639 247.387 390.4 294 390.4Z" fill="#7534FC" fill-opacity="0.7"/>
<path d="M260.404 294.248V356.584L277.405 358.472L283.072 291.414L260.404 294.248Z" fill="#F7AC81"/>
<path d="M260.46 307.928C266.958 308.241 273.457 308.554 279.956 308.868C281.216 308.929 282.576 308.964 283.624 308.261C285.238 307.181 285.403 304.887 285.184 302.957C284.781 299.392 285.737 296.317 286.056 292.77C286.428 288.615 286.813 284.461 287.213 280.309C288.012 272.003 288.864 263.703 289.771 255.409C291.584 238.82 293.613 222.255 295.858 205.719C295.903 205.389 295.948 205.057 295.993 204.727C296.86 198.361 297.659 191.44 294.412 185.895C290.892 179.882 283.132 177.172 276.271 178.385C270.195 179.458 261.609 184.142 259.466 190.273C256.758 198.019 257.541 209.225 257.015 217.416C256.035 232.673 255.822 247.978 256.377 263.256C256.918 278.141 255.28 292.815 256.992 307.761C258.147 307.817 259.303 307.872 260.46 307.928Z" fill="#200026"/>
<path d="M258.055 204.107C262.007 201.599 265.275 198.023 267.417 193.86" stroke="white" stroke-width="1.1806" stroke-miterlimit="10" stroke-linecap="round" stroke-linejoin="round"/>
<path d="M257.036 302.683C266.243 303.288 275.49 303.284 284.695 302.671" stroke="white" stroke-width="1.1806" stroke-miterlimit="10" stroke-linecap="round" stroke-linejoin="round"/>
<path d="M269.954 278.439C270.879 281.372 270.79 284.614 269.706 287.492C268.622 290.369 266.55 292.865 263.921 294.459" stroke="white" stroke-width="1.1806" stroke-miterlimit="10" stroke-linecap="round" stroke-linejoin="round"/>
<path d="M280.571 382.895C280.479 373.807 279.632 364.696 278.079 355.741C272.083 355.775 266.083 355.082 260.254 353.68C254.671 361.706 247.281 368.704 238.785 373.541C237.622 374.203 236.42 374.843 235.47 375.788C234.522 376.733 233.845 378.055 234.018 379.382C234.198 380.747 235.249 381.875 236.474 382.503C237.7 383.131 239.091 383.34 240.457 383.523C253.754 385.295 267.418 385.523 280.571 382.895Z" fill="#7534FC"/>
<path d="M256.345 357.776C255.623 355.961 254.271 354.329 252.451 353.618C250.632 352.907 248.344 353.286 247.089 354.782C245.833 356.279 245.995 358.857 247.61 359.956C249.035 360.926 250.941 360.565 252.617 360.166C255.355 359.515 258.093 358.864 260.831 358.213C262.117 357.908 263.441 357.6 264.75 357.791C266.059 357.982 267.365 358.792 267.744 360.059C268.18 361.518 267.189 363.146 265.792 363.751C264.394 364.356 262.743 364.092 261.381 363.412C260.018 362.731 258.888 361.673 257.777 360.631C257.363 360.241 256.949 359.852 256.534 359.463" stroke="black" stroke-width="1.0309" stroke-miterlimit="10" stroke-linecap="round" stroke-linejoin="round"/>
<path d="M250.201 364.681C253.159 365.067 255.952 366.598 257.868 368.884" stroke="black" stroke-width="1.0309" stroke-miterlimit="10" stroke-linecap="round" stroke-linejoin="round"/>
<path d="M246.141 369.628C248.529 369.398 250.996 370.68 252.18 372.767" stroke="black" stroke-width="1.0309" stroke-miterlimit="10" stroke-linecap="round" stroke-linejoin="round"/>
<path d="M234.517 377.419C236.992 380.245 240.763 381.67 244.5 382.051C248.237 382.431 251.999 381.874 255.714 381.319C264.013 380.077 272.312 378.835 280.611 377.595" stroke="black" stroke-width="1.0309" stroke-miterlimit="10" stroke-linecap="round" stroke-linejoin="round"/>
<path d="M310.461 296.137L323.684 361.306L340.685 359.418L334.074 287.637L310.461 296.137Z" fill="#F7AC81"/>
<path d="M308.405 298.671C308.895 300.877 309.395 303.077 309.908 305.273C310.184 306.456 310.585 307.767 311.658 308.333C312.528 308.793 313.582 308.617 314.548 308.43C323.264 306.744 331.98 305.058 340.696 303.372C341.131 303.288 327.982 214.822 326.913 206.676C326.869 206.343 326.826 206.01 326.782 205.678C325.983 199.571 325.102 193.199 321.595 188.136C316.785 181.189 307.089 178.093 299.143 180.965C293.458 183.019 287.209 189.163 286.976 195.569C286.777 201.033 290.855 207.254 291.789 212.745C294.905 231.051 298.202 249.316 301.909 267.512C304.025 277.908 306.106 288.333 308.405 298.671Z" fill="#200026"/>
<path d="M318.052 196.313C319.072 201.027 322.261 205.225 326.529 207.471" stroke="white" stroke-width="1.1806" stroke-miterlimit="10" stroke-linecap="round" stroke-linejoin="round"/>
<path d="M293.312 223.356C292.358 217.085 290.906 210.892 288.975 204.85" stroke="white" stroke-width="1.1806" stroke-miterlimit="10" stroke-linecap="round" stroke-linejoin="round"/>
<path d="M309.922 303.204C320.418 303.233 330.913 300.864 340.379 296.331" stroke="white" stroke-width="1.1806" stroke-miterlimit="10" stroke-linecap="round" stroke-linejoin="round"/>
<path d="M316.746 277.46C319.409 280.808 319.996 285.679 318.204 289.563" stroke="white" stroke-width="1.1806" stroke-miterlimit="10" stroke-linecap="round" stroke-linejoin="round"/>
<path d="M346.373 378.842C344.671 370.789 342.968 362.736 341.266 354.682C335.371 356.645 329.212 357.813 323.008 358.146C317.004 366.129 309.369 373.379 301.206 379.136C299.929 380.037 300.342 382.718 301.561 383.696C302.78 384.673 304.44 384.845 306 384.95C319.526 385.857 333.195 384.611 346.334 381.273C346.248 380.46 346.542 379.642 346.373 378.842Z" fill="#7534FC"/>
<path d="M314.45 359.27C313.278 359.477 312.204 360.337 311.895 361.486C311.587 362.636 312.171 364.003 313.277 364.444C314.318 364.859 315.487 364.442 316.522 364.012C319.318 362.851 322.21 361.559 325.23 361.771C326.306 361.847 327.518 362.24 327.918 363.241C328.243 364.05 327.877 365.033 327.185 365.565C326.493 366.095 325.548 366.217 324.693 366.045C322.697 365.643 320.834 364.014 319.734 362.361C318.554 360.582 316.783 358.856 314.45 359.27Z" stroke="black" stroke-width="1.0309" stroke-miterlimit="10" stroke-linecap="round" stroke-linejoin="round"/>
<path d="M301.512 379.482C305.911 382.076 311.362 381.818 316.459 381.481C326.424 380.822 336.548 380.13 345.926 376.697" stroke="black" stroke-width="1.0309" stroke-miterlimit="10" stroke-linecap="round" stroke-linejoin="round"/>
<path d="M313.564 367.448C315.236 367.339 316.927 367.54 318.526 368.039C318.712 368.097 318.902 368.162 319.049 368.289C319.196 368.417 319.292 368.624 319.234 368.81" stroke="black" stroke-width="1.0309" stroke-miterlimit="10" stroke-linecap="round" stroke-linejoin="round"/>
<path d="M308.913 371.273C311.427 371.092 313.999 371.839 316.024 373.341" stroke="black" stroke-width="1.0309" stroke-miterlimit="10" stroke-linecap="round" stroke-linejoin="round"/>
<path d="M270.839 143.294C269.775 145.823 268.598 148.38 266.661 150.323C264.724 152.266 261.859 153.5 259.204 152.808C257.012 152.237 255.289 150.435 254.359 148.369C253.428 146.303 253.197 143.992 253.176 141.727C253.071 129.822 258.697 116.471 269.86 111.045C271.179 110.404 272.577 109.871 274.038 109.748C275.499 109.625 277.04 109.948 278.183 110.866C279.351 111.804 279.999 113.275 280.211 114.759C280.423 116.242 280.24 117.752 280.001 119.231C279.31 123.499 278.135 127.689 276.515 131.698C274.892 135.719 272.507 139.331 270.839 143.294Z" fill="#F7AC81"/>
<path d="M254.472 125.134C253.629 127.092 252.957 129.118 252.473 131.18C258.858 129.675 265.417 128.904 271.978 128.887C272.459 128.887 274.649 123.011 274.96 122.328C275.852 120.366 276.773 118.48 277.801 116.605C279.147 114.152 281.419 111.606 282.389 109.02C283.285 106.628 279.223 105.483 277.223 105.482C275.155 105.481 273.149 106.195 271.29 107.1C263.747 110.772 257.789 117.428 254.472 125.134Z" fill="#7534FC"/>
<path d="M253.555 127.186C257.892 125.447 262.651 124.767 267.302 125.223" stroke="black" stroke-width="1.0309" stroke-miterlimit="10" stroke-linecap="round" stroke-linejoin="round"/>
<path d="M265.877 142.488C266.15 146.816 267.005 151.082 267.321 155.405C267.643 159.804 266.099 163.308 264.768 167.479C261.975 176.232 259.183 184.985 256.391 193.739C267.963 195.582 279.563 197.428 291.267 197.991C302.972 198.555 314.835 197.812 326.093 194.559C326.223 183.359 320.394 172.996 318.431 161.969C317.421 156.292 317.461 150.432 318.522 144.765C319.607 138.968 320.527 133.313 321.463 127.455C322.158 123.111 322.858 118.416 320.834 114.511C319.441 111.823 316.926 109.896 314.309 108.375C308.237 104.847 301.164 103.127 294.154 103.296C290.727 103.378 287.368 104.091 284.005 104.548C276.683 105.546 272.548 113.96 269.899 120.031C266.831 127.065 265.394 134.823 265.877 142.488Z" fill="#7534FC"/>
<path d="M267.446 163.259C268.222 160.378 271.772 159.062 274.715 159.557C277.658 160.052 280.197 161.821 282.827 163.232C285.457 164.643 288.562 165.738 291.385 164.77C294.689 163.636 296.765 159.947 300.194 159.279C302.45 158.839 304.724 159.84 306.725 160.97C308.727 162.099 310.725 163.415 313.007 163.687C315.29 163.959 317.957 162.751 318.396 160.495" stroke="white" stroke-width="1.1806" stroke-miterlimit="10" stroke-linecap="round" stroke-linejoin="round"/>
<path d="M266.739 150.165C270.29 147.544 275.627 147.703 279.016 150.528C280.779 151.999 282.094 154.115 284.234 154.945C287.473 156.199 290.953 153.984 293.606 151.743C296.261 149.503 299.306 146.951 302.74 147.475C304.659 147.768 306.286 148.996 307.808 150.203C309.33 151.408 310.917 152.671 312.82 153.055C314.723 153.439 317.026 152.612 317.617 150.763" stroke="white" stroke-width="1.1806" stroke-miterlimit="10" stroke-linecap="round" stroke-linejoin="round"/>
<path d="M258.033 188.996C274.673 193.672 292.152 195.344 309.377 193.906C315.136 193.425 321.096 192.515 325.878 189.271" stroke="black" stroke-width="1.0309" stroke-miterlimit="10" stroke-linecap="round" stroke-linejoin="round"/>
<path d="M266.543 129.435C267.427 124.615 270.419 117.233 273.375 113.324" stroke="black" stroke-width="1.0309" stroke-miterlimit="10" stroke-linecap="round" stroke-linejoin="round"/>
<path d="M305.888 81.2669C305.937 81.3669 305.979 81.4717 306.015 81.5821C306.8 84.0237 307.137 86.7013 307.431 89.2405C308.043 94.5157 308.028 99.8381 308.011 105.14C308.007 106.086 307.994 107.075 307.548 107.909C306.898 109.127 305.504 109.715 304.207 110.188C302.227 110.911 300.206 111.581 298.11 111.808C295.257 112.118 292.3 111.28 289.719 110.115C289.056 109.816 287.787 109.565 287.499 108.843C287.334 108.43 287.361 107.969 287.395 107.526C288.039 98.9901 290.175 90.2269 295.647 83.6437C297.107 81.8869 298.915 80.2413 301.157 79.7973C302.811 79.4701 305.121 79.6925 305.888 81.2669Z" fill="#F7AC81"/>
<path d="M298.563 104.232C295.334 106.317 291.231 107 287.501 106.071C287.791 103.863 288.082 101.644 288.7 99.5051C288.853 98.9763 289.04 98.4299 289.439 98.0499C290.055 97.4619 290.997 97.4251 291.848 97.4107C295.308 97.3507 298.855 97.0691 302.106 95.7923C302.68 95.5667 303.548 94.9131 304.167 95.3211C304.795 95.7347 304.406 96.5187 304.208 97.0715C303.719 98.4379 303.019 99.7283 302.146 100.887C301.156 102.197 299.943 103.34 298.563 104.232Z" fill="#F78681"/>
<path d="M271.168 89.0203C270.768 89.6395 270.358 90.2803 270.228 91.0059C270.097 91.7315 270.316 92.5723 270.943 92.9627C271.735 93.4555 272.776 93.0507 273.548 92.5267C275.617 91.1227 277.039 88.9699 278.356 86.8443C279.82 84.4843 281.224 82.0875 282.528 79.6363C282.963 78.8187 283.394 77.9691 283.48 77.0467C283.566 76.1251 283.228 75.1035 282.431 74.6347C280.153 73.2963 277.886 78.6435 277.048 79.9379C275.088 82.9651 273.128 85.9931 271.168 89.0203Z" fill="#200026"/>
<path d="M280.147 59.4596C276.285 64.6716 275.97 72.3284 279.601 77.7044C282.061 81.3476 285.873 83.5572 289.007 86.5244C290.336 87.7828 291.162 89.3852 292.709 90.4916C294.233 91.582 296.031 92.2852 297.853 92.694C305.403 94.3892 313.809 91.3604 318.543 85.2388C322.566 80.0348 323.761 72.8348 321.856 66.5644C320.036 60.5764 314.35 55.6124 308.601 53.4588C305.89 52.4428 302.819 51.722 299.909 51.7052C297.92 51.6932 296.027 52.3316 294.069 52.594C288.588 53.3268 283.609 54.7868 280.147 59.4596Z" fill="#200026"/>
<path d="M323.943 58.9043C322.457 61.8347 321.922 65.4091 323.246 68.4163C324.569 71.4235 328.054 73.5483 331.222 72.6747C334.24 71.8427 336.066 68.7715 337.03 65.7923C337.646 63.8859 338.043 61.8691 337.814 59.8779C337.341 55.7835 334.357 53.5195 330.356 53.5283C327.328 53.5355 325.197 56.4315 323.943 58.9043Z" fill="#200026"/>
<path d="M330.549 57.7709C331.028 57.6397 331.557 57.5517 332.007 57.7613C332.458 57.9709 332.74 58.5901 332.442 58.9877C332.309 59.1645 332.098 59.2605 331.924 59.3973C331.751 59.5349 331.607 59.7637 331.69 59.9685C331.776 60.1805 332.043 60.2373 332.27 60.2677C332.925 60.3565 333.617 60.4957 334.096 60.9509C334.575 61.4069 334.707 62.2821 334.195 62.7013C333.88 62.9597 333.324 63.1341 333.41 63.5325C333.471 63.8165 333.827 63.8989 334.057 64.0773C334.479 64.4053 334.428 65.1037 334.083 65.5125C333.737 65.9205 333.197 66.1021 332.678 66.2293C331.256 66.5781 329.769 66.6597 328.318 66.4693C328.125 66.4437 327.91 66.4005 327.8 66.2397C327.574 65.9069 327.993 65.5173 328.353 65.3389C328.88 65.0781 329.43 64.8197 329.816 64.3765C330.202 63.9333 330.376 63.2437 330.055 62.7517C329.617 62.0829 328.608 62.1469 327.947 61.6973C325.451 59.9997 329.303 58.1133 330.549 57.7709Z" fill="#31003B"/>
<path d="M298.138 56.9731C296.424 56.3651 294.621 56.0171 292.824 56.4067C291.204 56.7579 289.73 57.6851 288.414 58.7747C282.546 63.6323 280.586 71.9115 278.866 79.0195C278.316 81.2931 277.798 83.6419 278.161 85.9531C278.502 88.1307 279.614 90.1291 281.019 91.8275C284.44 95.9643 288.962 98.9963 294.306 99.8723C297.83 100.451 301.656 99.8867 304.543 97.5811C306.128 96.3163 307.356 94.5971 308.426 92.8075C311.226 88.1227 313.096 82.6811 313.129 77.1251C313.162 71.5691 311.221 65.9163 307.399 62.2507C306.846 61.7195 306.257 61.2323 305.645 60.7835C303.792 59.4267 301.758 58.5027 299.696 57.5979C299.187 57.3731 298.667 57.1611 298.138 56.9731Z" fill="#F7AC81"/>
<path d="M295.385 79.8206C295.316 80.0678 295.217 80.3214 295.02 80.4854C294.672 80.7742 294.116 80.6782 293.781 80.375C293.445 80.0718 293.289 79.6182 293.2 79.1742C293.099 78.671 293.07 78.1374 293.246 77.655C293.422 77.1726 293.836 76.7542 294.345 76.6878C295.845 76.4918 295.623 78.9582 295.385 79.8206Z" fill="black"/>
<path d="M285.092 75.822C284.995 76.126 284.847 76.4244 284.602 76.6292C284.357 76.834 284.003 76.9292 283.709 76.8052C283.349 76.6532 283.183 76.242 283.08 75.8644C282.933 75.3212 282.843 74.742 282.987 74.198C283.156 73.566 283.918 72.7284 284.608 73.1924C285.371 73.7052 285.33 75.0724 285.092 75.822Z" fill="black"/>
<path d="M288.767 76.5542C287.976 78.7686 286.854 80.8646 285.453 82.7526C285.258 83.015 285.046 83.3342 285.154 83.6422C285.241 83.8902 285.501 84.0254 285.738 84.1358C286.396 84.443 287.054 84.7502 287.712 85.0574" stroke="black" stroke-width="1.0309" stroke-miterlimit="10" stroke-linecap="round" stroke-linejoin="round"/>
<path d="M290.466 91.7044C289.275 89.9228 287.291 88.6932 285.165 88.4204" stroke="black" stroke-width="1.0309" stroke-miterlimit="10" stroke-linecap="round" stroke-linejoin="round"/>
<path d="M299.097 74.2326C298.047 74.6246 296.861 74.639 295.801 74.2734C294.742 73.9078 293.818 73.1638 293.233 72.207" stroke="black" stroke-width="1.0309" stroke-miterlimit="10" stroke-linecap="round" stroke-linejoin="round"/>
<path d="M287.16 70.8492C286.603 70.0884 285.998 69.3236 285.169 68.874C284.34 68.4244 283.23 68.366 282.51 68.9748" stroke="black" stroke-width="1.0309" stroke-miterlimit="10" stroke-linecap="round" stroke-linejoin="round"/>
<path d="M301.722 85.842C301.989 86.8252 301.742 87.4588 301.128 88.2716C300.297 89.3692 298.689 90.4428 297.438 89.8684C296.797 89.574 296.31 89.0124 295.976 88.3916C295.559 87.6172 295.353 86.7132 295.495 85.8452C295.637 84.9772 296.151 84.1564 296.922 83.7324C298.481 82.874 301.265 84.15 301.722 85.842Z" fill="#F78681"/>
<path d="M283.443 81.4822C283.667 82.6742 282.902 83.971 281.751 84.3534C280.601 84.7358 279.212 84.1534 278.678 83.0654C278.034 81.7526 278.676 79.4462 280.223 79.0302C281.44 78.7022 283.231 80.3494 283.443 81.4822Z" fill="#F78681"/>
<path d="M294.88 67.0791C295.449 68.2071 296.142 69.2815 296.895 70.2911C298.441 72.3647 300.251 74.2191 301.953 76.1623C303.514 77.9447 304.899 79.9143 306.819 81.3503C308.753 82.7975 311.229 83.6847 313.601 83.2279C316.05 82.7567 318.092 80.8751 319.11 78.5983C320.127 76.3215 320.203 73.7047 319.698 71.2623C319.194 68.8207 318.141 66.5255 316.967 64.3263C315.618 61.7999 314.083 59.3479 312.12 57.2631C310.157 55.1775 307.739 53.4647 304.997 52.6359C303.378 52.1463 301.642 51.9735 299.983 52.3071C295.684 53.1719 293.036 57.9199 293.395 62.1199C293.543 63.8559 294.093 65.5183 294.88 67.0791Z" fill="#200026"/>
<path d="M301.703 70.7589C301.962 71.0837 302.249 71.4253 302.648 71.5413C303.047 71.6573 303.572 71.4189 303.585 71.0029C303.604 70.4421 302.784 70.1917 302.68 69.6405C302.575 69.0845 303.309 68.6941 303.854 68.8453C304.4 68.9965 304.797 69.4501 305.249 69.7893C305.701 70.1285 306.357 70.3549 306.813 70.0189C307.255 69.6925 307.249 69.0461 307.26 68.4957C307.27 67.9461 307.45 67.2693 307.989 67.1597C308.289 67.0989 308.586 67.2461 308.856 67.3885C309.862 67.9213 310.868 68.4549 311.873 68.9877C310.377 66.1077 308.481 63.4357 306.257 61.0717C305.762 60.5461 304.977 60.0037 304.394 60.4285C303.423 61.1349 304.893 62.9821 304.016 63.8013C303.609 64.1805 302.933 64.0413 302.481 63.7197C302.028 63.3973 301.693 62.9301 301.233 62.6181C300.438 62.0781 299.231 62.1349 298.457 62.7061C297.672 63.2861 297.806 63.9101 298.086 64.7789C298.805 67.0077 300.261 68.9493 301.703 70.7589Z" fill="#31003B"/>
<path d="M314.037 67.0407C314.278 67.4431 314.554 67.8583 314.981 68.0535C315.407 68.2479 316.018 68.1071 316.161 67.6607C316.232 67.4423 316.178 67.2055 316.177 66.9759C316.177 66.7463 316.262 66.4807 316.48 66.4071C316.683 66.3391 316.906 66.4799 317.015 66.6647C317.124 66.8495 317.15 67.0687 317.198 67.2775C317.305 67.7407 317.536 68.1879 317.909 68.4831C318.281 68.7783 318.805 68.9015 319.249 68.7311C319.865 68.4951 320.174 67.7679 320.134 67.1103C320.094 66.4527 319.781 65.8463 319.475 65.2631C318.813 63.9999 318.149 62.7367 317.487 61.4735C317.309 61.1351 317.121 60.7847 316.813 60.5591C316.505 60.3335 316.038 60.2751 315.755 60.5327C315.428 60.8303 315.499 61.3495 315.554 61.7879C315.609 62.2263 315.549 62.7863 315.133 62.9367C314.899 62.3111 314.651 61.6647 314.179 61.1927C313.072 60.0863 311.429 60.8967 311.79 62.4199C312.153 63.9551 313.229 65.6951 314.037 67.0407Z" fill="#31003B"/>
<path d="M310.473 95.4029C304.822 94.5693 306.618 86.8725 308.651 83.5637C309.969 81.4173 312.31 78.6349 315.141 79.6589C316.645 80.2029 317.734 81.6037 318.198 83.1349C318.662 84.6669 318.57 86.3165 318.266 87.8877C317.886 89.8469 317.154 91.7901 315.813 93.2669C314.47 94.7461 312.448 95.6949 310.473 95.4029Z" fill="#F7AC81"/>
<path d="M312.396 83.3661C312.767 82.9077 313.52 82.9245 313.998 83.2717C314.475 83.6189 314.723 84.1997 314.869 84.7717C315.228 86.1877 315.048 87.7885 314.155 88.9445C313.263 90.1005 311.593 90.6805 310.253 90.0981" stroke="black" stroke-width="1.0309" stroke-miterlimit="10" stroke-linecap="round" stroke-linejoin="round"/>
<path d="M303.468 100.169C303.314 100.862 303.207 101.706 303.742 102.171C304.151 102.525 304.797 102.48 305.257 102.195C305.716 101.909 306.021 101.433 306.269 100.952C307.239 99.0722 307.557 96.9346 307.861 94.841C308.527 90.2466 309.193 85.6522 309.86 81.0586C309.922 80.6258 309.985 80.177 309.857 79.7586C309.662 79.1122 308.87 78.7138 308.274 79.1418C307.812 79.4738 307.874 80.1266 307.78 80.625C307.378 82.7546 306.861 84.8674 306.392 86.9834C305.417 91.3778 304.442 95.7738 303.468 100.169Z" fill="#200026"/>
<path d="M291.019 154.484C293.191 155.136 295.581 154.646 297.595 153.605C299.61 152.565 301.309 151.014 302.94 149.44C306.958 145.562 310.721 141.428 314.31 137.153C317.576 133.262 321.474 129.516 322.848 124.48C323.571 121.828 323.604 118.784 322.001 116.552C319.802 113.489 315.202 113.048 311.735 114.53C308.014 116.121 305.683 119.414 302.684 121.896C299.367 124.641 296.504 128.4 294.086 131.938C291.348 135.944 289.134 140.339 287.765 145.003C286.638 148.848 286.178 153.033 291.019 154.484Z" fill="#F7AC81"/>
<path d="M323.237 124.15C322.166 131.112 317.278 137.567 312.226 142.259C312.108 142.368 311.967 142.484 311.808 142.46C311.595 142.426 311.508 142.171 311.463 141.96C309.835 134.392 305.791 127.363 300.067 122.151C303.996 118.067 309.326 114.076 314.952 112.848C316.171 112.582 317.441 112.428 318.666 112.669C323.202 113.561 323.804 120.463 323.237 124.15Z" fill="#7534FC"/>
<path d="M310.97 141.458C311.187 142.198 311.403 142.938 311.62 143.678C315.275 140.458 318.347 136.579 320.643 132.283" stroke="black" stroke-width="1.0309" stroke-miterlimit="10" stroke-linecap="round" stroke-linejoin="round"/>
<path d="M299.784 122.565C301.608 120.135 303.796 117.977 306.253 116.188" stroke="black" stroke-width="1.0309" stroke-miterlimit="10" stroke-linecap="round" stroke-linejoin="round"/>
<path d="M301.555 120.317C308.699 124.515 313.932 131.834 315.595 139.951" stroke="black" stroke-width="1.0309" stroke-miterlimit="10" stroke-linecap="round" stroke-linejoin="round"/>
<path d="M255.631 145.599C255.948 147.779 257.075 149.823 258.946 150.955C261.921 152.757 265.795 151.903 268.938 150.411C274.178 147.923 279.347 145.486 284.476 142.787C288.28 140.787 292.084 138.786 295.887 136.785C298.866 135.218 302.259 133.652 303.59 130.312C304.592 127.795 303.794 124.444 301.344 123.285C299.705 122.509 297.78 122.835 296.004 123.201C289.911 124.457 283.877 126.011 277.955 127.922C275.084 128.848 272.255 129.866 269.501 131.052C266.755 132.236 263.971 133.095 261.463 134.79C258.771 136.609 256.48 139.24 255.754 142.407C255.515 143.445 255.477 144.538 255.631 145.599Z" fill="#F7AC81"/>
<path d="M256.215 144.526C259.088 144.324 261.98 146.225 262.934 148.944" stroke="black" stroke-width="1.0309" stroke-miterlimit="10" stroke-linecap="round" stroke-linejoin="round"/>
<path d="M265.764 132.446C263.438 133.359 261.48 135.175 260.396 137.427" stroke="black" stroke-width="1.0309" stroke-miterlimit="10" stroke-linecap="round" stroke-linejoin="round"/>
<path d="M307.358 137.78C301.893 139.065 296.81 133.639 294.926 129.031C294.553 128.119 294.268 127.091 294.594 126.161C294.917 125.238 295.768 124.615 296.606 124.111C298.719 122.84 301.126 121.929 303.59 121.999C307.994 122.125 311.905 126.166 312.229 130.511C312.464 133.677 310.448 137.053 307.358 137.78Z" fill="#F7AC81"/>
<path d="M301.891 137.133C304.208 138.385 307.221 138.226 309.393 136.736" stroke="black" stroke-width="1.0309" stroke-miterlimit="10" stroke-linecap="round" stroke-linejoin="round"/>
<path d="M300.75 128.694C303.227 131.318 305.182 134.434 306.467 137.806" stroke="black" stroke-width="1.0309" stroke-miterlimit="10" stroke-linecap="round" stroke-linejoin="round"/>
<path d="M304.764 128.188C306.947 130.705 308.661 133.628 309.793 136.761" stroke="black" stroke-width="1.0309" stroke-miterlimit="10" stroke-linecap="round" stroke-linejoin="round"/>
<path d="M306.759 125.987C308.912 127.994 310.654 130.439 311.85 133.128" stroke="black" stroke-width="1.0309" stroke-miterlimit="10" stroke-linecap="round" stroke-linejoin="round"/>
<path d="M281.322 137.343C281.793 141.147 282.296 145.056 284.142 148.415C285.847 151.52 288.952 154.099 292.494 154.174C295.747 154.242 298.869 152.193 300.476 149.365C304.765 141.815 300.726 131.027 296.764 123.144C294.379 118.399 292.211 113.545 290.267 108.603C289.295 106.131 288.38 103.638 287.521 101.125C286.794 98.9993 286.394 97.5929 284.123 96.7361C281.544 95.7633 278.886 97.0281 277.626 99.3625C276.412 101.609 277.166 103.781 277.465 106.181C278.288 112.791 279.101 119.401 279.919 126.011C280.386 129.788 280.854 133.566 281.322 137.343Z" fill="#F7AC81"/>
<path d="M296.768 122.823C298.656 128.49 302.022 134.393 302.075 141.578" stroke="black" stroke-width="1.0309" stroke-miterlimit="10" stroke-linecap="round" stroke-linejoin="round"/>
<path d="M290.151 147.859C291.688 147.123 293.45 146.579 295.084 147.064C296.487 147.482 297.628 148.683 297.972 150.107" stroke="black" stroke-width="1.0309" stroke-miterlimit="10" stroke-linecap="round" stroke-linejoin="round"/>
<path d="M279.767 127.546C280.239 134.098 280.931 137.352 282.183 143.8" stroke="black" stroke-width="1.0309" stroke-miterlimit="10" stroke-linecap="round" stroke-linejoin="round"/>
<path d="M296.563 98.0682C296.918 98.4962 296.703 99.1882 296.348 99.6346C295.656 100.503 295.122 101.171 294.124 101.685C293.033 102.247 291.851 102.631 290.829 103.325C289.888 103.964 289.136 104.838 288.32 105.631C286.252 107.643 283.718 109.173 280.973 110.065C279.576 110.519 277.996 110.795 276.678 110.147C275.525 109.58 274.801 108.421 274.158 107.309C273.261 105.758 272.403 104.185 271.583 102.592C271.284 102.011 270.984 101.411 270.919 100.761C270.79 99.4954 271.855 98.6658 272.768 97.9802C273.682 97.293 274.597 96.6058 275.512 95.9186C276.13 95.4546 276.765 94.9706 277.145 94.297C277.884 92.9882 276.892 91.5482 276.518 90.2738C276.092 88.8226 275.667 87.3714 275.241 85.921C275.045 85.2522 274.97 84.3154 275.622 84.0682C276.135 83.8738 276.656 84.3098 277.016 84.7242C279.076 87.0938 280.524 89.933 282.493 92.3786C284.38 94.7218 287.244 97.181 290.265 97.7562C291.881 98.0642 293.548 97.9858 295.18 97.7858C295.647 97.7282 296.187 97.685 296.517 98.0194C296.534 98.0346 296.549 98.0506 296.563 98.0682Z" fill="#F7AC81"/>
<path d="M278.109 85.481C280.206 89.5642 282.518 93.877 286.525 96.1154C289.524 97.7906 293.174 98.0674 296.532 97.341C297.142 98.6994 296.358 100.338 295.194 101.267C294.031 102.197 292.561 102.629 291.199 103.232C290.521 103.533 289.823 103.919 289.481 104.576C288.957 105.586 289.458 106.819 290.081 107.771C290.703 108.724 291.477 109.677 291.52 110.815" stroke="black" stroke-width="1.0309" stroke-miterlimit="10" stroke-linecap="round" stroke-linejoin="round"/>
<path d="M276.544 95.2817C276.679 95.6017 276.814 95.9225 276.95 96.2425" stroke="black" stroke-width="1.0309" stroke-miterlimit="10" stroke-linecap="round" stroke-linejoin="round"/>
<path d="M272.735 98.1396C272.857 98.3876 272.979 98.6364 273.101 98.8844" stroke="black" stroke-width="1.0309" stroke-miterlimit="10" stroke-linecap="round" stroke-linejoin="round"/>
<path d="M274.889 96.5889C275.017 96.9017 275.146 97.2145 275.275 97.5273" stroke="black" stroke-width="1.0309" stroke-miterlimit="10" stroke-linecap="round" stroke-linejoin="round"/>
<path d="M349.352 61.4275C347.032 60.7139 345.235 58.5371 344.973 56.1235C344.756 54.1187 345.544 52.0811 346.857 50.5507C349.479 47.4955 354.205 45.6179 358.132 44.9443C363.496 44.0251 369.264 45.9355 373.017 49.8763C376.771 53.8171 378.4 59.6707 377.22 64.9827C375.651 72.0571 370.32 75.2059 364.372 78.2627C361.857 79.5547 359.398 81.1963 357.94 83.6179C357.102 85.0115 356.634 86.6011 355.804 87.9995C354.975 89.3979 353.616 90.6579 351.991 90.6931C350.181 90.7323 348.637 89.1875 348.104 87.4579C347.572 85.7283 347.831 83.8619 348.171 82.0843C348.96 77.9611 350.492 73.4843 354.206 71.5291C356.345 70.4035 358.875 70.3147 361.146 69.4875C363.837 68.5075 366.186 66.3371 366.9 63.5627C367.615 60.7891 366.395 57.5019 363.818 56.2515C360.981 54.8755 358.316 56.6539 356.55 58.7955C354.772 60.9547 352.248 62.3171 349.352 61.4275Z" fill="#7534FC"/>
<path d="M342.034 101.112C342.116 103.575 343.687 105.93 345.931 106.95C347.313 107.578 348.953 107.706 350.353 107.121C352.101 106.391 353.266 104.655 353.784 102.832C354.432 100.552 354.13 97.8985 352.554 96.1289C348.656 91.7537 341.864 95.9577 342.034 101.112Z" fill="#7534FC"/>
<path d="M349.808 76.505C350.405 77.413 351.418 77.981 352.466 78.2706C355.173 79.0194 358.203 78.0234 360.192 76.0402C362.181 74.057 363.177 71.2082 363.22 68.3994" stroke="white" stroke-width="1.1806" stroke-miterlimit="10" stroke-linecap="round" stroke-linejoin="round"/>
<path d="M374.303 70.7445C371.767 68.3677 370.03 65.0117 370.087 61.5365C370.144 58.0613 372.202 54.5677 375.429 53.2725" stroke="white" stroke-width="1.1806" stroke-miterlimit="10" stroke-linecap="round" stroke-linejoin="round"/>
<path d="M349.796 48.077C350.388 50.2634 352.385 51.9306 354.606 52.381C356.826 52.8306 359.193 52.1538 361.018 50.813C362.843 49.4714 364.157 47.5154 364.989 45.4082" stroke="white" stroke-width="1.1806" stroke-miterlimit="10" stroke-linecap="round" stroke-linejoin="round"/>
</svg>
