<svg width="25" height="25" viewBox="0 0 25 25" fill="none" xmlns="http://www.w3.org/2000/svg">
<g clip-path="url(#clip0_4827_1294)">
<path d="M18.7551 9.39804C18.5716 9.29897 18.3676 9.24366 18.1591 9.23642C17.6652 9.23642 16.9086 9.37784 16.6157 9.39804C16.4408 9.38664 16.2654 9.38664 16.0905 9.39804C15.9542 9.43205 15.8311 9.5059 15.7369 9.61016C15.4945 9.91319 15.3935 10.3677 15.1814 10.7011C15.1484 10.7586 15.1017 10.8071 15.0455 10.8424C14.9893 10.8776 14.9253 10.8984 14.8591 10.9031C14.6167 10.9031 14.4753 10.9031 14.3945 10.7516C14.0915 10.3475 14.0107 9.74147 13.4864 9.51925C13.2007 9.42226 12.8983 9.38445 12.5975 9.40814C12.1531 9.40814 11.6389 9.49905 11.246 9.53945C11.2958 9.41487 11.3363 9.28693 11.3672 9.15561C11.4884 8.54955 11.3672 7.894 11.4985 7.27884L11.6804 7.33945C11.8723 7.38491 12.0723 7.38491 12.2652 7.33945C12.9764 7.10503 13.5673 6.60089 13.9107 5.93541C14.0394 5.69312 14.1068 5.42293 14.1068 5.14854C14.1068 4.87416 14.0394 4.60397 13.9107 4.36167C13.8289 4.21885 13.7134 4.09817 13.5743 4.01015C13.4353 3.92213 13.2768 3.86942 13.1127 3.85662C12.8039 3.82088 12.4921 3.82088 12.1834 3.85662H11.9228C11.6487 3.41611 11.4538 2.93101 11.347 2.42329C11.2632 2.12026 11.1147 1.83743 10.9127 1.59501C10.6492 1.38125 10.3409 1.2295 10.0108 1.15099C9.6807 1.07248 9.33715 1.06923 9.00561 1.14147C8.92079 1.14916 8.84212 1.18904 8.78577 1.2529C8.72942 1.31677 8.69965 1.39978 8.70258 1.48491C8.70515 1.52738 8.71609 1.56893 8.73475 1.60717C8.75342 1.64541 8.77946 1.67959 8.81136 1.70775C8.84327 1.7359 8.88043 1.75748 8.92069 1.77124C8.96096 1.785 9.00355 1.79067 9.04601 1.78794C9.80359 1.78794 10.1975 1.78794 10.4097 2.07076C10.5743 2.30713 10.6824 2.58087 10.7218 2.86773C10.841 3.42127 11.0672 3.94551 11.3884 4.41218C11.4407 4.48224 11.5074 4.54018 11.5841 4.58202C11.6608 4.62386 11.7457 4.64862 11.8329 4.6546H12.7804C12.942 4.6546 13.1137 4.6546 13.1844 4.76571C13.2603 4.93103 13.2855 5.11516 13.2568 5.29479C13.228 5.47442 13.1466 5.64148 13.0228 5.7748C12.7733 6.115 12.4186 6.3635 12.0137 6.48188C11.9329 6.48188 11.8218 6.48188 11.7107 6.41117C11.508 6.36268 11.3026 6.34922 11.0945 6.37076C10.9591 6.37947 10.8304 6.43259 10.7283 6.5219C10.6262 6.6112 10.5565 6.7317 10.5299 6.8647C10.3581 7.55157 10.449 8.29804 10.2975 8.994C10.2521 9.17986 10.1763 9.35763 10.0753 9.51925C9.81268 9.51925 9.38844 9.33743 9.33793 9.33743C9.04632 9.25302 8.74454 9.20884 8.44096 9.20612C8.29423 8.73225 8.08353 8.28061 7.8147 7.86369C7.65015 7.64429 7.4368 7.46619 7.19154 7.34347C6.94628 7.22075 6.67582 7.15678 6.40157 7.15662C6.15943 7.14194 5.91753 7.18891 5.69848 7.29313C5.47943 7.39736 5.29039 7.55544 5.14904 7.75258C4.83046 8.31859 4.63141 8.94394 4.5642 9.58996L4.16016 9.66066H2.52581C2.18492 9.65968 1.84552 9.61556 1.51571 9.52935C1.26319 9.46874 1.21268 9.24652 1.21268 9.0041C1.27329 8.41521 1.42783 7.83945 1.66723 7.29905C2.13785 6.17497 2.85967 5.17361 3.77733 4.37177C4.69514 3.54333 5.77923 2.92036 6.95713 2.5445C7.01154 2.51205 7.05349 2.46228 7.07624 2.40315C7.09899 2.34402 7.10123 2.27896 7.0826 2.2184C7.06397 2.15785 7.02554 2.1053 6.97349 2.06919C6.92143 2.03308 6.85875 2.01549 6.79551 2.01925C5.52212 2.37738 4.33872 3.0004 3.32278 3.84753C2.28628 4.70047 1.46049 5.78101 0.90965 7.00511C0.529882 7.75558 0.33589 8.58628 0.343994 9.42733C0.373281 9.68009 0.47886 9.91794 0.646675 10.1092C0.81449 10.3005 1.03658 10.4361 1.28339 10.498C1.67329 10.6058 2.07026 10.6731 2.4743 10.7001H4.17026C4.43558 10.7155 4.70123 10.7155 4.96723 10.7001C5.08753 10.6921 5.20274 10.6485 5.2981 10.5747C5.39347 10.5009 5.46466 10.4004 5.50258 10.2859C5.58743 9.70006 5.73288 9.1243 5.93692 8.56874C5.96892 8.46771 6.03188 8.3793 6.1169 8.31603C6.20192 8.25276 6.30469 8.21784 6.41066 8.21622C6.52442 8.21582 6.63668 8.24212 6.73843 8.29299C6.84018 8.34387 6.92858 8.4179 6.99652 8.50915C7.26184 8.96975 7.47396 9.45427 7.63288 9.96268C7.67774 10.0582 7.74528 10.1412 7.82962 10.2046C7.91395 10.268 8.01252 10.3098 8.11672 10.3263C8.52076 10.3533 8.92447 10.3533 9.32783 10.3263C9.42884 10.3263 10.0955 10.4172 10.3379 10.4071C10.4355 10.4091 10.5323 10.3892 10.6212 10.349C10.7102 10.3088 10.789 10.2493 10.8521 10.1748V10.1142C11.246 10.1142 11.9329 10.0435 12.5076 10.0536C12.707 10.045 12.9061 10.0759 13.0935 10.1445C13.3258 10.2556 13.3561 10.5081 13.4359 10.7304C13.5137 11.0031 13.6632 11.2506 13.8703 11.4465C14.1329 11.6556 14.4642 11.7566 14.7996 11.7294C15.1016 11.7233 15.3915 11.6081 15.6157 11.4061C15.8682 11.0943 16.0804 10.7576 16.2521 10.396C16.6561 10.396 17.9581 10.2647 17.9581 10.2647C17.9581 10.4364 17.7359 11.6788 17.6248 12.1738C17.515 12.6714 17.3804 13.1623 17.2208 13.6465L16.141 16.8566C16.0663 17.1357 15.9718 17.4092 15.8581 17.6748C15.8075 17.7938 15.7275 17.898 15.6258 17.9778C15.3006 18.1784 14.9355 18.3056 14.5561 18.3506C13.9147 18.4112 13.2692 18.4112 12.6288 18.3506H11.2349C11.0834 18.3607 10.9319 18.3607 10.7804 18.3506C10.9451 17.9716 11.0507 17.5696 11.0935 17.1586C11.2284 16.4111 11.2284 15.6455 11.0935 14.898C11.0529 14.7958 10.9857 14.7063 10.8989 14.6388C10.812 14.5713 10.7086 14.5283 10.5995 14.5142L9.83187 14.4132C9.55233 14.366 9.29084 14.2438 9.07531 14.0597C8.98674 13.9865 8.91414 13.896 8.86201 13.7936C8.80989 13.6913 8.77934 13.5793 8.77228 13.4647C8.77228 13.1819 8.77228 13.0304 8.9541 13.0001C9.29339 12.983 9.6334 13.0136 9.9642 13.091C10.1864 13.1455 10.4177 13.1455 10.64 13.091C10.7495 13.0221 10.8401 12.927 10.9036 12.8143C10.9671 12.7016 11.0014 12.5749 11.0036 12.4455C11.04 11.89 11.04 11.3347 11.0036 10.7799C11.001 10.7374 10.9901 10.6958 10.9714 10.6576C10.9528 10.6193 10.9267 10.5852 10.8948 10.557C10.8629 10.5289 10.8257 10.5073 10.7855 10.4935C10.7452 10.4798 10.7026 10.4741 10.6602 10.4768C10.5762 10.482 10.4976 10.5198 10.441 10.582C10.3844 10.6442 10.3543 10.7261 10.3571 10.8102C10.389 11.3526 10.3687 11.8969 10.2965 12.4354C10.0032 12.3994 9.71282 12.342 9.42783 12.2637C9.08328 12.1958 8.72582 12.2531 8.41975 12.4253C8.25802 12.5517 8.13133 12.7173 8.05176 12.9065C7.97219 13.0957 7.9424 13.3021 7.96521 13.5061C7.96622 13.8698 8.08642 14.2243 8.30864 14.5142C8.63359 14.9139 9.07429 15.2033 9.57026 15.3425L10.1763 15.4536C10.2198 15.8627 10.2198 16.2758 10.1763 16.6849C10.146 17.1698 10.0016 17.6405 9.75208 18.0576C9.75208 18.1081 9.65106 18.1081 9.59046 18.1283C9.37901 18.1889 9.16352 18.226 8.94399 18.2394H7.68238C7.1867 18.2523 6.69075 18.2287 6.19854 18.1687C5.92138 18.1431 5.65109 18.0678 5.40056 17.9465C5.25403 17.867 5.12945 17.7525 5.03793 17.6132C4.81571 17.2698 4.64399 16.8758 4.45207 16.6041C3.66548 15.5538 2.95717 14.4471 2.33288 13.293C1.93086 12.5253 1.61268 11.7172 1.38339 10.8809C1.37904 10.8409 1.36623 10.8023 1.34581 10.7677C1.32539 10.7331 1.29783 10.7033 1.26496 10.6801C1.23209 10.657 1.19467 10.6412 1.1552 10.6336C1.11572 10.6261 1.07509 10.6271 1.03602 10.6365C0.996951 10.6459 0.960333 10.6635 0.928608 10.6882C0.896883 10.7129 0.870779 10.744 0.852036 10.7795C0.833293 10.8151 0.822341 10.8542 0.819909 10.8943C0.817477 10.9345 0.823622 10.9746 0.837933 11.0122C1.02581 11.9041 1.31672 12.7718 1.70662 13.596C2.29519 14.8201 2.96995 16.0009 3.72581 17.1294C3.93793 17.4526 4.10965 17.9475 4.36218 18.3304C4.5046 18.5556 4.69854 18.7455 4.92682 18.8859C5.27681 19.0708 5.65613 19.1939 6.04803 19.2495L6.52177 19.3102V20.0465C6.52783 20.2576 6.57228 20.4667 6.65309 20.6627C6.73995 20.8718 6.87834 21.0566 7.05713 21.197L7.23894 21.298C7.23437 21.3282 7.23437 21.3588 7.23894 21.3889C7.27632 21.9758 7.44096 22.5475 7.72379 23.0637C7.95107 23.4455 8.2844 23.7536 8.68137 23.9526C9.16275 24.1646 9.6867 24.2621 10.2121 24.2376C10.7375 24.2131 11.2501 24.0671 11.7097 23.8112C12.1938 23.5736 12.5826 23.1783 12.8121 22.6903C13.0416 22.2023 13.0981 21.6507 12.9723 21.1263C13.1308 21.0499 13.2796 20.955 13.4157 20.8435C13.6418 20.6294 13.8213 20.371 13.943 20.0844C14.0647 19.7978 14.1259 19.4892 14.1228 19.1778H14.6682C15.1754 19.1352 15.6675 18.9836 16.1107 18.7334C16.3536 18.5829 16.5523 18.3706 16.6864 18.1182C16.8299 17.8233 16.9544 17.5203 17.0602 17.2091C17.3531 16.4728 17.6854 15.7465 17.9783 15.0091C18.1097 14.6758 18.2309 14.3526 18.342 13.999C18.5137 13.4849 18.6652 12.991 18.7864 12.4253C18.9056 11.8866 18.9864 11.3415 19.0288 10.79C19.0613 10.4709 19.0613 10.1494 19.0288 9.83036C19.0147 9.74355 18.9833 9.66045 18.9365 9.58601C18.8896 9.51157 18.8283 9.44731 18.7561 9.39703M11.6198 22.7011C11.2466 22.9414 10.8205 23.087 10.3783 23.1253C9.94082 23.1872 9.4949 23.1457 9.07632 23.0041C8.74944 22.8987 8.46807 22.6853 8.27834 22.399C8.11046 22.1324 7.98123 21.8434 7.8945 21.5405H7.95511C8.35982 21.6058 8.76723 21.6394 9.17733 21.6415C9.77329 21.6415 10.3692 21.5708 10.9339 21.5304C11.4053 21.4926 11.873 21.4253 12.3369 21.3283C12.3469 21.5999 12.286 21.8693 12.1602 22.1102C12.0345 22.351 11.8482 22.554 11.6198 22.7011ZM12.8824 20.19C12.2508 20.4785 11.5497 20.5801 10.8622 20.4829C10.2167 20.5334 9.54096 20.5839 8.84399 20.594C8.57127 20.6081 8.29854 20.6081 8.02581 20.594C7.87325 20.5864 7.72319 20.5522 7.58238 20.493C7.45863 20.4562 7.34927 20.3822 7.26925 20.2809C7.19686 20.1397 7.15553 19.9847 7.14803 19.8263C7.13792 19.6615 7.13792 19.4962 7.14803 19.3314H7.66319C8.30224 19.3462 8.93827 19.3091 9.57127 19.2203C9.86622 19.1647 10.146 19.0445 10.3894 18.8667C10.4341 18.9203 10.494 18.9591 10.5612 18.9778C10.774 19.0182 10.9891 19.0418 11.2066 19.0485H12.5793L13.4369 19.1293C13.4224 19.3349 13.3656 19.5352 13.27 19.7177C13.1744 19.9002 13.0421 20.061 12.8814 20.19" fill="white"/>
<path d="M23.791 4.34114C23.624 3.89131 23.4291 3.4536 23.2062 3.02801C22.9075 2.34292 22.4554 1.73561 21.8848 1.25294C21.3142 0.770268 20.6404 0.425134 19.9152 0.24417C18.5128 -0.111417 17.0397 -0.0764856 15.6556 0.34518C15.6143 0.356785 15.5757 0.376506 15.5421 0.403191C15.5085 0.429876 15.4805 0.462991 15.4598 0.500603C15.4391 0.538215 15.4261 0.579571 15.4216 0.622257C15.4171 0.664943 15.4211 0.708103 15.4334 0.74922C15.4591 0.829007 15.5139 0.896185 15.5869 0.937368C15.6599 0.978552 15.7458 0.990718 15.8274 0.971442C17.0919 0.617434 18.4295 0.617434 19.694 0.971442C20.2968 1.13674 20.8529 1.4396 21.3188 1.85622C21.7847 2.27284 22.1475 2.79186 22.3789 3.37245C22.4496 3.54417 22.6112 3.89771 22.7324 4.25124C22.8536 4.60478 22.9344 4.71589 22.894 4.8472C22.8536 4.97851 22.7627 4.95831 22.6819 5.01892C22.4496 5.17043 22.1567 5.31185 21.9243 5.45225C21.7816 5.54181 21.6536 5.64956 21.5405 5.77548C21.4812 5.8409 21.4355 5.91745 21.406 6.00068C21.3765 6.08391 21.3639 6.17217 21.3688 6.26033C21.3688 6.42195 21.4395 6.68457 21.4395 6.80478C21.4286 7.03259 21.3627 7.25438 21.2476 7.45124C21.2188 7.52252 21.172 7.58511 21.1118 7.63291C21.0516 7.68072 20.9801 7.71209 20.9041 7.72397C20.6718 7.72397 20.5718 7.58255 20.4708 7.43104C20.3249 7.18326 20.1558 6.94989 19.9658 6.73407C19.7866 6.54063 19.5549 6.40372 19.2991 6.34013C19.137 6.29925 18.9673 6.29925 18.8051 6.34013C18.4393 6.48445 18.085 6.65667 17.7455 6.85528C17.6606 6.90544 17.5687 6.94288 17.4728 6.96639H17.4021C17.3236 6.85885 17.256 6.74381 17.2001 6.62296C17.0284 6.24922 16.8971 5.80478 16.7354 5.48154L16.6647 5.34114C17.1808 5.03922 17.6253 4.62915 17.9678 4.13912C18.1386 3.8743 18.2033 3.55484 18.149 3.24443C18.0947 2.93403 17.9254 2.65549 17.6748 2.46437C17.5485 2.33975 17.3985 2.24161 17.2337 2.17569C17.069 2.10978 16.8927 2.07743 16.7152 2.08053C16.1886 2.18329 15.6745 2.34245 15.1819 2.55528L15.1314 2.38356L14.5657 0.818917C14.5403 0.746585 14.4872 0.687326 14.418 0.654176C14.3489 0.621025 14.2694 0.616699 14.1971 0.642149C14.1612 0.654751 14.1283 0.674284 14.1 0.699632C14.0717 0.72498 14.0487 0.755647 14.0323 0.789883C13.9992 0.859025 13.9948 0.938505 14.0203 1.01084L14.5152 2.59569C14.5152 2.59569 14.6062 2.91892 14.6567 3.03003C14.6834 3.09913 14.7306 3.15841 14.792 3.19993C14.8534 3.24146 14.926 3.26323 15.0001 3.26235C15.495 3.26235 16.0102 2.91892 16.5243 2.83811C16.6363 2.81032 16.7537 2.8135 16.8641 2.84731C16.9744 2.88111 17.0734 2.94427 17.1506 3.03003C17.2505 3.11297 17.3168 3.22939 17.3373 3.35761C17.3577 3.48583 17.3309 3.61711 17.2617 3.727C16.888 4.18659 16.4193 4.56235 15.888 4.82599C15.8056 4.87278 15.7387 4.94269 15.6957 5.02706C15.6526 5.11143 15.6352 5.20657 15.6455 5.30074C15.6961 5.52835 15.7735 5.7472 15.8779 5.9573C16.0193 6.28053 16.1405 6.72498 16.292 7.10781C16.3769 7.30848 16.4846 7.49703 16.6152 7.67346C16.7104 7.80029 16.834 7.90295 16.9761 7.97314C17.1182 8.04333 17.2749 8.07908 17.4334 8.0775C17.836 8.03173 18.2225 7.89345 18.5627 7.67346C18.7647 7.56235 19.0981 7.43104 19.0981 7.43104C19.2375 7.54922 19.3536 7.69367 19.4415 7.85528C19.5816 8.09165 19.7499 8.3068 19.9466 8.50074C20.0892 8.63176 20.2591 8.72959 20.4441 8.78722C20.629 8.84485 20.8244 8.86085 21.0163 8.83407C21.2165 8.81383 21.41 8.7511 21.584 8.65007C21.7581 8.54904 21.9085 8.41203 22.0253 8.24821C22.3243 7.84417 22.494 7.35831 22.5102 6.85528C22.5351 6.68785 22.5351 6.51766 22.5102 6.35023C22.793 6.14821 23.2173 5.95629 23.5193 5.72397C23.6748 5.58659 23.7961 5.41387 23.8728 5.21993C23.9356 4.92558 23.9074 4.61911 23.792 4.34114" fill="white"/>
</g>
<defs>
<clipPath id="clip0_4827_1294">
<rect width="24.2424" height="24.2424" fill="white"/>
</clipPath>
</defs>
</svg>
