<svg width="32" height="32" viewBox="0 0 32 32" fill="none" xmlns="http://www.w3.org/2000/svg">
<mask id="mask0_4827_1561" style="mask-type:luminance" maskUnits="userSpaceOnUse" x="1" y="2" width="29" height="28">
<path d="M1.84375 2.08784H29.2925V29.5366H1.84375V2.08784Z" fill="white"/>
</mask>
<g mask="url(#mask0_4827_1561)">
<path fill-rule="evenodd" clip-rule="evenodd" d="M22.1906 23.709L19.8137 24.0656L16.6049 24.4221L14.525 24.4814L12.5049 24.4221L10.9597 23.9466L9.59311 22.4613L8.52343 19.4307L8.28586 18.7769L6.85963 18.3018L6.02773 16.935L5.43359 14.9742L6.08741 13.2509L7.63223 12.716L8.87999 13.3103L9.47432 14.6176L10.1874 14.4986L10.425 14.2016L10.1874 12.835L10.1279 11.1115L10.4845 8.73479L10.4704 7.37718L11.554 5.64495L13.4556 4.2784L16.7832 2.85217L20.4671 3.38701L23.676 5.70444L25.1617 8.08117L26.1124 9.80446L26.3499 14.0828L25.6368 17.7669L24.3298 21.035L23.0818 22.7582" fill="#F0D6B7"/>
<path fill-rule="evenodd" clip-rule="evenodd" d="M20.1711 33.9887L11.6736 34.3453V35.7713L12.3867 40.7627L12.0302 41.179L6.08805 39.1586L5.67181 38.4455L5.07768 31.731L3.71113 27.6902L3.41406 26.7395L8.16752 23.4714L9.65342 22.8771L10.9605 24.4814L12.0895 25.4916L13.3971 25.9075L13.991 26.0857L14.7041 29.1756L15.239 29.8294L16.6055 29.3539L15.6548 31.1961L20.8245 33.6323L20.1709 33.9889" fill="#335061"/>
<path fill-rule="evenodd" clip-rule="evenodd" d="M6.08933 13.2507L7.63416 12.7159L8.8821 13.3102L9.47643 14.6174L10.1894 14.4985L10.3676 13.7855L10.0111 12.419L10.3676 9.15048L10.0706 7.36789L11.14 6.12013L13.4575 4.27805L12.8037 3.38666L9.53573 4.99116L8.16899 6.06064L7.39658 7.72445L6.20812 9.32895L5.85156 11.2305L6.08933 13.2507Z" fill="#6D6B6D"/>
<path fill-rule="evenodd" clip-rule="evenodd" d="M8.52555 7.66613C8.52555 7.66613 9.41694 5.46768 12.9821 4.39801C16.5475 3.32834 13.1604 3.62541 13.1604 3.62541L9.29815 5.11113L7.81243 6.59665L7.159 7.78511L8.52555 7.66613ZM6.74295 12.8349C6.74295 12.8349 5.49501 8.67517 10.2488 8.08104L10.0706 7.36793L6.80244 8.14053L5.85156 11.2304L6.08933 13.2507L6.74295 12.8349Z" fill="#DCD9D8"/>
<path fill-rule="evenodd" clip-rule="evenodd" d="M8.64453 18.361L9.42265 17.6072C9.42265 17.6072 9.77369 17.6479 9.83318 18.0638C9.89248 18.48 10.0708 22.2235 12.6258 24.2438C12.859 24.4282 10.7244 23.9466 10.7244 23.9466L8.823 20.9757M19.5784 17.2321C19.5784 17.2321 19.717 15.4308 20.2018 15.5694C20.6871 15.708 20.6871 16.1928 20.6871 16.1928C20.6871 16.1928 19.5091 16.955 19.5784 17.2321Z" fill="#F7E4CD"/>
<path d="M24.5098 10.6363C24.5098 10.6363 23.5304 10.8431 23.4401 11.706C23.35 12.5688 24.5098 11.8842 24.6881 11.8248M17.3192 10.6958C17.3192 10.6958 16.0117 10.8741 16.0117 11.7058C16.0117 12.5379 17.4974 12.4784 17.9133 12.122" fill="#F7E4CD"/>
<path fill-rule="evenodd" clip-rule="evenodd" d="M9.23725 14.5581C9.23725 14.5581 6.97913 13.1914 6.74155 14.4988C6.50397 15.8059 5.96894 16.7567 7.0981 18.1233L6.32569 17.8857L5.61258 16.0438L5.375 14.261L6.74155 12.8348L8.28656 12.9538L9.17795 13.6667L9.23725 14.5581ZM10.3069 10.8146C10.3069 10.8146 11.3171 5.58565 16.4275 4.57547C20.6347 3.74395 22.8449 4.75374 23.6769 5.70443C23.6769 5.70443 19.9334 1.24805 16.368 2.6146C12.8026 3.98133 10.1883 6.47704 10.2476 8.08116C10.3487 10.8137 10.3069 10.8146 10.3069 10.8146ZM24.0931 6.29762C24.0931 6.29762 22.37 6.23832 22.3103 7.78333C22.3103 7.78333 22.3103 8.02091 22.4291 8.25849C22.4291 8.25849 23.796 6.71348 24.6277 7.54557" fill="#F7E4CD"/>
<path fill-rule="evenodd" clip-rule="evenodd" d="M16.548 8.42053C16.548 8.42053 16.2515 6.04912 14.2294 7.42783C12.9222 8.31923 13.0412 9.56698 13.2788 9.80456C13.5163 10.0421 13.4517 10.5211 13.6327 10.1923C13.8136 9.86386 13.7539 8.79419 14.4077 8.49731C15.0613 8.20006 16.1331 7.86821 16.548 8.42053Z" fill="#F7E4CD"/>
<path fill-rule="evenodd" clip-rule="evenodd" d="M10.9607 24.4814L5.37512 26.9771C5.37512 26.9771 7.69255 36.1875 6.50409 39.0398L5.67219 38.7427L5.6127 35.2368L4.06788 28.5818L3.41406 26.7397L9.23738 22.8182L10.9607 24.4818M11.535 29.5756L12.3276 30.5425V34.1081H11.3767C11.3767 34.1081 11.2579 31.6122 11.2579 31.3149C11.2579 31.0178 11.3765 29.9484 11.3765 29.9484M11.5548 34.6427L8.88082 34.7615L9.65342 35.2961L11.5548 35.5934" fill="#49728B"/>
<path fill-rule="evenodd" clip-rule="evenodd" d="M21.3008 34.0486L24.6284 33.8703C24.6284 33.8703 25.9949 30.4239 25.9949 30.2458C25.9949 30.0674 27.1834 25.2542 27.1834 25.2542L24.5094 22.4614L23.9748 21.9861L22.5485 23.4121V28.9384L21.3008 34.0486Z" fill="#335061"/>
<path fill-rule="evenodd" clip-rule="evenodd" d="M22.7867 33.6324L20.707 34.0482L21.0041 35.7122C21.7765 36.0688 23.0839 35.1179 23.0839 35.1179M22.8456 23.2337L27.0051 26.3235L27.1241 24.8975L23.9748 21.9858L22.8456 23.2337Z" fill="#49728B"/>
<path d="M21.166 33.5735L19.8587 30.2459L18.4922 28.2851C18.4922 28.2851 18.7891 27.4532 19.2049 27.4532H20.5718L21.8791 27.9285L21.7603 30.1271L21.166 33.5737" fill="#FAFAFA"/>
<path fill-rule="evenodd" clip-rule="evenodd" d="M21.421 32.444C21.421 32.444 19.757 29.2354 19.757 28.76C19.757 28.76 20.054 28.0469 20.4701 28.2252C20.8861 28.4035 21.7775 28.8788 21.7775 28.8788V27.7498L19.7572 27.3336L18.3906 27.5121L20.7081 32.9788L21.1832 33.0383" fill="#DCD9D8"/>
<path d="M14.1523 24.6009L12.5061 24.4219L10.9609 23.9465V24.4813L11.7159 25.3138L14.0928 26.3833" fill="#FAFAFA"/>
<path fill-rule="evenodd" clip-rule="evenodd" d="M11.4986 24.779C11.4986 24.779 13.3409 25.5516 13.935 25.3733L13.9941 26.0857L12.3307 25.7299L11.3203 25.0168L11.4986 24.779Z" fill="#DCD9D8"/>
<path fill-rule="evenodd" clip-rule="evenodd" d="M23.5351 27.6556C22.5268 27.6259 21.6159 27.5062 20.8184 27.2811C20.8725 26.9542 20.771 26.6334 20.8526 26.3979C21.0749 26.2377 21.4475 26.2402 21.7835 26.2027C21.4929 26.0598 21.0846 26.0034 20.7496 26.0858C20.7416 25.8589 20.6397 25.7183 20.5781 25.5407C21.1449 25.3385 22.4833 24.0119 23.236 24.4513C23.5946 24.6602 23.747 25.8534 23.7748 26.4337C23.798 26.9151 23.7311 27.4007 23.5351 27.6558" fill="#D33833"/>
<path d="M23.5351 27.6556C22.5268 27.6259 21.6159 27.5062 20.8184 27.2811C20.8725 26.9542 20.771 26.6334 20.8526 26.3979C21.0749 26.2377 21.4475 26.2402 21.7835 26.2027C21.4929 26.0598 21.0846 26.0034 20.7496 26.0858C20.7416 25.8589 20.6397 25.7183 20.5781 25.5407C21.1449 25.3385 22.4833 24.0119 23.236 24.4513C23.5946 24.6602 23.747 25.8534 23.7748 26.4337C23.798 26.9151 23.7311 27.4007 23.5351 27.6558V27.6556Z" stroke="#D33833" stroke-width="0.53455"/>
<path fill-rule="evenodd" clip-rule="evenodd" d="M18.7137 26.0074C18.7111 26.0838 18.7081 26.1604 18.7048 26.2373C18.39 26.4443 17.8818 26.4418 17.5363 26.6156C18.0456 26.6378 18.4467 26.7606 18.7933 26.9333L18.7709 27.5098C18.1939 27.9047 17.6667 28.493 16.9874 28.8634C16.6662 29.0387 15.5387 29.4895 15.197 29.4098C15.0037 29.365 14.9862 29.1249 14.9089 28.8988C14.7443 28.4145 14.3651 27.6434 14.332 26.9145C14.2898 25.9935 14.1971 24.45 15.1892 24.6397C15.9899 24.7925 16.9212 25.1614 17.5412 25.5001C17.92 25.7072 18.139 25.9631 18.7137 26.0074Z" fill="#D33833"/>
<path d="M18.7137 26.0074C18.7111 26.0838 18.7081 26.1604 18.7048 26.2373C18.39 26.4443 17.8818 26.4418 17.5363 26.6156C18.0456 26.6378 18.4467 26.7606 18.7933 26.9333L18.7709 27.5098C18.1939 27.9047 17.6667 28.493 16.9874 28.8634C16.6662 29.0387 15.5387 29.4895 15.197 29.4098C15.0037 29.365 14.9862 29.1249 14.9089 28.8988C14.7443 28.4145 14.3651 27.6434 14.332 26.9145C14.2898 25.9935 14.1971 24.45 15.1892 24.6397C15.9899 24.7925 16.9212 25.1614 17.5412 25.5001C17.92 25.7072 18.139 25.9631 18.7137 26.0074Z" stroke="#D33833" stroke-width="0.53455"/>
<path fill-rule="evenodd" clip-rule="evenodd" d="M19.2881 27.1059C19.2001 26.6042 19.0983 26.461 19.1376 26.0235C20.4756 25.1315 20.7267 27.5556 19.2881 27.1059Z" fill="#D33833"/>
<path d="M19.2881 27.1059C19.2001 26.6042 19.0983 26.461 19.1376 26.0235C20.4756 25.1315 20.7267 27.5556 19.2881 27.1059Z" stroke="#D33833" stroke-width="0.53455"/>
<path fill-rule="evenodd" clip-rule="evenodd" d="M21.2232 27.5126C21.2232 27.5126 20.807 26.9182 21.1043 26.74C21.4015 26.5617 21.6986 26.74 21.8769 26.4429C22.0552 26.1458 21.8769 25.9676 21.9364 25.611C21.9959 25.2544 22.2931 25.195 22.5902 25.1357C22.8871 25.0762 23.7191 24.9574 23.8379 25.2544L23.4814 24.185L22.7683 23.9474L20.5103 25.2544L20.3913 25.9083V27.2153M14.9837 29.4736C14.9122 28.5461 14.8368 27.6201 14.7528 26.6938C14.6269 25.3103 15.085 25.5517 16.2841 25.5517C16.4673 25.5517 17.4117 25.7703 17.4794 25.9083C17.8035 26.5702 16.9375 26.4231 17.8527 26.9222C18.6253 27.3434 19.9901 26.6664 19.6779 25.73C19.5032 25.5219 18.7676 25.6652 18.504 25.5285L17.1114 24.8063C16.5207 24.4999 15.1557 24.0532 14.526 24.4815C12.9305 25.5667 14.6268 28.2778 15.1958 29.4098" fill="#EF3D3A"/>
<path fill-rule="evenodd" clip-rule="evenodd" d="M16.5489 8.42053C14.9293 8.04326 14.1246 9.09829 13.6337 10.1925C13.1954 10.0862 13.3697 9.4902 13.4805 9.18629C13.7703 8.38917 14.9386 7.32786 15.8931 7.47193C16.3039 7.5337 16.8598 7.90945 16.5489 8.42053ZM24.4406 10.2641L24.5174 10.2672C24.8835 11.0274 25.2003 11.8329 25.662 12.504C25.3525 13.2244 23.32 13.8618 23.3514 12.5683C23.791 12.3763 24.5497 12.5291 24.9395 12.2837C24.7141 11.6653 24.3889 11.1388 24.4406 10.2641ZM17.3779 10.285C17.7251 10.9217 17.8382 11.5904 18.3318 12.0716C18.5542 12.2883 18.9864 12.5523 18.772 13.1546C18.722 13.2966 18.356 13.6134 18.1448 13.6756C17.3732 13.9036 15.575 13.7227 16.1839 12.7606C16.8222 12.7904 17.6799 13.1749 18.1568 12.7118C17.7905 12.1262 17.1375 10.9676 17.3779 10.285ZM24.1498 16.7542C22.988 17.5006 21.6923 18.3121 19.7885 18.124C19.3817 17.7704 19.2266 16.9832 19.6218 16.4634C19.8274 16.8171 19.6982 17.4677 20.2716 17.5656C21.3519 17.7503 22.6092 16.9047 23.3862 16.6092C23.868 15.7967 23.3445 15.4979 22.9104 14.9752C22.0219 13.904 20.8298 12.5762 20.873 10.9725C21.2322 10.7121 21.2632 11.3701 21.3149 11.4898C21.7786 12.5759 22.9465 13.9646 23.799 14.8942C24.008 15.1233 24.3528 15.3428 24.391 15.4943C24.5016 15.9343 24.1034 16.4617 24.1496 16.7544M8.83233 15.9685C8.46817 15.7605 8.3815 14.8452 7.95386 14.819C7.34281 14.7819 7.45419 16.0069 7.45666 16.723C7.03605 16.3412 6.96212 15.1656 7.27116 14.562C6.91897 14.3891 6.76179 14.7526 6.56641 14.8807C6.81729 13.0571 9.23412 14.035 8.83233 15.9685ZM24.8892 17.5137C24.3482 18.5432 23.5832 19.677 21.996 19.7098C21.9637 19.3772 21.939 18.8715 21.9977 18.6713C23.2111 18.5546 23.9603 17.9371 24.8892 17.5137ZM17.2865 18.1812C18.2988 18.7133 20.1591 18.7707 21.5349 18.7305C21.6087 19.0319 21.607 19.4042 21.6098 19.772C19.8413 19.86 17.7502 19.4223 17.2865 18.1812ZM17.094 19.1737C17.794 20.9312 20.1998 20.7288 22.2287 20.6803C22.1393 20.9084 21.9457 21.1783 21.7051 21.2756C21.055 21.5401 19.2618 21.7409 18.3592 21.2615C17.7869 20.9572 17.4191 20.2696 17.1055 19.8665C16.9541 19.6718 16.1997 19.1746 17.094 19.1737Z" fill="#231F20"/>
<path fill-rule="evenodd" clip-rule="evenodd" d="M24.0664 28.8684C23.2449 30.2752 22.459 31.7203 21.4844 32.9612C21.893 31.76 22.0679 29.7491 22.1294 28.2163C22.9843 27.8162 23.7163 28.3066 24.0664 28.8684Z" fill="#81B0C4"/>
<path fill-rule="evenodd" clip-rule="evenodd" d="M21.1231 24.4076C20.7 24.6838 20.3398 25.0286 19.9335 25.3234C19.0326 25.368 18.5409 25.261 17.8789 24.7437C17.8897 24.702 17.9563 24.7207 17.9587 24.6695C18.9233 25.0995 20.1492 24.4947 21.1231 24.4076Z" fill="#F0D6B7"/>
<path fill-rule="evenodd" clip-rule="evenodd" d="M16.0588 30.9816C16.3237 29.8337 17.362 29.2388 18.3047 28.6064C19.2779 29.8414 19.8697 31.4298 20.5214 32.9626C18.9816 32.4983 17.4084 31.7451 16.0588 30.9816Z" fill="#81B0C4"/>
<path fill-rule="evenodd" clip-rule="evenodd" d="M21.4735 40.1544C21.4341 41.0933 21.5659 42.5986 21.61 43.5833C22.2339 43.584 22.5015 43.4468 22.9674 43.2896C23.0198 42.131 22.6006 41.0589 22.4797 40.0008C22.233 39.935 21.7804 40.1745 21.4735 40.1544ZM11.7556 34.8155C12.1671 38.5989 12.7631 41.7792 13.8566 45.1294C16.2829 45.8661 19.2081 45.9304 21.3528 45.2655C20.959 43.3748 21.131 41.0727 20.9008 39.0549C20.7275 37.5382 20.8159 36.0122 20.5781 34.4649C17.9794 33.9243 14.3059 34.3385 11.7556 34.8155ZM21.1924 34.4886C21.1705 36.1135 21.2652 37.7162 21.3893 39.3432C22.0131 39.2495 22.4365 39.187 23.0162 39.06C22.8281 37.4937 22.8511 35.7312 22.4677 34.3457C22.0245 34.3501 21.6343 34.3406 21.1924 34.4886ZM24.3575 34.2267C24.0614 34.1589 23.7166 34.224 23.4338 34.2296C23.5668 35.5541 23.8894 37.0157 24.003 38.406C24.4481 38.4199 24.6859 38.2098 25.0522 38.1393C25.0716 36.9189 24.9454 35.2375 24.3575 34.2267ZM29.1499 38.6054C30.0778 38.3799 30.6613 37.2436 30.4017 36.0766C30.2276 35.2922 29.9174 33.8152 29.5853 33.3135C29.3402 32.9423 28.6749 32.4563 28.1439 32.7965C27.2801 33.3496 25.7582 33.5102 25.1282 34.1798C25.4441 35.2316 25.5421 36.6762 25.6725 38.0088C26.7517 38.076 28.0797 37.7119 28.9771 38.0983C28.3505 38.3013 27.5374 38.303 26.9961 38.5987C27.4386 38.8125 28.4744 38.7692 29.1499 38.6054ZM20.5213 32.9624C19.8694 31.4299 19.2777 29.8416 18.3046 28.6066C17.3619 29.2389 16.3236 29.8336 16.0586 30.9818C17.4081 31.7453 18.9816 32.4985 20.5215 32.9626L20.5213 32.9624ZM22.1279 28.2164C22.0661 29.7492 21.8912 31.7599 21.4826 32.9613C22.4572 31.7202 23.2432 30.2753 24.0646 28.8685C23.7145 28.3065 22.9826 27.8163 22.1279 28.2164ZM20.3067 27.5692C19.9374 27.5293 19.624 27.9936 19.1441 27.7929C19.0338 27.9146 18.9341 28.0463 18.8219 28.1651C19.8823 29.4428 20.3641 31.2558 21.1831 32.7575C21.6225 31.315 21.5717 29.7348 21.6687 28.1603C21.0649 28.1985 20.7298 27.6143 20.3067 27.5692ZM19.1357 26.0236C19.0962 26.4613 19.1981 26.6045 19.2861 27.106C20.7248 27.5559 20.4736 25.1317 19.1357 26.0236ZM17.5403 25.5C16.9205 25.1613 15.9892 24.7924 15.1885 24.6396C14.196 24.4497 14.2891 25.9934 14.3313 26.9143C14.3642 27.6433 14.7434 28.4144 14.9082 28.8987C14.9853 29.1249 15.0028 29.3649 15.1961 29.41C15.5378 29.4894 16.6653 29.0386 16.9865 28.8635C17.666 28.4929 18.193 27.9047 18.77 27.5097L18.7927 26.9334C18.4456 26.7605 18.0448 26.6379 17.5354 26.6155C17.8809 26.4418 18.3892 26.4442 18.7039 26.2374C18.7071 26.1603 18.71 26.0836 18.7128 26.0075C18.1381 25.963 17.9193 25.7072 17.5403 25.5ZM11.6195 24.4244C11.105 24.9467 13.0625 25.6587 13.6857 25.6971C13.6823 25.3666 13.874 25.0551 13.8355 24.8179C13.0952 24.6879 12.1226 24.7738 11.6195 24.4244ZM17.9571 24.6696C17.9547 24.7209 17.8882 24.7023 17.8773 24.7437C18.5391 25.2611 19.031 25.3681 19.9319 25.3234C20.3381 25.0286 20.6984 24.6839 21.1215 24.4077C20.1476 24.4948 18.9217 25.0995 17.9573 24.6698L17.9571 24.6696ZM23.7742 26.4338C23.7464 25.8535 23.594 24.6601 23.2354 24.4512C22.4825 24.0118 21.1443 25.3384 20.5775 25.5407C20.6391 25.7182 20.741 25.8588 20.7488 26.0858C21.084 26.0033 21.4923 26.0597 21.7827 26.2027C21.4469 26.2403 21.0744 26.2378 20.852 26.3979C20.7704 26.6333 20.8719 26.9542 20.8178 27.2811C21.6153 27.5061 22.5262 27.6258 23.5345 27.6555C23.7307 27.4006 23.7974 26.9152 23.7742 26.4338ZM10.7534 24.9294C10.5919 24.8143 9.499 23.3924 9.34923 23.4513C7.37163 24.2311 5.52251 25.5798 3.87011 26.8553C5.44573 30.236 6.08149 34.3778 6.194 38.3697C7.99883 39.2137 9.58395 40.4307 12.0331 40.5577C11.7497 38.5525 11.491 36.7637 11.3301 34.8758C10.7148 34.6163 9.83198 34.8876 9.25591 34.7954C9.25115 34.1015 10.1355 34.4913 10.2091 34.0249C10.2646 33.6717 9.72251 33.6451 9.89908 33.0892C10.3491 33.2528 10.5856 33.6143 11.0657 33.75C11.5045 32.7902 11.0596 31.092 11.1227 30.2899C11.1349 30.1394 11.1982 29.4556 11.5355 29.5755C11.8339 29.6817 11.5184 31.3942 11.5511 32.1533C11.5809 32.8527 11.4667 33.5297 11.7499 33.9688C14.1812 33.6358 16.6287 33.4353 19.0817 33.3682C18.5184 33.1264 17.8492 32.8978 17.1155 32.4842C16.7177 32.2599 15.4639 31.7933 15.3493 31.4157C15.1661 30.8138 15.8298 30.4929 15.9432 29.9769C14.7487 30.6284 14.5157 29.3524 14.2331 28.4484C13.9771 27.6296 13.8313 27.018 13.7684 26.5459C12.7394 26.0554 11.6391 25.5585 10.7534 24.9294ZM22.729 23.6233C24.3769 22.8243 24.6738 26.6094 24.0279 27.8288C24.1277 28.1926 24.471 28.3317 24.6112 28.6586C23.6917 30.3059 22.6705 31.8433 21.7322 33.471C22.4301 33.0365 23.4269 33.3933 24.2482 33.0681C24.5485 32.9495 24.7656 32.2622 24.9929 31.7124C25.6182 30.1999 26.2745 28.2932 26.5666 26.8494C26.6323 26.5206 26.8121 25.8041 26.7719 25.5114C26.7 24.9872 25.9888 24.5985 25.6273 24.2745C24.9609 23.6758 24.5413 23.1491 23.8462 22.5894C23.5644 23.0054 22.9594 23.285 22.729 23.6233ZM6.98504 9.01172C6.20009 9.87555 6.3643 11.4943 6.45933 12.6459C7.87852 11.7532 9.76204 12.7166 9.74437 14.2348C10.4219 14.217 9.99753 13.3887 9.87494 12.8552C9.47448 11.1125 10.5497 9.21927 9.92359 7.62541C8.70815 7.71759 7.70937 8.21403 6.98504 9.01172ZM12.6029 3.99788C10.8254 4.50154 8.54754 5.79321 7.81713 7.38992C8.38276 7.30781 8.77524 7.02253 9.33326 6.98718C9.54423 6.97349 9.82039 7.07574 10.0627 7.0153C10.5455 6.89557 10.9532 5.81278 11.3175 5.40985C11.6725 5.01642 12.0994 4.84841 12.3916 4.48976C12.5793 4.3991 12.8568 4.40537 12.8675 4.12351C12.7861 4.03665 12.7004 3.97013 12.6029 3.99788ZM21.8553 4.4717C20.0104 3.43073 16.8879 2.64787 14.9253 3.62611C13.3419 4.41582 11.2014 5.72194 10.4715 7.37738C11.1533 8.97485 10.2697 10.4385 10.2131 12.0605C10.1832 12.9234 10.6196 13.6768 10.6531 14.6161C10.4197 15.001 9.70692 15.0485 9.21352 15.0221C9.0476 14.1911 8.7568 13.257 7.90095 13.1632C6.69007 13.0308 5.80457 14.033 5.74964 15.08C5.68464 16.3116 6.69577 18.3529 8.12865 18.2113C8.6823 18.1568 8.81838 17.6018 9.42145 17.6075C9.74836 18.2598 8.91721 18.4647 8.83169 18.9311C8.80945 19.0516 8.90068 19.5225 8.95371 19.7434C9.21409 20.8188 9.79416 22.2108 10.3653 23.0296C11.0902 24.0681 12.5143 24.2247 14.0468 24.3264C14.3205 23.737 15.3284 23.7854 15.9854 23.9396C15.198 23.6279 14.4663 22.872 13.8596 22.203C13.163 21.4353 12.4573 20.612 12.4216 19.6086C13.7381 21.4351 14.8259 23.0303 17.2199 23.8337C19.0312 24.4412 21.147 23.5553 22.539 22.5778C23.1166 22.1716 23.4613 21.5269 23.8719 20.9368C25.408 18.7271 26.1249 15.5734 25.9671 12.5165C25.9021 11.2558 25.905 9.99928 25.4821 9.15123C25.04 8.2644 23.5448 7.47108 22.6692 8.27314C22.507 7.41083 23.3971 6.87732 24.4426 7.18788C23.6972 6.2256 22.9147 5.06964 21.8551 4.47189L21.8553 4.4717ZM25.2924 32.9164C26.734 32.1999 29.4276 30.9875 30.3313 32.9191C30.6649 33.6311 31.0562 34.8347 31.229 35.5697C31.473 36.6067 30.9644 38.7861 29.8986 39.1341C28.9572 39.4414 27.8586 39.4226 26.7245 39.1949C26.5911 39.0837 26.4425 38.8903 26.3387 38.6884C25.5288 38.6571 24.7707 38.7319 24.1311 39.0647C24.1918 39.6634 23.7867 39.7596 23.407 39.883C23.1257 40.999 23.9701 42.4566 23.7681 43.4744C23.6237 44.1995 22.7317 44.3116 22.0762 44.4471C22.0547 44.85 22.1047 45.1865 22.1495 45.5272C21.9996 46.0797 21.3271 46.3941 20.69 46.4713C18.5939 46.7233 15.4111 46.8366 13.3947 46.1115C12.8321 44.7314 12.3889 43.0528 11.9202 41.477C9.95381 41.687 8.36318 40.6286 6.86397 39.935C6.34491 39.6944 5.62667 39.5618 5.4328 39.1486C5.24464 38.7485 5.32181 37.9816 5.27505 37.2574C5.15626 35.4076 5.05458 33.6235 4.56612 31.7293C4.34679 30.8793 3.96457 30.1293 3.69792 29.3104C3.45141 28.5513 3.02072 27.6131 2.90821 26.8567C2.74152 25.7347 3.79789 25.6722 4.47337 25.186C5.51757 24.4345 6.33712 24.0187 7.46799 23.3403C7.80288 23.1394 8.81306 22.6308 8.92786 22.3965C9.15631 21.9321 8.53595 21.2774 8.37003 20.9134C8.10774 20.3375 7.97089 19.8487 7.93326 19.2808C6.98447 19.1308 6.26547 18.5661 5.83117 17.9296C5.11255 16.8761 4.61421 14.927 5.2359 13.4444C5.28475 13.3277 5.52784 13.0981 5.56376 12.9188C5.63446 12.5657 5.43071 12.0961 5.41779 11.7205C5.3526 9.79326 5.74394 8.13306 7.04111 7.55204C7.56777 5.45414 9.45262 4.75623 11.2286 3.71373C11.8924 3.32411 12.6242 3.07513 13.3801 2.79688C16.0909 1.79905 20.2508 1.98702 22.5006 3.68865C23.4547 4.41031 24.9798 5.93385 25.5252 7.03698C26.9659 9.9493 26.8636 14.8164 25.8559 18.3592C25.7206 18.8349 25.5241 19.5339 25.2496 20.1053C25.0584 20.5044 24.4639 21.3027 24.5361 21.6549C24.6105 22.019 25.8917 22.9917 26.1663 23.2567C26.661 23.7338 27.6009 24.3672 27.6769 24.9695C27.7587 25.6104 27.3947 26.487 27.2101 27.1055C26.5934 29.1692 25.9915 31.0768 25.2922 32.9168" fill="#231F20"/>
<path fill-rule="evenodd" clip-rule="evenodd" d="M15.6771 18.6309C15.7552 18.5267 16.1853 18.3686 16.787 18.6582C16.787 18.6582 16.0739 18.7772 16.1332 19.9661L15.836 19.9066C15.836 19.9066 15.529 18.8285 15.6771 18.6309Z" fill="#F7E4CD"/>
<path fill-rule="evenodd" clip-rule="evenodd" d="M20.8843 28.8491C20.8843 28.9358 20.8498 29.0189 20.7885 29.0802C20.7271 29.1415 20.644 29.1759 20.5573 29.1759C20.4706 29.1759 20.3874 29.1414 20.3261 29.0801C20.2649 29.0188 20.2304 28.9356 20.2305 28.8489C20.2305 28.7622 20.265 28.679 20.3263 28.6178C20.3876 28.5565 20.4708 28.5221 20.5575 28.5221C20.6442 28.5221 20.7273 28.5566 20.7886 28.6179C20.8499 28.6792 20.8843 28.7624 20.8843 28.8491ZM21.2112 30.3643C21.2112 30.4072 21.2027 30.4497 21.1863 30.4894C21.1699 30.529 21.1458 30.5651 21.1154 30.5954C21.0851 30.6258 21.049 30.6498 21.0094 30.6663C20.9697 30.6827 20.9272 30.6912 20.8843 30.6912C20.8414 30.6912 20.7988 30.6827 20.7592 30.6663C20.7195 30.6498 20.6835 30.6258 20.6531 30.5954C20.6228 30.5651 20.5987 30.529 20.5823 30.4894C20.5658 30.4497 20.5574 30.4072 20.5574 30.3643C20.5574 30.2776 20.5918 30.1944 20.6531 30.1331C20.7144 30.0718 20.7976 30.0373 20.8843 30.0373C20.971 30.0373 21.0541 30.0718 21.1154 30.1331C21.1767 30.1944 21.2112 30.2776 21.2112 30.3643Z" fill="#1D1919"/>
</g>
</svg>
