<svg
      xmlns="http://www.w3.org/2000/svg"
      width="76"
      height="80"
      viewBox="0 0 76 80"
      fill="none"
    >
      <path
        d="M14.4559 12.5899C9.68003 19.4529 10.2744 28.3831 13.9232 35.6768L14.1902 36.1952L14.3611 36.5239L14.4676 36.7129L14.658 37.0533C14.771 37.2528 14.8873 37.4509 15.0061 37.6503L15.2049 37.9777C15.3368 38.1895 15.4713 38.4 15.609 38.6098L15.7811 38.8755C15.9715 39.1594 16.1657 39.4419 16.3664 39.7206L16.3833 39.7421L16.482 39.8752C16.6555 40.1143 16.8341 40.3507 17.0154 40.5852L17.2161 40.8405C17.3778 41.0439 17.5422 41.2452 17.7091 41.4473L17.8975 41.672C18.1216 41.9358 18.351 42.1995 18.5842 42.4567L18.5978 42.471L18.6244 42.5003C18.8525 42.7491 19.0857 42.9927 19.3228 43.2363L19.5462 43.4617C19.7294 43.6462 19.9159 43.8274 20.1036 44.008L20.3316 44.225C20.583 44.4614 20.8363 44.694 21.0955 44.92L21.1072 44.9304L21.2404 45.0435C21.4684 45.2416 21.7003 45.4365 21.9342 45.6294L22.2213 45.8587C22.4123 46.0114 22.6052 46.1627 22.7994 46.3109L23.1093 46.5454C23.3237 46.7032 23.54 46.8585 23.7583 47.0111L23.9941 47.1787L24.0597 47.2255C24.2663 47.3684 24.4787 47.5055 24.6898 47.6425L24.9626 47.8244C25.2874 48.0291 25.6168 48.2324 25.9494 48.4286L26.2222 48.5825C26.4671 48.7235 26.7133 48.8625 26.9628 48.9976L27.3727 49.2094L27.9027 49.4848L28.0249 49.5439L28.2418 49.6485C28.5192 49.781 28.7992 49.9116 29.0818 50.0376L29.2591 50.1169C29.5826 50.2585 29.9094 50.3943 30.2387 50.5248L30.4778 50.6184C30.7824 50.7366 31.0917 50.8516 31.4022 50.9607L31.5184 51.001C31.8588 51.1205 32.2031 51.2303 32.5494 51.3388L32.7982 51.4128C33.1503 51.5194 33.4991 51.6454 33.8622 51.713C56.9576 55.9244 63.6661 37.8348 63.6661 37.8348C58.0314 45.1753 48.0308 47.1112 38.555 44.9558C38.1957 44.8746 37.8475 44.7622 37.4974 44.6596L37.2337 44.579C36.8921 44.4748 36.5526 44.3644 36.2151 44.2477L36.0754 44.1977C35.7745 44.0911 35.4753 43.98 35.1777 43.8644L34.9256 43.7657C34.6002 43.6371 34.276 43.5026 33.9564 43.3629L33.7628 43.2766C33.4886 43.1533 33.216 43.0266 32.945 42.8965L32.7085 42.7828C32.4961 42.6796 32.2863 42.5698 32.0758 42.4613L31.6542 42.2398C31.3976 42.1034 31.1462 41.9605 30.8961 41.8149L30.6402 41.6727C30.308 41.4759 29.9788 41.2741 29.6528 41.0672L29.3864 40.8899C29.1499 40.738 28.9158 40.5823 28.6842 40.4228L28.4575 40.2637C28.2344 40.1065 28.013 39.9466 27.7936 39.7843L27.4993 39.5615C27.298 39.4075 27.0979 39.2522 26.9004 39.0931L26.6334 38.8787C26.3814 38.6721 26.1326 38.463 25.887 38.2493L25.8052 38.181C25.5401 37.9472 25.2785 37.7094 25.0204 37.4678L24.7996 37.2547C24.6083 37.0739 24.4203 36.8896 24.2357 36.7019L24.0149 36.481C23.7797 36.2407 23.5491 35.9971 23.323 35.7496L23.2886 35.7126C23.0496 35.451 22.8157 35.1848 22.587 34.9142L22.4032 34.6959C22.2321 34.4902 22.0638 34.2821 21.8984 34.0717L21.7133 33.841C21.5152 33.5851 21.3207 33.3263 21.13 33.0648C15.8695 25.8886 13.9791 15.9912 18.184 7.86334M29.2799 6.80709C25.8266 11.7766 26.0137 18.4305 28.7083 23.6858C29.1591 24.5692 29.6693 25.4211 30.2355 26.2355C30.7526 26.978 31.3268 27.8601 32.0134 28.4558C32.2622 28.7299 32.5227 28.9976 32.7884 29.26L32.9924 29.4621C33.2503 29.7122 33.5127 29.9584 33.7836 30.1974L33.8161 30.2253L33.8239 30.2331C34.124 30.4962 34.4339 30.7489 34.7483 30.9984L34.9581 31.1621C35.2738 31.4037 35.5954 31.6415 35.9254 31.8682L35.9533 31.8896L36.395 32.18L36.6042 32.3184C36.84 32.4697 37.0784 32.6165 37.3214 32.7575L37.4227 32.8173C37.6319 32.9374 37.8436 33.0557 38.0561 33.1713L38.2815 33.2882L38.7245 33.5182L38.7914 33.5487C39.0961 33.6981 39.4027 33.843 39.7165 33.9794L39.9204 34.0639C40.1712 34.1697 40.4239 34.2737 40.6785 34.3711L41.0033 34.4906C41.2346 34.5764 41.4658 34.655 41.6997 34.7329L42.0141 34.8336C42.3461 34.9363 42.6748 35.0668 43.0204 35.1247C60.852 38.0784 64.9685 24.349 64.9685 24.349C61.258 29.694 54.0714 32.2437 46.4028 30.2533C46.0639 30.1639 45.7271 30.0667 45.3927 29.9616L45.0893 29.8635C44.8524 29.7872 44.617 29.7062 44.3832 29.6206L44.0643 29.5017C43.809 29.4034 43.5555 29.301 43.3036 29.1944L43.0989 29.108C42.7854 28.9713 42.4753 28.827 42.1687 28.6754L41.7023 28.4383L41.4334 28.2999C41.2346 28.1921 41.0371 28.0803 40.8429 27.966L40.7019 27.8861C40.4607 27.7456 40.2225 27.6001 39.9873 27.4496L39.7717 27.306L39.3092 26.9994C38.9821 26.7724 38.6607 26.5374 38.3451 26.2946L38.1282 26.1231C34.7717 23.4733 32.1109 19.8512 30.8461 15.7443C29.5203 11.4849 29.8061 6.7038 32.1031 2.82306M41.7478 2.48656C39.7119 5.48254 39.5118 9.20413 40.9247 12.5132C42.4143 16.0256 45.4668 18.7806 49.0298 20.0876L49.4729 20.2403L49.6678 20.3026C49.8776 20.3689 50.0861 20.4455 50.3031 20.4858C60.1491 22.3885 62.8197 15.4338 63.5303 14.4094C61.1911 17.7776 57.2597 18.5864 52.4357 17.4151C52.0411 17.3144 51.6517 17.1941 51.269 17.0546C50.7973 16.8868 50.3346 16.6947 49.8828 16.4791C49.0258 16.0663 48.2118 15.5698 47.4526 14.9967C43.136 11.7213 40.4551 5.4741 43.2717 0.385742"
        fill="#0868AC"
      />
      <path
        d="M39.5318 61.8782H36.7866C36.7089 61.8812 36.6343 61.9092 36.5738 61.958C36.5133 62.0068 36.4701 62.0738 36.4507 62.1491L35.4763 66.6574L34.5019 71.1656C34.4828 71.2409 34.4398 71.308 34.3794 71.3568C34.319 71.4056 34.2444 71.4336 34.1667 71.4365H32.2238C30.3016 71.4365 30.5238 70.1068 30.9174 68.2853L30.9291 68.2301L30.972 68.0001L30.9798 67.9572L31.0675 67.4895L31.1617 66.9887L31.2617 66.4787L31.7047 64.3143L32.1484 62.1498C32.1569 62.1167 32.1575 62.0821 32.1502 62.0488C32.1428 62.0155 32.1278 61.9843 32.1063 61.9579C32.0847 61.9314 32.0573 61.9103 32.0261 61.8964C31.995 61.8825 31.961 61.876 31.9269 61.8776H29.1096C29.032 61.8804 28.9574 61.9085 28.8971 61.9574C28.8369 62.0064 28.7943 62.0737 28.7757 62.1491L28.1696 65.023L27.5642 67.8975L27.5629 67.9014L27.507 68.169C26.8093 71.354 26.9938 74.3922 30.7862 74.4877L30.8966 74.4897H36.849C36.9266 74.4867 37.0012 74.4588 37.0616 74.41C37.122 74.3611 37.165 74.2941 37.1842 74.2188L38.4678 68.1846L39.7514 62.1498C39.7832 62.0004 39.6845 61.8789 39.5318 61.8782ZM10.1333 61.8464H7.11914C7.04127 61.8494 6.96642 61.8773 6.90552 61.9259C6.84462 61.9745 6.80088 62.0414 6.7807 62.1167L6.49487 63.3782L6.20904 64.6397C6.17591 64.7885 6.27271 64.9099 6.42536 64.9099H9.46291C9.5407 64.9071 9.61549 64.8792 9.67612 64.8304C9.73676 64.7815 9.78 64.7144 9.79941 64.6391L10.0755 63.3782L10.3516 62.1173C10.3834 61.9685 10.286 61.8464 10.1333 61.8464ZM9.25894 65.7726H6.22074C6.1429 65.7758 6.06809 65.8037 6.00721 65.8523C5.94634 65.9009 5.90257 65.9676 5.88229 66.0429L5.4555 67.9332L5.02936 69.8229L4.91048 70.3647L4.50058 72.294L4.09133 74.224C4.0595 74.3727 3.99389 74.6131 3.94517 74.7573C3.94517 74.7573 3.37742 76.4463 2.42315 76.4268L2.30362 76.4242L1.47797 76.4093C1.40041 76.4111 1.32483 76.4378 1.26356 76.4854C1.20229 76.533 1.1579 76.5989 1.13693 76.6736L0.821872 77.9982L0.507463 79.3221C0.471735 79.4702 0.567876 79.5923 0.719234 79.5949C1.26035 79.6014 2.47252 79.6151 3.20592 79.6151C5.58932 79.6151 6.84631 78.2944 7.65117 74.4942L8.59374 70.1328L9.47786 66.0422C9.50969 65.8948 9.41095 65.7726 9.25894 65.7726ZM65.201 64.7501L65.0749 64.2298L64.9509 63.6971L64.8878 63.4282C64.641 62.4687 63.9167 61.9159 62.3433 61.9159L59.8943 61.9133L57.6389 61.9101H55.1009C55.0233 61.9129 54.9488 61.9409 54.8885 61.9897C54.8281 62.0386 54.7853 62.1057 54.7663 62.181L54.654 62.711L54.5215 63.3373L54.4844 63.5133L53.3418 68.866L52.2569 73.9473C52.2244 74.0967 52.2141 74.2798 52.2322 74.3539C52.2504 74.4286 52.5434 74.4897 52.6954 74.4897H54.9846C55.1373 74.4897 55.3302 74.4624 55.4134 74.4286C55.4965 74.3948 55.6193 74.0954 55.6498 73.9466L56.0565 71.9335L56.4638 69.9197L56.4644 69.9165L56.519 69.6482L57.0127 67.3356L57.4486 65.2932C57.4678 65.2181 57.5107 65.1512 57.571 65.1024C57.6312 65.0536 57.7056 65.0255 57.7831 65.0223L64.9866 65.0191C65.1392 65.0204 65.2354 64.8989 65.201 64.7501ZM74.4741 60.047L73.9193 60.049H71.6139C71.5294 60.0537 71.4469 60.0767 71.3721 60.1162C71.2973 60.1558 71.232 60.2111 71.1806 60.2783L66.0818 67.7474C65.9961 67.8734 65.898 67.8553 65.8642 67.7071L65.4887 66.0617C65.4685 65.9863 65.4247 65.9194 65.3636 65.8708C65.3026 65.8222 65.2276 65.7944 65.1496 65.7915H61.8724C61.7197 65.7915 61.6294 65.911 61.671 66.0571L63.1398 71.2027C63.1813 71.3495 63.1846 71.5898 63.1469 71.7379L62.507 74.2279C62.4687 74.376 62.5623 74.4962 62.7149 74.4962H65.9545C66.0329 74.493 66.1083 74.4654 66.1702 74.4173C66.2322 74.3692 66.2776 74.303 66.3001 74.2279L66.9406 71.7379C66.9913 71.5624 67.071 71.3967 67.1764 71.2475L75.4537 60.262C75.5459 60.1399 75.4959 60.0405 75.3439 60.0418L74.4741 60.047ZM48.434 66.4904V66.4878C48.4228 66.5663 48.384 66.6382 48.3246 66.6907C48.2652 66.7432 48.1891 66.7728 48.1099 66.7743H43.9543C43.8101 66.7743 43.7374 66.6769 43.7588 66.556L43.7627 66.5463L43.7601 66.5476L43.762 66.534L43.7809 66.4632C44.1778 65.4082 44.9859 64.7157 46.5053 64.7157C48.2164 64.7151 48.5503 65.5505 48.434 66.4904ZM47.2147 61.6938C41.8808 61.6938 40.6167 64.9314 39.9073 68.1995C39.1986 71.5307 39.259 74.6443 44.7793 74.6443H45.4484L45.6147 74.6436H45.6537L46.3163 74.6417H46.328C47.7857 74.6358 49.248 74.6248 49.8397 74.6202C49.9169 74.6163 49.9907 74.5877 50.0502 74.5386C50.1098 74.4894 50.1519 74.4224 50.1704 74.3474L50.3939 73.2554L50.4374 73.043L50.7037 71.7399C50.7122 71.7069 50.7128 71.6723 50.7055 71.639C50.6982 71.6057 50.6831 71.5746 50.6616 71.5482C50.64 71.5217 50.6126 71.5007 50.5814 71.4869C50.5502 71.473 50.5163 71.4667 50.4822 71.4684H45.5199C43.5457 71.4684 42.9598 70.9441 43.1761 69.402H51.1084L51.1078 69.4026L51.113 69.402C51.1757 69.3993 51.2364 69.3785 51.2876 69.3422C51.3389 69.3059 51.3786 69.2556 51.4021 69.1973L51.4209 69.1285L51.4202 69.1291C52.598 64.6865 52.2602 61.6944 47.2147 61.6938ZM22.0035 66.4736L21.9282 66.7392L21.3292 68.8628L20.7303 70.9851C20.7058 71.0603 20.6589 71.1262 20.5958 71.1739C20.5328 71.2216 20.4566 71.2489 20.3776 71.252H17.2075C14.8027 71.252 14.2167 69.3708 14.8027 66.597C15.388 63.7595 16.5358 61.9958 18.903 61.8172C22.138 61.5729 22.785 63.8478 22.0035 66.4736ZM24.1784 71.089C24.1784 71.089 25.6732 67.459 26.0122 65.3634C26.4754 62.5577 25.0703 58.4873 19.6435 58.4873C14.2479 58.4873 11.9041 62.3726 11.0103 66.597C10.1164 70.8519 11.2877 74.5826 16.6527 74.552L20.8856 74.5364L24.841 74.5222C24.9194 74.5182 24.9947 74.4904 25.0568 74.4423C25.1188 74.3942 25.1646 74.3282 25.1879 74.2532L25.8771 71.6249C25.9155 71.4768 25.8226 71.356 25.6699 71.3547L25.0093 71.3508L24.3486 71.3469C24.2193 71.3462 24.1453 71.2618 24.1609 71.1507L24.1784 71.089ZM50.8902 68.6588C50.8902 68.6827 50.8855 68.7064 50.8764 68.7284C50.8673 68.7505 50.854 68.7706 50.8371 68.7875C50.8203 68.8044 50.8002 68.8179 50.7782 68.8271C50.7561 68.8362 50.7325 68.841 50.7086 68.841C50.6847 68.8411 50.661 68.8364 50.639 68.8273C50.6169 68.8182 50.5968 68.8049 50.5799 68.788C50.563 68.7711 50.5495 68.7511 50.5404 68.729C50.5312 68.707 50.5264 68.6834 50.5264 68.6595C50.5263 68.6112 50.5454 68.5649 50.5794 68.5308C50.6135 68.4966 50.6597 68.4773 50.7079 68.4773C50.7562 68.4772 50.8025 68.4962 50.8367 68.5303C50.8708 68.5643 50.8901 68.6106 50.8902 68.6588Z"
        fill="#131B28"
      />
    </svg>