<svg width="64" height="64" viewBox="0 0 64 64" fill="none" xmlns="http://www.w3.org/2000/svg">
<g clip-path="url(#clip0_1823_25024)">
<path d="M13.8789 10.2104C10.2029 15.4929 10.6604 22.3664 13.4689 27.9804L13.6744 28.3794L13.8059 28.6324L13.8879 28.7779L14.0344 29.0399C14.1214 29.1932 14.2107 29.3464 14.3024 29.4994L14.4554 29.7514C14.5567 29.9144 14.6604 30.0766 14.7664 30.2379L14.8989 30.4424C15.0452 30.6611 15.1954 30.8779 15.3494 31.0929L15.3624 31.1094L15.4384 31.2119C15.5721 31.3959 15.7089 31.5781 15.8489 31.7584L16.0034 31.9549C16.1281 32.1112 16.2546 32.2669 16.3829 32.4219L16.5279 32.5949C16.7004 32.7979 16.8769 33.0009 17.0564 33.1989L17.0669 33.2099L17.0874 33.2324C17.2629 33.4239 17.4424 33.6114 17.6249 33.7989L17.7969 33.9724C17.9382 34.1141 18.0812 34.2542 18.2259 34.3929L18.4014 34.5599C18.5944 34.7422 18.7904 34.9206 18.9894 35.0949L18.9984 35.1029L19.1009 35.1899C19.2766 35.3422 19.4546 35.4926 19.6349 35.6409L19.8559 35.8174C20.0029 35.9351 20.1512 36.0511 20.3009 36.1654L20.5394 36.3459C20.7044 36.4672 20.8709 36.5867 21.0389 36.7044L21.2204 36.8334L21.2709 36.8694C21.4299 36.9794 21.5934 37.0849 21.7559 37.1904L21.9659 37.3304C22.2159 37.4879 22.4694 37.6444 22.7254 37.7954L22.9354 37.9139C23.1237 38.0226 23.3137 38.1291 23.5054 38.2334L23.8209 38.3964L24.2289 38.6084L24.3229 38.6539L24.4899 38.7344C24.7032 38.8367 24.9187 38.9366 25.1364 39.0339L25.2729 39.0949C25.5219 39.2039 25.7732 39.3086 26.0269 39.4089L26.2109 39.4809C26.4459 39.5722 26.6831 39.6601 26.9224 39.7444L27.0119 39.7754C27.2739 39.8674 27.5389 39.9519 27.8054 40.0354L27.9969 40.0924C28.2679 40.1744 28.5364 40.2714 28.8159 40.3234C46.5924 43.5649 51.7559 29.6414 51.7559 29.6414C47.4189 35.2914 39.7214 36.7814 32.4279 35.1224C32.1514 35.0599 31.8834 34.9734 31.6139 34.8944L31.4109 34.8324C31.148 34.7522 30.8867 34.6672 30.6269 34.5774L30.5194 34.5389C30.2878 34.4568 30.0575 34.3713 29.8284 34.2824L29.6344 34.2064C29.3834 34.1074 29.1347 34.0041 28.8884 33.8964L28.7394 33.8299C28.5284 33.735 28.3185 33.6375 28.1099 33.5374L27.9279 33.4499C27.7644 33.3704 27.6029 33.2859 27.4409 33.2024L27.1164 33.0319C26.9194 32.9266 26.7249 32.8176 26.5329 32.7049L26.3359 32.5954C26.0802 32.444 25.8268 32.2886 25.5759 32.1294L25.3709 31.9929C25.1889 31.8759 25.0087 31.7561 24.8304 31.6334L24.6559 31.5109C24.4841 31.3899 24.3138 31.2669 24.1449 31.1419L23.9184 30.9704C23.7631 30.8521 23.6094 30.7319 23.4574 30.6099L23.2519 30.4449C23.0579 30.2862 22.8664 30.1247 22.6774 29.9604L22.6144 29.9079C22.4104 29.7279 22.209 29.5449 22.0104 29.3589L21.8404 29.1949C21.6931 29.0557 21.5484 28.9139 21.4064 28.7694L21.2364 28.5994C21.0554 28.4144 20.8779 28.2267 20.7039 28.0364L20.6774 28.0079C20.4934 27.8066 20.3134 27.6017 20.1374 27.3934L19.9959 27.2254C19.8642 27.067 19.7347 26.9068 19.6074 26.7449L19.4649 26.5674C19.3124 26.3703 19.1628 26.1712 19.0159 25.9699C14.9669 20.4464 13.5119 12.8284 16.7484 6.57239M25.2889 5.75939C22.6309 9.58439 22.7749 14.7059 24.8489 18.7509C25.1962 19.4307 25.589 20.0864 26.0244 20.7134C26.4224 21.2849 26.8644 21.9639 27.3929 22.4224C27.5844 22.6334 27.7849 22.8394 27.9894 23.0414L28.1464 23.1969C28.3444 23.3899 28.5474 23.5786 28.7554 23.7629L28.7804 23.7844L28.7864 23.7904C29.0174 23.9929 29.2559 24.1874 29.4979 24.3794L29.6594 24.5054C29.9024 24.6914 30.1499 24.8744 30.4039 25.0489L30.4254 25.0654L30.7654 25.2889L30.9264 25.3954C31.1077 25.5121 31.2917 25.6247 31.4784 25.7334L31.5564 25.7794C31.7177 25.8721 31.8802 25.9629 32.0439 26.0519L32.2174 26.1419L32.5584 26.3189L32.6099 26.3424C32.8436 26.4581 33.0809 26.5686 33.3219 26.6739L33.4789 26.7389C33.6719 26.8209 33.8664 26.8997 34.0624 26.9754L34.3124 27.0674C34.4904 27.1334 34.6684 27.1939 34.8484 27.2539L35.0904 27.3314C35.3459 27.4104 35.5989 27.5109 35.8649 27.5554C49.5899 29.8289 52.7584 19.2614 52.7584 19.2614C49.9024 23.3754 44.3709 25.3379 38.4684 23.8059C38.2075 23.7371 37.9483 23.6622 37.6909 23.5814L37.4574 23.5059C37.275 23.4472 37.0938 23.3848 36.9139 23.3189L36.6684 23.2274C36.472 23.1517 36.2768 23.0729 36.0829 22.9909L35.9254 22.9244C35.6841 22.8191 35.4454 22.7081 35.2094 22.5914L34.8504 22.4089L34.6434 22.3024C34.4901 22.2191 34.3386 22.1334 34.1889 22.0454L34.0804 21.9839C33.8948 21.8757 33.7114 21.7637 33.5304 21.6479L33.3644 21.5374L33.0084 21.3014C32.7566 21.1267 32.5092 20.9458 32.2664 20.7589L32.0994 20.6269C29.5159 18.5874 27.4679 15.7994 26.4944 12.6384C25.4739 9.35989 25.6939 5.67989 27.4619 2.69289M34.8854 2.43389C33.3184 4.73989 33.1644 7.60439 34.2519 10.1514C35.3984 12.8549 37.7479 14.9754 40.4904 15.9814L40.8314 16.0989L40.9814 16.1469C41.1429 16.1979 41.3034 16.2569 41.4704 16.2879C49.0489 17.7524 51.1044 12.3994 51.6514 11.6109C49.8509 14.2034 46.8249 14.8259 43.1119 13.9244C42.8082 13.8468 42.5085 13.7542 42.2139 13.6469C41.8507 13.518 41.4946 13.3701 41.1469 13.2039C40.487 12.8868 39.8604 12.5045 39.2764 12.0629C35.9539 9.54189 33.8904 4.73339 36.0584 0.816895" fill="#0868AC"/>
<path d="M33.1785 48.1481H31.0655C31.0058 48.1507 30.9485 48.1724 30.902 48.2099C30.8555 48.2474 30.8222 48.2988 30.807 48.3566L30.057 51.8266L29.307 55.2966C29.2922 55.3545 29.2591 55.4061 29.2126 55.4437C29.1661 55.4813 29.1087 55.5028 29.049 55.5051H27.5535C26.074 55.5051 26.245 54.4816 26.548 53.0796L26.557 53.0371L26.59 52.8601L26.596 52.8271L26.6635 52.4671L26.736 52.0816L26.813 51.6891L27.154 50.0231L27.4955 48.3571C27.502 48.3316 27.5025 48.305 27.4968 48.2794C27.4912 48.2537 27.4796 48.2297 27.463 48.2094C27.4465 48.189 27.4253 48.1728 27.4014 48.1621C27.3774 48.1513 27.3512 48.1464 27.325 48.1476H25.1565C25.0968 48.1498 25.0394 48.1713 24.993 48.209C24.9466 48.2468 24.9138 48.2986 24.8995 48.3566L24.433 50.5686L23.967 52.7811L23.966 52.7841L23.923 52.9901C23.386 55.4416 23.528 57.7801 26.447 57.8536L26.532 57.8551H31.1135C31.1732 57.8528 31.2306 57.8313 31.2771 57.7937C31.3236 57.7561 31.3567 57.7045 31.3715 57.6466L32.3595 53.0021L33.3475 48.3571C33.372 48.2421 33.296 48.1486 33.1785 48.1481ZM10.5505 48.1236H8.23049C8.17051 48.1258 8.11281 48.1471 8.06591 48.1846C8.01901 48.222 7.98538 48.2736 7.96999 48.3316L7.74999 49.3026L7.52999 50.2736C7.50449 50.3881 7.57899 50.4816 7.69649 50.4816H10.0345C10.0943 50.4791 10.1517 50.4575 10.1983 50.4199C10.2449 50.3824 10.2783 50.331 10.2935 50.2731L10.506 49.3026L10.7185 48.3321C10.743 48.2176 10.668 48.1236 10.5505 48.1236ZM9.87749 51.1456H7.53899C7.47901 51.1478 7.42131 51.1691 7.37441 51.2066C7.32751 51.244 7.29388 51.2956 7.27849 51.3536L6.94999 52.8086L6.62199 54.2631L6.53049 54.6801L6.21499 56.1651L5.89999 57.6506C5.87549 57.7651 5.82499 57.9501 5.78749 58.0611C5.78749 58.0611 5.35049 59.3611 4.61599 59.3461L4.52399 59.3441L3.88849 59.3326C3.82883 59.3342 3.77073 59.3548 3.7236 59.3914C3.67647 59.428 3.64227 59.4787 3.62599 59.5361L3.38349 60.5556L3.14149 61.5746C3.11399 61.6886 3.18799 61.7826 3.30449 61.7846C3.72099 61.7896 4.65399 61.8001 5.21849 61.8001C7.05299 61.8001 8.02049 60.7836 8.63999 57.8586L9.36549 54.5016L10.046 51.3531C10.0705 51.2396 9.99449 51.1456 9.87749 51.1456ZM52.936 50.3586L52.839 49.9581L52.7435 49.5481L52.695 49.3411C52.505 48.6026 51.9475 48.1771 50.7365 48.1771L48.8515 48.1751L47.1155 48.1726H45.162C45.1022 48.1746 45.0448 48.1961 44.9983 48.2337C44.9518 48.2713 44.9189 48.3231 44.9045 48.3811L44.818 48.7891L44.716 49.2711L44.6875 49.4066L43.808 53.5266L42.973 57.4376C42.948 57.5526 42.94 57.6936 42.954 57.7506C42.968 57.8081 43.1935 57.8551 43.3105 57.8551H45.0725C45.19 57.8551 45.3385 57.8341 45.4025 57.8081C45.4665 57.7821 45.561 57.5516 45.5845 57.4371L45.8975 55.8876L46.211 54.3376L46.2115 54.3351L46.2535 54.1286L46.6335 52.3486L46.969 50.7766C46.9838 50.7188 47.0168 50.6672 47.0632 50.6297C47.1096 50.5921 47.1668 50.5705 47.2265 50.5681L52.771 50.5656C52.8885 50.5666 52.9625 50.4731 52.936 50.3586ZM60.0735 46.7386L59.6465 46.7401H57.872C57.8069 46.7436 57.7434 46.7612 57.6858 46.7917C57.6283 46.8222 57.578 46.8648 57.5385 46.9166L53.614 52.6656C53.548 52.7626 53.4725 52.7486 53.4465 52.6346L53.1575 51.3681C53.1421 51.31 53.1084 51.2584 53.0614 51.221C53.0144 51.1835 52.9565 51.1622 52.8965 51.1601H50.374C50.2565 51.1601 50.187 51.2521 50.219 51.3646L51.3495 55.3251C51.3815 55.4381 51.384 55.6231 51.355 55.7371L50.8625 57.6536C50.833 57.7676 50.905 57.8601 51.0225 57.8601H53.516C53.5763 57.8576 53.6343 57.8364 53.682 57.7994C53.7297 57.7624 53.7647 57.7114 53.782 57.6536L54.275 55.7371C54.3138 55.6019 54.3752 55.4743 54.4565 55.3596L60.8275 46.9041C60.8985 46.8101 60.86 46.7336 60.743 46.7346L60.0735 46.7386ZM40.0305 51.6981V51.6961C40.0218 51.7565 39.992 51.8118 39.9463 51.8522C39.9006 51.8926 39.842 51.9154 39.781 51.9166H36.5825C36.4715 51.9166 36.4155 51.8416 36.432 51.7486L36.435 51.7411L36.433 51.7421L36.4345 51.7316L36.449 51.6771C36.7545 50.8651 37.3765 50.3321 38.546 50.3321C39.863 50.3316 40.12 50.9746 40.0305 51.6981ZM39.092 48.0061C34.9865 48.0061 34.0135 50.4981 33.4675 53.0136C32.922 55.5776 32.9685 57.9741 37.2175 57.9741H37.7325L37.8605 57.9736H37.8905L38.4005 57.9721H38.4095C39.5315 57.9676 40.657 57.9591 41.1125 57.9556C41.1719 57.9528 41.2288 57.9309 41.2747 57.893C41.3206 57.8551 41.353 57.8034 41.367 57.7456L41.539 56.9051L41.5725 56.7416L41.7775 55.7386C41.784 55.7132 41.7845 55.6866 41.7789 55.6609C41.7732 55.6353 41.7616 55.6113 41.745 55.591C41.7285 55.5707 41.7073 55.5545 41.6833 55.5438C41.6594 55.5332 41.6332 55.5283 41.607 55.5296H37.7875C36.268 55.5296 35.817 55.1261 35.9835 53.9391H42.089H42.0925C42.1408 53.9372 42.1876 53.9213 42.2271 53.8933C42.2666 53.8654 42.2971 53.8266 42.315 53.7816L42.3295 53.7286C43.236 50.3091 42.9755 48.0066 39.092 48.0061ZM19.687 51.6851L19.629 51.8896L19.168 53.5241L18.707 55.1576C18.6879 55.2153 18.6517 55.2659 18.6032 55.3026C18.5547 55.3393 18.4962 55.3604 18.4355 55.3631H15.9955C14.1445 55.3631 13.6935 53.9151 14.1445 51.7801C14.595 49.5961 15.4785 48.2386 17.3005 48.1011C19.7905 47.9131 20.2885 49.6641 19.687 51.6851ZM21.361 55.2376C21.361 55.2376 22.5115 52.4436 22.7725 50.8306C23.129 48.6711 22.0475 45.5381 17.8705 45.5381C13.7175 45.5381 11.9135 48.5286 11.2255 51.7801C10.5375 55.0551 11.439 57.9266 15.5685 57.9031L18.8265 57.8911L21.871 57.8801C21.9313 57.8771 21.9893 57.8556 22.0371 57.8186C22.0848 57.7816 22.12 57.7308 22.138 57.6731L22.6685 55.6501C22.698 55.5361 22.6265 55.4431 22.509 55.4421L22.0005 55.4391L21.492 55.4361C21.3925 55.4356 21.3355 55.3706 21.3475 55.2851L21.361 55.2376ZM41.921 53.3671C41.921 53.3855 41.9174 53.4037 41.9104 53.4207C41.9034 53.4377 41.8931 53.4531 41.8802 53.4662C41.8672 53.4792 41.8518 53.4895 41.8348 53.4966C41.8178 53.5037 41.7996 53.5073 41.7812 53.5073C41.7628 53.5074 41.7446 53.5038 41.7276 53.4968C41.7106 53.4898 41.6952 53.4795 41.6822 53.4665C41.6691 53.4535 41.6588 53.4381 41.6517 53.4211C41.6447 53.4042 41.641 53.386 41.641 53.3676C41.6409 53.3305 41.6556 53.2948 41.6818 53.2685C41.708 53.2422 41.7436 53.2274 41.7807 53.2273C41.8179 53.2273 41.8535 53.242 41.8798 53.2682C41.9061 53.2944 41.9209 53.33 41.921 53.3671Z" fill="#3B3B3B"/>
</g>
<defs>
<clipPath id="clip0_1823_25024">
<rect width="64" height="64" fill="white"/>
</clipPath>
</defs>
</svg>
