<svg width="400" height="400" viewBox="0 0 400 400" fill="none" xmlns="http://www.w3.org/2000/svg">
<mask id="mask0_739_19919" style="mask-type:luminance" maskUnits="userSpaceOnUse" x="0" y="0" width="400" height="400">
<path d="M400 0H0V400H400V0Z" fill="white"/>
</mask>
<g mask="url(#mask0_739_19919)">
<path d="M279.261 138.491C298.871 138.491 314.768 122.594 314.768 102.984C314.768 83.3748 298.871 67.478 279.261 67.478C259.652 67.478 243.755 83.3748 243.755 102.984C243.755 122.594 259.652 138.491 279.261 138.491Z" fill="white" stroke="#1F1927" stroke-width="0.75" stroke-miterlimit="10" stroke-linecap="round" stroke-linejoin="round"/>
<path d="M256.79 93.3499C256.758 80.8403 267.262 70.7635 279.945 71.5211C290.757 72.1667 299.596 80.9043 300.361 91.7091C300.742 97.0955 299.164 102.103 296.267 106.093C293.165 110.793 285.089 116.111 285.097 119.285L285.106 122.911C285.108 123.635 284.523 124.223 283.799 124.224L280.293 124.233L277.072 124.241L273.566 124.25C272.842 124.251 272.254 123.667 272.252 122.943L272.243 119.317C272.235 116.143 264.131 110.867 261.005 106.183C258.367 102.587 256.802 98.1523 256.79 93.3499Z" fill="#FFDF58"/>
<path d="M282.62 92.4566C278.924 95.9694 274.423 98.8142 269.642 100.596C266.234 101.865 262.677 102.531 259.091 103.041C259.459 103.775 259.864 104.487 260.31 105.171C262.928 104.933 265.519 104.447 268.038 103.654C271.187 102.663 274.272 101.277 276.941 99.3166C279.628 97.3438 281.992 94.8654 283.884 92.1222C284.574 91.1206 285.189 90.0766 285.729 88.9966C284.795 90.2358 283.743 91.3902 282.62 92.4566Z" fill="#F4D451"/>
<path d="M290.243 74.8496C289.883 74.6216 289.514 74.4064 289.14 74.1992C289.362 77.6656 289.247 81.1576 288.357 84.5344C286.632 91.084 282.113 96.92 276.523 100.678C273.684 102.586 270.391 103.931 267.104 104.843C265.063 105.41 262.978 105.784 260.875 105.999C260.919 106.061 260.961 106.123 261.005 106.184C262.445 108.341 264.939 110.623 267.213 112.768C269.56 112.303 271.865 111.639 274.097 110.73C278.353 108.997 282.547 106.36 285.604 102.89C288.189 99.9544 290.009 96.348 291.128 92.6144C292.835 86.912 293.015 80.1816 290.243 74.8496Z" fill="#F4D451"/>
<path d="M276.511 116.189C281.207 115.731 285.839 114.619 290.115 112.688C292.372 110.538 294.843 108.251 296.267 106.093C296.603 105.631 296.92 105.154 297.219 104.665C293.624 108.187 289.284 111.019 284.859 113.244C282.019 114.672 279.052 115.613 276.015 116.231C276.18 116.216 276.346 116.206 276.511 116.189Z" fill="#F4D451"/>
<path d="M298.532 84.417C298.435 85.2498 298.277 86.0786 298.104 86.8914C297.668 88.933 297.128 90.9386 296.384 92.8914C293.718 99.897 289.016 106.063 282.687 110.131C279.601 112.115 276.224 113.627 272.752 114.792C271.88 115.085 271.01 115.383 270.14 115.68C270.288 115.843 270.436 116.006 270.572 116.164C271.277 116.099 271.981 116.024 272.684 115.932C277.156 115.347 281.423 114.08 285.416 111.977C288.67 110.264 291.779 108.233 294.582 105.848C296.049 104.599 297.451 103.227 298.716 101.745C299.816 99.129 300.423 96.2546 300.415 93.2378C300.408 90.097 299.736 87.113 298.532 84.417Z" fill="#F4D451"/>
<path d="M300.417 93.2383C300.429 98.0407 298.887 102.483 296.267 106.093C293.165 110.793 285.089 116.112 285.097 119.285" stroke="#1F1927" stroke-width="0.75" stroke-miterlimit="10" stroke-linecap="round" stroke-linejoin="round"/>
<path d="M256.79 93.3496C256.759 81.3024 266.501 71.5112 278.548 71.48" stroke="#1F1927" stroke-width="0.75" stroke-miterlimit="10" stroke-linecap="round" stroke-linejoin="round"/>
<path d="M259.622 94.3366C259.594 83.3086 268.511 74.3454 279.539 74.3174" stroke="#F9F9F9" stroke-miterlimit="10" stroke-linecap="round" stroke-linejoin="round"/>
<path d="M281.15 121.349C281.122 120.802 280.71 112.047 281.391 104.371C280.532 104.475 279.613 104.532 278.63 104.534C277.646 104.537 276.726 104.485 275.867 104.386C276.588 112.058 276.22 120.815 276.196 121.362L275.811 121.345C275.817 121.21 276.198 112.152 275.462 104.334C268.99 103.451 266.084 99.7935 265.555 96.3359C265.246 94.3151 265.931 92.3015 267.185 91.5471C267.945 91.0895 268.865 90.9951 269.845 91.2735C271.386 91.7119 272.854 93.0351 273.771 94.8151C274.83 96.8703 275.461 100.285 275.83 103.993C276.698 104.098 277.63 104.152 278.629 104.149C279.628 104.146 280.56 104.087 281.427 103.978C281.777 100.269 282.39 96.8503 283.438 94.7903C284.346 93.0063 285.806 91.6751 287.346 91.2287C288.325 90.9455 289.246 91.0351 290.008 91.4887C291.265 92.2359 291.961 94.2463 291.662 96.2687C291.15 99.7295 288.264 103.402 281.797 104.318C281.1 112.139 281.528 121.195 281.534 121.33L281.15 121.349ZM288.426 91.4519C288.114 91.4527 287.787 91.5015 287.453 91.5983C286.014 92.0151 284.641 93.2735 283.781 94.9647C282.773 96.9463 282.176 100.281 281.832 103.923C288.027 103.014 290.793 99.5127 291.28 96.2127C291.552 94.3687 290.921 92.4799 289.81 91.8199C289.398 91.5735 288.93 91.4511 288.426 91.4519ZM268.766 91.5023C268.262 91.5039 267.794 91.6287 267.383 91.8767C266.276 92.5423 265.654 94.4343 265.936 96.2767C266.44 99.5743 269.223 103.062 275.423 103.939C275.061 100.298 274.446 96.9671 273.429 94.9911C272.56 93.3047 271.181 92.0535 269.74 91.6439C269.405 91.5487 269.078 91.5015 268.766 91.5023Z" fill="#262626"/>
<path d="M286.096 121.518H271.05V128.689C271.05 129.86 271.383 131.006 272.011 131.995C273.197 133.864 275.257 134.996 277.47 134.996H279.675C281.889 134.996 283.949 133.864 285.135 131.995C285.763 131.006 286.096 129.86 286.096 128.689V121.518Z" fill="#FF98E1"/>
<path d="M271.047 126.353C271.09 126.355 271.134 126.353 271.178 126.348L286.224 124.788C286.738 124.735 287.096 124.274 287.025 123.757C286.954 123.241 286.478 122.865 285.966 122.919L270.919 124.479C270.406 124.531 270.047 124.993 270.118 125.51C270.183 125.983 270.586 126.337 271.047 126.353Z" stroke="#1F1927" stroke-width="0.75" stroke-miterlimit="10" stroke-linecap="round" stroke-linejoin="round"/>
<path d="M271.047 129.636C271.09 129.637 271.134 129.636 271.178 129.631L286.224 128.071C286.738 128.018 287.096 127.556 287.025 127.04C286.954 126.524 286.478 126.148 285.966 126.201L270.919 127.761C270.406 127.814 270.047 128.276 270.118 128.792C270.183 129.265 270.586 129.62 271.047 129.636Z" stroke="#1F1927" stroke-width="0.75" stroke-miterlimit="10" stroke-linecap="round" stroke-linejoin="round"/>
<path d="M271.44 132.884C271.483 132.886 271.526 132.884 271.57 132.879L285.833 131.401C286.346 131.348 286.705 130.887 286.633 130.37C286.562 129.854 286.086 129.478 285.574 129.531L271.312 131.01C270.798 131.063 270.44 131.524 270.511 132.041C270.576 132.514 270.978 132.868 271.44 132.884Z" stroke="#1F1927" stroke-width="0.75" stroke-miterlimit="10" stroke-linecap="round" stroke-linejoin="round"/>
<path d="M216.086 199.503C231.983 199.503 244.87 186.616 244.87 170.719C244.87 154.822 231.983 141.935 216.086 141.935C200.189 141.935 187.302 154.822 187.302 170.719C187.302 186.616 200.189 199.503 216.086 199.503Z" fill="white" stroke="#1F1927" stroke-width="0.75" stroke-miterlimit="10" stroke-linecap="round" stroke-linejoin="round"/>
<path d="M232.801 167.642C232.377 165.15 231.397 162.846 229.993 160.863L231.471 159.385L227.506 155.42L226.028 156.898C224.046 155.494 221.742 154.514 219.249 154.09V152H213.642V154.09C211.15 154.514 208.846 155.494 206.863 156.898L205.385 155.42L201.42 159.385L202.898 160.863C201.494 162.845 200.514 165.149 200.09 167.642H198V173.249H200.09C200.514 175.742 201.494 178.046 202.898 180.028L201.42 181.506L205.385 185.471L206.813 183.824C208.795 185.229 211.15 186.376 213.642 186.801V188.891H219.249V186.801C221.742 186.377 224.046 185.397 226.028 183.993L227.506 185.471L231.471 181.506L229.993 180.028C231.398 178.046 232.377 175.742 232.801 173.249H234.891V167.642H232.801ZM216.446 179.626C211.375 179.626 207.266 175.516 207.266 170.446C207.266 165.376 211.376 161.266 216.446 161.266C221.515 161.266 225.626 165.377 225.626 170.446C225.626 175.516 221.515 179.626 216.446 179.626Z" fill="#9E71FD"/>
<path d="M197.376 124.66C210 124.66 220.233 114.427 220.233 101.803C220.233 89.1796 210 78.9463 197.376 78.9463C184.753 78.9463 174.52 89.1796 174.52 101.803C174.52 114.427 184.753 124.66 197.376 124.66Z" fill="white" stroke="#1F1927" stroke-width="0.75" stroke-miterlimit="10" stroke-linecap="round" stroke-linejoin="round"/>
<path d="M197.378 117.269C205.919 117.269 212.843 110.344 212.843 101.803C212.843 93.2616 205.919 86.3374 197.378 86.3374C188.836 86.3374 181.912 93.2616 181.912 101.803C181.912 110.344 188.836 117.269 197.378 117.269Z" fill="#9E71FD"/>
<path d="M197.378 115.245C204.802 115.245 210.821 109.227 210.821 101.802C210.821 94.3776 204.802 88.3589 197.378 88.3589C189.953 88.3589 183.935 94.3776 183.935 101.802C183.935 109.227 189.953 115.245 197.378 115.245Z" stroke="white" stroke-width="0.75" stroke-miterlimit="10" stroke-linecap="round" stroke-linejoin="round"/>
<path d="M197.378 117.267C188.836 117.267 181.912 110.343 181.912 101.802" stroke="white" stroke-width="0.75" stroke-miterlimit="10" stroke-linecap="round" stroke-linejoin="round"/>
<path d="M197.43 91.8589V101.802H206.134" stroke="white" stroke-width="0.75" stroke-miterlimit="10" stroke-linecap="round" stroke-linejoin="round"/>
<path d="M339.003 159.576C351.627 159.576 361.86 149.343 361.86 136.719C361.86 124.096 351.627 113.862 339.003 113.862C326.38 113.862 316.146 124.096 316.146 136.719C316.146 149.343 326.38 159.576 339.003 159.576Z" fill="white" stroke="#1F1927" stroke-width="0.75" stroke-miterlimit="10" stroke-linecap="round" stroke-linejoin="round"/>
<g clip-path="url(#clip0_739_19919)">
<path d="M329.75 136.926V146.25H339.074L337.129 144.305H331.694V138.871L329.75 136.926Z" fill="#FF98E1"/>
<g clip-path="url(#clip1_739_19919)">
<g clip-path="url(#clip2_739_19919)">
<path d="M333.536 135.196L337.208 131.482L334.817 129.048L334.134 129.731C333.821 130.044 333.429 130.208 332.959 130.223C332.489 130.238 332.083 130.074 331.743 129.731C331.401 129.389 331.23 128.984 331.23 128.513C331.23 128.043 331.401 127.638 331.743 127.297L332.383 126.657L330.462 124.736L326.747 128.45L333.536 135.196ZM347.54 149.243L351.255 145.528L349.333 143.607L348.65 144.247C348.309 144.589 347.91 144.76 347.455 144.76C346.999 144.76 346.601 144.589 346.259 144.247C345.918 143.906 345.747 143.507 345.747 143.052C345.747 142.597 345.918 142.198 346.259 141.857L346.9 141.173L344.466 138.782L340.794 142.454L347.54 149.243ZM346.217 127.468L348.607 129.859L350.998 127.468L348.565 125.035L346.217 127.468ZM325.338 152.36C324.855 152.36 324.449 152.196 324.121 151.868C323.793 151.54 323.63 151.134 323.631 150.652V145.827C323.631 145.599 323.673 145.379 323.759 145.165C323.844 144.95 323.972 144.759 324.143 144.589L331.102 137.63L323.716 130.243C323.232 129.759 322.99 129.162 322.99 128.45C322.99 127.739 323.232 127.141 323.716 126.657L328.669 121.704C329.153 121.22 329.75 120.986 330.462 121.001C331.174 121.015 331.771 121.264 332.255 121.747L339.684 129.133L346.131 122.644C346.473 122.302 346.857 122.046 347.284 121.875C347.711 121.704 348.152 121.619 348.607 121.619C349.063 121.619 349.504 121.704 349.931 121.875C350.358 122.046 350.742 122.302 351.084 122.644L353.347 124.949C353.688 125.291 353.944 125.675 354.115 126.102C354.286 126.529 354.371 126.97 354.371 127.425C354.371 127.881 354.286 128.315 354.115 128.729C353.944 129.142 353.688 129.519 353.347 129.859L346.9 136.349L354.286 143.735C354.77 144.219 355.012 144.817 355.012 145.528C355.012 146.24 354.77 146.838 354.286 147.322L349.333 152.274C348.849 152.758 348.252 153 347.54 153C346.828 153 346.231 152.758 345.747 152.274L338.361 144.888L331.401 151.847C331.23 152.018 331.039 152.146 330.826 152.231C330.613 152.317 330.392 152.36 330.163 152.36H325.338Z" fill="#9E71FD"/>
</g>
</g>
</g>
<path d="M328.607 69.3205C341.23 69.3205 351.464 59.0872 351.464 46.4637C351.464 33.8403 341.23 23.6069 328.607 23.6069C315.983 23.6069 305.75 33.8403 305.75 46.4637C305.75 59.0872 315.983 69.3205 328.607 69.3205Z" fill="white" stroke="#1F1927" stroke-width="0.75" stroke-miterlimit="10" stroke-linecap="round" stroke-linejoin="round"/>
<g clip-path="url(#clip3_739_19919)">
<path d="M328.091 35L315 40.8182V49.5455C315 57.6182 320.585 65.1673 328.091 67C335.596 65.1673 341.182 57.6182 341.182 49.5455V40.8182L328.091 35Z" fill="#9E71FD"/>
</g>
<path d="M185.775 352.866L202.117 400.949L273.338 400.745L246.835 330.829L185.775 352.866Z" stroke="#1F1927" stroke-miterlimit="10" stroke-linecap="round" stroke-linejoin="round"/>
<path d="M200.933 235.36C212.527 240.515 221.107 249.605 225.913 260.339L225.965 260.319L226.288 261.192C226.901 262.632 227.444 264.098 227.918 265.591L255.232 339.298L161.72 370.184L135.457 299.981C130.232 287.777 129.857 273.536 135.676 260.449C146.768 235.502 175.985 224.268 200.933 235.36Z" fill="#7534FC"/>
<path d="M253.878 339.265L161.719 370.184" stroke="#1F1927" stroke-miterlimit="10" stroke-linecap="round" stroke-linejoin="round"/>
<path d="M158.353 361.185L249.336 323.388" stroke="#1F1927" stroke-miterlimit="10" stroke-linecap="round" stroke-linejoin="round"/>
<path d="M-62.8789 238.929H64.5267H66.3419H193.747L179.267 438.562C179.267 438.562 144.864 466.82 66.3411 467.256V467.276C66.0331 467.276 65.7403 467.266 65.4331 467.266C65.1267 467.266 64.8339 467.276 64.5259 467.276V467.256C-13.9965 466.82 -48.3997 438.562 -48.3997 438.562L-62.8789 238.929Z" fill="#7534FC"/>
<path d="M193.189 255.903L180.094 427.171" stroke="#1F1927" stroke-miterlimit="10" stroke-linecap="round" stroke-linejoin="round"/>
<path d="M72.9928 299.306C105.013 299.306 131.211 273.107 131.211 241.087V164.736C131.211 132.716 105.013 106.518 72.9928 106.518C40.9728 106.518 14.7744 132.716 14.7744 164.736V241.087C14.7744 273.107 40.9728 299.306 72.9928 299.306Z" fill="white"/>
<path d="M15.1699 247.826C15.1699 247.826 20.4395 298.421 72.9931 299.305C72.9931 299.305 119.896 301.749 130.599 249.513" stroke="#1F1927" stroke-miterlimit="10" stroke-linecap="round" stroke-linejoin="round"/>
<path d="M7.93555 237.936C7.93555 237.936 9.85555 305.755 73.0068 305.755C73.0068 305.755 137.833 308.688 137.833 240.159" stroke="#1F1927" stroke-miterlimit="10" stroke-linecap="round" stroke-linejoin="round"/>
<path d="M72.9928 251.884C105.013 251.884 131.211 225.686 131.211 193.666V117.314C131.211 85.2936 105.013 59.0952 72.9928 59.0952C40.9728 59.0952 14.7744 85.2936 14.7744 117.314V193.666C14.7744 225.686 40.9728 251.884 72.9928 251.884Z" fill="#DDDDDD"/>
<path d="M131.211 241.088V176.862" stroke="#1F1927" stroke-miterlimit="10" stroke-linecap="round" stroke-linejoin="round"/>
<path d="M14.7744 176.862V241.088" stroke="#1F1927" stroke-miterlimit="10" stroke-linecap="round" stroke-linejoin="round"/>
<path d="M14.5889 123.272C14.6529 123.272 14.7121 123.29 14.7761 123.291V100.514C14.7761 70.6809 36.4833 44.3802 66.1169 40.9322C101.176 36.8522 131.214 64.4625 131.214 98.7497V173.338C131.214 203.171 109.506 229.471 79.8729 232.919C44.8137 236.999 14.7769 209.387 14.7769 175.102V145.291C14.7129 145.291 14.6537 145.309 14.5897 145.309C8.50409 145.309 3.57129 140.376 3.57129 134.291C3.57049 128.206 8.50329 123.272 14.5889 123.272Z" fill="white"/>
<path d="M128.145 72.7877C131.084 72.7477 150.826 71.5781 156.772 47.5173L120.437 59.7789C120.437 59.7789 132.25 54.8445 130.156 38.6957L112.662 51.8533C112.662 51.8533 98.3321 36.7525 69.3112 39.5933C62.1936 40.2901 54.9936 41.7909 48.2505 44.4205V25.5005C44.7928 25.5005 41.9896 30.3981 41.9896 36.4389C41.9896 39.2941 42.6208 41.8853 43.6464 43.8333L31.6816 30.7461C29.1296 33.0789 30.3656 38.5853 34.4416 43.0437C36.5896 45.3933 39.0952 46.9733 41.3608 47.6109C41.3528 47.6157 41.3448 47.6197 41.3368 47.6245L21.868 41.1733C20.7808 44.4557 24.548 48.6565 30.2832 50.5565C32.008 51.1277 33.712 51.4213 35.2848 51.4693C21.22 61.8269 11.9008 79.9637 14.7864 110.42L59.58 75.9277C59.58 75.9277 81.4113 103.44 118.494 103.44C155.577 103.44 160.362 72.7877 160.362 72.7877H128.145Z" fill="#1F1927"/>
<path d="M14.5887 123.272C14.6527 123.272 14.7119 123.29 14.7759 123.291V98.7496C14.7759 66.7288 40.9743 40.5312 72.9951 40.5312C105.015 40.5312 131.214 66.7296 131.214 98.7496V175.102C131.214 207.122 105.015 233.32 72.9951 233.32C40.9743 233.32 14.7759 207.122 14.7759 175.102V145.29C14.7119 145.291 14.6527 145.309 14.5887 145.309C8.50311 145.309 3.57031 140.376 3.57031 134.29C3.57031 128.206 8.50311 123.272 14.5887 123.272Z" stroke="#1F1927" stroke-miterlimit="10" stroke-linecap="round" stroke-linejoin="round"/>
<path d="M136.705 117.73H94.0547H83.4571H72.5491H64.8643H19.3011C19.3011 117.73 18.3299 153.424 45.9643 153.424C62.0995 153.424 68.4547 141.257 70.9507 131.13C71.5187 128.824 72.8883 126.752 74.9363 125.549C76.8315 124.436 79.3419 123.95 82.0579 126.101C83.5811 127.308 84.5755 129.047 85.0371 130.935C87.5219 141.1 93.8811 153.425 110.12 153.425C137.755 153.425 136.705 117.73 136.705 117.73Z" fill="#DDDDDD"/>
<path d="M17.3502 113.696C17.3502 113.696 16.7238 151.011 54.6551 149.391V113.696H17.3502Z" fill="#1F1927"/>
<path d="M115.702 148.462C113.212 146.838 110.936 144.857 109.109 142.505C107.237 140.094 105.852 137.311 105.067 134.359C104.167 130.975 103.793 127.486 103.037 124.071C102.362 121.031 101.332 118.078 99.4191 115.587C98.9071 114.921 98.3439 114.291 97.7463 113.695H77.9767C76.9903 115.346 76.2823 117.185 75.7399 119.003C75.5311 119.703 75.3431 120.42 75.1807 121.145C76.9735 120.323 79.2039 120.173 81.5951 122.066C83.1183 123.272 84.1127 125.011 84.5743 126.899C87.0591 137.065 93.4183 149.39 109.657 149.39C109.657 149.39 117.113 149.848 119.049 149.386C118.307 148.367 115.812 148.533 115.702 148.462Z" fill="#1F1927"/>
<path d="M146.136 113.696H103.485H92.8879H81.9799H74.2951H28.7327C28.7327 113.696 27.7615 149.391 55.3959 149.391C71.5311 149.391 77.8863 137.223 80.3823 127.096C80.9511 124.79 82.3199 122.719 84.3679 121.515C86.2631 120.402 88.7735 119.916 91.4895 122.067C93.0127 123.274 94.0071 125.013 94.4687 126.901C96.9535 137.067 103.313 149.391 119.552 149.391C147.186 149.391 146.136 113.696 146.136 113.696Z" fill="#833FF4"/>
<path d="M43.2608 113.696L41.156 115.801C37.5256 119.431 33.8952 123.062 30.2656 126.691C30.8856 129.275 31.7528 132.004 32.9704 134.641C34.212 133.399 35.4544 132.157 36.696 130.915C39.44 128.171 42.184 125.427 44.928 122.683L53.9152 113.695H43.2608V113.696Z" fill="url(#paint0_linear_739_19919)"/>
<path d="M120.801 147.079C123.344 144.536 125.887 141.994 128.43 139.451L136.055 131.825C138.616 129.264 141.177 126.703 143.738 124.143C144.314 123.566 144.891 122.989 145.468 122.412C146.242 117.396 146.134 113.696 146.134 113.696H142.813L114.266 142.243C112.574 143.935 110.882 145.627 109.19 147.319C111.844 148.506 114.928 149.245 118.514 149.366L120.801 147.079Z" fill="url(#paint1_linear_739_19919)"/>
<path d="M140.822 131.444C136.92 135.346 133.018 139.247 129.117 143.149L123.089 149.176C136.223 147.579 141.882 137.11 144.314 127.951C143.15 129.115 141.986 130.28 140.822 131.444Z" fill="url(#paint2_linear_739_19919)"/>
<path d="M99.3497 138.688L100.398 137.639C103.127 134.911 105.857 132.182 108.586 129.452C111.306 126.731 114.026 124.011 116.747 121.291C119.279 118.759 121.81 116.227 124.342 113.695H101.99L100.156 115.529C97.6281 118.057 95.0993 120.586 92.5713 123.115C93.4929 124.192 94.1273 125.505 94.4681 126.899C95.4161 130.784 96.9345 134.982 99.3497 138.688Z" fill="url(#paint3_linear_739_19919)"/>
<path d="M48.8288 142.179C51.828 139.18 54.8272 136.181 57.8264 133.182C60.84 130.168 63.8544 127.154 66.868 124.14L77.312 113.696H62.36L36.084 139.972C38.1368 142.764 40.7672 145.192 44.1216 146.887C45.6904 145.318 47.26 143.749 48.8288 142.179Z" fill="url(#paint4_linear_739_19919)"/>
<path d="M81.6514 127.036C81.6514 127.036 95.5058 154.732 92.629 160.199C89.7514 165.665 80.2578 164.802 80.2578 164.802" fill="white"/>
<path d="M81.6514 127.036C81.6514 127.036 95.5058 154.732 92.629 160.199C89.7514 165.665 80.2578 164.802 80.2578 164.802" stroke="#1F1927" stroke-miterlimit="10" stroke-linecap="round" stroke-linejoin="round"/>
<path d="M73.0253 172.966C71.1461 172.522 69.1205 172.086 67.3325 172.815C65.1453 173.708 63.9173 176.272 64.1965 178.618C64.4765 180.963 66.0453 183.022 68.0213 184.316C69.9973 185.61 72.3469 186.22 74.6869 186.542C76.4189 186.781 78.1709 186.874 79.9181 186.818C82.7741 186.727 85.9965 185.992 87.4141 183.51C88.1429 182.234 88.2557 180.709 88.3261 179.241C88.3949 177.81 88.3805 176.212 87.3973 175.17C85.8285 173.509 83.4885 174.32 81.5485 174.426C78.6477 174.586 75.8293 173.63 73.0253 172.966Z" stroke="#1F1927" stroke-miterlimit="10" stroke-linecap="round" stroke-linejoin="round"/>
<path d="M289.777 218.209L277.736 413.11H352.066L338.984 219.287" fill="white"/>
<path d="M289.777 218.209L277.736 413.11H352.066L338.984 219.287" stroke="#1F1927" stroke-miterlimit="10" stroke-linecap="round" stroke-linejoin="round"/>
<path d="M292.647 220.18C292.647 220.18 276.691 204.001 275.925 192.729C275.159 181.457 278.204 120.589 284.088 119.129C289.972 117.669 293.914 168.695 293.914 168.695C293.914 168.695 331.105 164.906 335.395 169.47C339.684 174.034 338.973 219.446 338.973 219.446" fill="white"/>
<path d="M292.647 220.18C292.647 220.18 276.691 204.001 275.925 192.729C275.159 181.457 278.204 120.589 284.088 119.129C289.972 117.669 293.914 168.695 293.914 168.695C293.914 168.695 331.105 164.906 335.395 169.47C339.684 174.034 338.973 219.446 338.973 219.446" stroke="#1F1927" stroke-miterlimit="10" stroke-linecap="round" stroke-linejoin="round"/>
<path d="M275.925 192.73C275.925 192.73 283.589 176.924 286.878 175.482C290.168 174.04 316.79 179.052 316.79 179.052C316.79 179.052 319.167 192.844 292.292 186.591" fill="white"/>
<path d="M275.925 192.73C275.925 192.73 283.589 176.924 286.878 175.482C290.168 174.04 316.79 179.052 316.79 179.052C316.79 179.052 319.167 192.844 292.292 186.591" stroke="#1F1927" stroke-miterlimit="10" stroke-linecap="round" stroke-linejoin="round"/>
<path d="M299.766 187.926C299.766 187.926 321.563 194.923 323.518 216.203L299.766 187.926Z" fill="white"/>
<path d="M299.766 187.926C299.766 187.926 321.563 194.923 323.518 216.203" stroke="#1F1927" stroke-miterlimit="10" stroke-linecap="round" stroke-linejoin="round"/>
<path d="M314.23 167.331L314.526 178.639" stroke="#1F1927" stroke-miterlimit="10" stroke-linecap="round" stroke-linejoin="round"/>
<path d="M302.956 168.87L303.083 175.907" stroke="#1F1927" stroke-miterlimit="10" stroke-linecap="round" stroke-linejoin="round"/>
<path d="M290.627 169.468C290.627 169.468 293.358 168.976 297.537 168.436L290.627 169.468Z" fill="white"/>
<path d="M290.627 169.468C290.627 169.468 293.358 168.976 297.537 168.436" stroke="#1F1927" stroke-miterlimit="10" stroke-linecap="round" stroke-linejoin="round"/>
<path d="M327.058 167.421C327.058 167.421 328.141 193.958 331.536 193.893C334.931 193.828 337.302 176.577 337.302 176.577" fill="white"/>
<path d="M327.058 167.421C327.058 167.421 328.141 193.958 331.536 193.893C334.931 193.828 337.302 176.577 337.302 176.577" stroke="#1F1927" stroke-miterlimit="10" stroke-linecap="round" stroke-linejoin="round"/>
<path d="M315.617 183.958C316.477 189.565 317.797 194.483 319.78 194.432C324.373 194.313 327.533 175.222 327.533 175.222" fill="white"/>
<path d="M315.617 183.958C316.477 189.565 317.797 194.483 319.78 194.432C324.373 194.313 327.533 175.222 327.533 175.222" stroke="#1F1927" stroke-miterlimit="10" stroke-linecap="round" stroke-linejoin="round"/>
<path d="M305.541 221.065C311.759 221.735 318.058 221.666 324.26 220.86" stroke="#1F1927" stroke-miterlimit="10" stroke-linecap="round" stroke-linejoin="round"/>
</g>
<defs>
<linearGradient id="paint0_linear_739_19919" x1="26.8624" y1="135.053" x2="54.1312" y2="108.678" gradientUnits="userSpaceOnUse">
<stop stop-color="#F2F2F2"/>
<stop offset="0.6581" stop-color="#F2F2F2" stop-opacity="0"/>
</linearGradient>
<linearGradient id="paint1_linear_739_19919" x1="151.32" y1="112.705" x2="104.963" y2="154.955" gradientUnits="userSpaceOnUse">
<stop stop-color="#F2F2F2"/>
<stop offset="0.6939" stop-color="#F2F2F2" stop-opacity="0"/>
</linearGradient>
<linearGradient id="paint2_linear_739_19919" x1="115.868" y1="158.719" x2="147.16" y2="128.917" gradientUnits="userSpaceOnUse">
<stop offset="0.2636" stop-color="#F2F2F2"/>
<stop offset="0.6581" stop-color="#F2F2F2" stop-opacity="0"/>
</linearGradient>
<linearGradient id="paint3_linear_739_19919" x1="79.4448" y1="145.845" x2="123.701" y2="104.867" gradientUnits="userSpaceOnUse">
<stop stop-color="#F2F2F2"/>
<stop offset="0.6581" stop-color="#F2F2F2" stop-opacity="0"/>
</linearGradient>
<linearGradient id="paint4_linear_739_19919" x1="77.3282" y1="107.314" x2="32.029" y2="150.527" gradientUnits="userSpaceOnUse">
<stop stop-color="#F2F2F2"/>
<stop offset="0.6581" stop-color="#F2F2F2" stop-opacity="0"/>
</linearGradient>
<clipPath id="clip0_739_19919">
<rect width="35" height="35" fill="white" transform="translate(321 120)"/>
</clipPath>
<clipPath id="clip1_739_19919">
<rect width="32.0215" height="32" fill="white" transform="translate(322.99 121)"/>
</clipPath>
<clipPath id="clip2_739_19919">
<rect width="32.0215" height="32" fill="white" transform="translate(322.99 121)"/>
</clipPath>
<clipPath id="clip3_739_19919">
<rect width="26.1818" height="32" fill="white" transform="translate(315 35)"/>
</clipPath>
</defs>
</svg>
