<svg width="30" height="30" viewBox="0 0 30 30" fill="none" xmlns="http://www.w3.org/2000/svg">
<mask id="path-1-inside-1_3788_25189" fill="white">
<path d="M13.0577 15.26L9.94769 23.85C9.92686 23.8967 9.87478 23.9617 9.79144 24.045L9.39144 24.4125C9.28478 24.5042 9.17561 24.5271 9.06394 24.4812C8.95228 24.4354 8.88394 24.3596 8.85894 24.2537L8.75769 23.7275C8.74103 23.695 8.75144 23.6092 8.78894 23.47L11.9764 14.695C12.1448 14.8433 12.3189 14.96 12.4989 15.045C12.6798 15.1317 12.866 15.2025 13.0577 15.2575M15.0002 13.125C14.1352 13.125 13.3977 12.8208 12.7877 12.2125C12.1777 11.6042 11.8735 10.8667 11.8752 9.99999C11.8752 9.18749 12.1294 8.50749 12.6377 7.95999C13.1469 7.41249 13.726 7.08583 14.3752 6.97999V4.37499C14.3752 4.19749 14.4348 4.04874 14.5539 3.92874C14.6731 3.80874 14.8219 3.74916 15.0002 3.74999C15.1785 3.75083 15.3273 3.81041 15.4464 3.92874C15.5656 4.04708 15.6252 4.19583 15.6252 4.37499V6.98124C16.2744 7.08708 16.8535 7.41333 17.3627 7.95999C17.871 8.50749 18.1252 9.18749 18.1252 9.99999C18.1252 10.8658 17.821 11.6033 17.2127 12.2125C16.6044 12.8217 15.8669 13.1258 15.0002 13.125ZM15.0002 11.875C15.5144 11.875 15.9556 11.6912 16.3239 11.3237C16.6914 10.9554 16.8752 10.5142 16.8752 9.99999C16.8752 9.48583 16.6914 9.04458 16.3239 8.67624C15.9556 8.30874 15.5144 8.12499 15.0002 8.12499C14.486 8.12499 14.0448 8.30874 13.6764 8.67624C13.3081 9.04374 13.1244 9.48499 13.1252 9.99999C13.126 10.515 13.3098 10.9562 13.6764 11.3237C14.0448 11.6912 14.486 11.875 15.0002 11.875ZM16.9427 15.26C17.1344 15.2042 17.3206 15.1333 17.5014 15.0475C17.6814 14.9617 17.8477 14.845 18.0002 14.6975L21.1877 23.4712C21.1927 23.4854 21.2031 23.5712 21.2189 23.7287L21.1189 24.2537C21.0931 24.3604 21.0244 24.4367 20.9127 24.4825C20.801 24.5283 20.6914 24.5054 20.5839 24.4137L20.1852 24.0462L20.0289 23.8512L16.9427 15.26Z"/>
</mask>
<path d="M13.0577 15.26L9.94769 23.85C9.92686 23.8967 9.87478 23.9617 9.79144 24.045L9.39144 24.4125C9.28478 24.5042 9.17561 24.5271 9.06394 24.4812C8.95228 24.4354 8.88394 24.3596 8.85894 24.2537L8.75769 23.7275C8.74103 23.695 8.75144 23.6092 8.78894 23.47L11.9764 14.695C12.1448 14.8433 12.3189 14.96 12.4989 15.045C12.6798 15.1317 12.866 15.2025 13.0577 15.2575M15.0002 13.125C14.1352 13.125 13.3977 12.8208 12.7877 12.2125C12.1777 11.6042 11.8735 10.8667 11.8752 9.99999C11.8752 9.18749 12.1294 8.50749 12.6377 7.95999C13.1469 7.41249 13.726 7.08583 14.3752 6.97999V4.37499C14.3752 4.19749 14.4348 4.04874 14.5539 3.92874C14.6731 3.80874 14.8219 3.74916 15.0002 3.74999C15.1785 3.75083 15.3273 3.81041 15.4464 3.92874C15.5656 4.04708 15.6252 4.19583 15.6252 4.37499V6.98124C16.2744 7.08708 16.8535 7.41333 17.3627 7.95999C17.871 8.50749 18.1252 9.18749 18.1252 9.99999C18.1252 10.8658 17.821 11.6033 17.2127 12.2125C16.6044 12.8217 15.8669 13.1258 15.0002 13.125ZM15.0002 11.875C15.5144 11.875 15.9556 11.6912 16.3239 11.3237C16.6914 10.9554 16.8752 10.5142 16.8752 9.99999C16.8752 9.48583 16.6914 9.04458 16.3239 8.67624C15.9556 8.30874 15.5144 8.12499 15.0002 8.12499C14.486 8.12499 14.0448 8.30874 13.6764 8.67624C13.3081 9.04374 13.1244 9.48499 13.1252 9.99999C13.126 10.515 13.3098 10.9562 13.6764 11.3237C14.0448 11.6912 14.486 11.875 15.0002 11.875ZM16.9427 15.26C17.1344 15.2042 17.3206 15.1333 17.5014 15.0475C17.6814 14.9617 17.8477 14.845 18.0002 14.6975L21.1877 23.4712C21.1927 23.4854 21.2031 23.5712 21.2189 23.7287L21.1189 24.2537C21.0931 24.3604 21.0244 24.4367 20.9127 24.4825C20.801 24.5283 20.6914 24.5054 20.5839 24.4137L20.1852 24.0462L20.0289 23.8512L16.9427 15.26Z" fill="white"/>
<path d="M9.94769 23.85L10.8608 24.2576L10.8756 24.2245L10.888 24.1904L9.94769 23.85ZM9.79144 24.045L10.468 24.7814L10.4836 24.7671L10.4985 24.7521L9.79144 24.045ZM9.39144 24.4125L10.0432 25.1709L10.0558 25.1601L10.068 25.1489L9.39144 24.4125ZM8.85894 24.2537L7.87695 24.4427L7.88091 24.4632L7.88573 24.4836L8.85894 24.2537ZM8.75769 23.7275L9.73968 23.5386L9.71269 23.3983L9.64751 23.2712L8.75769 23.7275ZM8.78894 23.47L7.84903 23.1286L7.83448 23.1686L7.82338 23.2098L8.78894 23.47ZM11.9764 14.695L12.6376 13.9447L11.5372 12.9751L11.0365 14.3536L11.9764 14.695ZM12.4989 15.045L12.9311 14.1432L12.9259 14.1407L12.4989 15.045ZM15.0002 13.125L15.0012 12.125H15.0002V13.125ZM11.8752 9.99999L12.8752 10.0019V9.99999H11.8752ZM12.6377 7.95999L11.9054 7.27899L11.9049 7.27959L12.6377 7.95999ZM14.3752 6.97999L14.5361 7.96696L15.3752 7.83017V6.97999H14.3752ZM15.6252 6.98124H14.6252V7.83142L15.4643 7.96821L15.6252 6.98124ZM17.3627 7.95999L18.0955 7.27958L18.0945 7.27843L17.3627 7.95999ZM16.3239 11.3237L17.0302 12.0317L17.0318 12.03L16.3239 11.3237ZM16.3239 8.67624L17.0319 7.96994L17.0302 7.96834L16.3239 8.67624ZM13.6764 11.3237L12.9685 12.03L12.9701 12.0317L13.6764 11.3237ZM16.9427 15.26L16.663 14.2999L15.6421 14.5973L16.0016 15.5981L16.9427 15.26ZM17.5014 15.0475L17.9302 15.9509L17.9319 15.9501L17.5014 15.0475ZM18.0002 14.6975L18.9401 14.356L18.4135 12.9065L17.305 13.9787L18.0002 14.6975ZM21.1877 23.4712L22.1307 23.1384L22.1276 23.1298L21.1877 23.4712ZM21.2189 23.7287L22.2013 23.9159L22.2285 23.7732L22.2139 23.6287L21.2189 23.7287ZM21.1189 24.2537L22.0908 24.4891L22.0967 24.4651L22.1013 24.4409L21.1189 24.2537ZM20.5839 24.4137L19.9062 25.1491L19.9204 25.1621L19.9351 25.1747L20.5839 24.4137ZM20.1852 24.0462L19.4048 24.6715L19.452 24.7304L19.5075 24.7816L20.1852 24.0462ZM20.0289 23.8512L19.0878 24.1893L19.1442 24.3463L19.2486 24.4765L20.0289 23.8512ZM13.0577 15.26L12.1174 14.9196L9.00742 23.5096L9.94769 23.85L10.888 24.1904L13.998 15.6004L13.0577 15.26ZM9.94769 23.85L9.03455 23.4423C9.05626 23.3937 9.0773 23.3595 9.08891 23.3417C9.10119 23.3229 9.11015 23.3115 9.11262 23.3084C9.1167 23.3034 9.10978 23.3124 9.08434 23.3379L9.79144 24.045L10.4985 24.7521C10.5847 24.666 10.7579 24.4883 10.8608 24.2576L9.94769 23.85ZM9.79144 24.045L9.11488 23.3086L8.71488 23.6761L9.39144 24.4125L10.068 25.1489L10.468 24.7814L9.79144 24.045ZM9.39144 24.4125L8.73968 23.6541C8.78146 23.6182 8.87613 23.5508 9.02413 23.5198C9.18178 23.4867 9.33015 23.5096 9.44365 23.5561L9.06394 24.4812L8.68423 25.4063C8.9094 25.4988 9.16818 25.5331 9.435 25.4771C9.69217 25.4231 9.89476 25.2985 10.0432 25.1709L9.39144 24.4125ZM9.06394 24.4812L9.44365 23.5561C9.50142 23.5798 9.58893 23.6286 9.67183 23.7206C9.75749 23.8156 9.80863 23.9243 9.83216 24.0239L8.85894 24.2537L7.88573 24.4836C7.99386 24.9414 8.3123 25.2537 8.68423 25.4063L9.06394 24.4812ZM8.85894 24.2537L9.84093 24.0648L9.73968 23.5386L8.75769 23.7275L7.7757 23.9164L7.87695 24.4427L8.85894 24.2537ZM8.75769 23.7275L9.64751 23.2712C9.69461 23.363 9.71794 23.445 9.73019 23.5018C9.74268 23.5596 9.74715 23.6077 9.74888 23.6404C9.75219 23.7031 9.74723 23.7468 9.74572 23.7592C9.74269 23.7842 9.74113 23.7798 9.7545 23.7302L8.78894 23.47L7.82338 23.2098C7.79925 23.2994 7.77373 23.4075 7.76029 23.5183C7.75357 23.5736 7.74679 23.6536 7.75166 23.7459C7.7558 23.8242 7.77165 23.9962 7.86787 24.1838L8.75769 23.7275ZM8.78894 23.47L9.72885 23.8114L12.9164 15.0364L11.9764 14.695L11.0365 14.3536L7.84903 23.1286L8.78894 23.47ZM11.9764 14.695L11.3153 15.4453C11.5453 15.6479 11.7971 15.8194 12.0719 15.9492L12.4989 15.045L12.9259 14.1407C12.8408 14.1005 12.7443 14.0388 12.6376 13.9447L11.9764 14.695ZM12.4989 15.045L12.0668 15.9468C12.2977 16.0574 12.5362 16.1482 12.7819 16.2187L13.0577 15.2575L13.3335 14.2963C13.1958 14.2568 13.0619 14.2059 12.9311 14.1432L12.4989 15.045ZM15.0002 13.125V12.125C14.3987 12.125 13.9155 11.925 13.4938 11.5044L12.7877 12.2125L12.0816 12.9206C12.8799 13.7167 13.8717 14.125 15.0002 14.125V13.125ZM12.7877 12.2125L13.4938 11.5044C13.0737 11.0854 12.874 10.604 12.8752 10.0019L11.8752 9.99999L10.8752 9.99807C10.873 11.1293 11.2817 12.1229 12.0816 12.9206L12.7877 12.2125ZM11.8752 9.99999H12.8752C12.8752 9.41581 13.0496 8.98602 13.3705 8.6404L12.6377 7.95999L11.9049 7.27959C11.2091 8.02897 10.8752 8.95918 10.8752 9.99999H11.8752ZM12.6377 7.95999L13.37 8.641C13.7496 8.23275 14.1356 8.03226 14.5361 7.96696L14.3752 6.97999L14.2143 5.99302C13.3165 6.13939 12.5441 6.59224 11.9054 7.27899L12.6377 7.95999ZM14.3752 6.97999H15.3752V4.37499H14.3752H13.3752V6.97999H14.3752ZM14.3752 4.37499H15.3752C15.3752 4.3999 15.3706 4.44617 15.3482 4.50214C15.3254 4.55907 15.2931 4.60359 15.2635 4.63338L14.5539 3.92874L13.8444 3.2241C13.5292 3.54151 13.3752 3.94803 13.3752 4.37499H14.3752ZM14.5539 3.92874L15.2635 4.63338C15.2324 4.66474 15.1859 4.69863 15.1267 4.72235C15.0686 4.74564 15.0208 4.7501 14.9955 4.74998L15.0002 3.74999L15.0049 2.75C14.5748 2.74799 14.1636 2.90266 13.8444 3.2241L14.5539 3.92874ZM15.0002 3.74999L14.9955 4.74998C14.9731 4.74988 14.9286 4.74559 14.8737 4.7236C14.8176 4.70115 14.7727 4.66901 14.7418 4.63833L15.4464 3.92874L16.1511 3.21916C15.8333 2.90365 15.4276 2.75198 15.0049 2.75L15.0002 3.74999ZM15.4464 3.92874L14.7418 4.63833C14.7093 4.60606 14.6756 4.55924 14.6522 4.50089C14.6294 4.44384 14.6252 4.39778 14.6252 4.37499H15.6252H16.6252C16.6252 3.94916 16.4729 3.53871 16.1511 3.21916L15.4464 3.92874ZM15.6252 4.37499H14.6252V6.98124H15.6252H16.6252V4.37499H15.6252ZM15.6252 6.98124L15.4643 7.96821C15.8653 8.03359 16.2514 8.23404 16.6309 8.64156L17.3627 7.95999L18.0945 7.27843C17.4557 6.59262 16.6834 6.14057 15.7861 5.99427L15.6252 6.98124ZM17.3627 7.95999L16.6299 8.6404C16.9508 8.98602 17.1252 9.41581 17.1252 9.99999H18.1252H19.1252C19.1252 8.95918 18.7913 8.02897 18.0955 7.27959L17.3627 7.95999ZM18.1252 9.99999H17.1252C17.1252 10.6026 16.925 11.0854 16.5051 11.5059L17.2127 12.2125L17.9203 12.9191C18.7171 12.1212 19.1252 11.1291 19.1252 9.99999H18.1252ZM17.2127 12.2125L16.5051 11.5059C16.086 11.9256 15.604 12.1256 15.0012 12.125L15.0002 13.125L14.9992 14.125C16.1297 14.1261 17.1227 13.7178 17.9203 12.9191L17.2127 12.2125ZM15.0002 11.875V12.875C15.7827 12.875 16.477 12.5837 17.0302 12.0317L16.3239 11.3237L15.6176 10.6158C15.4343 10.7988 15.246 10.875 15.0002 10.875V11.875ZM16.3239 11.3237L17.0318 12.03C17.5839 11.4768 17.8752 10.7825 17.8752 9.99999H16.8752H15.8752C15.8752 10.2458 15.799 10.4341 15.616 10.6174L16.3239 11.3237ZM16.8752 9.99999H17.8752C17.8752 9.21747 17.5839 8.52322 17.0318 7.96994L16.3239 8.67624L15.616 9.38255C15.799 9.56593 15.8752 9.75419 15.8752 9.99999H16.8752ZM16.3239 8.67624L17.0302 7.96834C16.477 7.4163 15.7827 7.12499 15.0002 7.12499V8.12499V9.12499C15.246 9.12499 15.4343 9.20119 15.6176 9.38415L16.3239 8.67624ZM15.0002 8.12499V7.12499C14.2177 7.12499 13.5234 7.4163 12.9701 7.96834L13.6764 8.67624L14.3827 9.38415C14.5661 9.20119 14.7544 9.12499 15.0002 9.12499V8.12499ZM13.6764 8.67624L12.9701 7.96834C12.4156 8.52165 12.1239 9.21737 12.1252 10.0016L13.1252 9.99999L14.1252 9.99837C14.1248 9.75262 14.2007 9.56583 14.3827 9.38415L13.6764 8.67624ZM13.1252 9.99999L12.1252 10.0016C12.1265 10.7832 12.4169 11.4772 12.9685 12.03L13.6764 11.3237L14.3844 10.6174C14.2027 10.4353 14.1256 10.2467 14.1252 9.99837L13.1252 9.99999ZM13.6764 11.3237L12.9701 12.0317C13.5234 12.5837 14.2177 12.875 15.0002 12.875V11.875V10.875C14.7544 10.875 14.5661 10.7988 14.3827 10.6158L13.6764 11.3237ZM16.9427 15.26L17.2224 16.2201C17.4653 16.1493 17.7014 16.0595 17.9302 15.9509L17.5014 15.0475L17.0726 14.1441C16.9398 14.2071 16.8034 14.259 16.663 14.2999L16.9427 15.26ZM17.5014 15.0475L17.9319 15.9501C18.2156 15.8148 18.4702 15.6342 18.6954 15.4163L18.0002 14.6975L17.305 13.9787C17.2252 14.0558 17.1473 14.1085 17.071 14.1449L17.5014 15.0475ZM18.0002 14.6975L17.0603 15.039L20.2478 23.8127L21.1877 23.4712L22.1276 23.1298L18.9401 14.356L18.0002 14.6975ZM21.1877 23.4712L20.2447 23.8041C20.2366 23.781 20.2307 23.7616 20.2268 23.748C20.2228 23.734 20.2197 23.7221 20.2175 23.7132C20.2132 23.6957 20.2104 23.6819 20.2089 23.6742C20.2072 23.6658 20.2061 23.6594 20.2054 23.6556C20.2048 23.6517 20.2043 23.6489 20.2041 23.6477C20.2038 23.6454 20.2039 23.6457 20.2044 23.6497C20.2049 23.6534 20.2056 23.659 20.2065 23.6667C20.2084 23.6824 20.2109 23.7037 20.2139 23.7313C20.2168 23.7587 20.2202 23.7911 20.224 23.8288L21.2189 23.7287L22.2139 23.6287C22.2058 23.5477 22.1984 23.4789 22.192 23.4258C22.1888 23.4 22.1851 23.3709 22.1808 23.3429C22.1787 23.3293 22.1754 23.3089 22.1708 23.2856C22.1689 23.276 22.1569 23.2128 22.1307 23.1384L21.1877 23.4712ZM21.2189 23.7287L20.2366 23.5416L20.1366 24.0666L21.1189 24.2537L22.1013 24.4409L22.2013 23.9159L21.2189 23.7287ZM21.1189 24.2537L20.147 24.0184C20.1705 23.9216 20.2207 23.8151 20.3053 23.7213C20.3874 23.6302 20.4744 23.5814 20.533 23.5574L20.9127 24.4825L21.2924 25.4076C21.6662 25.2542 21.9812 24.9418 22.0908 24.4891L21.1189 24.2537ZM20.9127 24.4825L20.533 23.5574C20.647 23.5106 20.795 23.4881 20.9515 23.5209C21.0981 23.5515 21.1918 23.6179 21.2328 23.6528L20.5839 24.4137L19.9351 25.1747C20.0836 25.3013 20.2858 25.4249 20.5421 25.4785C20.8081 25.5341 21.0667 25.5002 21.2924 25.4076L20.9127 24.4825ZM20.5839 24.4137L21.2616 23.6784L20.8629 23.3109L20.1852 24.0462L19.5075 24.7816L19.9062 25.1491L20.5839 24.4137ZM20.1852 24.0462L20.9656 23.4209L20.8093 23.2259L20.0289 23.8512L19.2486 24.4765L19.4048 24.6715L20.1852 24.0462ZM20.0289 23.8512L20.9701 23.5132L17.8838 14.9219L16.9427 15.26L16.0016 15.5981L19.0878 24.1893L20.0289 23.8512Z" fill="white" mask="url(#path-1-inside-1_3788_25189)"/>
</svg>
