<svg width="24" height="24" viewBox="0 0 24 24" fill="none" xmlns="http://www.w3.org/2000/svg">
<path d="M12.6743 23.5H4.1543C3.59092 23.4993 3.0508 23.2752 2.65243 22.8769C2.25405 22.4785 2.02996 21.9384 2.0293 21.375V2.625C2.02996 2.06162 2.25405 1.5215 2.65243 1.12313C3.0508 0.724757 3.59092 0.500662 4.1543 0.5H12.6743C13.2377 0.500662 13.7778 0.724757 14.1762 1.12313C14.5745 1.5215 14.7986 2.06162 14.7993 2.625V8.625C14.7993 8.6913 14.773 8.75489 14.7261 8.80178C14.6792 8.84866 14.6156 8.875 14.5493 8.875C14.483 8.875 14.4194 8.84866 14.3725 8.80178C14.3256 8.75489 14.2993 8.6913 14.2993 8.625V2.625C14.2986 2.19423 14.1272 1.78129 13.8226 1.47668C13.518 1.17208 13.1051 1.00066 12.6743 1H4.1543C3.72352 1.00066 3.31058 1.17208 3.00598 1.47668C2.70138 1.78129 2.52996 2.19423 2.5293 2.625V21.375C2.52996 21.8058 2.70138 22.2187 3.00598 22.5233C3.31058 22.8279 3.72352 22.9993 4.1543 23H12.6743C13.1051 22.9993 13.518 22.8279 13.8226 22.5233C14.1272 22.2187 14.2986 21.8058 14.2993 21.375V14.1475C14.2993 14.0812 14.3256 14.0176 14.3725 13.9707C14.4194 13.9238 14.483 13.8975 14.5493 13.8975C14.6156 13.8975 14.6792 13.9238 14.7261 13.9707C14.773 14.0176 14.7993 14.0812 14.7993 14.1475V21.375C14.7986 21.9384 14.5745 22.4785 14.1762 22.8769C13.7778 23.2752 13.2377 23.4993 12.6743 23.5Z" fill="#050A14"/>
<path d="M10.25 2.5225C10.1837 2.5225 10.1201 2.49616 10.0732 2.44927C10.0263 2.40239 10 2.3388 10 2.2725C10.0003 2.20691 10.0263 2.14406 10.0725 2.0975C10.1076 2.06188 10.1525 2.03761 10.2016 2.0278C10.2506 2.018 10.3014 2.02312 10.3475 2.0425C10.378 2.05457 10.4053 2.07337 10.4275 2.0975C10.4509 2.12031 10.4696 2.14749 10.4825 2.1775C10.4945 2.20772 10.5004 2.23999 10.5 2.2725C10.5002 2.3054 10.4939 2.33801 10.4814 2.36847C10.469 2.39893 10.4507 2.42664 10.4275 2.45C10.4047 2.47338 10.3775 2.49207 10.3475 2.505C10.3164 2.51685 10.2833 2.52278 10.25 2.5225Z" fill="#050A14"/>
<path d="M8.84766 2.52246H6.59766C6.53135 2.52246 6.46776 2.49612 6.42088 2.44924C6.374 2.40235 6.34766 2.33877 6.34766 2.27246C6.34766 2.20616 6.374 2.14257 6.42088 2.09568C6.46776 2.0488 6.53135 2.02246 6.59766 2.02246H8.84766C8.91396 2.02246 8.97755 2.0488 9.02443 2.09568C9.07132 2.14257 9.09766 2.20616 9.09766 2.27246C9.09766 2.33877 9.07132 2.40235 9.02443 2.44924C8.97755 2.49612 8.91396 2.52246 8.84766 2.52246Z" fill="#050A14"/>
<path d="M9.43945 21.8926H7.18945C7.12315 21.8926 7.05956 21.8662 7.01268 21.8194C6.96579 21.7725 6.93945 21.7089 6.93945 21.6426C6.93945 21.5763 6.96579 21.5127 7.01268 21.4658C7.05956 21.4189 7.12315 21.3926 7.18945 21.3926H9.43945C9.50576 21.3926 9.56935 21.4189 9.61623 21.4658C9.66311 21.5127 9.68945 21.5763 9.68945 21.6426C9.68945 21.7089 9.66311 21.7725 9.61623 21.8194C9.56935 21.8662 9.50576 21.8926 9.43945 21.8926Z" fill="#050A14"/>
<path d="M10.2018 16.54C10.1709 16.5403 10.1403 16.5343 10.1118 16.5225C10.0648 16.5044 10.0244 16.4725 9.99584 16.431C9.96729 16.3895 9.95194 16.3404 9.95179 16.29V14.29C9.39246 14.2642 8.85269 14.0764 8.39821 13.7493C7.94372 13.4223 7.59413 12.9701 7.39199 12.448C7.18985 11.9258 7.14389 11.3561 7.25971 10.8083C7.37552 10.2605 7.64811 9.75818 8.04429 9.3625C8.30961 9.09062 8.62643 8.87433 8.97626 8.72624C9.32608 8.57815 9.70191 8.50124 10.0818 8.5H19.0818C19.8326 8.5221 20.5452 8.83587 21.0684 9.37474C21.5917 9.91361 21.8843 10.6351 21.8843 11.3862C21.8843 12.1374 21.5917 12.8589 21.0684 13.3978C20.5452 13.9366 19.8326 14.2504 19.0818 14.2725H12.3918L10.3918 16.45C10.3686 16.4779 10.3395 16.5004 10.3067 16.5159C10.2739 16.5315 10.2381 16.5397 10.2018 16.54ZM10.0818 9C9.76838 9 9.45804 9.06177 9.16851 9.18179C8.87899 9.3018 8.61595 9.4777 8.39445 9.69943C8.17295 9.92117 7.99733 10.1844 7.87762 10.474C7.75791 10.7637 7.69646 11.0741 7.69679 11.3875C7.69745 12.0198 7.94894 12.6261 8.39607 13.0732C8.8432 13.5203 9.44945 13.7718 10.0818 13.7725H10.2018C10.2681 13.7725 10.3317 13.7988 10.3786 13.8457C10.4254 13.8926 10.4518 13.9562 10.4518 14.0225V15.65L12.0993 13.8625C12.1226 13.8374 12.1508 13.8173 12.1822 13.8035C12.2136 13.7898 12.2475 13.7826 12.2818 13.7825H19.0843C19.7038 13.7624 20.2912 13.5023 20.7224 13.0569C21.1535 12.6116 21.3945 12.0161 21.3945 11.3962C21.3945 10.7764 21.1535 10.1809 20.7224 9.73557C20.2912 9.29025 19.7038 9.03005 19.0843 9.01L10.0818 9Z" fill="#050A14"/>
<path d="M10.3223 12.3648C10.256 12.3648 10.1924 12.3385 10.1455 12.2916C10.0986 12.2447 10.0723 12.1811 10.0723 12.1148V10.6323C10.0723 10.566 10.0986 10.5024 10.1455 10.4555C10.1924 10.4087 10.256 10.3823 10.3223 10.3823C10.3886 10.3823 10.4522 10.4087 10.499 10.4555C10.5459 10.5024 10.5723 10.566 10.5723 10.6323V12.1148C10.5723 12.1811 10.5459 12.2447 10.499 12.2916C10.4522 12.3385 10.3886 12.3648 10.3223 12.3648Z" fill="#050A14"/>
<path d="M9.6576 12.035C9.60305 12.0344 9.55017 12.016 9.50704 11.9826C9.46391 11.9492 9.43289 11.9026 9.41873 11.8499C9.40456 11.7972 9.40803 11.7413 9.42859 11.6908C9.44915 11.6402 9.48568 11.5978 9.5326 11.57L10.8151 10.82C10.8437 10.8036 10.8752 10.7929 10.9079 10.7887C10.9405 10.7845 10.9737 10.7867 11.0055 10.7953C11.0373 10.8039 11.0671 10.8187 11.0932 10.8388C11.1193 10.8589 11.1412 10.8839 11.1576 10.9125C11.174 10.941 11.1846 10.9726 11.1889 11.0052C11.1931 11.0379 11.1909 11.0711 11.1823 11.1029C11.1737 11.1347 11.1589 11.1645 11.1388 11.1906C11.1187 11.2167 11.0937 11.2386 11.0651 11.255L9.7826 12.005C9.74427 12.0257 9.70117 12.036 9.6576 12.035Z" fill="#050A14"/>
<path d="M11.0007 12.035C10.9569 12.0353 10.9138 12.0241 10.8757 12.0025L9.59071 11.2525C9.53302 11.2194 9.49087 11.1646 9.47352 11.1004C9.45617 11.0362 9.46505 10.9677 9.49821 10.91C9.53136 10.8523 9.58607 10.8102 9.6503 10.7928C9.71453 10.7755 9.78302 10.7844 9.84071 10.8175L11.1257 11.5675C11.1726 11.5953 11.2092 11.6378 11.2297 11.6883C11.2503 11.7388 11.2537 11.7947 11.2396 11.8474C11.2254 11.9001 11.1944 11.9467 11.1513 11.9801C11.1081 12.0136 11.0553 12.0319 11.0007 12.0325V12.035Z" fill="#050A14"/>
<path d="M13.1621 12.3648C13.0958 12.3648 13.0322 12.3385 12.9853 12.2916C12.9384 12.2447 12.9121 12.1811 12.9121 12.1148V10.6323C12.9121 10.566 12.9384 10.5024 12.9853 10.4555C13.0322 10.4087 13.0958 10.3823 13.1621 10.3823C13.2284 10.3823 13.292 10.4087 13.3389 10.4555C13.3858 10.5024 13.4121 10.566 13.4121 10.6323V12.1148C13.4121 12.1811 13.3858 12.2447 13.3389 12.2916C13.292 12.3385 13.2284 12.3648 13.1621 12.3648Z" fill="#050A14"/>
<path d="M12.5001 12.035C12.456 12.0352 12.4127 12.0237 12.3745 12.0017C12.3363 11.9798 12.3046 11.9481 12.2826 11.91C12.25 11.8526 12.2414 11.7846 12.2588 11.7209C12.2761 11.6572 12.3179 11.603 12.3751 11.57L13.6576 10.82C13.7153 10.7868 13.7838 10.778 13.848 10.7953C13.9122 10.8126 13.9669 10.8548 14.0001 10.9125C14.0333 10.9702 14.0421 11.0387 14.0248 11.1029C14.0074 11.1671 13.9653 11.2218 13.9076 11.255L12.6251 12.005C12.5868 12.0257 12.5437 12.036 12.5001 12.035Z" fill="#050A14"/>
<path d="M13.8308 12.035C13.787 12.0353 13.7439 12.0241 13.7058 12.0025L12.4208 11.2525C12.3631 11.2194 12.3209 11.1646 12.3036 11.1004C12.2863 11.0362 12.2951 10.9677 12.3283 10.91C12.3614 10.8523 12.4161 10.8102 12.4804 10.7928C12.5446 10.7755 12.6131 10.7844 12.6708 10.8175L13.9558 11.5675C14.0027 11.5953 14.0392 11.6378 14.0598 11.6883C14.0804 11.7388 14.0838 11.7947 14.0697 11.8474C14.0555 11.9001 14.0245 11.9467 13.9814 11.9801C13.9382 12.0136 13.8853 12.0319 13.8308 12.0325V12.035Z" fill="#050A14"/>
<path d="M16 12.3648C15.9337 12.3648 15.8701 12.3385 15.8232 12.2916C15.7763 12.2447 15.75 12.1811 15.75 12.1148V10.6323C15.75 10.566 15.7763 10.5024 15.8232 10.4555C15.8701 10.4087 15.9337 10.3823 16 10.3823C16.0663 10.3823 16.1299 10.4087 16.1768 10.4555C16.2237 10.5024 16.25 10.566 16.25 10.6323V12.1148C16.25 12.1811 16.2237 12.2447 16.1768 12.2916C16.1299 12.3385 16.0663 12.3648 16 12.3648Z" fill="#050A14"/>
<path d="M15.338 12.035C15.2939 12.0352 15.2506 12.0237 15.2124 12.0018C15.1742 11.9798 15.1425 11.9481 15.1205 11.91C15.0879 11.8526 15.0793 11.7846 15.0967 11.7209C15.114 11.6572 15.1558 11.603 15.213 11.57L16.4955 10.82C16.5532 10.7868 16.6217 10.778 16.6859 10.7953C16.7501 10.8127 16.8048 10.8548 16.838 10.9125C16.8711 10.9702 16.88 11.0387 16.8627 11.1029C16.8453 11.1671 16.8032 11.2218 16.7455 11.255L15.463 12.005C15.4247 12.0257 15.3816 12.0361 15.338 12.035Z" fill="#050A14"/>
<path d="M16.671 12.0349C16.6272 12.0352 16.5841 12.024 16.546 12.0024L15.261 11.2524C15.2326 11.2358 15.2077 11.2138 15.1878 11.1877C15.1678 11.1615 15.1533 11.1316 15.1449 11.0998C15.1366 11.068 15.1346 11.0348 15.139 11.0022C15.1435 10.9696 15.1544 10.9383 15.171 10.9099C15.2055 10.857 15.2586 10.8192 15.3198 10.8039C15.381 10.7886 15.4458 10.797 15.501 10.8274L16.786 11.5774C16.833 11.6052 16.8695 11.6476 16.89 11.6982C16.9106 11.7487 16.9141 11.8046 16.8999 11.8573C16.8857 11.91 16.8547 11.9566 16.8116 11.99C16.7685 12.0234 16.7156 12.0418 16.661 12.0424L16.671 12.0349Z" fill="#050A14"/>
<path d="M18.8457 12.3648C18.7794 12.3648 18.7158 12.3385 18.6689 12.2916C18.622 12.2447 18.5957 12.1811 18.5957 12.1148V10.6323C18.5957 10.566 18.622 10.5024 18.6689 10.4555C18.7158 10.4087 18.7794 10.3823 18.8457 10.3823C18.912 10.3823 18.9756 10.4087 19.0225 10.4555C19.0694 10.5024 19.0957 10.566 19.0957 10.6323V12.1148C19.0957 12.1811 19.0694 12.2447 19.0225 12.2916C18.9756 12.3385 18.912 12.3648 18.8457 12.3648Z" fill="#050A14"/>
<path d="M18.1778 12.035C18.1338 12.0352 18.0905 12.0237 18.0523 12.0017C18.0141 11.9798 17.9824 11.9481 17.9603 11.91C17.9277 11.8526 17.9192 11.7846 17.9365 11.7209C17.9538 11.6572 17.9957 11.603 18.0528 11.57L19.3378 10.82C19.3955 10.7868 19.464 10.778 19.5282 10.7953C19.5925 10.8126 19.6472 10.8548 19.6803 10.9125C19.7135 10.9702 19.7224 11.0387 19.705 11.1029C19.6877 11.1671 19.6455 11.2218 19.5878 11.255L18.3028 12.005C18.2645 12.0257 18.2214 12.036 18.1778 12.035Z" fill="#050A14"/>
<path d="M19.5008 12.035C19.457 12.0353 19.4139 12.0241 19.3758 12.0025L18.0908 11.2525C18.036 11.2192 17.9961 11.1661 17.9794 11.1042C17.9626 11.0423 17.9703 10.9764 18.0008 10.92C18.0338 10.8628 18.088 10.821 18.1517 10.8037C18.2154 10.7863 18.2834 10.7949 18.3408 10.8275L19.6258 11.5775C19.683 11.6105 19.7248 11.6647 19.7421 11.7284C19.7595 11.7921 19.7509 11.8601 19.7183 11.9175C19.6953 11.9543 19.6632 11.9844 19.6251 12.005C19.587 12.0256 19.5441 12.0359 19.5008 12.035Z" fill="#050A14"/>
</svg>
