<svg width="40" height="40" viewBox="0 0 40 40" fill="none" xmlns="http://www.w3.org/2000/svg">
<g clip-path="url(#clip0_1597_2222)">
<path d="M13.6682 8.28327C13.587 7.96141 13.42 7.66762 13.1849 7.43327C12.7433 6.90175 12.2333 6.431 11.6682 6.03327C11.9544 5.80061 12.173 5.49562 12.3016 5.14994C12.4526 4.69834 12.4733 4.21333 12.3613 3.75051C12.2492 3.2877 12.009 2.86582 11.6682 2.53327C11.3673 2.16583 10.9807 1.87791 10.5425 1.69483C10.1043 1.51175 9.62778 1.4391 9.15489 1.48327C8.47023 1.61701 7.86075 2.00298 7.44714 2.56475C7.03354 3.12651 6.84596 3.82311 6.92156 4.51661C6.98968 4.91702 7.1436 5.29797 7.37275 5.63333C7.60191 5.96868 7.90088 6.25051 8.24917 6.45948C8.59746 6.66846 8.98682 6.79963 9.39056 6.84401C9.7943 6.88839 10.2029 6.84493 10.5882 6.71661C11.0049 7.21661 11.9549 8.23327 12.0882 8.38327C12.5382 8.86661 14.0049 9.26661 13.6716 8.28327M10.9882 4.74994C10.9327 4.95303 10.8233 5.13733 10.6716 5.28327C10.5026 5.50499 10.2669 5.66654 9.99917 5.74409C9.73143 5.82164 9.44585 5.81107 9.18458 5.71396C8.9233 5.61684 8.70015 5.43832 8.54807 5.20473C8.39598 4.97113 8.323 4.69484 8.33989 4.41661C8.34808 4.17071 8.42962 3.93287 8.57405 3.73368C8.71847 3.53449 8.91917 3.38305 9.15034 3.29882C9.38151 3.2146 9.63259 3.20144 9.8713 3.26104C10.11 3.32064 10.3254 3.45027 10.4899 3.63327C10.6632 3.75983 10.8004 3.9294 10.8881 4.12523C10.9758 4.32107 11.0092 4.5364 10.9882 4.74994ZM13.8849 29.6599C13.5349 30.1266 13.2349 30.6266 12.9182 31.1266C12.6016 31.6266 12.2849 32.1099 11.9349 32.5933C11.4267 32.3148 10.8416 32.2095 10.2682 32.2933C9.5837 32.42 8.97273 32.8017 8.55856 33.3612C8.14438 33.9208 7.95784 34.6166 8.03656 35.3083C8.43656 38.1916 12.4866 38.1583 13.3866 35.9416C13.5475 35.5126 13.5906 35.0483 13.5115 34.5969C13.4324 34.1456 13.2339 33.7236 12.9366 33.3749C13.5043 32.9349 14.0154 32.4349 14.4699 31.8749C14.8521 31.4005 15.1904 30.8949 15.4849 30.3583C15.7349 29.9249 15.7849 29.7916 16.0016 29.3599C15.9807 29.2321 15.9303 29.1109 15.8544 29.006C15.7784 28.901 15.6791 28.8152 15.5643 28.7554C15.4494 28.6955 15.3222 28.6633 15.1927 28.6612C15.0632 28.6591 14.935 28.6872 14.8182 28.7433C14.4836 29.0239 14.1715 29.3304 13.8849 29.6599ZM12.2182 35.5416C12.144 35.859 11.9547 36.1376 11.6869 36.3235C11.4191 36.5094 11.0919 36.5893 10.7686 36.5478C10.4453 36.5064 10.1488 36.3464 9.93663 36.099C9.72443 35.8515 9.61158 35.5341 9.61989 35.2083C9.64725 34.9842 9.73558 34.7719 9.87528 34.5945C10.015 34.4172 10.2007 34.2816 10.4121 34.2025C10.6236 34.1234 10.8527 34.1039 11.0745 34.1461C11.2962 34.1882 11.5022 34.2905 11.6699 34.4416C11.8413 34.5651 11.9766 34.7323 12.0616 34.9257C12.1466 35.1191 12.1782 35.3318 12.1532 35.5416H12.2182ZM29.4649 11.2149C29.4409 10.6405 29.3109 10.0755 29.0816 9.54827C28.9678 9.36735 28.8106 9.21771 28.6244 9.11293C28.4381 9.00815 28.2286 8.95155 28.0149 8.94827C27.1482 8.84827 27.2149 8.53161 26.1482 9.31494C25.7677 9.56587 25.4578 9.91016 25.2482 10.3149C24.906 10.4483 24.5504 10.5149 24.1816 10.5149C23.8894 10.5122 23.6009 10.4504 23.3332 10.3333C22.7943 9.97112 22.3261 9.51362 21.9516 8.98327C21.5967 8.59093 21.1106 8.34194 20.5849 8.28327C20.3694 8.26537 20.1526 8.29324 19.9487 8.36505C19.7447 8.43686 19.5583 8.55098 19.4016 8.69994C19.0349 9.01661 18.7016 9.73327 17.9349 10.1999C17.5192 10.4416 17.0489 10.5735 16.5682 10.5833C16.0022 10.6096 15.4365 10.5247 14.9032 10.3333C14.2468 9.66879 13.3539 9.29127 12.4199 9.28327C12.2187 9.27349 12.02 9.33021 11.8543 9.44469C11.6886 9.55916 11.5652 9.72501 11.5032 9.91661C11.2439 10.4858 11.0806 11.094 11.0199 11.7166C10.9699 12.5666 10.9699 13.4166 11.0199 14.2666C11.0199 14.9499 11.1532 17.5983 11.4199 20.3149C11.5321 21.6783 11.7377 23.0277 12.0366 24.3633C12.5432 25.5487 13.3826 26.5618 14.4532 27.2799C16.0599 28.1049 17.7316 28.7966 19.4532 29.3449C19.5284 29.36 19.6061 29.3564 19.6795 29.3343C19.7529 29.3123 19.8198 29.2724 19.8741 29.2184C19.9285 29.1644 19.9687 29.0978 19.9912 29.0245C20.0138 28.9512 20.0179 28.8735 20.0032 28.7983C19.9849 28.7092 19.9401 28.6278 19.8747 28.5648C19.8092 28.5017 19.7262 28.4599 19.6366 28.4449C16.9032 27.8616 13.9699 26.1783 13.1866 23.9949C12.9631 22.7173 12.8184 21.427 12.7532 20.1316C12.5866 17.4983 12.5866 14.8149 12.5699 14.1483C12.5199 13.3661 12.5199 12.5827 12.5699 11.7983C12.6064 11.4696 12.6791 11.146 12.7866 10.8333C13.8866 11.6066 15.1666 12.0833 16.5032 12.2166C17.2954 12.2572 18.0839 12.0845 18.7866 11.7166C19.3491 11.3531 19.8405 10.89 20.2366 10.3499C20.2366 10.3499 20.3532 10.1499 20.4199 10.0833C20.6466 10.2444 20.841 10.4388 21.0032 10.6666C21.4049 11.1799 21.9099 11.6049 22.4849 11.9166C23.0017 12.1745 23.5743 12.3004 24.1516 12.2833C24.9313 12.2812 25.6985 12.0866 26.3849 11.7166C26.8093 11.4866 27.2149 11.2255 27.6016 10.9333C27.7271 11.3433 27.8266 11.7599 27.8999 12.1833C27.8999 13.0833 27.9832 13.9833 27.9832 14.2833C27.9832 14.5833 27.9832 17.5316 27.7499 20.2983C27.6499 21.7983 27.5332 23.2633 27.3832 24.1966C26.7838 25.392 25.8445 26.3835 24.6832 27.0466C23.4847 27.7951 22.1475 28.2939 20.7516 28.5133C20.6827 28.5192 20.6158 28.5394 20.5552 28.5724C20.4945 28.6055 20.4414 28.6508 20.3991 28.7055C20.3568 28.7601 20.3263 28.823 20.3095 28.89C20.2927 28.957 20.29 29.0268 20.3016 29.0949C20.3098 29.163 20.3314 29.2288 20.3653 29.2884C20.3992 29.348 20.4446 29.4003 20.4989 29.4422C20.5532 29.4841 20.6153 29.5147 20.6816 29.5324C20.7478 29.55 20.817 29.5543 20.8849 29.5449C22.3913 29.17 23.8632 28.6682 25.2849 28.0449C26.6989 27.2854 27.8577 26.126 28.6166 24.7116C28.628 24.6623 28.628 24.611 28.6166 24.5616C28.7999 23.6116 28.9666 22.0799 29.1166 20.4799C29.3666 17.6633 29.5332 14.6816 29.5499 14.3816C29.5666 14.0816 29.5649 12.3649 29.4649 11.2149ZM30.4982 34.4583C30.1968 34.0756 29.8033 33.7755 29.3544 33.586C28.9056 33.3966 28.4161 33.324 27.9316 33.3749H27.7649C27.5316 32.7916 27.3316 32.2083 27.0982 31.6083C26.9999 31.3286 26.8829 31.0557 26.7482 30.7916C26.6149 30.5249 26.4816 30.2583 26.3316 29.9933C26.1479 29.6827 25.9477 29.3822 25.7316 29.0933C25.4482 28.5433 24.4982 29.0933 24.4982 29.5766C24.5682 29.9599 24.6627 30.3377 24.7816 30.7099C24.8871 30.9999 25.0093 31.2833 25.1482 31.5599C25.2927 31.8411 25.4538 32.1133 25.6316 32.3766C25.976 32.8966 26.3482 33.3966 26.7482 33.8766C26.3673 34.1547 26.0686 34.5306 25.8838 34.9645C25.699 35.3984 25.6348 35.8742 25.6982 36.3416C26.0482 39.0249 29.2316 38.8583 30.3982 37.8583C30.6782 37.6199 30.8966 37.3166 31.0316 36.9749C31.1703 36.5454 31.194 36.0871 31.1004 35.6455C31.0069 35.2039 30.7992 34.7946 30.4982 34.4583ZM29.7649 36.7083C29.7122 36.9173 29.6026 37.1077 29.4482 37.2583C29.2739 37.4599 29.0418 37.6031 28.7834 37.6684C28.5249 37.7337 28.2527 37.7181 28.0035 37.6235C27.7543 37.5289 27.5402 37.36 27.3902 37.1396C27.2402 36.9193 27.1615 36.6581 27.1649 36.3916C27.168 36.0928 27.2825 35.8059 27.4859 35.5871C27.6894 35.3682 27.9671 35.2332 28.2649 35.2083C28.4567 35.1856 28.6511 35.2101 28.8313 35.2799C29.0114 35.3496 29.1717 35.4623 29.2982 35.6083C29.4641 35.736 29.5942 35.9043 29.6759 36.097C29.7577 36.2897 29.7883 36.5003 29.7649 36.7083ZM32.5966 3.38327C32.2853 3.0051 31.8843 2.71089 31.4301 2.52749C30.976 2.34408 30.4831 2.27731 29.9966 2.33327C29.3073 2.46009 28.6919 2.84377 28.2745 3.4068C27.8572 3.96983 27.6691 4.67026 27.7482 5.36661C27.8149 5.79494 27.9749 6.20494 28.2149 6.56661C27.8305 6.78661 27.4749 7.04772 27.1482 7.34994C26.9807 7.48504 26.8538 7.66386 26.7816 7.86661C26.7816 8.14994 27.3316 8.61661 27.9816 8.16661C28.2816 7.88327 28.8316 7.58327 29.0816 7.29994C29.6284 7.51109 30.219 7.58354 30.8006 7.51083C31.3823 7.43813 31.9369 7.22253 32.4149 6.88327C32.6865 6.64096 32.8977 6.33845 33.0316 5.99994C33.2063 5.566 33.2583 5.09235 33.1819 4.63083C33.1054 4.16932 32.9019 3.73772 32.5966 3.38327ZM31.8482 5.59994C31.7975 5.80124 31.6939 5.98535 31.5482 6.13327C31.3755 6.34148 31.1421 6.49062 30.8806 6.55989C30.6191 6.62916 30.3425 6.61513 30.0893 6.51973C29.8362 6.42434 29.6191 6.25235 29.4683 6.02772C29.3175 5.8031 29.2406 5.53703 29.2482 5.26661C29.2554 4.96631 29.3735 4.6793 29.5797 4.46083C29.7858 4.24236 30.0655 4.10788 30.3649 4.08327C30.5566 4.06199 30.7506 4.08723 30.9305 4.15686C31.1104 4.22649 31.2708 4.33846 31.3982 4.48327C31.5637 4.61438 31.6921 4.78626 31.771 4.98204C31.8499 5.17783 31.8765 5.39076 31.8482 5.59994ZM37.7282 16.3466C37.2466 16.2918 36.759 16.3593 36.3104 16.5428C35.8618 16.7263 35.4666 17.02 35.1616 17.3966C34.9166 17.6916 34.7282 18.0299 34.6116 18.3966C34.3132 18.3966 33.8466 18.2466 33.2632 18.1633H32.4966C32.2524 18.1453 32.0073 18.1453 31.7632 18.1633C31.1466 18.2466 30.5632 18.4299 30.0966 18.5466C30.0291 18.5339 29.9597 18.5361 29.8933 18.5533C29.8269 18.5704 29.765 18.602 29.7122 18.6458C29.6594 18.6895 29.6168 18.7444 29.5876 18.8065C29.5584 18.8686 29.5433 18.9363 29.5432 19.0049C29.5432 19.0737 29.5584 19.1417 29.5877 19.2039C29.617 19.2661 29.6597 19.3211 29.7127 19.3649C29.7658 19.4087 29.8278 19.4402 29.8945 19.4572C29.9611 19.4742 30.0307 19.4763 30.0982 19.4633C30.6316 19.5799 31.1982 19.7633 31.7649 19.8633C32.2582 19.9188 32.7527 19.9188 33.2482 19.8633L34.5466 19.6633C34.5466 19.7799 34.5466 19.9133 34.6299 20.0466C34.7699 20.3849 34.9866 20.6866 35.2632 20.9299C36.4466 21.9299 39.6132 22.0966 39.9799 19.4133C40.068 18.7114 39.8839 18.0024 39.4654 17.432C39.047 16.8616 38.4259 16.4732 37.7299 16.3466M36.2299 20.1466C36.0674 20.0025 35.9563 19.8095 35.9132 19.5966C35.881 19.3897 35.9058 19.1778 35.9851 18.984C36.0644 18.7901 36.1952 18.6216 36.3632 18.4966C36.4897 18.3507 36.6501 18.2379 36.8302 18.1682C37.0103 18.0985 37.2048 18.0739 37.3966 18.0966C37.6959 18.1212 37.9756 18.2557 38.1818 18.4742C38.388 18.6926 38.506 18.9796 38.5132 19.2799C38.5166 19.5465 38.438 19.8076 38.288 20.0279C38.138 20.2483 37.9239 20.4172 37.6746 20.5118C37.4254 20.6064 37.1532 20.6221 36.8948 20.5568C36.6363 20.4914 36.4042 20.3483 36.2299 20.1466ZM10.6532 20.4133C10.7623 20.4192 10.8697 20.3852 10.9556 20.3178C11.0414 20.2503 11.0998 20.1539 11.1199 20.0466C11.12 19.9257 11.0731 19.8094 10.9892 19.7224C10.9052 19.6353 10.7907 19.5843 10.6699 19.5799C10.0532 19.4633 9.40323 19.2633 8.70323 19.1633H7.01989C6.35323 19.1633 5.80323 19.3133 5.45323 19.3633C5.34638 18.9231 5.14125 18.5128 4.85323 18.1633C4.54392 17.7885 4.14542 17.4975 3.69433 17.317C3.24323 17.1364 2.754 17.0721 2.27156 17.1299C1.60246 17.2549 1.00233 17.6206 0.584654 18.1581C0.166982 18.6955 -0.0392742 19.3674 0.00489276 20.0466C0.388226 22.7466 3.53823 22.5633 4.72156 21.5799C4.9969 21.3307 5.21325 21.0233 5.35489 20.6799V20.4633C5.87267 20.5777 6.39489 20.6666 6.92156 20.7299C7.21045 20.7466 7.49934 20.7466 7.78823 20.7299C8.066 20.7466 8.34378 20.7466 8.62156 20.7299C9.38656 20.6966 10.0032 20.5299 10.6532 20.4133ZM4.10323 20.2799C4.04773 20.483 3.93831 20.6673 3.78656 20.8133C3.61208 21.0143 3.38011 21.1569 3.12199 21.2218C2.86386 21.2868 2.59202 21.2709 2.3432 21.1764C2.09438 21.0819 1.88056 20.9133 1.73064 20.6933C1.58072 20.4734 1.50192 20.2128 1.50489 19.9466C1.51308 19.7007 1.59462 19.4629 1.73905 19.2637C1.88347 19.0645 2.08417 18.913 2.31534 18.8288C2.54651 18.7446 2.79759 18.7314 3.0363 18.791C3.27501 18.8506 3.49044 18.9803 3.65489 19.1633C3.81665 19.2975 3.94248 19.4698 4.02104 19.6647C4.0996 19.8597 4.12842 20.0711 4.10489 20.2799" fill="#969DA4"/>
<path d="M20.4167 26.2615C20.5237 26.3042 20.643 26.3042 20.75 26.2615C21.8834 25.8865 22.9167 25.2665 23.7834 24.4449C24.4034 23.8549 24.8467 23.1049 25.0667 22.2782C25.2089 21.6671 25.32 21.0504 25.4 20.4282C25.5 19.5282 25.5667 18.6115 25.65 17.7282C25.7167 17.226 25.75 16.721 25.75 16.2132C25.7165 15.8083 25.6091 15.4129 25.4334 15.0465C25.2513 14.7475 25.0091 14.4894 24.7223 14.2886C24.4354 14.0878 24.11 13.9486 23.7667 13.8799C22.5938 13.7288 21.4063 13.7288 20.2334 13.8799C19.4667 13.8799 18.6667 13.8799 17.8834 13.9799C17.5167 13.9799 17.15 13.9799 16.8 14.1299C16.452 14.1937 16.1118 14.2942 15.785 14.4299C15.476 14.566 15.2066 14.7782 15.0017 15.0465C14.8073 15.3745 14.6772 15.7365 14.6184 16.1132C14.5517 16.7832 14.5517 17.4599 14.6184 18.1299L14.785 20.0465C14.83 20.7299 14.935 21.4132 15.1017 22.0799C15.2467 22.5599 15.4984 23.0049 15.835 23.3782C16.2972 23.8671 16.7917 24.3227 17.3184 24.7449C18.0928 25.3438 18.8984 25.8993 19.735 26.4115C19.785 26.4454 19.8414 26.4688 19.9006 26.4805C19.9599 26.4921 20.0209 26.4917 20.08 26.4792C20.1391 26.4668 20.1951 26.4426 20.2446 26.408C20.2942 26.3735 20.3362 26.3294 20.3684 26.2782C20.3684 26.2782 20.4017 26.2949 20.4184 26.2615M20.085 25.5949C19.3684 25.0827 18.685 24.5271 18.035 23.9282C17.5715 23.531 17.1473 23.0901 16.7684 22.6115C16.5677 22.3462 16.4308 22.0383 16.3684 21.7115C16.2802 21.0986 16.2301 20.4807 16.2184 19.8615V16.7799C16.2234 16.4888 16.2977 16.2032 16.435 15.9465L17.1017 15.7632L18.0017 15.6465H20.3184C21.2095 15.5299 22.1039 15.4799 23.0017 15.4965C23.4184 15.4965 23.8017 15.4965 23.985 15.8465C24.0992 16.0679 24.1565 16.3142 24.1517 16.5632V17.6465C24.1517 18.5465 24.1517 19.4465 24.035 20.3465C24.035 20.9132 23.935 21.4965 23.835 22.0132C23.6398 22.7765 23.2081 23.4585 22.6017 23.9615C21.9684 24.5282 21.2417 24.9782 20.4517 25.2949C20.3711 25.312 20.2957 25.3482 20.2319 25.4004C20.1682 25.4526 20.1178 25.5193 20.085 25.5949Z" fill="#969DA4"/>
</g>
<defs>
<clipPath id="clip0_1597_2222">
<rect width="40" height="40" fill="white"/>
</clipPath>
</defs>
</svg>
