<svg width="48" height="48" viewBox="0 0 48 48" fill="none" xmlns="http://www.w3.org/2000/svg">
<path d="M35.1785 34.5421C35.4729 32.0922 35.3848 31.7326 37.2095 32.1297L37.6727 32.1702C39.0759 32.2339 40.9115 31.9444 41.99 31.4434C44.3117 30.3661 45.6879 28.5679 43.3993 29.0401C38.1778 30.1174 37.8189 28.3493 37.8189 28.3493C43.3325 20.1687 45.6373 9.7838 43.6475 7.24168C38.2213 0.308302 28.8287 3.58693 28.6715 3.67168L28.6213 3.68105C27.5897 3.46693 26.435 3.33905 25.1379 3.31805C22.775 3.27905 20.9822 3.93755 19.622 4.9688C19.622 4.9688 2.8659 -1.93457 3.64553 13.6504C3.81128 16.9658 8.39753 38.7372 13.868 32.1612C15.8675 29.7567 17.7995 27.7234 17.7995 27.7234C18.7588 28.3606 19.9078 28.6861 21.1123 28.5691L21.2057 28.4896C21.1764 28.7881 21.1892 29.0802 21.2428 29.4259C19.8339 31.0006 20.2479 31.2769 17.4305 31.8567C14.5798 32.4439 16.2545 33.4898 17.3477 33.7632C18.6733 34.0947 21.7397 34.5642 23.8119 31.6639L23.7294 31.9947C24.2822 32.4372 24.245 35.1736 24.323 37.1284C24.4014 39.0837 24.5323 40.9081 24.9309 41.9839C25.3295 43.0598 25.7998 45.8299 29.5025 45.0364C32.597 44.3749 34.9629 43.4206 35.1785 34.5421Z" fill="black" fill-opacity="0.1"/>
<path d="M28.2971 46.9712C26.6594 46.9712 25.5929 46.3378 24.9453 45.7262C23.9677 44.8037 23.5799 43.6153 23.3482 42.9054L23.2481 42.6092C22.7816 41.3499 22.6233 39.5368 22.5296 37.2021C22.5153 36.8514 22.5056 36.4903 22.4947 36.1074C22.4868 35.8273 22.4771 35.4759 22.4628 35.1084C21.8728 35.3897 21.2466 35.5876 20.6021 35.6964C19.4474 35.8937 18.2062 35.8299 16.9121 35.5063C15.9989 35.2779 15.0502 34.8047 14.5094 34.0738C12.9333 35.4542 11.4299 35.2671 10.6109 34.9937C9.16606 34.5118 7.87306 33.1577 6.65769 30.8548C5.79181 29.2142 4.95444 27.0767 4.16844 24.5012C2.79969 20.0162 1.93006 15.2923 1.85281 13.7413C1.60981 8.88693 2.91669 5.41517 5.73631 3.42355C10.1842 0.281799 16.9233 2.12942 19.3803 2.9683C21.0311 1.97342 22.9732 1.4893 25.1677 1.52417C26.3463 1.5433 27.4687 1.6468 28.5112 1.8328C29.5987 1.4908 31.7467 0.999924 34.2056 1.03067C38.7359 1.08467 42.4901 2.85017 45.0614 6.1363C46.8967 8.4808 45.9892 13.4042 45.2853 16.1304C44.2946 19.9652 42.5587 24.0437 40.4264 27.5942C41.0054 27.5983 41.8443 27.5289 43.0368 27.2826C45.3896 26.7969 46.0777 28.0584 46.2644 28.6232C47.0126 30.8889 43.7606 32.6012 42.7462 33.0722C41.4464 33.6756 39.3273 34.0431 37.5918 33.9636L37.5161 33.9587L37.0601 33.9186L37.0151 34.2988L36.9716 34.6704C36.8549 39.1701 36.2122 42.0197 34.8896 43.9026C33.5032 45.8766 31.5764 46.4297 29.8792 46.7934C29.3002 46.9172 28.7741 46.9712 28.2971 46.9712ZM24.8508 30.5946C25.9079 31.4406 26.0006 33.0324 26.0834 36.0073C26.0939 36.3786 26.1037 36.7299 26.1168 37.0581C26.1566 38.0518 26.2499 40.3787 26.6144 41.3619C26.6658 41.5011 26.7119 41.6421 26.7607 41.7917C27.1668 43.0352 27.3704 43.6588 29.1266 43.2834C30.6007 42.9673 31.3586 42.6838 31.9518 41.8393C32.8139 40.6116 33.2962 38.1418 33.3847 34.4987L35.1783 34.5422L33.3971 34.3284L33.4496 33.8837C33.6202 32.4174 33.7432 31.3584 34.7231 30.6579C35.5094 30.0962 36.4053 30.1506 37.1189 30.2792C36.3348 29.6867 36.1181 28.9918 36.0603 28.7068L35.9107 27.9699L36.3311 27.3463C38.7524 23.7538 40.7489 19.3386 41.8094 15.2323C42.8992 11.0132 42.5669 8.77255 42.2347 8.3488C37.8363 2.72867 30.2092 5.04917 29.4127 5.31242L29.2781 5.38517L28.6031 5.5108L28.2573 5.43917C27.3041 5.24117 26.2451 5.13167 25.1099 5.1133C23.3264 5.0833 21.8876 5.5048 20.7078 6.39992L19.8892 7.02055L18.9393 6.62942C16.9098 5.79955 10.9488 4.13117 7.80331 6.35905C6.05731 7.5958 5.26194 10.0191 5.43894 13.5617C5.49744 14.7313 6.29206 19.1589 7.60306 23.4531C9.41469 29.3874 11.0609 31.3588 11.7483 31.5879C11.8683 31.6284 12.1796 31.3866 12.4893 31.0146C13.7809 29.4664 15.1182 27.9569 16.4996 26.4883L17.5383 25.3952L18.7942 26.2296C19.3004 26.5659 19.8588 26.7568 20.4322 26.7928L23.4273 24.2383L22.9934 28.6663C22.9837 28.7657 22.9788 28.9011 23.0178 29.1523L23.1483 29.9916L22.5821 30.6246L22.5168 30.6981L24.1623 31.4574L24.8508 30.5946Z" fill="black" fill-opacity="0.1"/>
<path d="M43.3994 29.0402C38.1775 30.1175 37.8186 28.3494 37.8186 28.3494C43.3323 20.1684 45.637 9.78316 43.648 7.24178C38.2218 0.308784 28.8284 3.58741 28.6716 3.67253L28.621 3.68153C27.5894 3.46741 26.4348 3.33991 25.1369 3.31891C22.774 3.28028 20.9819 3.93841 19.6218 4.96966C19.6218 4.96966 2.86527 -1.93334 3.64452 13.6513C3.81027 16.967 8.39652 38.7384 13.867 32.1624C15.8665 29.7579 17.7981 27.7247 17.7981 27.7247C18.7578 28.3618 19.9064 28.6873 21.1105 28.5703L21.2043 28.4908C21.175 28.7893 21.1885 29.0814 21.2418 29.4272C19.8325 31.0018 20.2465 31.2782 17.4291 31.8579C14.5784 32.4452 16.2531 33.491 17.3466 33.7644C18.6719 34.0959 21.7386 34.5654 23.8105 31.6652L23.7276 31.9959C24.28 32.4384 24.6678 34.8729 24.6029 37.0798C24.538 39.2867 24.4941 40.802 24.9295 41.9855C25.3645 43.169 25.798 45.8315 29.5015 45.038C32.596 44.375 34.1995 42.6564 34.423 39.7899C34.5813 37.7518 34.9394 38.0533 34.9623 36.2312L35.2499 35.3687C35.5814 32.606 35.3024 31.715 37.2093 32.1294L37.6724 32.1699C39.0756 32.2337 40.912 31.9442 41.9902 31.4432C44.3114 30.3665 45.688 28.568 43.3994 29.0402Z" fill="#336791"/>
<path d="M28.4835 45.8651C25.3965 45.8651 24.4185 43.4205 24.0184 42.4207C23.4326 40.9556 23.3062 35.2699 23.4367 30.6071C23.4387 30.5285 23.4562 30.451 23.4882 30.3791C23.5202 30.3073 23.5661 30.2425 23.6233 30.1885C23.6804 30.1344 23.7477 30.0923 23.8213 30.0643C23.8948 30.0364 23.9731 30.0234 24.0517 30.0259C24.1303 30.028 24.2076 30.0456 24.2794 30.0776C24.3511 30.1097 24.4158 30.1556 24.4698 30.2127C24.5238 30.2697 24.566 30.3369 24.594 30.4103C24.622 30.4837 24.6352 30.5619 24.633 30.6405C24.4826 36.0184 24.696 40.8918 25.1295 41.9763C25.806 43.6672 26.832 45.1462 29.7326 44.5249C32.4862 43.9342 33.5175 42.8902 33.9769 40.2274C34.3294 38.184 35.0265 32.3707 35.1124 31.2236C35.1181 31.1452 35.1393 31.0687 35.1746 30.9985C35.21 30.9283 35.2589 30.8658 35.3184 30.8145C35.378 30.7632 35.4471 30.7242 35.5218 30.6997C35.5965 30.6752 35.6752 30.6656 35.7536 30.6716C35.9118 30.6836 36.0588 30.7578 36.1622 30.8781C36.2657 30.9983 36.3173 31.1547 36.3056 31.3129C36.216 32.5072 35.5222 38.3092 35.1562 40.431C34.614 43.5761 33.2119 45.0026 29.9835 45.6949C29.4349 45.8122 28.9365 45.8647 28.4835 45.8651ZM11.745 33.9247C11.4752 33.9239 11.2072 33.8796 10.9515 33.7935C8.94637 33.1245 7.03649 29.859 5.27474 24.0866C3.93374 19.6927 3.08399 15.1065 3.00937 13.6158C2.78849 9.19685 3.92624 6.07048 6.39187 4.3241C11.2695 0.8681 19.4749 4.1591 19.8217 4.30085C19.9687 4.36087 20.0858 4.47681 20.1472 4.62316C20.2087 4.76951 20.2095 4.93428 20.1495 5.08123C20.0895 5.22817 19.9735 5.34526 19.8272 5.40672C19.6808 5.46819 19.5161 5.469 19.3691 5.40898C19.29 5.37672 11.4217 2.22448 7.08112 5.3021C4.97287 6.79685 4.00499 9.5741 4.20412 13.5562C4.26674 14.8121 5.06062 19.2881 6.41887 23.7371C7.99162 28.8904 9.78149 32.142 11.3299 32.6583C11.5729 32.7393 12.3124 32.9857 13.3695 31.7145C14.6022 30.2339 15.8812 28.7924 17.2046 27.3922C17.3153 27.2818 17.4649 27.2191 17.6213 27.2175C17.7777 27.2159 17.9285 27.2757 18.0414 27.3839C18.1543 27.4921 18.2204 27.6402 18.2255 27.7965C18.2306 27.9528 18.1743 28.1049 18.0686 28.2202C18.0506 28.239 16.251 30.1203 14.2897 32.4799C13.3609 33.597 12.4706 33.9247 11.745 33.9247ZM37.7809 28.8829C37.6724 28.8827 37.566 28.8531 37.473 28.7971C37.3801 28.7412 37.3041 28.6611 37.2532 28.5653C37.2023 28.4695 37.1783 28.3617 37.184 28.2533C37.1896 28.145 37.2246 28.0402 37.2851 27.9502C42.8587 19.6796 44.8151 9.68623 43.1396 7.54498C41.0306 4.85023 38.0527 3.44285 34.2881 3.36147C31.5007 3.30148 29.2852 4.01323 28.923 4.13735L28.8319 4.17448C28.4677 4.28885 28.1884 4.08935 28.083 3.8561C28.0229 3.72246 28.0138 3.57146 28.0574 3.43157C28.101 3.29168 28.1943 3.17258 28.3196 3.09673C28.3369 3.0866 28.3916 3.06335 28.4805 3.03073C29.0959 2.80535 31.3451 2.13035 34.131 2.16223C38.2965 2.20648 41.7375 3.8126 44.0812 6.80772C45.1901 8.22485 45.1927 11.4896 44.0884 15.7654C42.9626 20.1247 40.8442 24.8096 38.277 28.6192C38.1622 28.7906 37.9732 28.8829 37.7809 28.8829ZM38.0659 32.7116C37.1141 32.7116 36.261 32.5774 35.7502 32.2714C35.2252 31.9567 35.1251 31.5292 35.112 31.3024C34.9687 28.7861 36.357 28.3481 37.065 28.1482C36.9664 27.999 36.8261 27.8235 36.681 27.6423C36.2681 27.1264 35.7026 26.4199 35.2669 25.3631C35.1986 25.1981 34.9849 24.8145 34.7374 24.3701C33.3952 21.9634 30.6026 16.9552 32.3966 14.3906C33.2269 13.2037 34.8802 12.7365 37.3162 12.9971C36.5996 10.8139 33.1871 3.98435 25.0897 3.8516C22.6545 3.8111 20.6572 4.55998 19.1565 6.07535C15.7965 9.46873 15.918 15.6086 15.9199 15.6701C15.9219 15.7486 15.9085 15.8268 15.8804 15.9002C15.8522 15.9736 15.8099 16.0406 15.7558 16.0977C15.7017 16.1547 15.637 16.2004 15.5652 16.2324C15.4934 16.2644 15.416 16.2819 15.3375 16.284C15.2589 16.286 15.1808 16.2726 15.1074 16.2445C15.034 16.2163 14.9669 16.174 14.9099 16.1199C14.8529 16.0658 14.8071 16.0011 14.7752 15.9293C14.7432 15.8575 14.7257 15.7801 14.7236 15.7016C14.7161 15.429 14.5909 8.98572 18.3064 5.2331C20.0452 3.47697 22.3342 2.60998 25.1096 2.65535C30.2899 2.74048 33.6244 5.3741 35.5091 7.56822C37.5637 9.9596 38.571 12.5974 38.6539 13.4779C38.7157 14.1326 38.2459 14.2635 38.151 14.283L37.935 14.2879C35.5444 13.905 34.0106 14.1709 33.3765 15.0769C32.0119 17.0272 34.6537 21.7646 35.7817 23.7877C36.0697 24.3037 36.2775 24.6768 36.3727 24.9071C36.7432 25.8056 37.2266 26.4094 37.6147 26.8946C37.9564 27.3214 38.2522 27.6915 38.358 28.1257C38.4071 28.212 39.1042 29.2432 43.2409 28.3894C44.2777 28.1756 44.8995 28.3582 45.0896 28.9331C45.4635 30.0637 43.3657 31.3826 42.2044 31.9219C41.1637 32.4056 39.5029 32.7116 38.0659 32.7116ZM36.3049 31.2037C36.4361 31.3361 37.0927 31.5645 38.4525 31.506C39.6615 31.4542 40.9365 31.1914 41.7015 30.8362C42.6799 30.3817 43.3331 29.8736 43.6714 29.5267L43.4839 29.5612C40.839 30.1072 38.9681 30.0345 37.9234 29.3449C37.8531 29.2986 37.7855 29.2483 37.7209 29.1945C37.6076 29.2391 37.503 29.2684 37.4284 29.2894C36.8359 29.4555 36.2231 29.6276 36.3049 31.2037ZM19.2191 34.5469C18.5621 34.5469 17.8706 34.4572 17.1645 34.2806C16.4329 34.0976 15.1995 33.5467 15.2182 32.6418C15.2396 31.6267 16.716 31.3222 17.2717 31.2079C19.2795 30.7942 19.4104 30.6285 20.0377 29.8316C20.2207 29.5995 20.4484 29.3104 20.7589 28.9639C21.2197 28.4479 21.7234 28.1865 22.2559 28.1865C22.6267 28.1865 22.9309 28.3121 23.1319 28.3957C23.7724 28.6612 24.3067 29.3032 24.5265 30.0709C24.7249 30.7635 24.63 31.4302 24.2602 31.9481C23.0464 33.648 21.303 34.5469 19.2191 34.5469ZM16.5109 32.6932C16.6912 32.8327 17.0527 33.0191 17.4551 33.1196C18.0667 33.2726 18.66 33.3502 19.2195 33.3502C20.9242 33.3502 22.293 32.6445 23.2871 31.2525C23.4945 30.9622 23.4322 30.5936 23.3767 30.3997C23.2605 29.9936 22.9717 29.6242 22.6744 29.5009C22.5131 29.4341 22.3792 29.3831 22.2562 29.3831C22.1902 29.3831 21.9892 29.3831 21.651 29.7615C21.4175 30.024 21.1932 30.2944 20.9782 30.5722C20.1967 31.5645 19.8386 31.9012 17.5136 32.3801C16.9462 32.4964 16.6552 32.6149 16.5109 32.6932ZM21.1117 29.9332C20.9689 29.933 20.8309 29.8817 20.7225 29.7886C20.6142 29.6955 20.5428 29.5667 20.5211 29.4255C20.5061 29.3262 20.4961 29.2262 20.4911 29.1259C18.9671 29.0974 17.4967 28.4433 16.3804 27.2786C14.9689 25.806 14.3265 23.7656 14.6182 21.681C14.9351 19.4171 14.8166 17.4187 14.7529 16.3451C14.7352 16.0466 14.7225 15.831 14.7232 15.6817C14.7244 15.4923 14.7281 14.9902 16.4066 14.1394C17.0036 13.8367 18.2006 13.3087 19.5082 13.1734C21.6746 12.9495 23.1026 13.9143 23.5301 15.8906C24.684 21.2261 23.6216 23.586 22.8457 25.3095C22.7014 25.6305 22.5649 25.9335 22.4557 26.2271L22.3594 26.4859C21.9495 27.585 21.5951 28.5345 21.7039 29.2436C21.7158 29.3213 21.7123 29.4005 21.6936 29.4768C21.6749 29.5532 21.6414 29.625 21.5949 29.6884C21.5484 29.7517 21.4899 29.8053 21.4227 29.846C21.3555 29.8867 21.2809 29.9138 21.2032 29.9257L21.1117 29.9332ZM15.9236 15.8475L15.9469 16.2746C16.0129 17.3898 16.1359 19.4651 15.8029 21.8471C15.5625 23.5665 16.0875 25.2446 17.244 26.4506C18.1579 27.4039 19.3605 27.93 20.5965 27.93H20.622C20.7604 27.3469 20.9902 26.7311 21.2377 26.0677L21.3334 25.8105C21.4567 25.479 21.6011 25.158 21.7541 24.8182C22.5007 23.1592 23.4304 21.0941 22.3597 16.1437C22.1479 15.1631 21.6337 14.5957 20.7889 14.4086C19.0534 14.0253 16.467 15.3307 15.9236 15.8475ZM19.5349 15.5936C19.5049 15.8051 19.9222 16.3699 20.4667 16.4452C21.0101 16.5213 21.4751 16.0796 21.5047 15.8681C21.5344 15.6566 21.1174 15.4233 20.5729 15.3476C20.0284 15.2718 19.5637 15.3821 19.5349 15.5936ZM20.5916 16.6533L20.439 16.6428C20.1015 16.596 19.7602 16.3833 19.5266 16.0736C19.4445 15.9648 19.3106 15.7541 19.3372 15.5658C19.3751 15.2898 19.7119 15.1245 20.2372 15.1245C20.3546 15.1245 20.4769 15.1331 20.5999 15.1504C20.8871 15.1901 21.1537 15.273 21.3506 15.3828C21.6919 15.5733 21.717 15.786 21.7016 15.8958C21.6596 16.2007 21.1747 16.6533 20.5916 16.6533ZM19.7332 15.6288C19.7501 15.7593 20.0734 16.1898 20.4941 16.248L20.592 16.2547C20.9805 16.2547 21.2707 15.9491 21.3049 15.849C21.2689 15.7807 21.0191 15.6112 20.5455 15.5452C20.4435 15.5308 20.3406 15.5234 20.2376 15.5231C19.9331 15.5231 19.7715 15.5917 19.7332 15.6288ZM36.0851 15.162C36.1147 15.3735 35.6977 15.9382 35.1536 16.014C34.6099 16.0897 34.1445 15.6483 34.1145 15.4368C34.086 15.2254 34.503 14.9917 35.0467 14.9163C35.5905 14.8402 36.0551 14.9508 36.0851 15.162ZM35.028 16.122C34.5045 16.122 34.0526 15.7147 34.0155 15.4503C33.9724 15.1331 34.4947 14.892 35.0325 14.8174C35.151 14.8008 35.2684 14.7926 35.3812 14.7926C35.8455 14.7926 36.153 14.9287 36.1837 15.1485C36.2036 15.2906 36.0945 15.51 35.9066 15.708C35.7825 15.8381 35.5219 16.0635 35.1667 16.1126L35.028 16.122ZM35.3816 14.9921C35.2776 14.9921 35.1706 14.9997 35.0606 15.015C34.5202 15.0904 34.1977 15.3071 34.2135 15.4234C34.2315 15.5512 34.5765 15.9228 35.0284 15.9228L35.1397 15.915C35.4349 15.8741 35.6565 15.6813 35.7622 15.5703C35.9284 15.396 35.9944 15.2317 35.9865 15.1758C35.976 15.1016 35.7765 14.9921 35.3816 14.9921ZM36.8685 27.3082C36.7601 27.3083 36.6537 27.2789 36.5607 27.2231C36.4678 27.1674 36.3917 27.0874 36.3407 26.9917C36.2897 26.8961 36.2657 26.7883 36.2712 26.6801C36.2767 26.5718 36.3115 26.4671 36.372 26.3771C37.6462 24.474 37.413 22.5333 37.1876 20.6565C37.0912 19.857 36.9922 19.0301 37.0177 18.2366C37.044 17.4202 37.1479 16.7467 37.248 16.0954C37.3669 15.3236 37.4794 14.5946 37.4329 13.7291C37.4286 13.6507 37.4399 13.5721 37.466 13.498C37.4921 13.4239 37.5326 13.3557 37.585 13.2972C37.6375 13.2388 37.701 13.1912 37.7718 13.1573C37.8427 13.1234 37.9195 13.1037 37.998 13.0995C38.0764 13.0952 38.155 13.1065 38.2291 13.1326C38.3032 13.1587 38.3714 13.1992 38.4298 13.2516C38.5479 13.3576 38.6191 13.5062 38.6276 13.6646C38.6809 14.6539 38.5537 15.4788 38.4307 16.2772C38.3359 16.8933 38.2376 17.5305 38.214 18.2749C38.1911 18.9776 38.2807 19.7239 38.3756 20.5136C38.6156 22.5093 38.8875 24.7714 37.3665 27.0427C37.3116 27.1244 37.2375 27.1914 37.1507 27.2377C37.0638 27.284 36.9669 27.3082 36.8685 27.3082Z" fill="white"/>
</svg>
