<svg width="226" height="232" viewBox="0 0 226 232" fill="none" xmlns="http://www.w3.org/2000/svg">
<path d="M167.177 8.88853V207.984C167.177 210.961 164.631 211.686 161.742 211.876L61.1067 220.408L59.5578 220.511C56.3771 220.721 53.7681 218.328 53.7681 215.193V5.52907C53.7681 2.39372 56.3772 -0.0877084 59.5578 0.0145236L61.6597 0.0821091L162.64 7.80362C165.529 7.89451 167.177 5.91121 167.177 8.88853Z" fill="url(#paint0_linear_636_26078)"/>
<path d="M170.257 8.88425V207.884C170.257 210.859 167.901 213.45 165.015 213.641L62.7421 220.403C59.5645 220.613 56.958 218.221 56.958 215.087V5.5263C56.958 2.39247 59.5645 -0.0877069 62.7421 0.0145251L165.015 3.30488C167.901 3.39765 170.257 5.90827 170.257 8.88425Z" fill="url(#paint1_linear_636_26078)"/>
<path d="M167.044 19.8352V204.276C167.044 207.055 164.819 209.471 162.121 209.645L65.9473 215.815C62.992 216.003 60.5615 213.769 60.5615 210.851V17.2295C60.5615 15.2942 61.622 13.6203 63.2026 12.7366C64.0063 12.2859 64.9393 12.0417 65.9343 12.0667L162.122 14.6484C164.82 14.7218 167.044 17.0534 167.044 19.8352Z" fill="url(#paint2_linear_636_26078)"/>
<path d="M116.97 7.91717C116.97 8.97449 116.12 9.80744 115.072 9.77753C114.022 9.74762 113.17 8.86476 113.17 7.80557C113.17 6.74637 114.022 5.91352 115.072 5.94521C116.12 5.97709 116.97 6.85985 116.97 7.91717Z" fill="#DE8BDF"/>
<path opacity="0.6" d="M167.044 190.17V204.276C167.044 207.054 164.819 209.471 162.121 209.645L65.9473 215.814C62.992 216.002 60.5615 213.769 60.5615 210.851V17.2292C60.5615 15.2939 61.622 13.6201 63.2026 12.7363C71.1521 15.3528 94.3478 27.821 96.2051 84.8068C98.028 140.629 154.913 153.027 167.044 190.17Z" fill="white"/>
<path d="M81.218 12.7362L88.0417 19.2455L92.2301 53.1278L81.218 78.0595L79.2683 148.099L84.4673 80.4175L96.1652 54.6638L92.2659 15.9961L89.3341 12.6943L81.218 12.7362Z" fill="white"/>
<path d="M92.591 62.4785H101.364L106.997 82.2917L120.253 90.7362L118.119 113.945V92.1402L105.004 84.3416L99.258 65.5493L87.7468 65.3949L92.591 62.4785Z" fill="white"/>
<path d="M73.344 226.307C73.4364 226.368 75.1201 228.646 75.8816 230.135L77.9759 229.01C77.9759 229.01 76.7953 228.589 76.2019 226.307C75.6084 224.024 73.344 226.307 73.344 226.307Z" fill="url(#paint3_linear_636_26078)"/>
<path d="M78.849 231.499C78.849 231.499 77.5361 231.943 76.9898 231.982L76.9346 231.987C76.6256 232.009 76.326 231.873 76.1408 231.625C75.8181 231.192 75.3515 230.536 75.3427 230.353C75.3292 230.072 76.0871 229.497 76.7626 229.247C77.4382 228.998 77.5965 228.664 78.8489 227.663C80.1012 226.663 82.2172 225.475 83.2081 226.389C84.1989 227.304 83.2838 229.582 78.849 231.499Z" fill="url(#paint4_linear_636_26078)"/>
<path d="M82.4826 226.534C81.3944 226.967 81.0663 228.192 79.1786 229.434C78.1071 230.139 76.7861 230.787 75.8436 231.215C75.5895 230.855 75.3495 230.484 75.3432 230.353C75.3297 230.072 76.0876 229.497 76.7631 229.247C77.4386 228.998 77.597 228.664 78.8494 227.663C80.1017 226.663 82.2177 225.475 83.2085 226.389C83.461 226.622 83.5887 226.944 83.567 227.326C83.3713 226.798 83.0364 226.313 82.4826 226.534Z" fill="url(#paint5_linear_636_26078)"/>
<path d="M76.8633 225.767C76.1257 226.07 75.388 226.375 74.6504 226.68C74.1857 226.872 73.7211 227.064 73.2564 227.256C70.8941 225.751 67.4302 223.1 64.8763 218.801C60.6911 211.75 63.6447 208.175 60.2427 199.697C56.9413 191.48 52.7626 191.343 49.1396 182.404C48.6163 181.111 48.1906 179.85 47.843 178.632C46.764 174.827 46.462 171.47 46.3904 169.078C51.2191 167.633 59.2753 166.186 64.1039 164.74C67.4703 171.509 67.6738 179.642 70.5074 189.069C74.7285 203.109 76.3465 215.743 76.8633 225.767Z" fill="url(#paint6_linear_636_26078)"/>
<path d="M74.6505 226.68C74.1858 226.872 73.7212 227.064 73.2565 227.256C70.8942 225.751 67.4302 223.1 64.8763 218.801C60.6911 211.75 63.6448 208.175 60.2427 199.697C56.9413 191.48 52.7627 191.343 49.1396 182.404C48.6163 181.111 48.1907 179.85 47.843 178.632C48.9673 177.101 49.8057 175.974 49.8057 175.974C49.8057 175.974 58.8748 176.948 60.3532 186.914C61.8285 196.88 66.5497 195.067 68.4376 204.568C69.9193 212.035 72.9706 222.112 74.6505 226.68Z" fill="url(#paint7_linear_636_26078)"/>
<path d="M29.1495 82.3821L29.0013 86.7346C28.9579 88.0117 29.9822 88.9996 31.2884 88.9413L33.6621 88.8355C33.8888 90.9045 34.3434 92.8916 35.0035 94.7729L32.9984 95.9756C31.8468 96.6662 31.4114 98.097 32.0264 99.1709L34.1208 102.828C34.7346 103.899 37.6987 104.537 38.8472 103.844L39.2092 102.37C40.4786 103.956 41.9319 105.387 43.5401 106.635L42.4428 108.45C41.757 109.584 42.0939 110.972 43.1947 111.55L46.9414 113.515C48.0388 114.091 51.6017 114.181 52.2842 113.048L51.2148 110.764C53.1602 111.428 55.2151 111.88 57.3525 112.097L57.2869 114.025C57.2438 115.291 58.2496 116.26 59.5325 116.192L63.8977 115.958C65.176 115.89 66.2464 114.812 66.2894 113.55L66.3549 111.627C68.4997 111.188 70.5727 110.524 72.5462 109.661L73.4684 111.29C74.0667 112.347 77.7407 112.891 78.8612 112.204L80.3949 109.623C81.5119 108.938 81.9345 107.528 81.3392 106.473L80.3858 104.783C82.0445 103.387 83.5607 101.829 84.9052 100.137L86.6764 101.085C87.7464 101.658 90.916 101.951 91.5822 100.835L92.0887 96.3021C92.7537 95.1883 92.4281 93.8202 91.3612 93.2454L89.4998 92.2424C90.2644 90.3283 90.8363 88.3298 91.1931 86.2719L93.479 86.17C94.7339 86.1141 95.7851 85.0554 95.8277 83.8048L95.9728 79.5429C96.0154 78.2924 95.0333 77.3214 93.7785 77.3739L91.3583 77.4749C91.083 75.4958 90.5972 73.5958 89.9219 71.7962L92.137 70.4609C93.2463 69.7919 93.6661 68.3916 93.0751 67.332L93.4965 63.0969C92.9045 62.0354 89.0853 62.3356 87.9731 63.0027L85.642 64.4008C84.431 62.9371 83.0599 61.6102 81.5519 60.4422L82.9876 58.0607C83.6566 56.9511 83.329 55.5736 82.2553 54.9836L80.6584 52.673C79.5815 52.0812 76.0944 52.7979 75.4223 53.9096L73.9466 56.3499C72.1472 55.7329 70.2523 55.2944 68.281 55.058L68.3762 52.2641C68.4192 51.0024 67.4192 50.0136 66.1418 50.0555L61.7796 50.1985C60.4976 50.2405 59.4227 51.3002 59.3796 52.5657L59.2842 55.3674C57.2784 55.7417 55.3309 56.3155 53.4634 57.064L54.3302 54.1082C53.7229 53.0317 50.1087 53.2991 48.9688 53.9714L45.077 56.2669C43.9336 56.9413 43.5011 58.3628 44.1116 59.4407L45.42 61.7515C43.791 63.0484 42.2883 64.4989 40.9386 66.079L41.0371 64.5984C39.9326 64.0034 36.0703 64.6709 35.3814 65.799L33.0314 69.6476C32.3414 70.7778 32.6804 72.1751 33.7883 72.7685L35.9958 73.9502C35.1691 75.8421 34.5312 77.8221 34.1064 79.8662L31.5935 79.9712C30.2878 80.0257 29.1929 81.105 29.1495 82.3821ZM45.257 84.2978C45.5831 74.7216 53.7353 66.6599 63.4118 66.2934C73.0297 65.9291 80.5223 73.3133 80.1998 82.7847C79.8773 92.2561 71.8588 100.312 62.2374 100.78C52.5574 101.252 44.931 93.8739 45.257 84.2978Z" fill="url(#paint8_linear_636_26078)"/>
<path d="M32.0731 82.3454L31.9249 86.6981C31.8814 87.9752 32.9058 88.9629 34.2119 88.9048L36.5857 88.799C36.8124 90.8679 37.267 92.8551 37.927 94.7364L35.922 95.9391C34.7704 96.6297 34.335 98.0605 34.9499 99.1344L37.0444 102.791C37.6582 103.863 39.0872 104.17 40.2356 103.478L42.1328 102.334C43.4021 103.92 44.8555 105.35 46.4636 106.599L45.3663 108.413C44.6805 109.548 45.0174 110.936 46.1182 111.513L49.8649 113.479C50.9623 114.055 52.4049 113.603 53.0874 112.471L54.1384 110.727C56.0838 111.391 58.1387 111.843 60.2761 112.06L60.2105 113.989C60.1674 115.254 61.1732 116.224 62.456 116.155L66.8213 115.921C68.0996 115.853 69.17 114.775 69.213 113.513L69.2785 111.59C71.4233 111.151 73.4962 110.487 75.4698 109.625L76.392 111.254C76.9904 112.311 78.3842 112.61 79.5047 111.923L83.3184 109.586C84.4355 108.901 84.8581 107.492 84.2628 106.436L83.3094 104.746C84.9681 103.35 86.4843 101.792 87.8288 100.1L89.6 101.049C90.67 101.621 92.0773 101.181 92.7434 100.065L95.0123 96.2654C95.6773 95.1516 95.3517 93.7835 94.2848 93.2087L92.4233 92.2058C93.188 90.2916 93.7599 88.2931 94.1166 86.2352L96.4025 86.1333C97.6575 86.0774 98.7087 85.0187 98.7513 83.7681L98.8964 79.5062C98.939 78.2557 97.9569 77.2847 96.7021 77.3371L94.2819 77.4382C94.0067 75.4591 93.5208 73.5591 92.8456 71.7595L95.0607 70.4242C96.1699 69.7553 96.5898 68.3549 95.9988 67.2954L93.9824 63.6805C93.3903 62.619 92.0091 62.2988 90.8967 62.966L88.5657 64.3641C87.3546 62.9003 85.9835 61.5735 84.4756 60.4054L85.9113 58.0239C86.5803 56.9143 86.2526 55.5369 85.179 54.9469L81.5135 52.9323C80.4365 52.3405 79.0181 52.7612 78.3459 53.873L76.8703 56.3132C75.071 55.6962 73.176 55.2577 71.2047 55.0213L71.2999 52.2275C71.3428 50.9657 70.3428 49.9769 69.0655 50.0189L64.7033 50.1619C63.4213 50.2039 62.3465 51.2636 62.3034 52.529L62.2079 55.3306C60.2021 55.7051 58.2547 56.2788 56.3872 57.0273L55.0557 54.6672C54.4484 53.5906 53.0324 53.2623 51.8925 53.9346L48.0007 56.2301C46.8572 56.9044 46.4248 58.3259 47.0352 59.4039L48.3436 61.7147C46.7145 63.0117 45.2119 64.4622 43.8622 66.0423L41.5526 64.798C40.448 64.203 38.9938 64.6342 38.3051 65.7623L35.9551 69.6109C35.2651 70.7411 35.6041 72.1385 36.712 72.7318L38.9195 73.9135C38.0927 75.8054 37.4548 77.7854 37.0301 79.8295L34.5171 79.9345C33.2113 79.989 32.1166 81.0684 32.0731 82.3454ZM48.1807 84.2611C48.5068 74.6849 56.659 66.6232 66.3355 66.2567C75.9534 65.8924 83.4461 73.2766 83.1235 82.7479C82.801 92.2193 74.7825 100.275 65.161 100.744C55.481 101.215 47.8546 93.8373 48.1807 84.2611Z" fill="url(#paint9_linear_636_26078)"/>
<path d="M8.00671 214.35C8.00671 214.35 7.11716 214.684 6.72233 215.927C6.32751 217.17 6.9735 222.336 7.53555 223.606C8.09743 224.875 9.75332 224.572 10.2363 223.606C10.7191 222.639 10.0323 215.802 10.0323 215.802L8.00671 214.35Z" fill="url(#paint10_linear_636_26078)"/>
<path d="M60.352 167.808C56.4394 173.113 53.7373 177.712 51.9955 180.924C48.315 187.711 47.4731 190.983 43.1349 197.29C39.1176 203.132 36.4663 205.232 35.3837 206.038C32.7727 207.982 30.6177 208.853 25.0716 210.951C20.2252 212.784 15.0924 214.682 9.68722 216.626C8.73195 216.733 8.3307 216.321 8.06812 215.455C8.15687 211.326 9.39945 208.805 10.43 207.314C12.6294 204.13 14.912 204.114 21.7192 199.291C25.3488 196.719 27.1949 195.39 28.7246 193.287C29.4606 192.275 30.6659 190.395 32.5751 183.299C33.3576 180.392 34.2982 176.459 35.0912 171.705C43.5115 170.406 51.9318 169.107 60.352 167.808Z" fill="url(#paint11_linear_636_26078)"/>
<path d="M35.5373 107.354C35.5373 107.354 36.7212 106.702 37.0655 105.874C37.4098 105.046 37.4144 103.757 36.2427 103.08C35.071 102.402 34.8157 101.715 34.3931 101.164C33.9706 100.614 33.0005 100.422 33.0005 100.422C33.0005 100.422 34.7398 103.63 34.949 104.157C35.1581 104.684 36.002 104.755 34.9518 106.261L35.5373 107.354Z" fill="url(#paint12_linear_636_26078)"/>
<path d="M65.3854 131.116C62.4693 131.689 58.437 132.13 53.7164 131.574C45.5026 130.606 39.549 127.128 36.4673 124.996C33.1016 132.34 33.0312 137.784 33.624 141.442C34.0608 144.138 34.7244 145.042 34.7841 148.059C34.8845 153.138 34.4678 153.912 33.6141 160.513C32.9113 165.947 31.5293 174.741 37.3717 174.154C40.4876 173.841 40.9642 174.929 44.1943 174.313C47.7199 173.641 47.4754 172.284 50.7791 171.615C54.0539 170.953 55.0478 172.134 60.0612 171.536C62.1703 171.284 63.2249 171.159 63.8826 170.574C66.0098 168.682 64.2518 164.918 63.8692 159.001C63.4919 153.165 64.9402 152.776 65.5353 144.086C65.7455 141.017 65.8722 136.576 65.3854 131.116Z" fill="white"/>
<path d="M37.0544 107.196C36.3934 106.456 35.7323 105.715 35.0711 104.975C32.2879 106.475 28.0346 109.211 24.1773 113.892C21.2911 117.394 18.743 120.486 18.4688 124.972C18.0755 131.402 22.6285 136.215 24.7481 138.456C28.9254 142.872 33.7434 144.718 36.4992 145.515C41.8361 133.669 41.0431 129.043 39.154 127.068C38.1024 125.968 36.6841 125.662 35.3836 123.622C33.5745 120.783 33.8953 117.572 34.0985 115.537C34.4725 111.793 35.9371 108.934 37.0544 107.196Z" fill="white"/>
<path d="M53.0784 125.401C53.2303 126.207 53.3235 127.947 52.2575 129.33C51.324 130.54 49.8964 130.906 49.3245 131.059C47.9422 131.427 47.1953 131.128 47.121 131.366C46.9564 131.892 50.3469 134.228 54.2705 134.082C56.5764 133.996 58.8993 133.059 58.8755 132.318C58.8488 131.487 55.8889 131.581 55.1546 129.859C54.6853 128.759 55.3321 127.404 56.0345 126.348C55.398 125.607 53.7164 126.143 53.0784 125.401Z" fill="url(#paint13_linear_636_26078)"/>
<path d="M56.9829 125.076C57.4923 124.437 57.5365 123.357 56.9669 122.699C56.4764 122.132 55.6938 122.08 55.225 122.048C53.8649 121.957 52.1366 122.552 51.5215 123.739C51.1568 124.443 51.9069 125.843 52.0239 126.096C52.1564 126.381 52.4022 126.471 52.6279 126.681C52.9406 126.973 53.4298 127.437 54.2277 128.214C54.2934 127.972 54.3928 127.671 54.5485 127.343C54.6084 127.217 54.8488 126.725 55.2083 126.309C55.9278 125.478 56.4996 125.683 56.9829 125.076Z" fill="url(#paint14_linear_636_26078)"/>
<path d="M53.083 127.581C53.083 127.581 53.9627 128.905 55.7479 128.72C57.3431 128.554 57.617 125.232 56.6087 124.571C56.2721 124.351 55.593 124.281 55.0377 124.448C54.7095 124.546 54.597 124.677 54.0576 124.828C53.5596 124.968 53.4201 124.923 53.2687 125.046C53.0793 125.2 52.9372 125.563 53.2378 126.521C52.9362 126.248 52.5712 126.153 52.31 126.278C52.2683 126.298 52.1575 126.371 52.0942 126.479C51.8654 126.868 52.2337 127.336 53.083 127.581Z" fill="url(#paint15_linear_636_26078)"/>
<path d="M64.1281 119.319C65.0689 118.284 66.0098 117.25 66.9506 116.215C68.7671 116.143 79.1507 115.902 86.7079 123.835C90.6194 127.941 95.6999 135.932 92.9174 140.77C92.1231 142.151 90.8769 142.951 75.9826 145.568C65.2398 147.456 63.3637 147.484 61.8703 146.133C57.8915 142.534 61.2174 133.299 61.588 132.303C62.4384 131.952 63.6945 131.499 65.2572 131.174C72.0539 129.761 76.8159 132.407 77.3939 131.456C77.8564 130.694 75.4903 127.871 64.1281 119.319Z" fill="white"/>
<path d="M64.6152 118.783L63.679 117.643C63.0946 116.932 63.2534 115.873 64.0205 115.364C64.7255 114.896 65.4039 114.238 65.4105 113.432C65.4244 111.75 65.6185 111.103 66.0713 110.909C66.5242 110.715 66.3274 113.751 66.3948 114.846C66.4622 115.94 65.4105 116.158 65.4105 116.158L66.3978 116.822L64.6152 118.783Z" fill="url(#paint16_linear_636_26078)"/>
<path d="M53.5609 178.137C53.5609 178.137 65.9856 173.429 65.722 169.367C65.4584 165.306 64.7141 158.553 65.2959 153.121C65.8777 147.688 65.7261 145.514 65.7261 145.514C65.7261 145.514 62.588 142.939 62.4256 141.314C58.0389 141.098 43.4167 139.96 43.4167 139.96C43.4167 139.96 37.7114 148.123 34.4339 149.845C33.4847 150.344 32.8526 151.289 32.753 152.357C31.9191 161.294 31.9163 176.445 33.8422 178.137C35.9432 179.982 53.5609 178.137 53.5609 178.137Z" fill="url(#paint17_linear_636_26078)"/>
<path d="M45.9549 129.744C45.9549 129.744 46.6115 137.686 45.7992 140.881C43.9579 140.827 43.5247 140.881 43.5247 140.881C43.5247 140.881 44.3937 130.524 43.7967 128.987C45.2782 129.563 45.9549 129.744 45.9549 129.744Z" fill="url(#paint18_linear_636_26078)"/>
<path d="M58.8757 131.635C58.8757 131.635 60.5844 140.34 60.2595 141.91C61.8842 142.452 62.4876 141.91 62.4876 141.91C62.4876 141.91 60.8331 131.688 60.6817 131.445C60.0292 131.539 58.8757 131.635 58.8757 131.635Z" fill="url(#paint19_linear_636_26078)"/>
<path d="M48.02 143.017C48.02 143.017 47.1927 148.216 55.0258 148.162C59.772 148.108 59.5013 143.017 59.5013 143.017H48.02Z" fill="url(#paint20_linear_636_26078)"/>
<path d="M167.332 156.862L164.661 155.343C164.661 155.343 164.147 153.702 164.081 142.457C164.016 131.212 176.967 121.151 180.949 120.918C184.931 120.685 180.853 138.652 180.853 138.652C179.861 138.445 178.418 138.304 176.882 138.807C172.93 140.1 171.281 144.698 169.871 148.628C169.124 150.709 167.594 152.939 167.332 156.862Z" fill="white"/>
<path d="M189.428 224.711C189.428 224.711 189.902 226.629 189.917 227.324C189.932 228.019 182.283 228.988 182.164 228.476C182.045 227.964 183.326 227.032 184.25 226.665C185.174 226.298 187.886 225.3 187.886 225.3L189.428 224.711Z" fill="url(#paint21_linear_636_26078)"/>
<path d="M187.409 222.922L187.848 225.32C187.848 225.32 188.787 225.837 189.536 225.32L189.718 222.657L187.409 222.922Z" fill="url(#paint22_linear_636_26078)"/>
<path d="M203.377 226.764C203.377 226.764 203.851 228.683 203.866 229.378C203.881 230.073 196.232 231.042 196.113 230.53C195.994 230.018 197.275 229.086 198.199 228.719C199.123 228.352 201.835 227.353 201.835 227.353L203.377 226.764Z" fill="url(#paint23_linear_636_26078)"/>
<path d="M201.358 224.976L201.797 227.373C201.797 227.373 202.736 227.891 203.485 227.373L203.668 224.711L201.358 224.976Z" fill="url(#paint24_linear_636_26078)"/>
<path d="M183.746 159.712C183.003 161.582 182.26 163.452 181.517 165.322C181.626 175.646 182.166 186.838 183.35 198.759C184.231 207.627 185.381 216.004 186.695 223.847C187.894 223.696 189.093 223.544 190.291 223.393C191.754 219.8 193.389 214.405 193.06 207.932C192.718 201.181 190.604 200.45 190.217 193.991C189.715 185.618 193.041 183.107 194.103 172.903C194.509 169.001 194.588 163.94 193.528 157.893C190.267 158.499 187.007 159.106 183.746 159.712Z" fill="url(#paint25_linear_636_26078)"/>
<path opacity="0.3" d="M193.527 157.893C191.766 158.22 190.006 158.548 188.245 158.876C185.494 164.694 185.066 170.555 185.832 173.071C186.916 176.631 189.108 177.623 189.284 181.27C189.458 184.879 187.412 185.982 186.407 190.332C185.711 193.344 186.173 196.025 187.126 201.264C189.046 211.817 191.875 214.865 190.003 218.525C189.471 219.565 188.464 220.834 186.378 221.908C186.483 222.556 186.587 223.207 186.695 223.847C187.893 223.696 189.092 223.544 190.291 223.393C191.754 219.8 193.388 214.405 193.06 207.932C192.717 201.181 190.604 200.45 190.216 193.99C189.715 185.618 193.041 183.107 194.103 172.903C194.509 169.001 194.587 163.94 193.527 157.893Z" fill="url(#paint26_linear_636_26078)"/>
<path d="M188.779 162.568C191.173 171.518 193.423 181.121 195.397 191.338C197.78 203.675 199.461 215.352 200.625 226.224C201.948 226.156 203.272 226.087 204.595 226.019C208.974 215.308 208.733 208.303 207.618 203.819C207.189 202.091 206.128 198.721 205.538 193.604C205.126 190.037 205.136 187.297 205.159 184.002C205.209 176.777 205.842 175.15 205.511 169.653C205.201 164.495 205.013 161.887 203.421 160.484C199.227 156.787 189.515 162.152 188.779 162.568Z" fill="url(#paint27_linear_636_26078)"/>
<path d="M180.653 167.245C179.22 165.247 180.647 163.095 180.69 159.088C180.739 154.548 178.942 153.936 176.626 146.603C175.086 141.726 173.607 137.044 174.468 131.356C174.881 128.63 175.581 124.006 179.161 121.513C181.009 120.226 183.665 120.127 188.901 119.982C195.375 119.803 198.612 119.713 201.118 120.786C201.485 120.943 209.118 124.336 210.141 130.78C211.183 137.34 204.066 138.803 203.812 147.682C203.698 151.668 204.953 157.683 205.766 161.585C206.547 165.332 206.953 166.274 206.298 167.48C204.719 170.386 199.145 170.04 187.997 169.35C183.623 169.079 181.723 168.736 180.653 167.245Z" fill="white"/>
<path opacity="0.3" d="M195.901 146.891C196.505 148.57 198.284 149.717 199.785 153.796C200.109 154.677 202.417 160.949 200.216 162.715C198.945 163.734 197.6 162.103 194.319 162.139C188.634 162.201 186.321 167.168 182.524 166.167C181.865 165.993 180.98 165.581 180.047 164.545C179.959 165.553 180.057 166.414 180.654 167.246C181.723 168.737 183.624 169.08 187.997 169.351C199.145 170.041 204.72 170.387 206.298 167.481C206.954 166.275 206.547 165.332 205.766 161.586C204.953 157.684 203.699 151.668 203.812 147.683C204.066 138.804 211.183 137.341 210.141 130.781C209.863 129.028 209.088 127.509 208.11 126.211C199.288 130.631 194.004 141.618 195.901 146.891Z" fill="url(#paint28_linear_636_26078)"/>
<path d="M201.151 135.456C199.882 132.964 199.478 130.713 199.313 129.48C198.979 126.987 199.03 123.957 199.785 120.28C206.869 122.436 212.42 126.581 215.959 131.486C218.318 134.754 222.705 141.188 220.067 147.251C217.885 152.265 211.602 155.346 204.484 154.921C205.597 153.463 206.71 152.006 207.823 150.548C209.435 148.717 209.67 147.277 209.641 146.374C209.518 142.499 204.306 141.646 201.151 135.456Z" fill="white"/>
<path d="M188.224 114.549C188.224 114.549 188.477 116.56 189.225 118.022C189.9 119.342 192.947 119.962 193.575 120.219C194.203 120.475 192.54 121.506 190.812 121.821C189.084 122.135 184.078 122.138 183.128 121.55C182.179 120.961 183.8 120.881 185.007 120.325C186.213 119.769 186.738 117.28 186.43 116.194C186.122 115.108 188.224 114.549 188.224 114.549Z" fill="url(#paint29_linear_636_26078)"/>
<path d="M186.094 114.029C185.111 113.207 184.975 113.113 184.851 112.811C184.353 111.601 185.18 109.823 186.41 109.303C186.474 109.276 187.3 108.937 187.653 109.279C187.953 109.569 187.583 110.032 187.823 110.619C188.048 111.167 188.54 111.17 189.504 111.837C190.299 112.385 190.792 112.726 190.942 113.25C191.25 114.329 190.05 116.025 188.871 116.075C188.447 116.094 188.315 115.887 186.094 114.029Z" fill="url(#paint30_linear_636_26078)"/>
<path d="M188.769 116.254C188.769 116.254 187.888 117.428 186.384 117.184C185.037 116.966 185.131 113.907 186.059 113.345C186.368 113.157 186.955 113.124 187.413 113.301C187.684 113.405 187.766 113.53 188.211 113.692C188.622 113.842 188.745 113.807 188.862 113.926C189.008 114.075 189.093 114.414 188.742 115.277C189.026 115.04 189.346 114.97 189.556 115.095C189.59 115.115 189.677 115.187 189.72 115.288C189.876 115.654 189.516 116.066 188.769 116.254Z" fill="url(#paint31_linear_636_26078)"/>
<path d="M199.496 170.18C199.496 170.18 180.851 171.236 180.019 167.174C179.187 163.112 180.008 161.905 180.019 158.482C180.029 155.059 173.747 142.859 174.436 137.957C175.125 133.055 174.232 132.025 178.618 132.947C183.005 133.868 195.638 132.128 196.896 134.03C198.154 135.932 202.583 143.941 204.451 145.403C204.451 145.403 206.238 162.868 207.051 165.387C207.863 167.905 205.182 171.155 199.496 170.18Z" fill="url(#paint32_linear_636_26078)"/>
<path d="M196.295 119.873C196.295 119.873 193.105 124.688 192.229 134.112C194.784 134.599 194.865 134.788 195.271 132.947C195.678 131.106 197.545 120.518 199.116 120.193C199.116 120.193 198.082 119.488 196.295 119.873Z" fill="url(#paint33_linear_636_26078)"/>
<path d="M180.677 120.572C180.677 120.572 177.509 124.688 176.633 134.112C179.188 134.599 179.269 134.788 179.675 132.947C180.081 131.106 181.948 120.518 183.519 120.193C183.519 120.193 182.464 120.188 180.677 120.572Z" fill="url(#paint34_linear_636_26078)"/>
<path d="M180.019 136.873C180.019 136.873 177.454 141.964 184.657 141.856C191.86 141.747 190.788 136.169 190.788 136.169L180.019 136.873Z" fill="url(#paint35_linear_636_26078)"/>
<path d="M121.997 142.923L135.43 132.751L133.337 116.032L111.671 108.293C110.319 107.722 111.109 104.765 112.443 104.154C118.948 101.174 126.665 100.896 133.746 104.072C146.497 109.792 152.368 124.757 146.924 137.628C141.383 150.729 126.276 156.867 113.166 151.339C106.238 148.417 100.713 143.878 98.3666 137.315C97.872 135.931 99.7936 133.56 101.148 134.131L121.997 142.923Z" fill="url(#paint36_linear_636_26078)"/>
<path d="M143.414 129.089L219.387 157.964C224.295 159.897 226.649 165.492 224.599 170.353C222.55 175.212 216.904 177.432 212.094 175.27L138.361 141.071L143.414 129.089Z" fill="url(#paint37_linear_636_26078)"/>
<path d="M121.526 144.25L134.959 134.078L132.866 117.359L112.017 108.567C110.664 107.997 110.638 106.092 111.972 105.481C118.477 102.501 126.194 102.223 133.275 105.4C146.026 111.119 151.897 126.084 146.453 138.955C140.912 152.056 125.805 158.194 112.695 152.666C105.767 149.744 100.783 144.148 98.4372 137.585C97.9426 136.201 99.3226 134.887 100.677 135.458L121.526 144.25Z" fill="url(#paint38_linear_636_26078)"/>
<path d="M142.943 130.416L218.916 159.292C223.824 161.225 226.178 166.819 224.129 171.68C222.08 176.539 216.433 178.759 211.623 176.597L137.89 142.398L142.943 130.416Z" fill="url(#paint39_linear_636_26078)"/>
<path opacity="0.3" d="M142.604 137.302C141.786 139.243 142.695 141.479 144.636 142.297C146.576 143.115 148.813 142.206 149.631 140.265C150.449 138.325 149.539 136.089 147.599 135.271C145.659 134.452 143.422 135.362 142.604 137.302Z" fill="url(#paint40_linear_636_26078)"/>
<path opacity="0.3" d="M150.189 142.949L212.935 169.408C214.083 169.892 215.406 169.354 215.89 168.206C216.374 167.058 215.836 165.735 214.688 165.251L151.942 138.792L150.189 142.949Z" fill="url(#paint41_linear_636_26078)"/>
<path d="M208.185 152.986C208.185 152.986 207.726 151.77 206.861 151.559C205.997 151.349 204.289 151.61 204.289 151.61C204.198 151.835 204.111 152.156 204.252 152.414C204.503 152.873 205.225 152.674 206.077 152.963C207.461 153.431 208.034 154.888 208.249 154.605C208.413 154.387 208.185 152.986 208.185 152.986Z" fill="url(#paint42_linear_636_26078)"/>
<path d="M168.395 156.884C168.395 156.884 165.574 157.624 164.277 156.8C162.979 155.977 162.407 153.101 162.407 153.101C162.407 153.101 163.853 152.762 164.808 154.023C165.764 155.285 168.968 155.625 168.395 156.884Z" fill="url(#paint43_linear_636_26078)"/>
<path d="M0.764056 28.496L0.660841 31.5272C0.630573 32.4166 1.34388 33.1044 2.25352 33.0639L3.90655 32.9902C4.06441 34.431 4.38093 35.8148 4.84066 37.1249L3.44432 37.9624C2.64236 38.4434 2.33914 39.4398 2.76745 40.1876L4.22593 42.7341C4.65343 43.4806 6.71753 43.9242 7.51735 43.4422L7.76941 42.4157C8.65342 43.5202 9.66548 44.5164 10.7854 45.3858L10.0213 46.6494C9.54369 47.4393 9.77824 48.4059 10.5448 48.8082L13.154 50.1771C13.9181 50.578 16.3993 50.6403 16.8746 49.8518L16.1299 48.261C17.4847 48.7232 18.9157 49.0379 20.4042 49.1891L20.3585 50.5321C20.3285 51.4133 21.0289 52.0887 21.9222 52.0409L24.9622 51.8781C25.8523 51.8305 26.5978 51.0797 26.6277 50.201L26.6732 48.862C28.1669 48.5561 29.6105 48.0936 30.9847 47.4932L31.627 48.6275C32.0437 49.3635 34.6021 49.7422 35.3824 49.264L36.4504 47.4662C37.2283 46.9893 37.5227 46.0077 37.1081 45.2728L36.4442 44.096C37.5993 43.1238 38.6552 42.0387 39.5914 40.8606L40.8248 41.5209C41.57 41.9198 43.7772 42.124 44.2412 41.3469L44.5939 38.1899C45.057 37.4142 44.8303 36.4616 44.0873 36.0613L42.7911 35.3628C43.3236 34.0299 43.7219 32.6382 43.9703 31.205L45.5621 31.1341C46.4361 31.0951 47.168 30.3578 47.1978 29.487L47.2988 26.5191C47.3285 25.6483 46.6446 24.9721 45.7707 25.0086L44.0854 25.079C43.8937 23.7008 43.5553 22.3776 43.0851 21.1244L44.6277 20.1946C45.4002 19.7287 45.6925 18.7536 45.281 18.0157L45.5745 15.0664C45.1621 14.3272 42.5026 14.5362 41.7279 15.0008L40.1046 15.9744C39.2613 14.9551 38.3064 14.031 37.2563 13.2176L38.2562 11.5592C38.722 10.7865 38.4938 9.8272 37.7462 9.4164L36.6341 7.8073C35.8841 7.39515 33.4558 7.89426 32.9877 8.66846L31.9601 10.3679C30.707 9.93819 29.3874 9.63283 28.0146 9.46819L28.0809 7.52266C28.1108 6.64391 27.4145 5.95543 26.5249 5.98453L23.4872 6.08417C22.5944 6.11346 21.8459 6.8514 21.8158 7.73265L21.7494 9.68372C20.3526 9.94444 18.9964 10.344 17.6959 10.8651L18.2996 8.80676C17.8766 8.05703 15.3598 8.24328 14.5659 8.71149L11.8557 10.3101C11.0595 10.7797 10.7582 11.7696 11.1834 12.5203L12.0946 14.1295C10.9601 15.0327 9.91369 16.0428 8.97387 17.1433L9.04244 16.1122C8.27325 15.6978 5.58352 16.1626 5.10387 16.9483L3.46735 19.6284C2.98682 20.4154 3.22298 21.3885 3.9945 21.8017L5.53182 22.6247C4.9561 23.9421 4.51191 25.321 4.21602 26.7445L2.46602 26.8176C1.55673 26.855 0.794413 27.6067 0.764056 28.496ZM11.9812 29.83C12.2082 23.1613 17.8854 17.5472 24.624 17.292C31.3218 17.0384 36.5396 22.1806 36.315 28.7764C36.0904 35.3721 30.5064 40.9819 23.8062 41.3084C17.065 41.6369 11.7541 36.4988 11.9812 29.83Z" fill="url(#paint44_linear_636_26078)"/>
<path d="M2.80019 28.4706L2.69697 31.5018C2.66671 32.391 3.38001 33.079 4.28956 33.0385L5.94268 32.9648C6.10054 34.4056 6.41706 35.7893 6.87679 37.0995L5.48055 37.9371C4.67858 38.418 4.37536 39.4144 4.80358 40.1623L6.26215 42.7088C6.68965 43.4552 7.68474 43.669 8.48447 43.1868L9.80563 42.3903C10.6896 43.4949 11.7017 44.491 12.8216 45.3605L12.0575 46.6241C11.5799 47.4139 11.8146 48.3806 12.5811 48.7829L15.1902 50.1517C15.9544 50.5526 16.9589 50.2381 17.4343 49.4497L18.1662 48.2357C19.5209 48.698 20.952 49.0126 22.4404 49.1638L22.3947 50.5068C22.3647 51.388 23.0651 52.0634 23.9585 52.0156L26.9985 51.8528C27.8887 51.8051 28.6341 51.0543 28.664 50.1757L28.7096 48.8367C30.2032 48.5308 31.6469 48.0683 33.0211 47.4678L33.6634 48.6022C34.0801 49.3382 35.0507 49.5467 35.831 49.0684L38.4869 47.4409C39.2647 46.9639 39.5591 45.9824 39.1444 45.2475L38.4805 44.0706C39.6356 43.0984 40.6915 42.0133 41.6277 40.8351L42.8611 41.4955C43.6063 41.8944 44.5863 41.5876 45.0502 40.8106L46.6302 38.1644C47.0934 37.3888 46.8667 36.436 46.1236 36.0358L44.8274 35.3373C45.3599 34.0043 45.7582 32.6126 46.0066 31.1794L47.5985 31.1085C48.4724 31.0696 49.2044 30.3323 49.2341 29.4615L49.3351 26.4935C49.3648 25.6227 48.6809 24.9464 47.807 24.9829L46.1217 25.0533C45.9301 23.6751 45.5916 22.3519 45.1214 21.0986L46.664 20.1688C47.4365 19.703 47.7288 18.7278 47.3173 17.9899L45.9131 15.4726C45.5008 14.7334 44.5389 14.5103 43.7643 14.975L42.141 15.9486C41.2977 14.9293 40.3427 14.0053 39.2927 13.1918L40.2925 11.5334C40.7584 10.7606 40.5302 9.80141 39.7825 9.39052L37.2299 7.98758C36.4799 7.57544 35.4922 7.86847 35.0241 8.64267L33.9965 10.342C32.7434 9.91231 31.4238 9.60695 30.0511 9.44231L30.1173 7.49678C30.1472 6.61803 29.4509 5.92955 28.5613 5.95865L25.5235 6.05829C24.6307 6.08758 23.8822 6.82553 23.8522 7.70669L23.7858 9.65776C22.389 9.91856 21.0329 10.318 19.7323 10.8393L18.8051 9.1957C18.3821 8.44597 17.3961 8.2174 16.6023 8.68552L13.8921 10.2841C13.0959 10.7537 12.7946 11.7436 13.2197 12.4944L14.1309 14.1036C12.9964 15.0068 11.95 16.0169 11.0102 17.1172L9.4017 16.2506C8.63251 15.8362 7.61982 16.1366 7.14018 16.9222L5.50367 19.6023C5.02313 20.3894 5.25929 21.3625 6.03081 21.7757L7.56813 22.5986C6.99242 23.916 6.54813 25.295 6.25233 26.7185L4.50233 26.7916C3.59286 26.8297 2.83046 27.5812 2.80019 28.4706ZM14.0173 29.8047C14.2445 23.136 19.9215 17.5219 26.6602 17.2667C33.3579 17.013 38.5758 22.1552 38.3511 28.751C38.1265 35.3467 32.5426 40.9566 25.8423 41.283C19.1012 41.6115 13.7902 36.4734 14.0173 29.8047Z" fill="url(#paint45_linear_636_26078)"/>
<defs>
<linearGradient id="paint0_linear_636_26078" x1="189.067" y1="179.736" x2="93.1382" y2="97.9041" gradientUnits="userSpaceOnUse">
<stop stopColor="#444B8C"/>
<stop offset="0.9964" stopColor="#26264F"/>
</linearGradient>
<linearGradient id="paint1_linear_636_26078" x1="109.767" y1="209.955" x2="123.044" y2="-146.981" gradientUnits="userSpaceOnUse">
<stop stopColor="#444B8C"/>
<stop offset="0.9964" stopColor="#26264F"/>
</linearGradient>
<linearGradient id="paint2_linear_636_26078" x1="86.3643" y1="180.285" x2="4.80457" y2="386.947" gradientUnits="userSpaceOnUse">
<stop stopColor="#FFC444"/>
<stop offset="0.9964" stopColor="#F36F56"/>
</linearGradient>
<linearGradient id="paint3_linear_636_26078" x1="77.9759" y1="227.713" x2="73.3439" y2="227.713" gradientUnits="userSpaceOnUse">
<stop stopColor="#AB316D"/>
<stop offset="1" stopColor="#792D3D"/>
</linearGradient>
<linearGradient id="paint4_linear_636_26078" x1="83.5699" y1="229.026" x2="75.3426" y2="229.026" gradientUnits="userSpaceOnUse">
<stop stopColor="#444B8C"/>
<stop offset="0.9964" stopColor="#26264F"/>
</linearGradient>
<linearGradient id="paint5_linear_636_26078" x1="78.3075" y1="226.03" x2="79.2177" y2="228.134" gradientUnits="userSpaceOnUse">
<stop stopColor="#444B8C"/>
<stop offset="0.9964" stopColor="#26264F"/>
</linearGradient>
<linearGradient id="paint6_linear_636_26078" x1="74.7732" y1="133.55" x2="53.0899" y2="238.9" gradientUnits="userSpaceOnUse">
<stop offset="0.0036" stopColor="#6165D7"/>
<stop offset="1" stopColor="#AA80F9"/>
</linearGradient>
<linearGradient id="paint7_linear_636_26078" x1="66.3549" y1="193.792" x2="53.2136" y2="216.596" gradientUnits="userSpaceOnUse">
<stop offset="0.0036" stopColor="#6165D7"/>
<stop offset="1" stopColor="#AA80F9"/>
</linearGradient>
<linearGradient id="paint8_linear_636_26078" x1="101.005" y1="24.3498" x2="16.6379" y2="156.933" gradientUnits="userSpaceOnUse">
<stop stopColor="#311944"/>
<stop offset="1" stopColor="#893976"/>
</linearGradient>
<linearGradient id="paint9_linear_636_26078" x1="68.8887" y1="54.6133" x2="53.4373" y2="181.033" gradientUnits="userSpaceOnUse">
<stop offset="0.0036" stopColor="#E38DDD"/>
<stop offset="1" stopColor="#9571F6"/>
</linearGradient>
<linearGradient id="paint10_linear_636_26078" x1="10.4082" y1="219.399" x2="6.60083" y2="219.399" gradientUnits="userSpaceOnUse">
<stop stopColor="#444B8C"/>
<stop offset="0.9964" stopColor="#26264F"/>
</linearGradient>
<linearGradient id="paint11_linear_636_26078" x1="55.995" y1="106.034" x2="17.0024" y2="257.455" gradientUnits="userSpaceOnUse">
<stop offset="0.0036" stopColor="#6165D7"/>
<stop offset="1" stopColor="#AA80F9"/>
</linearGradient>
<linearGradient id="paint12_linear_636_26078" x1="35.3029" y1="106.115" x2="35.9376" y2="119.205" gradientUnits="userSpaceOnUse">
<stop stopColor="#AB316D"/>
<stop offset="1" stopColor="#792D3D"/>
</linearGradient>
<linearGradient id="paint13_linear_636_26078" x1="51.4886" y1="137.31" x2="55.6303" y2="122.394" gradientUnits="userSpaceOnUse">
<stop stopColor="#AB316D"/>
<stop offset="1" stopColor="#792D3D"/>
</linearGradient>
<linearGradient id="paint14_linear_636_26078" x1="51.3326" y1="132.249" x2="55.0253" y2="122.468" gradientUnits="userSpaceOnUse">
<stop stopColor="#444B8C"/>
<stop offset="0.9964" stopColor="#26264F"/>
</linearGradient>
<linearGradient id="paint15_linear_636_26078" x1="54.5367" y1="125.181" x2="55.4054" y2="138.959" gradientUnits="userSpaceOnUse">
<stop stopColor="#AB316D"/>
<stop offset="1" stopColor="#792D3D"/>
</linearGradient>
<linearGradient id="paint16_linear_636_26078" x1="64.9227" y1="115.467" x2="64.3781" y2="126.697" gradientUnits="userSpaceOnUse">
<stop stopColor="#AB316D"/>
<stop offset="1" stopColor="#792D3D"/>
</linearGradient>
<linearGradient id="paint17_linear_636_26078" x1="55.4914" y1="130.61" x2="34.0454" y2="234.807" gradientUnits="userSpaceOnUse">
<stop offset="0.0036" stopColor="#6165D7"/>
<stop offset="1" stopColor="#AA80F9"/>
</linearGradient>
<linearGradient id="paint18_linear_636_26078" x1="47.5172" y1="128.829" x2="41.6555" y2="141.99" gradientUnits="userSpaceOnUse">
<stop offset="0.0036" stopColor="#6165D7"/>
<stop offset="1" stopColor="#AA80F9"/>
</linearGradient>
<linearGradient id="paint19_linear_636_26078" x1="63.184" y1="131.154" x2="58.0733" y2="142.629" gradientUnits="userSpaceOnUse">
<stop offset="0.0036" stopColor="#6165D7"/>
<stop offset="1" stopColor="#AA80F9"/>
</linearGradient>
<linearGradient id="paint20_linear_636_26078" x1="49.8801" y1="161.1" x2="53.2378" y2="145.827" gradientUnits="userSpaceOnUse">
<stop offset="0.0036" stopColor="#6165D7"/>
<stop offset="1" stopColor="#AA80F9"/>
</linearGradient>
<linearGradient id="paint21_linear_636_26078" x1="179.648" y1="204.407" x2="189.573" y2="240.223" gradientUnits="userSpaceOnUse">
<stop stopColor="#311944"/>
<stop offset="1" stopColor="#893976"/>
</linearGradient>
<linearGradient id="paint22_linear_636_26078" x1="188.481" y1="229.73" x2="188.625" y2="217.647" gradientUnits="userSpaceOnUse">
<stop stopColor="#FFC444"/>
<stop offset="0.9964" stopColor="#F36F56"/>
</linearGradient>
<linearGradient id="paint23_linear_636_26078" x1="192.074" y1="200.964" x2="201.999" y2="236.78" gradientUnits="userSpaceOnUse">
<stop stopColor="#311944"/>
<stop offset="1" stopColor="#893976"/>
</linearGradient>
<linearGradient id="paint24_linear_636_26078" x1="202.453" y1="229.896" x2="202.597" y2="217.813" gradientUnits="userSpaceOnUse">
<stop stopColor="#FFC444"/>
<stop offset="0.9964" stopColor="#F36F56"/>
</linearGradient>
<linearGradient id="paint25_linear_636_26078" x1="189.026" y1="129.304" x2="185.126" y2="265.129" gradientUnits="userSpaceOnUse">
<stop offset="0.0036" stopColor="#6165D7"/>
<stop offset="1" stopColor="#AA80F9"/>
</linearGradient>
<linearGradient id="paint26_linear_636_26078" x1="181.516" y1="190.87" x2="194.381" y2="190.87" gradientUnits="userSpaceOnUse">
<stop offset="0.0036" stopColor="#6165D7"/>
<stop offset="1" stopColor="#AA80F9"/>
</linearGradient>
<linearGradient id="paint27_linear_636_26078" x1="200.366" y1="122.828" x2="196.467" y2="258.653" gradientUnits="userSpaceOnUse">
<stop offset="0.0036" stopColor="#6165D7"/>
<stop offset="1" stopColor="#AA80F9"/>
</linearGradient>
<linearGradient id="paint28_linear_636_26078" x1="228.029" y1="195.025" x2="184.444" y2="132.453" gradientUnits="userSpaceOnUse">
<stop stopColor="#AA80F9"/>
<stop offset="0.9964" stopColor="#6165D7"/>
</linearGradient>
<linearGradient id="paint29_linear_636_26078" x1="185.667" y1="124.55" x2="191.551" y2="115.894" gradientUnits="userSpaceOnUse">
<stop stopColor="#FFC444"/>
<stop offset="0.9964" stopColor="#F36F56"/>
</linearGradient>
<linearGradient id="paint30_linear_636_26078" x1="191.121" y1="121.213" x2="186.708" y2="110.004" gradientUnits="userSpaceOnUse">
<stop stopColor="#444B8C"/>
<stop offset="0.9964" stopColor="#3E4177"/>
</linearGradient>
<linearGradient id="paint31_linear_636_26078" x1="181.893" y1="117.918" x2="191.365" y2="112.758" gradientUnits="userSpaceOnUse">
<stop stopColor="#FFC444"/>
<stop offset="0.9964" stopColor="#F36F56"/>
</linearGradient>
<linearGradient id="paint32_linear_636_26078" x1="191.647" y1="122.578" x2="187.748" y2="258.402" gradientUnits="userSpaceOnUse">
<stop offset="0.0036" stopColor="#6165D7"/>
<stop offset="1" stopColor="#AA80F9"/>
</linearGradient>
<linearGradient id="paint33_linear_636_26078" x1="196.045" y1="114.191" x2="194.604" y2="164.361" gradientUnits="userSpaceOnUse">
<stop offset="0.0036" stopColor="#6165D7"/>
<stop offset="1" stopColor="#AA80F9"/>
</linearGradient>
<linearGradient id="paint34_linear_636_26078" x1="180.433" y1="114.72" x2="179.03" y2="163.58" gradientUnits="userSpaceOnUse">
<stop offset="0.0036" stopColor="#6165D7"/>
<stop offset="1" stopColor="#AA80F9"/>
</linearGradient>
<linearGradient id="paint35_linear_636_26078" x1="185.398" y1="146.631" x2="185.073" y2="131.44" gradientUnits="userSpaceOnUse">
<stop offset="0.0036" stopColor="#6165D7"/>
<stop offset="1" stopColor="#AA80F9"/>
</linearGradient>
<linearGradient id="paint36_linear_636_26078" x1="126.712" y1="112.315" x2="110.714" y2="219.931" gradientUnits="userSpaceOnUse">
<stop stopColor="#40447E"/>
<stop offset="0.9964" stopColor="#3C3B6B"/>
</linearGradient>
<linearGradient id="paint37_linear_636_26078" x1="186.755" y1="121.24" x2="170.756" y2="228.865" gradientUnits="userSpaceOnUse">
<stop stopColor="#40447E"/>
<stop offset="0.9964" stopColor="#3C3B6B"/>
</linearGradient>
<linearGradient id="paint38_linear_636_26078" x1="126.412" y1="113.667" x2="110.414" y2="221.283" gradientUnits="userSpaceOnUse">
<stop stopColor="#FF9085"/>
<stop offset="1" stopColor="#FB6FBB"/>
</linearGradient>
<linearGradient id="paint39_linear_636_26078" x1="186.284" y1="122.567" x2="170.285" y2="230.192" gradientUnits="userSpaceOnUse">
<stop stopColor="#FF9085"/>
<stop offset="1" stopColor="#FB6FBB"/>
</linearGradient>
<linearGradient id="paint40_linear_636_26078" x1="139.113" y1="157.887" x2="146.11" y2="138.804" gradientUnits="userSpaceOnUse">
<stop stopColor="#FF9085"/>
<stop offset="0.033" stopColor="#FF8F87"/>
<stop offset="1" stopColor="#FB6FBB"/>
</linearGradient>
<linearGradient id="paint41_linear_636_26078" x1="176.328" y1="173.885" x2="183.439" y2="154.491" gradientUnits="userSpaceOnUse">
<stop stopColor="#FF9085"/>
<stop offset="0.033" stopColor="#FF8F87"/>
<stop offset="1" stopColor="#FB6FBB"/>
</linearGradient>
<linearGradient id="paint42_linear_636_26078" x1="204.83" y1="152.529" x2="213.791" y2="154.432" gradientUnits="userSpaceOnUse">
<stop stopColor="#FFC444"/>
<stop offset="0.9964" stopColor="#F36F56"/>
</linearGradient>
<linearGradient id="paint43_linear_636_26078" x1="163.39" y1="154.159" x2="170.367" y2="159.746" gradientUnits="userSpaceOnUse">
<stop stopColor="#FFC444"/>
<stop offset="0.4726" stopColor="#F99C4D"/>
<stop offset="0.9964" stopColor="#F36F56"/>
</linearGradient>
<linearGradient id="paint44_linear_636_26078" x1="50.8036" y1="-11.917" x2="-7.9488" y2="80.4121" gradientUnits="userSpaceOnUse">
<stop stopColor="#311944"/>
<stop offset="1" stopColor="#893976"/>
</linearGradient>
<linearGradient id="paint45_linear_636_26078" x1="30.1704" y1="-3.40776" x2="17.9961" y2="91.4897" gradientUnits="userSpaceOnUse">
<stop offset="0.0036" stopColor="#E38DDD"/>
<stop offset="1" stopColor="#9571F6"/>
</linearGradient>
</defs>
</svg>
