<svg width="280" height="196" viewBox="0 0 280 196" fill="none" xmlns="http://www.w3.org/2000/svg">
<path d="M243.065 191.478C243.065 191.478 323.749 -12.9731 175.686 0.866002C112.269 6.79339 124.108 42.7536 96.0999 76.3999C77.9453 98.2092 43.0286 80.3679 29.9438 99.4254C16.8591 118.483 32.2357 172.823 37.6297 191.478L243.065 191.478Z" fill="#E5F0F8"/>
<path d="M250.212 192.215C250.212 192.215 253.9 177.498 263.093 172.957C272.286 168.415 282.098 174.633 279.607 181.171C277.458 186.81 268.624 179.877 261.751 182.603C254.878 185.329 253.794 192.215 253.794 192.215H250.212Z" fill="#40A87B"/>
<path d="M277.83 177.25C277.83 177.25 267.963 171.625 260.643 176.826C253.323 182.026 251.006 192.215 251.006 192.215" stroke="#6ADB6A" strokeWidth="3.175" strokeMiterlimit="10"/>
<path d="M276.238 174.619L273.943 175.621" stroke="#6ADB6A" strokeWidth="3.175" strokeMiterlimit="10"/>
<path d="M272.923 172.475L268.35 174.62" stroke="#6ADB6A" strokeWidth="3.175" strokeMiterlimit="10"/>
<path d="M266.053 172.475L263.674 175.286" stroke="#6ADB6A" strokeWidth="3.175" strokeMiterlimit="10"/>
<path d="M261.545 174.358L260.475 176.947" stroke="#6ADB6A" strokeWidth="3.175" strokeMiterlimit="10"/>
<path d="M275.09 180.833L271.566 175" stroke="#6ADB6A" strokeWidth="3.175" strokeMiterlimit="10"/>
<path d="M268.865 179.997L265.633 174.804" stroke="#6ADB6A" strokeWidth="3.175" strokeMiterlimit="10"/>
<path d="M263.375 179.2L258.516 178.596" stroke="#6ADB6A" strokeWidth="3.175" strokeMiterlimit="10"/>
<path d="M257.718 182.145L254.933 183.06" stroke="#6ADB6A" strokeWidth="3.175" strokeMiterlimit="10"/>
<path d="M245.925 191.751C245.925 191.751 243.322 142.421 266.875 148.778C290.427 155.135 248.503 181.722 248.538 191.751H245.925Z" fill="#6ADB6A"/>
<path d="M246.876 191.751C246.876 191.751 247.698 165.978 264.487 153.234" stroke="#40A87B" strokeWidth="3.175" strokeMiterlimit="10"/>
<path d="M257.124 160.707L257.543 151.819" stroke="#40A87B" strokeWidth="3.175" strokeMiterlimit="10"/>
<path d="M270.296 157.024L258.948 158.504" stroke="#40A87B" strokeWidth="3.175" strokeMiterlimit="10"/>
<path d="M265.883 164.61L253.885 166.009" stroke="#40A87B" strokeWidth="3.175" strokeMiterlimit="10"/>
<path d="M259.885 172.127L250.617 173.437" stroke="#40A87B" strokeWidth="3.175" strokeMiterlimit="10"/>
<path d="M249.728 165.103L251.852 170.266" stroke="#40A87B" strokeWidth="3.175" strokeMiterlimit="10"/>
<path d="M253.219 156.724L255.029 163.993" stroke="#40A87B" strokeWidth="3.175" strokeMiterlimit="10"/>
<path d="M247.744 173.721L249.436 177.096" stroke="#40A87B" strokeWidth="3.175" strokeMiterlimit="10"/>
<path d="M255.029 179.095L248.388 181.189" stroke="#40A87B" strokeWidth="3.175" strokeMiterlimit="10"/>
<path d="M25.2532 193.11C25.2532 193.11 22.1267 180.634 14.333 176.783C6.53943 172.933 -1.77877 178.204 0.333431 183.747C2.15481 188.527 9.64401 182.65 15.4711 184.961C21.2982 187.273 22.2168 193.11 22.2168 193.11H25.2532V193.11Z" fill="#40A87B"/>
<path d="M1.8396 180.423C1.8396 180.423 10.2041 175.655 16.4101 180.063C22.6161 184.472 24.5801 193.11 24.5801 193.11" stroke="#6ADB6A" strokeWidth="2.6917" strokeMiterlimit="10"/>
<path d="M3.1897 178.193L5.13568 179.042" stroke="#6ADB6A" strokeWidth="2.6917" strokeMiterlimit="10"/>
<path d="M5.99927 176.374L9.87544 178.193" stroke="#6ADB6A" strokeWidth="2.6917" strokeMiterlimit="10"/>
<path d="M11.8242 176.374L13.8408 178.757" stroke="#6ADB6A" strokeWidth="2.6917" strokeMiterlimit="10"/>
<path d="M15.646 177.972L16.5525 180.167" stroke="#6ADB6A" strokeWidth="2.6917" strokeMiterlimit="10"/>
<path d="M4.1626 183.46L7.15013 178.516" stroke="#6ADB6A" strokeWidth="2.6917" strokeMiterlimit="10"/>
<path d="M9.44043 182.751L12.1805 178.349" stroke="#6ADB6A" strokeWidth="2.6917" strokeMiterlimit="10"/>
<path d="M14.0947 182.077L18.2141 181.565" stroke="#6ADB6A" strokeWidth="2.6917" strokeMiterlimit="10"/>
<path d="M18.8909 184.574L21.252 185.35" stroke="#6ADB6A" strokeWidth="2.6917" strokeMiterlimit="10"/>
<path d="M28.8887 192.717C28.8887 192.717 31.0948 150.896 11.1277 156.285C-8.83936 161.674 26.7032 184.214 26.6729 192.717H28.8887Z" fill="#6ADB6A"/>
<path d="M28.0817 192.717C28.0817 192.717 27.3845 170.867 13.1514 160.062" stroke="#40A87B" strokeWidth="2.6917" strokeMiterlimit="10"/>
<path d="M19.3939 166.398L19.0383 158.863" stroke="#40A87B" strokeWidth="2.6917" strokeMiterlimit="10"/>
<path d="M8.22705 163.276L17.8475 164.53" stroke="#40A87B" strokeWidth="2.6917" strokeMiterlimit="10"/>
<path d="M11.969 169.707L22.1408 170.892" stroke="#40A87B" strokeWidth="2.6917" strokeMiterlimit="10"/>
<path d="M17.0544 176.079L24.9109 177.19" stroke="#40A87B" strokeWidth="2.6917" strokeMiterlimit="10"/>
<path d="M25.664 170.125L23.8633 174.502" stroke="#40A87B" strokeWidth="2.6917" strokeMiterlimit="10"/>
<path d="M22.7055 163.021L21.1704 169.184" stroke="#40A87B" strokeWidth="2.6917" strokeMiterlimit="10"/>
<path d="M27.3453 177.432L25.9106 180.292" stroke="#40A87B" strokeWidth="2.6917" strokeMiterlimit="10"/>
<path d="M21.1704 181.987L26.8003 183.763" stroke="#40A87B" strokeWidth="2.6917" strokeMiterlimit="10"/>
<path d="M260.653 195.806H22.0215C20.6941 195.806 19.6179 194.729 19.6179 193.401V192.969C19.6179 191.641 20.6941 190.564 22.0215 190.564H260.653C261.98 190.564 263.057 191.641 263.057 192.969V193.401C263.057 194.729 261.98 195.806 260.653 195.806Z" fill="#0775EF"/>
<path d="M241.345 190.564H41.3276C36.2695 190.564 32.1692 186.462 32.1692 181.401V181.162C32.1692 180.408 32.7799 179.797 33.5333 179.797H249.14C249.893 179.797 250.504 180.408 250.504 181.162V181.401C250.504 186.461 246.403 190.564 241.345 190.564Z" fill="#93ACBF"/>
<path d="M244.549 81.1363V179.797H37.9656V81.1363C37.9656 69.9837 46.6462 60.946 57.3583 60.946H225.156C235.868 60.946 244.549 69.9837 244.549 81.1363Z" fill="#93ACBF"/>
<path d="M237.301 81.136V179.797H45.2144V81.136C45.2144 74.1675 50.6653 68.4924 57.3586 68.4924H225.156C231.85 68.4924 237.301 74.1675 237.301 81.136Z" fill="#E5F0F8"/>
<path d="M230.05 81.1333V85.1876H52.4651V81.1333C52.4651 78.3322 54.6621 76.0378 57.3593 76.0378H225.156C227.853 76.0377 230.05 78.3321 230.05 81.1333Z" fill="#E5F0F8"/>
<path d="M230.05 85.1882H52.4651V179.799H230.05V85.1882Z" fill="#E5F0F8"/>
<path d="M79.4276 79.5596H59.8367V81.8033H79.4276V79.5596Z" fill="#E5F0F8"/>
<path d="M103.779 79.5596H84.1885V81.8033H103.779V79.5596Z" fill="#E5F0F8"/>
<path d="M128.131 79.5596H108.54V81.8033H128.131V79.5596Z" fill="#E5F0F8"/>
<path d="M152.482 79.5596H132.891V81.8033H152.482V79.5596Z" fill="#E5F0F8"/>
<path d="M130.941 179.798H61.5784C57.962 179.798 55.0303 176.865 55.0303 173.247V39.2034C55.0303 35.5855 57.962 32.6526 61.5784 32.6526H130.941C134.557 32.6526 137.489 35.5855 137.489 39.2034V173.247C137.489 176.865 134.557 179.798 130.941 179.798Z" fill="#BBDBF3"/>
<path d="M132.068 57.6179C132.068 64.1331 126.787 69.4158 120.275 69.4158C116.723 69.4158 113.538 67.8444 111.38 65.3558C109.57 63.2876 108.482 60.5794 108.482 57.6179C108.482 51.1028 113.762 45.8201 120.275 45.8201C126.787 45.8201 132.068 51.1028 132.068 57.6179Z" fill="white"/>
<path d="M120.274 57.1744C115.194 56.8878 112.63 61.4827 111.379 65.3564C113.537 67.845 116.722 69.4164 120.274 69.4164C123.826 69.4164 127.011 67.845 129.169 65.3564C127.918 61.4827 125.354 56.8878 120.274 57.1744Z" fill="#BBDBF3"/>
<path d="M124.568 53.4427C124.568 56.9341 122.646 60.5894 120.275 60.5894C117.905 60.5894 115.983 56.9341 115.983 53.4427C115.983 49.9513 117.905 47.946 120.275 47.946C122.646 47.946 124.568 49.9513 124.568 53.4427Z" fill="#BBDBF3"/>
<path d="M90.9077 45.8206H61.1062V49.0072H90.9077V45.8206Z" fill="white"/>
<path d="M98.7921 52.6743H61.1062V55.8609H98.7921V52.6743Z" fill="white"/>
<path d="M83.3127 80.5212H61.1062V83.1263H83.3127V80.5212Z" fill="white"/>
<path d="M83.3127 138.484H61.1062V141.089H83.3127V138.484Z" fill="white"/>
<path d="M98.2133 143.802H61.1062V146.407H98.2133V143.802Z" fill="white"/>
<path d="M89.3163 85.4414H61.1062V88.0464H89.3163V85.4414Z" fill="white"/>
<path d="M91.6005 104.292H62.8727C61.901 104.292 61.1062 103.496 61.1062 102.525V94.4808C61.1062 93.5088 61.9012 92.7136 62.8727 92.7136H91.6005C92.5721 92.7136 93.367 93.5089 93.367 94.4808V102.525C93.367 103.497 92.572 104.292 91.6005 104.292Z" fill="white"/>
<path d="M100.919 104.292H129.646C130.618 104.292 131.413 103.496 131.413 102.525V94.4808C131.413 93.5088 130.618 92.7136 129.646 92.7136H100.919C99.9469 92.7136 99.1521 93.5089 99.1521 94.4808V102.525C99.1521 103.497 99.9469 104.292 100.919 104.292Z" fill="white"/>
<path d="M128.539 133.708H63.9808C62.2197 133.708 60.7788 132.267 60.7788 130.505V111.838C60.7788 110.076 62.2197 108.634 63.9808 108.634H128.539C130.3 108.634 131.741 110.076 131.741 111.838V130.505C131.741 132.267 130.3 133.708 128.539 133.708Z" fill="white"/>
<path d="M89.6422 116.448H64.687V118.619H89.6422V116.448Z" fill="#E5F0F8"/>
<path d="M102.771 121.115H64.687V125.891H102.771V121.115Z" fill="#E5F0F8"/>
<path d="M130.601 161.712H61.9175C61.2908 161.712 60.7781 161.199 60.7781 160.572V150.478C60.7781 149.851 61.2908 149.338 61.9175 149.338H130.601C131.227 149.338 131.74 149.851 131.74 150.478V160.572C131.74 161.199 131.227 161.712 130.601 161.712Z" fill="#E5F0F8"/>
<path d="M95.0668 154.331H64.2527V156.719H95.0668V154.331Z" fill="white"/>
<path d="M119.642 156.72H128.266V154.332H119.642V156.72Z" fill="white"/>
<path d="M130.601 176.403H61.9175C61.2908 176.403 60.7781 175.89 60.7781 175.263V165.168C60.7781 164.542 61.2908 164.029 61.9175 164.029H130.601C131.227 164.029 131.74 164.542 131.74 165.168V175.263C131.74 175.89 131.227 176.403 130.601 176.403Z" fill="#E5F0F8"/>
<path d="M95.0668 169.021H64.2527V171.408H95.0668V169.021Z" fill="white"/>
<path d="M119.642 171.409H128.266V169.021H119.642V171.409Z" fill="white"/>
<path d="M220.523 179.798H151.16C147.544 179.798 144.612 176.865 144.612 173.247V39.2034C144.612 35.5855 147.544 32.6526 151.16 32.6526H220.523C224.139 32.6526 227.071 35.5855 227.071 39.2034V173.247C227.071 176.865 224.139 179.798 220.523 179.798Z" fill="white"/>
<path d="M221.65 57.6179C221.65 64.1331 216.37 69.4158 209.857 69.4158C206.305 69.4158 203.12 67.8444 200.962 65.3558C199.153 63.2876 198.064 60.5794 198.064 57.6179C198.064 51.1028 203.345 45.8201 209.857 45.8201C216.37 45.8201 221.65 51.1028 221.65 57.6179Z" fill="#E5F0F8"/>
<path d="M209.857 57.1744C204.777 56.8878 202.212 61.4827 200.962 65.3564C203.12 67.845 206.304 69.4164 209.857 69.4164C213.409 69.4164 216.593 67.845 218.751 65.3564C217.5 61.4827 214.937 56.8878 209.857 57.1744Z" fill="white"/>
<path d="M214.15 53.4427C214.15 56.9341 212.228 60.5894 209.858 60.5894C207.487 60.5894 205.565 56.9341 205.565 53.4427C205.565 49.9513 207.487 47.946 209.858 47.946C212.228 47.946 214.15 49.9513 214.15 53.4427Z" fill="white"/>
<path d="M180.49 45.8206H150.688V49.0072H180.49V45.8206Z" fill="#BBDBF3"/>
<path d="M188.374 52.6743H150.688V55.8609H188.374V52.6743Z" fill="#BBDBF3"/>
<path d="M172.895 80.5212H150.688V83.1263H172.895V80.5212Z" fill="#BBDBF3"/>
<path d="M172.895 138.484H150.688V141.089H172.895V138.484Z" fill="#E5F0F8"/>
<path d="M187.795 143.802H150.688V146.407H187.795V143.802Z" fill="#E5F0F8"/>
<path d="M178.898 85.4414H150.688V88.0464H178.898V85.4414Z" fill="#BBDBF3"/>
<path d="M181.183 104.292H152.455C151.483 104.292 150.688 103.496 150.688 102.525V94.4808C150.688 93.5088 151.483 92.7136 152.455 92.7136H181.183C182.154 92.7136 182.949 93.5089 182.949 94.4808V102.525C182.949 103.497 182.154 104.292 181.183 104.292Z" fill="#E5F0F8"/>
<path d="M190.5 104.292H219.228C220.199 104.292 220.994 103.496 220.994 102.525V94.4808C220.994 93.5088 220.199 92.7136 219.228 92.7136H190.5C189.528 92.7136 188.733 93.5089 188.733 94.4808V102.525C188.733 103.497 189.528 104.292 190.5 104.292Z" fill="#E5F0F8"/>
<path d="M218.12 133.708H153.562C151.801 133.708 150.36 132.267 150.36 130.505V111.838C150.36 110.076 151.801 108.634 153.562 108.634H218.12C219.881 108.634 221.322 110.076 221.322 111.838V130.505C221.322 132.267 219.881 133.708 218.12 133.708Z" fill="#E5F0F8"/>
<path d="M179.224 116.448H154.269V118.619H179.224V116.448Z" fill="#BBDBF3"/>
<path d="M192.353 121.115H154.269V125.891H192.353V121.115Z" fill="#BBDBF3"/>
<path d="M220.183 161.712H151.5C150.873 161.712 150.36 161.199 150.36 160.572V150.478C150.36 149.851 150.873 149.338 151.5 149.338H220.183C220.809 149.338 221.322 149.851 221.322 150.478V160.572C221.322 161.199 220.809 161.712 220.183 161.712Z" fill="#E5F0F8"/>
<path d="M184.649 154.331H153.835V156.719H184.649V154.331Z" fill="white"/>
<path d="M209.224 156.72H217.848V154.332H209.224V156.72Z" fill="white"/>
<path d="M220.183 176.403H151.5C150.873 176.403 150.36 175.89 150.36 175.263V165.168C150.36 164.542 150.873 164.029 151.5 164.029H220.183C220.809 164.029 221.322 164.542 221.322 165.168V175.263C221.322 175.89 220.809 176.403 220.183 176.403Z" fill="#E5F0F8"/>
<path d="M184.649 169.021H153.835V171.408H184.649V169.021Z" fill="white"/>
<path d="M209.224 171.409H217.848V169.021H209.224V171.409Z" fill="white"/>
<g opacity="0.5">
<path d="M84.9854 24.7801C84.9854 36.2335 94.2674 45.5084 105.705 45.5084C117.143 45.5084 126.425 36.2335 126.425 24.7801C126.425 17.9211 123.094 11.8385 117.952 8.07468L115.548 11.3532C119.677 14.3944 122.361 19.28 122.361 24.7801C122.361 33.9687 114.89 41.4425 105.705 41.4425C96.5205 41.4425 89.0495 33.9687 89.0495 24.7801C89.0495 15.6023 96.5203 8.12859 105.705 8.12859V4.06274C94.2674 4.06274 84.9854 13.3376 84.9854 24.7801Z" fill="#6ADB6A"/>
<path d="M89.0493 24.7802C89.0493 33.9687 96.5201 41.4426 105.705 41.4426C114.89 41.4426 122.361 33.9687 122.361 24.7802C122.361 19.2799 119.676 14.3945 115.548 11.3533L112.863 15.0093C115.86 17.2201 117.811 20.7791 117.811 24.7802C117.811 31.456 112.378 36.8915 105.705 36.8915C99.032 36.8915 93.5986 31.456 93.5986 24.7802C93.5986 18.1045 99.032 12.669 105.705 12.669V8.12866C96.5202 8.12866 89.0493 15.6025 89.0493 24.7802Z" fill="#98EB98"/>
<path d="M105.705 4.0625V8.12835C109.381 8.12835 112.787 9.32539 115.547 11.353L117.951 8.07444C114.523 5.55074 110.286 4.0625 105.705 4.0625Z" fill="#BBDBF3"/>
<path d="M105.705 8.12866V12.669C108.378 12.669 110.858 13.5426 112.863 15.0093L115.547 11.3533C112.787 9.32571 109.381 8.12866 105.705 8.12866Z" fill="#E5F0F8"/>
</g>
<path d="M96.9313 26.686C97.0492 27.042 97.2079 27.3076 97.4057 27.4816C97.6036 27.6562 97.8973 27.7435 98.287 27.7435C98.4813 27.7435 98.6638 27.7104 98.834 27.6439C99.0042 27.5775 99.1554 27.4872 99.2875 27.3715C99.4196 27.2565 99.5235 27.117 99.6003 26.9528C99.6765 26.7893 99.7153 26.606 99.7153 26.4032C99.7153 26.0963 99.6507 25.8504 99.5217 25.6653C99.392 25.4802 99.2267 25.3407 99.0244 25.2466C98.8216 25.1525 98.5986 25.091 98.3546 25.0633C98.11 25.0357 97.8696 25.0216 97.6324 25.0216V24.1417C98.0159 24.1417 98.3299 24.1159 98.5746 24.0636C98.8186 24.0108 99.0104 23.9364 99.1498 23.8386C99.2893 23.7409 99.387 23.6186 99.443 23.4722C99.499 23.3253 99.5266 23.1617 99.5266 22.9798C99.5266 22.5819 99.408 22.282 99.1708 22.0797C98.9336 21.8774 98.6373 21.7759 98.2815 21.7759C98.0092 21.7759 97.7634 21.8547 97.5435 22.0114C97.324 22.1688 97.1582 22.376 97.0462 22.6343L96.0211 22.2888C96.2159 21.8147 96.5146 21.4637 96.9159 21.2368C97.3166 21.0099 97.7653 20.8967 98.2605 20.8967C98.5605 20.8967 98.848 20.9367 99.124 21.0167C99.3993 21.0972 99.6414 21.2213 99.8511 21.3887C100.061 21.5559 100.226 21.7675 100.348 22.022C100.47 22.2772 100.532 22.5753 100.532 22.9171C100.532 23.3082 100.415 23.6568 100.181 23.9642C99.947 24.2716 99.6416 24.4807 99.2648 24.5925V24.6134C99.4952 24.6552 99.7011 24.7321 99.8824 24.8434C100.064 24.9553 100.217 25.0949 100.343 25.2621C100.469 25.43 100.563 25.6169 100.625 25.8222C100.688 26.0282 100.72 26.2464 100.72 26.4771C100.72 26.833 100.652 27.1453 100.515 27.4141C100.38 27.6828 100.198 27.9059 99.9715 28.0837C99.7448 28.262 99.4829 28.3967 99.1867 28.487C98.8899 28.5775 98.5777 28.6229 98.2501 28.6229C97.6846 28.6229 97.1875 28.4938 96.7585 28.2355C96.3296 27.9772 96.0316 27.569 95.8638 27.0108L96.9313 26.686Z" fill="#40A87B"/>
<path d="M106.13 22.0281H103.127L103.095 23.8811C103.144 23.8603 103.214 23.8394 103.305 23.8178C103.395 23.7969 103.488 23.7797 103.582 23.7656C103.676 23.752 103.768 23.7416 103.859 23.7343C103.95 23.7275 104.027 23.7239 104.09 23.7239C104.438 23.7239 104.754 23.7835 105.037 23.9022C105.319 24.0208 105.562 24.188 105.764 24.4045C105.966 24.6211 106.122 24.8791 106.23 25.1792C106.338 25.4793 106.392 25.8112 106.392 26.1741C106.392 26.5442 106.324 26.8793 106.188 27.1787C106.051 27.4793 105.865 27.7376 105.628 27.954C105.391 28.1704 105.115 28.3358 104.801 28.4508C104.487 28.5665 104.149 28.6236 103.786 28.6236C103.284 28.6236 102.83 28.4945 102.425 28.2362C102.021 27.978 101.731 27.6085 101.557 27.1265L102.562 26.781C102.695 27.1235 102.873 27.3694 103.097 27.5194C103.321 27.6693 103.602 27.7444 103.938 27.7444C104.134 27.7444 104.321 27.7093 104.5 27.6399C104.678 27.5698 104.832 27.4708 104.962 27.3411C105.091 27.212 105.195 27.0534 105.271 26.8652C105.348 26.6765 105.387 26.4637 105.387 26.2264C105.387 25.6816 105.221 25.2753 104.89 25.0065C104.559 24.7378 104.128 24.6039 103.597 24.6039C103.409 24.6039 103.17 24.637 102.881 24.7028C102.591 24.7692 102.321 24.865 102.07 24.9911L102.154 21.0857H106.13V22.0281Z" fill="#40A87B"/>
<path d="M107.407 22.7504C107.407 22.4922 107.456 22.2511 107.553 22.0279C107.651 21.8048 107.784 21.6092 107.951 21.4414C108.119 21.2742 108.314 21.1413 108.538 21.0435C108.761 20.9458 109.001 20.8972 109.26 20.8972C109.518 20.8972 109.758 20.9458 109.982 21.0435C110.205 21.1413 110.4 21.274 110.568 21.4414C110.735 21.6092 110.867 21.8048 110.966 22.0279C111.063 22.2511 111.112 22.4921 111.112 22.7504C111.112 23.0086 111.063 23.249 110.966 23.4729C110.867 23.6961 110.735 23.8916 110.568 24.0588C110.4 24.2266 110.205 24.3589 109.982 24.4566C109.758 24.5544 109.518 24.6036 109.26 24.6036C109.001 24.6036 108.761 24.5544 108.538 24.4566C108.314 24.3589 108.119 24.2266 107.951 24.0588C107.784 23.8916 107.651 23.6961 107.553 23.4729C107.456 23.249 107.407 23.0086 107.407 22.7504ZM108.223 22.7504C108.223 23.043 108.323 23.2896 108.522 23.4883C108.721 23.6874 108.966 23.7865 109.26 23.7865C109.553 23.7865 109.799 23.6876 109.997 23.4883C110.196 23.2897 110.296 23.0432 110.296 22.7504C110.296 22.4571 110.196 22.2112 109.997 22.012C109.799 21.8135 109.553 21.7138 109.26 21.7138C108.966 21.7138 108.721 21.8134 108.522 22.012C108.323 22.2112 108.223 22.4571 108.223 22.7504ZM109.48 28.8224L108.852 28.4978L113.508 20.7502L114.136 21.0749L109.48 28.8224ZM111.845 26.8335C111.845 26.5753 111.893 26.3342 111.991 26.111C112.089 25.8872 112.221 25.6918 112.388 25.5244C112.556 25.3572 112.751 25.2244 112.975 25.1266C113.198 25.0288 113.439 24.9803 113.697 24.9803C113.955 24.9803 114.195 25.0288 114.419 25.1266C114.642 25.2244 114.838 25.3571 115.005 25.5244C115.173 25.6916 115.305 25.8872 115.403 26.111C115.5 26.3342 115.549 26.5752 115.549 26.8335C115.549 27.0917 115.5 27.3321 115.403 27.5553C115.305 27.7791 115.173 27.9745 115.005 28.1419C114.838 28.3091 114.642 28.4419 114.419 28.5397C114.195 28.6375 113.955 28.6867 113.697 28.6867C113.439 28.6867 113.198 28.6375 112.975 28.5397C112.751 28.4419 112.556 28.3092 112.388 28.1419C112.221 27.9747 112.089 27.7791 111.991 27.5553C111.893 27.3321 111.845 27.0917 111.845 26.8335ZM112.661 26.8335C112.661 27.1261 112.76 27.372 112.959 27.5713C113.158 27.7705 113.404 27.8695 113.697 27.8695C113.99 27.8695 114.236 27.7705 114.434 27.5713C114.633 27.3722 114.733 27.1262 114.733 26.8335C114.733 26.5402 114.633 26.2943 114.434 26.0951C114.236 25.8966 113.99 25.797 113.697 25.797C113.404 25.797 113.158 25.8966 112.959 26.0951C112.76 26.2943 112.661 26.5402 112.661 26.8335Z" fill="#40A87B"/>
<g opacity="0.5">
<path d="M220.662 98.6868C220.662 109.039 229.052 117.422 239.39 117.422C249.728 117.422 258.118 109.039 258.118 98.6868C258.118 92.487 255.107 86.9892 250.459 83.5872L248.286 86.5506C252.018 89.2996 254.444 93.7154 254.444 98.6869C254.444 106.992 247.692 113.748 239.39 113.748C231.088 113.748 224.335 106.992 224.335 98.6869C224.335 90.3913 231.088 83.636 239.39 83.636V79.9609C229.052 79.9608 220.662 88.344 220.662 98.6868Z" fill="#6ADB6A"/>
<path d="M224.336 98.6872C224.336 106.992 231.088 113.748 239.39 113.748C247.692 113.748 254.445 106.992 254.445 98.6872C254.445 93.7156 252.018 89.2998 248.287 86.5508L245.86 89.8555C248.569 91.8538 250.333 95.0706 250.333 98.6872C250.333 104.721 245.422 109.634 239.39 109.634C233.359 109.634 228.448 104.721 228.448 98.6872C228.448 92.6531 233.359 87.7401 239.39 87.7401V83.6362C231.088 83.6362 224.336 90.3915 224.336 98.6872Z" fill="#98EB98"/>
<path d="M239.391 79.9609V83.636C242.713 83.636 245.792 84.718 248.287 86.5506L250.46 83.5872C247.361 81.3061 243.532 79.9609 239.391 79.9609Z" fill="#BBDBF3"/>
<path d="M239.391 83.6362V87.7401C241.807 87.7401 244.048 88.5296 245.861 89.8555L248.287 86.5508C245.792 84.7181 242.713 83.6362 239.391 83.6362Z" fill="#E5F0F8"/>
</g>
<path d="M232.235 97.9422H232.272C232.479 97.842 232.724 97.7917 233.006 97.7917C233.244 97.7917 233.485 97.8326 233.73 97.9142C233.974 97.9956 234.195 98.1226 234.393 98.295C234.59 98.4677 234.752 98.6871 234.877 98.9537C235.002 99.2202 235.065 99.5355 235.065 99.8991C235.065 100.269 235.004 100.594 234.882 100.873C234.759 101.152 234.595 101.385 234.388 101.574C234.181 101.762 233.94 101.903 233.664 101.997C233.388 102.091 233.093 102.138 232.78 102.138C232.466 102.138 232.172 102.088 231.896 101.988C231.62 101.888 231.379 101.743 231.172 101.555C230.965 101.367 230.8 101.141 230.678 100.878C230.556 100.614 230.495 100.32 230.495 99.9933C230.495 99.7864 230.51 99.5982 230.542 99.4288C230.573 99.2593 230.618 99.0981 230.678 98.9443C230.738 98.7906 230.808 98.6401 230.89 98.4928C230.971 98.3453 231.062 98.1902 231.163 98.0269L232.846 95.3645H233.909L232.235 97.9422ZM231.398 99.965C231.398 100.166 231.43 100.351 231.496 100.52C231.562 100.69 231.656 100.835 231.778 100.958C231.901 101.08 232.046 101.176 232.216 101.245C232.385 101.314 232.573 101.348 232.78 101.348C232.987 101.348 233.175 101.314 233.344 101.245C233.514 101.176 233.659 101.08 233.782 100.958C233.904 100.835 233.998 100.69 234.064 100.52C234.13 100.351 234.162 100.166 234.162 99.965C234.162 99.7645 234.129 99.5793 234.064 99.4098C233.998 99.2407 233.904 99.0948 233.782 98.9726C233.659 98.8502 233.514 98.7547 233.344 98.6856C233.175 98.6166 232.987 98.5821 232.78 98.5821C232.573 98.5821 232.385 98.6168 232.216 98.6856C232.046 98.7546 231.901 98.8502 231.778 98.9726C231.656 99.0948 231.562 99.2407 231.496 99.4098C231.43 99.5793 231.398 99.7645 231.398 99.965Z" fill="#40A87B"/>
<path d="M239.824 96.211H237.125L237.097 97.8763C237.14 97.8574 237.203 97.8389 237.285 97.8199C237.366 97.801 237.45 97.7855 237.534 97.7728C237.619 97.7603 237.702 97.7511 237.784 97.7447C237.865 97.7386 237.934 97.7353 237.99 97.7353C238.304 97.7353 238.587 97.7887 238.841 97.8952C239.096 98.0019 239.313 98.1524 239.495 98.3467C239.677 98.5411 239.816 98.7733 239.913 99.0429C240.01 99.3129 240.059 99.6107 240.059 99.9368C240.059 100.269 239.998 100.57 239.876 100.84C239.753 101.11 239.586 101.342 239.373 101.536C239.159 101.731 238.912 101.88 238.63 101.983C238.348 102.087 238.044 102.138 237.718 102.138C237.266 102.138 236.858 102.022 236.495 101.79C236.131 101.558 235.871 101.226 235.714 100.793L236.617 100.482C236.737 100.79 236.897 101.011 237.099 101.146C237.3 101.281 237.551 101.348 237.854 101.348C238.03 101.348 238.198 101.317 238.359 101.254C238.519 101.191 238.658 101.102 238.774 100.986C238.89 100.87 238.983 100.727 239.052 100.558C239.122 100.388 239.156 100.197 239.156 99.9838C239.156 99.4944 239.007 99.1292 238.71 98.8879C238.412 98.6465 238.025 98.5257 237.548 98.5257C237.379 98.5257 237.164 98.5556 236.904 98.615C236.644 98.6746 236.401 98.7609 236.175 98.8737L236.25 95.3645H239.824V96.211Z" fill="#40A87B"/>
<path d="M240.971 96.8608C240.971 96.6288 241.015 96.4126 241.103 96.2115C241.191 96.0111 241.31 95.8352 241.46 95.6847C241.611 95.5343 241.786 95.4151 241.987 95.3274C242.188 95.2397 242.404 95.1955 242.636 95.1955C242.868 95.1955 243.084 95.2397 243.285 95.3274C243.486 95.4151 243.661 95.5343 243.811 95.6847C243.962 95.8352 244.081 96.0111 244.169 96.2115C244.257 96.4126 244.301 96.6288 244.301 96.8608C244.301 97.0928 244.257 97.3093 244.169 97.51C244.081 97.7108 243.962 97.8863 243.811 98.0368C243.661 98.1873 243.486 98.3065 243.285 98.3942C243.084 98.4822 242.868 98.526 242.636 98.526C242.404 98.526 242.188 98.4822 241.987 98.3942C241.786 98.3065 241.611 98.1873 241.46 98.0368C241.31 97.8863 241.191 97.7108 241.103 97.51C241.015 97.3093 240.971 97.0928 240.971 96.8608ZM241.705 96.8608C241.705 97.1243 241.794 97.3453 241.973 97.5241C242.151 97.7029 242.373 97.7922 242.636 97.7922C242.899 97.7922 243.12 97.7029 243.299 97.5241C243.477 97.3453 243.567 97.1243 243.567 96.8608C243.567 96.5972 243.477 96.3763 243.299 96.1974C243.12 96.0186 242.899 95.9294 242.636 95.9294C242.373 95.9294 242.151 96.0186 241.973 96.1974C241.794 96.3763 241.705 96.5972 241.705 96.8608ZM242.833 102.317L242.269 102.026L246.454 95.0637L247.018 95.3553L242.833 102.317ZM244.959 100.53C244.959 100.298 245.003 100.082 245.09 99.8806C245.178 99.6801 245.297 99.5043 245.448 99.3538C245.598 99.2033 245.774 99.0841 245.974 98.9964C246.175 98.9087 246.391 98.8646 246.623 98.8646C246.855 98.8646 247.071 98.9087 247.272 98.9964C247.473 99.0841 247.648 99.2033 247.799 99.3538C247.949 99.5043 248.068 99.6801 248.156 99.8806C248.244 100.082 248.288 100.298 248.288 100.53C248.288 100.762 248.244 100.978 248.156 101.179C248.068 101.38 247.95 101.555 247.799 101.706C247.649 101.856 247.473 101.976 247.272 102.063C247.071 102.151 246.855 102.195 246.623 102.195C246.391 102.195 246.175 102.151 245.974 102.063C245.774 101.976 245.598 101.856 245.448 101.706C245.297 101.555 245.178 101.38 245.09 101.179C245.003 100.978 244.959 100.762 244.959 100.53ZM245.692 100.53C245.692 100.793 245.782 101.014 245.96 101.193C246.139 101.372 246.36 101.461 246.623 101.461C246.886 101.461 247.108 101.372 247.286 101.193C247.465 101.014 247.554 100.793 247.554 100.53C247.554 100.267 247.465 100.045 247.286 99.8666C247.108 99.6878 246.886 99.5985 246.623 99.5985C246.36 99.5985 246.139 99.6878 245.96 99.8666C245.782 100.045 245.692 100.267 245.692 100.53Z" fill="#40A87B"/>
<path d="M93.5461 94.071H26.304V190.563H93.5461V94.071Z" fill="#088CFC"/>
<path d="M94.4426 94.071H27.2004V190.563H94.4426V94.071Z" fill="#2EC6FC"/>
<path d="M90.5624 97.3384V186.778H31.0796V104.167L44.8451 97.3384H90.5624Z" fill="white"/>
<path d="M44.8451 97.3384L33.7456 107.515L31.0796 104.167L44.8451 97.3384Z" fill="#E5F0F8"/>
<path d="M70.1402 102.529H51.5034C49.7726 102.529 48.3696 101.125 48.3696 99.394V93.2805H73.2741V99.394C73.2741 101.125 71.8711 102.529 70.1402 102.529Z" fill="#93ACBF"/>
<path d="M70.1402 101.963H51.5034C49.7726 101.963 48.3696 100.56 48.3696 98.8284V92.7148H73.2741V98.8284C73.2741 100.56 71.8711 101.963 70.1402 101.963Z" fill="#BBDBF3"/>
<path d="M54.0147 95.4287C53.2291 94.829 52.1514 94.8848 51.4357 95.5096C51.3319 95.6003 51.2365 95.7007 51.15 95.8141C51.0635 95.9275 50.9906 96.048 50.932 96.1702C50.5206 97.0272 50.7497 98.0803 51.5353 98.6798C52.3189 99.2778 53.3966 99.2221 54.1142 98.5989C54.2165 98.5101 54.3134 98.4078 54.3998 98.2943C54.4863 98.1809 54.5578 98.0624 54.6179 97.9381C55.0314 97.0828 54.7983 96.0267 54.0147 95.4287Z" fill="#93ACBF"/>
<path d="M51.6595 95.3873C52.3664 94.8479 53.3361 94.8978 53.98 95.46C54.0734 95.5417 54.1592 95.6319 54.2371 95.734C54.3149 95.8361 54.3806 95.9445 54.4333 96.0544C54.8035 96.8256 54.5974 97.7732 53.8905 98.3126C53.1854 98.8508 52.2156 98.8007 51.5699 98.2398C51.4778 98.1599 51.3906 98.0679 51.3129 97.9658C51.235 97.8638 51.1707 97.7571 51.1166 97.6454C50.7447 96.8757 50.9543 95.9255 51.6595 95.3873Z" fill="#F9E181"/>
<path d="M51.1167 97.645L53.98 95.4595C54.0734 95.5412 54.1593 95.6314 54.2372 95.7334C54.3149 95.8355 54.3807 95.944 54.4334 96.0539L51.57 98.2394C51.4778 98.1595 51.3907 98.0675 51.3129 97.9654C51.235 97.8633 51.1707 97.7567 51.1167 97.645Z" fill="#F2BB16"/>
<path d="M70.1079 95.4287C69.3223 94.829 68.2446 94.8848 67.529 95.5096C67.4252 95.6003 67.3298 95.7007 67.2433 95.8141C67.1568 95.9275 67.0837 96.048 67.0253 96.1702C66.6139 97.0272 66.843 98.0803 67.6286 98.6798C68.4122 99.2778 69.4899 99.2221 70.2075 98.5989C70.3097 98.5101 70.4067 98.4078 70.4931 98.2943C70.5796 98.1809 70.6511 98.0624 70.7112 97.9381C71.1247 97.0828 70.8915 96.0267 70.1079 95.4287Z" fill="#93ACBF"/>
<path d="M69.9843 95.3873C69.2774 94.8479 68.3077 94.8978 67.6637 95.46C67.5703 95.5417 67.4844 95.6319 67.4067 95.734C67.3289 95.8361 67.2631 95.9445 67.2104 96.0544C66.8403 96.8256 67.0464 97.7732 67.7533 98.3126C68.4584 98.8508 69.4282 98.8007 70.0739 98.2398C70.166 98.1599 70.2532 98.0679 70.3309 97.9658C70.4087 97.8638 70.4731 97.7571 70.5271 97.6454C70.899 96.8757 70.6893 95.9255 69.9843 95.3873Z" fill="#F9E181"/>
<path d="M70.5275 97.6452L67.6642 95.4597C67.5708 95.5414 67.4849 95.6316 67.4072 95.7337C67.3294 95.8358 67.2636 95.9442 67.2109 96.0541L70.0743 98.2396C70.1664 98.1597 70.2535 98.0677 70.3313 97.9657C70.409 97.8636 70.4735 97.757 70.5275 97.6452Z" fill="#F2BB16"/>
<path d="M67.2102 93.1003L61.5636 101.578H57.4387L63.0855 93.1003H67.2102Z" fill="#E5F0F8"/>
<path d="M60.8687 93.1003L55.222 101.578H53.2866L58.9334 93.1003H60.8687Z" fill="#E5F0F8"/>
<path d="M39.5938 123.385C42.8727 123.385 45.5307 120.726 45.5307 117.446C45.5307 114.166 42.8727 111.507 39.5938 111.507C36.315 111.507 33.657 114.166 33.657 117.446C33.657 120.726 36.315 123.385 39.5938 123.385Z" fill="#2EC6FC"/>
<path d="M44.7109 118.668C45.379 115.837 43.627 113.001 40.7976 112.332C37.9682 111.664 35.1329 113.417 34.4648 116.247C33.7967 119.078 35.5488 121.914 38.3782 122.583C41.2076 123.251 44.0428 121.498 44.7109 118.668Z" fill="white"/>
<path d="M39.5941 122.334C42.2928 122.334 44.4806 120.146 44.4806 117.446C44.4806 114.746 42.2928 112.557 39.5941 112.557C36.8953 112.557 34.7075 114.746 34.7075 117.446C34.7075 120.146 36.8953 122.334 39.5941 122.334Z" stroke="#2EC6FC" strokeWidth="1.3137" strokeMiterlimit="10"/>
<path d="M41.8514 114.292L39.0326 119.149L39.0079 119.191L37.6118 117.07L36.6868 117.681L38.5755 120.548L39.0389 120.535L39.517 120.521L42.8093 114.848L41.8514 114.292Z" fill="#6ADB6A"/>
<path d="M72.9917 105.551H48.6499V106.779H72.9917V105.551Z" fill="#E5F0F8"/>
<path d="M74.5807 107.961H47.061V109.19H74.5807V107.961Z" fill="#E5F0F8"/>
<path d="M87.9866 111.507H47.7498V112.143H87.9866V111.507Z" fill="#E5F0F8"/>
<path d="M87.9866 112.911H47.7498V113.548H87.9866V112.911Z" fill="#E5F0F8"/>
<path d="M87.9866 114.317H47.7498V114.954H87.9866V114.317Z" fill="#E5F0F8"/>
<path d="M87.9866 115.722H47.7498V116.359H87.9866V115.722Z" fill="#E5F0F8"/>
<path d="M87.9866 117.127H47.7498V117.764H87.9866V117.127Z" fill="#E5F0F8"/>
<path d="M87.9866 118.533H47.7498V119.169H87.9866V118.533Z" fill="#E5F0F8"/>
<path d="M87.9866 119.938H47.7498V120.574H87.9866V119.938Z" fill="#E5F0F8"/>
<path d="M87.9866 121.344H47.7498V121.98H87.9866V121.344Z" fill="#E5F0F8"/>
<path d="M87.9866 122.749H47.7498V123.385H87.9866V122.749Z" fill="#E5F0F8"/>
<path d="M39.5931 138.068C42.8719 138.068 45.5299 135.409 45.5299 132.129C45.5299 128.849 42.8719 126.189 39.5931 126.189C36.3143 126.189 33.6562 128.849 33.6562 132.129C33.6562 135.409 36.3143 138.068 39.5931 138.068Z" fill="#F9E181"/>
<path d="M43.3133 135.851C45.369 133.794 45.369 130.46 43.3133 128.403C41.2575 126.347 37.9245 126.347 35.8688 128.403C33.813 130.46 33.813 133.794 35.8688 135.851C37.9245 137.907 41.2575 137.907 43.3133 135.851Z" fill="white"/>
<path d="M39.5921 137.017C42.2909 137.017 44.4787 134.829 44.4787 132.129C44.4787 129.429 42.2909 127.24 39.5921 127.24C36.8933 127.24 34.7056 129.429 34.7056 132.129C34.7056 134.829 36.8933 137.017 39.5921 137.017Z" stroke="#F9E181" strokeWidth="1.3137" strokeMiterlimit="10"/>
<path d="M41.8412 129.069L36.5354 134.376L37.3433 135.185L42.6491 129.877L41.8412 129.069Z" fill="#F74242"/>
<path d="M37.3433 129.069L36.5354 129.877L41.8412 135.185L42.649 134.377L37.3433 129.069Z" fill="#F74242"/>
<path d="M39.5928 167.411C42.8717 167.411 45.5297 164.752 45.5297 161.472C45.5297 158.192 42.8717 155.532 39.5928 155.532C36.314 155.532 33.656 158.192 33.656 161.472C33.656 164.752 36.314 167.411 39.5928 167.411Z" fill="#F9E181"/>
<path d="M44.7073 162.696C45.3754 159.865 43.6233 157.029 40.7939 156.36C37.9645 155.692 35.1293 157.445 34.4612 160.275C33.7931 163.106 35.5451 165.942 38.3745 166.611C41.2039 167.279 44.0392 165.526 44.7073 162.696Z" fill="white"/>
<path d="M39.5926 166.36C42.2914 166.36 44.4791 164.172 44.4791 161.472C44.4791 158.772 42.2914 156.583 39.5926 156.583C36.8938 156.583 34.7061 158.772 34.7061 161.472C34.7061 164.172 36.8938 166.36 39.5926 166.36Z" stroke="#F9E181" strokeWidth="1.3137" strokeMiterlimit="10"/>
<path d="M41.8409 158.412L36.5352 163.719L37.343 164.528L42.6488 159.22L41.8409 158.412Z" fill="#F74242"/>
<path d="M37.3438 158.41L36.5359 159.219L41.8416 164.526L42.6495 163.718L37.3438 158.41Z" fill="#F74242"/>
<path d="M87.9864 126.19H47.7495V126.826H87.9864V126.19Z" fill="#E5F0F8"/>
<path d="M87.9866 127.594H47.7498V128.231H87.9866V127.594Z" fill="#E5F0F8"/>
<path d="M87.9866 129H47.7498V129.637H87.9866V129Z" fill="#E5F0F8"/>
<path d="M87.9866 130.405H47.7498V131.041H87.9866V130.405Z" fill="#E5F0F8"/>
<path d="M87.9866 131.811H47.7498V132.448H87.9866V131.811Z" fill="#E5F0F8"/>
<path d="M87.9866 133.216H47.7498V133.852H87.9866V133.216Z" fill="#E5F0F8"/>
<path d="M87.9866 134.621H47.7498V135.257H87.9866V134.621Z" fill="#E5F0F8"/>
<path d="M39.5941 152.752C42.8729 152.752 45.5309 150.093 45.5309 146.813C45.5309 143.533 42.8729 140.874 39.5941 140.874C36.3152 140.874 33.6572 143.533 33.6572 146.813C33.6572 150.093 36.3152 152.752 39.5941 152.752Z" fill="#2EC6FC"/>
<path d="M44.7092 148.037C45.3773 145.206 43.6253 142.37 40.7959 141.701C37.9665 141.033 35.1312 142.786 34.4631 145.616C33.795 148.447 35.5471 151.283 38.3765 151.952C41.2059 152.62 44.0411 150.867 44.7092 148.037Z" fill="white"/>
<path d="M39.5946 151.701C42.2933 151.701 44.4811 149.513 44.4811 146.813C44.4811 144.113 42.2933 141.924 39.5946 141.924C36.8958 141.924 34.708 144.113 34.708 146.813C34.708 149.513 36.8958 151.701 39.5946 151.701Z" stroke="#2EC6FC" strokeWidth="1.3137" strokeMiterlimit="10"/>
<path d="M41.8504 143.659L39.0317 148.516L39.0069 148.558L37.6108 146.438L36.6858 147.048L38.5745 149.915L39.0379 149.902L39.516 149.889L42.8083 144.215L41.8504 143.659Z" fill="#6ADB6A"/>
<path d="M87.9864 140.874H47.7495V141.51H87.9864V140.874Z" fill="#E5F0F8"/>
<path d="M87.9866 142.279H47.7498V142.915H87.9866V142.279Z" fill="#E5F0F8"/>
<path d="M87.9866 143.685H47.7498V144.321H87.9866V143.685Z" fill="#E5F0F8"/>
<path d="M87.9866 145.089H47.7498V145.726H87.9866V145.089Z" fill="#E5F0F8"/>
<path d="M87.9866 146.495H47.7498V147.131H87.9866V146.495Z" fill="#E5F0F8"/>
<path d="M87.9866 147.9H47.7498V148.537H87.9866V147.9Z" fill="#E5F0F8"/>
<path d="M64.1828 149.305H47.7498V149.941H64.1828V149.305Z" fill="#E5F0F8"/>
<path d="M87.9864 155.558H47.7495V156.194H87.9864V155.558Z" fill="#E5F0F8"/>
<path d="M87.9866 156.963H47.7498V157.599H87.9866V156.963Z" fill="#E5F0F8"/>
<path d="M87.9866 158.369H47.7498V159.005H87.9866V158.369Z" fill="#E5F0F8"/>
<path d="M87.9866 159.773H47.7498V160.41H87.9866V159.773Z" fill="#E5F0F8"/>
<path d="M87.9866 161.179H47.7498V161.815H87.9866V161.179Z" fill="#E5F0F8"/>
<path d="M87.9866 162.584H47.7498V163.221H87.9866V162.584Z" fill="#E5F0F8"/>
<path d="M39.5928 182.12C42.8717 182.12 45.5297 179.461 45.5297 176.181C45.5297 172.901 42.8717 170.241 39.5928 170.241C36.314 170.241 33.656 172.901 33.656 176.181C33.656 179.461 36.314 182.12 39.5928 182.12Z" fill="#2EC6FC"/>
<path d="M44.7073 177.405C45.3754 174.575 43.6233 171.738 40.7939 171.07C37.9645 170.402 35.1293 172.154 34.4612 174.985C33.7931 177.816 35.5451 180.652 38.3745 181.32C41.2039 181.989 44.0392 180.236 44.7073 177.405Z" fill="white"/>
<path d="M39.5933 181.069C42.2921 181.069 44.4799 178.881 44.4799 176.181C44.4799 173.481 42.2921 171.292 39.5933 171.292C36.8946 171.292 34.7068 173.481 34.7068 176.181C34.7068 178.881 36.8946 181.069 39.5933 181.069Z" stroke="#2EC6FC" strokeWidth="1.3137" strokeMiterlimit="10"/>
<path d="M41.8504 173.027L39.0317 177.884L39.0069 177.926L37.6108 175.806L36.6858 176.416L38.5745 179.283L39.0379 179.27L39.516 179.257L42.8083 173.583L41.8504 173.027Z" fill="#6ADB6A"/>
<path d="M87.9866 170.242H47.7498V170.878H87.9866V170.242Z" fill="#E5F0F8"/>
<path d="M87.9866 171.647H47.7498V172.283H87.9866V171.647Z" fill="#E5F0F8"/>
<path d="M87.9866 173.053H47.7498V173.689H87.9866V173.053Z" fill="#E5F0F8"/>
<path d="M87.9866 174.458H47.7498V175.094H87.9866V174.458Z" fill="#E5F0F8"/>
<path d="M87.9866 175.864H47.7498V176.5H87.9866V175.864Z" fill="#E5F0F8"/>
<path d="M87.9866 177.268H47.7498V177.905H87.9866V177.268Z" fill="#E5F0F8"/>
<path d="M87.9866 178.673H47.7498V179.31H87.9866V178.673Z" fill="#E5F0F8"/>
<path d="M87.9866 180.079H47.7498V180.716H87.9866V180.079Z" fill="#E5F0F8"/>
<path d="M87.9866 181.484H47.7498V182.12H87.9866V181.484Z" fill="#E5F0F8"/>
<path d="M45.8178 27.2107C45.7888 28.9135 44.4771 30.3007 42.8218 30.4551C43.1443 32.0071 43.7216 33.5128 44.5619 34.9115C45.8841 33.8921 47.7839 34.003 48.9738 35.2392C49.2864 35.5593 49.5182 35.9338 49.6756 36.326C50.1053 37.4261 49.9214 38.7125 49.1414 39.658C50.0245 40.2335 50.9559 40.7001 51.9192 41.0663C52.356 41.2295 52.8015 41.3738 53.2493 41.4936C53.3371 41.5214 53.4298 41.5425 53.5167 41.5646C53.7377 39.9089 55.1653 38.6523 56.8675 38.6812C57.7283 38.7001 58.5021 39.0366 59.077 39.5834C59.65 40.1185 60.0286 40.8572 60.1105 41.6784C61.6561 41.3567 63.1614 40.7792 64.5536 39.9394C63.5463 38.6149 63.6638 36.7193 64.8879 35.5306C66.1186 34.3468 68.0178 34.303 69.305 35.3629C70.1919 34.0011 70.8266 32.5123 71.2041 30.9809C69.5549 30.7589 68.2997 29.3364 68.3344 27.6327C68.3634 25.9297 69.6751 24.5426 71.3306 24.3882C71.009 22.842 70.4307 21.3304 69.5913 19.9377C68.4131 20.8509 66.7572 20.8505 65.5721 19.9472C65.4385 19.8551 65.3068 19.7389 65.1851 19.6092C63.9952 18.373 63.9512 16.4731 65.0173 15.1903C64.1871 14.6481 63.3118 14.1966 62.4036 13.8395C61.9668 13.6761 61.526 13.5253 61.0773 13.3996C60.9278 13.3577 60.7782 13.3158 60.6296 13.2797C60.4143 14.9344 58.9867 16.191 57.2835 16.1563C56.973 16.1517 56.6735 16.1037 56.3928 16.0229C55.1173 15.6405 54.172 14.5207 54.0413 13.1648C52.4957 13.4865 50.9905 14.0641 49.5983 14.9038C50.6057 16.2283 50.488 18.1239 49.2641 19.3126C48.0333 20.4962 46.1342 20.5402 44.847 19.4804C43.9601 20.8421 43.3255 22.3309 42.9421 23.8632C44.5966 24.0786 45.8468 25.5077 45.8178 27.2107ZM52.1792 22.3438C52.9594 21.5889 53.8693 21.0517 54.8374 20.732C56.0879 20.3139 57.4308 20.2566 58.706 20.5615C59.1569 20.663 59.6045 20.8188 60.0293 21.0198C60.8058 21.3737 61.529 21.8791 62.1561 22.5308C62.9396 23.3426 63.4895 24.2984 63.8032 25.3036C64.5802 27.773 63.9578 30.5827 61.9673 32.5002C61.7293 32.7285 61.477 32.9411 61.2143 33.1257C59.5703 34.333 57.5298 34.7269 55.6259 34.3247C55.17 34.2298 54.7244 34.0858 54.2897 33.8982C53.4531 33.5418 52.6732 33.0156 52.0029 32.3171C51.7392 32.043 51.5027 31.7525 51.2878 31.4469C49.34 28.6562 49.6514 24.7814 52.1792 22.3438Z" fill="#93ACBF"/>
<path d="M57.0768 36.2237C61.9359 36.2237 65.875 32.283 65.875 27.4219C65.875 22.5608 61.9359 18.6201 57.0768 18.6201C52.2177 18.6201 48.2786 22.5608 48.2786 27.4219C48.2786 32.283 52.2177 36.2237 57.0768 36.2237Z" fill="#E5F0F8"/>
<path d="M57.077 35.6953C61.6445 35.6953 65.3473 31.9911 65.3473 27.4216C65.3473 22.8522 61.6445 19.1479 57.077 19.1479C52.5094 19.1479 48.8066 22.8522 48.8066 27.4216C48.8066 31.9911 52.5094 35.6953 57.077 35.6953Z" fill="white"/>
<path d="M63.0225 26.3838H51.1311V28.4593H63.0225V26.3838Z" fill="#F74242"/>
<path d="M206.181 27.0178C206.126 30.2641 203.626 32.9085 200.47 33.2027C201.085 36.1613 202.185 39.0318 203.787 41.6982C206.308 39.7549 209.93 39.9664 212.198 42.3229C212.794 42.9329 213.236 43.6469 213.536 44.3947C214.355 46.4918 214.004 48.9441 212.518 50.7468C214.201 51.844 215.977 52.7334 217.813 53.4315C218.646 53.743 219.495 54.0177 220.349 54.2463C220.516 54.2993 220.693 54.3395 220.859 54.3815C221.28 51.225 224.002 48.8296 227.247 48.8849C228.887 48.9209 230.363 49.5624 231.458 50.6048C232.551 51.625 233.273 53.0331 233.429 54.5987C236.375 53.9855 239.245 52.8844 241.899 51.2835C239.979 48.7584 240.203 45.1447 242.536 42.8788C244.882 40.6223 248.503 40.5386 250.957 42.559C252.648 39.963 253.857 37.125 254.577 34.2054C251.433 33.7821 249.04 31.0703 249.106 27.8224C249.162 24.5761 251.662 21.9315 254.818 21.6373C254.205 18.6898 253.103 15.8082 251.502 13.153C249.256 14.8938 246.1 14.893 243.84 13.1711C243.586 12.9956 243.335 12.7739 243.103 12.5266C240.834 10.1701 240.751 6.54816 242.783 4.10265C241.201 3.06915 239.532 2.20821 237.8 1.52753C236.968 1.2161 236.128 0.928553 235.272 0.688909C234.987 0.608898 234.702 0.529015 234.418 0.460228C234.008 3.61488 231.286 6.01039 228.039 5.94409C227.448 5.93534 226.877 5.84384 226.342 5.68982C223.91 4.96084 222.108 2.82599 221.859 0.241211C218.912 0.854546 216.043 1.95552 213.389 3.5564C215.309 6.08153 215.085 9.69536 212.752 11.9611C210.405 14.2176 206.785 14.3013 204.331 12.2809C202.64 14.8768 201.431 17.7149 200.7 20.6363C203.853 21.0468 206.237 23.7714 206.181 27.0178ZM218.309 17.74C219.796 16.3008 221.531 15.277 223.376 14.6672C225.76 13.8701 228.32 13.7608 230.751 14.3423C231.611 14.536 232.464 14.8328 233.274 15.216C234.754 15.8908 236.133 16.8544 237.328 18.0968C238.822 19.6443 239.87 21.4666 240.468 23.3827C241.949 28.0902 240.763 33.4464 236.968 37.1019C236.515 37.537 236.034 37.9425 235.533 38.2942C232.399 40.5958 228.509 41.3468 224.879 40.5801C224.01 40.3993 223.161 40.1247 222.332 39.7672C220.737 39.0877 219.25 38.0845 217.973 36.7529C217.47 36.2302 217.019 35.6767 216.609 35.094C212.896 29.7734 213.49 22.3867 218.309 17.74Z" fill="#088CFC"/>
<path d="M239.503 39.2885C246.053 32.7358 246.053 22.1118 239.503 15.5592C232.953 9.00648 222.333 9.00649 215.783 15.5592C209.233 22.1118 209.233 32.7358 215.783 39.2885C222.333 45.8412 232.953 45.8412 239.503 39.2885Z" fill="#E5F0F8"/>
<path d="M238.79 38.5766C244.947 32.4171 244.947 22.4305 238.79 16.271C232.633 10.1115 222.651 10.1115 216.494 16.271C210.337 22.4306 210.337 32.4171 216.494 38.5766C222.651 44.7362 232.633 44.7362 238.79 38.5766Z" fill="white"/>
<path d="M238.98 25.4441H216.311V29.4007H238.98V25.4441Z" fill="#6ADB6A"/>
<path d="M229.622 16.0837H225.667V38.7624H229.622V16.0837Z" fill="#6ADB6A"/>
<path d="M199.448 106.816L206.872 106.69L206.483 98.8913L206.297 95.162L206.287 94.9762L200.478 92.5332L200.289 95.169L200.149 97.0897L199.448 106.816Z" fill="#FDAE97"/>
<path d="M213.966 130.957L217.088 156.812C217.187 157.465 217.183 158.144 217.05 158.83C216.423 162.058 213.298 164.167 210.072 163.539C206.845 162.912 205.61 160.419 205.03 156.712C203.918 149.597 200.032 128.248 200.032 128.248L213.966 130.957Z" fill="#088CFC"/>
<path d="M193.724 129.655L205.192 130.425L205.135 143.136L203.774 145.149L202.512 157.403L190.903 156.474L193.724 129.655Z" fill="#088CFC"/>
<path d="M223.401 123.883L223.362 123.909C221.651 125.048 219.32 124.579 218.182 122.868L208.906 108.922C207.768 107.211 208.236 104.879 209.947 103.74L209.986 103.714C211.697 102.575 214.028 103.044 215.166 104.755L224.442 118.7C225.58 120.412 225.112 122.744 223.401 123.883Z" fill="#F74242"/>
<path d="M173.977 106.134L177.033 110.227L181.013 107.803L177.785 103.557L173.265 103.983L173.977 106.134Z" fill="#E89780"/>
<path d="M188.389 124.645C186.535 125.724 184.229 125.265 183.282 123.626L178.597 115.061L176.945 112.025L175.215 108.865L178.091 106.876L180.133 105.466L180.33 105.327L182.429 108.442L184.356 111.295L190.027 119.698C190.974 121.337 190.243 123.567 188.389 124.645Z" fill="#F74242"/>
<path d="M203.063 103.556C200.339 103.616 199.179 102.261 198.829 101.729L199.847 101.269L206.584 100.93L207.393 101.189C207.051 101.825 205.846 103.495 203.063 103.556Z" fill="#FDAE97"/>
<path d="M193.396 120.51L193.235 131.654H214.205L213.956 103.558L206.76 100.957C206.68 101.105 206.592 101.259 206.485 101.421L206.458 101.454C206.068 101.952 205.322 102.422 203.233 102.469C201.492 102.509 200.639 102.267 200.156 101.952L200.149 101.945C199.887 101.77 199.732 101.562 199.611 101.373L192.818 102.872L193.275 117.055L193.396 120.51Z" fill="#F74242"/>
<path d="M219.262 183.053L208.475 183.046L205.224 157.933C204.884 154.66 207.256 151.729 210.523 151.385C213.794 151.045 216.719 153.417 217.063 156.686C217.094 156.97 217.098 157.247 217.088 157.529L218.966 179.571L219.262 183.053Z" fill="#088CFC"/>
<path d="M184.63 124.809C186.49 125.757 188.786 125.011 189.734 123.151L197.35 108.203C198.298 106.343 197.552 104.045 195.693 103.097C193.833 102.149 191.537 102.896 190.589 104.755L182.973 119.703C182.025 121.563 182.771 123.861 184.63 124.809Z" fill="#F74242"/>
<path d="M170.323 97.8155C181.198 84.0091 178.822 63.9151 165.022 53.028C151.214 42.1403 131.135 44.5255 120.253 58.3311C109.369 72.1445 111.746 92.2307 125.554 103.118C139.354 114.005 159.439 111.629 170.323 97.8155ZM127.463 100.697C114.974 90.8475 112.829 72.7265 122.674 60.2408C132.519 47.7473 150.617 45.6001 163.106 55.4413C175.601 65.2987 177.748 83.4041 167.903 95.8977C158.058 108.391 139.959 110.546 127.463 100.697Z" fill="#93ACBF"/>
<path d="M167.903 95.8981C177.748 83.4045 175.602 65.2991 163.106 55.4417C150.617 45.6005 132.519 47.7477 122.674 60.2412C112.83 72.727 114.975 90.8479 127.463 100.697C139.959 110.547 158.058 108.392 167.903 95.8981ZM128.431 99.464C116.624 90.1521 114.598 73.0219 123.906 61.21C133.215 49.398 150.33 47.3706 162.138 56.6747C173.952 65.9952 175.979 83.1176 166.67 94.9296C157.362 106.741 140.246 108.777 128.431 99.464Z" fill="#586773"/>
<path opacity="0.3" d="M166.67 94.9281C175.978 83.1162 173.952 65.9937 162.138 56.6732C150.33 47.369 133.214 49.3966 123.906 61.2085C114.598 73.0205 116.624 90.1506 128.431 99.4625C140.246 108.775 157.362 106.74 166.67 94.9281Z" fill="#E5F0F8"/>
<path d="M180.933 108.242L182.041 106.911L168.55 96.2786L167.523 97.6722L180.933 108.242Z" fill="#93ACBF"/>
<path d="M211.17 130.883C211.176 130.878 211.177 130.873 211.182 130.869C211.888 129.978 211.734 128.684 210.839 127.978L182.867 105.922L182.042 106.911L181.535 107.515L180.934 108.242L180.232 109.085L208.293 131.212C209.178 131.912 210.46 131.767 211.17 130.883Z" fill="#586773"/>
<path d="M211.17 130.884C211.166 130.878 211.156 130.872 211.146 130.866L181.535 107.516L180.934 108.242L180.232 109.085L208.293 131.212C209.178 131.912 210.46 131.768 211.17 130.884Z" fill="#93ACBF"/>
<path d="M200.042 90.1108C200.042 90.1108 199.983 87.5413 200.687 87.5413C201.39 87.5413 201.182 90.1046 200.042 90.1108Z" fill="#332B27"/>
<path d="M200.155 101.952L203.232 106.819L206.458 101.455C206.068 101.952 205.322 102.423 203.232 102.47C201.492 102.51 200.639 102.268 200.155 101.952Z" fill="#D6EAFF"/>
<path d="M197.289 125.692C197.333 126.019 199.288 126.439 200.739 126.285C201.969 126.155 204.773 125.551 205.598 125.367L205.289 121.443C204.793 121.418 204.247 121.374 203.784 121.277C202.641 121.048 199.465 120.779 199.43 121.241C199.392 121.698 201.535 122.321 201.362 122.501C201.189 122.682 199.512 122.59 198.802 122.494C198.088 122.401 196.597 121.951 196.306 122.251C196.01 122.555 196.333 123.084 196.333 123.084C196.333 123.084 195.782 122.845 195.697 123.217C195.611 123.588 196.375 124.173 196.375 124.173C196.375 124.173 196.087 124.006 196.094 124.438C196.104 124.874 197.537 125.352 197.537 125.352C197.537 125.352 197.236 125.364 197.289 125.692Z" fill="#FDAE97"/>
<path d="M202.553 156.951L199.783 183.053H189.186L190.885 156.808C190.871 156.532 190.949 156.223 190.972 155.937C191.263 152.659 193.866 150.211 197.143 150.497C200.415 150.787 202.839 153.673 202.553 156.951Z" fill="#088CFC"/>
<path d="M204.64 120.181L208.391 119.426L211.788 118.746L220.85 116.923C222.725 116.673 224.494 118.204 224.783 120.332C225.067 122.458 223.764 124.406 221.887 124.661L212.428 125.359L208.991 125.616L205.439 125.879L204.64 120.181Z" fill="#F74242"/>
<path d="M199.943 99.9328L204.116 96.8887L200.148 97.0905L199.943 99.9328Z" fill="#EA9D85"/>
<path d="M200.563 88.2093C200.563 88.2093 199.902 90.6161 199.433 92.3234L199.045 93.7344C198.739 94.8494 198.597 96.5892 199.746 97.3166C200.891 98.0429 202.758 97.9941 204.317 97.0202C205.877 96.042 210.161 90.8835 207.053 87.6886C203.942 84.4923 200.808 87.6571 200.563 88.2093Z" fill="#FDAE97"/>
<path d="M206.547 87.2227C206.547 87.2227 205.381 84.922 204.368 85.0936C203.355 85.2654 204.428 86.1582 204.428 86.1582C204.428 86.1582 201.072 85.2745 199.944 87.4552C198.815 89.6359 204.117 88.9834 204.117 88.9834C204.117 88.9834 203.068 90.2909 204.117 90.4184C205.166 90.5459 205.647 90.0995 205.647 90.0995C205.647 90.0995 204.6 92.0397 205.183 92.6579C205.767 93.2761 205.046 95.0275 204.394 95.5254C203.742 96.0234 202.568 95.8174 202.03 95.3624C201.493 94.9073 201.15 94.7757 200.815 94.7385C200.48 94.7013 199.689 94.9023 199.348 94.8472C199.138 94.8134 198.873 94.5958 198.873 94.5958C198.873 94.5958 198.697 95.197 198.685 95.4331C198.659 95.9311 198.412 98.1568 200.935 98.2599C203.458 98.3629 205.179 97.1489 206.054 95.3108L206.376 96.7458C206.376 96.7458 206.681 95.1305 207.563 94.3406C208.444 93.5508 209.552 89.8934 207.957 88.4854C207.957 88.4854 209.328 89.2704 209.152 88.2889C209.019 87.5463 206.547 87.2227 206.547 87.2227Z" fill="#332B27"/>
<path d="M206.082 94.8813C205.781 95.6641 205.762 96.1757 206.377 96.4121C206.991 96.6484 207.872 96.3541 208.173 95.5712C208.474 94.7883 208.22 93.9621 207.606 93.7259C206.991 93.4896 206.383 94.0984 206.082 94.8813Z" fill="#FDAE97"/>
<path d="M203.035 92.2557C202.964 92.5142 202.771 92.6866 202.604 92.6407C202.436 92.5947 202.358 92.3478 202.429 92.0892C202.5 91.8307 202.694 91.6582 202.861 91.7042C203.028 91.7501 203.106 91.9971 203.035 92.2557Z" fill="#332B27"/>
<path d="M199.908 91.3969C199.837 91.6554 199.915 91.9024 200.082 91.9483C200.249 91.9943 200.442 91.822 200.514 91.5633C200.585 91.3047 200.507 91.0578 200.339 91.0118C200.172 90.9659 199.979 91.1382 199.908 91.3969Z" fill="#332B27"/>
<path d="M202.085 93.8316C202.099 94.0911 202.529 94.2784 203.044 94.2501C203.56 94.2217 203.967 93.9884 203.952 93.7289C203.938 93.4694 203.508 93.2821 202.993 93.3104C202.477 93.3388 202.07 93.5722 202.085 93.8316Z" fill="#E89780"/>
<path d="M199.434 92.3232L199.182 93.2407C199.556 93.3922 199.902 93.3723 200.011 93.1855C200.134 92.9625 199.877 92.5778 199.434 92.3232Z" fill="#E89780"/>
<path d="M207.46 95.2047C207.014 95.2112 206.678 95.3643 206.678 95.3643C206.914 94.5705 207.49 94.5398 207.49 94.5398" stroke="#EA9D85" strokeWidth="1.4844" strokeMiterlimit="10" strokeLinecap="round" strokeLinejoin="round"/>
<path d="M201.7 92.0811L200.676 93.5756C200.572 93.727 200.585 93.9297 200.707 94.067L200.895 94.2796L201.089 94.4975" stroke="#332B27" strokeWidth="0.9495" strokeMiterlimit="10"/>
<path d="M203.56 91.8342C203.56 91.8342 203.156 91.1347 202.461 91.1333" stroke="#332B27" strokeWidth="0.9495" strokeMiterlimit="10"/>
<path d="M199.847 90.5163C199.847 90.5163 200.405 90.2173 200.935 90.6673" stroke="#332B27" strokeWidth="0.9495" strokeMiterlimit="10"/>
<path d="M199.865 101.031L203.232 102.472L201.463 104.623L199.448 101.445L199.865 101.031Z" fill="white"/>
<path d="M206.574 100.712L203.233 102.472L204.826 104.532L206.872 101.001L206.574 100.712Z" fill="white"/>
<path d="M198.254 187.132L198.538 183.053H190.598L190.288 187.132H198.254Z" fill="#FDAE97"/>
<path d="M190.457 184.901L198.537 183.053H190.598L190.457 184.901Z" fill="#EA9D85"/>
<path d="M210.039 187.132L209.735 183.046L217.867 183.052L218.005 187.132H210.039Z" fill="#FDAE97"/>
<path d="M173.395 102.505L174.637 102.336C174.97 102.29 175.297 102.457 175.454 102.753L176.661 105.021C176.913 105.497 176.633 106.08 176.103 106.182L174.767 106.439C174.407 106.508 174.045 106.325 173.889 105.994L172.777 103.639C172.546 103.15 172.858 102.578 173.395 102.505Z" fill="#FDAE97"/>
<path d="M209.904 185.325L217.867 183.052L209.735 183.046L209.904 185.325Z" fill="#EA9D85"/>
<path d="M207.266 101.824L203.232 108.315L199.251 102.243" stroke="white" strokeWidth="0.7725" strokeMiterlimit="10" strokeLinecap="round" strokeLinejoin="round"/>
<path d="M214.992 118.072L216.53 117.791" stroke="#322A28" strokeWidth="0.7725" strokeMiterlimit="10" strokeLinecap="round" strokeLinejoin="round"/>
<path d="M214.073 116.69L213.133 115.278" stroke="#322A28" strokeWidth="0.7725" strokeMiterlimit="10" strokeLinecap="round" strokeLinejoin="round"/>
<path d="M186.375 190.564H198.1L198.12 190.086L198.264 186.925H190.286C189.298 186.925 188.384 187.505 187.686 188.11C187.108 188.628 186.678 189.307 186.476 190.086C186.429 190.241 186.395 190.402 186.375 190.564Z" fill="#322A28"/>
<path d="M186.375 190.564H198.1L198.12 190.087H186.476C186.429 190.241 186.395 190.403 186.375 190.564Z" fill="#FFF1F0"/>
<path d="M190.045 187.575C190.045 187.575 191.058 185.796 191.741 186.499C192.423 187.203 190.045 187.575 190.045 187.575Z" stroke="#FFF1F0" strokeWidth="1.1757" strokeMiterlimit="10" strokeLinecap="round" strokeLinejoin="round"/>
<path d="M190.402 187.929L190.045 187.575M190.045 187.575C190.045 187.575 189.032 185.795 188.349 186.499C187.667 187.202 190.045 187.575 190.045 187.575Z" stroke="#FFF1F0" strokeWidth="1.1757" strokeMiterlimit="10" strokeLinecap="round" strokeLinejoin="round"/>
<path d="M189.773 187.929L190.046 187.575" stroke="#FFF1F0" strokeWidth="1.1757" strokeMiterlimit="10" strokeLinecap="round" strokeLinejoin="round"/>
<path d="M221.857 190.564H210.133L210.112 190.086L209.969 186.925H217.947C218.934 186.925 219.848 187.505 220.547 188.11C221.125 188.628 221.555 189.307 221.756 190.086C221.803 190.241 221.837 190.402 221.857 190.564Z" fill="#322A28"/>
<path d="M221.857 190.564H210.133L210.113 190.087H221.756C221.803 190.241 221.837 190.403 221.857 190.564Z" fill="#FFF1F0"/>
<path d="M218.187 187.682C218.187 187.682 217.174 185.903 216.491 186.606C215.809 187.309 218.187 187.682 218.187 187.682Z" stroke="#FFF1F0" strokeWidth="1.1757" strokeMiterlimit="10" strokeLinecap="round" strokeLinejoin="round"/>
<path d="M217.83 188.036L218.187 187.682M218.187 187.682C218.187 187.682 219.2 185.902 219.882 186.606C220.565 187.309 218.187 187.682 218.187 187.682Z" stroke="#FFF1F0" strokeWidth="1.1757" strokeMiterlimit="10" strokeLinecap="round" strokeLinejoin="round"/>
<path d="M218.459 188.036L218.187 187.682" stroke="#FFF1F0" strokeWidth="1.1757" strokeMiterlimit="10" strokeLinecap="round" strokeLinejoin="round"/>
<path d="M203.483 147.978L203.101 144.853L201.184 143.53L199.626 137.181" stroke="white" strokeWidth="1.7028" strokeMiterlimit="10"/>
<path d="M190.288 179.855H197.829" stroke="white" strokeWidth="1.7028" strokeMiterlimit="10"/>
<path d="M210.465 179.855H218.005" stroke="white" strokeWidth="1.7028" strokeMiterlimit="10"/>
<path d="M214.205 118.245L204.64 120.181" stroke="#322A28" strokeWidth="0.7725" strokeMiterlimit="10" strokeLinecap="round" strokeLinejoin="round"/>
<path d="M214.205 125.229L208.991 125.616" stroke="#322A28" strokeWidth="0.7725" strokeMiterlimit="10" strokeLinecap="round" strokeLinejoin="round"/>
<path d="M201.363 95.7671C201.332 95.9993 200.99 96.1457 200.598 96.094C200.207 96.0423 199.915 95.8121 199.945 95.5798C199.976 95.3476 200.318 95.2011 200.71 95.2528C201.101 95.3046 201.393 95.5347 201.363 95.7671Z" fill="#FDAE97"/>
<path d="M166.08 4.5376V24.0146V29.755L155.322 24.0146H139.94V4.5376H166.08Z" fill="#BBDBF3"/>
<path d="M159.461 15.6762C159.767 15.6762 160.043 15.8008 160.245 16.0018C160.446 16.203 160.571 16.4816 160.571 16.7864C160.571 17.397 160.071 17.8966 159.461 17.8966C160.071 17.8966 160.571 18.3963 160.571 19.0069C160.571 19.6175 160.071 20.1171 159.461 20.1171H149.456V11.2355H150.639C151.148 10.8605 151.936 10.251 152.637 9.59111C153.785 8.51049 153.17 6.69594 153.854 6.61201C154.54 6.52808 155.415 7.40273 155.593 8.6153C155.746 9.66133 154.704 10.911 154.413 11.2355H159.461C160.071 11.2355 160.571 11.7351 160.571 12.3457C160.571 12.9563 160.071 13.4559 159.461 13.4559C160.071 13.4559 160.571 13.9556 160.571 14.5662C160.571 15.1765 160.071 15.6762 159.461 15.6762Z" fill="white"/>
<path d="M149.456 10.7096V20.6176C149.456 21.1801 148.996 21.6389 148.435 21.6389H146.471C145.909 21.6389 145.45 21.18 145.45 20.6176V10.7096C145.45 10.1483 145.909 9.68823 146.471 9.68823H148.435C148.996 9.6881 149.456 10.1483 149.456 10.7096Z" fill="white"/>
<path d="M245.985 54.5989V70.1805V74.7726L254.592 70.1805H266.898V54.5989H245.985Z" fill="#BBDBF3"/>
<path d="M256.442 67.4299C256.442 67.4299 256.442 67.4299 256.445 67.4276C267.375 62.5806 259.645 53.8888 256.442 59.3373C253.238 53.8888 245.508 62.5828 256.442 67.4299Z" fill="white"/>
<path d="M90.6675 78.3666C89.0076 79.386 86.8156 78.8613 85.7966 77.2007L78.1375 64.7178C77.1185 63.0571 77.643 60.8643 79.303 59.8449C80.9629 58.8255 83.1549 59.3502 84.1738 61.011L91.833 73.4939C92.852 75.1546 92.3275 77.3472 90.6675 78.3666Z" fill="#F9E181"/>
<path d="M72.5254 45.2288C72.5254 45.2288 69.3978 47.4577 69.0998 52.1641C68.8018 56.8704 63.377 57.5592 63.377 57.5592C63.377 57.5592 63.5903 62.4121 69.5638 63.4067C75.5373 64.4013 75.4689 54.4921 75.4689 54.4921L72.5254 45.2288Z" fill="#332B27"/>
<path d="M78.3105 45.2288C78.3105 45.2288 80.2916 45.6722 80.5353 49.2284C80.7792 52.7847 78.4933 58.0822 77.3656 58.1623C76.2381 58.2425 73.8304 45.7527 78.3105 45.2288Z" fill="#332B27"/>
<path d="M72.3034 57.874L66.1057 60.7941C66.1057 60.7941 67.4838 76.6433 67.6262 78.3894C67.7687 80.1353 67.2344 82.7721 67.2344 82.7721H82.0869C82.0869 82.7721 81.9088 74.2204 82.9061 71.8331C83.5817 70.2158 84.0459 69.232 83.6541 67.3791C83.2623 65.5263 81.9444 62.7469 82.4075 59.54L78.5964 58.0078L72.3034 57.874Z" fill="#F9E181"/>
<path d="M78.5974 50.7998V58.0091C78.5974 58.0091 78.5974 58.0972 78.5798 58.2381C78.5058 58.8265 78.1254 60.3381 76.1671 60.317C74.3779 60.2959 73.1275 58.9816 72.5956 58.2909C72.4019 58.0442 72.3032 57.8751 72.3032 57.8751L73.2049 50.7998H78.5974Z" fill="#B37661"/>
<path d="M78.5958 58.0073L75.3918 53.915L78.5958 53.2976V58.0073Z" fill="#824C3A"/>
<path d="M79.195 54.4013C78.013 55.0369 76.1828 54.852 74.718 53.78C73.2533 52.708 69.6137 48.3623 72.9008 45.4401C76.1922 42.5183 79.0482 45.8589 79.2479 46.4197C79.2479 46.4197 79.6515 48.4508 79.9324 49.8828C80.0065 50.2465 80.0706 50.5702 80.1184 50.814C80.1243 50.8539 80.1349 50.8895 80.141 50.925C80.3614 52.0468 80.3765 53.77 79.195 54.4013Z" fill="#B37661"/>
<path d="M59.9208 80.3355C58.1633 79.4955 57.4123 77.3696 58.252 75.6115L64.5638 62.3955C65.4036 60.6373 67.5285 59.886 69.286 60.726C71.0434 61.5661 71.7944 63.692 70.9547 65.4501L64.6429 78.6661C63.8032 80.4243 61.6783 81.1756 59.9208 80.3355Z" fill="#F9E181"/>
<path d="M71.4954 140.624L74.1118 141.086L74.5776 139.426L75.7049 141.367L81.8779 142.456L77.9838 137.463L72.4563 136.396L71.4954 140.624Z" fill="#322A28"/>
<path d="M76.2397 138.255L78.7093 138.683" stroke="#FFF1F0" strokeWidth="1.6066" strokeMiterlimit="10"/>
<path d="M75.392 44.2573C75.392 44.2573 78.7792 43.7591 79.7928 46.9092L78.0979 47.3003C78.0979 47.3003 77.9255 46.1885 76.9787 45.8591C76.9787 45.8591 77.7365 46.5951 77.6783 47.4598L75.7332 48.0131C75.7332 48.0131 75.4299 46.8267 75.4505 46.3326C75.4505 46.3326 75.1697 47.5174 75.2727 48.1763L73.9477 48.8095C73.9477 48.8095 74.1591 49.9305 73.727 50.4246C73.2948 50.9187 72.945 52.8408 72.945 52.8408C72.945 52.8408 70.7841 49.1328 71.1957 47.7533C71.6072 46.3739 72.3855 44.1379 75.392 44.2573Z" fill="#332B27"/>
<path d="M76.6865 139.212L79.1561 139.64" stroke="#FFF1F0" strokeWidth="1.6066" strokeMiterlimit="10"/>
<path d="M99.5836 135.856L102.102 135.01L101.718 133.329L103.636 134.494L109.578 132.497L103.771 129.976L98.4221 131.739L99.5836 135.856Z" fill="#322A28"/>
<path d="M102.618 131.506L104.991 130.7" stroke="#FFF1F0" strokeWidth="1.6066" strokeMiterlimit="10"/>
<path d="M103.468 132.133L105.841 131.327" stroke="#FFF1F0" strokeWidth="1.6066" strokeMiterlimit="10"/>
<path d="M73.6779 51.408C74.0153 52.0318 74.0866 52.4589 73.5971 52.7238C73.1076 52.9889 72.3364 52.8382 71.9988 52.2144C71.6614 51.5906 71.7847 50.8701 72.2743 50.605C72.7638 50.3399 73.3405 50.7842 73.6779 51.408Z" fill="#B37661"/>
<path d="M72.2952 51.291C72.2952 51.291 73.1224 51.1008 73.3222 51.794C73.3222 51.794 73.0035 51.5923 72.5999 51.7417" stroke="#724638" strokeWidth="0.6749" strokeMiterlimit="10" strokeLinecap="round" strokeLinejoin="round"/>
<path d="M76.5894 49.8944C76.6364 50.1644 76.8159 50.3587 76.9905 50.3283C77.1651 50.2979 77.2685 50.0545 77.2216 49.7844C77.1746 49.5145 76.9951 49.3201 76.8205 49.3505C76.6459 49.381 76.5425 49.6245 76.5894 49.8944Z" fill="#332B27"/>
<path d="M78.8585 49.2838C78.9055 49.5539 79.085 49.7481 79.2596 49.7177C79.4341 49.6873 79.5376 49.4439 79.4906 49.1738C79.4436 48.9038 79.2641 48.7095 79.0896 48.74C78.915 48.7704 78.8115 49.0138 78.8585 49.2838Z" fill="#332B27"/>
<path d="M78.0063 52.8724C78.3442 52.9254 78.6611 52.6944 78.7142 52.3564L77.4905 52.1643C77.4374 52.5022 77.6683 52.8193 78.0063 52.8724Z" fill="white"/>
<path d="M75.8809 49.459C75.8809 49.459 76.3057 48.6919 76.9794 48.8254" stroke="#332B27" strokeWidth="1.002" strokeMiterlimit="10"/>
<path d="M78.7524 48.3917C78.7524 48.3917 79.1333 48.2498 79.6263 48.6032" stroke="#332B27" strokeWidth="1.002" strokeMiterlimit="10"/>
<path d="M78.0505 49.4641C78.0505 49.4641 78.3141 50.7964 79.1273 50.8235C79.1273 50.8235 78.9173 51.0942 78.6207 51.2422" stroke="#332B27" strokeWidth="1.002" strokeMiterlimit="10"/>
<path d="M77.2807 51.2884C77.2612 51.5571 76.842 51.7455 76.3444 51.7095C75.8467 51.6735 75.459 51.4265 75.4785 51.1579C75.4979 50.8893 75.9171 50.7008 76.4148 50.7368C76.9125 50.7729 77.3001 51.0198 77.2807 51.2884Z" fill="#A14C53"/>
<path d="M80.1197 50.8142C79.8355 50.8768 79.5899 50.8283 79.5013 50.6645C79.3858 50.4507 79.5755 50.1235 79.9336 49.8828C80.0078 50.2467 80.0718 50.5704 80.1197 50.8142Z" fill="#A14C53"/>
<path d="M85.4746 76.2881C84.6247 74.3293 85.3433 72.1125 87.0715 71.3619L102.829 66.88C103.322 66.6152 103.875 66.2907 104.3 65.9662C105.288 65.212 108.213 63.4798 108.459 63.9031C108.705 64.3266 106.942 65.9197 107.191 66.0127C107.44 66.1056 109.006 65.239 109.645 64.8165C110.283 64.394 111.507 63.2679 111.927 63.4212C112.348 63.5747 112.289 64.2317 112.289 64.2317C112.289 64.2317 112.703 63.7447 112.957 64.062C113.211 64.3793 112.749 65.2948 112.749 65.2948C112.749 65.2948 112.952 65.0002 113.145 65.4197C113.339 65.8392 112.185 66.9651 112.185 66.9651C112.185 66.9651 112.482 66.8376 112.585 67.1758C112.688 67.514 111.009 68.8255 109.547 69.353C108.242 69.824 105.017 70.5984 104.34 70.7592L90.1621 78.4852C88.4341 79.2353 86.3246 78.2467 85.4746 76.2881Z" fill="#B37661"/>
<path d="M67.3372 73.0242L69.4393 68.6226" stroke="#332B27" strokeWidth="1.3876" strokeMiterlimit="10"/>
<path d="M68.3879 120.838C68.6588 123.602 77.6619 123.372 84.2946 118.405C90.9274 113.439 102.29 117.995 103.404 107.751C104.518 97.5061 82.0688 99.8608 81.4998 100.836C80.9309 101.812 70.7718 116.041 70.5279 116.285C70.2841 116.529 68.6181 119.069 68.6181 119.069L68.3879 120.838Z" fill="#0775EF"/>
<path d="M73.7881 52.9178C73.837 53.2017 73.6466 53.4715 73.363 53.5205C73.0792 53.5694 72.8097 53.379 72.7606 53.0952C72.7117 52.8113 72.902 52.5415 73.1857 52.4926C73.4694 52.4435 73.7391 52.6339 73.7881 52.9178Z" stroke="white" strokeWidth="1.1428" strokeMiterlimit="10"/>
<path d="M82.8546 71.9702C82.8546 71.9702 83.9708 69.6211 83.7895 68.4011C83.6082 67.1811 82.6148 63.8844 82.4836 62.8721" stroke="#332B27" strokeWidth="1.3876" strokeMiterlimit="10"/>
<path d="M50.9108 64.2141L50.1577 62.6438C50.1577 62.6438 48.9661 61.1987 48.594 60.6289C48.3842 60.3075 47.7304 59.5013 47.5754 59.4099C47.4527 59.3377 47.1292 59.4094 47.1164 59.5481C47.0997 59.7285 47.493 60.6696 47.6398 61.0413C47.7794 61.3948 48.1981 62.455 48.1981 62.455C48.1981 62.455 45.8562 60.7859 45.1039 60.1824C44.6805 59.8426 43.4861 58.7979 43.2304 59.0772C43.0356 59.29 44.1387 60.4952 44.5122 60.9112C44.8556 61.2936 45.875 62.4506 45.875 62.4506C45.875 62.4506 44.2182 61.0924 43.6659 60.6397C43.264 60.3103 42.1897 59.1776 41.8948 59.4821C41.603 59.7836 42.7421 60.8224 43.0836 61.2117C43.5654 61.7609 45.011 63.4087 45.011 63.4087C45.011 63.4087 43.2455 62.027 42.6571 61.5666C42.3314 61.3118 41.4599 60.4266 41.2036 60.7302C40.9427 61.0394 41.9366 61.8173 42.2324 62.1174C42.739 62.6315 44.259 64.1739 44.259 64.1739C44.259 64.1739 42.956 63.2103 42.5216 62.889C42.336 62.7517 41.7701 62.3595 41.641 62.5456C41.4652 62.799 42.1898 63.3852 42.411 63.6081L44.2394 65.4507C44.3874 65.5998 44.5518 65.7306 44.7291 65.8399L47.9264 67.9662L50.9108 64.2141Z" fill="#B37661"/>
<path d="M64.0277 79.526C62.8452 80.7575 60.9495 80.9325 59.565 80.0222L47.9263 67.9662L50.9108 64.2141L64.2874 74.2744C65.6761 75.611 65.3639 78.1367 64.0277 79.526Z" fill="#B37661"/>
<path d="M88.8522 110.013C88.6111 110.851 87.9119 112.726 86.9896 115.12C83.8372 123.273 77.9842 137.468 77.9842 137.468L72.4568 136.401C72.4568 136.401 73.6322 126.644 74.5244 119.408C74.7232 117.84 74.9042 116.393 75.0549 115.187C75.501 111.647 76.6221 107.679 78.1532 104.598C80.1483 100.588 82.8367 98.085 85.6336 100.003C87.0019 100.937 87.9422 101.836 88.5631 102.728C90.1903 105.068 89.6237 107.347 88.8522 110.013Z" fill="#B37661"/>
<path d="M103.771 129.978L98.4307 131.733C98.4307 131.733 94.5308 120.547 92.1378 113.618C91.8785 112.87 91.6374 112.171 91.4205 111.544C90.4682 108.77 89.799 105.525 89.6061 102.54C89.2566 97.1977 90.4319 92.6932 94.2415 93.248C100.185 94.1164 100.872 97.0409 101.535 100.822C101.553 100.937 101.577 101.069 101.595 101.22C101.764 102.384 101.969 104.633 102.192 107.377C102.909 116.139 103.771 129.978 103.771 129.978Z" fill="#B37661"/>
<path d="M88.8526 110.012C88.6115 110.85 87.9123 112.726 86.99 115.12C82.9936 114.957 76.8936 118.117 74.5247 119.407C74.7235 117.839 74.9045 116.392 75.0552 115.186C75.5012 111.646 76.6224 107.679 78.1535 104.597L88.5634 102.728C90.1908 105.067 89.6241 107.347 88.8526 110.012Z" fill="#824C3A"/>
<path d="M102.191 107.377C97.5137 106.967 93.2883 112.087 92.1371 113.618C91.8779 112.87 91.6368 112.171 91.4198 111.544C90.4675 108.77 89.7983 105.526 89.6055 102.541L100.962 100.509C100.962 100.509 101.215 100.78 101.595 101.22C101.763 102.384 101.968 104.633 102.191 107.377Z" fill="#824C3A"/>
<path d="M82.0865 82.7717C82.0865 82.7717 97.4534 91.6874 100.558 96.0393C103.663 100.391 103.467 107.259 103.467 107.259C103.467 107.259 101.087 104.007 94.1785 108.56C87.2703 113.113 82.0025 115.819 74.843 116.865C67.6835 117.911 68.3879 120.838 68.3879 120.838C68.3879 120.838 67.574 114.094 70.6093 107.666C73.6446 101.238 65.7044 93.1936 65.1903 89.3316C64.6764 85.4695 67.2339 82.7719 67.2339 82.7719H82.0865V82.7717Z" fill="#088CFC"/>
<path d="M89.6065 106.283C89.6065 106.283 90.522 100.511 88.2465 95.8766C85.9708 91.2422 79.8409 87.3395 78.5984 84.0059" stroke="white" strokeWidth="1.3876" strokeMiterlimit="10"/>
<path d="M77.7006 85.4285C77.7006 85.6867 77.4913 85.896 77.2332 85.896C76.9751 85.896 76.7659 85.6867 76.7659 85.4285C76.7659 85.1703 76.9751 84.9609 77.2332 84.9609C77.4913 84.9609 77.7006 85.1703 77.7006 85.4285Z" fill="white"/>
<path d="M79.5331 87.583C79.5331 87.8412 79.3238 88.0505 79.0657 88.0505C78.8077 88.0505 78.5984 87.8412 78.5984 87.583C78.5984 87.3248 78.8077 87.1155 79.0657 87.1155C79.3238 87.1155 79.5331 87.3248 79.5331 87.583Z" fill="white"/>
<path d="M81.9679 90.6736C81.9679 90.9318 81.7586 91.1411 81.5005 91.1411C81.2425 91.1411 81.0332 90.9318 81.0332 90.6736C81.0332 90.4154 81.2425 90.2061 81.5005 90.2061C81.7586 90.2061 81.9679 90.4154 81.9679 90.6736Z" fill="white"/>
<path d="M84.66 93.6692C84.66 93.9274 84.4508 94.1367 84.1927 94.1367C83.9346 94.1367 83.7253 93.9274 83.7253 93.6692C83.7253 93.411 83.9346 93.2017 84.1927 93.2017C84.4508 93.2017 84.66 93.411 84.66 93.6692Z" fill="white"/>
<path d="M86.9153 97.8767C87.1735 97.8767 87.3827 97.6674 87.3827 97.4092C87.3827 97.151 87.1735 96.9417 86.9153 96.9417C86.6572 96.9417 86.448 97.151 86.448 97.4092C86.448 97.6674 86.6572 97.8767 86.9153 97.8767Z" fill="white"/>
<path d="M87.8502 101.165C87.8502 101.423 87.6409 101.633 87.3829 101.633C87.1248 101.633 86.9155 101.423 86.9155 101.165C86.9155 100.907 87.1248 100.698 87.3829 100.698C87.6409 100.698 87.8502 100.907 87.8502 101.165Z" fill="white"/>
<path d="M87.8502 105.556C87.8502 105.814 87.6409 106.023 87.3829 106.023C87.1248 106.023 86.9155 105.814 86.9155 105.556C86.9155 105.298 87.1248 105.088 87.3829 105.088C87.6409 105.088 87.8502 105.298 87.8502 105.556Z" fill="white"/>
<path d="M86.9154 109.295C86.9154 109.553 86.7061 109.763 86.4481 109.763C86.19 109.763 85.9807 109.553 85.9807 109.295C85.9807 109.037 86.19 108.828 86.4481 108.828C86.7061 108.828 86.9154 109.037 86.9154 109.295Z" fill="white"/>
<path d="M195.098 3.46528C194.571 3.20815 194.011 3.04774 193.444 2.97974C193.44 3.58041 192.985 4.0948 192.374 4.16007C191.763 4.22533 191.212 3.82005 191.081 3.23374C190.542 3.41856 190.029 3.69357 189.568 4.0563C189.989 4.48442 190.033 5.16876 189.647 5.64765C189.26 6.12655 188.583 6.22862 188.075 5.90727C187.818 6.43446 187.658 6.99428 187.591 7.56023C188.192 7.56402 188.704 8.01785 188.77 8.62897C188.835 9.24008 188.428 9.79351 187.842 9.92429C188.029 10.4648 188.304 10.9779 188.666 11.4389C189.093 11.0163 189.778 10.9711 190.258 11.3589C190.737 11.7454 190.839 12.4263 190.516 12.9325C191.043 13.1896 191.603 13.35 192.169 13.4167C192.173 12.8161 192.628 12.3017 193.238 12.2364C193.849 12.1711 194.401 12.5764 194.531 13.1627C195.07 12.9779 195.583 12.7029 196.044 12.3402C195.623 11.9121 195.58 11.2277 195.966 10.7488C196.352 10.2699 197.03 10.1679 197.537 10.4892C197.794 9.96202 197.955 9.40219 198.021 8.83624C197.421 8.83245 196.908 8.37862 196.843 7.76751C196.778 7.15652 197.184 6.60297 197.77 6.47231C197.586 5.93312 197.311 5.41989 196.948 4.95901C196.519 5.38191 195.835 5.4255 195.356 5.03902C194.876 4.65123 194.774 3.97316 195.098 3.46528ZM194.403 6.22014C195.495 7.10144 195.667 8.70193 194.785 9.79586C193.903 10.8897 192.303 11.0592 191.211 10.1779C190.117 9.29529 189.945 7.69481 190.827 6.60088C191.71 5.50708 193.31 5.33753 194.403 6.22014Z" fill="white"/>
<path d="M192.389 19.9929C191.927 21.4749 190.351 22.3032 188.868 21.8401C187.384 21.377 186.559 19.7992 187.021 18.3172C187.484 16.8332 189.06 16.0047 190.543 16.4678C192.027 16.9309 192.852 18.5088 192.389 19.9929ZM195.504 19.5872C195.554 18.9404 195.492 18.2992 195.331 17.6877C194.712 17.928 193.998 17.669 193.682 17.0671C193.367 16.4651 193.559 15.7325 194.109 15.3597C193.7 14.8803 193.208 14.4641 192.648 14.1374C192.379 14.7449 191.693 15.0681 191.043 14.8653C190.394 14.6624 190.013 14.0064 190.137 13.3538C189.491 13.3037 188.85 13.3663 188.241 13.5279C188.481 14.1474 188.223 14.8594 187.621 15.1751C187.019 15.4909 186.285 15.2977 185.912 14.7477C185.432 15.1592 185.016 15.6509 184.69 16.2115C185.297 16.4783 185.623 17.1652 185.419 17.8173C185.217 18.4672 184.558 18.8494 183.906 18.723C183.856 19.3699 183.919 20.0111 184.08 20.6203C184.7 20.38 185.413 20.639 185.729 21.241C186.045 21.843 185.852 22.5756 185.302 22.9484C185.712 23.4278 186.203 23.8439 186.763 24.1706C187.032 23.5632 187.718 23.24 188.368 23.4428C189.018 23.6456 189.398 24.3017 189.274 24.9543C189.921 25.0044 190.561 24.9418 191.171 24.7802C190.93 24.1607 191.188 23.4487 191.79 23.1329C192.392 22.8173 193.127 23.0104 193.499 23.5604C193.978 23.1511 194.394 22.6593 194.721 22.0988C194.111 21.829 193.788 21.1428 193.991 20.4929C194.194 19.841 194.85 19.4602 195.504 19.5872Z" fill="white"/>
<path d="M19.0742 12.1843V10.8355L26.8578 6.62134V8.68154L21.6585 11.5099L26.8578 14.3382V16.3984L19.0742 12.1843Z" fill="#E5F0F8"/>
<path d="M29.2261 18.0844L27.9495 17.5226L32.7486 2.98779L34.0253 3.58717L29.2261 18.0844Z" fill="#E5F0F8"/>
<path d="M43.0863 10.8362V12.185L35.3027 16.3991V14.3389L40.5019 11.5106L35.3027 8.68227V6.62207L43.0863 10.8362Z" fill="#E5F0F8"/>
<path d="M48.4642 45.8454C48.4607 45.8262 48.4537 45.8082 48.4487 45.7895C48.4421 45.7651 48.4367 45.7404 48.4277 45.7169C48.4272 45.7155 48.427 45.7141 48.4264 45.7126C48.4128 45.6779 48.396 45.6446 48.3775 45.6122C48.3728 45.604 48.3674 45.5963 48.3625 45.5884C48.3463 45.5622 48.3285 45.5371 48.3094 45.5129C48.3027 45.5044 48.2961 45.4961 48.289 45.4879C48.2651 45.4602 48.2397 45.4338 48.2122 45.4093C48.2098 45.4072 48.2079 45.4048 48.2056 45.4029C48.1756 45.3768 48.1431 45.353 48.1094 45.3308C48.1 45.3247 48.09 45.3192 48.0804 45.3133C48.0543 45.2977 48.0274 45.2832 47.9994 45.27C47.9884 45.2648 47.9776 45.2596 47.9664 45.2547C47.9283 45.2386 47.8892 45.2241 47.8484 45.2128C47.7723 45.1908 47.6925 45.1785 47.6091 45.1772C47.6005 45.176 47.5932 45.176 47.5846 45.176H24.2446H23.8911C23.7978 45.176 23.707 45.1896 23.6223 45.2128C23.2616 45.316 23.0001 45.6205 23.0001 45.979V49.1414H22.3886C21.5884 49.1414 20.9375 49.7927 20.9375 50.5931V56.0144C20.9375 56.8149 21.5886 57.4661 22.3886 57.4661H33.7968C34.0306 57.4661 34.2208 57.6564 34.2208 57.8903V66.4654H33.8405H32.9974C32.7077 66.4654 32.4721 66.7023 32.4721 66.9909V72.6828H32.4156H31.5712C31.4202 72.6828 31.2975 72.8056 31.2975 72.9566V73.7276C31.2975 73.8787 31.4202 74.0015 31.5712 74.0015H32.4156H32.9974H33.8405H36.4717H37.3161H37.8966C38.0475 74.0015 38.1703 73.8787 38.1703 73.7276V72.9566C38.1703 72.8056 38.0475 72.6828 37.8966 72.6828H37.8401H36.997V66.9909C36.997 66.7023 36.7602 66.4654 36.4717 66.4654H35.2479V57.8903C35.2479 57.0898 34.5968 56.4386 33.7968 56.4386H22.3886C22.1548 56.4386 21.9646 56.2483 21.9646 56.0144V50.5931C21.9646 50.3592 22.1548 50.1689 22.3886 50.1689H23.0001V53.332C23.0001 53.7753 23.399 54.1337 23.8911 54.1337H47.5846C48.0779 54.1337 48.4768 53.7751 48.4768 53.332V49.6549V45.9789C48.4766 45.9335 48.4723 45.8888 48.4642 45.8454Z" fill="#E5F0F8"/>
</svg>
