<svg width="40" height="40" viewBox="0 0 40 40" fill="none" xmlns="http://www.w3.org/2000/svg">
<path d="M34.3967 23.5598L34.3133 22.7315L34.2883 22.7331L34.26 22.7381L34.3967 23.5598ZM34.3967 23.5598L34.48 24.3898L34.5083 24.3865L34.535 24.3815L34.3967 23.5598ZM27.6633 32.6965L28.1917 32.0515L28.1833 32.0465L27.6633 32.6965ZM27.6633 32.6965L27.135 33.3415L27.1433 33.3481L27.6633 32.6965ZM12.3367 32.6965L11.8083 32.0531L11.7967 32.0631L11.7833 32.0748L12.3367 32.6965ZM12.3367 32.6965L12.865 33.3431L12.8783 33.3315L12.89 33.3215L12.3367 32.6965ZM5.60167 16.4398V15.6065H5.56167L5.52 15.6098L5.60167 16.4398ZM5.60167 16.4398V17.2731H5.64333L5.685 17.2681L5.60167 16.4398ZM24.3867 5.51813C24.3619 5.21591 24.3269 4.91463 24.2817 4.6148C24.2442 4.34931 24.1643 4.09157 24.045 3.85146L22.5633 4.61646C22.58 4.6498 22.6083 4.71646 22.6367 4.8898C22.6683 5.07313 22.6917 5.31147 22.73 5.68313L24.3867 5.51813ZM24.7133 7.52313C24.6933 7.49813 24.6333 7.39647 24.5683 7.0398C24.4904 6.53486 24.432 6.02732 24.39 5.51813L22.73 5.68313C22.7967 6.35146 22.8517 6.9048 22.9283 7.3348C23.0033 7.7548 23.12 8.18313 23.3883 8.5348L24.7133 7.52313ZM25.4867 7.84313C25.341 7.86273 25.1927 7.84345 25.0569 7.78726C24.9211 7.73106 24.8026 7.63993 24.7133 7.52313L23.3867 8.53313C23.6543 8.88411 24.0101 9.15796 24.4179 9.32687C24.8257 9.49578 25.2709 9.55372 25.7083 9.4948L25.4867 7.84313ZM27.1333 6.6548C26.5917 7.0998 26.2217 7.40146 25.93 7.60313C25.6317 7.8098 25.5167 7.83813 25.4867 7.84313L25.7083 9.4948C26.145 9.43647 26.53 9.21646 26.8817 8.97147C27.24 8.72147 27.6683 8.37147 28.19 7.9448L27.1333 6.6548ZM28.5533 5.7198C28.2867 5.8048 28.0617 5.9398 27.8483 6.09146C27.6417 6.23813 27.4067 6.43147 27.1333 6.6548L28.19 7.9448C28.4783 7.70813 28.665 7.55646 28.815 7.4498C28.8899 7.39048 28.973 7.34221 29.0617 7.30646L28.5533 5.7198ZM30.3083 5.80646C29.7531 5.56617 29.1295 5.53538 28.5533 5.7198L29.0617 7.30646C29.2534 7.24576 29.4605 7.25642 29.645 7.33646L30.3083 5.80646ZM31.6283 6.8798C31.3783 6.6298 31.1633 6.41313 30.9733 6.24646C30.7766 6.06516 30.5521 5.91661 30.3083 5.80646L29.645 7.33646C29.68 7.35147 29.7433 7.38647 29.8767 7.50313C30.015 7.62313 30.185 7.79313 30.45 8.05813L31.6283 6.8798ZM33.1167 8.36813L31.6283 6.8798L30.45 8.05813L31.9383 9.54647L33.1167 8.36813ZM34.19 9.68813C34.0793 9.44424 33.9302 9.21971 33.7483 9.02313C33.5817 8.83313 33.365 8.61813 33.1167 8.36813L31.9383 9.54647C32.2033 9.81147 32.3717 9.98147 32.495 10.1198C32.6117 10.2531 32.645 10.3165 32.66 10.3515L34.19 9.68813ZM34.2767 11.4431C34.4611 10.8669 34.4303 10.2434 34.19 9.68813L32.66 10.3515C32.7395 10.5361 32.7496 10.7433 32.6883 10.9348L34.2767 11.4431ZM33.3417 12.8631C33.565 12.5898 33.7583 12.3548 33.905 12.1481C34.055 11.9348 34.1917 11.7098 34.2767 11.4431L32.6883 10.9348C32.6531 11.0234 32.6054 11.1064 32.5467 11.1815C32.3879 11.3947 32.2229 11.6031 32.0517 11.8065L33.3417 12.8631ZM32.1533 14.5098C32.1583 14.4798 32.1867 14.3648 32.3933 14.0665C32.595 13.7748 32.8967 13.4048 33.3417 12.8631L32.0517 11.8065C31.625 12.3281 31.2733 12.7565 31.025 13.1148C30.78 13.4648 30.56 13.8515 30.5017 14.2881L32.1533 14.5098ZM32.4733 15.2831C32.3565 15.1939 32.2654 15.0754 32.2092 14.9396C32.153 14.8037 32.1337 14.6555 32.1533 14.5098L30.5017 14.2881C30.4431 14.7253 30.5011 15.1702 30.67 15.5777C30.8389 15.9851 31.1126 16.3406 31.4633 16.6081L32.4733 15.2831ZM34.4783 15.6081C33.78 15.5381 33.3067 15.4915 32.9567 15.4281C32.6 15.3631 32.4983 15.3031 32.4733 15.2831L31.4633 16.6081C31.8133 16.8748 32.2417 16.9915 32.6633 17.0681C33.0917 17.1448 33.6433 17.2015 34.3133 17.2681L34.4783 15.6081ZM36.145 15.9515C35.9049 15.8322 35.6472 15.7522 35.3817 15.7148C35.1317 15.6731 34.8283 15.6431 34.4783 15.6081L34.3117 17.2665C34.685 17.3048 34.9233 17.3281 35.1067 17.3598C35.2008 17.3712 35.2928 17.3959 35.38 17.4331L36.145 15.9515ZM37.3233 17.2531C37.1008 16.691 36.6822 16.2286 36.145 15.9515L35.38 17.4331C35.5592 17.5253 35.6989 17.6792 35.7733 17.8665L37.3233 17.2531ZM37.4983 18.9448C37.4983 18.5931 37.4983 18.2881 37.4817 18.0348C37.4711 17.7674 37.4176 17.5035 37.3233 17.2531L35.7733 17.8665C35.7867 17.9015 35.8067 17.9715 35.8183 18.1465C35.8308 18.4129 35.8352 18.6797 35.8317 18.9465L37.4983 18.9448ZM37.4983 21.0515V18.9448H35.8317V21.0515H37.4983ZM37.3233 22.7415C37.4267 22.4815 37.465 22.2215 37.4817 21.9598C37.4983 21.7081 37.4983 21.4031 37.4983 21.0515H35.8317C35.8317 21.4248 35.8317 21.6648 35.8183 21.8498C35.8167 21.9448 35.8016 22.0391 35.7733 22.1298L37.3233 22.7415ZM36.145 24.0448C36.6825 23.7672 37.1012 23.3042 37.3233 22.7415L35.7733 22.1298C35.6989 22.317 35.5592 22.471 35.38 22.5631L36.145 24.0448ZM34.4783 24.3881C34.8283 24.3531 35.1333 24.3215 35.3817 24.2798C35.64 24.2381 35.895 24.1731 36.1433 24.0465L35.38 22.5631C35.2928 22.6004 35.2008 22.6251 35.1067 22.6365C34.9233 22.6681 34.685 22.6915 34.3133 22.7298L34.4783 24.3881ZM32.475 24.7131C32.5 24.6931 32.6017 24.6315 32.9583 24.5681C33.3083 24.5048 33.7817 24.4565 34.4783 24.3881L34.3133 22.7298C33.645 22.7965 33.0917 22.8498 32.6617 22.9281C32.2417 23.0031 31.815 23.1198 31.4633 23.3865L32.475 24.7131ZM32.1533 25.4865C32.1339 25.3406 32.1535 25.1923 32.21 25.0564C32.2664 24.9206 32.3579 24.8022 32.475 24.7131L31.4633 23.3865C31.1124 23.6541 30.8385 24.0099 30.6696 24.4177C30.5007 24.8255 30.4427 25.2707 30.5017 25.7081L32.1533 25.4865ZM33.3417 27.1331C33.0115 26.7433 32.6952 26.342 32.3933 25.9298C32.1867 25.6331 32.1583 25.5165 32.1533 25.4865L30.5033 25.7098C30.5617 26.1465 30.7817 26.5298 31.025 26.8815C31.275 27.2381 31.625 27.6681 32.0517 28.1881L33.3417 27.1331ZM34.2767 28.5531C34.1914 28.2992 34.0659 28.0606 33.905 27.8465C33.7245 27.6031 33.5366 27.3652 33.3417 27.1331L32.0517 28.1881C32.2883 28.4781 32.44 28.6631 32.5467 28.8148C32.6053 28.8893 32.653 28.9718 32.6883 29.0598L34.2767 28.5531ZM34.19 30.3081C34.4303 29.7529 34.4611 29.1293 34.2767 28.5531L32.6883 29.0598C32.75 29.2518 32.7399 29.4597 32.66 29.6448L34.19 30.3081ZM33.1183 31.6265C33.3667 31.3781 33.5817 31.1631 33.7483 30.9731C33.9217 30.7748 34.0783 30.5665 34.19 30.3081L32.66 29.6448C32.6157 29.729 32.5595 29.8065 32.4933 29.8748C32.3141 30.0714 32.129 30.2626 31.9383 30.4481L33.1183 31.6265ZM31.6283 33.1165L33.1183 31.6265L31.9383 30.4481L30.45 31.9381L31.6283 33.1165ZM30.3083 34.1881C30.565 34.0765 30.775 33.9215 30.9733 33.7481C31.1633 33.5815 31.3783 33.3648 31.6283 33.1148L30.45 31.9381C30.185 32.2031 30.015 32.3715 29.8767 32.4931C29.8078 32.5595 29.7298 32.6156 29.645 32.6598L30.3083 34.1881ZM28.5533 34.2765C29.1297 34.4604 29.7533 34.429 30.3083 34.1881L29.645 32.6598C29.4603 32.7393 29.2532 32.7494 29.0617 32.6881L28.5533 34.2765ZM27.1333 33.3398C27.4067 33.5631 27.6417 33.7565 27.8483 33.9031C28.0617 34.0548 28.2867 34.1915 28.5533 34.2765L29.0617 32.6881C28.9731 32.6529 28.8901 32.6052 28.815 32.5465C28.6018 32.3872 28.3933 32.2216 28.19 32.0498L27.1333 33.3398ZM25.4867 32.1531C25.5167 32.1565 25.6333 32.1865 25.93 32.3931C26.2217 32.5948 26.5917 32.8965 27.1333 33.3398L28.19 32.0498C27.6683 31.6248 27.24 31.2731 26.8817 31.0231C26.5317 30.7798 26.145 30.5598 25.7083 30.5015L25.4867 32.1531ZM24.7133 32.4731C24.8026 32.3563 24.9211 32.2652 25.0569 32.209C25.1927 32.1528 25.341 32.1335 25.4867 32.1531L25.7083 30.5015C25.2713 30.4427 24.8265 30.5005 24.4191 30.6691C24.0116 30.8377 23.656 31.1111 23.3883 31.4615L24.7133 32.4731ZM24.3883 34.4781C24.4583 33.7798 24.505 33.3065 24.5683 32.9565C24.6333 32.5998 24.6933 32.4981 24.7133 32.4731L23.3883 31.4615C23.1217 31.8115 23.005 32.2415 22.9283 32.6615C22.8517 33.0898 22.795 33.6415 22.7283 34.3115L24.3883 34.4781ZM24.045 36.1448C24.1733 35.8948 24.2367 35.6398 24.28 35.3815C24.3233 35.1315 24.3533 34.8281 24.3883 34.4781L22.7283 34.3115C22.7052 34.5773 22.6757 34.8425 22.6367 35.1065C22.6253 35.2006 22.6006 35.2926 22.5633 35.3798L24.045 36.1448ZM22.7433 37.3231C23.3054 37.1006 23.7678 36.682 24.045 36.1448L22.5633 35.3798C22.4712 35.559 22.3172 35.6987 22.13 35.7731L22.7433 37.3231ZM21.0517 37.4981C21.4033 37.4981 21.7083 37.4981 21.9617 37.4815C22.2217 37.4648 22.4833 37.4265 22.7433 37.3231L22.13 35.7731C22.0393 35.8014 21.945 35.8165 21.85 35.8181C21.6667 35.8315 21.425 35.8315 21.05 35.8315L21.0517 37.4981ZM18.945 37.4981H21.0517L21.05 35.8315H18.945V37.4981ZM17.2533 37.3231C17.515 37.4265 17.775 37.4648 18.0367 37.4815C18.2883 37.4981 18.5933 37.4981 18.945 37.4981V35.8315C18.5717 35.8315 18.3317 35.8315 18.1467 35.8181C18.0517 35.8165 17.9574 35.8014 17.8667 35.7731L17.2533 37.3231ZM15.9517 36.1448C16.2288 36.682 16.6913 37.1006 17.2533 37.3231L17.8667 35.7731C17.6794 35.6987 17.5255 35.559 17.4333 35.3798L15.9517 36.1448ZM15.6083 34.4781C15.6417 34.8304 15.6772 35.1315 15.715 35.3815C15.7583 35.6398 15.8233 35.8948 15.9517 36.1448L17.4333 35.3798C17.3961 35.2926 17.3714 35.2006 17.36 35.1065C17.321 34.843 17.2898 34.5784 17.2667 34.3131L15.6083 34.4781ZM15.2833 32.4731C15.3033 32.4981 15.3633 32.5998 15.4283 32.9565C15.4917 33.3065 15.5383 33.7815 15.6083 34.4781L17.2667 34.3131C17.2 33.6448 17.145 33.0915 17.0683 32.6615C16.9933 32.2415 16.8767 31.8131 16.6083 31.4615L15.2833 32.4731ZM14.51 32.1531C14.6557 32.1335 14.8039 32.1528 14.9398 32.209C15.0756 32.2652 15.1941 32.3563 15.2833 32.4731L16.6083 31.4615C16.3408 31.1108 15.9853 30.8387 15.5779 30.6698C15.1704 30.5009 14.7255 30.4429 14.2883 30.5015L14.51 32.1531ZM12.8633 33.3415C13.405 32.8965 13.775 32.5948 14.0667 32.3931C14.365 32.1865 14.48 32.1565 14.51 32.1531L14.2883 30.5015C13.8517 30.5598 13.4667 30.7798 13.115 31.0248C12.7567 31.2731 12.3283 31.6248 11.8067 32.0515L12.8633 33.3415ZM11.4433 34.2765C11.71 34.1915 11.935 34.0565 12.1483 33.9048C12.355 33.7581 12.59 33.5648 12.8633 33.3415L11.8067 32.0515C11.6033 32.2227 11.3949 32.3877 11.1817 32.5465C11.1066 32.6052 11.0236 32.6529 10.935 32.6881L11.4433 34.2765ZM9.68833 34.1915C10.2436 34.4318 10.8671 34.4609 11.4433 34.2765L10.935 32.6881C10.7435 32.7494 10.5363 32.7393 10.3517 32.6598L9.68833 34.1915ZM8.36833 33.1165C8.61833 33.3665 8.83333 33.5831 9.02333 33.7498C9.22 33.9215 9.43167 34.0798 9.68833 34.1915L10.3517 32.6598C10.2669 32.6156 10.1889 32.5595 10.12 32.4931C9.92339 32.3139 9.7322 32.1288 9.54667 31.9381L8.36833 33.1165ZM6.88 31.6281L8.36833 33.1165L9.54667 31.9381L8.05833 30.4498L6.88 31.6281ZM5.80667 30.3081C5.91833 30.5648 6.075 30.7748 6.24833 30.9731C6.415 31.1631 6.63167 31.3781 6.88 31.6281L8.05833 30.4498C7.86709 30.2643 7.68145 30.0731 7.50167 29.8765C7.43532 29.8076 7.37919 29.7296 7.335 29.6448L5.80667 30.3081ZM5.72 28.5531C5.53558 29.1293 5.56637 29.7529 5.80667 30.3081L7.335 29.6448C7.25495 29.4603 7.24596 29.2532 7.30667 29.0615L5.72 28.5531ZM6.655 27.1331C6.43167 27.4065 6.23833 27.6415 6.09167 27.8481C5.93088 28.0617 5.80539 28.2998 5.72 28.5531L7.30667 29.0615C7.34241 28.9728 7.39068 28.8897 7.45 28.8148C7.55667 28.6648 7.70833 28.4781 7.945 28.1898L6.655 27.1331ZM7.84333 25.4865C7.83833 25.5165 7.81 25.6315 7.60333 25.9298C7.4 26.2215 7.1 26.5915 6.655 27.1331L7.945 28.1898C8.37167 27.6681 8.72333 27.2398 8.97167 26.8815C9.21667 26.5315 9.43667 26.1448 9.495 25.7081L7.84333 25.4865ZM7.52333 24.7131C7.64013 24.8024 7.73126 24.9209 7.78746 25.0567C7.84366 25.1925 7.86293 25.3408 7.84333 25.4865L9.495 25.7081C9.55361 25.271 9.49552 24.8261 9.32663 24.4186C9.15773 24.0112 8.88404 23.6556 8.53333 23.3881L7.52333 24.7131ZM5.51833 24.3898C6.21667 24.4581 6.69 24.5048 7.04 24.5681C7.39667 24.6331 7.49833 24.6931 7.52333 24.7131L8.53333 23.3865C8.18333 23.1198 7.755 23.0031 7.33333 22.9281C6.905 22.8515 6.35333 22.7948 5.68333 22.7281L5.51833 24.3898ZM3.85167 24.0448C4.10167 24.1731 4.35667 24.2365 4.615 24.2798C4.865 24.3231 5.16667 24.3548 5.51833 24.3898L5.685 22.7298C5.41913 22.7066 5.15401 22.6755 4.89 22.6365C4.79587 22.6251 4.70384 22.6004 4.61667 22.5631L3.85167 24.0448ZM2.67333 22.7415C2.89548 23.3042 3.31413 23.7672 3.85167 24.0448L4.61667 22.5631C4.43748 22.471 4.29775 22.317 4.22333 22.1298L2.67333 22.7415ZM2.5 21.0548C2.5 21.4065 2.5 21.7115 2.51667 21.9648C2.52745 22.2316 2.58091 22.4949 2.675 22.7448L4.225 22.1331C4.19677 22.0424 4.18162 21.9481 4.18 21.8531C4.16755 21.5867 4.16311 21.3199 4.16667 21.0531L2.5 21.0548ZM2.5 18.9481V21.0548H4.16667V18.9481H2.5ZM2.675 17.2565C2.58056 17.5074 2.5271 17.7719 2.51667 18.0398C2.5 18.2915 2.5 18.5965 2.5 18.9481H4.16667C4.16667 18.5748 4.16667 18.3348 4.18 18.1498C4.18162 18.0548 4.19677 17.9605 4.225 17.8698L2.675 17.2565ZM3.85333 15.9548C3.3161 16.232 2.89748 16.6944 2.675 17.2565L4.225 17.8698C4.29941 17.6826 4.43915 17.5286 4.61833 17.4365L3.85333 15.9548ZM5.52 15.6098C5.16778 15.6431 4.86667 15.6804 4.61667 15.7181C4.35118 15.7556 4.09344 15.8355 3.85333 15.9548L4.61833 17.4365C4.65167 17.4198 4.71833 17.3915 4.89167 17.3631C5.075 17.3315 5.31333 17.3081 5.685 17.2698L5.52 15.6098ZM7.525 15.2865C7.5 15.3065 7.39833 15.3665 7.04167 15.4315C6.69167 15.4948 6.21833 15.5398 5.52 15.6098L5.685 17.2698C6.35333 17.2031 6.90833 17.1481 7.33667 17.0715C7.75833 16.9965 8.18667 16.8798 8.53667 16.6115L7.525 15.2865ZM7.845 14.5131C7.8646 14.6588 7.84532 14.8071 7.78912 14.9429C7.73292 15.0787 7.6418 15.1972 7.525 15.2865L8.53667 16.6115C8.88707 16.3438 9.16044 15.9882 9.32904 15.5807C9.49764 15.1733 9.55547 14.7268 9.49667 14.2898L7.845 14.5131ZM6.65667 12.8648C7.10167 13.4081 7.40333 13.7781 7.60667 14.0698C7.81333 14.3681 7.84 14.4831 7.845 14.5131L9.49667 14.2898C9.43833 13.8531 9.21833 13.4698 8.97333 13.1181C8.725 12.7598 8.37333 12.3315 7.94667 11.8098L6.65667 12.8648ZM5.72167 11.4448C5.805 11.7115 5.94167 11.9381 6.09333 12.1515C6.24 12.3565 6.43333 12.5931 6.65667 12.8648L7.94667 11.8098C7.77545 11.6059 7.61037 11.3969 7.45167 11.1831C7.39248 11.1087 7.34422 11.0262 7.30833 10.9381L5.72167 11.4448ZM5.80833 9.69147C5.56845 10.2462 5.53766 10.8691 5.72167 11.4448L7.30833 10.9381C7.24763 10.7464 7.25828 10.5393 7.33833 10.3548L5.80833 9.69147ZM6.88167 8.37146C6.63167 8.6198 6.415 8.8348 6.24833 9.02646C6.06703 9.22316 5.91848 9.44769 5.80833 9.69147L7.33833 10.3548C7.38266 10.2706 7.43878 10.1915 7.505 10.1231C7.68341 9.92575 7.86852 9.73453 8.06 9.5498L6.88167 8.37146ZM8.37 6.88147L6.88167 8.37146L8.06 9.5498L9.54833 8.0598L8.37 6.88147ZM9.69 5.8098C9.44622 5.91994 9.2217 6.0685 9.025 6.2498C8.835 6.41647 8.61833 6.63147 8.37 6.88147L9.54833 8.0598C9.81333 7.79646 9.98333 7.62646 10.1217 7.5048C10.255 7.38813 10.3183 7.3548 10.3533 7.33813L9.69 5.8098ZM11.445 5.72147C10.8686 5.53757 10.245 5.56896 9.69 5.8098L10.3533 7.33813C10.5378 7.25808 10.745 7.24909 10.9367 7.3098L11.445 5.72147ZM12.865 6.65813C12.5917 6.4348 12.3567 6.24147 12.15 6.0948C11.9365 5.93342 11.6985 5.80737 11.445 5.72147L10.9367 7.3098C11.0252 7.34503 11.1083 7.39273 11.1833 7.45147C11.3333 7.5598 11.52 7.71147 11.81 7.94813L12.865 6.65813ZM14.5117 7.84647C14.4817 7.84147 14.3667 7.81313 14.0683 7.60647C13.6561 7.30409 13.2548 6.98889 12.865 6.65813L11.81 7.94813C12.33 8.3748 12.76 8.72647 13.1167 8.9748C13.4667 9.21813 13.8533 9.43813 14.29 9.49813L14.5117 7.84647ZM15.285 7.5248C15.196 7.6419 15.0775 7.73335 14.9417 7.78985C14.8059 7.84634 14.6575 7.86588 14.5117 7.84647L14.29 9.49813C14.7273 9.55724 15.1724 9.49789 15.5802 9.32928C15.988 9.16067 16.3438 8.88714 16.6117 8.53647L15.285 7.5248ZM15.61 5.52146C15.54 6.21813 15.4933 6.69313 15.43 7.04146C15.365 7.39813 15.305 7.4998 15.285 7.5248L16.6117 8.53647C16.8783 8.18647 16.995 7.75813 17.07 7.33646C17.1467 6.90813 17.2033 6.35646 17.27 5.68646L15.61 5.52146ZM15.9533 3.8548C15.825 4.1048 15.76 4.3598 15.7167 4.61813C15.675 4.86813 15.645 5.1698 15.61 5.52146L17.2683 5.68813C17.2915 5.42226 17.3226 5.15714 17.3617 4.89313C17.373 4.79901 17.3977 4.70697 17.435 4.6198L15.9533 3.8548ZM17.2567 2.67646C16.6937 2.89902 16.2306 3.31664 15.9533 3.8548L17.435 4.6198C17.5271 4.44061 17.6811 4.30088 17.8683 4.22646L17.2567 2.67646ZM18.9467 2.50146C18.595 2.50146 18.29 2.50146 18.0367 2.51813C17.7699 2.52892 17.5065 2.58237 17.2567 2.67646L17.8683 4.22646C17.9591 4.19824 18.0533 4.18309 18.1483 4.18146C18.3317 4.16813 18.5733 4.16813 18.9483 4.16813L18.9467 2.50146ZM21.0533 2.50146H18.9467V4.16813H21.0533V2.50146ZM22.745 2.67646C22.4941 2.58202 22.2296 2.52856 21.9617 2.51813C21.71 2.50146 21.405 2.50146 21.0533 2.50146V4.16813C21.4267 4.16813 21.6667 4.16813 21.8517 4.18146C21.9467 4.18309 22.0409 4.19824 22.1317 4.22646L22.745 2.67646ZM24.0467 3.8548C23.7691 3.31726 23.306 2.89861 22.7433 2.67646L22.1317 4.22646C22.3189 4.30088 22.4729 4.44061 22.565 4.6198L24.0467 3.8548ZM25.8333 19.9998C25.8333 21.5469 25.2188 23.0306 24.1248 24.1246C23.0308 25.2185 21.5471 25.8331 20 25.8331V27.4998C21.9891 27.4998 23.8968 26.7096 25.3033 25.3031C26.7098 23.8966 27.5 21.9889 27.5 19.9998H25.8333ZM20 14.1665C21.5471 14.1665 23.0308 14.781 24.1248 15.875C25.2188 16.969 25.8333 18.4527 25.8333 19.9998H27.5C27.5 18.0107 26.7098 16.103 25.3033 14.6965C23.8968 13.29 21.9891 12.4998 20 12.4998V14.1665ZM14.1667 19.9998C14.1667 18.4527 14.7812 16.969 15.8752 15.875C16.9692 14.781 18.4529 14.1665 20 14.1665V12.4998C18.0109 12.4998 16.1032 13.29 14.6967 14.6965C13.2902 16.103 12.5 18.0107 12.5 19.9998H14.1667ZM20 25.8331C18.4529 25.8331 16.9692 25.2185 15.8752 24.1246C14.7812 23.0306 14.1667 21.5469 14.1667 19.9998H12.5C12.5 21.9889 13.2902 23.8966 14.6967 25.3031C16.1032 26.7096 18.0109 27.4998 20 27.4998V25.8331Z" fill="white"/>
<path d="M22.8125 18.7813H22.0312V18C22.0311 17.7609 21.9527 17.5284 21.8079 17.3382C21.6631 17.1479 21.46 17.0103 21.2296 16.9465C20.9992 16.8826 20.7542 16.896 20.5321 16.9846C20.3101 17.0732 20.1232 17.2322 20 17.4371C19.8768 17.2322 19.6899 17.0732 19.4679 16.9846C19.2458 16.896 19.0008 16.8826 18.7704 16.9465C18.54 17.0103 18.3369 17.1479 18.1921 17.3382C18.0473 17.5284 17.9689 17.7609 17.9688 18V18.1731C17.8168 18.0179 17.622 17.9116 17.4093 17.8675C17.1967 17.8235 16.9757 17.8437 16.7746 17.9257C16.5735 18.0077 16.4013 18.1477 16.2801 18.3279C16.1588 18.5081 16.094 18.7203 16.0938 18.9375V20.5C16.0938 21.536 16.5053 22.5296 17.2379 23.2621C17.9704 23.9947 18.964 24.4063 20 24.4063C21.036 24.4063 22.0296 23.9947 22.7621 23.2621C23.4947 22.5296 23.9062 21.536 23.9062 20.5V19.875C23.9062 19.5849 23.791 19.3067 23.5859 19.1016C23.3808 18.8965 23.1026 18.7813 22.8125 18.7813ZM20.9375 17.2188C21.1447 17.2188 21.3434 17.3011 21.4899 17.4476C21.6364 17.5941 21.7188 17.7928 21.7188 18V18.7813H20.3125C20.2592 18.7813 20.2064 18.7905 20.1562 18.8086V18C20.1562 17.7928 20.2386 17.5941 20.3851 17.4476C20.5316 17.3011 20.7303 17.2188 20.9375 17.2188ZM18.2812 18C18.2812 17.7928 18.3636 17.5941 18.5101 17.4476C18.6566 17.3011 18.8553 17.2188 19.0625 17.2188C19.2697 17.2188 19.4684 17.3011 19.6149 17.4476C19.7614 17.5941 19.8438 17.7928 19.8438 18V19.5625C19.8438 19.7697 19.7614 19.9684 19.6149 20.1149C19.4684 20.2615 19.2697 20.3438 19.0625 20.3438C18.8553 20.3438 18.6566 20.2615 18.5101 20.1149C18.3636 19.9684 18.2812 19.7697 18.2812 19.5625V18ZM16.4062 18.9375C16.4062 18.7303 16.4886 18.5316 16.6351 18.3851C16.7816 18.2386 16.9803 18.1563 17.1875 18.1563C17.3947 18.1563 17.5934 18.2386 17.7399 18.3851C17.8864 18.5316 17.9688 18.7303 17.9688 18.9375V19.5625C17.9688 19.7697 17.8864 19.9684 17.7399 20.1149C17.5934 20.2615 17.3947 20.3438 17.1875 20.3438C16.9803 20.3438 16.7816 20.2615 16.6351 20.1149C16.4886 19.9684 16.4062 19.7697 16.4062 19.5625V18.9375ZM23.5938 20.5C23.5938 21.4531 23.2151 22.3672 22.5412 23.0412C21.8672 23.7151 20.9531 24.0938 20 24.0938C19.0469 24.0938 18.1328 23.7151 17.4588 23.0412C16.7849 22.3672 16.4062 21.4531 16.4062 20.5V20.3274C16.5232 20.4467 16.6659 20.5377 16.8235 20.5933C16.981 20.6489 17.1492 20.6677 17.3152 20.6482C17.4811 20.6287 17.6404 20.5715 17.7808 20.4808C17.9212 20.3902 18.0389 20.2686 18.125 20.1254C18.2155 20.276 18.3409 20.4025 18.4907 20.4943C18.6405 20.5862 18.8101 20.6406 18.9854 20.6529C19.1606 20.6653 19.3362 20.6353 19.4974 20.5654C19.6586 20.4956 19.8006 20.3879 19.9113 20.2516C19.9709 20.4132 20.0677 20.5586 20.1938 20.6759C20.32 20.7932 20.472 20.8792 20.6375 20.927C20.3943 21.0823 20.1941 21.2963 20.0553 21.5494C19.9166 21.8025 19.8438 22.0864 19.8438 22.375C19.8438 22.4165 19.8602 22.4562 19.8895 22.4855C19.9188 22.5148 19.9586 22.5313 20 22.5313C20.0414 22.5313 20.0812 22.5148 20.1105 22.4855C20.1398 22.4562 20.1562 22.4165 20.1562 22.375C20.1562 22.0021 20.3044 21.6444 20.5681 21.3806C20.8319 21.1169 21.1895 20.9688 21.5625 20.9688C21.6039 20.9688 21.6437 20.9523 21.673 20.923C21.7023 20.8937 21.7188 20.854 21.7188 20.8125C21.7188 20.7711 21.7023 20.7313 21.673 20.702C21.6437 20.6727 21.6039 20.6563 21.5625 20.6563H20.9375C20.7303 20.6563 20.5316 20.574 20.3851 20.4274C20.2386 20.2809 20.1562 20.0822 20.1562 19.875V19.25C20.1562 19.2086 20.1727 19.1688 20.202 19.1395C20.2313 19.1102 20.2711 19.0938 20.3125 19.0938H22.8125C23.0197 19.0938 23.2184 19.1761 23.3649 19.3226C23.5114 19.4691 23.5938 19.6678 23.5938 19.875V20.5Z" fill="white"/>
</svg>
