<svg width="48" height="48" viewBox="0 0 48 48" fill="none" xmlns="http://www.w3.org/2000/svg">
<rect width="48" height="48" rx="8" fill="#232323"/>
<path fill-rule="evenodd" clip-rule="evenodd" d="M26.3458 8.65918C26.1368 8.65918 25.9682 8.48861 25.9682 8.27734C25.9682 7.85636 25.8041 7.47765 25.538 7.20378C25.2718 6.93148 24.905 6.76245 24.5011 6.76245C24.0957 6.76245 23.7304 6.9299 23.4658 7.20378C23.1996 7.47765 23.0356 7.85636 23.0356 8.27734C23.0356 8.48861 22.8669 8.65918 22.658 8.65918H20.4528V10.8H28.5509V8.65918H26.3458ZM20.1818 15.6653C19.9729 15.6653 19.8042 15.4947 19.8042 15.2835C19.8042 15.0722 19.9729 14.9016 20.1818 14.9016H28.7303C28.9392 14.9016 29.1079 15.0722 29.1079 15.2835C29.1079 15.4947 28.9392 15.6653 28.7303 15.6653H20.1818ZM20.1818 18.5354C19.9729 18.5354 19.8042 18.3649 19.8042 18.1536C19.8042 17.9423 19.9729 17.7718 20.1818 17.7718H28.7303C28.9392 17.7718 29.1079 17.9423 29.1079 18.1536C29.1079 18.3649 28.9392 18.5354 28.7303 18.5354H20.1818ZM20.1818 21.4056C19.9729 21.4056 19.8042 21.235 19.8042 21.0237C19.8042 20.8125 19.9729 20.6419 20.1818 20.6419H28.7303C28.9392 20.6419 29.1079 20.8125 29.1079 21.0237C29.1079 21.235 28.9392 21.4056 28.7303 21.4056H20.1818ZM38.7629 36.0128H35.3676V36.8438H36.9739C37.0668 36.8438 37.1519 36.8782 37.2169 36.9345L37.969 37.465C38.1794 37.3007 38.4425 37.2037 38.7288 37.2037C39.06 37.2037 39.3602 37.3351 39.5846 37.5495C39.5939 37.5574 39.6016 37.5652 39.6109 37.573C39.8369 37.8015 39.9762 38.1161 39.9762 38.4651C39.9762 38.8125 39.8369 39.1286 39.6109 39.3571C39.385 39.5856 39.0739 39.7264 38.7288 39.7264C38.3853 39.7264 38.0727 39.5856 37.8467 39.3571C37.6208 39.1286 37.4815 38.814 37.4815 38.4651C37.4815 38.3352 37.5016 38.2068 37.5388 38.0895L37.0111 37.717L36.8594 37.609H35.3691V38.9752C35.3691 39.1865 35.2005 39.3571 34.9915 39.3571H31.768C31.5591 39.3571 31.3904 39.1865 31.3904 38.9752V38.4729C31.2109 38.595 31.0128 38.6873 30.8179 38.7389C30.7993 38.9267 30.759 39.0957 30.7002 39.246C30.6972 39.2569 30.6925 39.2694 30.6879 39.2804C30.5795 39.5339 30.4155 39.7264 30.205 39.861C30.0038 39.9909 29.764 40.0582 29.4994 40.0691C29.292 40.077 29.0676 40.0472 28.8324 39.9831C28.7952 40.1489 28.7426 40.2929 28.6761 40.4181C28.5198 40.717 28.2923 40.9111 28.023 41.0097C27.7661 41.102 27.4783 41.1004 27.1827 41.0128C27.0543 40.9752 26.9243 40.9205 26.7958 40.8516C26.7726 40.9283 26.7463 41.0003 26.7169 41.066C26.5776 41.3665 26.3656 41.5511 26.1025 41.6372C25.8596 41.7155 25.5903 41.7029 25.3071 41.6122C25.0982 41.5449 24.8769 41.4338 24.6525 41.2867C24.5364 41.512 24.3724 41.6982 24.1681 41.8266C23.9422 41.9674 23.6775 42.03 23.3866 41.9862C23.2489 41.9659 23.108 41.922 22.9641 41.8516C22.2321 41.4901 21.4986 41.0472 20.7326 40.5105C19.9727 39.9784 19.1835 39.3571 18.3339 38.6325C18.2689 38.5777 18.2163 38.5371 18.1668 38.5104C18.125 38.4885 18.0739 38.4729 18.0043 38.4619C17.8665 38.4416 17.735 38.4056 17.6128 38.354V38.9768C17.6128 39.1881 17.4441 39.3587 17.2352 39.3587H14.0117C13.8027 39.3587 13.6341 39.1881 13.6341 38.9768V37.6106H12.1438L11.9844 37.7233L11.4629 38.091C11.5 38.21 11.5201 38.3367 11.5201 38.4666C11.5201 38.814 11.3809 39.1301 11.1549 39.3587C10.929 39.5872 10.6179 39.728 10.2744 39.728C9.92925 39.728 9.61822 39.5871 9.39224 39.3587C9.1663 39.1302 9.02702 38.8156 9.02702 38.4666C9.02702 38.1192 9.1663 37.8031 9.39224 37.5746C9.61818 37.3461 9.92925 37.2053 10.2744 37.2053C10.5606 37.2053 10.8237 37.3023 11.0342 37.4666L11.7863 36.9361C11.8513 36.8798 11.9364 36.8453 12.0293 36.8453H13.6356V36.0144H10.2403C10.18 36.2084 10.0732 36.3821 9.9339 36.5245C9.70796 36.753 9.39689 36.8938 9.05179 36.8938C8.70824 36.8938 8.39566 36.753 8.16968 36.5245C8.16195 36.5167 8.15421 36.5089 8.14802 36.4995C7.936 36.2725 7.80601 35.969 7.80601 35.6325C7.80601 35.2851 7.94529 34.969 8.17123 34.7404C8.39717 34.512 8.70824 34.3711 9.05334 34.3711C9.39689 34.3711 9.70793 34.512 9.93391 34.7404H9.937C10.0763 34.8813 10.1831 35.055 10.2434 35.2506H13.6387V34.091H12.1159C12.023 34.091 11.9379 34.0581 11.8729 34.0018L10.3455 32.9235L10.2155 32.8312H8.4374C8.37705 33.0253 8.27026 33.2005 8.13099 33.3414C7.90505 33.5698 7.59398 33.7107 7.24888 33.7107C6.90533 33.7107 6.59429 33.5698 6.36832 33.3414L6.36677 33.3398L6.36522 33.3414C6.13928 33.1129 6 32.7983 6 32.4493C6 32.1019 6.13928 31.7858 6.36522 31.5573C6.59116 31.3288 6.90223 31.188 7.24733 31.188C7.59088 31.188 7.90346 31.3288 8.12944 31.5573C8.26871 31.6981 8.37549 31.8719 8.43585 32.0675H10.3269V32.069C10.4012 32.069 10.477 32.0909 10.542 32.1379L12.2211 33.3225L12.2257 33.3257H13.6309V31.8421H12.7117C12.6188 31.8421 12.5337 31.8077 12.4687 31.7513L11.6872 31.1989C11.4767 31.3632 11.2137 31.4603 10.9289 31.4603C10.5853 31.4603 10.2728 31.3194 10.0468 31.0909C9.82085 30.8624 9.68157 30.5479 9.68157 30.1989C9.68157 29.8515 9.82085 29.5354 10.0468 29.3069C10.2727 29.0784 10.5838 28.9375 10.9289 28.9375C11.2725 28.9375 11.5835 29.0784 11.8095 29.3069L11.811 29.3084L11.8126 29.3069C12.0385 29.5353 12.1778 29.8499 12.1778 30.1989C12.1778 30.3303 12.1577 30.4571 12.1205 30.576L12.8309 31.0768H13.6355V29.6903C13.6355 29.479 13.8042 29.3085 14.0131 29.3085H15.2697V26.0377L15.2682 10.2723C15.2682 9.89513 15.4152 9.55083 15.6551 9.30044C15.898 9.04536 16.2323 8.88888 16.6006 8.88888H19.6957V8.27857C19.6957 8.0673 19.8644 7.89672 20.0733 7.89672H22.3095C22.3868 7.42254 22.6097 6.99844 22.9269 6.67137C23.3308 6.25508 23.8864 6 24.5008 6C25.1152 6 25.6707 6.25509 26.0731 6.66981C26.3919 6.99688 26.6132 7.42098 26.6906 7.89516H28.9267C29.1356 7.89516 29.3043 8.06574 29.3043 8.277V8.88732H32.3994C32.7693 8.88732 33.1035 9.04538 33.3449 9.29888C33.5833 9.54927 33.7318 9.89357 33.7318 10.2707V29.3085H34.9884C35.1973 29.3085 35.366 29.479 35.366 29.6903V31.0768H36.1692L36.8795 30.576C36.8424 30.4571 36.8222 30.3303 36.8222 30.1989C36.8222 29.8515 36.9615 29.5354 37.1875 29.3069C37.4134 29.0784 37.7245 28.9375 38.0696 28.9375C38.4131 28.9375 38.7257 29.0784 38.9517 29.3069C39.1776 29.5353 39.3169 29.8499 39.3169 30.1989C39.3169 30.5463 39.1776 30.8624 38.9517 31.0909C38.7257 31.3194 38.4147 31.4603 38.0696 31.4603C37.7833 31.4603 37.5202 31.3632 37.3097 31.1989L36.5282 31.7498C36.4632 31.8061 36.3781 31.8405 36.2852 31.8405H35.366V33.3241H36.7727L38.458 32.1347C38.523 32.0878 38.5988 32.0659 38.6731 32.0659V32.0643H40.5642C40.6245 31.8687 40.7313 31.695 40.8706 31.5541C41.0965 31.3257 41.4076 31.1848 41.7527 31.1848C42.0962 31.1848 42.4088 31.3256 42.6348 31.5541C42.8607 31.7826 43 32.0972 43 32.4462C43 32.7936 42.8607 33.1097 42.6348 33.3382C42.4088 33.5667 42.0978 33.7075 41.7527 33.7075C41.4091 33.7075 41.0965 33.5667 40.8706 33.3382C40.7313 33.1974 40.6245 33.0236 40.5642 32.828H38.7876L38.6514 32.9251L37.1317 33.9971C37.0667 34.0534 36.9816 34.0863 36.8888 34.0863H35.3676V35.2459H38.7628C38.8232 35.0518 38.93 34.8766 39.0693 34.7357C39.2952 34.5072 39.6063 34.3664 39.9514 34.3664C40.2949 34.3664 40.6075 34.5072 40.8335 34.7357C41.0594 34.9642 41.1987 35.2788 41.1987 35.6278C41.1987 35.9752 41.0594 36.2913 40.8335 36.5198C40.6075 36.7483 40.2965 36.8891 39.9514 36.8891C39.6078 36.8891 39.2952 36.7483 39.0693 36.5198C38.93 36.3805 38.8232 36.2068 38.7629 36.0128ZM19.6957 9.65121V11.1817C19.6957 11.393 19.8644 11.5636 20.0733 11.5636H28.9268C29.1358 11.5636 29.3044 11.393 29.3044 11.1817V9.65121H32.3995C32.5558 9.65121 32.6997 9.71851 32.8034 9.82805C32.9117 9.94073 32.9783 10.0988 32.9783 10.2725V29.3102H31.7665C31.5576 29.3102 31.389 29.4808 31.389 29.6921V30.171C31.3425 30.1569 31.2946 30.1475 31.245 30.1412C30.0379 29.9988 28.9284 29.6232 27.8761 29.268C25.6151 28.5027 23.6125 27.8251 21.367 29.5027C21.0095 29.7703 20.7619 29.9597 20.5159 30.1475C20.4184 30.221 20.3209 30.2962 20.2249 30.3697H18.142C17.9532 30.3697 17.7737 30.412 17.6112 30.4855V29.6905C17.6112 29.4792 17.4425 29.3087 17.2336 29.3087H16.0219V26.0379L16.0234 10.2725C16.0234 10.0988 16.09 9.94072 16.1983 9.82804C16.302 9.71849 16.4443 9.6512 16.6022 9.6512L19.6957 9.65121ZM24.5008 7.17078C24.7995 7.17078 25.0718 7.29597 25.2668 7.49785C25.4618 7.69817 25.5825 7.97516 25.5825 8.27719C25.5825 8.58079 25.4618 8.85622 25.2668 9.05653C25.0703 9.25841 24.7995 9.3836 24.5008 9.3836C24.2021 9.3836 23.9298 9.25841 23.7348 9.05653C23.5398 8.85622 23.4191 8.58079 23.4191 8.27719C23.4191 7.97359 23.5398 7.69817 23.7348 7.49785C23.9298 7.29597 24.2021 7.17078 24.5008 7.17078ZM24.7314 8.03148C24.7917 8.09251 24.8289 8.18015 24.8289 8.27718C24.8289 8.37421 24.7917 8.46028 24.7314 8.52288C24.6726 8.58391 24.5921 8.6199 24.5008 8.6199C24.411 8.6199 24.329 8.58234 24.2702 8.52288C24.2099 8.46184 24.1727 8.37421 24.1727 8.27718C24.1727 8.18015 24.2099 8.09408 24.2702 8.03148C24.329 7.97045 24.411 7.93446 24.5008 7.93446C24.5906 7.93446 24.6726 7.97045 24.7314 8.03148ZM27.5154 27.0488C26.6225 27.041 26.3114 26.7201 26.3145 26.3086C26.3192 25.8234 26.641 25.2115 27.0341 24.7248C27.3978 24.2726 27.7816 23.9424 27.9673 23.9627C27.9843 23.9643 27.9286 24.0441 27.9069 24.2491C27.8296 24.9643 27.7831 25.5339 27.8357 26.0112C27.8961 26.5511 28.0787 26.9658 28.4672 27.296C28.5786 27.3915 28.6946 27.4557 28.8107 27.4932C29.0366 27.5668 29.2487 27.5402 29.4437 27.4447C29.6062 27.3649 29.7501 27.2397 29.8739 27.091C30.1277 26.7859 30.3103 26.3618 30.3907 26.1114C30.4542 25.9111 30.3459 25.6966 30.1478 25.6325C29.9497 25.5683 29.7377 25.6779 29.6742 25.8782C29.6139 26.066 29.4793 26.3805 29.2967 26.6012C29.2363 26.6732 29.1759 26.7295 29.1187 26.7593C29.0924 26.7718 29.0676 26.7765 29.0429 26.7687C29.0181 26.7608 28.9887 26.7421 28.9531 26.7108C28.7303 26.5214 28.6235 26.2679 28.5863 25.9267C28.5415 25.5214 28.5863 24.994 28.6575 24.3289C28.7364 23.5871 28.4796 23.2507 28.0478 23.2037C27.6067 23.1552 26.9629 23.6075 26.4507 24.2429C25.9679 24.8438 25.5686 25.6278 25.564 26.3008C25.5563 27.1396 26.0623 27.7937 27.5108 27.8062C27.7182 27.8078 27.8884 27.6388 27.89 27.4291C27.89 27.2225 27.7227 27.0504 27.5154 27.0488ZM31.3888 37.2211V31.3699C31.3888 31.2729 31.3718 31.1743 31.3378 31.0898C31.3115 31.0241 31.2774 30.9677 31.2372 30.9333C31.2263 30.9239 31.2124 30.9145 31.1985 30.9083C31.1876 30.9036 31.1753 30.9005 31.1598 30.8989C29.88 30.7487 28.7286 30.359 27.6376 29.9897C25.5732 29.2917 23.7456 28.6735 21.8159 30.1149C21.5482 30.3152 21.2588 30.5358 20.971 30.7565C20.6429 31.0085 20.3164 31.2557 19.8165 31.6251C19.4528 31.8927 19.2578 32.1086 19.182 32.2792C19.1541 32.3434 19.1495 32.3888 19.1619 32.4185C19.1774 32.4592 19.2238 32.5014 19.2857 32.539C19.4559 32.6438 19.702 32.6986 19.9295 32.7049H19.9356C21.0607 32.7518 21.9103 32.1399 22.6036 31.6407C23.5197 30.9803 24.2208 30.4748 25.0518 31.3403C26.0809 32.4138 27.1348 33.7393 28.1856 35.0633C28.998 36.0852 29.809 37.1071 30.6028 38.0038C30.7607 37.9678 30.9309 37.8802 31.0764 37.755C31.2466 37.6094 31.3749 37.4198 31.3888 37.2211ZM19.213 31.1336H18.1421C17.9966 31.1336 17.8636 31.1946 17.7676 31.2916C17.6717 31.3887 17.6113 31.5232 17.6113 31.6703V37.1821C17.6113 37.3418 17.6531 37.4529 17.7212 37.528C17.8078 37.6235 17.9502 37.6782 18.1158 37.7048C18.269 37.7283 18.3928 37.769 18.5104 37.83C18.6203 37.8879 18.7147 37.9584 18.8184 38.0476C19.6525 38.7596 20.4216 39.3668 21.1567 39.8817C21.8856 40.3918 22.5866 40.8144 23.2907 41.1634C23.3635 41.1993 23.43 41.2213 23.4919 41.2291C23.5987 41.2447 23.6915 41.2244 23.7689 41.1759C23.8571 41.1211 23.9329 41.0288 23.9887 40.9114C24.0026 40.8848 24.015 40.8551 24.0243 40.8253L23.2892 40.3011C23.1189 40.1806 23.0772 39.9427 23.1979 39.7706C23.317 39.5984 23.5522 39.5562 23.7225 39.6782L24.6572 40.3433C24.6773 40.3574 24.6974 40.3731 24.7144 40.3903C25.0023 40.6297 25.2839 40.8019 25.53 40.8817C25.6677 40.9255 25.7838 40.938 25.8674 40.9099C25.9308 40.8895 25.9865 40.8348 26.0298 40.7409C26.0732 40.647 26.1041 40.5249 26.1196 40.3684L24.6169 39.2933C24.4483 39.1728 24.408 38.9349 24.5272 38.7643C24.6463 38.5922 24.8816 38.5531 25.0502 38.6736L26.7061 39.8598C26.7247 39.8707 26.7417 39.8848 26.7572 39.8989L26.7587 39.8973C26.9723 40.0914 27.1889 40.2213 27.387 40.2807C27.5309 40.323 27.6609 40.3277 27.7677 40.2901C27.8606 40.2557 27.9426 40.1822 28.006 40.0632C28.0633 39.9537 28.1051 39.8113 28.1252 39.6329L26.6999 38.3872C26.542 38.2494 26.525 38.01 26.6612 37.8504C26.7974 37.6908 27.0342 37.6736 27.192 37.8113L28.7148 39.143C28.998 39.2604 29.2533 39.3152 29.4669 39.3089C29.5984 39.3042 29.7098 39.2729 29.798 39.2166C29.877 39.1649 29.9435 39.0867 29.9884 38.9803C29.9915 38.9725 29.9961 38.9646 29.9992 38.9568C30.041 38.8488 30.0642 38.7174 30.0689 38.5578C29.2548 37.6422 28.4238 36.5953 27.5913 35.5468C26.5498 34.2354 25.5067 32.9224 24.5039 31.877C24.1232 31.4811 23.6512 31.8207 23.0338 32.2667C22.2461 32.8332 21.2804 33.5296 19.9 33.4701C19.5549 33.4607 19.1711 33.3684 18.8879 33.1931C18.6929 33.0726 18.5382 32.9114 18.4562 32.7064C18.3695 32.4905 18.368 32.2448 18.4887 31.9725C18.6063 31.719 18.8323 31.4388 19.213 31.1336ZM34.6125 35.6326V30.0739H32.1457V38.592H34.6125V35.6326ZM16.8578 30.0739H14.391V38.5904H16.8578V30.0739ZM11.2789 29.8486C11.1907 29.7594 11.0669 29.703 10.9307 29.703C10.7945 29.703 10.6723 29.7578 10.5825 29.8486C10.4943 29.9393 10.4386 30.063 10.4386 30.2007C10.4386 30.3384 10.4943 30.462 10.5825 30.5528C10.6723 30.642 10.7945 30.6983 10.9307 30.6983C11.0592 30.6983 11.1768 30.6482 11.265 30.5684C11.2696 30.5637 11.2743 30.559 11.2789 30.5544C11.3687 30.4636 11.4228 30.34 11.4228 30.2022C11.4228 30.0645 11.3671 29.9409 11.2789 29.8501L11.2789 29.8486ZM7.59734 32.0974C7.50913 32.0066 7.38532 31.9519 7.24914 31.9519C7.11296 31.9519 6.9907 32.0066 6.90094 32.0974C6.81273 32.1866 6.75702 32.3118 6.75702 32.4495C6.75702 32.5872 6.81273 32.7109 6.90094 32.8016L6.8994 32.8032C6.98915 32.8924 7.11141 32.9487 7.24759 32.9487C7.38223 32.9487 7.50603 32.8924 7.59579 32.8032C7.68554 32.7124 7.73971 32.5888 7.73971 32.4511C7.74126 32.3118 7.68555 32.1866 7.59734 32.0974ZM10.6212 38.1116C10.5315 38.0224 10.4092 37.966 10.273 37.966C10.1368 37.966 10.0146 38.0224 9.92482 38.1116C9.83506 38.2024 9.7809 38.326 9.7809 38.4637C9.7809 38.6014 9.83506 38.725 9.92482 38.8158C10.0146 38.905 10.1368 38.9614 10.273 38.9614C10.4076 38.9614 10.5315 38.905 10.6212 38.8158C10.711 38.725 10.7651 38.6014 10.7651 38.4637C10.7667 38.326 10.711 38.2024 10.6212 38.1116ZM9.40022 35.2775C9.31201 35.1883 9.18821 35.1319 9.05202 35.1319C8.91584 35.1319 8.79359 35.1883 8.70383 35.2775C8.61562 35.3682 8.55991 35.4919 8.55991 35.6296C8.55991 35.7595 8.60788 35.8784 8.68835 35.9661C8.69299 35.9707 8.69764 35.9754 8.70383 35.9801C8.79358 36.0709 8.91584 36.1257 9.05202 36.1257C9.18821 36.1257 9.31046 36.0693 9.40022 35.9801C9.48998 35.8909 9.54414 35.7657 9.54414 35.628C9.54414 35.4903 9.48843 35.3667 9.40022 35.2759L9.40022 35.2775ZM38.0713 29.7048C37.9351 29.7048 37.8129 29.7595 37.7231 29.8503C37.6334 29.9411 37.5792 30.0647 37.5792 30.2024C37.5792 30.3401 37.6334 30.4638 37.7231 30.5545C37.8113 30.6453 37.9351 30.7001 38.0713 30.7001C38.2075 30.7001 38.3298 30.6453 38.4195 30.5545C38.5077 30.4638 38.5634 30.3401 38.5634 30.2024C38.5634 30.0647 38.5077 29.9411 38.4195 29.8503C38.3298 29.7595 38.2075 29.7048 38.0713 29.7048ZM41.2608 32.445V32.4544C41.2623 32.5905 41.3165 32.7126 41.4047 32.8018C41.4929 32.891 41.6167 32.9473 41.7529 32.9473C41.8875 32.9473 42.0113 32.891 42.1011 32.8018C42.1909 32.711 42.245 32.5874 42.245 32.4497C42.245 32.312 42.1909 32.1883 42.1011 32.0976C42.0114 32.0068 41.8891 31.952 41.7529 31.952C41.6167 31.952 41.4945 32.0068 41.4047 32.0976C41.3181 32.1868 41.2623 32.3088 41.2608 32.445ZM38.7275 37.966C38.5913 37.966 38.4691 38.0223 38.3793 38.1115C38.2895 38.2023 38.2354 38.3259 38.2354 38.4636C38.2354 38.6014 38.2911 38.725 38.3793 38.8158C38.4691 38.9065 38.5913 38.9613 38.7275 38.9613C38.8621 38.9613 38.9859 38.9065 39.0757 38.8158C39.1654 38.725 39.2196 38.6014 39.2196 38.4636C39.2196 38.3259 39.1654 38.2023 39.0757 38.1115C39.071 38.1068 39.0664 38.1021 39.0618 38.0959C38.9736 38.0161 38.8575 37.966 38.7275 37.966ZM39.95 35.1335C39.8154 35.1335 39.6916 35.1898 39.6018 35.279C39.5121 35.3698 39.4579 35.4934 39.4579 35.6311C39.4579 35.7688 39.5121 35.8925 39.6018 35.9832C39.6916 36.074 39.8138 36.1288 39.95 36.1288C40.0862 36.1288 40.2085 36.0724 40.2982 35.9832C40.3864 35.894 40.4422 35.7688 40.4422 35.6311C40.4422 35.4934 40.3864 35.3698 40.2982 35.279C40.2085 35.1882 40.0862 35.1335 39.95 35.1335Z" fill="white"/>
</svg>
