    <svg
      width="280"
      height="196"
      viewBox="0 0 280 198"
      fill="none"
      xmlns="http://www.w3.org/2000/svg"
    >
      <path
        d="M140 197.198C217.32 197.198 280 193.537 280 189.022C280 184.507 217.32 180.846 140 180.846C62.6801 180.846 0 184.507 0 189.022C0 193.537 62.6801 197.198 140 197.198Z"
        fill="#F5F5F5"
      />
      <path
        d="M63.2222 68.1442C63.2222 63.3887 66.3523 59.5192 70.1995 59.5192C74.0466 59.5192 77.176 63.388 77.176 68.1442C77.176 72.9004 74.0459 76.7692 70.1995 76.7692C66.3523 76.77 63.2222 72.9004 63.2222 68.1442ZM64.6663 68.1442C64.6663 72.104 67.1487 75.3251 70.1995 75.3251C73.2502 75.3251 75.7319 72.104 75.7319 68.1442C75.7319 64.1851 73.2502 60.9633 70.1995 60.9633C67.1487 60.964 64.6663 64.1851 64.6663 68.1442Z"
        fill="#263238"
      />
      <path
        d="M49.4937 68.1442C49.4937 63.3887 52.6238 59.5192 56.4709 59.5192C60.3181 59.5192 63.4475 63.388 63.4475 68.1442C63.4475 72.9004 60.3174 76.7692 56.4709 76.7692C52.6238 76.77 49.4937 72.9004 49.4937 68.1442ZM50.9378 68.1442C50.9378 72.104 53.4202 75.3251 56.4709 75.3251C59.5217 75.3251 62.0034 72.104 62.0034 68.1442C62.0034 64.1851 59.5217 60.9633 56.4709 60.9633C53.4202 60.9633 50.9378 64.1851 50.9378 68.1442Z"
        fill="#263238"
      />
      <path
        d="M35.7661 68.1442C35.7661 63.3887 38.8955 59.5192 42.7434 59.5192C46.5906 59.5192 49.72 63.388 49.72 68.1442C49.72 72.9004 46.5898 76.7692 42.7434 76.7692C38.8955 76.77 35.7661 72.9004 35.7661 68.1442ZM37.2102 68.1442C37.2102 72.104 39.6927 75.3251 42.7434 75.3251C45.7941 75.3251 48.2759 72.104 48.2759 68.1442C48.2759 64.1851 45.7941 60.9633 42.7434 60.9633C39.692 60.964 37.2102 64.1851 37.2102 68.1442Z"
        fill="#263238"
      />
      <path
        d="M22.0378 68.1442C22.0378 63.3887 25.168 59.5192 29.0151 59.5192C32.8623 59.5192 35.9917 63.388 35.9917 68.1442C35.9917 72.9004 32.8623 76.7692 29.0151 76.7692C25.168 76.77 22.0378 72.9004 22.0378 68.1442ZM23.482 68.1442C23.482 72.104 25.9644 75.3251 29.0151 75.3251C32.0658 75.3251 34.5476 72.104 34.5476 68.1442C34.5476 64.1851 32.0658 60.9633 29.0151 60.9633C25.9644 60.964 23.482 64.1851 23.482 68.1442Z"
        fill="#263238"
      />
      <path
        d="M76.9495 68.1442C76.9495 63.3887 80.0789 59.5192 83.9268 59.5192C87.7739 59.5192 90.9033 63.388 90.9033 68.1442C90.9033 72.9004 87.7732 76.7692 83.9268 76.7692C80.0796 76.77 76.9495 72.9004 76.9495 68.1442ZM78.3936 68.1442C78.3936 72.104 80.876 75.3251 83.9268 75.3251C86.9775 75.3251 89.4592 72.104 89.4592 68.1442C89.4592 64.1851 86.9775 60.9633 83.9268 60.9633C80.876 60.9633 78.3936 64.1851 78.3936 68.1442Z"
        fill="#263238"
      />
      <path
        d="M12.9536 187.249H98.9397L98.9397 68.312L12.9536 68.312L12.9536 187.249Z"
        fill="#263238"
      />
      <path
        opacity="0.7"
        d="M12.9536 187.249H98.9397L98.9397 68.312L12.9536 68.312L12.9536 187.249Z"
        fill="white"
      />
      <path
        opacity="0.6"
        d="M20.7078 187.249H98.9397L98.9397 68.312L20.7078 68.312L20.7078 187.249Z"
        fill="white"
      />
      <path
        opacity="0.2"
        d="M15.5355 187.25L15.1745 76.0974L14.8135 187.25H15.5355Z"
        fill="black"
      />
      <path
        opacity="0.2"
        d="M19.1354 187.25L18.7744 83.0216L18.4133 187.25H19.1354Z"
        fill="black"
      />
      <path
        opacity="0.2"
        d="M16.6143 68.4016L16.9753 151.965L17.3363 68.4016H16.6143Z"
        fill="black"
      />
      <path
        d="M86.0022 73.9661C86.0022 75.3214 86.9084 76.4204 88.0269 76.4204C89.1453 76.4204 90.0515 75.3214 90.0515 73.9661C90.0515 72.6108 89.1453 71.5118 88.0269 71.5118C86.9084 71.5118 86.0022 72.6108 86.0022 73.9661Z"
        fill="#263238"
      />
      <path
        d="M88.1517 74.6922C88.3546 74.6922 88.556 74.607 88.699 74.4417C90.0998 72.8185 90.9027 70.523 90.9027 68.1438C90.9027 63.3883 87.7726 59.5188 83.9262 59.5188C81.0913 59.5188 78.5598 61.607 77.4781 64.8382C77.3518 65.2159 77.5554 65.6253 77.9338 65.7524C78.3121 65.878 78.7215 65.6751 78.8479 65.2967C79.7295 62.6641 81.7224 60.9629 83.9262 60.9629C86.9769 60.9629 89.4586 64.1841 89.4586 68.1438C89.4586 70.1822 88.7827 72.1332 87.6058 73.4987C87.3458 73.8005 87.3791 74.2568 87.6809 74.5175C87.8174 74.6344 87.9849 74.6922 88.1517 74.6922Z"
        fill="#263238"
      />
      <g opacity="0.4">
        <path
          d="M88.1517 74.6922C88.3546 74.6922 88.556 74.607 88.699 74.4417C90.0998 72.8185 90.9027 70.523 90.9027 68.1438C90.9027 63.3883 87.7726 59.5188 83.9262 59.5188C81.0913 59.5188 78.5598 61.607 77.4781 64.8382C77.3518 65.2159 77.5554 65.6253 77.9338 65.7524C78.3121 65.878 78.7215 65.6751 78.8479 65.2967C79.7295 62.6641 81.7224 60.9629 83.9262 60.9629C86.9769 60.9629 89.4586 64.1841 89.4586 68.1438C89.4586 70.1822 88.7827 72.1332 87.6058 73.4987C87.3458 73.8005 87.3791 74.2568 87.6809 74.5175C87.8174 74.6344 87.9849 74.6922 88.1517 74.6922Z"
          fill="white"
        />
      </g>
      <path
        d="M72.2747 73.9661C72.2747 75.3214 73.1816 76.4204 74.2993 76.4204C75.4178 76.4204 76.324 75.3214 76.324 73.9661C76.324 72.6108 75.4171 71.5118 74.2993 71.5118C73.1816 71.5118 72.2747 72.6108 72.2747 73.9661Z"
        fill="#263238"
      />
      <path
        d="M74.4251 74.6922C74.628 74.6922 74.8295 74.607 74.9724 74.4417C76.3725 72.8185 77.1762 70.523 77.1762 68.1438C77.1762 63.3883 74.046 59.5188 70.1996 59.5188C67.3648 59.5188 64.8332 61.607 63.7516 64.8382C63.6252 65.2159 63.8288 65.6253 64.2072 65.7524C64.5856 65.878 64.995 65.6751 65.1213 65.2967C66.003 62.6641 67.9959 60.9629 70.1996 60.9629C73.2503 60.9629 75.732 64.1841 75.732 68.1438C75.732 70.1822 75.0562 72.1332 73.8792 73.4987C73.6193 73.8005 73.6525 74.2568 73.9543 74.5175C74.0901 74.6344 74.2576 74.6922 74.4251 74.6922Z"
        fill="#263238"
      />
      <g opacity="0.4">
        <path
          d="M74.4251 74.6922C74.628 74.6922 74.8295 74.607 74.9724 74.4417C76.3725 72.8185 77.1762 70.523 77.1762 68.1438C77.1762 63.3883 74.046 59.5188 70.1996 59.5188C67.3648 59.5188 64.8332 61.607 63.7516 64.8382C63.6252 65.2159 63.8288 65.6253 64.2072 65.7524C64.5856 65.878 64.995 65.6751 65.1213 65.2967C66.003 62.6641 67.9959 60.9629 70.1996 60.9629C73.2503 60.9629 75.732 64.1841 75.732 68.1438C75.732 70.1822 75.0562 72.1332 73.8792 73.4987C73.6193 73.8005 73.6525 74.2568 73.9543 74.5175C74.0901 74.6344 74.2576 74.6922 74.4251 74.6922Z"
          fill="white"
        />
      </g>
      <path
        d="M58.5474 73.9661C58.5474 75.3214 59.4535 76.4204 60.572 76.4204C61.6905 76.4204 62.5967 75.3214 62.5967 73.9661C62.5967 72.6108 61.6905 71.5118 60.572 71.5118C59.4535 71.5118 58.5474 72.6108 58.5474 73.9661Z"
        fill="#263238"
      />
      <path
        d="M60.6968 74.6922C60.8997 74.6922 61.1012 74.607 61.2441 74.4417C62.6442 72.8185 63.4479 70.523 63.4479 68.1438C63.4479 63.3883 60.3178 59.5188 56.4713 59.5188C53.6365 59.5188 51.105 61.607 50.0233 64.8382C49.8969 65.2159 50.1006 65.6253 50.4789 65.7524C50.8573 65.878 51.2667 65.6751 51.3931 65.2967C52.2747 62.6641 54.2683 60.9629 56.4713 60.9629C59.522 60.9629 62.0038 64.1841 62.0038 68.1438C62.0038 70.1822 61.3279 72.1332 60.151 73.4987C59.891 73.8005 59.9242 74.2568 60.226 74.5175C60.3618 74.6344 60.5293 74.6922 60.6968 74.6922Z"
        fill="#263238"
      />
      <g opacity="0.4">
        <path
          d="M60.6968 74.6922C60.8997 74.6922 61.1012 74.607 61.2441 74.4417C62.6442 72.8185 63.4479 70.523 63.4479 68.1438C63.4479 63.3883 60.3178 59.5188 56.4713 59.5188C53.6365 59.5188 51.105 61.607 50.0233 64.8382C49.8969 65.2159 50.1006 65.6253 50.4789 65.7524C50.8573 65.878 51.2667 65.6751 51.3931 65.2967C52.2747 62.6641 54.2683 60.9629 56.4713 60.9629C59.522 60.9629 62.0038 64.1841 62.0038 68.1438C62.0038 70.1822 61.3279 72.1332 60.151 73.4987C59.891 73.8005 59.9242 74.2568 60.226 74.5175C60.3618 74.6344 60.5293 74.6922 60.6968 74.6922Z"
          fill="white"
        />
      </g>
      <path
        d="M44.8198 73.9661C44.8198 75.3214 45.7267 76.4204 46.8445 76.4204C47.963 76.4204 48.8692 75.3214 48.8692 73.9661C48.8692 72.6108 47.9622 71.5118 46.8445 71.5118C45.726 71.5118 44.8198 72.6108 44.8198 73.9661Z"
        fill="#263238"
      />
      <path
        d="M46.9703 74.6922C47.1732 74.6922 47.3746 74.607 47.5176 74.4417C48.9184 72.8185 49.7213 70.523 49.7213 68.1438C49.7213 63.3883 46.5912 59.5188 42.7448 59.5188C39.9099 59.5188 37.3784 61.607 36.2967 64.8382C36.1704 65.2159 36.374 65.6253 36.7524 65.7524C37.1307 65.878 37.5401 65.6751 37.6665 65.2967C38.5481 62.6641 40.541 60.9629 42.7448 60.9629C45.7955 60.9629 48.2772 64.1841 48.2772 68.1438C48.2772 70.1822 47.6014 72.1332 46.4244 73.4987C46.1644 73.8005 46.1977 74.2568 46.4995 74.5175C46.6352 74.6344 46.8028 74.6922 46.9703 74.6922Z"
        fill="#263238"
      />
      <g opacity="0.4">
        <path
          d="M46.9703 74.6922C47.1732 74.6922 47.3746 74.607 47.5176 74.4417C48.9184 72.8185 49.7213 70.523 49.7213 68.1438C49.7213 63.3883 46.5912 59.5188 42.7448 59.5188C39.9099 59.5188 37.3784 61.607 36.2967 64.8382C36.1704 65.2159 36.374 65.6253 36.7524 65.7524C37.1307 65.878 37.5401 65.6751 37.6665 65.2967C38.5481 62.6641 40.541 60.9629 42.7448 60.9629C45.7955 60.9629 48.2772 64.1841 48.2772 68.1438C48.2772 70.1822 47.6014 72.1332 46.4244 73.4987C46.1644 73.8005 46.1977 74.2568 46.4995 74.5175C46.6352 74.6344 46.8028 74.6922 46.9703 74.6922Z"
          fill="white"
        />
      </g>
      <path
        d="M31.0923 73.9661C31.0923 75.3214 31.9992 76.4204 33.1169 76.4204C34.2354 76.4204 35.1416 75.3214 35.1416 73.9661C35.1416 72.6108 34.2347 71.5118 33.1169 71.5118C31.9985 71.5118 31.0923 72.6108 31.0923 73.9661Z"
        fill="#263238"
      />
      <path
        d="M33.2427 74.6922C33.4456 74.6922 33.6471 74.607 33.7901 74.4417C35.1901 72.8185 35.9938 70.523 35.9938 68.1438C35.9938 63.3883 32.8644 59.5188 29.0172 59.5188C26.1824 59.5188 23.6508 61.607 22.5692 64.8382C22.4428 65.2159 22.6465 65.6253 23.0248 65.7524C23.4032 65.878 23.8126 65.6751 23.939 65.2967C24.8206 62.6641 26.8135 60.9629 29.0172 60.9629C32.0679 60.9629 34.5497 64.1841 34.5497 68.1438C34.5497 70.1822 33.8738 72.1332 32.6968 73.4987C32.4369 73.8005 32.4701 74.2568 32.7719 74.5175C32.9077 74.6344 33.0752 74.6922 33.2427 74.6922Z"
        fill="#263238"
      />
      <g opacity="0.4">
        <path
          d="M33.2427 74.6922C33.4456 74.6922 33.6471 74.607 33.7901 74.4417C35.1901 72.8185 35.9938 70.523 35.9938 68.1438C35.9938 63.3883 32.8644 59.5188 29.0172 59.5188C26.1824 59.5188 23.6508 61.607 22.5692 64.8382C22.4428 65.2159 22.6465 65.6253 23.0248 65.7524C23.4032 65.878 23.8126 65.6751 23.939 65.2967C24.8206 62.6641 26.8135 60.9629 29.0172 60.9629C32.0679 60.9629 34.5497 64.1841 34.5497 68.1438C34.5497 70.1822 33.8738 72.1332 32.6968 73.4987C32.4369 73.8005 32.4701 74.2568 32.7719 74.5175C32.9077 74.6344 33.0752 74.6922 33.2427 74.6922Z"
          fill="white"
        />
      </g>
      <path
        d="M43.2997 123.033H37.248V133.351H43.2997V123.033Z"
        fill="#407BFF"
      />
      <path
        d="M53.1029 115.524H47.0513V133.351H53.1029V115.524Z"
        fill="#407BFF"
      />
      <path d="M62.9071 118.34H56.8555V133.35H62.9071V118.34Z" fill="#407BFF" />
      <path
        d="M72.7103 110.832H66.6587V133.351H72.7103V110.832Z"
        fill="#407BFF"
      />
      <path
        d="M82.5128 103.322H76.4619V133.35H82.5128V103.322Z"
        fill="#407BFF"
      />
      <path
        opacity="0.5"
        d="M43.2997 123.033H37.248V133.351H43.2997V123.033Z"
        fill="white"
      />
      <path
        opacity="0.5"
        d="M53.1029 115.524H47.0513V133.351H53.1029V115.524Z"
        fill="white"
      />
      <path
        opacity="0.5"
        d="M62.9071 118.34H56.8555V133.35H62.9071V118.34Z"
        fill="white"
      />
      <path
        opacity="0.5"
        d="M72.7103 110.832H66.6587V133.351H72.7103V110.832Z"
        fill="white"
      />
      <path
        opacity="0.5"
        d="M82.5128 103.322H76.4619V133.35H82.5128V103.322Z"
        fill="white"
      />
      <path
        d="M90.581 131.922H28.9385V134.778H90.581V131.922Z"
        fill="#263238"
      />
      <path
        d="M30.8743 124.318L50.0768 109.036L59.8795 114.726L86.8688 91.7197"
        stroke="#407BFF"
        strokeWidth="2.9675"
        strokeMiterlimit="10"
      />
      <path
        d="M88.4446 90.3921L84.4285 91.0145L87.2582 94.0363L88.4446 90.3921Z"
        fill="#407BFF"
      />
      <g opacity="0.3">
        <path
          d="M63.8976 144.06H29.0133C28.6147 144.06 28.2913 143.737 28.2913 143.338C28.2913 142.938 28.6147 142.615 29.0133 142.615H63.8976C64.2962 142.615 64.6197 142.938 64.6197 143.338C64.6197 143.737 64.2962 144.06 63.8976 144.06Z"
          fill="black"
        />
      </g>
      <g opacity="0.3">
        <path
          d="M90.8386 150.514H33.9921C33.5935 150.514 33.27 150.191 33.27 149.792C33.27 149.393 33.5935 149.07 33.9921 149.07H90.8386C91.2372 149.07 91.5607 149.393 91.5607 149.792C91.5607 150.191 91.2372 150.514 90.8386 150.514Z"
          fill="black"
        />
        <path
          d="M90.9184 154.132H29.0138C28.6152 154.132 28.2917 153.809 28.2917 153.41C28.2917 153.01 28.6152 152.688 29.0138 152.688H90.9177C91.3163 152.688 91.6397 153.01 91.6397 153.41C91.6405 153.809 91.317 154.132 90.9184 154.132Z"
          fill="black"
        />
        <path
          d="M90.9987 157.75H29.0949C28.6963 157.75 28.3728 157.428 28.3728 157.028C28.3728 156.629 28.6963 156.306 29.0949 156.306H90.9987C91.3973 156.306 91.7208 156.629 91.7208 157.028C91.7208 157.428 91.3973 157.75 90.9987 157.75Z"
          fill="black"
        />
        <path
          d="M80.9615 161.37H29.1715C28.7729 161.37 28.4495 161.047 28.4495 160.648C28.4495 160.248 28.7729 159.926 29.1715 159.926H80.9607C81.3593 159.926 81.6828 160.248 81.6828 160.648C81.6835 161.046 81.36 161.37 80.9615 161.37Z"
          fill="black"
        />
      </g>
      <g opacity="0.3">
        <path
          d="M90.8386 167.854H33.9921C33.5935 167.854 33.27 167.531 33.27 167.132C33.27 166.732 33.5935 166.41 33.9921 166.41H90.8386C91.2372 166.41 91.5607 166.732 91.5607 167.132C91.5607 167.53 91.2372 167.854 90.8386 167.854Z"
          fill="black"
        />
        <path
          d="M90.9184 171.472H29.0138C28.6152 171.472 28.2917 171.149 28.2917 170.75C28.2917 170.35 28.6152 170.028 29.0138 170.028H90.9177C91.3163 170.028 91.6397 170.35 91.6397 170.75C91.6405 171.149 91.317 171.472 90.9184 171.472Z"
          fill="black"
        />
        <path
          d="M90.9987 175.09H29.0949C28.6963 175.09 28.3728 174.767 28.3728 174.368C28.3728 173.969 28.6963 173.646 29.0949 173.646H90.9987C91.3973 173.646 91.7208 173.969 91.7208 174.368C91.7208 174.767 91.3973 175.09 90.9987 175.09Z"
          fill="black"
        />
        <path
          d="M80.9615 178.709H29.1715C28.7729 178.709 28.4495 178.386 28.4495 177.987C28.4495 177.587 28.7729 177.265 29.1715 177.265H80.9607C81.3593 177.265 81.6828 177.587 81.6828 177.987C81.6835 178.385 81.36 178.709 80.9615 178.709Z"
          fill="black"
        />
      </g>
      <g opacity="0.3">
        <path
          d="M63.8976 84.0907H29.0133C28.6147 84.0907 28.2913 83.768 28.2913 83.3687C28.2913 82.9694 28.6147 82.6466 29.0133 82.6466H63.8976C64.2962 82.6466 64.6197 82.9694 64.6197 83.3687C64.6197 83.7672 64.2962 84.0907 63.8976 84.0907Z"
          fill="black"
        />
      </g>
      <path
        d="M255.851 154.09H172.936C171.556 154.09 170.437 152.971 170.437 151.591V14.6168C170.437 13.2369 171.555 12.1177 172.936 12.1177H255.851C257.231 12.1177 258.35 13.2362 258.35 14.6168V151.591C258.35 152.971 257.231 154.09 255.851 154.09Z"
        fill="#407BFF"
      />
      <path
        d="M238.102 16.5545H190.684V11.9037C190.684 11.6466 190.893 11.4379 191.15 11.4379H237.637C237.894 11.4379 238.103 11.6466 238.103 11.9037L238.102 16.5545Z"
        fill="#263238"
      />
      <path
        opacity="0.9"
        d="M254.874 16.5549H173.914V149.637H254.874V16.5549Z"
        fill="white"
      />
      <path
        d="M230.268 22.678H216.024L215.862 22.1798C215.654 21.5407 215.066 21.1118 214.397 21.1118C213.728 21.1118 213.14 21.5407 212.932 22.1798L212.769 22.6787H198.525C197.374 22.6787 196.438 21.7458 196.438 20.5992V15.357C196.438 14.2104 197.374 13.2775 198.525 13.2775H230.267C231.414 13.2775 232.347 14.2104 232.347 15.357V20.5992C232.347 21.7451 231.414 22.678 230.268 22.678ZM217.022 21.2339H230.268C230.618 21.2339 230.903 20.9487 230.903 20.5985V15.3563C230.903 15.0061 230.618 14.7209 230.268 14.7209H198.526C198.166 14.7209 197.883 15.0003 197.883 15.3563V20.5985C197.883 20.9544 198.166 21.2339 198.526 21.2339H211.771C212.286 20.2793 213.284 19.667 214.397 19.667C215.51 19.667 216.507 20.2793 217.022 21.2339Z"
        fill="#263238"
      />
      <g opacity="0.5">
        <path
          d="M230.268 22.678H216.024L215.862 22.1798C215.654 21.5407 215.066 21.1118 214.397 21.1118C213.728 21.1118 213.14 21.5407 212.932 22.1798L212.769 22.6787H198.525C197.374 22.6787 196.438 21.7458 196.438 20.5992V15.357C196.438 14.2104 197.374 13.2775 198.525 13.2775H230.267C231.414 13.2775 232.347 14.2104 232.347 15.357V20.5992C232.347 21.7451 231.414 22.678 230.268 22.678ZM217.022 21.2339H230.268C230.618 21.2339 230.903 20.9487 230.903 20.5985V15.3563C230.903 15.0061 230.618 14.7209 230.268 14.7209H198.526C198.166 14.7209 197.883 15.0003 197.883 15.3563V20.5985C197.883 20.9544 198.166 21.2339 198.526 21.2339H211.771C212.286 20.2793 213.284 19.667 214.397 19.667C215.51 19.667 216.507 20.2793 217.022 21.2339Z"
          fill="white"
        />
      </g>
      <path
        d="M228.034 15.5784H200.755C200.36 15.5784 200.041 15.2585 200.041 14.8643V13.1501C200.041 12.7558 200.36 12.436 200.755 12.436H228.034C228.428 12.436 228.748 12.7558 228.748 13.1501V14.8643C228.748 15.2585 228.428 15.5784 228.034 15.5784Z"
        fill="#263238"
      />
      <path
        opacity="0.2"
        d="M228.034 15.5784H200.755C200.36 15.5784 200.041 15.2585 200.041 14.8643V13.1501C200.041 12.7558 200.36 12.436 200.755 12.436H228.034C228.428 12.436 228.748 12.7558 228.748 13.1501V14.8643C228.748 15.2585 228.428 15.5784 228.034 15.5784Z"
        fill="white"
      />
      <path
        d="M248.547 128.082C250.497 119.824 245.383 111.549 237.125 109.599C228.867 107.649 220.592 112.762 218.642 121.02C216.693 129.278 221.806 137.553 230.064 139.503C238.322 141.453 246.597 136.34 248.547 128.082Z"
        fill="#407BFF"
      />
      <path
        opacity="0.3"
        d="M233.594 124.527H248.958C248.958 132.955 242.023 139.891 233.594 139.891C225.165 139.891 218.23 132.955 218.23 124.527C218.23 116.098 225.165 109.163 233.594 109.163C233.613 109.163 233.631 109.163 233.65 109.163L233.594 124.527Z"
        fill="white"
      />
      <path
        opacity="0.3"
        d="M233.594 124.527L241.885 137.462C239.41 139.047 236.533 139.891 233.594 139.891C225.165 139.891 218.23 132.955 218.23 124.527C218.23 116.098 225.165 109.163 233.594 109.163C233.612 109.163 233.629 109.163 233.647 109.163L233.594 124.527Z"
        fill="white"
      />
      <path
        opacity="0.3"
        d="M233.594 124.527L220.64 132.789C219.066 130.321 218.229 127.454 218.229 124.527C218.229 116.098 225.164 109.163 233.593 109.163C233.611 109.163 233.628 109.163 233.646 109.163L233.594 124.527Z"
        fill="white"
      />
      <g opacity="0.5">
        <path
          d="M179.749 40.3853V76.6501H249.037V40.3853H179.749ZM248.495 46.0491H236.502V40.9268H248.495V46.0491ZM210.188 46.0491H197.844V40.9268H210.188V46.0491ZM210.73 40.9268H223.074V46.0491H210.73V40.9268ZM210.188 46.5907V76.1086H197.844V46.5907H210.188ZM210.73 46.5907H223.074V76.1086H210.73V46.5907ZM223.616 46.5907H235.96V76.1086H223.616V46.5907ZM223.616 46.0491V40.9268H235.96V46.0491H223.616ZM197.302 40.9268V46.0491H180.291V40.9268H197.302ZM180.291 46.5907H197.302V76.1086H180.291V46.5907ZM236.502 76.1086V46.5907H248.495V76.1086H236.502Z"
          fill="black"
        />
        <path
          d="M201.777 51.6581H206.775C207.174 51.6581 207.497 51.3346 207.497 50.936C207.497 50.5374 207.174 50.2139 206.775 50.2139H201.777C201.378 50.2139 201.054 50.5374 201.054 50.936C201.054 51.3353 201.377 51.6581 201.777 51.6581Z"
          fill="black"
        />
        <path
          d="M214.392 58.2102H219.818C220.217 58.2102 220.54 57.8874 220.54 57.4881C220.54 57.0888 220.217 56.7661 219.818 56.7661H214.392C213.994 56.7661 213.67 57.0888 213.67 57.4881C213.67 57.8867 213.994 58.2102 214.392 58.2102Z"
          fill="black"
        />
        <path
          d="M220.058 69.8694H214.392C213.994 69.8694 213.67 70.1921 213.67 70.5914C213.67 70.9907 213.994 71.3135 214.392 71.3135H220.058C220.456 71.3135 220.78 70.9907 220.78 70.5914C220.78 70.1921 220.456 69.8694 220.058 69.8694Z"
          fill="black"
        />
        <path
          d="M232.619 63.3163H226.632C226.233 63.3163 225.91 63.639 225.91 64.0383C225.91 64.4376 226.233 64.7604 226.632 64.7604H232.619C233.017 64.7604 233.341 64.4376 233.341 64.0383C233.341 63.639 233.017 63.3163 232.619 63.3163Z"
          fill="black"
        />
        <path
          d="M245.532 50.2139H239.473C239.075 50.2139 238.751 50.5374 238.751 50.936C238.751 51.3346 239.075 51.6581 239.473 51.6581H245.532C245.931 51.6581 246.254 51.3346 246.254 50.936C246.254 50.5374 245.931 50.2139 245.532 50.2139Z"
          fill="black"
        />
        <path
          d="M244.758 69.8694H239.473C239.075 69.8694 238.751 70.1921 238.751 70.5914C238.751 70.9907 239.075 71.3135 239.473 71.3135H244.758C245.157 71.3135 245.48 70.9907 245.48 70.5914C245.48 70.1921 245.157 69.8694 244.758 69.8694Z"
          fill="black"
        />
        <path
          d="M201.777 64.7604H206.061C206.46 64.7604 206.783 64.4376 206.783 64.0383C206.783 63.639 206.46 63.3163 206.061 63.3163H201.777C201.378 63.3163 201.054 63.639 201.054 64.0383C201.054 64.4369 201.377 64.7604 201.777 64.7604Z"
          fill="black"
        />
        <path
          d="M206.774 69.8694H201.776C201.377 69.8694 201.053 70.1921 201.053 70.5914C201.053 70.9907 201.377 71.3135 201.776 71.3135H206.774C207.173 71.3135 207.496 70.9907 207.496 70.5914C207.496 70.1921 207.174 69.8694 206.774 69.8694Z"
          fill="black"
        />
        <path
          d="M182.894 51.6581H194.32C194.719 51.6581 195.042 51.3346 195.042 50.936C195.042 50.5374 194.719 50.2139 194.32 50.2139H182.894C182.496 50.2139 182.172 50.5374 182.172 50.936C182.172 51.3353 182.496 51.6581 182.894 51.6581Z"
          fill="black"
        />
        <path
          d="M182.894 58.2102H190.502C190.901 58.2102 191.224 57.8874 191.224 57.4881C191.224 57.0888 190.901 56.7661 190.502 56.7661H182.894C182.496 56.7661 182.172 57.0888 182.172 57.4881C182.172 57.8867 182.496 58.2102 182.894 58.2102Z"
          fill="black"
        />
        <path
          d="M194.32 63.3163H182.894C182.496 63.3163 182.172 63.639 182.172 64.0383C182.172 64.4376 182.496 64.7604 182.894 64.7604H194.32C194.719 64.7604 195.042 64.4376 195.042 64.0383C195.042 63.639 194.72 63.3163 194.32 63.3163Z"
          fill="black"
        />
        <path
          d="M188.607 69.8694H182.894C182.496 69.8694 182.172 70.1921 182.172 70.5914C182.172 70.9907 182.496 71.3135 182.894 71.3135H188.607C189.006 71.3135 189.329 70.9907 189.329 70.5914C189.329 70.1921 189.007 69.8694 188.607 69.8694Z"
          fill="black"
        />
      </g>
      <g opacity="0.5">
        <path
          d="M207.506 32.7831H180.471C180.073 32.7831 179.749 32.4596 179.749 32.0611C179.749 31.6625 180.073 31.339 180.471 31.339H207.506C207.904 31.339 208.228 31.6625 208.228 32.0611C208.228 32.4604 207.904 32.7831 207.506 32.7831Z"
          fill="black"
        />
      </g>
      <g opacity="0.5">
        <path
          d="M198.024 36.8373H180.471C180.073 36.8373 179.749 36.5138 179.749 36.1152C179.749 35.7166 180.073 35.3931 180.471 35.3931H198.024C198.423 35.3931 198.746 35.7166 198.746 36.1152C198.746 36.5138 198.423 36.8373 198.024 36.8373Z"
          fill="black"
        />
      </g>
      <g opacity="0.5">
        <path
          d="M215.355 82.9115H180.471C180.073 82.9115 179.749 82.5888 179.749 82.1895C179.749 81.7902 180.073 81.4674 180.471 81.4674H215.355C215.753 81.4674 216.077 81.7902 216.077 82.1895C216.077 82.5888 215.754 82.9115 215.355 82.9115Z"
          fill="black"
        />
      </g>
      <path
        d="M184.059 111.534H179.749V115.843H184.059V111.534Z"
        fill="#407BFF"
      />
      <g opacity="0.5">
        <path
          d="M208.584 114.41H187.192C186.793 114.41 186.47 114.087 186.47 113.688C186.47 113.289 186.793 112.966 187.192 112.966H208.584C208.982 112.966 209.306 113.289 209.306 113.688C209.306 114.087 208.983 114.41 208.584 114.41Z"
          fill="black"
        />
      </g>
      <path
        d="M184.059 118.76H179.749V123.069H184.059V118.76Z"
        fill="#407BFF"
      />
      <g opacity="0.5">
        <path
          d="M208.584 121.636H187.192C186.793 121.636 186.47 121.313 186.47 120.914C186.47 120.514 186.793 120.192 187.192 120.192H208.584C208.982 120.192 209.306 120.514 209.306 120.914C209.306 121.312 208.983 121.636 208.584 121.636Z"
          fill="black"
        />
      </g>
      <path
        d="M184.059 125.984H179.749V130.294H184.059V125.984Z"
        fill="#407BFF"
      />
      <g opacity="0.5">
        <path
          d="M208.584 128.861H187.192C186.793 128.861 186.47 128.538 186.47 128.139C186.47 127.739 186.793 127.417 187.192 127.417H208.584C208.982 127.417 209.306 127.739 209.306 128.139C209.306 128.538 208.983 128.861 208.584 128.861Z"
          fill="black"
        />
      </g>
      <path
        d="M184.059 133.21H179.749V137.519H184.059V133.21Z"
        fill="#407BFF"
      />
      <g opacity="0.5">
        <path
          d="M208.584 136.086H187.192C186.793 136.086 186.47 135.764 186.47 135.364C186.47 134.965 186.793 134.642 187.192 134.642H208.584C208.982 134.642 209.306 134.965 209.306 135.364C209.306 135.764 208.983 136.086 208.584 136.086Z"
          fill="black"
        />
      </g>
      <g opacity="0.5">
        <path
          d="M248.076 89.3659H185.449C185.05 89.3659 184.727 89.0431 184.727 88.6438C184.727 88.2445 185.05 87.9218 185.449 87.9218H248.076C248.474 87.9218 248.798 88.2445 248.798 88.6438C248.798 89.0431 248.474 89.3659 248.076 89.3659Z"
          fill="black"
        />
        <path
          d="M248.155 92.9848H180.471C180.073 92.9848 179.749 92.662 179.749 92.2627C179.749 91.8634 180.073 91.5406 180.471 91.5406H248.155C248.554 91.5406 248.877 91.8634 248.877 92.2627C248.877 92.6613 248.554 92.9848 248.155 92.9848Z"
          fill="black"
        />
        <path
          d="M248.236 96.602H180.552C180.154 96.602 179.83 96.2792 179.83 95.8799C179.83 95.4806 180.154 95.1578 180.552 95.1578H248.236C248.635 95.1578 248.958 95.4806 248.958 95.8799C248.958 96.2792 248.636 96.602 248.236 96.602Z"
          fill="black"
        />
        <path
          d="M238.198 100.221H180.629C180.23 100.221 179.907 99.8981 179.907 99.4988C179.907 99.0995 180.23 98.7767 180.629 98.7767H238.198C238.597 98.7767 238.92 99.0995 238.92 99.4988C238.92 99.8981 238.597 100.221 238.198 100.221Z"
          fill="black"
        />
      </g>
      <path
        opacity="0.3"
        d="M184.06 118.76H179.75V123.069H184.06V118.76Z"
        fill="white"
      />
      <path
        opacity="0.5"
        d="M184.06 125.984H179.75V130.294H184.06V125.984Z"
        fill="white"
      />
      <path
        opacity="0.7"
        d="M184.06 133.21H179.75V137.519H184.06V133.21Z"
        fill="white"
      />
      <path
        d="M253.662 172.426C253.662 172.426 250.232 164.943 254.151 157.565C258.069 150.188 259.206 148.45 256.707 146.939C254.209 145.428 253.063 152.84 253.063 152.84C253.063 152.84 250.958 147.74 252.696 142.404C254.435 137.066 255.525 128.373 253.151 127.441C250.776 126.509 252.697 138.286 250.637 142.3C250.637 142.3 248.906 137.831 248.622 133.544C248.337 129.257 248.782 122.412 246.907 120.656C245.032 118.9 243.83 120.115 245.673 129.575C247.516 139.036 247.502 146.726 247.502 146.726C247.502 146.726 243.432 134.316 240.7 133.954C237.968 133.592 237.972 137.611 240.31 141.097C242.648 144.582 247.157 150.827 247.897 154.04C247.897 154.04 243.429 144.701 239.41 147.563C235.391 150.426 242.908 156.066 246.258 158.105C249.609 160.143 251.935 172.92 251.935 172.92L253.662 172.426Z"
        fill="#407BFF"
      />
      <path
        opacity="0.2"
        d="M253.662 172.426C253.662 172.426 250.232 164.943 254.151 157.565C258.069 150.188 259.206 148.45 256.707 146.939C254.209 145.428 253.063 152.84 253.063 152.84C253.063 152.84 250.958 147.74 252.696 142.404C254.435 137.066 255.525 128.373 253.151 127.441C250.776 126.509 252.697 138.286 250.637 142.3C250.637 142.3 248.906 137.831 248.622 133.544C248.337 129.257 248.782 122.412 246.907 120.656C245.032 118.9 243.83 120.115 245.673 129.575C247.516 139.036 247.502 146.726 247.502 146.726C247.502 146.726 243.432 134.316 240.7 133.954C237.968 133.592 237.972 137.611 240.31 141.097C242.648 144.582 247.157 150.827 247.897 154.04C247.897 154.04 243.429 144.701 239.41 147.563C235.391 150.426 242.908 156.066 246.258 158.105C249.609 160.143 251.935 172.92 251.935 172.92L253.662 172.426Z"
        fill="black"
      />
      <path
        d="M250.954 175.496C250.954 175.496 254.294 167.962 250.287 160.644C246.281 153.326 245.124 151.605 247.603 150.056C250.083 148.507 251.318 155.903 251.318 155.903C251.318 155.903 253.363 150.772 251.56 145.461C249.757 140.15 248.563 131.474 250.926 130.506C253.29 129.539 251.51 141.343 253.618 145.327C253.618 145.327 255.295 140.833 255.528 136.541C255.761 132.251 255.234 125.413 257.088 123.629C258.943 121.845 260.158 123.042 258.429 132.529C256.701 142.016 256.806 149.705 256.806 149.705C256.806 149.705 260.727 137.236 263.454 136.833C266.181 136.43 266.226 140.449 263.93 143.969C261.634 147.489 257.2 153.801 256.498 157.025C256.498 157.025 260.853 147.62 264.906 150.422C268.959 153.225 261.51 158.977 258.185 161.065C254.859 163.153 252.687 175.963 252.687 175.963L250.954 175.496Z"
        fill="#407BFF"
      />
      <path
        d="M266.358 170.126H238.767L241 189.869H264.125L266.358 170.126Z"
        fill="#263238"
      />
      <path
        d="M99.7489 0.802063H120.492C124.02 0.802063 126.88 3.66216 126.88 7.18944V25.2424C126.88 28.7697 124.02 31.6298 120.492 31.6298H114.436L116.623 39.4974L110.139 31.6298H99.7482C96.2209 31.6298 93.3608 28.7704 93.3608 25.2424V7.18944C93.3616 3.66144 96.2217 0.802063 99.7489 0.802063Z"
        fill="#407BFF"
      />
      <path
        opacity="0.7"
        d="M99.7489 0.802063H120.492C124.02 0.802063 126.88 3.66216 126.88 7.18944V25.2424C126.88 28.7697 124.02 31.6298 120.492 31.6298H114.436L116.623 39.4974L110.139 31.6298H99.7482C96.2209 31.6298 93.3608 28.7704 93.3608 25.2424V7.18944C93.3616 3.66144 96.2217 0.802063 99.7489 0.802063Z"
        fill="white"
      />
      <path
        opacity="0.7"
        d="M106.987 20.1475C110.557 20.1475 113.451 17.2535 113.451 13.6836C113.451 10.1137 110.557 7.21967 106.987 7.21967C103.417 7.21967 100.523 10.1137 100.523 13.6836C100.523 17.2535 103.417 20.1475 106.987 20.1475Z"
        fill="white"
      />
      <path
        d="M106.987 20.1475C110.557 20.1475 113.451 17.2535 113.451 13.6836C113.451 10.1137 110.557 7.21967 106.987 7.21967C103.417 7.21967 100.523 10.1137 100.523 13.6836C100.523 17.2535 103.417 20.1475 106.987 20.1475Z"
        stroke="#407BFF"
        strokeWidth="2.5967"
        strokeMiterlimit="10"
      />
      <path
        d="M111.558 18.2543L118.927 25.6236"
        stroke="#407BFF"
        strokeWidth="2.5967"
        strokeMiterlimit="10"
      />
      <path
        d="M114.087 20.7841L119.716 26.4125"
        stroke="#407BFF"
        strokeWidth="3.895"
        strokeMiterlimit="10"
        strokeLinecap="round"
        strokeLinejoin="round"
      />
      <path
        d="M107.99 10.7635C107.99 11.5519 107.35 12.1917 106.561 12.1917C105.773 12.1917 105.133 11.5519 105.133 10.7635C105.133 9.97496 105.773 9.33521 106.561 9.33521C107.351 9.33521 107.99 9.97424 107.99 10.7635Z"
        fill="white"
      />
      <path
        d="M110.132 11.8154C110.132 12.2096 109.812 12.5295 109.418 12.5295C109.024 12.5295 108.704 12.2096 108.704 11.8154C108.704 11.4211 109.024 11.1013 109.418 11.1013C109.813 11.1013 110.132 11.4211 110.132 11.8154Z"
        fill="white"
      />
      <path d="M168 133.585H60.4575V150.893H168V133.585Z" fill="#407BFF" />
      <path
        opacity="0.8"
        d="M168 133.585H60.4575V150.893H168V133.585Z"
        fill="white"
      />
      <path
        opacity="0.2"
        d="M168.001 138.158V136.749L94.3682 137.34L168.001 138.158Z"
        fill="black"
      />
      <path
        opacity="0.2"
        d="M168.001 144.227V143.139L134.946 144.321L168.001 144.227Z"
        fill="black"
      />
      <path
        opacity="0.2"
        d="M168 148.282V146.878L114.704 147.69L168 148.282Z"
        fill="black"
      />
      <path
        opacity="0.2"
        d="M84.5003 133.585L82.9414 146.488L84.7805 144.524C85.6311 148.161 88.1648 150.894 88.1648 150.894C88.1648 150.894 89.8747 148.768 90.879 145.929L141.102 145.352L91.3506 144.265C91.4993 143.57 91.5946 142.853 91.5946 142.127C91.5946 141.513 91.5267 140.911 91.4177 140.327L165.116 140.141L91.2473 139.562C90.9787 138.533 90.5816 137.581 90.162 136.756C91.1982 135.824 92.5607 135.278 94.0114 135.278H168V133.586L84.5003 133.585Z"
        fill="black"
      />
      <path
        d="M86.1609 142.137C86.1638 144.296 87.0382 146.25 88.4549 147.666C89.8737 149.085 91.8312 149.96 93.9945 149.96H169.243C169.561 149.96 169.82 150.219 169.82 150.537V151.157C169.82 151.475 169.561 151.734 169.243 151.734H58.0892C55.4407 151.734 53.0341 150.658 51.2961 148.92C49.5422 147.166 48.4627 144.738 48.4822 142.054C48.5212 136.736 53.0175 132.519 58.3362 132.519H169.243C169.561 132.519 169.82 132.777 169.82 133.096V133.715C169.82 134.034 169.561 134.292 169.243 134.292H94.2256C89.9098 134.293 86.1558 137.821 86.1609 142.137Z"
        fill="#407BFF"
      />
      <path
        opacity="0.4"
        d="M86.1609 142.137C86.1638 144.296 87.0382 146.25 88.4549 147.666C89.8737 149.085 91.8312 149.96 93.9945 149.96H169.243C169.561 149.96 169.82 150.219 169.82 150.537V151.157C169.82 151.475 169.561 151.734 169.243 151.734H58.0892C55.4407 151.734 53.0341 150.658 51.2961 148.92C49.5422 147.166 48.4627 144.738 48.4822 142.054C48.5212 136.736 53.0175 132.519 58.3362 132.519H169.243C169.561 132.519 169.82 132.777 169.82 133.096V133.715C169.82 134.034 169.561 134.292 169.243 134.292H94.2256C89.9098 134.293 86.1558 137.821 86.1609 142.137Z"
        fill="white"
      />
      <path
        d="M86.1608 142.137C86.1637 144.296 87.0381 146.249 88.4548 147.666C89.8736 149.085 91.8311 149.96 93.9944 149.96H169.243C169.561 149.96 169.82 150.219 169.82 150.537V151.157C169.82 151.475 169.561 151.733 169.243 151.733H93.5634C90.9148 151.733 88.5082 150.658 86.7702 148.92C85.0163 147.166 83.9368 144.737 83.9563 142.054C83.9953 136.736 88.4916 132.519 93.8103 132.519H169.243C169.561 132.519 169.82 132.777 169.82 133.096V133.715C169.82 134.034 169.561 134.292 169.243 134.292H94.2255C89.9097 134.293 86.1557 137.821 86.1608 142.137Z"
        fill="#407BFF"
      />
      <path
        d="M100.333 137.474V144.413L102.845 141.901L105.279 144.335V137.474H100.333Z"
        fill="#263238"
      />
      <path
        opacity="0.6"
        d="M86.1608 142.137C86.1637 144.296 87.0381 146.249 88.4548 147.666C89.8736 149.085 91.8311 149.96 93.9944 149.96H169.243C169.561 149.96 169.82 150.219 169.82 150.537V151.157C169.82 151.475 169.561 151.733 169.243 151.733H93.5634C90.9148 151.733 88.5082 150.658 86.7702 148.92C85.0163 147.166 83.9368 144.737 83.9563 142.054C83.9953 136.736 88.4916 132.519 93.8103 132.519H169.243C169.561 132.519 169.82 132.777 169.82 133.096V133.715C169.82 134.034 169.561 134.292 169.243 134.292H94.2255C89.9097 134.293 86.1557 137.821 86.1608 142.137Z"
        fill="white"
      />
      <path
        d="M173.195 171.719H65.6521V189.027H173.195V171.719Z"
        fill="#407BFF"
      />
      <path
        opacity="0.7"
        d="M173.195 171.719H65.6521V189.027H173.195V171.719Z"
        fill="white"
      />
      <path
        opacity="0.2"
        d="M173.195 176.293V174.883L99.5627 175.474L173.195 176.293Z"
        fill="black"
      />
      <path
        opacity="0.2"
        d="M173.195 182.361V181.273L140.14 182.455L173.195 182.361Z"
        fill="black"
      />
      <path
        opacity="0.2"
        d="M173.195 186.415V185.012L119.899 185.824L173.195 186.415Z"
        fill="black"
      />
      <path
        opacity="0.2"
        d="M89.6952 171.719L88.1362 184.623L89.9753 182.659C90.8259 186.295 93.3596 189.027 93.3596 189.027C93.3596 189.027 95.0688 186.901 96.0739 184.062L146.297 183.485L96.5454 182.399C96.6941 181.703 96.7894 180.986 96.7894 180.261C96.7894 179.646 96.7216 179.045 96.6125 178.461L170.311 178.274L96.4421 177.696C96.1735 176.666 95.7764 175.715 95.3569 174.89C96.393 173.958 97.7555 173.412 99.2062 173.412H173.194V171.719H89.6952Z"
        fill="black"
      />
      <path
        d="M91.3546 180.271C91.3575 182.431 92.2319 184.384 93.6486 185.801C95.0675 187.219 97.025 188.094 99.1883 188.094H174.437C174.755 188.094 175.013 188.353 175.013 188.671V189.291C175.013 189.609 174.755 189.868 174.437 189.868H57.3707C54.7222 189.868 52.3156 188.792 50.5776 187.054C48.8237 185.3 47.7442 182.872 47.7637 180.189C47.8027 174.87 52.299 170.653 57.6177 170.653H174.437C174.756 170.653 175.014 170.912 175.014 171.23V171.85C175.014 172.168 174.756 172.426 174.437 172.426H99.4186C95.1035 172.427 91.3488 175.955 91.3546 180.271Z"
        fill="#263238"
      />
      <path
        opacity="0.2"
        d="M91.3546 180.271C91.3575 182.431 92.2319 184.384 93.6486 185.801C95.0675 187.219 97.025 188.094 99.1883 188.094H174.437C174.755 188.094 175.013 188.353 175.013 188.671V189.291C175.013 189.609 174.755 189.868 174.437 189.868H57.3707C54.7222 189.868 52.3156 188.792 50.5776 187.054C48.8237 185.3 47.7442 182.872 47.7637 180.189C47.8027 174.87 52.299 170.653 57.6177 170.653H174.437C174.756 170.653 175.014 170.912 175.014 171.23V171.85C175.014 172.168 174.756 172.426 174.437 172.426H99.4186C95.1035 172.427 91.3488 175.955 91.3546 180.271Z"
        fill="white"
      />
      <path
        d="M91.3563 180.271C91.3592 182.431 92.2336 184.384 93.6503 185.8C95.0692 187.219 97.0267 188.094 99.19 188.094H174.438C174.757 188.094 175.015 188.353 175.015 188.671V189.291C175.015 189.609 174.757 189.868 174.438 189.868H98.7582C96.1097 189.868 93.703 188.792 91.965 187.054C90.2111 185.3 89.1316 182.872 89.1511 180.189C89.1901 174.87 93.6864 170.653 99.0051 170.653H174.438C174.757 170.653 175.015 170.911 175.015 171.23V171.849C175.015 172.168 174.757 172.426 174.438 172.426H99.4203C95.1053 172.427 91.3505 175.955 91.3563 180.271Z"
        fill="#263238"
      />
      <path
        d="M99.5623 178.073V185.012L102.074 182.5L104.508 184.934V178.073H99.5623Z"
        fill="#407BFF"
      />
      <path
        opacity="0.4"
        d="M91.3563 180.271C91.3592 182.431 92.2336 184.384 93.6503 185.8C95.0692 187.219 97.0267 188.094 99.19 188.094H174.438C174.757 188.094 175.015 188.353 175.015 188.671V189.291C175.015 189.609 174.757 189.868 174.438 189.868H98.7582C96.1097 189.868 93.703 188.792 91.965 187.054C90.2111 185.3 89.1316 182.872 89.1511 180.189C89.1901 174.87 93.6864 170.653 99.0051 170.653H174.438C174.757 170.653 175.015 170.911 175.015 171.23V171.849C175.015 172.168 174.757 172.426 174.438 172.426H99.4203C95.1053 172.427 91.3505 175.955 91.3563 180.271Z"
        fill="white"
      />
      <path
        d="M55.9728 169.934H95.8191V152.652H55.9728V169.934Z"
        fill="#407BFF"
      />
      <path
        opacity="0.8"
        d="M55.9728 169.934H95.8191V152.652H55.9728V169.934Z"
        fill="white"
      />
      <path
        opacity="0.2"
        d="M92.6234 154.342H55.9736V152.651H92.5844L92.6234 154.342Z"
        fill="black"
      />
      <path
        opacity="0.2"
        d="M92.6243 155.816L59.5603 156.521L92.6243 157.226V155.816Z"
        fill="black"
      />
      <path
        opacity="0.2"
        d="M92.6241 162.206L57.6106 162.797L92.6241 163.294V162.206Z"
        fill="black"
      />
      <path
        opacity="0.2"
        d="M92.6242 165.945L57.9226 166.647L92.6242 167.348V165.945Z"
        fill="black"
      />
      <path
        opacity="0.2"
        d="M55.9736 158.278L89.5438 159.292L55.9736 159.994V158.278Z"
        fill="black"
      />
      <path
        d="M144.902 161.203C144.899 163.363 144.025 165.316 142.608 166.733C141.19 168.152 139.232 169.027 137.069 169.027H54.1348C53.8164 169.027 53.5579 169.285 53.5579 169.604V170.223C53.5579 170.542 53.8164 170.8 54.1348 170.8H137.501C140.149 170.8 142.556 169.724 144.294 167.986C146.048 166.233 147.127 163.804 147.108 161.121C147.069 155.802 142.572 151.586 137.254 151.586H54.1348C53.8164 151.586 53.5579 151.844 53.5579 152.163V152.782C53.5579 153.1 53.8164 153.359 54.1348 153.359H136.838C141.154 153.36 144.908 156.888 144.902 161.203Z"
        fill="#263238"
      />
      <path
        opacity="0.4"
        d="M144.902 161.203C144.899 163.363 144.025 165.316 142.608 166.733C141.19 168.152 139.232 169.027 137.069 169.027H54.1348C53.8164 169.027 53.5579 169.285 53.5579 169.604V170.223C53.5579 170.542 53.8164 170.8 54.1348 170.8H137.501C140.149 170.8 142.556 169.724 144.294 167.986C146.048 166.233 147.127 163.804 147.108 161.121C147.069 155.802 142.572 151.586 137.254 151.586H54.1348C53.8164 151.586 53.5579 151.844 53.5579 152.163V152.782C53.5579 153.1 53.8164 153.359 54.1348 153.359H136.838C141.154 153.36 144.908 156.888 144.902 161.203Z"
        fill="white"
      />
      <path
        d="M175.149 161.306C175.149 166.085 171.274 169.96 166.495 169.96H92.6252V152.652H166.495C171.274 152.652 175.149 156.526 175.149 161.306Z"
        fill="#407BFF"
      />
      <path
        opacity="0.7"
        d="M92.6233 152.651V169.963H166.498C168.324 169.963 170.015 169.395 171.41 168.431C173.669 166.87 175.147 164.257 175.147 161.307C175.147 156.524 171.275 152.651 166.498 152.651H92.6233Z"
        fill="white"
      />
      <path
        opacity="0.2"
        d="M92.6235 157.227V155.816L166.256 156.408L92.6235 157.227Z"
        fill="black"
      />
      <path
        opacity="0.2"
        d="M92.6235 163.295V162.206L125.679 163.389L92.6235 163.295Z"
        fill="black"
      />
      <path
        opacity="0.2"
        d="M92.6235 167.349V165.945L145.92 166.758L92.6235 167.349Z"
        fill="black"
      />
      <path
        opacity="0.2"
        d="M166.615 154.342C168.063 154.342 169.423 154.892 170.464 155.82C170.044 156.648 169.648 157.6 169.375 158.628L95.5069 159.208L169.204 159.391C169.097 159.977 169.026 160.579 169.026 161.194C169.026 161.921 169.12 162.637 169.274 163.328L119.522 164.417L169.741 164.996C170.219 166.355 170.864 167.555 171.408 168.43C173.667 166.869 175.145 164.256 175.145 161.306C175.145 156.523 171.272 152.651 166.495 152.651H92.6208V154.342L166.615 154.342Z"
        fill="black"
      />
      <path
        d="M174.465 161.203C174.462 163.363 173.587 165.316 172.171 166.733C170.752 168.152 168.795 169.027 166.631 169.027H91.3826C91.0642 169.027 90.8057 169.285 90.8057 169.604V170.223C90.8057 170.542 91.0642 170.8 91.3826 170.8H167.063C169.711 170.8 172.118 169.724 173.856 167.986C175.61 166.233 176.689 163.804 176.67 161.121C176.631 155.802 172.134 151.586 166.816 151.586H91.3826C91.0642 151.586 90.8057 151.844 90.8057 152.163V152.782C90.8057 153.1 91.0642 153.359 91.3826 153.359H166.4C170.716 153.36 174.47 156.888 174.465 161.203Z"
        fill="#263238"
      />
      <path
        d="M166.256 159.006V165.945L163.745 163.433L161.311 165.867V159.006H166.256Z"
        fill="#407BFF"
      />
      <path
        d="M185.77 61.4729L183.964 61.5068C183.284 61.5198 182.653 61.8599 182.269 62.421L180.474 65.0406C179.756 66.0883 179.591 67.4184 180.029 68.6098L180.301 69.3477C183.301 69.4965 186.653 67.4465 186.653 67.4465L187.673 66.9678C188.581 66.5418 188.973 65.5316 188.573 64.6485L187.651 62.6145C187.333 61.9119 186.585 61.4577 185.77 61.4729Z"
        fill="#EEC1BB"
      />
      <path
        d="M151.523 64.6877L153.255 66.0791C153.855 66.5528 154.47 67.0142 155.088 67.4677C156.323 68.3803 157.584 69.2504 158.853 70.0902C160.128 70.9242 161.427 71.6874 162.733 72.4087C164.048 73.1077 165.371 73.7258 166.705 74.2543L166.018 74.1099C165.986 74.1496 166.403 74.1467 166.888 74.0146C167.382 73.8868 167.962 73.6665 168.551 73.39C169.733 72.8275 170.978 72.117 172.196 71.3285C173.423 70.5472 174.643 69.7003 175.859 68.828C177.082 67.9738 178.296 67.0402 179.478 66.16L179.523 66.1268C180.335 65.5231 181.481 65.6914 182.086 66.503C182.584 67.1723 182.554 68.0713 182.074 68.7045C181.088 70.0014 180.057 71.1682 178.98 72.3524C177.896 73.5178 176.754 74.6399 175.538 75.723C174.307 76.7902 173.022 77.8379 171.518 78.7708C170.762 79.2366 169.951 79.6806 168.996 80.064C168.036 80.4316 166.922 80.7883 165.35 80.7016C165.188 80.6929 165.031 80.6655 164.881 80.6222L164.664 80.5572C162.923 80.0424 161.239 79.4272 159.641 78.6914C158.047 77.957 156.499 77.1541 155.021 76.266C153.537 75.3872 152.106 74.4392 150.72 73.4369C150.03 72.93 149.349 72.4145 148.676 71.8809C147.987 71.3451 147.367 70.8209 146.651 70.1768C145.144 68.823 145.021 66.5044 146.375 64.9975C147.681 63.5447 149.884 63.3779 151.39 64.583L151.523 64.6877Z"
        fill="#EBC0BB"
      />
      <path
        d="M141.825 59.5514C140.136 64.2563 142.858 68.9411 149.404 74.4468C152.666 73.9659 157.058 67.2839 157.058 67.2839C157.058 67.2839 147.851 58.0726 141.825 59.5514Z"
        fill="#407BFF"
      />
      <path
        d="M147.457 30.3058C147.457 30.3058 141.007 23.7061 132.607 31.9889C124.206 40.2717 122.565 67.7093 122.565 67.7093L144.498 71.9717C144.498 71.9717 147.336 68.7123 148.794 59.3197C150.252 49.9271 151.025 40.9454 152.875 38.8485C154.726 36.7516 147.457 30.3058 147.457 30.3058Z"
        fill="#263238"
      />
      <path
        d="M166.296 169.263L161.545 167.369L163.401 160.442L165.113 154.089L171.119 155.419L168.569 162.75L166.296 169.263Z"
        fill="#EEC1BB"
      />
      <path
        opacity="0.2"
        d="M168.511 162.896L163.35 160.572L165.088 154.155L171.107 155.451L168.511 162.896Z"
        fill="black"
      />
      <path
        d="M130.344 106.865C130.344 106.865 170.045 101.512 181.091 108.558C192.136 115.604 170.757 158.525 170.757 158.525L164.071 157.048C164.071 157.048 169.082 123.027 168.707 121.601C168.332 120.175 149.634 129.461 124.038 130.34L130.344 106.865Z"
        fill="#263238"
      />
      <path
        opacity="0.2"
        d="M130.344 106.865C130.344 106.865 170.045 101.512 181.091 108.558C192.136 115.604 170.757 158.525 170.757 158.525L164.071 157.048C164.071 157.048 169.082 123.027 168.707 121.601C168.332 120.175 149.634 129.461 124.038 130.34L130.344 106.865Z"
        fill="black"
      />
      <path
        d="M163.702 154.911L172.117 157.639L170.609 161.476L162.878 158.847L163.702 154.911Z"
        fill="#263238"
      />
      <path
        d="M167.967 168.411C167.967 168.411 169.619 166.259 170.655 167.235C171.845 168.36 167.967 168.411 167.967 168.411ZM167.967 168.411C167.967 168.411 171.212 168.524 171.139 169.634C171.029 171.314 167.967 168.411 167.967 168.411Z"
        stroke="#577AFA"
        strokeWidth="0.4831"
        strokeMiterlimit="10"
        strokeLinecap="round"
        strokeLinejoin="round"
      />
      <path
        d="M160.656 164.413C160.843 163.88 167.295 166.442 167.295 166.442C167.295 166.442 170.008 171.883 173.644 174.09C177.281 176.297 174.312 177.943 169.911 176.513C165.51 175.083 162.152 173.99 159.025 172.974C155.897 171.957 158.718 169.929 160.656 164.413Z"
        fill="#2E353A"
      />
      <path
        opacity="0.4"
        d="M163.702 154.911L172.117 157.639L170.609 161.476L162.878 158.847L163.702 154.911Z"
        fill="white"
      />
      <path
        d="M187.017 183.004L182.094 184.389L179.354 177.762L176.851 171.678L182.427 169.081L184.861 176.451L187.017 183.004Z"
        fill="#EEC1BB"
      />
      <path
        d="M179.909 180.908C179.936 180.344 186.852 180.958 186.852 180.958C186.852 180.958 191.004 185.399 195.118 186.476C199.234 187.553 196.858 189.979 192.232 189.863C187.605 189.748 184.075 189.66 180.788 189.578C177.502 189.496 179.626 186.748 179.909 180.908Z"
        fill="#2E353A"
      />
      <path
        d="M187.685 181.711C187.685 181.711 188.654 179.177 189.925 179.818C191.387 180.556 187.685 181.711 187.685 181.711ZM187.685 181.711C187.685 181.711 190.826 180.894 191.074 181.978C191.448 183.62 187.685 181.711 187.685 181.711Z"
        stroke="#577AFA"
        strokeWidth="0.4831"
        strokeMiterlimit="10"
        strokeLinecap="round"
        strokeLinejoin="round"
      />
      <path
        opacity="0.2"
        d="M184.904 176.603L179.393 177.898L176.871 171.746L182.437 169.115L184.904 176.603Z"
        fill="black"
      />
      <path
        d="M141.608 112C141.608 112 141.036 104.144 140.772 102.541C140.499 100.84 140.14 98.8505 139.8 97.8368C138.054 92.5968 114.709 98.7574 114.709 98.7574L114.047 102.347C114.047 102.347 103.513 122.209 110.552 129.363C112.691 131.539 116.886 132.517 121.17 132.483C121.17 132.483 134.261 133.116 158.604 131.982C158.604 131.982 156.803 146.161 176.87 173.947L183.583 171.798C183.583 171.798 170.311 121.359 169.198 120.46C159.49 112.619 141.608 112 141.608 112Z"
        fill="#263238"
      />
      <path
        d="M175.657 173.628L183.996 170.677L185.132 174.64L177.397 177.253L175.657 173.628Z"
        fill="#263238"
      />
      <path
        d="M149.457 63.3122C149.457 63.3122 148.62 65.3629 147.45 68.9443C147.168 69.7819 146.88 70.7061 146.576 71.7026C146.179 73.0095 145.753 74.4464 145.327 76.0061C145.017 77.1325 144.706 78.3095 144.403 79.5514C144.092 80.8078 143.775 82.1364 143.464 83.5011C143.435 83.6599 143.392 83.826 143.363 83.9849C142.186 89.2848 141.154 94.4115 140.504 100.946L114.856 98.7077C114.856 98.7077 114.769 90.7867 115.73 81.8548C116.25 77.0242 117.073 71.9047 118.38 67.5724C119.398 64.1931 120.712 61.2904 122.402 59.3914C122.402 59.3914 136.309 54.828 149.457 63.3122Z"
        fill="#407BFF"
      />
      <path
        d="M136.374 55.7071C128.658 53.2427 125.662 59.2871 125.662 59.2871L129.766 58.8835L138.11 69.3541L142.998 63.0252L146.074 64.6751C146.074 64.6751 143.077 57.8487 136.374 55.7071Z"
        fill="#407BFF"
      />
      <path
        opacity="0.6"
        d="M136.374 55.7071C128.658 53.2427 125.662 59.2871 125.662 59.2871L129.766 58.8835L138.11 69.3541L142.998 63.0252L146.074 64.6751C146.074 64.6751 143.077 57.8487 136.374 55.7071Z"
        fill="white"
      />
      <path
        d="M137.902 68.8171L130.827 58.2245C134.168 56.7089 136.377 50.3294 136.854 46.7314L141.856 54.2856C140.224 56.7117 139.135 59.4852 142.874 61.5755C142.874 61.5755 137.901 68.794 137.902 68.8171Z"
        fill="#EEC1BB"
      />
      <path
        opacity="0.2"
        d="M138.892 49.8137L141.854 54.2825C141.465 54.8558 141.111 55.4494 140.848 56.0501C139.371 55.3873 137.798 53.1792 138.165 51.6188C138.349 50.8412 138.637 50.1263 138.892 49.8137Z"
        fill="black"
      />
      <path
        d="M114.434 99.5529L122.454 100.081L122.165 102.344L113.647 101.731L114.434 99.5529Z"
        fill="black"
      />
      <path
        d="M141.12 103.7L123.132 102.409L123.42 100.146L140.826 101.289L141.12 103.7Z"
        fill="black"
      />
      <path
        d="M131.751 101.046L131.691 102.523C131.677 102.865 131.938 103.155 132.279 103.178L134.48 103.326C134.827 103.349 135.126 103.088 135.152 102.742L135.263 101.245C135.289 100.892 135.021 100.588 134.668 100.568L132.417 100.441C132.065 100.422 131.765 100.694 131.751 101.046Z"
        stroke="white"
        strokeMiterlimit="10"
      />
      <path
        opacity="0.5"
        d="M175.657 173.628L183.996 170.677L185.132 174.64L177.397 177.253L175.657 173.628Z"
        fill="white"
      />
      <path
        d="M154.388 44.5919C154.388 44.5919 153.631 43.0929 152.203 42.9702"
        stroke="#263238"
        strokeWidth="0.554"
        strokeMiterlimit="10"
        strokeLinecap="round"
        strokeLinejoin="round"
      />
      <path
        d="M151.978 47.9203C151.978 47.9203 152.11 49.667 152.574 50.862C152.574 50.862 151.787 51.397 150.874 50.8504L151.978 47.9203Z"
        fill="#D4827D"
      />
      <path
        d="M153.572 46.8401C153.387 47.2907 152.994 47.5564 152.694 47.4337C152.393 47.3109 152.3 46.8459 152.484 46.3953C152.668 45.9448 153.061 45.679 153.362 45.8018C153.662 45.9245 153.756 46.3896 153.572 46.8401Z"
        fill="#263238"
      />
      <path
        d="M153.228 45.7719L154.365 45.7885C154.365 45.7885 153.539 46.4138 153.228 45.7719Z"
        fill="#263238"
      />
      <path
        d="M136.951 50.7255C136.982 50.8013 137.013 50.8764 137.062 50.9356C137.133 51.0786 137.212 51.2136 137.292 51.3566C137.761 52.1985 138.346 53.0354 139.143 53.6859C141.608 55.7323 143.733 56.3836 145.631 55.8579C145.723 55.8355 145.815 55.8045 145.908 55.7734C145.916 55.7821 145.916 55.7821 145.916 55.7821C148.74 54.7156 150.973 51.4259 152.851 47.0473C153.723 45.0436 154.301 43.2146 154.424 41.6239C154.424 41.6073 154.45 41.5582 154.45 41.5416C154.452 41.4751 154.471 41.3928 154.473 41.3264C154.595 39.0793 153.862 37.2179 151.992 35.643C151.341 35.095 150.557 34.5773 149.623 34.0971C141.386 29.8398 132.991 42.7965 136.951 50.7255Z"
        fill="#EEC1BB"
      />
      <path
        d="M154.458 41.5707C154.458 41.5707 151.989 47.6064 145.231 47.3277C145.231 47.3277 139.83 52.1684 136.309 50.5012C131.509 48.2281 130.73 39.3756 135.835 33.3312C142.455 25.494 156.32 31.5723 154.458 41.5707Z"
        fill="#263238"
      />
      <path
        d="M148.858 47.0644C149.312 46.1575 149.351 44.27 147.839 43.7668C146.274 43.2462 143.657 46.4312 146.833 49.0378C147.288 49.4119 147.909 48.9562 148.858 47.0644Z"
        fill="#EEC1BB"
      />
      <path
        d="M147.458 30.306C147.458 30.306 153.702 31.696 155.642 35.4659C157.907 39.8683 157.907 43.2418 151.569 45.2845C151.569 45.2845 143.788 37.5837 140.376 36.6645C136.962 35.7453 134.297 35.5323 134.297 35.5323C136.742 29.0634 144.998 27.4921 147.458 30.306Z"
        fill="#263238"
      />
      <path
        d="M145.23 47.3271C141.302 55.1716 132.661 68.5088 123.458 59.0989C123.458 59.0989 126.763 48.4622 133.445 44.0663C140.128 39.6711 145.23 47.3271 145.23 47.3271Z"
        fill="#263238"
      />
      <path
        d="M143.801 60.4207C147.163 62.8981 142.862 71.0769 147.103 72.8979C147.103 72.8979 145.768 71.2639 146.654 69.0385C147.541 66.8131 151.146 60.9399 149.712 52.9799L143.801 60.4207Z"
        fill="#263238"
      />
      <path
        opacity="0.2"
        d="M126.407 77.6733C126.407 77.6733 120.92 81.3919 115.728 81.854C116.248 77.0234 117.071 71.904 118.378 67.5716C119.223 67.1528 119.974 66.9217 120.551 66.9362C124.407 67.0084 125.815 70.6259 125.815 70.6259C125.815 70.6259 126.501 74.2507 126.407 77.6733Z"
        fill="black"
      />
      <path
        d="M146.438 103.409L145.283 102.019C144.848 101.497 144.188 101.217 143.51 101.267L140.343 101.503C139.077 101.598 137.935 102.3 137.279 103.386L136.872 104.059C138.631 106.494 142.326 107.83 142.326 107.83L143.337 108.327C144.237 108.77 145.271 108.445 145.71 107.581L146.722 105.59C147.072 104.903 146.959 104.035 146.438 103.409Z"
        fill="#EEC1BB"
      />
      <path
        d="M124.207 70.2182L124.203 72.44C124.209 73.2046 124.232 73.9722 124.266 74.739C124.324 76.2734 124.434 77.8013 124.571 79.3176C124.717 80.8339 124.933 82.325 125.185 83.7951C125.462 85.2587 125.806 86.6783 126.227 88.0495L125.91 87.4235C126.162 87.8712 126.642 88.4936 127.123 89.0936C127.615 89.7016 128.15 90.319 128.704 90.9313C129.817 92.1544 130.969 93.3942 132.153 94.6131L135.718 98.2949L139.293 102.005C139.994 102.733 139.973 103.892 139.245 104.593C138.625 105.19 137.69 105.261 136.993 104.819C135.501 103.873 134.083 102.871 132.649 101.865C131.228 100.845 129.831 99.791 128.447 98.7057C127.074 97.6075 125.702 96.494 124.367 95.2853C123.699 94.6809 123.034 94.0571 122.368 93.3863C121.697 92.7039 121.052 92.0115 120.348 91.0215C120.252 90.8879 120.175 90.7471 120.115 90.602L120.031 90.3948C119.345 88.7138 118.773 87.0148 118.349 85.3078C117.926 83.6045 117.586 81.8939 117.355 80.1855C117.113 78.4778 116.96 76.7687 116.877 75.0603C116.842 74.2054 116.818 73.3512 116.814 72.4919C116.802 71.619 116.824 70.8081 116.879 69.8456C116.994 67.8238 118.727 66.2779 120.75 66.3934C122.7 66.5046 124.207 68.1213 124.208 70.0499L124.207 70.2182Z"
        fill="#EBC0BB"
      />
      <path
        d="M122.158 59.4368C117.429 61.0585 115.473 66.1108 115.265 74.6615C117.679 76.9078 125.64 76.1612 125.64 76.1612C125.64 76.1612 127.077 63.2168 122.158 59.4368Z"
        fill="#407BFF"
      />
      <path
        d="M173.117 110.054V112.334C173.117 112.919 172.428 113.159 171.85 113.159H126.28C125.694 113.159 124.99 112.919 124.99 112.334V110.054H173.117Z"
        fill="#263238"
      />
      <path
        opacity="0.4"
        d="M173.117 110.054V112.334C173.117 112.919 172.428 113.159 171.85 113.159H126.28C125.694 113.159 124.99 112.919 124.99 112.334V110.054H173.117Z"
        fill="white"
      />
      <path
        opacity="0.2"
        d="M173.116 110.054V112.334C173.116 112.919 172.428 113.159 171.85 113.159H141.793C141.209 113.159 140.515 112.919 140.515 112.334V110.054H173.116Z"
        fill="black"
      />
      <path
        d="M180.742 86.378L175.317 110.984C175.141 111.795 174.352 112.383 173.555 112.383H143.922C143.133 112.383 142.626 111.647 142.808 110.836L148.227 86.4184C148.41 85.6147 149.192 85.2147 149.988 85.2147H179.622C180.418 85.2147 180.918 85.5743 180.742 86.378Z"
        fill="#263238"
      />
      <path
        opacity="0.4"
        d="M180.742 86.378L175.317 110.984C175.141 111.795 174.351 112.383 173.555 112.383H144.929C144.133 112.383 143.633 111.647 143.808 110.836L149.234 86.4184C149.41 85.6147 150.198 85.2147 150.995 85.2147H179.622C180.418 85.2147 180.918 85.5743 180.742 86.378Z"
        fill="white"
      />
      <path
        opacity="0.2"
        d="M166.13 98.884V98.8912C166.13 100.998 163.872 102.709 162.216 102.709C160.56 102.709 159.579 100.997 160.051 98.8912C160.523 96.8261 162.171 95.143 163.791 95.0787C163.319 97.185 164.33 98.8912 165.979 98.8912C166.013 98.8919 166.13 98.8919 166.13 98.884Z"
        fill="black"
      />
    </svg>