  <svg
      width="280"
      height="280"
      viewBox="0 0 280 280"
      fill="none"
      xmlns="http://www.w3.org/2000/svg"
    >
      <path
        d="M260.781 170.568L251.952 232.565H27.439L20.8085 185.27C20.071 179.971 23.0004 174.836 27.9446 172.78L47.8706 164.511V144.694C47.8706 138.855 52.145 133.904 57.9225 133.065L62.6344 132.375L70.5489 105.614C72.0239 100.615 76.6126 97.1942 81.8161 97.1942H162.77C165.849 97.1942 168.67 98.3825 170.773 100.335C172.876 102.295 174.262 105.02 174.488 108.093L213.035 112.163C218.758 112.771 223.196 117.421 223.538 123.164L225.095 149.905L252.334 157.601C258.002 159.197 261.607 164.743 260.781 170.568Z"
        fill="#DAE8EF"
      />
      <path
        d="M40.8992 183.354L47.9076 232.565H226.117L231.38 195.023C231.965 190.817 229.64 186.741 225.715 185.11L209.899 178.546V162.816C209.899 158.182 206.506 154.252 201.92 153.586L198.18 153.038L191.898 131.795C190.727 127.828 187.084 125.112 182.954 125.112H118.697C116.253 125.112 114.014 126.055 112.345 127.606C110.675 129.161 109.575 131.324 109.396 133.763L78.7977 136.994C74.2556 137.477 70.732 141.168 70.461 145.726L69.2251 166.952L47.6035 173.061C43.1056 174.329 40.2434 178.73 40.8992 183.354Z"
        fill="#CCD9E2"
      />
      <path
        d="M187.92 214.227C187.92 208.923 184.037 204.425 178.789 203.663L174.508 203.036L167.319 178.724C165.978 174.183 161.81 171.075 157.083 171.075H83.5397C80.742 171.075 78.18 172.154 76.2692 173.929C74.3585 175.709 73.0991 178.184 72.8947 180.976L41.0542 184.338L47.9226 232.565H188.728L187.921 232.23V214.227H187.92Z"
        fill="#BCCED8"
      />
      <path d="M121.96 55.506H67.3298V106.496H121.96V55.506Z" fill="#112B46" />
      <path d="M121.96 55.506H67.3298V60.8988H121.96V55.506Z" fill="#1D262D" />
      <path
        d="M110.151 58.2634C110.151 58.8094 109.709 59.2518 109.163 59.2518C108.617 59.2518 108.175 58.8094 108.175 58.2634C108.175 57.7174 108.617 57.275 109.163 57.275C109.709 57.275 110.151 57.7174 110.151 58.2634Z"
        fill="#606BF1"
      />
      <path
        d="M114.279 58.2634C114.279 58.8094 113.836 59.2518 113.29 59.2518C112.744 59.2518 112.302 58.8094 112.302 58.2634C112.302 57.7174 112.744 57.275 113.29 57.275C113.836 57.275 114.279 57.7174 114.279 58.2634Z"
        fill="#FBD15B"
      />
      <path
        d="M118.111 58.3676C118.111 58.9136 117.669 59.3559 117.123 59.3559C116.577 59.3559 116.134 58.9136 116.134 58.3676C116.134 57.8216 116.577 57.3792 117.123 57.3792C117.669 57.3792 118.111 57.8216 118.111 58.3676Z"
        fill="#FF8578"
      />
      <path
        d="M84.7812 65.9119H77.0437V66.562H84.7812V65.9119Z"
        fill="#FF8578"
      />
      <path
        d="M93.8628 65.9119H86.1252V66.562H93.8628V65.9119Z"
        fill="#FBD15B"
      />
      <path
        d="M91.4358 69.4147H79.4373V70.0648H91.4358V69.4147Z"
        fill="#606BF1"
      />
      <path
        d="M99.5181 69.4147H93.4192V70.0648H99.5181V69.4147Z"
        fill="#FF8578"
      />
      <path
        d="M88.8687 72.918H83.5991V73.5681H88.8687V72.918Z"
        fill="#FBD15B"
      />
      <path
        d="M109.396 72.918H91.9146V73.5681H109.396V72.918Z"
        fill="#FBD15B"
      />
      <path
        d="M107.671 76.4214H87.6921V77.0716H107.671V76.4214Z"
        fill="#606BF1"
      />
      <path
        d="M88.8458 79.9248H82.697V80.575H88.8458V79.9248Z"
        fill="#FF8578"
      />
      <path
        d="M97.6254 79.9248H91.4766V80.575H97.6254V79.9248Z"
        fill="#606BF1"
      />
      <path
        d="M85.9886 98.0995H77.0437V98.7497H85.9886V98.0995Z"
        fill="#FF8578"
      />
      <path
        d="M98.0673 98.0995H89.1218V98.7497H98.0673V98.0995Z"
        fill="#FBD15B"
      />
      <path
        d="M109.819 98.0995H100.875V98.7497H109.819V98.0995Z"
        fill="#FF8578"
      />
      <path
        d="M96.9188 94.5968H79.4373V95.247H96.9188V94.5968Z"
        fill="#606BF1"
      />
      <path
        d="M117.126 94.5968H99.6443V95.247H117.126V94.5968Z"
        fill="#FF8578"
      />
      <path
        d="M100.947 91.0934H83.5991V91.7435H100.947V91.0934Z"
        fill="#FF8578"
      />
      <path
        d="M107.288 91.0934H102.459V91.7435H107.288V91.0934Z"
        fill="#FBD15B"
      />
      <path
        d="M88.9968 87.5901H82.4661V88.2403H88.9968V87.5901Z"
        fill="#FBD15B"
      />
      <path
        d="M98.9958 87.5901H92.4651V88.2403H98.9958V87.5901Z"
        fill="#606BF1"
      />
      <path
        d="M109.727 87.5901H103.196V88.2403H109.727V87.5901Z"
        fill="#FF8578"
      />
      <path
        d="M99.1935 84.0867H90.0364V84.7368H99.1935V84.0867Z"
        fill="#FBD15B"
      />
      <path
        d="M86.5817 84.0867H77.4246V84.7368H86.5817V84.0867Z"
        fill="#606BF1"
      />
      <path
        d="M72.8116 65.2875H71.9795V66.1202H72.8116V65.2875Z"
        fill="#F9FBFC"
      />
      <path
        d="M72.8121 95.8304H71.98V94.133H72.8121V95.8304ZM72.8121 91.5861H71.98V89.8888H72.8121V91.5861ZM72.8121 87.3413H71.98V85.6434H72.8121V87.3413ZM72.8121 83.0971H71.98V81.3992H72.8121V83.0971ZM72.8121 78.8529H71.98V77.1549H72.8121V78.8529ZM72.8121 74.6086H71.98V72.9107H72.8121V74.6086ZM72.8121 70.3638H71.98V68.6659H72.8121V70.3638Z"
        fill="#F9FBFC"
      />
      <path
        d="M72.8116 98.3773H71.9795V99.21H72.8116V98.3773Z"
        fill="#F9FBFC"
      />
      <path
        d="M178.699 44.674H133.714V72.4023H178.699V44.674Z"
        fill="#FF8578"
      />
      <path
        d="M151.186 55.8263L145.834 58.1105L151.186 60.3612L150.485 61.9785L144.066 59.1107V57.1266L150.485 54.2421L151.186 55.8263Z"
        fill="#F9FBFC"
      />
      <path
        d="M159.073 50.5416L155.188 65.4634L153.337 65.03L157.239 50.125L159.073 50.5416Z"
        fill="#F9FBFC"
      />
      <path
        d="M168.361 57.1273V59.1114L161.942 61.9791L161.242 60.3618L166.577 58.1112L161.242 55.827L161.942 54.2433L168.361 57.1273Z"
        fill="#F9FBFC"
      />
      <path
        d="M202.777 98.392H177.154V116.646H202.777V98.392Z"
        fill="#606BF1"
      />
      <path
        d="M187.872 102.333C187.048 102.333 186.774 102.555 186.774 103.17V105.917C186.774 106.99 186.329 107.317 185.583 107.527C186.329 107.723 186.774 108.05 186.774 109.109V111.857C186.774 112.471 187.061 112.694 187.872 112.694V113.897C185.792 113.897 185.203 113.23 185.203 111.843V109.24C185.203 108.494 185.007 108.206 184.327 108.206V106.833C185.007 106.833 185.203 106.532 185.203 105.786V103.183C185.203 101.783 185.792 101.129 187.872 101.129V102.333Z"
        fill="#F1F2F2"
      />
      <path
        d="M194.728 103.183V105.787C194.728 106.533 194.924 106.833 195.618 106.833V108.207C194.924 108.207 194.728 108.495 194.728 109.24V111.844C194.728 113.23 194.139 113.898 192.059 113.898V112.694C192.87 112.694 193.158 112.472 193.158 111.857V109.11C193.158 108.05 193.602 107.723 194.348 107.527C193.602 107.318 193.158 106.991 193.158 105.918V103.17C193.158 102.556 192.883 102.333 192.059 102.333V101.13C194.139 101.129 194.728 101.783 194.728 103.183Z"
        fill="#F1F2F2"
      />
      <path
        d="M78.6866 48.6505H49.9424V67.8764H78.6866V48.6505Z"
        fill="#FBD15B"
      />
      <path
        d="M59.4557 54.1693C58.0831 55.8868 58.1044 58.3967 59.5027 60.0935C61.0914 62.0216 63.813 62.3318 65.7685 61.0276L68.7853 64.0443C68.9124 64.1714 69.119 64.1714 69.2461 64.0443L70.094 63.197C70.2211 63.0699 70.2211 62.8633 70.094 62.7361L67.0773 59.7194C68.2992 57.8871 68.1037 55.3822 66.4881 53.7666C64.5225 51.801 61.2409 51.9354 59.4557 54.1693ZM65.5109 59.4618C64.2101 60.7627 62.0938 60.7621 60.7929 59.4618C59.4921 58.1609 59.4921 56.0447 60.7929 54.7438C62.0938 53.4429 64.2101 53.4429 65.5109 54.7438C66.8113 56.0441 66.8118 58.1609 65.5109 59.4618Z"
        fill="#F9FBFC"
      />
      <path
        d="M162.302 108.036C162.24 108.671 161.372 115.301 154.554 115.301C147.396 115.301 148.595 108.215 148.595 108.215L148.586 108.17C149.284 108.027 150.036 107.973 150.832 108.063V104.707L158.956 100.162H159.251V107.991C159.251 107.991 160.54 107.839 162.302 108.036Z"
        fill="url(#paint0_radial_636_25515)"
      />
      <path
        d="M158.357 85.1855C159.508 86.3536 160.379 87.8656 160.798 89.7131C161.579 93.1548 160.844 96.7965 159.846 100.113C159.675 100.681 159.481 101.253 159.13 101.731C158.88 102.071 158.559 102.352 158.239 102.629C156.794 103.888 155.35 105.147 153.908 106.409C152.931 107.265 146.914 107.977 145.765 107.157C141.34 103.993 140.489 94.8264 141.375 90.1404C142.845 82.3659 152.837 79.586 158.357 85.1855Z"
        fill="url(#paint1_radial_636_25515)"
      />
      <path
        d="M155.871 95.1344C155.93 94.3863 156.7 93.5664 157.472 94.0519C158.272 94.5548 158.083 95.8837 157.752 96.6151C157.492 97.1885 156.623 97.8163 156.034 97.2831C155.541 96.8363 156.308 96.3087 156.333 95.9011C156.355 95.5337 155.621 95.2705 155.921 94.8774"
        fill="#F7B094"
      />
      <path
        d="M156.013 98.5941C156.819 98.836 158.185 98.2211 158.531 97.0978C158.877 95.9744 158.84 94.692 158.84 94.692C158.84 94.692 159.246 95.709 159.037 97.3447C158.828 98.9811 158.255 100.54 156.971 100.56C155.686 100.58 156.013 98.5941 156.013 98.5941Z"
        fill="#F7B094"
      />
      <path
        d="M155.024 97.4299C154.997 97.4428 154.967 97.4523 154.933 97.4573C154.434 97.5273 154.235 96.9231 154.161 96.5445C153.987 95.6614 154.015 94.7676 153.984 93.8744C153.976 93.6504 153.994 93.3716 153.902 93.161C153.622 92.5187 152.874 92.1009 152.646 91.4379C152.381 90.6662 153.13 89.8962 152.833 89.0512C152.377 87.757 150.716 87.4596 149.514 87.4736C147.71 87.4949 145.953 87.8292 144.173 88.1053C142.294 88.3971 139.893 88.6737 138.238 87.4854C136.242 86.0535 135.409 82.3211 136.898 80.2776C137.709 79.1638 139.249 78.5708 140.597 78.54C142.027 78.5075 143.235 79.3592 144.546 79.7882C145.59 80.1298 146.601 79.1308 147.577 78.9353C148.804 78.69 149.325 80.0296 150.41 80.0665C151.465 80.1024 152.5 79.2786 153.525 79.091C155.569 78.718 155.449 80.771 156.821 81.4721C157.673 81.9078 158.774 81.644 159.637 82.087C160.292 82.4236 160.384 83.0149 160.527 83.6847C160.65 84.2637 160.657 84.9324 160.848 85.4828C161.019 85.9779 161.435 86.2904 161.759 86.6779C162.113 87.1001 162.339 87.5935 162.519 88.1232C162.916 89.2976 163.005 90.5648 162.896 91.7946C162.713 93.8593 162.049 95.891 161.36 97.8353C160.912 99.097 160.746 100.411 160.058 101.605C159.873 101.926 159.052 102.862 158.747 102.165C158.681 102.015 158.691 101.845 158.703 101.682C158.794 100.382 160.005 92.0012 156.831 93.0081C156.164 93.2192 155.717 93.7736 155.469 94.4064C155.172 95.163 155.151 95.9252 155.189 96.7248C155.194 96.8391 155.197 96.9539 155.193 97.0681C155.187 97.2165 155.15 97.3666 155.024 97.4299Z"
        fill="#3D3D7A"
      />
      <path
        d="M150.832 107.295C154.442 106.715 156.823 103.864 156.823 103.864C156.823 103.864 155.85 108.67 150.615 108.924L150.832 107.295Z"
        fill="#F7B094"
      />
      <path
        d="M156.757 172.799H161.924V222.373C161.924 222.876 161.517 223.284 161.014 223.284H157.668C157.165 223.284 156.757 222.876 156.757 222.373V172.799Z"
        fill="#0A2033"
      />
      <path
        d="M145.133 173.508H173.548V174.284C173.548 176.237 171.965 177.82 170.012 177.82H148.669C146.716 177.82 145.133 176.237 145.133 174.284V173.508Z"
        fill="#30475E"
      />
      <path
        d="M156.757 217.406H161.924V228.894C161.924 229.397 161.517 229.804 161.014 229.804H157.668C157.165 229.804 156.757 229.397 156.757 228.894V217.406Z"
        fill="#0A2033"
      />
      <path
        d="M132.528 226.78C132.528 228.45 133.882 229.804 135.552 229.804C137.222 229.804 138.576 228.45 138.576 226.78C138.576 225.111 137.222 223.756 135.552 223.756C133.882 223.756 132.528 225.111 132.528 226.78Z"
        fill="#0A2033"
      />
      <path
        d="M180.105 226.78C180.105 228.45 181.46 229.804 183.129 229.804C184.799 229.804 186.153 228.45 186.153 226.78C186.153 225.111 184.799 223.756 183.129 223.756C181.459 223.756 180.105 225.111 180.105 226.78Z"
        fill="#0A2033"
      />
      <path
        d="M154.143 222.639H164.538V213.556H154.143V222.639Z"
        fill="#30475E"
      />
      <path
        d="M132.528 224.777H186.153V223.723C186.153 221.944 184.711 220.502 182.933 220.502H135.749C133.97 220.502 132.528 221.944 132.528 223.723V224.777H132.528Z"
        fill="#FBD15B"
      />
      <path
        d="M159.341 178.838H157.548V212.745H159.341V178.838Z"
        fill="#30475E"
      />
      <path
        d="M179.64 136.866C178.4 136.827 177.392 137.853 177.464 139.091C177.819 145.246 176.514 160.259 170.782 165.382C163.773 171.645 143.908 170.792 143.908 170.792C143.908 170.792 140.628 174.819 147.188 175.713C153.75 176.608 172.241 176.011 176.714 171.836C181.045 167.794 183.615 157.205 181.678 138.775C181.567 137.717 180.702 136.899 179.64 136.866Z"
        fill="#FBD15B"
      />
      <path
        d="M142.421 212.746L144.783 218.132L137.545 221.308L135.174 215.904L142.421 212.746Z"
        fill="url(#paint2_radial_636_25515)"
      />
      <path
        d="M176.555 152.879C176.108 153.774 143.947 152.897 140.909 153.175C140.909 153.175 121.225 162.569 118.398 171.364C118.112 172.25 118.031 173.422 118.121 174.818C118.908 187.201 133.009 216.852 133.009 216.852L135.174 215.903L142.421 212.745L143.45 212.298C143.45 212.298 132.266 178.969 134.503 177.18C136.74 175.391 162.087 170.917 170.882 168.537C179.687 166.149 176.555 152.879 176.555 152.879Z"
        fill="#56548C"
      />
      <path
        d="M114.827 214.131L115.392 222.223H107.491L106.926 214.113L114.827 214.131Z"
        fill="url(#paint3_radial_636_25515)"
      />
      <path
        d="M140.749 152.897L140.462 153.023C140.462 153.023 107.51 157.648 102.142 166.891C98.6522 172.904 105.406 216.837 105.406 216.837L117.064 216.864C117.064 216.864 115.321 180.267 115.902 178.227C116.555 175.901 117.674 175.06 118.121 174.818C118.032 173.423 118.112 172.25 118.398 171.365C121.226 162.57 140.91 153.175 140.91 153.175C140.847 153.13 140.793 153.032 140.749 152.897Z"
        fill="#3D3D7A"
      />
      <path
        d="M172.577 122.45L170.367 122.754C170.367 122.754 169.83 128.713 168.515 134.672L140.984 145.122L140.608 147.118C140.492 147.109 140.376 147.1 140.269 147.091C140.278 147.502 140.278 147.905 140.295 148.281C140.358 150.58 140.51 152.235 140.752 152.897C140.797 153.032 140.85 153.13 140.913 153.174C141.661 153.784 151.398 152.603 161.925 156.468C171.055 159.82 176.171 163.482 176.408 162.99C179.276 157.025 174.053 133.616 172.577 122.45Z"
        fill="#FF8578"
      />
      <path
        d="M169.704 136.103C168.971 139.629 167.074 146.643 163.352 147.583C158.493 148.818 149.099 148.755 140.295 148.281C140.277 147.905 140.277 147.502 140.268 147.091C140.376 147.1 140.492 147.109 140.608 147.118L140.984 145.122L168.514 134.672C169.83 128.713 170.366 122.754 170.366 122.754C170.366 122.754 170.366 122.79 170.375 122.853C170.429 123.774 170.805 130.896 169.704 136.103Z"
        fill="#F4675D"
      />
      <path
        d="M142.108 113.655C141.616 114.55 140.909 124.123 140.524 133.625L134.896 128.373C137.285 123.748 142.108 113.655 142.108 113.655Z"
        fill="#F4675D"
      />
      <path
        d="M138.735 140.568C133.984 141.391 129.618 142.098 129.618 142.098L129.609 142.331C124.321 138.108 116.278 126.145 116.278 126.145C116.278 126.145 118.684 123.255 119.284 122.494C119.373 122.378 132.49 131.406 133.161 131.325C133.331 131.307 134.002 130.126 134.897 128.373L140.525 133.625C140.435 135.888 140.364 138.143 140.319 140.282C139.791 140.38 139.263 140.47 138.735 140.568Z"
        fill="#F7B094"
      />
      <path
        d="M129.618 142.098L129.502 146.017H115.186C115.186 146.017 116.609 140.425 120.483 140.425C124.357 140.425 125.851 142.474 125.851 142.474L129.618 142.098Z"
        fill="url(#paint4_radial_636_25515)"
      />
      <path
        d="M119.177 122.405L119.284 122.495C118.685 123.255 116.278 126.146 116.278 126.146L114.784 125.09C114.784 125.09 113.138 126.092 111.223 125.045C109.228 123.963 110.463 121.378 110.565 121.071C110.178 121.181 107.788 123.113 107.412 122.907C107.036 122.701 106.759 122.021 109.434 119.382C112.1 116.743 115.733 120.133 115.84 120.133L119.177 122.405Z"
        fill="#F7B094"
      />
      <path
        d="M111.534 124.596C111.534 124.596 110.957 125.676 111.983 126.146C113.008 126.615 115.003 126.954 115.86 126.871C116.717 126.789 117.398 125.589 117.398 125.589L114.803 123.154H112.728L111.534 124.596Z"
        fill="#F7B094"
      />
      <path
        d="M111.38 125.126C111.534 124.596 113.007 124.879 113.921 124.901C114.594 124.917 114.963 124.74 115.171 124.227C115.379 123.715 114.402 122.897 114.21 123.154C114.018 123.41 114.562 123.771 114.578 124.112C114.594 124.452 113.617 124.564 112.864 124.564C112.111 124.564 110.812 124.76 110.812 124.76L111.38 125.126Z"
        fill="#E8987C"
      />
      <path
        d="M167.116 139.754L153.095 134.789C152.076 136.694 150.984 138.126 149.901 138.412C148.264 138.842 144.309 139.584 140.318 140.282C139.79 140.381 139.263 140.47 138.735 140.568C133.984 141.392 129.617 142.098 129.617 142.098L129.608 142.331V142.483L129.501 146.017V146.914C129.501 146.914 134.261 146.67 140.265 147.091C148.666 147.69 159.501 148.048 163.089 146.357C164.771 145.561 166.113 142.948 167.169 139.727C167.151 139.736 167.134 139.745 167.116 139.754Z"
        fill="url(#paint5_radial_636_25515)"
      />
      <path
        d="M153.095 134.789L167.116 139.754L166.481 141.627L152.604 135.675L153.095 134.789Z"
        fill="#F7B094"
      />
      <path
        d="M153.095 134.789C152.076 136.694 150.984 138.126 149.901 138.412C148.264 138.842 144.309 139.584 140.318 140.282C140.363 138.144 140.435 135.889 140.524 133.626C140.909 124.123 141.616 114.55 142.108 113.655C142.913 112.161 145.114 108.913 148.586 108.171L148.595 108.216C148.595 108.216 147.396 115.302 154.554 115.302C161.372 115.302 162.239 108.672 162.302 108.037C165.809 108.431 171.186 110.184 171.929 117.235C172.081 118.63 172.295 120.42 172.573 122.451L170.363 122.755C170.363 122.755 169.468 132.687 167.169 139.728C167.151 139.737 167.133 139.746 167.115 139.755L153.095 134.789Z"
        fill="#FF8578"
      />
      <path
        d="M152.95 133.496L158.549 119.944L154.424 134.044L152.95 133.496Z"
        fill="#6D4B35"
      />
      <path
        d="M162.302 108.036H159.251C159.251 108.036 154.91 112.804 152.119 112.804C149.328 112.804 150.832 108.063 150.832 108.063H149.471C145.559 108.063 142.268 111 141.825 114.887C141.774 115.332 141.728 115.755 141.689 116.137C141.39 119.021 153.074 121.12 153.074 121.12L159.089 120.783L162.742 113.655L163.47 110.737L162.302 108.036Z"
        fill="#FF8578"
      />
      <path
        d="M125.486 227.507C125.758 228.965 126.768 230.001 128.226 229.729L147.659 226.105C148.151 226.013 148.475 225.54 148.383 225.049L148.062 223.325C148.062 223.325 127.624 226.901 125.477 227.497L125.486 227.507Z"
        fill="#F1F2F2"
      />
      <path
        d="M131.268 222.614C131.471 222.439 131.665 222.264 131.868 222.088C132.258 221.739 132.642 221.4 133.011 221.071C133.205 220.896 133.4 220.722 133.581 220.558C133.936 220.24 134.271 219.942 134.57 219.675C134.786 219.481 134.987 219.296 135.168 219.133C135.5 218.835 135.771 218.592 135.961 218.422C136.126 218.274 136.37 218.267 136.54 218.409C137.339 219.081 139.92 220.617 144.597 217.723C144.819 217.586 145.113 217.657 145.233 217.889L148.061 223.323C148.061 223.323 127.624 226.9 125.476 227.495C126.182 227.056 128.792 224.799 131.268 222.614Z"
        fill="#3D3D7A"
      />
      <path
        d="M94.8816 227.317C94.918 228.799 95.7502 229.983 97.2325 229.947L116.994 229.465C117.494 229.453 117.89 229.038 117.877 228.538L117.835 226.784C117.835 226.784 97.0886 227.059 94.8738 227.305L94.8816 227.317Z"
        fill="#F1F2F2"
      />
      <path
        d="M101.369 223.407C101.597 223.266 101.817 223.125 102.045 222.984C102.485 222.701 102.918 222.427 103.335 222.161C103.555 222.02 103.775 221.879 103.98 221.747C104.381 221.489 104.758 221.248 105.097 221.033C105.34 220.875 105.568 220.726 105.773 220.593C106.148 220.352 106.455 220.155 106.67 220.017C106.856 219.898 107.098 219.93 107.243 220.097C107.924 220.887 110.228 222.815 115.307 220.703C115.547 220.603 115.826 220.721 115.909 220.969L117.834 226.785C117.834 226.785 97.0881 227.06 94.8733 227.305C95.6405 226.983 98.576 225.169 101.369 223.407Z"
        fill="#3D3D7A"
      />
      <path
        d="M80.824 146.914L70.2703 118.766H100.316L110.87 146.914H80.824Z"
        fill="#ABB5BA"
      />
      <path
        d="M112.727 146.914H110.87L100.316 118.766L102.003 118.842L111.765 144.319L112.727 146.914Z"
        fill="#8495A0"
      />
      <path
        d="M112.145 146.914H131.998L131.945 145.139C131.945 145.139 112.07 145.139 111.739 145.139"
        fill="#8495A0"
      />
      <path
        d="M196.729 152.282H191.949V230.813H196.729V152.282Z"
        fill="#8495A0"
      />
      <path
        d="M170.782 152.282H166.002V230.813H170.782V152.282Z"
        fill="#ABB5BA"
      />
      <path
        d="M87.6561 152.282H82.876V230.813H87.6561V152.282Z"
        fill="#8495A0"
      />
      <path
        d="M61.7096 152.282H56.9294V230.813H61.7096V152.282Z"
        fill="#ABB5BA"
      />
      <path
        d="M201.512 152.58H52.3503C51.0673 152.58 50.0269 151.54 50.0269 150.257V149.237C50.0269 147.954 51.0673 146.914 52.3503 146.914H201.512C202.795 146.914 203.835 147.954 203.835 149.237V150.257C203.836 151.54 202.795 152.58 201.512 152.58Z"
        fill="#141B56"
      />
      <path
        d="M75.2869 121.725L75.8009 123.095H81.7862L81.2721 121.725H75.2869Z"
        fill="#8495A0"
      />
      <path
        d="M134.897 128.373L134.468 129.203L140.524 135.463V133.626L134.897 128.373Z"
        fill="#E8987C"
      />
      <path
        d="M258.53 229.803H16.6572V235.326H258.53V229.803Z"
        fill="#A5B7C6"
      />
      <path
        d="M220.183 188.84C219.222 193.502 219.511 201.444 213.343 202.701C211.682 203.04 210.078 201.889 209.113 200.57C207.849 198.843 207.547 195.188 207.569 193.099C207.587 191.442 208.152 189.595 208.334 187.924C208.53 186.119 208.69 184.31 208.9 182.506C209.659 176.006 213.055 170.557 218.799 167.312C219.244 169.446 220.257 171.252 221.15 173.301C221.557 174.235 221.925 175.22 222.19 176.199C222.66 177.932 222.092 179.684 221.67 181.344C221.047 183.799 220.695 186.357 220.183 188.84Z"
        fill="url(#paint6_linear_636_25515)"
      />
      <path
        d="M212.3 202.858C212.344 202.467 212.392 202.076 212.444 201.685C213.18 201.683 213.948 201.265 214.566 200.944C215.639 200.388 216.509 199.59 217.352 198.738C217.397 198.692 217.322 198.619 217.274 198.659C216.433 199.366 215.562 200.049 214.561 200.516C214.003 200.776 213.188 201.201 212.5 201.283C212.565 200.817 212.637 200.351 212.714 199.886C213.481 199.792 214.184 199.288 214.834 198.902C215.938 198.247 216.888 197.399 217.873 196.583C217.884 196.573 217.87 196.557 217.859 196.565C216.352 197.659 214.675 199.215 212.77 199.557C212.871 198.974 212.978 198.393 213.1 197.816C213.106 197.786 213.113 197.756 213.119 197.726C215.324 197.168 216.816 195.439 218.504 194.041C218.531 194.019 218.502 193.972 218.473 193.994C216.81 195.285 215.249 196.759 213.193 197.385C213.371 196.559 213.557 195.736 213.743 194.914C215.739 194.178 217.332 193.01 218.726 191.382C218.749 191.354 218.71 191.316 218.685 191.342C217.242 192.844 215.653 193.707 213.823 194.562C214.007 193.748 214.19 192.934 214.363 192.118C215.226 191.694 216.134 191.435 216.931 190.877C217.718 190.327 218.423 189.67 218.929 188.851C218.956 188.808 218.892 188.767 218.863 188.808C217.747 190.413 216.064 190.912 214.438 191.756C214.597 190.996 214.745 190.233 214.877 189.465C216.689 188.467 218.658 187.542 219.685 185.63C219.696 185.611 219.669 185.592 219.657 185.611C218.569 187.368 216.668 188.125 214.941 189.081C214.964 188.945 214.989 188.808 215.01 188.671C215.121 187.959 215.225 187.247 215.327 186.535C216.369 186.118 217.361 185.529 218.298 184.919C218.964 184.486 219.674 184.056 220.109 183.376C220.137 183.333 220.074 183.289 220.045 183.331C219.073 184.723 216.944 185.528 215.372 186.225C215.474 185.506 215.575 184.785 215.678 184.066C217.422 183.01 219.475 182.426 220.548 180.523C220.58 180.467 220.497 180.415 220.462 180.47C219.35 182.208 217.393 182.744 215.725 183.73C215.79 183.284 215.854 182.838 215.922 182.393C217.806 181.7 219.996 180.123 220.99 178.42C221.045 178.326 220.908 178.239 220.847 178.329C219.834 179.824 217.798 181.448 215.977 182.039C216.088 181.317 216.204 180.597 216.333 179.877C216.346 179.857 216.355 179.836 216.361 179.813C217.206 179.564 218.043 178.968 218.773 178.517C219.653 177.974 220.494 177.343 221.041 176.45C221.102 176.352 220.942 176.261 220.884 176.362C220.047 177.855 218.061 178.857 216.417 179.427C216.466 179.165 216.513 178.902 216.565 178.64C216.643 178.248 216.722 177.857 216.803 177.465C217.476 177 218.33 176.777 219.006 176.287C219.594 175.86 220.107 175.346 220.61 174.825C220.66 174.774 220.586 174.694 220.533 174.743C219.851 175.385 219.149 176 218.319 176.444C217.855 176.693 217.326 176.835 216.876 177.107C217.008 176.467 217.139 175.827 217.263 175.186C217.271 175.184 217.279 175.182 217.288 175.181C217.295 175.183 217.304 175.184 217.312 175.186C217.358 175.195 217.395 175.179 217.422 175.152C218.338 174.921 219.038 174.133 219.653 173.461C219.668 173.445 219.645 173.422 219.629 173.437C218.984 174.034 218.251 174.694 217.386 174.951C217.383 174.95 217.38 174.948 217.377 174.947C217.355 174.944 217.333 174.941 217.312 174.937C217.412 174.415 217.507 173.892 217.594 173.369C217.66 173.357 217.718 173.3 217.702 173.234C218.187 172.908 218.629 172.493 219.043 172.087C219.073 172.057 219.03 172.008 218.997 172.037C218.567 172.408 218.142 172.713 217.658 172.982C217.828 171.9 217.961 170.812 218.022 169.714C218.027 169.612 217.873 169.611 217.864 169.711C217.769 170.768 217.615 171.815 217.433 172.857C216.928 172.195 216.366 171.513 216.058 170.755C216.042 170.715 215.979 170.731 215.993 170.774C216.144 171.245 216.404 171.656 216.662 172.075C216.893 172.45 217.077 172.886 217.371 173.219C217.27 173.778 217.159 174.336 217.044 174.894C216.431 174.795 215.867 174.679 215.361 174.234C214.74 173.691 214.387 172.95 214.326 172.131C214.318 172.03 214.159 172.03 214.168 172.131C214.238 172.894 214.542 173.612 215.064 174.181C215.613 174.779 216.257 174.97 216.996 175.123C216.862 175.767 216.723 176.409 216.581 177.052C216.024 176.717 215.506 176.28 215.003 175.88C214.192 175.234 213.714 174.456 213.01 173.728C212.939 173.655 212.824 173.76 212.894 173.834C213.553 174.536 214 175.295 214.75 175.925C215.291 176.379 215.886 176.947 216.531 177.283C216.524 177.317 216.516 177.35 216.509 177.384C216.502 177.391 216.494 177.396 216.487 177.403C216.438 177.451 216.444 177.507 216.473 177.547C216.338 178.162 216.203 178.778 216.073 179.394C216.065 179.433 216.058 179.472 216.05 179.51C214.615 178.853 212.472 177.713 212.282 176.048C212.264 175.89 212.027 175.934 212.064 176.096C212.488 177.979 214.558 178.814 215.984 179.841C215.844 180.538 215.715 181.238 215.596 181.938C214.67 181.62 213.789 181.225 213.011 180.607C212.303 180.044 211.302 179.365 210.984 178.494C210.974 178.466 210.933 178.484 210.942 178.511C211.237 179.377 212.135 179.973 212.788 180.564C213.618 181.315 214.466 181.951 215.532 182.251C215.524 182.282 215.522 182.314 215.529 182.345C215.456 182.79 215.386 183.234 215.317 183.679C213.575 183.546 211.138 182.222 210.247 180.905C210.243 180.898 210.235 180.905 210.238 180.911C210.845 181.917 211.764 182.505 212.799 183.015C213.572 183.395 214.407 183.846 215.282 183.911C215.157 184.736 215.036 185.561 214.913 186.386C214.157 186.104 213.356 185.969 212.608 185.67C211.496 185.224 210.647 184.425 209.992 183.443C209.953 183.383 209.854 183.433 209.893 183.495C211.099 185.413 212.834 185.975 214.867 186.693C214.765 187.37 214.659 188.046 214.547 188.721C212.884 188.402 210.732 187.387 209.89 185.942C209.829 185.835 209.66 185.924 209.721 186.031C210.253 186.957 211.17 187.542 212.104 188.014C212.777 188.354 213.704 188.918 214.505 188.978C214.502 189.001 214.498 189.022 214.495 189.045C214.33 190.016 214.138 190.983 213.931 191.947C212.072 191.48 210.871 190.103 209.52 188.815C209.426 188.725 209.28 188.862 209.373 188.953C210.749 190.308 211.958 191.729 213.87 192.229C213.698 193.013 213.516 193.795 213.327 194.575C211.744 194.132 210.177 193.01 209.154 191.719C209.081 191.628 208.954 191.752 209.022 191.843C210.086 193.243 211.62 194.299 213.254 194.878C213.048 195.715 212.836 196.55 212.621 197.384C210.995 197.137 209.742 196.119 208.741 194.832C208.717 194.803 208.665 194.842 208.688 194.873C209.577 196.111 210.923 197.54 212.543 197.69C212.474 197.957 212.405 198.223 212.337 198.489C212.295 198.65 212.251 198.813 212.207 198.977C210.981 198.616 209.843 198.176 208.831 197.35C208.802 197.327 208.77 197.37 208.797 197.394C209.758 198.26 210.91 198.844 212.14 199.222C212.003 199.723 211.859 200.239 211.717 200.764C211.413 200.622 211.119 200.467 210.786 200.367C210.176 200.184 209.781 199.798 209.25 199.479C209.202 199.45 209.147 199.518 209.196 199.55C209.661 199.854 209.989 200.246 210.521 200.446C210.915 200.595 211.286 200.784 211.666 200.953C211.107 203.036 210.613 205.25 210.881 207.25C210.94 207.693 211.685 207.811 211.8 207.339C212.153 205.888 212.134 204.34 212.3 202.858Z"
        fill="#747DED"
      />
      <path
        d="M200.664 187.505C201.76 192.138 205.375 199.214 200.314 202.958C198.951 203.966 197.011 203.599 195.578 202.811C193.705 201.779 191.888 198.593 191.026 196.689C190.343 195.18 190.075 193.267 189.535 191.676C188.951 189.956 188.333 188.249 187.762 186.525C185.706 180.312 186.485 173.94 190.323 168.573C191.627 170.32 193.308 171.53 194.983 173.01C195.746 173.685 196.495 174.423 197.149 175.199C198.306 176.572 198.53 178.4 198.849 180.082C199.32 182.571 200.08 185.039 200.664 187.505Z"
        fill="url(#paint7_linear_636_25515)"
      />
      <path
        d="M199.434 203.541C199.309 203.168 199.188 202.793 199.069 202.417C199.736 202.104 200.255 201.401 200.681 200.849C201.419 199.892 201.871 198.802 202.275 197.673C202.296 197.613 202.196 197.579 202.17 197.636C201.706 198.63 201.205 199.618 200.495 200.464C200.099 200.935 199.539 201.664 198.95 202.029C198.812 201.579 198.68 201.126 198.554 200.672C199.21 200.263 199.635 199.509 200.061 198.886C200.786 197.825 201.289 196.656 201.837 195.5C201.843 195.487 201.824 195.477 201.817 195.49C200.913 197.117 200.049 199.237 198.466 200.349C198.311 199.779 198.163 199.207 198.03 198.632C198.023 198.602 198.017 198.573 198.01 198.542C199.773 197.106 200.395 194.909 201.336 192.929C201.351 192.897 201.305 192.867 201.289 192.9C200.326 194.772 199.533 196.767 197.934 198.202C197.747 197.379 197.567 196.554 197.389 195.731C198.887 194.221 199.838 192.49 200.416 190.425C200.425 190.39 200.374 190.372 200.362 190.407C199.688 192.377 198.611 193.83 197.313 195.377C197.137 194.561 196.959 193.746 196.772 192.933C197.375 192.184 198.089 191.567 198.576 190.725C199.057 189.894 199.419 189.001 199.533 188.045C199.539 187.995 199.463 187.985 199.455 188.035C199.12 189.961 197.805 191.124 196.687 192.575C196.51 191.819 196.321 191.065 196.118 190.314C197.34 188.644 198.735 186.974 198.858 184.807C198.859 184.786 198.827 184.78 198.825 184.802C198.58 186.855 197.175 188.343 196.014 189.939C195.977 189.806 195.942 189.672 195.904 189.539C195.704 188.846 195.498 188.157 195.289 187.468C196.058 186.65 196.709 185.698 197.301 184.749C197.721 184.076 198.184 183.386 198.292 182.586C198.298 182.536 198.223 182.522 198.214 182.573C197.921 184.245 196.33 185.874 195.199 187.169C194.988 186.474 194.776 185.778 194.565 185.083C195.702 183.389 197.315 181.994 197.486 179.815C197.491 179.75 197.394 179.739 197.385 179.804C197.111 181.848 195.562 183.16 194.467 184.758C194.337 184.327 194.207 183.895 194.081 183.463C195.497 182.04 196.817 179.685 196.999 177.721C197.009 177.613 196.849 177.592 196.832 177.699C196.544 179.482 195.383 181.813 193.982 183.118C193.778 182.417 193.579 181.714 193.392 181.008C193.395 180.985 193.395 180.962 193.39 180.939C194.052 180.356 194.559 179.462 195.03 178.746C195.599 177.882 196.095 176.955 196.214 175.914C196.227 175.8 196.043 175.784 196.035 175.9C195.907 177.608 194.528 179.353 193.278 180.565C193.212 180.306 193.144 180.048 193.08 179.789C192.985 179.401 192.892 179.012 192.8 178.624C193.213 177.918 193.894 177.356 194.3 176.626C194.653 175.991 194.901 175.308 195.137 174.624C195.161 174.555 195.06 174.514 195.032 174.582C194.685 175.451 194.308 176.305 193.743 177.058C193.427 177.479 193.007 177.831 192.715 178.267C192.564 177.632 192.412 176.996 192.255 176.362C192.262 176.358 192.268 176.352 192.275 176.348C192.283 176.346 192.291 176.344 192.299 176.342C192.345 176.33 192.372 176.3 192.385 176.264C193.117 175.669 193.419 174.658 193.693 173.79C193.7 173.77 193.67 173.758 193.662 173.779C193.329 174.592 192.942 175.501 192.267 176.097C192.264 176.098 192.261 176.097 192.257 176.098C192.235 176.104 192.214 176.11 192.193 176.117C192.064 175.601 191.929 175.087 191.788 174.576C191.843 174.537 191.871 174.462 191.829 174.409C192.132 173.908 192.356 173.346 192.559 172.803C192.575 172.762 192.515 172.737 192.497 172.777C192.264 173.295 192.008 173.751 191.682 174.199C191.381 173.146 191.042 172.104 190.633 171.082C190.595 170.987 190.455 171.051 190.489 171.146C190.849 172.145 191.151 173.159 191.427 174.181C190.689 173.793 189.892 173.412 189.292 172.855C189.261 172.825 189.211 172.866 189.241 172.899C189.576 173.262 189.986 173.525 190.397 173.796C190.763 174.039 191.115 174.356 191.522 174.534C191.666 175.084 191.802 175.637 191.933 176.19C191.335 176.36 190.775 176.492 190.128 176.303C189.336 176.072 188.703 175.55 188.302 174.832C188.252 174.745 188.109 174.812 188.159 174.899C188.545 175.561 189.123 176.084 189.836 176.379C190.587 176.69 191.251 176.591 191.986 176.418C192.135 177.058 192.281 177.699 192.424 178.341C191.777 178.274 191.123 178.096 190.499 177.945C189.491 177.701 188.728 177.198 187.783 176.836C187.688 176.799 187.628 176.943 187.722 176.981C188.616 177.338 189.341 177.839 190.287 178.093C190.969 178.276 191.749 178.54 192.475 178.573C192.482 178.606 192.49 178.64 192.497 178.674C192.494 178.683 192.489 178.691 192.485 178.7C192.461 178.764 192.489 178.812 192.533 178.836C192.67 179.451 192.807 180.066 192.95 180.68C192.959 180.718 192.969 180.756 192.978 180.795C191.4 180.805 188.975 180.675 188.101 179.247C188.017 179.111 187.822 179.251 187.923 179.382C189.103 180.91 191.332 180.793 193.058 181.122C193.225 181.814 193.403 182.502 193.591 183.188C192.617 183.29 191.652 183.304 190.686 183.072C189.807 182.86 188.613 182.667 187.956 182.012C187.935 181.991 187.906 182.025 187.926 182.045C188.559 182.706 189.624 182.867 190.466 183.127C191.535 183.458 192.572 183.677 193.665 183.499C193.671 183.53 193.683 183.56 193.702 183.585C193.824 184.019 193.948 184.452 194.074 184.884C192.438 185.498 189.669 185.328 188.306 184.509C188.3 184.505 188.295 184.514 188.301 184.519C189.276 185.174 190.356 185.32 191.51 185.345C192.372 185.364 193.319 185.42 194.14 185.11C194.374 185.91 194.613 186.709 194.849 187.509C194.045 187.572 193.262 187.788 192.457 187.832C191.261 187.898 190.154 187.531 189.146 186.917C189.085 186.88 189.016 186.967 189.078 187.006C190.981 188.235 192.791 188.013 194.937 187.807C195.13 188.463 195.32 189.12 195.504 189.779C193.861 190.193 191.482 190.18 190.109 189.226C190.009 189.156 189.893 189.307 189.994 189.378C190.867 189.993 191.945 190.137 192.991 190.17C193.745 190.194 194.823 190.314 195.575 190.03C195.581 190.052 195.587 190.073 195.593 190.095C195.854 191.046 196.089 192.003 196.307 192.964C194.425 193.325 192.755 192.584 190.986 191.986C190.863 191.944 190.788 192.13 190.911 192.174C192.73 192.821 194.426 193.599 196.371 193.246C196.546 194.029 196.711 194.814 196.868 195.602C195.247 195.868 193.352 195.512 191.879 194.774C191.775 194.721 191.712 194.888 191.812 194.941C193.368 195.761 195.204 196.072 196.929 195.907C197.096 196.753 197.256 197.599 197.413 198.447C195.835 198.909 194.27 198.514 192.819 197.771C192.785 197.753 192.754 197.811 192.787 197.83C194.116 198.577 195.94 199.304 197.471 198.757C197.522 199.028 197.571 199.298 197.621 199.569C197.651 199.732 197.681 199.898 197.71 200.065C196.446 200.256 195.229 200.337 193.963 200.015C193.927 200.006 193.917 200.059 193.951 200.07C195.188 200.449 196.478 200.492 197.753 200.316C197.841 200.828 197.928 201.356 198.021 201.892C197.685 201.892 197.352 201.876 197.009 201.926C196.379 202.018 195.858 201.833 195.242 201.768C195.185 201.762 195.165 201.848 195.223 201.856C195.773 201.935 196.236 202.152 196.803 202.109C197.222 202.077 197.639 202.092 198.055 202.084C198.427 204.209 198.914 206.425 200.001 208.124C200.241 208.501 200.966 208.294 200.871 207.818C200.58 206.35 199.909 204.954 199.434 203.541Z"
        fill="#747DED"
      />
      <path
        d="M211.354 183.915C211.614 189.801 214.369 199.241 207.351 202.62C205.461 203.53 203.187 202.635 201.628 201.345C199.589 199.657 198.118 195.364 197.511 192.849C197.03 190.856 197.148 188.468 196.859 186.409C196.548 184.183 196.191 181.965 195.897 179.737C194.836 171.708 197.258 164.141 203.167 158.506C204.347 160.932 206.111 162.791 207.804 164.979C208.576 165.976 209.316 167.046 209.931 168.14C211.02 170.078 210.869 172.352 210.866 174.472C210.863 177.605 211.215 180.781 211.354 183.915Z"
        fill="url(#paint8_linear_636_25515)"
      />
      <path
        d="M206.146 203.125C206.08 202.642 206.019 202.158 205.962 201.674C206.846 201.448 207.64 200.713 208.285 200.141C209.404 199.149 210.206 197.928 210.958 196.649C210.999 196.581 210.885 196.516 210.84 196.579C210.045 197.682 209.207 198.766 208.148 199.629C207.557 200.11 206.708 200.867 205.908 201.174C205.844 200.595 205.789 200.014 205.74 199.433C206.632 199.088 207.323 198.27 207.986 197.61C209.112 196.489 209.995 195.184 210.928 193.906C210.939 193.891 210.917 193.875 210.906 193.889C209.431 195.658 207.889 198.034 205.707 199.021C205.651 198.292 205.604 197.562 205.575 196.833C205.573 196.795 205.573 196.756 205.571 196.718C208.047 195.381 209.312 192.854 210.915 190.665C210.94 190.629 210.891 190.582 210.863 190.618C209.26 192.671 207.832 194.912 205.556 196.287C205.52 195.243 205.493 194.199 205.467 193.156C207.637 191.668 209.195 189.783 210.374 187.407C210.394 187.367 210.337 187.332 210.314 187.371C209.037 189.611 207.392 191.128 205.456 192.709C205.43 191.676 205.403 190.644 205.363 189.613C206.27 188.841 207.281 188.256 208.068 187.345C208.845 186.446 209.492 185.445 209.851 184.309C209.87 184.249 209.781 184.22 209.759 184.278C208.906 186.541 207.038 187.651 205.343 189.157C205.303 188.196 205.248 187.235 205.175 186.275C207.047 184.528 209.129 182.821 209.781 180.215C209.788 180.189 209.75 180.175 209.742 180.201C208.969 182.639 206.917 184.124 205.135 185.795C205.121 185.624 205.11 185.453 205.094 185.283C205.012 184.396 204.92 183.509 204.826 182.623C205.95 181.807 206.962 180.8 207.901 179.783C208.568 179.062 209.29 178.331 209.606 177.383C209.626 177.324 209.538 177.29 209.515 177.349C208.771 179.314 206.461 180.926 204.785 182.238C204.69 181.344 204.593 180.45 204.498 179.555C206.271 177.759 208.556 176.436 209.268 173.828C209.289 173.75 209.174 173.713 209.148 173.79C208.341 176.212 206.155 177.448 204.453 179.137C204.394 178.583 204.337 178.028 204.283 177.473C206.333 176.071 208.484 173.514 209.16 171.17C209.196 171.041 209.007 170.977 208.961 171.104C208.199 173.204 206.248 175.77 204.242 177.032C204.157 176.132 204.078 175.232 204.014 174.33C204.023 174.303 204.028 174.275 204.028 174.245C204.967 173.69 205.79 172.721 206.53 171.959C207.421 171.04 208.238 170.028 208.625 168.791C208.667 168.654 208.447 168.593 208.41 168.732C207.859 170.777 205.779 172.581 203.98 173.764C203.958 173.434 203.935 173.105 203.919 172.775C203.893 172.281 203.87 171.787 203.847 171.293C204.514 170.532 205.472 170.005 206.134 169.211C206.71 168.521 207.169 167.748 207.616 166.971C207.66 166.894 207.547 166.821 207.498 166.896C206.874 167.872 206.219 168.823 205.358 169.608C204.876 170.047 204.284 170.377 203.827 170.84C203.791 170.032 203.754 169.225 203.71 168.418C203.72 168.414 203.728 168.408 203.737 168.404C203.747 168.404 203.757 168.403 203.767 168.403C203.826 168.399 203.865 168.368 203.89 168.328C204.918 167.774 205.52 166.616 206.054 165.623C206.067 165.6 206.033 165.579 206.018 165.601C205.424 166.513 204.744 167.528 203.785 168.098C203.781 168.098 203.778 168.096 203.773 168.096C203.745 168.099 203.719 168.101 203.691 168.103C203.653 167.447 203.608 166.791 203.554 166.137C203.63 166.103 203.682 166.017 203.644 165.942C204.127 165.404 204.531 164.773 204.903 164.159C204.931 164.113 204.864 164.069 204.833 164.113C204.429 164.689 204.013 165.184 203.513 165.653C203.39 164.303 203.22 162.958 202.959 161.621C202.935 161.498 202.749 161.543 202.769 161.666C202.974 162.964 203.108 164.267 203.206 165.572C202.399 164.931 201.518 164.283 200.917 163.466C200.886 163.424 200.817 163.462 200.845 163.509C201.169 164.028 201.606 164.443 202.042 164.868C202.433 165.247 202.787 165.715 203.24 166.025C203.288 166.727 203.325 167.43 203.356 168.133C202.589 168.201 201.878 168.232 201.136 167.853C200.226 167.388 199.578 166.607 199.256 165.642C199.217 165.523 199.026 165.572 199.068 165.69C199.383 166.584 199.965 167.353 200.763 167.877C201.603 168.429 202.435 168.462 203.368 168.422C203.402 169.235 203.43 170.048 203.455 170.862C202.685 170.63 201.931 170.263 201.206 169.935C200.038 169.405 199.227 168.617 198.162 167.957C198.055 167.891 197.949 168.053 198.055 168.12C199.059 168.762 199.824 169.538 200.916 170.066C201.702 170.447 202.59 170.948 203.464 171.155C203.465 171.199 203.467 171.241 203.468 171.284C203.462 171.294 203.454 171.303 203.448 171.313C203.403 171.386 203.427 171.451 203.474 171.49C203.498 172.269 203.523 173.049 203.554 173.828C203.556 173.877 203.56 173.925 203.561 173.974C201.641 173.621 198.722 172.902 197.99 170.963C197.92 170.778 197.65 170.903 197.743 171.086C198.824 173.217 201.56 173.591 203.582 174.391C203.625 175.27 203.682 176.148 203.753 177.025C202.545 176.924 201.368 176.718 200.247 176.211C199.227 175.751 197.821 175.24 197.174 174.29C197.154 174.261 197.111 174.294 197.13 174.324C197.747 175.274 199.005 175.717 199.968 176.227C201.19 176.876 202.401 177.383 203.771 177.42C203.771 177.459 203.778 177.498 203.796 177.533C203.843 178.089 203.894 178.644 203.947 179.199C201.816 179.566 198.49 178.718 197.022 177.407C197.015 177.401 197.007 177.411 197.013 177.417C198.046 178.439 199.327 178.867 200.723 179.165C201.766 179.387 202.905 179.675 203.974 179.488C204.074 180.515 204.179 181.541 204.281 182.568C203.289 182.46 202.287 182.54 201.299 182.408C199.829 182.21 198.569 181.509 197.485 180.528C197.419 180.469 197.316 180.559 197.381 180.621C199.41 182.557 201.662 182.705 204.319 182.95C204.402 183.793 204.48 184.636 204.551 185.48C202.458 185.602 199.568 185.036 198.121 183.557C198.014 183.449 197.839 183.606 197.945 183.716C198.864 184.665 200.141 185.09 201.405 185.373C202.315 185.577 203.598 185.972 204.578 185.801C204.58 185.829 204.583 185.857 204.585 185.884C204.683 187.1 204.746 188.318 204.789 189.536C202.417 189.54 200.559 188.252 198.548 187.115C198.408 187.036 198.273 187.244 198.413 187.326C200.474 188.533 202.355 189.872 204.801 189.893C204.833 190.886 204.851 191.879 204.86 192.872C202.828 192.821 200.607 191.949 198.987 190.711C198.872 190.623 198.757 190.81 198.867 190.898C200.569 192.255 202.729 193.058 204.864 193.257C204.872 194.324 204.87 195.39 204.865 196.456C202.839 196.652 201.027 195.811 199.436 194.571C199.399 194.542 199.348 194.605 199.384 194.635C200.827 195.851 202.875 197.158 204.863 196.847C204.862 197.187 204.86 197.528 204.858 197.867C204.857 198.073 204.854 198.281 204.851 198.492C203.271 198.43 201.772 198.248 200.307 197.563C200.266 197.544 200.24 197.607 200.28 197.627C201.696 198.374 203.254 198.725 204.845 198.807C204.834 199.449 204.817 200.111 204.805 200.785C204.397 200.707 203.996 200.61 203.567 200.591C202.78 200.557 202.189 200.213 201.456 199.991C201.388 199.971 201.343 200.07 201.412 200.093C202.063 200.317 202.575 200.688 203.273 200.767C203.791 200.825 204.294 200.94 204.801 201.026C204.762 203.695 204.84 206.502 205.768 208.82C205.974 209.334 206.902 209.249 206.897 208.649C206.888 206.805 206.396 204.952 206.146 203.125Z"
        fill="#747DED"
      />
      <path
        d="M215.228 205.329L214.968 210.114L214.561 217.563L213.895 229.803H197.323L196.657 217.563L196.251 210.114L195.991 205.329H215.228Z"
        fill="#95A8B5"
      />
      <path
        d="M214.968 210.114L214.915 211.073L214.861 212.066L214.561 217.563H196.657L196.357 212.066L196.304 211.073L196.251 210.114H214.968Z"
        fill="#A5B7C6"
      />
      <path
        d="M214.915 211.073L214.861 212.066H196.357L196.304 211.073H214.915Z"
        fill="#95A8B5"
      />
      <defs>
        <radialGradient
          id="paint0_radial_636_25515"
          cx="0"
          cy="0"
          r="1"
          gradientUnits="userSpaceOnUse"
          gradientTransform="translate(155.411 107.732) scale(7.23828 7.23828)"
        >
          <stop stopColor="#FFC8AF" />
          <stop offset="1" stopColor="#FFBB9C" />
        </radialGradient>
        <radialGradient
          id="paint1_radial_636_25515"
          cx="0"
          cy="0"
          r="1"
          gradientUnits="userSpaceOnUse"
          gradientTransform="translate(151.223 94.6302) rotate(-12.1516) scale(11.4115 11.4115)"
        >
          <stop stopColor="#FFC8AF" />
          <stop offset="1" stopColor="#FFBB9C" />
        </radialGradient>
        <radialGradient
          id="paint2_radial_636_25515"
          cx="0"
          cy="0"
          r="1"
          gradientUnits="userSpaceOnUse"
          gradientTransform="translate(139.979 217.027) scale(4.5505 4.5505)"
        >
          <stop stopColor="#FFC8AF" />
          <stop offset="1" stopColor="#FFBB9C" />
        </radialGradient>
        <radialGradient
          id="paint3_radial_636_25515"
          cx="0"
          cy="0"
          r="1"
          gradientUnits="userSpaceOnUse"
          gradientTransform="translate(111.159 218.168) scale(4.14484 4.14484)"
        >
          <stop stopColor="#FFC8AF" />
          <stop offset="1" stopColor="#FFBB9C" />
        </radialGradient>
        <radialGradient
          id="paint4_radial_636_25515"
          cx="0"
          cy="0"
          r="1"
          gradientUnits="userSpaceOnUse"
          gradientTransform="translate(136.394 140.39) scale(23.2087 23.2087)"
        >
          <stop stopColor="#FFC8AF" />
          <stop offset="1" stopColor="#FFBB9C" />
        </radialGradient>
        <radialGradient
          id="paint5_radial_636_25515"
          cx="0"
          cy="0"
          r="1"
          gradientUnits="userSpaceOnUse"
          gradientTransform="translate(136.394 140.39) scale(23.2086 23.2086)"
        >
          <stop stopColor="#FFC8AF" />
          <stop offset="1" stopColor="#FFBB9C" />
        </radialGradient>
        <linearGradient
          id="paint6_linear_636_25515"
          x1="214.967"
          y1="167.313"
          x2="214.969"
          y2="202.761"
          gradientUnits="userSpaceOnUse"
        >
          <stop stopColor="#606BF1" />
          <stop offset="1" stopColor="#58479F" />
        </linearGradient>
        <linearGradient
          id="paint7_linear_636_25515"
          x1="186.85"
          y1="170.191"
          x2="201.813"
          y2="202.326"
          gradientUnits="userSpaceOnUse"
        >
          <stop stopColor="#606BF1" />
          <stop offset="1" stopColor="#58479F" />
        </linearGradient>
        <linearGradient
          id="paint8_linear_636_25515"
          x1="198.569"
          y1="159.667"
          x2="209.318"
          y2="202.199"
          gradientUnits="userSpaceOnUse"
        >
          <stop stopColor="#606BF1" />
          <stop offset="1" stopColor="#58479F" />
        </linearGradient>
      </defs>
    </svg>