<svg
      xmlns="http://www.w3.org/2000/svg"
      width="90"
      height="90"
      viewBox="0 0 90 90"
      fill="none"
    >
      <g clipPath="url(#clip0_2400_6612)">
        <path
          d="M45 90C69.8528 90 90 69.8528 90 45C90 20.1472 69.8528 0 45 0C20.1472 0 0 20.1472 0 45C0 69.8528 20.1472 90 45 90Z"
          fill="#2683FF"
        />
        <path
          d="M70.2478 53.3559C71.4279 54.0639 72.2858 55.204 72.6392 56.534C72.9925 57.8641 72.8137 59.2796 72.1406 60.48C70.695 63.0169 67.41 63.9169 64.8253 62.4994C64.5722 62.3616 64.3528 62.1984 64.1278 62.0353L50.2734 69.8653C50.3072 70.1184 50.3269 70.3744 50.3297 70.6303C50.3297 70.9313 50.3297 71.2041 50.2734 71.5022C49.8009 74.3709 47.0475 76.3341 44.1253 75.87C41.2059 75.4059 39.2034 72.7031 39.6759 69.84L25.7343 61.9538C25.5185 62.1085 25.2961 62.254 25.0678 62.3897C24.8428 62.4994 24.6206 62.6344 24.3703 62.7159C23.056 63.2426 21.5874 63.2317 20.281 62.6856C18.9747 62.1395 17.9353 61.1019 17.3868 59.7966C16.2759 57.0966 17.6118 54.0394 20.3653 52.9481V37.1756C20.1125 37.0942 19.8699 36.9837 19.6425 36.8466C19.4339 36.7171 19.2294 36.5811 19.0293 36.4388C18.2714 35.888 17.6752 35.1439 17.3032 34.284C16.9311 33.4241 16.7969 32.4801 16.9143 31.5506C17.0388 30.6189 17.4093 29.7372 17.9877 28.9962C18.566 28.2552 19.3314 27.6817 20.205 27.3347C21.0846 26.98 22.0415 26.8604 22.9814 26.9877C23.9213 27.1149 24.8119 27.4846 25.5656 28.0603L39.645 20.0644C39.6168 19.8197 39.5887 19.6031 39.5887 19.3556C39.5887 16.4644 42.0637 14.0625 45.014 14.0625C47.9615 14.0625 50.3803 16.4081 50.3831 19.3275C50.3831 19.575 50.355 19.7916 50.3268 20.0391L64.5159 28.0884C65.1326 27.6366 65.8374 27.3196 66.5847 27.1582C67.3319 26.9968 68.1048 26.9946 68.853 27.1516C69.6011 27.3087 70.3078 27.6216 70.9271 28.0698C71.5464 28.5181 72.0643 29.0918 72.4472 29.7534C73.89 32.2903 72.945 35.5106 70.3575 36.9309C70.1072 37.0378 69.8568 37.1756 69.6065 37.2572V53.0578C69.8287 53.1422 70.0453 53.2406 70.2478 53.3559ZM71.2237 59.9597C71.4985 59.5061 71.6799 59.0022 71.7572 58.4775C71.8345 57.9529 71.8062 57.418 71.6739 56.9045C71.5415 56.3909 71.3079 55.909 70.9867 55.487C70.6655 55.065 70.2632 54.7115 69.8034 54.4472C69.0459 54.0105 68.1693 53.8256 67.2999 53.9191C66.4305 54.0126 65.6133 54.3797 64.9659 54.9675L58.5928 51.3394C59.3555 49.7985 59.5277 48.0317 59.0769 46.3726C58.6261 44.7135 57.5835 43.2768 56.1459 42.3337C55.9669 41.7316 55.7334 41.147 55.4484 40.5872L65.0756 35.2378C66.0769 36.1659 67.4859 36.5456 68.8303 36.2503C69.3539 36.1373 69.8499 35.9213 70.2894 35.615C70.7289 35.3087 71.1032 34.9182 71.3905 34.466C71.6778 34.0138 71.8724 33.5091 71.9631 32.9811C72.0537 32.4531 72.0385 31.9124 71.9184 31.3903C71.4178 29.2078 69.1903 27.8719 66.9684 28.3612C66.4448 28.474 65.9488 28.6896 65.5092 28.9956C65.0696 29.3016 64.6951 29.6918 64.4076 30.1437C64.12 30.5956 63.9251 31.1001 63.8341 31.6279C63.7431 32.1557 63.7578 32.6964 63.8775 33.2184L54.1406 38.6494C52.2506 36.4387 46.2403 34.965 46.2403 34.965V22.9303C46.8416 22.7575 47.3904 22.4376 47.8373 21.9996C48.2841 21.5617 48.6148 21.0193 48.7997 20.4216C48.9446 19.9452 48.9932 19.4447 48.9426 18.9493C48.892 18.454 48.7432 17.9736 48.505 17.5364C48.2667 17.0991 47.9438 16.7137 47.5549 16.4027C47.1661 16.0916 46.7192 15.8611 46.2403 15.7247C44.2097 15.1256 42.0665 16.2169 41.4534 18.2109C41.3089 18.6871 41.2606 19.1874 41.3114 19.6824C41.3622 20.1775 41.5111 20.6574 41.7493 21.0944C41.9875 21.5313 42.3104 21.9164 42.699 22.2273C43.0876 22.5381 43.5342 22.7685 44.0128 22.905V35.1844C44.0128 35.1844 40.7334 36.2475 39.4537 37.2825C38.0944 37.3137 36.7609 37.6604 35.5584 38.295L26.4037 33.1369C26.558 32.4924 26.5471 31.8195 26.3721 31.1803C26.197 30.5412 25.8635 29.9566 25.4025 29.4806C24.6569 28.6946 23.6318 28.2338 22.5491 28.198C21.4663 28.1622 20.413 28.5543 19.6172 29.2894C19.2231 29.6469 18.9047 30.0798 18.6808 30.5625C18.4569 31.0452 18.3321 31.5679 18.3137 32.0997C18.2954 32.6314 18.3839 33.1615 18.5739 33.6585C18.764 34.1555 19.0518 34.6093 19.4203 34.9931C20.1663 35.7794 21.1919 36.2402 22.2751 36.276C23.3584 36.3118 24.4121 35.9196 25.2084 35.1844L33.4715 39.8222C32.0222 41.2318 31.129 43.1162 30.9555 45.1305C30.782 47.1448 31.3397 49.1542 32.5265 50.7909L25.2647 54.9113C24.7613 54.4526 24.1538 54.1235 23.4947 53.9525C22.8356 53.7815 22.1447 53.7736 21.4818 53.9297C20.9584 54.0464 20.4634 54.2658 20.0255 54.5754C19.5875 54.8849 19.2155 55.2783 18.9308 55.7328C18.6461 56.1873 18.4545 56.6937 18.3672 57.2228C18.2798 57.7519 18.2984 58.2931 18.4218 58.815C18.9534 60.9919 21.1809 62.3334 23.4 61.8131C23.9231 61.6964 24.4178 61.477 24.8556 61.1677C25.2933 60.8584 25.6652 60.4652 25.9498 60.0111C26.2345 59.5569 26.4261 59.0508 26.5137 58.522C26.6013 57.9932 26.583 57.4523 26.46 56.9306L34.2225 52.5375C36.2193 54.1209 38.8265 54.7509 41.3437 54.2559C42.12 54.6103 42.9187 54.9113 43.7343 55.1559V66.6197C43.1828 66.7906 42.6704 67.069 42.2268 67.4387C41.7832 67.8084 41.4172 68.2623 41.1497 68.7741C40.8968 69.2717 40.7459 69.8148 40.7058 70.3715C40.6657 70.9282 40.7372 71.4873 40.9162 72.016C41.0951 72.5447 41.3779 73.0323 41.7478 73.4502C42.1178 73.8681 42.5675 74.2079 43.0706 74.4497C43.2393 74.5341 43.4053 74.6128 43.5993 74.6691C43.6275 74.6691 43.6556 74.6972 43.6837 74.6972C45.9618 75.3778 48.3862 74.1488 49.0809 71.9128C49.2472 71.3787 49.3054 70.8168 49.2521 70.2599C49.1989 69.703 49.0353 69.1623 48.7709 68.6693C48.5065 68.1763 48.1465 67.7409 47.712 67.3886C47.2775 67.0362 46.7772 66.7738 46.2403 66.6169V55.3781C46.2403 55.3781 48.3272 55.1869 49.3003 54.8859C52.0143 55.9547 55.1194 55.3219 57.1753 53.2772L63.6834 57.0178C63.4835 57.8593 63.5628 58.7431 63.9093 59.5356C64.2558 60.3281 64.8508 60.9863 65.6043 61.4109C66.5456 61.947 67.6586 62.0956 68.7075 61.8252C69.7564 61.5549 70.6589 60.884 71.2237 59.9597ZM22.455 56.1403C23.0737 56.1431 23.6418 56.4637 23.9568 56.9841C24.0988 57.2449 24.1751 57.5365 24.179 57.8334C24.1738 58.286 23.9895 58.718 23.6663 59.0349C23.3431 59.3517 22.9075 59.5275 22.455 59.5238C22.0019 59.5282 21.5656 59.3528 21.2418 59.0359C20.9181 58.7189 20.7333 58.2865 20.7281 57.8334C20.7281 56.8969 21.5015 56.1403 22.455 56.1403ZM46.8253 19.3303C46.8179 19.7826 46.6324 20.2138 46.3091 20.5303C45.9858 20.8467 45.5508 21.0229 45.0984 21.0206C44.6458 21.0244 44.2103 20.8486 43.8871 20.5317C43.5639 20.2149 43.3795 19.7829 43.3743 19.3303C43.3743 18.3938 44.1478 17.6372 45.0984 17.6372C46.0547 17.6372 46.8253 18.3966 46.8253 19.3303ZM67.8572 34.0116C67.4054 34.0109 66.972 33.8333 66.6497 33.5168C66.3274 33.2003 66.1419 32.7701 66.1331 32.3184C66.1331 31.3847 66.9065 30.6253 67.8572 30.6253C68.8134 30.6253 69.584 31.3847 69.584 32.3184C69.5788 32.7715 69.3941 33.2039 69.0703 33.5209C68.7465 33.8378 68.3102 34.0133 67.8572 34.0088V34.0116ZM23.2593 30.7603C23.4549 30.8658 23.6271 31.0096 23.7658 31.1831C23.9046 31.3566 24.0069 31.5563 24.0667 31.7702C24.1266 31.9842 24.1427 32.208 24.1142 32.4283C24.0856 32.6486 24.013 32.8609 23.9006 33.0525C23.673 33.4447 23.2994 33.7308 22.8614 33.8483C22.4235 33.9659 21.9568 33.9052 21.5634 33.6797C21.3673 33.5748 21.1945 33.4313 21.0553 33.2579C20.9162 33.0844 20.8135 32.8846 20.7536 32.6704C20.6937 32.4563 20.6777 32.2322 20.7067 32.0117C20.7357 31.7913 20.809 31.5789 20.9222 31.3875C21.1498 30.9953 21.5234 30.7092 21.9613 30.5917C22.3993 30.4741 22.866 30.5348 23.2593 30.7603ZM68.5518 56.4666C68.747 56.5721 68.9189 56.7157 69.0574 56.889C69.1958 57.0623 69.298 57.2617 69.3579 57.4753C69.4177 57.6889 69.4339 57.9123 69.4056 58.1324C69.3773 58.3524 69.305 58.5644 69.1931 58.7559C69.0335 59.012 68.812 59.2238 68.5491 59.3717C68.2861 59.5197 67.9901 59.599 67.6884 59.6025C67.3849 59.6076 67.0853 59.5329 66.8198 59.3858C66.5542 59.2387 66.332 59.0244 66.1753 58.7644C66.0212 58.5063 65.9398 58.2113 65.9398 57.9108C65.9398 57.6102 66.0212 57.3153 66.1753 57.0572C66.332 56.7972 66.5542 56.5829 66.8198 56.4358C67.0853 56.2887 67.3849 56.214 67.6884 56.2191C67.9919 56.2288 68.2884 56.3156 68.5518 56.4666ZM43.3743 70.5712C43.3771 70.5499 43.387 70.53 43.4025 70.515C43.4784 70.0729 43.7249 69.6784 44.089 69.4164C44.453 69.1544 44.9054 69.0459 45.3487 69.1144C45.7921 69.1738 46.1937 69.4069 46.4653 69.7624C46.7369 70.1178 46.8563 70.5666 46.7972 71.01C46.7138 71.4199 46.4907 71.7881 46.166 72.0517C45.8413 72.3154 45.4351 72.4582 45.0168 72.4556C44.7832 72.4456 44.5541 72.3881 44.3434 72.2868C44.1327 72.1854 43.9448 72.0422 43.7911 71.866C43.6375 71.6897 43.5213 71.484 43.4497 71.2615C43.378 71.0389 43.3524 70.804 43.3743 70.5712ZM53.28 44.4572C54.1072 44.7115 54.8303 45.2261 55.3416 45.9244C55.8529 46.6227 56.1251 47.4674 56.1178 48.3328C56.1178 48.4706 56.0897 48.6084 56.0897 48.7434C56.0615 48.8531 56.0615 48.9628 56.0334 49.0697V49.1541C55.9772 49.3987 55.9209 49.6434 55.8084 49.8881C55.4998 50.6403 54.9665 51.2788 54.2812 51.7163C54.1125 51.8006 53.9718 51.8822 53.8087 51.9637L53.7243 51.9919C53.3983 52.1433 53.0513 52.2447 52.695 52.2928L52.5544 52.3181C52.3603 52.3181 52.1943 52.3462 52.0003 52.3462C51.0919 52.3462 50.2115 52.0481 49.4972 51.4997L48.7434 51.8259C48.5128 51.9384 48.2709 52.02 48.0206 52.0734H47.9925C46.2709 52.5342 44.4402 52.3492 42.8456 51.5531H42.8175C42.6515 51.4716 42.4856 51.39 42.345 51.3084L42.2887 51.2803C42.1228 51.1734 41.985 51.0638 41.8162 50.9541C41.1418 51.2497 40.4122 51.3983 39.6759 51.39C39.4509 51.39 39.2568 51.39 39.0628 51.3619L38.9503 51.3338L38.4497 51.255L38.3934 51.2269C38.215 51.1937 38.0392 51.1476 37.8675 51.0891C37.4189 50.9403 36.9894 50.7392 36.5878 50.49C35.7499 49.9716 35.0896 49.2103 34.695 48.3075C34.695 48.2513 34.6668 48.2231 34.6387 48.1697C34.606 48.0768 34.5685 47.9858 34.5262 47.8969C34.4931 47.8355 34.4649 47.7715 34.4418 47.7056C34.4137 47.6241 34.3603 47.5425 34.3603 47.4609C34.3548 47.3769 34.3358 47.2943 34.304 47.2163C34.2759 47.1319 34.2759 47.1037 34.2478 46.9969C34.2197 46.8872 34.2197 46.7803 34.1943 46.6706C34.1943 46.5863 34.1662 46.5328 34.1662 46.4794C34.1429 46.307 34.1335 46.133 34.1381 45.9591C34.1348 45.7496 34.1442 45.5402 34.1662 45.3319C34.1662 45.2503 34.1943 45.1969 34.1943 45.1406C34.2225 44.9775 34.2506 44.8425 34.2787 44.7047C34.3068 44.6484 34.3068 44.5697 34.335 44.5134C34.3682 44.3644 34.4143 44.2186 34.4728 44.0775C34.5009 44.0212 34.5009 43.9959 34.529 43.9425C34.5904 43.773 34.6646 43.6084 34.7512 43.4503L34.7793 43.3941C35.2361 42.5568 35.9005 41.851 36.7088 41.3447C37.5171 40.8384 38.442 40.5484 39.3947 40.5028C39.479 40.4747 39.5634 40.4747 39.6759 40.4747C40.0106 40.4747 40.3453 40.5028 40.6772 40.5591C40.8178 40.3903 40.9556 40.2553 41.1215 40.0922L41.2622 39.9572C41.4281 39.8194 41.5659 39.6844 41.7347 39.5747L41.819 39.5184C41.9287 39.4369 42.1228 39.3019 42.2072 39.2456C42.2915 39.1922 42.4293 39.0825 42.5137 39.0544C42.6115 39.0205 42.705 38.9752 42.7922 38.9194C42.9581 38.835 43.2365 38.7 43.4025 38.6466L43.5431 38.5369C44.6572 38.104 45.8637 37.9636 47.0475 38.1291H47.0756C47.3006 38.1516 47.5228 38.1853 47.7422 38.2359H47.7703C47.9953 38.2641 48.1893 38.3484 48.4115 38.4019L48.4397 38.43C48.6618 38.5087 48.8559 38.5903 49.05 38.6747L49.1062 38.7028C49.2975 38.7816 49.4831 38.8716 49.6631 38.9728L49.6912 39.0009C49.8572 39.0853 50.0512 39.2203 50.22 39.3272L50.2481 39.3553C50.4422 39.465 50.6081 39.6 50.774 39.7378L50.8022 39.7659C51.7325 40.5478 52.4503 41.552 52.889 42.6853V42.7134C52.9453 42.8766 53.0015 43.0678 53.0578 43.2309C53.0578 43.2872 53.0859 43.3406 53.0859 43.3941C53.1309 43.5347 53.1703 43.6837 53.1956 43.83L53.28 44.4572Z"
          fill="white"
        />
      </g>
      <defs>
        <clipPath id="clip0_2400_6612">
          <rect width="90" height="90" fill="white" />
        </clipPath>
      </defs>
    </svg>