<svg width="48" height="48" viewBox="0 0 48 48" fill="none" xmlns="http://www.w3.org/2000/svg">
<g clip-path="url(#clip0_1277_5071)">
<path d="M24 48C37.2548 48 48 37.2548 48 24C48 10.7452 37.2548 0 24 0C10.7452 0 0 10.7452 0 24C0 37.2548 10.7452 48 24 48Z" fill="#2683FF"/>
<path d="M37.4646 28.4565C38.0943 28.8338 38.552 29.4418 38.7405 30.1513C38.9291 30.8608 38.8335 31.6159 38.4741 32.256C37.7031 33.609 35.9511 34.089 34.5726 33.333C34.4376 33.2595 34.3206 33.1725 34.2006 33.0855L26.8116 37.2615C26.8296 37.3965 26.8396 37.5325 26.8416 37.6695C26.8416 37.83 26.8416 37.9755 26.8116 38.1345C26.5596 39.6645 25.0911 40.7115 23.5326 40.464C21.9741 40.2165 20.9076 38.775 21.1596 37.248L13.7241 33.042C13.6093 33.1251 13.4907 33.2026 13.3686 33.2745C13.2486 33.333 13.1301 33.405 12.9966 33.4485C12.2956 33.729 11.5125 33.723 10.8159 33.4318C10.1193 33.1406 9.56488 32.5874 9.27207 31.8915C8.67957 30.4515 9.39207 28.821 10.8606 28.239V19.827C10.7256 19.7839 10.5962 19.725 10.4751 19.6515C10.3637 19.5826 10.2547 19.51 10.1481 19.434C9.74383 19.1403 9.42588 18.7434 9.22746 18.2848C9.02903 17.8262 8.95741 17.3227 9.02007 16.827C9.08632 16.33 9.28385 15.8597 9.59233 15.4645C9.90081 15.0693 10.3091 14.7634 10.7751 14.5785C11.2441 14.3889 11.7545 14.3249 12.2559 14.3927C12.7573 14.4606 13.2323 14.658 13.6341 14.9655L21.1431 10.701C21.1281 10.5705 21.1131 10.455 21.1131 10.323C21.1131 8.781 22.4331 7.5 24.0066 7.5C25.5801 7.5 26.8686 8.751 26.8701 10.308C26.8701 10.44 26.8551 10.5555 26.8401 10.6875L34.4076 14.9805C34.7365 14.7395 35.1124 14.5705 35.5109 14.4844C35.9095 14.3983 36.3216 14.3971 36.7207 14.4809C37.1197 14.5646 37.4966 14.7315 37.8269 14.9706C38.1571 15.2097 38.4334 15.5156 38.6376 15.8685C39.4071 17.2215 38.9031 18.939 37.5231 19.6965C37.3896 19.7535 37.2561 19.827 37.1226 19.8705V28.2975C37.2416 28.3425 37.3566 28.3955 37.4646 28.4565ZM37.9851 31.9785C38.1316 31.7366 38.2284 31.4678 38.2696 31.188C38.3108 30.9082 38.2957 30.623 38.2252 30.3491C38.1546 30.0752 38.03 29.8181 37.8587 29.5931C37.6874 29.368 37.4728 29.1795 37.2276 29.0385C36.8234 28.8061 36.356 28.7077 35.8924 28.7576C35.4289 28.8074 34.9931 29.0029 34.6476 29.316L31.2486 27.381C31.656 26.5593 31.7482 25.6168 31.5078 24.7318C31.2673 23.8467 30.7108 23.0805 29.9436 22.578C29.8479 22.2569 29.7234 21.9451 29.5716 21.6465L34.7061 18.7935C35.2401 19.2885 35.9916 19.491 36.7086 19.3335C36.9877 19.2728 37.2519 19.1575 37.4861 18.994C37.7203 18.8305 37.9198 18.6222 38.073 18.3812C38.2261 18.1401 38.33 17.8711 38.3785 17.5896C38.427 17.3082 38.4192 17.0199 38.3556 16.7415C38.0886 15.5775 36.9006 14.865 35.7156 15.126C35.4365 15.1865 35.1722 15.3017 34.938 15.465C34.7037 15.6283 34.5042 15.8364 34.3509 16.0773C34.1976 16.3182 34.0935 16.5871 34.0448 16.8685C33.9961 17.1499 34.0037 17.4381 34.0671 17.7165L28.8741 20.613C27.8661 19.434 24.6606 18.648 24.6606 18.648V12.2295C24.9813 12.1373 25.274 11.9667 25.5123 11.7331C25.7506 11.4995 25.927 11.2103 26.0256 10.8915C26.1029 10.6374 26.1288 10.3705 26.1018 10.1063C26.0748 9.84211 25.9955 9.58593 25.8684 9.35274C25.7413 9.11954 25.5691 8.91399 25.3617 8.74809C25.1543 8.5822 24.916 8.45927 24.6606 8.3865C23.5776 8.067 22.4346 8.649 22.1076 9.7125C22.0305 9.96648 22.0048 10.2333 22.0319 10.4973C22.0589 10.7613 22.1383 11.0173 22.2654 11.2503C22.3924 11.4834 22.5646 11.6888 22.7719 11.8545C22.9791 12.0203 23.2173 12.1432 23.4726 12.216V18.765C23.4726 18.765 21.7236 19.332 21.0411 19.884C20.3159 19.8995 19.6045 20.0844 18.9636 20.424L14.0811 17.673C14.1633 17.3293 14.1575 16.9704 14.0642 16.6295C13.9708 16.2886 13.793 15.9768 13.5471 15.723C13.1495 15.3038 12.6027 15.058 12.0253 15.0389C11.4478 15.0198 10.886 15.2289 10.4616 15.621C10.2514 15.8117 10.0816 16.0426 9.96217 16.3C9.84277 16.5574 9.77621 16.8362 9.76642 17.1198C9.75663 17.4034 9.80381 17.6861 9.90518 17.9512C10.0065 18.2162 10.16 18.4583 10.3566 18.663C10.7544 19.0823 11.3014 19.3281 11.8792 19.3472C12.4569 19.3663 13.0189 19.1571 13.4436 18.765L17.8506 21.2385C17.0773 21.9901 16.6008 22.9952 16.5082 24.0696C16.4156 25.1439 16.7133 26.2157 17.3466 27.0885L13.4736 29.286C13.2051 29.0414 12.8811 28.8659 12.5296 28.7747C12.1781 28.6835 11.8096 28.6793 11.4561 28.7625C11.1769 28.8247 10.9129 28.9418 10.6793 29.1069C10.4458 29.2719 10.2473 29.4818 10.0955 29.7242C9.94369 29.9665 9.84151 30.2367 9.79492 30.5189C9.74832 30.801 9.75823 31.0897 9.82407 31.368C10.1076 32.529 11.2956 33.2445 12.4791 32.967C12.7581 32.9048 13.0219 32.7878 13.2554 32.6228C13.4888 32.4578 13.6872 32.2481 13.839 32.0059C13.9908 31.7637 14.093 31.4937 14.1397 31.2117C14.1864 30.9297 14.1767 30.6412 14.1111 30.363L18.2511 28.02C19.3161 28.8645 20.7066 29.2005 22.0491 28.9365C22.4631 29.1265 22.8881 29.2865 23.3241 29.4165V35.5305C23.03 35.6219 22.7569 35.7704 22.5203 35.9676C22.2837 36.1648 22.0884 36.4067 21.9456 36.6795C21.8107 36.9449 21.7302 37.2345 21.7088 37.5314C21.6875 37.8284 21.7256 38.1266 21.821 38.4085C21.9165 38.6905 22.0673 38.9506 22.2646 39.1734C22.4619 39.3963 22.7018 39.5776 22.9701 39.7065C23.0601 39.7515 23.1486 39.7935 23.2521 39.8235C23.2671 39.8235 23.2821 39.8385 23.2971 39.8385C24.5121 40.2015 25.8051 39.546 26.1756 38.3535C26.2638 38.0686 26.2945 37.769 26.266 37.4722C26.2374 37.1753 26.1501 36.8871 26.0091 36.6242C25.8681 36.3614 25.6763 36.1292 25.4448 35.9412C25.2133 35.7532 24.9467 35.6131 24.6606 35.529V29.535C24.6606 29.535 25.7736 29.433 26.2926 29.2725C27.7401 29.8425 29.3961 29.505 30.4926 28.4145L33.9636 30.4095C33.8577 30.8583 33.9004 31.3294 34.0851 31.7519C34.2698 32.1743 34.5867 32.5255 34.9881 32.7525C35.4899 33.0392 36.0837 33.1189 36.6434 32.9746C37.203 32.8303 37.6844 32.472 37.9851 31.9785ZM11.9751 29.9415C12.3051 29.943 12.6081 30.114 12.7761 30.3915C12.8518 30.5306 12.8925 30.6861 12.8946 30.8445C12.891 31.0856 12.7924 31.3156 12.6202 31.4844C12.4481 31.6532 12.2162 31.7472 11.9751 31.746C11.7337 31.7476 11.5014 31.6538 11.3289 31.4849C11.1564 31.3161 11.0576 31.0859 11.0541 30.8445C11.0541 30.345 11.4666 29.9415 11.9751 29.9415ZM24.9726 10.3095C24.969 10.5509 24.8702 10.7811 24.6977 10.9499C24.5252 11.1188 24.293 11.2126 24.0516 11.211C23.8104 11.2122 23.5786 11.1182 23.4064 10.9494C23.2342 10.7806 23.1356 10.5506 23.1321 10.3095C23.1321 9.81 23.5446 9.4065 24.0516 9.4065C24.5616 9.4065 24.9726 9.8115 24.9726 10.3095ZM36.1896 18.1395C35.9487 18.1392 35.7175 18.0444 35.5456 17.8756C35.3737 17.7068 35.2748 17.4774 35.2701 17.2365C35.2701 16.7385 35.6826 16.3335 36.1896 16.3335C36.6996 16.3335 37.1106 16.7385 37.1106 17.2365C37.107 17.4779 37.0082 17.7081 36.8357 17.8769C36.6632 18.0458 36.431 18.1396 36.1896 18.138V18.1395ZM12.4041 16.4055C12.508 16.4621 12.5996 16.5389 12.6734 16.6315C12.7471 16.7241 12.8015 16.8305 12.8334 16.9445C12.8653 17.0585 12.874 17.1777 12.859 17.2951C12.844 17.4125 12.8056 17.5257 12.7461 17.628C12.6247 17.8372 12.4254 17.9898 12.1918 18.0525C11.9583 18.1151 11.7094 18.0828 11.4996 17.9625C11.395 17.9066 11.3028 17.83 11.2286 17.7375C11.1544 17.645 11.0996 17.5385 11.0677 17.4242C11.0357 17.31 11.0272 17.1905 11.0427 17.0729C11.0581 16.9553 11.0972 16.8421 11.1576 16.74C11.279 16.5308 11.4782 16.3782 11.7118 16.3155C11.9454 16.2529 12.1943 16.2852 12.4041 16.4055ZM36.5601 30.1155C36.6638 30.1721 36.7552 30.2488 36.8288 30.3413C36.9025 30.4338 36.9568 30.54 36.9887 30.6538C37.0206 30.7677 37.0293 30.8867 37.0144 31.0039C36.9996 31.1212 36.9614 31.2343 36.9021 31.3365C36.8169 31.473 36.6987 31.5858 36.5585 31.6647C36.4183 31.7436 36.2605 31.786 36.0996 31.788C35.9378 31.7901 35.7783 31.75 35.6367 31.6716C35.4952 31.5932 35.3766 31.4793 35.2926 31.341C35.2101 31.2035 35.1665 31.0461 35.1665 30.8857C35.1665 30.7254 35.2101 30.568 35.2926 30.4305C35.3766 30.2922 35.4952 30.1783 35.6367 30.0999C35.7783 30.0215 35.9378 29.9814 36.0996 29.9835C36.2614 29.9887 36.4196 30.035 36.5601 30.1155ZM23.1321 37.638C23.133 37.6264 23.1384 37.6157 23.1471 37.608C23.1883 37.3726 23.3199 37.1627 23.5139 37.0231C23.7079 36.8835 23.9488 36.8253 24.1851 36.861C24.4215 36.8927 24.6357 37.017 24.7806 37.2066C24.9255 37.3962 24.9891 37.6355 24.9576 37.872C24.9136 38.0909 24.7948 38.2876 24.6215 38.4283C24.4482 38.569 24.2313 38.6449 24.0081 38.643C23.8835 38.6376 23.7613 38.607 23.6489 38.553C23.5365 38.4989 23.4363 38.4225 23.3544 38.3285C23.2724 38.2345 23.2105 38.1248 23.1722 38.0061C23.134 37.8874 23.1204 37.7622 23.1321 37.638ZM28.4151 23.7105C28.8561 23.8464 29.2416 24.1209 29.5143 24.4932C29.787 24.8656 29.9322 25.316 29.9286 25.7775C29.9286 25.851 29.9136 25.9245 29.9136 25.9965C29.8986 26.055 29.8986 26.1135 29.8836 26.1705V26.2155C29.8536 26.346 29.8236 26.4765 29.7636 26.607C29.5993 27.0083 29.3147 27.3489 28.9491 27.582C28.8591 27.627 28.7841 27.6705 28.6971 27.714L28.6521 27.729C28.478 27.8092 28.293 27.8633 28.1031 27.8895L28.0281 27.903C27.9246 27.903 27.8361 27.918 27.7326 27.918C27.2481 27.918 26.7786 27.759 26.3976 27.4665L25.9956 27.6405C25.8726 27.7005 25.7441 27.7445 25.6101 27.7725H25.5951C24.6768 28.0176 23.7007 27.9189 22.8501 27.495H22.8351C22.7466 27.4515 22.6581 27.408 22.5831 27.3645L22.5531 27.3495C22.4646 27.2925 22.3911 27.234 22.3011 27.1755C21.942 27.3351 21.5525 27.4145 21.1596 27.408C21.0396 27.408 20.9361 27.408 20.8326 27.393L20.7726 27.378L20.5056 27.336L20.4756 27.321C20.3804 27.3035 20.2866 27.2789 20.1951 27.2475C19.955 27.1701 19.7257 27.0628 19.5126 26.928C19.066 26.6511 18.714 26.2453 18.5031 25.764C18.5031 25.734 18.4881 25.719 18.4731 25.6905C18.4556 25.641 18.4356 25.5924 18.4131 25.545L18.3681 25.443C18.3531 25.3995 18.3246 25.356 18.3246 25.3125C18.3211 25.2677 18.311 25.2238 18.2946 25.182C18.2796 25.137 18.2796 25.122 18.2646 25.065C18.2496 25.0065 18.2496 24.9495 18.2361 24.891C18.2361 24.846 18.2211 24.8175 18.2211 24.789C18.2075 24.6972 18.2025 24.6043 18.2061 24.5115C18.2048 24.3998 18.2098 24.2881 18.2211 24.177C18.2211 24.1335 18.2361 24.105 18.2361 24.075C18.2511 23.988 18.2661 23.916 18.2811 23.8425C18.2961 23.8125 18.2961 23.7705 18.3111 23.7405C18.3292 23.6611 18.3538 23.5834 18.3846 23.508C18.3996 23.478 18.3996 23.4645 18.4146 23.436C18.4456 23.3449 18.4852 23.257 18.5331 23.1735L18.5481 23.1435C18.792 22.6972 19.1465 22.3211 19.5775 22.0511C20.0085 21.7811 20.5016 21.6263 21.0096 21.6015C21.0546 21.5865 21.0996 21.5865 21.1596 21.5865C21.3386 21.5865 21.5166 21.6015 21.6936 21.6315C21.7686 21.5415 21.8421 21.4695 21.9306 21.3825L22.0056 21.3105C22.0941 21.237 22.1676 21.165 22.2576 21.1065L22.3026 21.0765C22.3611 21.033 22.4646 20.961 22.5096 20.931C22.5546 20.9025 22.6281 20.844 22.6731 20.829C22.7251 20.8105 22.7749 20.7864 22.8216 20.757C22.9101 20.712 23.0586 20.64 23.1471 20.6115L23.2221 20.553C23.8165 20.3228 24.4597 20.248 25.0911 20.3355H25.1061C25.2261 20.3465 25.3446 20.3655 25.4616 20.3925H25.4766C25.5966 20.4075 25.7001 20.4525 25.8186 20.481L25.8336 20.496C25.9521 20.538 26.0556 20.5815 26.1591 20.6265L26.1891 20.6415C26.2911 20.6835 26.3901 20.7315 26.4861 20.7855L26.5011 20.8005C26.5896 20.8455 26.6931 20.9175 26.7831 20.9745L26.7981 20.9895C26.9016 21.048 26.9901 21.12 27.0786 21.1935L27.0936 21.2085C27.5881 21.627 27.9707 22.1621 28.2066 22.7655V22.7805C28.2366 22.8675 28.2666 22.9695 28.2966 23.0565C28.2966 23.0865 28.3116 23.115 28.3116 23.1435C28.3366 23.2195 28.3561 23.297 28.3701 23.376L28.4151 23.7105Z" fill="white"/>
</g>
<defs>
<clipPath id="clip0_1277_5071">
<rect width="48" height="48" fill="white"/>
</clipPath>
</defs>
</svg>
