<svg width="50" height="50" viewBox="0 0 50 50" fill="none" xmlns="http://www.w3.org/2000/svg">
<path d="M12.3222 22.6372C11.7534 22.0696 10.9821 21.7508 10.1778 21.7508C9.37357 21.7508 8.60224 22.0696 8.03344 22.6372L5.88837 24.7777C5.31956 25.3455 5 26.1157 5 26.9187C5 27.7217 5.31956 28.4918 5.88837 29.0596C6.45719 29.6274 7.22867 29.9464 8.03309 29.9464C8.83752 29.9464 9.609 29.6274 10.1778 29.0596L11.25 27.9893" stroke="black" stroke-width="1.5" stroke-linecap="round" stroke-linejoin="round"/>
<path d="M10.1797 24.7785C10.7485 25.3461 11.5198 25.6649 12.3241 25.6649C13.1283 25.6649 13.8996 25.3461 14.4684 24.7785L16.6135 22.6379C17.1823 22.0701 17.5019 21.3 17.5019 20.497C17.5019 19.694 17.1823 18.9239 16.6135 18.3561C16.0447 17.7883 15.2732 17.4693 14.4688 17.4693C13.6644 17.4693 12.8929 17.7883 12.3241 18.3561L11.2519 19.4264" stroke="black" stroke-width="1.5" stroke-linecap="round" stroke-linejoin="round"/>
<path d="M41.8458 22.6372C42.4146 22.0696 43.1859 21.7508 43.9902 21.7508C44.7944 21.7508 45.5657 22.0696 46.1345 22.6372L48.2796 24.7777C48.8484 25.3455 49.168 26.1157 49.168 26.9187C49.168 27.7217 48.8484 28.4918 48.2796 29.0596C47.7108 29.6274 46.9393 29.9464 46.1349 29.9464C45.3305 29.9464 44.559 29.6274 43.9902 29.0596L42.918 27.9893" stroke="black" stroke-width="1.5" stroke-linecap="round" stroke-linejoin="round"/>
<path d="M43.9883 24.7785C43.4195 25.3461 42.6482 25.6649 41.8439 25.6649C41.0397 25.6649 40.2683 25.3461 39.6995 24.7785L37.5545 22.6379C36.9857 22.0701 36.6661 21.3 36.6661 20.497C36.6661 19.694 36.9857 18.9239 37.5545 18.3561C38.1233 17.7883 38.8948 17.4693 39.6992 17.4693C40.5036 17.4693 41.2751 17.7883 41.8439 18.3561L42.9161 19.4264" stroke="black" stroke-width="1.5" stroke-linecap="round" stroke-linejoin="round"/>
<path d="M25.5675 41.1803C25.5677 40.3775 25.8872 39.6076 26.4559 39.0399C27.0246 38.4722 27.7959 38.1532 28.6001 38.1531L31.6332 38.1526C32.4376 38.1526 33.2091 38.4716 33.7779 39.0394C34.3467 39.6072 34.6663 40.3773 34.6663 41.1803C34.6663 41.9833 34.3467 42.7534 33.7779 43.3212C33.2091 43.889 32.4376 44.208 31.6332 44.208L30.1169 44.208" stroke="black" stroke-width="1.5" stroke-linecap="round" stroke-linejoin="round"/>
<path d="M28.6033 41.1803C28.6032 41.9832 28.2836 42.753 27.7149 43.3207C27.1462 43.8884 26.375 44.2074 25.5707 44.2076L22.5377 44.2081C21.7332 44.2081 20.9617 43.8891 20.3929 43.3213C19.8241 42.7535 19.5046 41.9833 19.5046 41.1803C19.5046 40.3773 19.8241 39.6072 20.3929 39.0394C20.9618 38.4716 21.7332 38.1526 22.5377 38.1526L24.054 38.1526" stroke="black" stroke-width="1.5" stroke-linecap="round" stroke-linejoin="round"/>
<path d="M26.6646 5.78353C25.896 5.78353 25.1589 6.08832 24.6154 6.63084C24.0719 7.17336 23.7666 7.90918 23.7666 8.67642C23.7666 9.44367 24.0719 10.1795 24.6154 10.722C25.1589 11.2645 25.896 11.5693 26.6646 11.5693C27.4332 11.5693 28.1704 11.2645 28.7138 10.722C29.2573 10.1795 29.5627 9.44367 29.5627 8.67642C29.5627 7.90918 29.2573 7.17336 28.7138 6.63084C28.1704 6.08832 27.4332 5.78353 26.6646 5.78353ZM25.2156 8.67642C25.2156 8.2928 25.3683 7.92489 25.64 7.65363C25.9118 7.38237 26.2803 7.22998 26.6646 7.22998C27.0489 7.22998 27.4175 7.38237 27.6892 7.65363C27.961 7.92489 28.1137 8.2928 28.1137 8.67642C28.1137 9.06005 27.961 9.42795 27.6892 9.69921C27.4175 9.97048 27.0489 10.1229 26.6646 10.1229C26.2803 10.1229 25.9118 9.97048 25.64 9.69921C25.3683 9.42795 25.2156 9.06005 25.2156 8.67642ZM30.4581 3.46633C30.191 3.51454 29.9156 3.45539 29.6919 3.30177C29.4683 3.14814 29.3145 2.9125 29.2642 2.64619L28.8874 0.598024C28.8697 0.497968 28.8222 0.405557 28.7511 0.332809C28.6801 0.260062 28.5887 0.210345 28.4889 0.190127C27.2855 -0.0633756 26.0423 -0.0633756 24.8389 0.190127C24.7391 0.210345 24.6478 0.260062 24.5767 0.332809C24.5056 0.405557 24.4581 0.497968 24.4404 0.598024L24.0651 2.64619C24.0377 2.79207 23.979 2.93028 23.8929 3.05131C23.8068 3.17234 23.6955 3.27332 23.5666 3.34728C23.4377 3.42124 23.2943 3.46643 23.1462 3.47974C22.9981 3.49305 22.8489 3.47417 22.7088 3.42438L20.7396 2.7243C20.644 2.69109 20.5407 2.6864 20.4424 2.7108C20.3441 2.7352 20.2551 2.78764 20.1861 2.86171C19.3611 3.76883 18.7379 4.84003 18.3575 6.00484C18.3257 6.10114 18.3236 6.20474 18.3515 6.30222C18.3794 6.3997 18.436 6.48658 18.514 6.5516L20.1108 7.89824C20.1542 7.93391 20.1934 7.97297 20.2281 8.0154C20.3154 8.11743 20.3817 8.23569 20.423 8.36336C20.4644 8.49104 20.4801 8.62562 20.4692 8.75936C20.4583 8.89311 20.421 9.02338 20.3595 9.1427C20.298 9.26201 20.2135 9.36802 20.1108 9.45461L18.514 10.8013C18.436 10.8663 18.3794 10.9531 18.3515 11.0506C18.3236 11.1481 18.3257 11.2517 18.3575 11.348C18.7384 12.5129 19.3621 13.5842 20.1876 14.4911C20.2565 14.5652 20.3456 14.6176 20.4438 14.642C20.5421 14.6665 20.6454 14.6618 20.7411 14.6285L22.7117 13.9285C22.8518 13.8782 23.0011 13.8589 23.1494 13.872C23.2976 13.885 23.4413 13.9302 23.5703 14.0042C23.6993 14.0782 23.8107 14.1794 23.8966 14.3007C23.9826 14.422 24.0411 14.5605 24.068 14.7067L24.4419 16.7548C24.4795 16.9573 24.6375 17.1193 24.8403 17.1613C26.0442 17.415 27.2879 17.415 28.4918 17.1613C28.5911 17.1409 28.682 17.0913 28.7528 17.0188C28.8236 16.9464 28.871 16.8544 28.8889 16.7548L29.2656 14.7067C29.293 14.5608 29.3518 14.4226 29.4378 14.3015C29.5239 14.1805 29.6352 14.0795 29.7641 14.0056C29.893 13.9316 30.0364 13.8864 30.1845 13.8731C30.3326 13.8598 30.4818 13.8787 30.6219 13.9285L32.5911 14.6285C32.7867 14.698 33.0055 14.643 33.1446 14.4911C33.9696 13.584 34.5928 12.5128 34.9733 11.348C35.005 11.2517 35.0071 11.1481 34.9792 11.0506C34.9513 10.9531 34.8947 10.8663 34.8168 10.8013L33.22 9.45461C33.1063 9.35916 33.0149 9.24005 32.9522 9.10563C32.8895 8.9712 32.857 8.82471 32.857 8.67642C32.857 8.52814 32.8895 8.38165 32.9522 8.24722C33.0149 8.1128 33.1063 7.99368 33.22 7.89824L34.8168 6.5516C34.8947 6.48658 34.9513 6.3997 34.9792 6.30222C35.0071 6.20474 35.005 6.10114 34.9733 6.00484C34.5919 4.83978 33.9677 3.76856 33.1417 2.86171C33.0728 2.78764 32.9837 2.7352 32.8854 2.7108C32.7871 2.6864 32.6839 2.69109 32.5882 2.7243L30.6175 3.42438C30.5648 3.44191 30.5111 3.4564 30.4567 3.46777M20.8643 4.30671L22.222 4.78838C22.5598 4.90844 22.9197 4.95386 23.2769 4.92152C23.634 4.88918 23.9799 4.77984 24.2905 4.60105C24.6012 4.42227 24.8693 4.17829 25.0763 3.88599C25.2833 3.59368 25.4243 3.26 25.4895 2.908L25.746 1.50495C26.3545 1.42748 26.9704 1.42748 27.579 1.50495L27.8369 2.908C27.9016 3.26024 28.0423 3.59422 28.2492 3.8868C28.4561 4.17937 28.7243 4.42355 29.0351 4.60241C29.3459 4.78128 29.6919 4.89055 30.0492 4.92266C30.4066 4.95477 30.7666 4.90895 31.1044 4.78838L32.4607 4.30382C32.8316 4.78886 33.1359 5.31151 33.3736 5.87177L32.281 6.79315C32.0065 7.02452 31.7858 7.3129 31.6345 7.63818C31.4832 7.96345 31.4048 8.31778 31.4048 8.67642C31.4048 9.03507 31.4832 9.38939 31.6345 9.71467C31.7858 10.0399 32.0065 10.3283 32.281 10.5597L33.375 11.4811C33.1378 12.0399 32.8311 12.5667 32.4621 13.049L31.1044 12.5659C30.7666 12.4459 30.4067 12.4004 30.0495 12.4328C29.6924 12.4651 29.3465 12.5745 29.0359 12.7532C28.7252 12.932 28.4571 13.176 28.2501 13.4683C28.0431 13.7606 27.9021 14.0943 27.8369 14.4463L27.579 15.8493C26.9704 15.9268 26.3545 15.9268 25.746 15.8493L25.4895 14.4463C25.4247 14.0941 25.284 13.7601 25.0772 13.4675C24.8703 13.1749 24.6021 12.9307 24.2913 12.7519C23.9805 12.573 23.6345 12.4637 23.2771 12.4316C22.9198 12.3995 22.5598 12.4453 22.222 12.5659L20.8686 13.049C20.4996 12.5667 20.1929 12.0399 19.9557 11.4811L21.0483 10.5582C21.3225 10.3269 21.543 10.0386 21.6942 9.71344C21.8453 9.3883 21.9237 9.03416 21.9237 8.6757C21.9237 8.31724 21.8453 7.9631 21.6942 7.63796C21.543 7.31283 21.3225 7.02452 21.0483 6.79315L19.9543 5.87177C20.1938 5.31151 20.4981 4.78886 20.8671 4.30382" fill="black"/>
<path d="M4.99957 38.4082C4.5384 38.4082 4.09613 38.591 3.77004 38.9166C3.44395 39.2421 3.26075 39.6836 3.26075 40.1439C3.26075 40.6042 3.44395 41.0457 3.77004 41.3713C4.09613 41.6968 4.5384 41.8796 4.99957 41.8796C5.46073 41.8796 5.903 41.6968 6.22909 41.3713C6.55518 41.0457 6.73838 40.6042 6.73838 40.1439C6.73838 39.6836 6.55518 39.2421 6.22909 38.9166C5.903 38.591 5.46073 38.4082 4.99957 38.4082ZM4.13016 40.1439C4.13016 39.9137 4.22176 39.693 4.3848 39.5302C4.54785 39.3675 4.76898 39.276 4.99957 39.276C5.23015 39.276 5.45128 39.3675 5.61433 39.5302C5.77737 39.693 5.86897 39.9137 5.86897 40.1439C5.86897 40.3741 5.77737 40.5948 5.61433 40.7576C5.45128 40.9203 5.23015 41.0118 4.99957 41.0118C4.76898 41.0118 4.54785 40.9203 4.3848 40.7576C4.22176 40.5948 4.13016 40.3741 4.13016 40.1439ZM7.27567 37.0178C7.11538 37.0468 6.95013 37.0113 6.81593 36.9191C6.68174 36.8269 6.58949 36.6855 6.55928 36.5258L6.33323 35.2969C6.32259 35.2368 6.29409 35.1814 6.25145 35.1377C6.20881 35.0941 6.154 35.0643 6.09415 35.0521C5.37209 34.9 4.62617 34.9 3.90411 35.0521C3.84426 35.0643 3.78945 35.0941 3.74681 35.1377C3.70417 35.1814 3.67567 35.2368 3.66503 35.2969L3.43985 36.5258C3.42341 36.6133 3.38816 36.6962 3.33652 36.7688C3.28489 36.8415 3.2181 36.902 3.14076 36.9464C3.06341 36.9908 2.97735 37.0179 2.8885 37.0259C2.79965 37.0339 2.71013 37.0225 2.62609 36.9927L1.44456 36.5726C1.38716 36.5527 1.32519 36.5499 1.26622 36.5645C1.20724 36.5792 1.15381 36.6106 1.11245 36.6551C0.617469 37.1993 0.243539 37.8421 0.0152591 38.541C-0.00379591 38.5987 -0.00503302 38.6609 0.011708 38.7194C0.028449 38.7779 0.0623969 38.83 0.109155 38.869L1.06724 39.677C1.09332 39.6984 1.1168 39.7218 1.13766 39.7473C1.19004 39.8085 1.22979 39.8795 1.25461 39.9561C1.27943 40.0327 1.28884 40.1134 1.2823 40.1937C1.27575 40.2739 1.25338 40.3521 1.21648 40.4237C1.17957 40.4953 1.12885 40.5589 1.06724 40.6108L0.109155 41.4188C0.0623969 41.4578 0.028449 41.5099 0.011708 41.5684C-0.00503302 41.6269 -0.00379591 41.6891 0.0152591 41.7469C0.243797 42.4458 0.618027 43.0885 1.11332 43.6327C1.15468 43.6772 1.20811 43.7086 1.26709 43.7233C1.32606 43.7379 1.38803 43.7351 1.44543 43.7152L2.62782 43.2951C2.71185 43.2649 2.80145 43.2534 2.89041 43.2612C2.97936 43.2691 3.06554 43.2962 3.14297 43.3406C3.22039 43.385 3.2872 43.4457 3.33877 43.5185C3.39034 43.5913 3.42542 43.6744 3.44159 43.762L3.6659 44.9909C3.6885 45.1124 3.78327 45.2096 3.90498 45.2348C4.62732 45.387 5.37355 45.387 6.09589 45.2348C6.15546 45.2226 6.21 45.1928 6.25246 45.1493C6.29492 45.1059 6.32336 45.0507 6.3341 44.9909L6.56015 43.762C6.57659 43.6745 6.61184 43.5916 6.66348 43.519C6.71511 43.4464 6.7819 43.3858 6.85924 43.3414C6.93659 43.297 7.02265 43.2699 7.1115 43.2619C7.20035 43.2539 7.28987 43.2653 7.37391 43.2951L8.55544 43.7152C8.67281 43.7568 8.80409 43.7239 8.88755 43.6327C9.38253 43.0885 9.75646 42.4457 9.98474 41.7469C10.0038 41.6891 10.005 41.6269 9.98829 41.5684C9.97155 41.5099 9.9376 41.4578 9.89084 41.4188L8.93276 40.6108C8.86455 40.5535 8.80971 40.4821 8.77209 40.4014C8.73447 40.3208 8.71498 40.2329 8.71498 40.1439C8.71498 40.0549 8.73447 39.967 8.77209 39.8864C8.80971 39.8057 8.86455 39.7343 8.93276 39.677L9.89084 38.869C9.9376 38.83 9.97155 38.7779 9.98829 38.7194C10.005 38.6609 10.0038 38.5987 9.98474 38.541C9.75595 37.8419 9.38142 37.1992 8.88581 36.6551C8.84445 36.6106 8.79102 36.5792 8.73204 36.5645C8.67307 36.5499 8.6111 36.5527 8.5537 36.5726L7.3713 36.9927C7.33966 37.0032 7.30744 37.0119 7.2748 37.0187M1.51933 37.5221L2.33397 37.8111C2.53667 37.8831 2.75262 37.9104 2.9669 37.891C3.18118 37.8716 3.38869 37.806 3.5751 37.6987C3.7615 37.5914 3.92236 37.445 4.04656 37.2696C4.17076 37.0943 4.25535 36.894 4.29448 36.6828L4.44836 35.841C4.81348 35.7945 5.18304 35.7945 5.54816 35.841L5.70291 36.6828C5.74177 36.8942 5.82618 37.0946 5.95032 37.2701C6.07445 37.4457 6.23534 37.5922 6.42182 37.6995C6.60831 37.8068 6.81594 37.8724 7.03033 37.8916C7.24472 37.9109 7.46074 37.8834 7.66343 37.8111L8.47719 37.5203C8.69976 37.8114 8.88233 38.125 9.02492 38.4611L8.36938 39.0139C8.20467 39.1528 8.07229 39.3258 7.98149 39.521C7.89068 39.7161 7.84363 39.9287 7.84363 40.1439C7.84363 40.3591 7.89068 40.5717 7.98149 40.7669C8.07229 40.962 8.20467 41.135 8.36938 41.2739L9.02578 41.8267C8.88348 42.162 8.69945 42.4781 8.47806 42.7675L7.66343 42.4776C7.46072 42.4056 7.24478 42.3783 7.03049 42.3977C6.81621 42.4171 6.6087 42.4827 6.42229 42.59C6.23589 42.6973 6.07503 42.8436 5.95083 43.019C5.82663 43.1944 5.74204 43.3946 5.70291 43.6058L5.54816 44.4477C5.18304 44.4941 4.81348 44.4941 4.44836 44.4477L4.29448 43.6058C4.25562 43.3945 4.17121 43.1941 4.04707 43.0185C3.92294 42.843 3.76205 42.6965 3.57557 42.5892C3.38908 42.4819 3.18145 42.4163 2.96706 42.397C2.75268 42.3778 2.53665 42.4053 2.33397 42.4776L1.52194 42.7675C1.30055 42.4781 1.11652 42.162 0.974214 41.8267L1.62975 41.273C1.79431 41.1342 1.92656 40.9612 2.01727 40.7661C2.10799 40.571 2.15498 40.3585 2.15498 40.1435C2.15498 39.9284 2.10799 39.7159 2.01727 39.5208C1.92656 39.3257 1.79431 39.1528 1.62975 39.0139L0.973345 38.4611C1.11709 38.125 1.29966 37.8114 1.52107 37.5203" fill="black"/>
<path d="M44.9996 38.4082C44.5384 38.4082 44.0961 38.591 43.77 38.9166C43.4439 39.2421 43.2608 39.6836 43.2608 40.1439C43.2608 40.6042 43.4439 41.0457 43.77 41.3713C44.0961 41.6968 44.5384 41.8796 44.9996 41.8796C45.4607 41.8796 45.903 41.6968 46.2291 41.3713C46.5552 41.0457 46.7384 40.6042 46.7384 40.1439C46.7384 39.6836 46.5552 39.2421 46.2291 38.9166C45.903 38.591 45.4607 38.4082 44.9996 38.4082ZM44.1302 40.1439C44.1302 39.9137 44.2218 39.693 44.3848 39.5302C44.5478 39.3675 44.769 39.276 44.9996 39.276C45.2301 39.276 45.4513 39.3675 45.6143 39.5302C45.7774 39.693 45.869 39.9137 45.869 40.1439C45.869 40.3741 45.7774 40.5948 45.6143 40.7576C45.4513 40.9203 45.2301 41.0118 44.9996 41.0118C44.769 41.0118 44.5478 40.9203 44.3848 40.7576C44.2218 40.5948 44.1302 40.3741 44.1302 40.1439ZM47.2757 37.0178C47.1154 37.0468 46.9501 37.0113 46.8159 36.9191C46.6817 36.8269 46.5895 36.6855 46.5593 36.5258L46.3332 35.2969C46.3226 35.2368 46.2941 35.1814 46.2515 35.1377C46.2088 35.0941 46.154 35.0643 46.0941 35.0521C45.3721 34.9 44.6262 34.9 43.9041 35.0521C43.8443 35.0643 43.7894 35.0941 43.7468 35.1377C43.7042 35.1814 43.6757 35.2368 43.665 35.2969L43.4399 36.5258C43.4234 36.6133 43.3882 36.6962 43.3365 36.7688C43.2849 36.8415 43.2181 36.902 43.1408 36.9464C43.0634 36.9908 42.9774 37.0179 42.8885 37.0259C42.7997 37.0339 42.7101 37.0225 42.6261 36.9927L41.4446 36.5726C41.3872 36.5527 41.3252 36.5499 41.2662 36.5645C41.2072 36.5792 41.1538 36.6106 41.1124 36.6551C40.6175 37.1993 40.2435 37.8421 40.0153 38.541C39.9962 38.5987 39.995 38.6609 40.0117 38.7194C40.0284 38.7779 40.0624 38.83 40.1092 38.869L41.0672 39.677C41.0933 39.6984 41.1168 39.7218 41.1377 39.7473C41.19 39.8085 41.2298 39.8795 41.2546 39.9561C41.2794 40.0327 41.2888 40.1134 41.2823 40.1937C41.2758 40.2739 41.2534 40.3521 41.2165 40.4237C41.1796 40.4953 41.1289 40.5589 41.0672 40.6108L40.1092 41.4188C40.0624 41.4578 40.0284 41.5099 40.0117 41.5684C39.995 41.6269 39.9962 41.6891 40.0153 41.7469C40.2438 42.4458 40.618 43.0885 41.1133 43.6327C41.1547 43.6772 41.2081 43.7086 41.2671 43.7233C41.3261 43.7379 41.388 43.7351 41.4454 43.7152L42.6278 43.2951C42.7119 43.2649 42.8015 43.2534 42.8904 43.2612C42.9794 43.2691 43.0655 43.2962 43.143 43.3406C43.2204 43.385 43.2872 43.4457 43.3388 43.5185C43.3903 43.5913 43.4254 43.6744 43.4416 43.762L43.6659 44.9909C43.6885 45.1124 43.7833 45.2096 43.905 45.2348C44.6273 45.387 45.3735 45.387 46.0959 45.2348C46.1555 45.2226 46.21 45.1928 46.2525 45.1493C46.2949 45.1059 46.3234 45.0507 46.3341 44.9909L46.5601 43.762C46.5766 43.6745 46.6118 43.5916 46.6635 43.519C46.7151 43.4464 46.7819 43.3858 46.8592 43.3414C46.9366 43.297 47.0226 43.2699 47.1115 43.2619C47.2003 43.2539 47.2899 43.2653 47.3739 43.2951L48.5554 43.7152C48.6728 43.7568 48.8041 43.7239 48.8875 43.6327C49.3825 43.0885 49.7565 42.4457 49.9847 41.7469C50.0038 41.6891 50.005 41.6269 49.9883 41.5684C49.9716 41.5099 49.9376 41.4578 49.8908 41.4188L48.9328 40.6108C48.8645 40.5535 48.8097 40.4821 48.7721 40.4014C48.7345 40.3208 48.715 40.2329 48.715 40.1439C48.715 40.0549 48.7345 39.967 48.7721 39.8864C48.8097 39.8057 48.8645 39.7343 48.9328 39.677L49.8908 38.869C49.9376 38.83 49.9716 38.7779 49.9883 38.7194C50.005 38.6609 50.0038 38.5987 49.9847 38.541C49.7559 37.8419 49.3814 37.1992 48.8858 36.6551C48.8444 36.6106 48.791 36.5792 48.732 36.5645C48.6731 36.5499 48.6111 36.5527 48.5537 36.5726L47.3713 36.9927C47.3397 37.0032 47.3074 37.0119 47.2748 37.0187M41.5193 37.5221L42.334 37.8111C42.5367 37.8831 42.7526 37.9104 42.9669 37.891C43.1812 37.8716 43.3887 37.806 43.5751 37.6987C43.7615 37.5914 43.9224 37.445 44.0466 37.2696C44.1708 37.0943 44.2554 36.894 44.2945 36.6828L44.4484 35.841C44.8135 35.7945 45.183 35.7945 45.5482 35.841L45.7029 36.6828C45.7418 36.8942 45.8262 37.0946 45.9503 37.2701C46.0745 37.4457 46.2353 37.5922 46.4218 37.6995C46.6083 37.8068 46.8159 37.8724 47.0303 37.8916C47.2447 37.9109 47.4607 37.8834 47.6634 37.8111L48.4772 37.5203C48.6998 37.8114 48.8823 38.125 49.0249 38.4611L48.3694 39.0139C48.2047 39.1528 48.0723 39.3258 47.9815 39.521C47.8907 39.7161 47.8436 39.9287 47.8436 40.1439C47.8436 40.3591 47.8907 40.5717 47.9815 40.7669C48.0723 40.962 48.2047 41.135 48.3694 41.2739L49.0258 41.8267C48.8835 42.162 48.6995 42.4781 48.4781 42.7675L47.6634 42.4776C47.4607 42.4056 47.2448 42.3783 47.0305 42.3977C46.8162 42.4171 46.6087 42.4827 46.4223 42.59C46.2359 42.6973 46.075 42.8436 45.9508 43.019C45.8266 43.1944 45.742 43.3946 45.7029 43.6058L45.5482 44.4477C45.183 44.4941 44.8135 44.4941 44.4484 44.4477L44.2945 43.6058C44.2556 43.3945 44.1712 43.1941 44.0471 43.0185C43.9229 42.843 43.7621 42.6965 43.5756 42.5892C43.3891 42.4819 43.1815 42.4163 42.9671 42.397C42.7527 42.3778 42.5367 42.4053 42.334 42.4776L41.5219 42.7675C41.3005 42.4781 41.1165 42.162 40.9742 41.8267L41.6297 41.273C41.7943 41.1342 41.9266 40.9612 42.0173 40.7661C42.108 40.571 42.155 40.3585 42.155 40.1435C42.155 39.9284 42.108 39.7159 42.0173 39.5208C41.9266 39.3257 41.7943 39.1528 41.6297 39.0139L40.9733 38.4611C41.1171 38.125 41.2997 37.8114 41.5211 37.5203" fill="black"/>
</svg>
