<svg width="400" height="400" viewBox="0 0 400 400" fill="none" xmlns="http://www.w3.org/2000/svg">
<g opacity="0.3">
<path d="M336.264 70.2736C293.553 43.5184 199.358 6.27599 134.521 38.1192C65.5415 71.9968 37.4447 155.042 36.0783 208.393C34.6591 263.811 44.5119 310.753 71.8127 332.434C100.44 355.169 171.647 357.134 215.329 293.749C239.518 258.647 218.725 218.09 234.922 204.215C258.845 183.722 322.179 206.094 365.034 158.098C398.533 120.58 361.717 86.2184 336.264 70.2736Z" fill="#7534FC"/>
<path opacity="0.7" d="M336.264 70.2736C293.553 43.5184 199.358 6.27599 134.521 38.1192C65.5415 71.9968 37.4447 155.042 36.0783 208.393C34.6591 263.811 44.5119 310.753 71.8127 332.434C100.44 355.169 171.647 357.134 215.329 293.749C239.518 258.647 218.725 218.09 234.922 204.215C258.845 183.722 322.179 206.094 365.034 158.098C398.533 120.58 361.717 86.2184 336.264 70.2736Z" fill="white"/>
</g>
<path d="M233.965 307.634C231.401 307.273 230.119 307.093 227.555 306.731C227.555 296.271 227.555 285.812 227.555 275.352C230.119 275.624 231.401 275.76 233.965 276.032C233.965 286.566 233.965 297.101 233.965 307.634Z" fill="#999999" stroke="#263238" stroke-miterlimit="10" strokeLinecap="round" strokeLinejoin="round"/>
<path d="M377.837 291.295C279.786 280.894 181.735 270.492 83.6841 260.09C83.6841 200.633 83.6841 141.175 83.6841 81.7176C181.735 69.0312 279.786 56.3448 377.837 43.6592C377.837 126.204 377.837 208.75 377.837 291.295Z" fill="white" stroke="#263238" stroke-miterlimit="10" strokeLinecap="round" strokeLinejoin="round"/>
<path d="M380.351 43.3326C280.624 56.2358 180.897 69.139 81.1688 82.0422C79.1008 82.3094 77.4248 81.2022 77.4248 79.5686C77.4248 78.4758 77.4248 77.9294 77.4248 76.8366C77.4248 75.203 79.1008 73.6422 81.1688 73.351C180.897 59.3006 280.624 45.2494 380.351 31.1982C382.419 30.907 384.095 32.5358 384.095 34.8358C384.095 36.375 384.095 37.1446 384.095 38.683C384.095 40.9838 382.418 43.0654 380.351 43.3326Z" fill="#999999" stroke="#263238" stroke-miterlimit="10" strokeLinecap="round" strokeLinejoin="round"/>
<path d="M372.376 35.5809C374.47 35.2825 375.517 35.1329 377.61 34.8345" stroke="white" stroke-miterlimit="10" strokeLinecap="round" strokeLinejoin="round"/>
<path d="M358.317 37.5863C361.53 37.1279 363.138 36.8983 366.351 36.4399" stroke="white" stroke-miterlimit="10" strokeLinecap="round" strokeLinejoin="round"/>
<path d="M108.437 73.228C190.168 61.5704 271.899 49.912 353.63 38.2544" stroke="white" stroke-miterlimit="10" strokeLinecap="round" strokeLinejoin="round"/>
<path d="M83.9097 76.7264C91.1897 75.688 94.8289 75.1688 102.109 74.1304" stroke="white" stroke-miterlimit="10" strokeLinecap="round" strokeLinejoin="round"/>
<path d="M359.77 189.352C309.701 189.461 259.632 189.57 209.564 189.679" stroke="#7F7F7F" strokeLinecap="round" strokeLinejoin="round"/>
<path d="M209.564 199.774C259.633 200.325 309.701 200.874 359.77 201.425" stroke="#7F7F7F" strokeLinecap="round" strokeLinejoin="round"/>
<path d="M359.77 213.496C309.701 212.287 259.632 211.077 209.564 209.869" stroke="#7F7F7F" strokeLinecap="round" strokeLinejoin="round"/>
<path d="M209.564 219.964C259.633 221.832 309.701 223.7 359.77 225.568" stroke="#7F7F7F" strokeLinecap="round" strokeLinejoin="round"/>
<path d="M359.77 237.64C309.701 235.113 259.632 232.586 209.564 230.059" stroke="#7F7F7F" strokeLinecap="round" strokeLinejoin="round"/>
<path d="M209.564 240.154C259.633 243.34 309.701 246.526 359.77 249.712" stroke="#7F7F7F" strokeLinecap="round" strokeLinejoin="round"/>
<path d="M359.77 261.785C309.701 257.939 259.632 254.095 209.564 250.249" stroke="#7F7F7F" strokeLinecap="round" strokeLinejoin="round"/>
<path d="M209.564 260.344C259.633 264.848 309.701 269.353 359.77 273.857" stroke="#7F7F7F" strokeLinecap="round" strokeLinejoin="round"/>
<path d="M222.081 261.469C222.081 237.53 222.081 213.591 222.081 189.652" stroke="#7F7F7F" strokeLinecap="round" strokeLinejoin="round"/>
<path d="M209.564 189.679C209.564 213.234 209.564 236.789 209.564 260.344" stroke="#7F7F7F" strokeLinecap="round" strokeLinejoin="round"/>
<path d="M247.115 263.722C247.115 239.014 247.115 214.306 247.115 189.598" stroke="#7F7F7F" strokeLinecap="round" strokeLinejoin="round"/>
<path d="M234.598 189.625C234.598 213.949 234.598 238.272 234.598 262.596" stroke="#7F7F7F" strokeLinecap="round" strokeLinejoin="round"/>
<path d="M272.149 265.974C272.149 240.497 272.149 215.019 272.149 189.542" stroke="#7F7F7F" strokeLinecap="round" strokeLinejoin="round"/>
<path d="M259.633 189.57C259.633 214.663 259.633 239.755 259.633 264.848" stroke="#7F7F7F" strokeLinecap="round" strokeLinejoin="round"/>
<path d="M297.184 268.226C297.184 241.981 297.184 215.734 297.184 189.489" stroke="#7F7F7F" strokeLinecap="round" strokeLinejoin="round"/>
<path d="M284.667 189.516C284.667 215.378 284.667 241.239 284.667 267.1" stroke="#7F7F7F" strokeLinecap="round" strokeLinejoin="round"/>
<path d="M322.218 270.478C322.218 243.464 322.218 216.449 322.218 189.434" stroke="#7F7F7F" strokeLinecap="round" strokeLinejoin="round"/>
<path d="M309.701 189.461C309.701 216.091 309.701 242.722 309.701 269.352" stroke="#7534FC" strokeLinecap="round" strokeLinejoin="round"/>
<path d="M347.253 272.731C347.253 244.947 347.253 217.163 347.253 189.379" stroke="#7F7F7F" strokeLinecap="round" strokeLinejoin="round"/>
<path d="M334.735 189.406C334.735 216.805 334.735 244.205 334.735 271.604" stroke="#7F7F7F" strokeLinecap="round" strokeLinejoin="round"/>
<path d="M359.77 189.352C359.77 217.52 359.77 245.688 359.77 273.857" stroke="#7F7F7F" strokeLinecap="round" strokeLinejoin="round"/>
<path d="M209.564 189.679C209.564 213.234 209.564 236.789 209.564 260.344C259.633 264.848 309.701 269.353 359.77 273.857C359.77 245.689 359.77 217.521 359.77 189.352C309.701 189.461 259.633 189.57 209.564 189.679Z" stroke="#263238" strokeLinecap="round" strokeLinejoin="round"/>
<path opacity="0.5" d="M215.823 260.604C214.32 260.47 213.57 260.403 212.067 260.268C212.067 252.166 212.067 248.115 212.067 240.012C213.57 240.107 214.32 240.155 215.823 240.25C215.823 248.391 215.823 252.462 215.823 260.604Z" fill="#28282B"/>
<path d="M219.578 260.94C218.076 260.806 217.325 260.738 215.823 260.603C215.823 250.426 215.823 240.249 215.823 230.071C217.325 230.146 218.076 230.184 219.578 230.259C219.578 240.487 219.578 250.714 219.578 260.94Z" fill="#7534FC"/>
<path opacity="0.5" d="M228.34 261.725C226.838 261.591 226.087 261.524 224.585 261.389C224.585 249.381 224.585 237.373 224.585 225.365C226.087 225.431 226.838 225.463 228.34 225.528C228.34 237.594 228.34 249.66 228.34 261.725Z" fill="#28282B"/>
<path d="M232.096 262.062C230.593 261.928 229.843 261.86 228.34 261.726C228.34 247.936 228.34 234.147 228.34 220.358C229.843 220.413 230.593 220.441 232.096 220.496C232.096 234.351 232.096 248.206 232.096 262.062Z" fill="#7534FC"/>
<path opacity="0.5" d="M240.857 262.847C239.354 262.712 238.604 262.645 237.102 262.51C237.102 252.052 237.102 241.595 237.102 231.138C238.604 231.213 239.354 231.251 240.857 231.326C240.857 241.832 240.857 252.339 240.857 262.847Z" fill="#28282B"/>
<path d="M244.612 263.183C243.11 263.048 242.359 262.981 240.857 262.847C240.857 250.589 240.857 238.331 240.857 226.073C242.359 226.139 243.11 226.171 244.612 226.236C244.612 238.552 244.612 250.867 244.612 263.183Z" fill="#7534FC"/>
<path opacity="0.5" d="M253.374 263.968C251.871 263.833 251.121 263.766 249.619 263.631C249.619 255.133 249.619 250.884 249.619 242.387C251.121 242.482 251.871 242.529 253.374 242.624C253.374 251.162 253.374 255.43 253.374 263.968Z" fill="#28282B" stroke="#263238" strokeLinecap="round" strokeLinejoin="round"/>
<path d="M257.129 264.303C255.628 264.169 254.876 264.102 253.374 263.967C253.374 255.427 253.374 246.887 253.374 238.346C254.876 238.433 255.627 238.476 257.129 238.563C257.129 247.143 257.129 255.723 257.129 264.303Z" fill="#7534FC" stroke="#92E3A9" strokeLinecap="round" strokeLinejoin="round"/>
<path opacity="0.5" d="M265.891 265.089C264.389 264.955 263.639 264.887 262.136 264.752C262.136 252.61 262.136 240.467 262.136 228.324C263.638 228.392 264.389 228.426 265.891 228.494C265.891 240.692 265.891 252.891 265.891 265.089Z" fill="#28282B"/>
<path d="M269.647 265.425C268.144 265.291 267.394 265.223 265.892 265.089C265.892 255.191 265.892 245.293 265.892 235.395C267.393 235.475 268.144 235.515 269.647 235.595C269.647 245.539 269.647 255.482 269.647 265.425Z" fill="#7534FC"/>
<path opacity="0.5" d="M278.408 266.21C276.906 266.075 276.155 266.008 274.653 265.874C274.653 255.346 274.653 244.817 274.653 234.289C276.155 234.367 276.906 234.405 278.408 234.483C278.408 245.058 278.408 255.634 278.408 266.21Z" fill="#28282B"/>
<path d="M282.163 266.546C280.661 266.411 279.911 266.344 278.408 266.209C278.408 253.825 278.408 241.442 278.408 229.058C279.911 229.126 280.661 229.159 282.163 229.227C282.163 241.667 282.163 254.106 282.163 266.546Z" fill="#7534FC"/>
<path opacity="0.5" d="M290.926 267.331C289.423 267.196 288.673 267.129 287.17 266.995C287.17 253.831 287.17 240.667 287.17 227.503C288.672 227.567 289.423 227.6 290.926 227.664C290.926 240.887 290.926 254.109 290.926 267.331Z" fill="#28282B"/>
<path d="M294.681 267.667C293.179 267.533 292.428 267.466 290.926 267.331C290.926 255.093 290.926 242.855 290.926 230.616C292.428 230.686 293.179 230.72 294.681 230.79C294.681 243.083 294.681 255.375 294.681 267.667Z" fill="#7534FC"/>
<path opacity="0.5" d="M303.443 268.452C301.94 268.318 301.19 268.251 299.688 268.116C299.688 251.902 299.688 235.689 299.688 219.476C301.19 219.525 301.94 219.549 303.443 219.599C303.443 235.884 303.443 252.168 303.443 268.452Z" fill="#28282B"/>
<path d="M307.198 268.788C305.695 268.654 304.945 268.587 303.442 268.452C303.442 250.241 303.442 232.031 303.442 213.819C304.945 213.859 305.695 213.879 307.198 213.917C307.198 232.207 307.198 250.498 307.198 268.788Z" fill="#7534FC"/>
<path opacity="0.5" d="M315.96 269.573C314.458 269.439 313.707 269.371 312.205 269.236C312.205 253.975 312.205 238.714 312.205 223.452C313.707 223.507 314.458 223.535 315.96 223.591C315.96 238.919 315.96 254.246 315.96 269.573Z" fill="#28282B"/>
<path d="M319.715 220.924C319.715 237.252 319.715 253.581 319.715 269.91C318.213 269.775 317.462 269.708 315.96 269.574C315.96 253.315 315.96 237.056 315.96 220.798C317.462 220.848 318.213 220.873 319.715 220.924Z" fill="#7534FC"/>
<path opacity="0.5" d="M328.477 270.694C326.974 270.56 326.224 270.493 324.722 270.358C324.722 252.812 324.722 235.267 324.722 217.722C326.224 217.766 326.974 217.789 328.477 217.834C328.477 235.454 328.477 253.074 328.477 270.694Z" fill="#28282B"/>
<path d="M332.232 271.03C330.73 270.896 329.979 270.829 328.477 270.694C328.477 253.434 328.477 236.175 328.477 218.916C329.979 218.963 330.73 218.986 332.232 219.033C332.232 236.366 332.232 253.698 332.232 271.03Z" fill="#7534FC"/>
<path opacity="0.5" d="M340.994 271.816C339.492 271.681 338.741 271.614 337.239 271.479C337.239 251.107 337.239 230.735 337.239 210.363C338.741 210.395 339.492 210.411 340.994 210.443C340.995 230.9 340.994 251.358 340.994 271.816Z" fill="#28282B"/>
<path d="M344.749 272.152C343.246 272.018 342.496 271.951 340.994 271.816C340.994 250.247 340.994 228.679 340.994 207.111C342.495 207.138 343.246 207.151 344.749 207.177C344.749 228.835 344.749 250.494 344.749 272.152Z" fill="#7534FC"/>
<path opacity="0.5" d="M353.512 272.937C352.009 272.802 351.259 272.735 349.756 272.6C349.756 248.719 349.756 224.839 349.756 200.958C351.258 200.974 352.009 200.982 353.512 200.998C353.512 224.978 353.512 248.958 353.512 272.937Z" fill="#28282B"/>
<path d="M357.266 273.273C355.764 273.139 355.014 273.071 353.511 272.937C353.511 247.947 353.511 222.958 353.511 197.968C355.013 197.979 355.764 197.985 357.266 197.995C357.266 223.087 357.266 248.18 357.266 273.273Z" fill="#7534FC"/>
<path d="M260.698 227.48C256.341 227.287 254.162 227.191 249.804 226.998C248.472 226.94 247.392 225.978 247.392 224.85C247.392 222.07 247.392 220.68 247.392 217.9C247.392 216.773 248.472 215.892 249.804 215.932C254.162 216.065 256.341 216.132 260.698 216.264C262.03 216.305 263.11 217.269 263.11 218.419C263.11 221.252 263.11 222.67 263.11 225.504C263.11 226.654 262.03 227.538 260.698 227.48Z" fill="white" stroke="#263238" stroke-miterlimit="10" strokeLinecap="round" strokeLinejoin="round"/>
<path d="M250.541 224.343C249.694 224.163 249.265 223.591 249.265 222.791C249.265 222.623 249.265 222.539 249.265 222.372C249.712 222.389 249.935 222.398 250.38 222.415C250.38 222.608 250.38 222.705 250.38 222.898C250.38 223.29 250.616 223.463 250.992 223.478C251.367 223.493 251.603 223.338 251.603 222.927C251.603 222.471 251.386 222.135 250.595 221.576C249.63 220.895 249.297 220.372 249.297 219.681C249.297 218.908 249.716 218.376 250.541 218.249C250.541 218.027 250.541 217.915 250.541 217.694C250.928 217.707 251.12 217.713 251.507 217.725C251.507 217.947 251.507 218.059 251.507 218.281C252.344 218.455 252.772 219.018 252.772 219.821C252.772 219.894 252.772 219.931 252.772 220.004C252.326 219.988 252.103 219.981 251.656 219.965C251.656 219.867 251.656 219.817 251.656 219.719C251.656 219.326 251.442 219.146 251.067 219.133C250.692 219.12 250.477 219.286 250.477 219.659C250.477 220.079 250.693 220.404 251.485 220.971C252.45 221.662 252.783 222.179 252.783 222.91C252.783 223.731 252.344 224.271 251.507 224.383C251.507 224.639 251.507 224.767 251.507 225.022C251.12 225.006 250.928 224.998 250.541 224.982C250.541 224.727 250.541 224.599 250.541 224.343Z" fill="#263238"/>
<path d="M259.381 222.182C259.381 220.502 259.381 219.662 259.381 217.982C258.338 217.947 257.816 217.931 256.773 217.897C256.773 219.572 256.773 220.409 256.773 222.084C256.03 222.056 255.659 222.042 254.916 222.014C256.18 223.447 256.812 224.167 258.076 225.611C259.341 224.273 259.973 223.601 261.237 222.252C260.496 222.223 260.124 222.21 259.381 222.182Z" fill="#999999" stroke="#263238" stroke-miterlimit="10" strokeLinecap="round" strokeLinejoin="round"/>
<path d="M330.169 211.181C325.812 211.083 323.632 211.034 319.275 210.938C317.943 210.908 316.863 209.891 316.863 208.666C316.863 205.646 316.863 204.137 316.863 201.117C316.863 199.892 317.943 198.909 319.275 198.92C323.632 198.958 325.812 198.977 330.169 199.014C331.501 199.026 332.581 200.046 332.581 201.292C332.581 204.366 332.581 205.903 332.581 208.977C332.581 210.224 331.501 211.21 330.169 211.181Z" fill="white" stroke="#263238" stroke-miterlimit="10" strokeLinecap="round" strokeLinejoin="round"/>
<path d="M320.011 208.036C319.164 207.861 318.735 207.25 318.735 206.381C318.735 206.2 318.735 206.109 318.735 205.927C319.182 205.934 319.405 205.938 319.851 205.945C319.851 206.155 319.851 206.26 319.851 206.47C319.851 206.895 320.087 207.077 320.462 207.085C320.837 207.091 321.073 206.917 321.073 206.472C321.073 205.976 320.856 205.616 320.065 205.029C319.1 204.314 318.767 203.754 318.767 203.003C318.767 202.164 319.186 201.576 320.011 201.417C320.011 201.175 320.011 201.054 320.011 200.813C320.398 200.817 320.591 200.82 320.977 200.824C320.977 201.065 320.977 201.186 320.977 201.428C321.814 201.596 322.242 202.196 322.242 203.069C322.242 203.148 322.242 203.188 322.242 203.267C321.796 203.261 321.573 203.258 321.127 203.252C321.127 203.145 321.127 203.091 321.127 202.985C321.127 202.558 320.912 202.368 320.537 202.363C320.162 202.358 319.947 202.543 319.947 202.949C319.947 203.404 320.163 203.753 320.955 204.349C321.92 205.074 322.253 205.628 322.253 206.421C322.253 207.314 321.813 207.911 320.977 208.053C320.977 208.331 320.977 208.469 320.977 208.747C320.591 208.739 320.398 208.736 320.011 208.728C320.011 208.451 320.011 208.313 320.011 208.036Z" fill="#263238"/>
<path d="M326.244 204.649C326.244 206.466 326.244 207.375 326.244 209.193C327.287 209.213 327.808 209.225 328.852 209.245C328.852 207.422 328.852 206.511 328.852 204.688C329.594 204.699 329.966 204.705 330.708 204.716C329.444 203.182 328.812 202.417 327.548 200.895C326.283 202.391 325.651 203.136 324.387 204.621C325.129 204.632 325.501 204.637 326.244 204.649Z" fill="#999999" stroke="#263238" stroke-miterlimit="10" strokeLinecap="round" strokeLinejoin="round"/>
<path d="M283.018 148.746C286.25 149.439 289.662 149.779 293.191 149.682C312.43 149.158 329.904 134.709 329.959 115.842C330.013 97.7497 311.814 83.9433 293.191 86.6193C293.191 97.1297 293.191 107.64 293.191 118.151C289.822 128.356 286.432 138.554 283.018 148.746Z" fill="#7534FC" stroke="#263238" stroke-miterlimit="10" strokeLinecap="round" strokeLinejoin="round"/>
<path d="M293.191 118.151C293.191 107.641 293.191 97.1305 293.191 86.6201C275.228 88.4537 256.13 102.545 256.423 120.46C256.644 133.971 268.679 146.225 283.018 148.746C286.432 138.554 289.822 128.356 293.191 118.151Z" fill="#999999" stroke="#263238" stroke-miterlimit="10" strokeLinecap="round" strokeLinejoin="round"/>
<path d="M343.407 112.96C341.78 113.065 340.967 113.118 339.34 113.224C337.743 113.328 336.449 112.248 336.449 110.813C336.449 109.35 336.449 108.619 336.449 107.157C336.449 105.721 337.743 104.461 339.34 104.343C340.966 104.222 341.78 104.161 343.406 104.041C345.003 103.922 346.298 105.001 346.298 106.452C346.298 107.929 346.298 108.668 346.298 110.145C346.298 111.597 345.004 112.856 343.407 112.96Z" fill="#999999" stroke="#263238" stroke-miterlimit="10" strokeLinecap="round" strokeLinejoin="round"/>
<path d="M353.226 110.225C352.235 110.292 351.739 110.325 350.747 110.392C350.747 109.961 350.747 109.745 350.747 109.314C351.691 107.212 352.163 106.158 353.108 104.045C353.674 104.004 353.958 103.983 354.525 103.941C354.525 105.988 354.525 107.011 354.525 109.057C354.77 109.04 354.893 109.032 355.139 109.015C355.139 109.448 355.139 109.665 355.139 110.097C354.893 110.114 354.77 110.122 354.525 110.138C354.525 110.688 354.525 110.962 354.525 111.512C354.005 111.546 353.745 111.563 353.226 111.597C353.226 111.049 353.226 110.774 353.226 110.225ZM353.226 109.145C353.226 107.966 353.226 107.377 353.226 106.197C353.217 106.198 353.213 106.198 353.203 106.199C352.693 107.415 352.437 108.021 351.928 109.234C352.448 109.198 352.707 109.181 353.226 109.145Z" fill="#263238"/>
<path d="M355.744 109.58C355.744 109.342 355.744 109.223 355.744 108.985C356.235 108.951 356.481 108.935 356.971 108.901C356.971 109.175 356.971 109.311 356.971 109.584C356.971 110.127 357.231 110.304 357.644 110.276C358.058 110.249 358.317 110.036 358.317 109.493C358.317 108.811 358.317 108.47 358.317 107.788C358.317 107.245 358.058 107.057 357.644 107.086C357.231 107.115 356.971 107.339 356.971 107.881C356.971 107.907 356.971 107.92 356.971 107.946C356.48 107.979 356.235 107.997 355.744 108.031C355.839 106.331 355.886 105.48 355.979 103.779C357.349 103.679 358.034 103.628 359.403 103.527C359.403 103.963 359.403 104.179 359.403 104.615C358.497 104.68 358.043 104.713 357.137 104.779C357.095 105.506 357.073 105.87 357.031 106.597C357.04 106.596 357.045 106.596 357.055 106.595C357.291 106.221 357.656 106 358.176 105.963C359.131 105.895 359.616 106.479 359.616 107.599C359.616 108.287 359.616 108.63 359.616 109.317C359.616 110.535 358.955 111.274 357.68 111.358C356.405 111.443 355.744 110.793 355.744 109.58Z" fill="#263238"/>
<path d="M360.433 106.521C360.433 105.759 360.433 105.378 360.433 104.617C360.433 103.833 360.869 103.366 361.684 103.306C362.498 103.246 362.934 103.65 362.934 104.435C362.934 105.198 362.934 105.581 362.934 106.344C362.934 107.13 362.498 107.596 361.684 107.653C360.869 107.71 360.433 107.304 360.433 106.521ZM362.109 106.457C362.109 105.65 362.109 105.247 362.109 104.44C362.109 104.102 361.943 103.972 361.684 103.991C361.412 104.011 361.259 104.164 361.259 104.502C361.259 105.307 361.259 105.71 361.259 106.516C361.259 106.854 361.412 106.985 361.684 106.966C361.944 106.949 362.109 106.795 362.109 106.457ZM364.681 103.194C365.012 103.17 365.177 103.157 365.508 103.133C364.229 106.29 363.589 107.863 362.309 111C361.978 111.022 361.813 111.033 361.482 111.054C362.762 107.92 363.402 106.348 364.681 103.194ZM364.056 109.771C364.056 109.006 364.056 108.624 364.056 107.859C364.056 107.073 364.493 106.605 365.307 106.548C366.121 106.491 366.558 106.898 366.558 107.686C366.558 108.453 366.558 108.836 366.558 109.603C366.558 110.391 366.121 110.858 365.307 110.911C364.493 110.966 364.056 110.558 364.056 109.771ZM365.733 109.714C365.733 108.904 365.733 108.499 365.733 107.69C365.733 107.35 365.567 107.22 365.308 107.238C365.037 107.257 364.883 107.41 364.883 107.749C364.883 108.558 364.883 108.962 364.883 109.771C364.883 110.11 365.037 110.242 365.308 110.224C365.567 110.206 365.733 110.054 365.733 109.714Z" fill="#263238"/>
<path d="M343.407 125.956C341.78 126.039 340.967 126.081 339.34 126.164C337.743 126.246 336.449 125.149 336.449 123.714C336.449 122.251 336.449 121.52 336.449 120.058C336.449 118.622 337.743 117.381 339.34 117.284C340.966 117.186 341.78 117.136 343.407 117.038C345.004 116.941 346.298 118.038 346.298 119.488C346.298 120.966 346.298 121.704 346.298 123.182C346.298 124.632 345.004 125.874 343.407 125.956Z" fill="#7534FC" stroke="#263238" stroke-miterlimit="10" strokeLinecap="round" strokeLinejoin="round"/>
<path d="M351.02 123C351.02 122.763 351.02 122.645 351.02 122.407C351.511 122.381 351.757 122.367 352.247 122.34C352.247 122.612 352.247 122.748 352.247 123.019C352.247 123.558 352.506 123.739 352.92 123.717C353.333 123.695 353.593 123.486 353.593 122.946C353.593 122.268 353.593 121.929 353.593 121.251C353.593 120.711 353.333 120.519 352.92 120.542C352.506 120.566 352.247 120.786 352.247 121.325C352.247 121.351 352.247 121.364 352.247 121.39C351.756 121.417 351.51 121.431 351.02 121.458C351.114 119.767 351.162 118.922 351.255 117.23C352.625 117.148 353.31 117.107 354.679 117.025C354.679 117.458 354.679 117.674 354.679 118.106C353.773 118.16 353.319 118.187 352.413 118.24C352.37 118.963 352.349 119.325 352.306 120.048C352.316 120.047 352.321 120.047 352.33 120.046C352.567 119.677 352.932 119.462 353.452 119.432C354.407 119.377 354.892 119.966 354.892 121.08C354.892 121.764 354.892 122.106 354.892 122.79C354.892 124.002 354.23 124.728 352.956 124.794C351.68 124.862 351.02 124.206 351.02 123Z" fill="#263238"/>
<path d="M355.744 122.746C355.744 122.507 355.744 122.388 355.744 122.151C356.235 122.123 356.481 122.111 356.971 122.083C356.971 122.357 356.971 122.493 356.971 122.767C356.971 123.309 357.231 123.49 357.644 123.468C358.058 123.447 358.317 123.237 358.317 122.695C358.317 122.013 358.317 121.672 358.317 120.99C358.317 120.447 358.058 120.255 357.644 120.279C357.231 120.302 356.971 120.523 356.971 121.065C356.971 121.091 356.971 121.104 356.971 121.13C356.48 121.157 356.235 121.171 355.744 121.198C355.839 119.499 355.886 118.649 355.979 116.95C357.349 116.867 358.034 116.827 359.403 116.744C359.403 117.179 359.403 117.396 359.403 117.831C358.497 117.885 358.043 117.911 357.137 117.964C357.095 118.691 357.073 119.055 357.031 119.781C357.04 119.78 357.045 119.78 357.055 119.779C357.291 119.408 357.656 119.192 358.176 119.162C359.131 119.107 359.616 119.699 359.616 120.819C359.616 121.506 359.616 121.849 359.616 122.536C359.616 123.754 358.955 124.484 357.68 124.55C356.405 124.617 355.744 123.958 355.744 122.746Z" fill="#263238"/>
<path d="M360.433 119.751C360.433 118.989 360.433 118.608 360.433 117.847C360.433 117.063 360.869 116.602 361.684 116.553C362.498 116.504 362.934 116.914 362.934 117.7C362.934 118.463 362.934 118.846 362.934 119.609C362.934 120.395 362.498 120.855 361.684 120.9C360.869 120.945 360.433 120.534 360.433 119.751ZM362.109 119.71C362.109 118.903 362.109 118.5 362.109 117.693C362.109 117.355 361.943 117.223 361.684 117.239C361.412 117.255 361.259 117.405 361.259 117.743C361.259 118.549 361.259 118.952 361.259 119.758C361.259 120.095 361.412 120.228 361.684 120.213C361.944 120.199 362.109 120.047 362.109 119.71ZM364.681 116.482C365.012 116.462 365.177 116.452 365.508 116.432C364.229 119.571 363.589 121.136 362.309 124.255C361.978 124.272 361.813 124.281 361.482 124.299C362.762 121.182 363.402 119.619 364.681 116.482ZM364.056 123.051C364.056 122.286 364.056 121.903 364.056 121.139C364.056 120.352 364.493 119.891 365.307 119.845C366.121 119.799 366.558 120.213 366.558 121.001C366.558 121.767 366.558 122.151 366.558 122.918C366.558 123.706 366.121 124.167 365.307 124.209C364.493 124.251 364.056 123.837 364.056 123.051ZM365.733 123.016C365.733 122.207 365.733 121.802 365.733 120.992C365.733 120.653 365.567 120.52 365.308 120.535C365.037 120.55 364.883 120.7 364.883 121.039C364.883 121.847 364.883 122.252 364.883 123.061C364.883 123.4 365.037 123.534 365.308 123.52C365.567 123.507 365.733 123.355 365.733 123.016Z" fill="#263238"/>
<g opacity="0.5">
<path d="M147.235 167.396C130.546 167.781 113.856 168.165 97.1665 168.55C97.1665 141.151 97.1665 113.751 97.1665 86.3522C113.856 84.4298 130.546 82.5074 147.235 80.585C147.235 109.522 147.235 138.459 147.235 167.396Z" fill="#7534FC"/>
<mask id="mask0_639_31210" style="mask-type:luminance" maskUnits="userSpaceOnUse" x="97" y="80" width="51" height="89">
<path d="M147.235 167.396C130.546 167.781 113.856 168.165 97.1665 168.55C97.1665 141.151 97.1665 113.751 97.1665 86.3522C113.856 84.4298 130.546 82.5074 147.235 80.585C147.235 109.522 147.235 138.459 147.235 167.396Z" fill="white"/>
</mask>
<g mask="url(#mask0_639_31210)">
<path opacity="0.8" d="M147.235 167.396C130.546 167.781 113.856 168.165 97.1665 168.55C97.1665 141.151 97.1665 113.751 97.1665 86.3522C113.856 84.4298 130.546 82.5074 147.235 80.585C147.235 109.522 147.235 138.459 147.235 167.396Z" fill="white"/>
</g>
</g>
<g opacity="0.8">
<path d="M197.303 166.242C180.614 166.627 163.924 167.011 147.234 167.396C147.234 138.459 147.234 109.522 147.234 80.5848C163.924 78.6624 180.614 76.7408 197.303 74.8184C197.303 105.293 197.303 135.767 197.303 166.242Z" fill="#7534FC"/>
<mask id="mask1_639_31210" style="mask-type:luminance" maskUnits="userSpaceOnUse" x="147" y="74" width="51" height="94">
<path d="M197.303 166.242C180.614 166.627 163.924 167.011 147.234 167.396C147.234 138.459 147.234 109.522 147.234 80.5848C163.924 78.6624 180.614 76.7408 197.303 74.8184C197.303 105.293 197.303 135.767 197.303 166.242Z" fill="white"/>
</mask>
<g mask="url(#mask1_639_31210)">
<path opacity="0.6" d="M197.303 166.242C180.614 166.627 163.924 167.011 147.234 167.396C147.234 138.459 147.234 109.522 147.234 80.5848C163.924 78.6624 180.614 76.7408 197.303 74.8184C197.303 105.293 197.303 135.767 197.303 166.242Z" fill="white"/>
</g>
</g>
<path d="M247.372 165.089C230.682 165.473 213.993 165.858 197.303 166.243C197.303 135.768 197.303 105.293 197.303 74.8186C213.993 72.8962 230.682 70.9738 247.372 69.0522C247.372 101.064 247.372 133.076 247.372 165.089Z" fill="#7534FC"/>
<mask id="mask2_639_31210" style="mask-type:luminance" maskUnits="userSpaceOnUse" x="197" y="69" width="51" height="98">
<path d="M247.372 165.089C230.682 165.473 213.993 165.858 197.303 166.243C197.303 135.768 197.303 105.293 197.303 74.8186C213.993 72.8962 230.682 70.9738 247.372 69.0522C247.372 101.064 247.372 133.076 247.372 165.089Z" fill="white"/>
</mask>
<g mask="url(#mask2_639_31210)">
<path opacity="0.4" d="M247.372 165.089C230.682 165.473 213.993 165.858 197.303 166.243C197.303 135.768 197.303 105.293 197.303 74.8186C213.993 72.8962 230.682 70.9738 247.372 69.0522C247.372 101.064 247.372 133.076 247.372 165.089Z" fill="white"/>
</g>
<path d="M247.372 69.0513C197.303 74.8177 147.235 80.5849 97.1665 86.3513" stroke="#7F7F7F" strokeLinecap="round" strokeLinejoin="round"/>
<path d="M97.1665 98.0937C147.235 92.9857 197.303 87.8785 247.372 82.7705" stroke="#7F7F7F" strokeLinecap="round" strokeLinejoin="round"/>
<path d="M247.372 96.4902C197.303 100.939 147.235 105.388 97.1665 109.836" stroke="#7F7F7F" strokeLinecap="round" strokeLinejoin="round"/>
<path d="M97.1665 121.579C147.235 117.79 197.303 114 247.372 110.21" stroke="#7F7F7F" strokeLinecap="round" strokeLinejoin="round"/>
<path d="M247.372 123.93C197.303 127.06 147.235 130.19 97.1665 133.322" stroke="#7F7F7F" strokeLinecap="round" strokeLinejoin="round"/>
<path d="M97.1665 145.064C147.235 142.593 197.303 140.121 247.372 137.65" stroke="#7F7F7F" strokeLinecap="round" strokeLinejoin="round"/>
<path d="M247.372 151.37C197.303 153.182 147.235 154.994 97.1665 156.806" stroke="#7F7F7F" strokeLinecap="round" strokeLinejoin="round"/>
<path d="M97.1665 168.549C147.235 167.395 197.303 166.242 247.372 165.089" stroke="#7F7F7F" strokeLinecap="round" strokeLinejoin="round"/>
<path d="M109.683 168.261C109.683 140.477 109.683 112.694 109.683 84.9097" stroke="#7F7F7F" strokeLinecap="round" strokeLinejoin="round"/>
<path d="M97.1665 86.3511C97.1665 113.75 97.1665 141.149 97.1665 168.549" stroke="#7F7F7F" strokeLinecap="round" strokeLinejoin="round"/>
<path d="M134.718 167.684C134.718 139.131 134.718 110.579 134.718 82.0264" stroke="#7F7F7F" strokeLinecap="round" strokeLinejoin="round"/>
<path d="M122.201 83.4683C122.201 111.636 122.201 139.804 122.201 167.973" stroke="#7F7F7F" strokeLinecap="round" strokeLinejoin="round"/>
<path d="M159.752 167.107C159.752 137.785 159.752 108.464 159.752 79.1431" stroke="#7F7F7F" strokeLinecap="round" strokeLinejoin="round"/>
<path d="M147.235 80.585C147.235 109.522 147.235 138.459 147.235 167.396" stroke="#7F7F7F" strokeLinecap="round" strokeLinejoin="round"/>
<path d="M184.787 166.53C184.787 136.44 184.787 106.35 184.787 76.2593" stroke="#7F7F7F" strokeLinecap="round" strokeLinejoin="round"/>
<path d="M172.27 77.7017C172.27 107.407 172.27 137.114 172.27 166.819" stroke="#7F7F7F" strokeLinecap="round" strokeLinejoin="round"/>
<path d="M209.821 165.954C209.821 135.094 209.821 104.235 209.821 73.376" stroke="#7F7F7F" strokeLinecap="round" strokeLinejoin="round"/>
<path d="M197.303 74.8179C197.303 105.292 197.303 135.767 197.303 166.242" stroke="#7F7F7F" strokeLinecap="round" strokeLinejoin="round"/>
<path d="M234.855 165.377C234.855 133.749 234.855 102.121 234.855 70.4927" stroke="#7F7F7F" strokeLinecap="round" strokeLinejoin="round"/>
<path d="M222.338 71.9346C222.338 103.179 222.338 134.422 222.338 165.666" stroke="#7F7F7F" strokeLinecap="round" strokeLinejoin="round"/>
<path d="M247.372 69.0513C247.372 101.064 247.372 133.076 247.372 165.089" stroke="#7F7F7F" strokeLinecap="round" strokeLinejoin="round"/>
<path d="M97.1665 86.3513C97.1665 113.75 97.1665 141.15 97.1665 168.549C147.235 167.395 197.303 166.242 247.372 165.089C247.372 133.076 247.372 101.063 247.372 69.0513C197.303 74.8177 147.235 80.5849 97.1665 86.3513Z" stroke="#263238" strokeLinecap="round" strokeLinejoin="round"/>
<path d="M97.1665 156.806C97.5241 156.794 97.7025 156.787 98.0609 156.774" stroke="#263238" strokeLinecap="round" strokeLinejoin="round"/>
<path d="M99.5938 156.718C102.966 156.596 104.651 156.535 108.023 156.413" stroke="#263238" strokeLinecap="round" strokeLinejoin="round" stroke-dasharray="1.71 1.71"/>
<path d="M108.79 156.385C109.147 156.373 109.326 156.366 109.684 156.353C109.937 156.104 110.063 155.979 110.316 155.729" stroke="#263238" strokeLinecap="round" strokeLinejoin="round"/>
<path d="M111.566 154.49C115.318 150.772 117.193 148.893 120.944 145.101" stroke="#263238" strokeLinecap="round" strokeLinejoin="round" stroke-dasharray="1.98 1.98"/>
<path d="M121.569 144.468C121.822 144.212 121.948 144.084 122.201 143.828C122.454 144.059 122.58 144.175 122.833 144.407" stroke="#263238" strokeLinecap="round" strokeLinejoin="round"/>
<path d="M123.832 145.323C125.23 146.607 125.93 147.252 127.328 148.547" stroke="#263238" strokeLinecap="round" strokeLinejoin="round" stroke-dasharray="1.58 1.58"/>
<path d="M127.827 149.009C128.08 149.244 128.206 149.361 128.459 149.596C128.572 149.261 128.629 149.094 128.742 148.76" stroke="#263238" strokeLinecap="round" strokeLinejoin="round"/>
<path d="M129.259 147.229C131.226 141.405 132.21 138.478 134.176 132.594" stroke="#263238" strokeLinecap="round" strokeLinejoin="round" stroke-dasharray="1.83 1.83"/>
<path d="M134.436 131.82C134.548 131.481 134.605 131.312 134.718 130.973C135.076 130.951 135.255 130.94 135.612 130.917" stroke="#263238" strokeLinecap="round" strokeLinejoin="round"/>
<path d="M137.103 130.825C137.997 130.769 138.443 130.741 139.338 130.685" stroke="#263238" strokeLinecap="round" strokeLinejoin="round" stroke-dasharray="1.67 1.67"/>
<path d="M140.083 130.638C140.44 130.616 140.619 130.604 140.977 130.582C141.137 130.257 141.217 130.095 141.377 129.77" stroke="#263238" strokeLinecap="round" strokeLinejoin="round"/>
<path d="M142.156 128.183C143.872 124.69 144.73 122.936 146.445 119.412" stroke="#263238" strokeLinecap="round" strokeLinejoin="round" stroke-dasharray="1.95 1.95"/>
<path d="M146.835 118.611C146.995 118.282 147.075 118.117 147.235 117.789C147.593 117.761 147.772 117.748 148.13 117.721" stroke="#263238" strokeLinecap="round" strokeLinejoin="round"/>
<path d="M149.662 117.606C153.034 117.35 154.719 117.222 158.091 116.967" stroke="#263238" strokeLinecap="round" strokeLinejoin="round" stroke-dasharray="1.71 1.71"/>
<path d="M158.858 116.909C159.216 116.882 159.394 116.869 159.753 116.841C160.006 116.569 160.132 116.432 160.385 116.158" stroke="#263238" strokeLinecap="round" strokeLinejoin="round"/>
<path d="M161.383 115.079C162.782 113.564 163.481 112.804 164.879 111.279" stroke="#263238" strokeLinecap="round" strokeLinejoin="round" stroke-dasharray="1.58 1.58"/>
<path d="M165.378 110.734C165.631 110.458 165.758 110.32 166.01 110.044C166.368 110.014 166.547 110 166.905 109.97" stroke="#263238" strokeLinecap="round" strokeLinejoin="round"/>
<path d="M168.685 109.824C172.623 109.5 174.591 109.338 178.528 109.014C180.527 106.804 181.527 105.693 183.525 103.461" stroke="#263238" strokeLinecap="round" strokeLinejoin="round" stroke-dasharray="1.99 1.99"/>
<path d="M184.154 102.758C184.407 102.476 184.534 102.334 184.786 102.051C185.039 102.29 185.165 102.408 185.418 102.646" stroke="#263238" strokeLinecap="round" strokeLinejoin="round"/>
<path d="M186.669 103.827C190.42 107.373 192.295 109.165 196.047 112.785" stroke="#263238" strokeLinecap="round" strokeLinejoin="round" stroke-dasharray="1.98 1.98"/>
<path d="M196.671 113.388C196.924 113.632 197.051 113.754 197.303 113.999C197.556 113.716 197.683 113.574 197.935 113.291" stroke="#263238" strokeLinecap="round" strokeLinejoin="round"/>
<path d="M198.935 112.171C200.333 110.602 201.032 109.814 202.431 108.234" stroke="#263238" strokeLinecap="round" strokeLinejoin="round" stroke-dasharray="1.58 1.58"/>
<path d="M202.93 107.67C203.182 107.384 203.309 107.241 203.562 106.954C203.919 106.925 204.098 106.91 204.456 106.881" stroke="#263238" strokeLinecap="round" strokeLinejoin="round"/>
<path d="M206.179 106.739C210.139 106.414 212.119 106.25 216.08 105.925C218.583 103.057 219.835 101.615 222.338 98.7145C224.14 98.5545 225.04 98.4745 226.841 98.3145" stroke="#263238" strokeLinecap="round" strokeLinejoin="round" stroke-dasharray="1.93 1.93"/>
<path d="M227.703 98.2382C228.06 98.2062 228.239 98.1902 228.597 98.159C228.757 97.8006 228.837 97.6214 228.997 97.2622" stroke="#263238" strokeLinecap="round" strokeLinejoin="round"/>
<path d="M229.776 95.5108C231.492 91.6564 232.349 89.722 234.065 85.8364" stroke="#263238" strokeLinecap="round" strokeLinejoin="round" stroke-dasharray="1.95 1.95"/>
<path d="M234.455 84.9543C234.615 84.5919 234.695 84.4103 234.855 84.0479" stroke="#263238" strokeLinecap="round" strokeLinejoin="round"/>
<path d="M97.1665 145.064C102.173 144.817 104.677 144.694 109.683 144.446C114.691 141.818 117.194 140.487 122.2 137.793C124.703 137.653 125.955 137.582 128.459 137.442C130.962 132.441 132.214 129.923 134.717 124.855C137.22 122.235 138.472 120.917 140.975 118.263C143.478 113.146 144.731 110.571 147.234 105.388C152.24 107.423 154.744 108.458 159.751 110.559C162.254 112.866 163.506 114.029 166.009 116.369C171.016 110.93 173.519 108.178 178.526 102.608C181.029 97.2601 182.281 94.5697 184.784 89.1561C189.791 93.8033 192.295 96.1601 197.301 100.94C199.804 105.942 201.056 108.459 203.559 113.527C208.566 113.148 211.07 112.958 216.076 112.58C218.579 109.729 219.831 108.295 222.334 105.411C224.838 97.1713 226.09 93.0265 228.593 84.6873C231.096 79.0433 232.348 76.2041 234.851 70.4937" stroke="#263238" stroke-miterlimit="10" strokeLinecap="round" strokeLinejoin="round"/>
<path d="M121.17 178.277C120.945 178.362 120.677 178.406 120.387 178.41C119.229 178.424 118.597 177.772 118.597 176.618C118.597 175.102 118.597 174.344 118.597 172.828C118.597 171.674 119.229 171.002 120.387 170.979C121.545 170.956 122.178 171.606 122.178 172.764C122.178 174.286 122.178 175.047 122.178 176.57C122.178 177.066 122.061 177.46 121.846 177.762C121.932 177.906 122.071 177.925 122.285 177.922C122.358 177.922 122.395 177.921 122.468 177.92C122.468 178.334 122.468 178.541 122.468 178.954C122.343 178.956 122.281 178.957 122.157 178.958C121.717 178.963 121.309 178.812 121.17 178.277ZM120.998 176.658C120.998 175.079 120.998 174.29 120.998 172.712C120.998 172.196 120.762 172.004 120.386 172.01C120.011 172.018 119.775 172.218 119.775 172.734C119.775 174.31 119.775 175.098 119.775 176.674C119.775 177.19 120.011 177.382 120.386 177.377C120.762 177.373 120.998 177.174 120.998 176.658Z" fill="#263238"/>
<path d="M124.625 172.719C124.131 172.728 123.885 172.732 123.391 172.741C123.391 172.418 123.391 172.256 123.391 171.933C124.388 171.914 124.742 171.701 125.01 170.99C125.328 170.983 125.486 170.98 125.804 170.974C125.804 173.881 125.804 175.334 125.804 178.242C125.332 178.247 125.096 178.25 124.624 178.255C124.625 176.042 124.625 174.934 124.625 172.719Z" fill="#263238"/>
<path d="M170.907 177.689C170.681 177.779 170.413 177.826 170.123 177.829C168.966 177.843 168.333 177.155 168.333 175.938C168.333 174.339 168.333 173.54 168.333 171.94C168.333 170.724 168.966 170.016 170.123 169.993C171.282 169.97 171.914 170.656 171.914 171.876C171.914 173.481 171.914 174.284 171.914 175.888C171.914 176.412 171.796 176.828 171.582 177.146C171.667 177.297 171.807 177.317 172.021 177.315C172.094 177.314 172.131 177.314 172.203 177.312C172.203 177.749 172.203 177.967 172.203 178.404C172.079 178.405 172.016 178.405 171.892 178.407C171.453 178.413 171.046 178.254 170.907 177.689ZM170.735 175.982C170.735 174.318 170.735 173.486 170.735 171.822C170.735 171.277 170.499 171.075 170.123 171.082C169.748 171.089 169.512 171.3 169.512 171.844C169.512 173.505 169.512 174.336 169.512 175.998C169.512 176.542 169.748 176.745 170.123 176.74C170.499 176.736 170.735 176.527 170.735 175.982Z" fill="#263238"/>
<path d="M172.689 176.861C172.689 175.77 172.994 175.101 173.868 174.147C174.769 173.166 175.026 172.576 175.026 171.866C175.026 171.176 174.79 170.995 174.414 171.002C174.039 171.009 173.803 171.221 173.803 171.767C173.803 172.095 173.803 172.258 173.803 172.586C173.358 172.593 173.134 172.597 172.688 172.605C172.688 172.308 172.688 172.16 172.688 171.863C172.688 170.642 173.288 169.931 174.446 169.908C175.605 169.885 176.205 170.575 176.205 171.801C176.205 172.71 175.84 173.527 174.747 174.724C174.039 175.5 173.857 175.884 173.857 176.419C173.857 176.485 173.857 176.518 173.857 176.583C174.754 176.571 175.202 176.566 176.098 176.555C176.098 176.993 176.098 177.211 176.098 177.65C174.734 177.666 174.052 177.674 172.689 177.69C172.689 177.358 172.689 177.192 172.689 176.861Z" fill="#263238"/>
<path d="M221.007 177.098C220.782 177.192 220.514 177.241 220.224 177.244C219.066 177.258 218.434 176.534 218.434 175.254C218.434 173.572 218.434 172.73 218.434 171.049C218.434 169.769 219.066 169.025 220.224 169.002C221.382 168.979 222.014 169.701 222.014 170.986C222.014 172.674 222.014 173.518 222.014 175.206C222.014 175.756 221.897 176.193 221.682 176.528C221.769 176.687 221.908 176.709 222.122 176.706C222.194 176.706 222.231 176.705 222.304 176.704C222.304 177.163 222.304 177.393 222.304 177.851C222.179 177.853 222.118 177.854 221.993 177.854C221.554 177.859 221.146 177.691 221.007 177.098ZM220.835 175.301C220.835 173.55 220.835 172.675 220.835 170.926C220.835 170.353 220.599 170.139 220.224 170.146C219.849 170.154 219.613 170.375 219.613 170.947C219.613 172.695 219.613 173.57 219.613 175.318C219.613 175.89 219.849 176.103 220.224 176.098C220.599 176.094 220.835 175.874 220.835 175.301Z" fill="#263238"/>
<path d="M222.725 175.218C222.725 174.957 222.725 174.826 222.725 174.564C223.171 174.558 223.393 174.554 223.84 174.548C223.84 174.833 223.84 174.975 223.84 175.26C223.84 175.834 224.076 176.05 224.451 176.045C224.826 176.04 225.062 175.842 225.062 175.129C225.062 174.866 225.062 174.735 225.062 174.474C225.062 173.726 224.826 173.454 224.29 173.462C224.132 173.464 224.052 173.466 223.893 173.468C223.893 173.009 223.893 172.778 223.893 172.319C224.065 172.316 224.151 172.315 224.322 172.312C224.762 172.305 225.03 172.093 225.03 171.449C225.03 171.214 225.03 171.097 225.03 170.862C225.03 170.286 224.784 170.062 224.441 170.068C224.097 170.074 223.872 170.297 223.872 170.825C223.872 171.036 223.872 171.142 223.872 171.354C223.425 171.362 223.203 171.366 222.757 171.373C222.757 171.203 222.757 171.118 222.757 170.949C222.757 169.663 223.357 168.94 224.483 168.918C225.609 168.895 226.209 169.586 226.209 170.875C226.209 170.99 226.209 171.048 226.209 171.163C226.209 172.026 225.953 172.561 225.373 172.8C225.373 172.809 225.373 172.814 225.373 172.823C226.006 173.066 226.241 173.65 226.241 174.467C226.241 174.753 226.241 174.896 226.241 175.181C226.241 176.47 225.641 177.18 224.483 177.194C223.325 177.208 222.725 176.503 222.725 175.218Z" fill="#263238"/>
<path d="M142.498 131.628C142.498 131.628 130.582 121.395 138.494 114.635C138.494 114.635 142.314 102.633 154.844 104.323C167.375 106.014 161.104 98.9146 161.104 98.9146C161.104 98.9146 168.204 102.633 164.946 105.507C164.946 105.507 167.961 105.846 169.8 102.803C169.8 102.803 171.982 106.691 167.902 108.381C167.902 108.381 173.238 109.733 171.817 112.776C171.817 112.776 168.024 110.765 166.989 118.363C165.953 125.961 153.919 124.868 153.919 124.868L142.498 131.628Z" fill="#263238" stroke="#263238" stroke-miterlimit="10" strokeLinecap="round" strokeLinejoin="round"/>
<path d="M143.254 134.159C143.253 133.772 140.424 142.403 145.812 141.671C148.358 141.325 144.726 134.159 144.726 134.159H143.254Z" fill="#263238" stroke="#263238" stroke-miterlimit="10" strokeLinecap="round" strokeLinejoin="round"/>
<path d="M169.516 110.83C169.516 110.83 166.316 110.323 165.69 114.042" stroke="#7F7F7F" strokeLinecap="round" strokeLinejoin="round"/>
<path d="M161.941 109.941C160.683 111.593 161.104 114.042 161.104 114.042" stroke="#7F7F7F" strokeLinecap="round" strokeLinejoin="round"/>
<path d="M168.619 105.506C168.619 105.506 167.315 107.662 163.836 108.676" stroke="#7F7F7F" strokeLinecap="round" strokeLinejoin="round"/>
<path d="M153.92 109.774C153.92 109.774 159.056 108.76 158.374 114.042" stroke="#7F7F7F" strokeLinecap="round" strokeLinejoin="round"/>
<path d="M179.103 237.406C179.103 237.406 183.368 259.668 179.103 281.474C174.838 303.28 172.204 373.312 172.204 373.312H145.673V233.932L177.77 232.792L179.103 237.406Z" fill="#999999"/>
<mask id="mask3_639_31210" style="mask-type:luminance" maskUnits="userSpaceOnUse" x="145" y="232" width="36" height="142">
<path d="M179.103 237.406C179.103 237.406 183.368 259.668 179.103 281.474C174.838 303.28 172.204 373.312 172.204 373.312H145.673V233.932L177.77 232.792L179.103 237.406Z" fill="white"/>
</mask>
<g mask="url(#mask3_639_31210)">
<path opacity="0.2" d="M163.336 267.274C163.336 267.274 162.187 274.968 167.935 273.023C173.683 271.077 177.681 271.756 172.884 276.107C168.086 280.458 161.422 287.051 160.357 310.885C159.29 334.72 157.65 373.311 157.65 373.311H146.087L143.721 284.769L154.226 269.303L159.112 267.275L163.336 267.274Z" fill="black"/>
</g>
<path d="M179.103 237.406C179.103 237.406 183.368 259.668 179.103 281.474C174.838 303.28 172.204 373.312 172.204 373.312H145.673V233.932L177.77 232.792L179.103 237.406Z" stroke="#263238" stroke-miterlimit="10" strokeLinecap="round" strokeLinejoin="round"/>
<path d="M175.904 273.106C175.904 273.106 169.957 271.838 163.335 279.191" stroke="#263238" stroke-miterlimit="10" strokeLinecap="round" strokeLinejoin="round"/>
<path d="M167.109 239.916C167.109 239.916 166.842 264.739 163.644 274.12C160.445 283.502 155.645 327.671 156.178 373.311H128.742C128.742 373.311 127.128 290.855 126.061 278.684C124.995 266.514 119.398 268.542 127.128 233.932H168.241L167.109 239.916Z" fill="#999999" stroke="#263238" stroke-miterlimit="10" strokeLinecap="round" strokeLinejoin="round"/>
<path d="M161.911 245.226C164.021 245.082 165.95 244.913 167.705 244.734L167.935 248.823C166.112 249.008 164.097 249.18 161.911 249.326V245.226Z" fill="#263238"/>
<path d="M170.686 244.404C174.001 244.004 176.4 243.606 177.699 243.37L178.25 247.407C176.742 247.683 174.166 248.108 170.686 248.522V244.404H170.686Z" fill="#263238"/>
<path d="M125.666 248.433L126.286 244.417C130.786 244.922 135.103 245.253 139.19 245.446L138.923 249.502C134.732 249.298 130.304 248.957 125.666 248.433Z" fill="#263238"/>
<path d="M142.312 245.57C148.567 245.768 154.219 245.656 159.112 245.395V249.491C156.004 249.652 152.603 249.752 148.935 249.752C146.777 249.752 144.519 249.712 142.187 249.636L142.312 245.57Z" fill="#263238"/>
<path d="M218.551 201.87L225.303 197.8C225.303 197.8 228.146 190.363 231.7 188.334C235.253 186.305 238.808 184.446 239.696 184.953C240.584 185.46 239.518 187.151 237.208 188.841C235.764 189.898 239.962 188.107 245.337 185.629C248.562 184.143 252.227 182.074 252.8 182.967C254.888 186.22 244.209 190.369 244.209 190.369C244.209 190.369 247.869 190.193 246.448 192.897C246.448 192.897 246.98 195.433 245.736 196.278L244.315 198.01C244.315 198.01 243.426 200.842 241.116 202.195C238.807 203.547 234.72 205.068 230.632 205.237L221.748 211.455L218.551 201.87Z" fill="white" stroke="#263238" stroke-miterlimit="10" strokeLinecap="round" strokeLinejoin="round"/>
<path d="M242.006 190.701C242.006 190.701 234.458 192.223 234.856 193.913C235.254 195.604 237.564 194.42 237.564 194.42C237.564 194.42 235.075 195.266 235.342 196.196C235.61 197.125 237.386 197.105 237.386 197.105C237.386 197.105 235.076 197.632 235.342 198.731C235.61 199.829 237.15 200.168 238.423 199.999C239.696 199.83 240.674 199.405 241.029 200.04C241.384 200.675 237.563 199.66 235.342 201.224" stroke="#263238" stroke-miterlimit="10" strokeLinecap="round" strokeLinejoin="round"/>
<path d="M235.965 189.433C235.965 189.433 235.76 191.124 234.841 191.968C233.922 192.814 234.721 195.687 231.345 198.814" stroke="#263238" stroke-miterlimit="10" strokeLinecap="round" strokeLinejoin="round"/>
<path d="M243.672 193.617L239.474 194.124" stroke="#263238" stroke-miterlimit="10" strokeLinecap="round" strokeLinejoin="round"/>
<path d="M243.339 196.787L239.474 197.103" stroke="#263238" stroke-miterlimit="10" strokeLinecap="round" strokeLinejoin="round"/>
<path d="M202.558 206.168C208.426 204.59 215.512 200.193 218.922 197.925C219.794 197.345 220.996 197.855 221.12 198.861C221.503 201.965 222.752 207.235 226.813 208.666C232.677 210.732 227.08 213.915 223.348 214.986C219.617 216.057 192.963 228.988 184.967 227.213C176.971 225.438 174.305 224.171 170.574 216.437C166.842 208.703 168.708 171.431 168.708 171.431L179.903 168.643C179.903 168.643 182.835 171.263 184.256 188.843C185.678 206.423 187.988 208.619 187.988 208.619C187.988 208.619 195.096 203.359 193.23 208.44C193.23 208.44 200.545 206.709 202.558 206.168Z" fill="#6838CB" stroke="#263238" stroke-miterlimit="10" strokeLinecap="round" strokeLinejoin="round"/>
<path d="M189.498 211.456C189.498 211.456 186.607 221.103 184.434 220.367C182.261 219.631 182.835 216.996 186.433 211.456" stroke="#263238" stroke-miterlimit="10" strokeLinecap="round" strokeLinejoin="round"/>
<path d="M179.902 168.642C174.713 163.705 167.109 158.753 151.382 157.738C135.657 156.724 113.8 160.527 113.001 166.613C112.201 172.698 121.264 205.336 121.264 234.566C121.264 238.876 121.797 243.694 130.859 243.694C139.921 243.694 181.501 246.736 182.035 236.848C182.568 226.959 179.903 217.071 180.702 202.872C181.501 188.672 183.901 172.445 179.902 168.642Z" fill="#6838CB" stroke="#263238" stroke-miterlimit="10" strokeLinecap="round" strokeLinejoin="round"/>
<path d="M117.4 162.388C117.4 162.388 110.868 164.331 109.447 174.135C108.025 183.939 101.806 206.083 104.117 206.591C106.426 207.098 98.6078 210.986 101.451 216.733C104.294 222.48 117.088 241.074 124.551 239.046C132.014 237.017 131.659 225.523 129.349 223.495C127.039 221.467 119.22 217.24 119.22 217.24C119.22 217.24 121.529 215.888 118.687 213.352C115.844 210.816 120.743 214.631 122.241 206.083C124.017 195.941 130.237 181.404 126.505 172.615" fill="#6838CB"/>
<path d="M117.4 162.388C117.4 162.388 110.868 164.331 109.447 174.135C108.025 183.939 101.806 206.083 104.117 206.591C106.426 207.098 98.6078 210.986 101.451 216.733C104.294 222.48 117.088 241.074 124.551 239.046C132.014 237.017 131.659 225.523 129.349 223.495C127.039 221.467 119.22 217.24 119.22 217.24C119.22 217.24 121.529 215.888 118.687 213.352C115.844 210.816 120.743 214.631 122.241 206.083C124.017 195.941 130.237 181.404 126.505 172.615" stroke="#263238" stroke-miterlimit="10" strokeLinecap="round" strokeLinejoin="round"/>
<path d="M117.798 208.111C117.798 208.111 107.67 205.745 105.005 209.802C102.339 213.859 109.214 208.957 115.817 210.647" stroke="#263238" stroke-miterlimit="10" strokeLinecap="round" strokeLinejoin="round"/>
<path d="M132.458 227.382C130.876 226.238 127.038 224.254 124.551 226.621C122.063 228.987 116.111 230.339 116.466 232.114C116.822 233.889 119.043 234.396 123.041 232.453C127.039 230.509 123.737 232.96 124.455 236.848C125.174 240.736 125.762 244.276 128.889 243.605C128.889 243.605 129.166 245.298 132.015 244.539C132.015 244.539 134.147 246.282 137.524 244.734C137.524 244.734 139.39 246.652 142.144 243.356C144.898 240.06 143.21 239.199 143.21 239.199C143.21 239.199 141.966 235.381 139.212 239.199C139.212 239.199 139.688 234.483 136.902 231.523C135.863 230.421 133.697 228.276 132.458 227.382Z" fill="white" stroke="#263238" stroke-miterlimit="10" strokeLinecap="round" strokeLinejoin="round"/>
<path d="M130.086 242.426C130.086 242.426 134.591 239.552 133.614 237.862C132.636 236.171 128.994 239.721 128.994 239.721C128.994 239.721 129.527 238.808 128.461 237.405" stroke="#263238" stroke-miterlimit="10" strokeLinecap="round" strokeLinejoin="round"/>
<path d="M133.347 243.355C133.347 243.355 140.153 241.235 138.589 239.198C137.212 237.405 134.28 239.467 134.28 239.467" stroke="#263238" stroke-miterlimit="10" strokeLinecap="round" strokeLinejoin="round"/>
<path d="M142.409 239.916C142.409 239.916 141.687 241.945 138.495 243.897" stroke="#263238" stroke-miterlimit="10" strokeLinecap="round" strokeLinejoin="round"/>
<path d="M131.106 233.932C131.106 233.932 132.55 236.307 134.99 237.406" stroke="#263238" stroke-miterlimit="10" strokeLinecap="round" strokeLinejoin="round"/>
<path d="M117.798 216.437C117.798 216.437 112.068 213.648 107.669 215.803" stroke="#263238" stroke-miterlimit="10" strokeLinecap="round" strokeLinejoin="round"/>
<path d="M161.111 162.937L156.535 161.289L151.382 162.937C151.382 162.937 154.847 168.135 156.247 168.388C156.247 168.388 161.266 207.325 162.844 225.512C164.421 243.699 163.91 245.375 163.91 245.375L170.841 251.047L175.905 243.897C175.905 243.897 173.239 215.296 169.774 198.308C166.31 181.32 159.913 168.135 159.913 168.135C159.913 168.135 161.955 165.515 161.111 162.937Z" fill="#92E3A9"/>
<mask id="mask4_639_31210" style="mask-type:luminance" maskUnits="userSpaceOnUse" x="151" y="161" width="25" height="91">
<path d="M161.111 162.937L156.535 161.289L151.382 162.937C151.382 162.937 154.847 168.135 156.247 168.388C156.247 168.388 161.266 207.325 162.844 225.512C164.421 243.699 163.91 245.375 163.91 245.375L170.841 251.047L175.905 243.897C175.905 243.897 173.239 215.296 169.774 198.308C166.31 181.32 159.913 168.135 159.913 168.135C159.913 168.135 161.955 165.515 161.111 162.937Z" fill="white"/>
</mask>
<g mask="url(#mask4_639_31210)">
<path opacity="0.3" d="M161.111 162.937L156.535 161.289L151.382 162.937C151.382 162.937 154.847 168.135 156.247 168.388C156.247 168.388 161.266 207.325 162.844 225.512C164.421 243.699 163.91 245.375 163.91 245.375L170.841 251.047L175.905 243.897C175.905 243.897 173.239 215.296 169.774 198.308C166.31 181.32 159.913 168.135 159.913 168.135C159.913 168.135 161.955 165.515 161.111 162.937Z" fill="black"/>
</g>
<path d="M161.111 162.937L156.535 161.289L151.382 162.937C151.382 162.937 154.847 168.135 156.247 168.388C156.247 168.388 161.266 207.325 162.844 225.512C164.421 243.699 163.91 245.375 163.91 245.375L170.841 251.047L175.905 243.897C175.905 243.897 173.239 215.296 169.774 198.308C166.31 181.32 159.913 168.135 159.913 168.135C159.913 168.135 161.955 165.515 161.111 162.937Z" stroke="#263238" stroke-miterlimit="10" strokeLinecap="round" strokeLinejoin="round"/>
<path d="M161.66 149.625C161.66 149.625 160.753 155.473 162.998 159.479C162.998 159.479 158.135 161.606 156.048 161.859C153.96 162.112 143.253 155.742 143.253 155.742C143.253 155.742 145.438 146.579 144.745 135.297C144.053 124.015 156.847 142.347 156.847 142.347L162.998 147.976L161.66 149.625Z" fill="white"/>
<mask id="mask5_639_31210" style="mask-type:luminance" maskUnits="userSpaceOnUse" x="143" y="131" width="20" height="31">
<path d="M161.66 149.625C161.66 149.625 160.753 155.473 162.998 159.479C162.998 159.479 158.135 161.606 156.048 161.859C153.96 162.112 143.253 155.742 143.253 155.742C143.253 155.742 145.438 146.579 144.745 135.297C144.053 124.015 156.847 142.347 156.847 142.347L162.998 147.976L161.66 149.625Z" fill="white"/>
</mask>
<g mask="url(#mask5_639_31210)">
<path d="M163.643 150.132C163.643 150.132 163.764 153.935 158.373 153.809C152.981 153.682 147.621 145.663 146.716 143.666C145.811 141.67 144.745 132.257 144.745 132.257L158.373 136.078L164.946 149.626L163.643 150.132Z" fill="#263238" stroke="#263238" stroke-miterlimit="10" strokeLinecap="round" strokeLinejoin="round"/>
</g>
<path d="M161.66 149.625C161.66 149.625 160.753 155.473 162.998 159.479C162.998 159.479 158.135 161.606 156.048 161.859C153.96 162.112 143.253 155.742 143.253 155.742C143.253 155.742 145.438 146.579 144.745 135.297C144.053 124.015 156.847 142.347 156.847 142.347L162.998 147.976L161.66 149.625Z" stroke="#263238" stroke-miterlimit="10" strokeLinecap="round" strokeLinejoin="round"/>
<path d="M162.222 156.555C162.222 156.555 159.556 161.119 156.535 161.288C153.514 161.457 143.386 151.653 141.254 153.175C139.122 154.696 138.494 157.152 138.494 157.152L147.549 167.881C147.549 167.881 154.181 162.219 156.846 162.388C159.512 162.556 165.242 167.881 165.242 167.881V160.111C165.242 160.111 163.482 154.781 162.222 156.555Z" fill="#92E3A9" stroke="#263238" stroke-miterlimit="10" strokeLinecap="round" strokeLinejoin="round"/>
<path d="M166.085 115.54C166.085 115.54 169.817 126.472 169.08 129.255C169.08 129.255 172.555 149.982 164.245 151.637C157.717 152.938 151.265 146.662 148.8 143.912C148.121 143.155 147.614 142.272 147.292 141.324L145.695 136.638C145.695 136.638 142.437 136.878 140.453 132.515C138.47 128.151 142.511 123.904 145.641 130.522C145.641 130.522 148.09 123.828 147.907 121.144C147.723 118.46 151.247 119.112 151.979 116.453C151.977 116.453 160.368 117.807 166.085 115.54Z" fill="white"/>
<path d="M166.085 115.54C166.085 115.54 169.817 126.472 169.08 129.255C169.08 129.255 172.555 149.982 164.245 151.637C157.717 152.938 151.265 146.662 148.8 143.912C148.121 143.155 147.614 142.272 147.292 141.324L145.695 136.638C145.695 136.638 142.437 136.878 140.453 132.515C138.47 128.151 142.511 123.904 145.641 130.522C145.641 130.522 148.09 123.828 147.907 121.144C147.723 118.46 151.247 119.112 151.979 116.453C151.977 116.453 160.368 117.807 166.085 115.54Z" stroke="#263238" stroke-miterlimit="10" strokeLinecap="round" strokeLinejoin="round"/>
<path d="M165.691 131.146L170.104 136.707C170.556 137.276 170.302 138.099 169.599 138.347L166.467 139.449" fill="white"/>
<path d="M165.691 131.146L170.104 136.707C170.556 137.276 170.302 138.099 169.599 138.347L166.467 139.449" stroke="#263238" stroke-miterlimit="10" strokeLinecap="round" strokeLinejoin="round"/>
<path d="M159.261 141.67C159.261 141.67 160.629 144.488 165.208 141.997" stroke="#263238" stroke-miterlimit="10" strokeLinecap="round" strokeLinejoin="round"/>
<path d="M164.937 130.922C165.072 133.688 163.716 135.995 161.905 136.076C160.095 136.156 158.518 133.979 158.383 131.213C158.248 128.447 159.605 127.657 161.415 127.576C163.224 127.495 164.801 128.155 164.937 130.922Z" stroke="#263238" stroke-miterlimit="10" strokeLinecap="round" strokeLinejoin="round"/>
<path d="M173.266 130.298C173.401 133.064 172.313 135.359 170.835 135.425C169.358 135.491 168.05 133.301 167.914 130.535C167.778 127.768 168.88 126.99 170.358 126.924C171.836 126.859 173.13 127.531 173.266 130.298Z" fill="white" stroke="#263238" stroke-miterlimit="10" strokeLinecap="round" strokeLinejoin="round"/>
<path d="M158.374 126.896C158.374 126.896 160.346 124.018 163.836 126.217" stroke="#263238" stroke-miterlimit="10" strokeLinecap="round" strokeLinejoin="round"/>
<path d="M168.004 126.209C168.004 126.209 168.986 125.024 170.442 124.867" stroke="#263238" stroke-miterlimit="10" strokeLinecap="round" strokeLinejoin="round"/>
<path d="M158.382 131.212C158.382 131.212 155.738 131.91 154.844 131.823C152.138 131.563 144.746 127.97 144.746 127.97" stroke="#263238" stroke-miterlimit="10" strokeLinecap="round" strokeLinejoin="round"/>
<path d="M167.902 130.08L165.069 130.57" stroke="#263238" stroke-miterlimit="10" strokeLinecap="round" strokeLinejoin="round"/>
<path d="M163.346 131.258C163.267 132.108 162.752 132.76 162.196 132.713C161.64 132.666 161.252 131.939 161.331 131.088C161.41 130.238 161.925 129.587 162.482 129.633C163.038 129.68 163.425 130.408 163.346 131.258Z" fill="#263238"/>
<path d="M170.236 130.323C170.159 131.151 169.774 131.796 169.376 131.763C168.979 131.73 168.719 131.031 168.796 130.202C168.873 129.373 169.258 128.728 169.656 128.761C170.053 128.795 170.312 129.494 170.236 130.323Z" fill="#263238"/>
<path d="M138.628 226.68C140.028 223.066 149.428 223.662 149.428 223.662" stroke="#263238" stroke-miterlimit="10" strokeLinecap="round" strokeLinejoin="round"/>
<path d="M161.052 228.508C151.098 230.898 140.253 232.621 138.822 229.241" stroke="#263238" stroke-miterlimit="10" strokeLinecap="round" strokeLinejoin="round"/>
<path d="M178.25 223.663C178.25 223.663 177.212 224.002 175.471 224.536" stroke="#263238" stroke-miterlimit="10" strokeLinecap="round" strokeLinejoin="round"/>
<path d="M382.876 373.31H31.5024V326.532C31.5024 326.532 99.5936 300.166 187.536 300.166C294.681 300.166 382.876 373.31 382.876 373.31Z" fill="#A892D5" stroke="#263238" stroke-miterlimit="10" strokeLinecap="round" strokeLinejoin="round"/>
<path opacity="0.2" d="M238.101 313.22L196.625 307.622L154.435 314.751L195.91 320.35L238.101 313.22Z" fill="black"/>
<path d="M233.022 312.824L194.479 307.622L155.272 314.247L193.815 319.45L233.022 312.824Z" fill="white" stroke="#263238" stroke-miterlimit="10" strokeLinecap="round" strokeLinejoin="round"/>
<path d="M238.101 311.264L199.557 306.062L160.35 312.687L198.893 317.889L238.101 311.264Z" fill="white" stroke="#263238" stroke-miterlimit="10" strokeLinecap="round" strokeLinejoin="round"/>
<path opacity="0.2" d="M158.915 340.058C166.229 340.058 172.158 338.847 172.158 337.353C172.158 335.859 166.229 334.648 158.915 334.648C151.602 334.648 145.673 335.859 145.673 337.353C145.673 338.847 151.602 340.058 158.915 340.058Z" fill="black"/>
<path d="M166.566 336.617C166.566 337.369 162.292 337.978 157.018 337.978C151.745 337.978 147.47 337.369 147.47 336.617V318.696C147.47 317.944 151.745 317.334 157.018 317.334C162.292 317.334 166.566 317.944 166.566 318.696V336.617Z" fill="white" stroke="#263238" stroke-miterlimit="10" strokeLinecap="round" strokeLinejoin="round"/>
<path d="M166.566 318.695C166.566 319.447 162.292 320.057 157.018 320.057C151.745 320.057 147.47 319.447 147.47 318.695C147.47 317.943 151.745 317.333 157.018 317.333C162.292 317.334 166.566 317.944 166.566 318.695Z" fill="white" stroke="#263238" stroke-miterlimit="10" strokeLinecap="round" strokeLinejoin="round"/>
<path d="M165.416 334.919C164.89 334.919 164.432 334.551 164.357 334.041C164.274 333.484 164.682 332.969 165.269 332.891C165.513 332.857 171.308 331.993 171.308 326.778C171.308 325.464 170.956 324.574 170.261 324.131C168.977 323.311 166.567 323.954 165.824 324.244C165.276 324.456 164.651 324.208 164.426 323.688C164.201 323.167 164.464 322.572 165.01 322.359C165.412 322.202 169.001 320.873 171.453 322.439C172.777 323.283 173.449 324.743 173.449 326.778C173.449 332.377 168.292 334.544 165.565 334.908C165.516 334.915 165.465 334.919 165.416 334.919Z" fill="white" stroke="#263238" stroke-miterlimit="10" strokeLinecap="round" strokeLinejoin="round"/>
<path d="M179.138 323.259C178.501 323.865 178.075 324.443 178.187 324.549C178.299 324.656 178.906 324.25 179.543 323.644C180.18 323.038 180.606 322.46 180.494 322.354C180.383 322.247 179.776 322.652 179.138 323.259Z" fill="#263238" stroke="#263238" stroke-miterlimit="10" strokeLinecap="round" strokeLinejoin="round"/>
<path d="M182.579 317.756C179.963 320.244 178.459 322.848 179.219 323.571C179.979 324.295 182.715 322.863 185.331 320.375L202.194 304.334C204.81 301.845 206.314 299.242 205.554 298.519C204.794 297.795 202.057 299.227 199.441 301.715L182.579 317.756Z" fill="#92E3A9" stroke="#263238" stroke-miterlimit="10" strokeLinecap="round" strokeLinejoin="round"/>
<path d="M199.72 306.688L199.02 307.353C198.539 306.963 198.06 306.545 197.588 306.097C197.117 305.649 196.677 305.192 196.268 304.735L196.967 304.07C197.376 304.527 197.816 304.984 198.288 305.432C198.759 305.88 199.238 306.299 199.72 306.688Z" fill="#263238" stroke="#263238" stroke-miterlimit="10" strokeLinecap="round" strokeLinejoin="round"/>
<path d="M203.48 298.773C203.48 298.773 202.316 298.057 199.644 300.021C196.972 301.985 194.482 305.393 193.268 305.278" stroke="#263238" stroke-miterlimit="10" strokeLinecap="round" strokeLinejoin="round"/>
<path d="M171.019 331.895C171.019 331.895 172.957 327.217 172.957 324.808C172.957 322.398 178.019 314.318 181.746 312.9C185.473 311.483 198.099 305.529 199.013 307.939C199.928 310.348 194.265 313.325 193.073 313.892C191.881 314.46 189.348 316.728 189.348 316.728C189.348 316.728 195.111 315.576 195.756 313.751C196.4 311.926 198.149 309.498 199.113 311.057C200.077 312.616 199.63 316.585 198.141 319.633V321.689C198.141 321.689 199.78 324.099 197.992 326.084L196.621 327.501C196.621 327.501 199.034 329.911 195.757 331.896C195.757 331.896 197.247 334.022 194.565 336.148C194.565 336.148 188.901 338.84 185.322 339.692C181.744 340.544 178.62 345.646 178.62 345.646L171.019 331.895Z" fill="white" stroke="#263238" stroke-miterlimit="10" strokeLinecap="round" strokeLinejoin="round"/>
<path d="M61.4712 250.577L70.8144 229.718L64.768 212.247L64.168 192.211L80.6288 182.978L95.1624 180.524L101.09 183.958L103.551 189.674C103.551 189.674 110.942 204.62 109.803 207.486C108.664 210.351 107.807 213.07 107.807 213.07C107.807 213.07 111.298 220.835 113.357 223.294C115.383 225.713 109.021 224.262 108.275 228.702C107.525 233.169 108.414 244.925 102.932 245.462C97.4496 246 94.1352 244.293 93.6232 248.929C93.1112 253.565 87.4864 265.321 87.4864 265.321L61.4712 250.577Z" fill="white" stroke="#263238" stroke-miterlimit="10" strokeLinecap="round" strokeLinejoin="round"/>
<path d="M107.31 167.166C106.515 164.479 98.8084 168.214 98.0068 173.977C98.0068 173.977 97.0196 165.16 94.4812 164.333C92.2588 163.608 89.1844 167.604 90.2956 172.338C90.2956 172.338 81.9828 167.971 79.3004 168.986C77.322 169.734 76.6196 173.607 80.9012 176.943C80.9012 176.943 54.9196 171.171 56.4364 193.802C56.4364 193.802 42.1476 204.451 68.5828 234.697C68.5828 234.697 74.8548 233.304 76.5428 232.314C77.5444 231.726 85.9028 225.123 85.9028 225.123C83.4924 224.263 79.3308 221.815 78.1932 218.867C76.7524 215.131 78.6804 210.663 82.2212 210.044C84.3236 209.678 85.518 210.616 87.05 212.298C87.05 212.298 83.5852 207.918 83.8004 206.227C84.0716 204.103 89.302 201.861 89.6852 199.752C89.866 198.758 87.5308 196.811 88.146 195.989C91.2844 191.798 106.272 196.646 104.736 182.778C103.203 168.909 108.435 170.968 107.31 167.166Z" fill="#263238" stroke="#263238" stroke-miterlimit="10" strokeLinecap="round" strokeLinejoin="round"/>
<path d="M106.761 212.015C106.794 213.113 106.541 214.009 106.194 214.019C105.848 214.029 105.541 213.146 105.508 212.049C105.475 210.952 105.729 210.055 106.075 210.045C106.421 210.036 106.729 210.917 106.761 212.015Z" fill="#263238"/>
<path d="M104.138 208.062C104.138 208.062 105.048 205.253 106.884 205.07" stroke="#263238" stroke-miterlimit="10" strokeLinecap="round" strokeLinejoin="round"/>
<path d="M84.5063 186.452C93.4839 187.167 86.0575 173.991 86.0575 173.991" stroke="#7F7F7F" strokeLinecap="round" strokeLinejoin="round"/>
<path d="M61.7344 192.622C61.7344 192.622 68.7992 182.349 81.808 185.941" stroke="#7F7F7F" strokeLinecap="round" strokeLinejoin="round"/>
<path d="M96.7718 180.57C97.6502 185.128 96.787 191.222 86.2886 191.957" stroke="#7F7F7F" strokeLinecap="round" strokeLinejoin="round"/>
<path d="M95.0107 175.502C95.0107 175.502 95.4683 176.345 95.9475 177.649" stroke="#7F7F7F" strokeLinecap="round" strokeLinejoin="round"/>
<path d="M104.708 373.31C104.708 373.31 112.803 289.935 103.167 274.201C93.531 258.466 64.907 239.971 54.639 248.012C19.0246 275.902 18.903 299.716 16.6406 373.31H104.708Z" fill="#074973" stroke="#263238" stroke-miterlimit="10" strokeLinecap="round" strokeLinejoin="round"/>
<path d="M96.8847 271.224C96.8847 271.224 108.212 274.201 114.506 291.211C120.286 306.831 130.796 327.429 137.814 337.695C138.9 339.283 140.874 340.103 142.84 339.791C145.929 339.303 151.818 338.93 157.459 335.863C162.681 333.025 167.294 329.91 173.106 330.76C178.917 331.611 182.535 337.003 181.599 344.794C180.705 352.236 147.258 371.585 127.507 371.585C111.389 371.585 96.6615 327.358 91.7439 314.175C86.8263 300.992 81.6855 272.075 96.8847 271.224Z" fill="#074973" stroke="#263238" stroke-miterlimit="10" strokeLinecap="round" strokeLinejoin="round"/>
<path d="M90.9277 272.976C92.2845 271.958 93.9573 271.339 95.9965 271.224" stroke="#7F7F7F" strokeLinecap="round" strokeLinejoin="round"/>
<path d="M86.9863 279.206C87.3183 278.102 87.7319 277.082 88.2367 276.166" stroke="#7F7F7F" strokeLinecap="round" strokeLinejoin="round"/>
<path d="M103.531 342.079C97.6151 330.979 92.9447 319.776 90.8559 314.175C87.7927 305.962 84.6423 291.642 86.3775 281.807" stroke="#7F7F7F" strokeLinecap="round" strokeLinejoin="round"/>
<path d="M96.512 268.247C96.512 268.247 100.982 261.726 96.512 256.34C92.0416 250.954 71.6336 239.294 64.0272 242.165C62.4568 242.758 60.2088 244.505 61.224 248.013C61.224 248.013 76.544 248.685 96.512 268.247Z" fill="#074973" stroke="#263238" stroke-miterlimit="10" strokeLinecap="round" strokeLinejoin="round"/>
<path d="M94.0293 266.414C94.6629 267.006 95.3021 267.617 95.9461 268.247" stroke="#7F7F7F" strokeLinecap="round" strokeLinejoin="round"/>
<path d="M66.4365 249.219C71.7445 250.831 80.3213 254.58 90.5205 263.278" stroke="#7F7F7F" strokeLinecap="round" strokeLinejoin="round"/>
<path d="M60.6582 248.012C60.6582 248.012 61.6022 248.054 63.3262 248.415" stroke="#7F7F7F" strokeLinecap="round" strokeLinejoin="round"/>
<path d="M142.259 350.747C142.259 350.747 142.259 346.069 139.801 344.793C137.342 343.517 139.353 350.747 136.895 356.701" stroke="#7F7F7F" strokeLinecap="round" strokeLinejoin="round"/>
<path d="M116.331 299.716C116.331 299.716 118.343 299.929 120.131 319.491" stroke="#7F7F7F" strokeLinecap="round" strokeLinejoin="round"/>
<path d="M85.9037 225.122L87.6117 225.438C87.6117 225.438 87.6453 229.406 89.2845 232.383C90.9237 235.36 93.1589 235.927 98.4981 241.716C103.475 247.112 105.761 243.598 106.049 243.095C105.344 244.422 104.353 245.322 102.931 245.462C97.4485 245.999 94.1341 244.292 93.6221 248.928C92.7445 245.344 89.8805 241.03 87.6117 235.643C85.3429 230.257 85.9037 225.122 85.9037 225.122Z" fill="#263238" stroke="#263238" stroke-miterlimit="10" strokeLinecap="round" strokeLinejoin="round"/>
<path opacity="0.3" d="M88.2414 221.752C88.871 218.066 85.0694 210.529 87.051 212.297C89.0326 214.065 91.6686 220.476 94.7982 222.922C97.9278 225.369 97.6294 231.108 102.1 228.698C104.61 227.345 106.932 227.511 108.486 227.918C108.395 228.157 108.323 228.417 108.275 228.702C107.525 233.169 108.414 244.925 102.932 245.462C101.093 245.642 99.5062 245.573 98.179 245.572C95.0742 242.324 90.6398 237.493 88.943 234.697C86.2158 230.204 87.6118 225.438 88.2414 221.752Z" fill="#263238"/>
<path d="M107.269 232.419C107.269 232.419 104.463 231.188 104.516 229.433" stroke="#263238" stroke-miterlimit="10" strokeLinecap="round" strokeLinejoin="round"/>
</svg>
