<svg width="40" height="40" viewBox="0 0 40 40" fill="none" xmlns="http://www.w3.org/2000/svg">
<path d="M4.93016 3.86043C3.9143 4.45246 3.01281 5.00411 2.93208 5.07812L2.77734 5.2194V7.62113C2.77734 9.63266 2.7908 10.0363 2.87826 10.1574C2.93208 10.2314 3.85375 10.8032 4.9167 11.4155C6.39003 12.2631 6.91478 12.5322 7.08969 12.5322C7.26461 12.5322 7.78263 12.2631 9.20214 11.4491C10.2382 10.8571 11.1531 10.292 11.2339 10.2045C11.3886 10.0363 11.3886 10.0296 11.3886 7.62785V5.22612L11.2069 5.05793C11.0993 4.96375 10.1978 4.41209 9.18869 3.83352C7.5808 2.90512 7.31843 2.7773 7.06951 2.78403C6.82059 2.78403 6.51113 2.93876 4.93016 3.86043ZM8.19974 4.90993C8.76485 5.23958 9.22905 5.52213 9.23578 5.54232C9.23578 5.5625 8.7514 5.85851 8.15937 6.19489L7.08297 6.82055L6.00656 6.19489C5.41454 5.85178 4.93016 5.55577 4.93016 5.53559C4.93688 5.48177 6.97533 4.33136 7.07624 4.32463C7.12333 4.32463 7.63463 4.58701 8.19974 4.90993ZM5.30017 7.43948L6.37658 8.06514L6.39676 9.32319C6.40349 10.0161 6.39003 10.5812 6.36312 10.5812C6.32948 10.5745 5.82492 10.292 5.23289 9.94885L4.15649 9.31646L4.13631 8.06514C4.12958 7.37893 4.14303 6.81382 4.16994 6.81382C4.20358 6.81382 4.70815 7.09638 5.30017 7.43948ZM10.0296 8.06514L10.0094 9.32319L8.93304 9.94885C8.34102 10.292 7.83645 10.5745 7.80281 10.5812C7.7759 10.5812 7.76245 10.0161 7.76918 9.32319L7.78936 8.06514L8.86576 7.43948C9.45779 7.09638 9.96235 6.81382 9.99599 6.81382C10.0229 6.81382 10.0364 7.37893 10.0296 8.06514Z" fill="#969DA4"/>
<path d="M24.5684 2.97248C24.4405 3.10703 24.3733 3.24158 24.3733 3.37613C24.3733 3.4905 24.3598 3.58468 24.3464 3.58468C24.3262 3.58468 24.0638 3.52414 23.7543 3.45013C22.9941 3.26849 22.8058 3.27522 22.5568 3.49723C22.2675 3.7596 22.2272 4.08252 22.4357 4.39199C22.5905 4.614 22.6376 4.64091 23.5592 4.86292L24.5213 5.09838L24.2589 5.21275C23.9494 5.35403 23.8082 5.57604 23.8149 5.91241C23.8216 6.22861 23.9898 6.45734 24.2724 6.53807C24.5616 6.6188 24.6222 6.59862 25.9139 6.07387C26.7683 5.71731 26.9701 5.60967 27.0777 5.44148C27.3132 5.06474 27.219 4.81582 26.5463 4.04216C25.4631 2.79083 25.4497 2.77738 25.0864 2.77738C24.824 2.77738 24.7298 2.81102 24.5684 2.97248Z" fill="#969DA4"/>
<path d="M30.7641 3.86043C29.7483 4.45246 28.8468 5.00411 28.7661 5.07812L28.6113 5.2194V7.62113C28.6113 9.63266 28.6248 10.0363 28.7122 10.1574C28.7661 10.2314 29.6877 10.8032 30.7507 11.4155C32.224 12.2631 32.7488 12.5322 32.9237 12.5322C33.0986 12.5322 33.6166 12.2631 35.0361 11.4491C36.0722 10.8571 36.9871 10.292 37.0746 10.2045C37.2226 10.0363 37.2226 10.0296 37.2226 7.62785V5.22612L37.0409 5.05793C36.9333 4.96375 36.0318 4.41209 35.0227 3.83352C33.4148 2.90512 33.1524 2.7773 32.9035 2.78403C32.6546 2.78403 32.3451 2.93876 30.7641 3.86043ZM34.0337 4.90993C34.5988 5.23958 35.063 5.52213 35.0698 5.54232C35.0698 5.5625 34.5854 5.85851 33.9934 6.19489L32.917 6.82055L31.8405 6.19489C31.2485 5.85178 30.7641 5.55577 30.7641 5.53559C30.7709 5.48177 32.8093 4.33136 32.9102 4.32463C32.9573 4.32463 33.4686 4.58701 34.0337 4.90993ZM31.1342 7.43948L32.2106 8.06514L32.2307 9.32319C32.2375 10.0161 32.224 10.5812 32.1971 10.5812C32.1635 10.5745 31.6589 10.292 31.0669 9.94885L29.9905 9.31646L29.9703 8.06514C29.9636 7.37893 29.977 6.81382 30.0039 6.81382C30.0376 6.81382 30.5421 7.09638 31.1342 7.43948ZM35.8636 8.06514L35.8434 9.32319L34.767 9.94885C34.175 10.292 33.6704 10.5745 33.6368 10.5812C33.6099 10.5812 33.5964 10.0161 33.6032 9.32319L33.6233 8.06514L34.6997 7.43948C35.2918 7.09638 35.7963 6.81382 35.83 6.81382C35.8569 6.81382 35.8703 7.37893 35.8636 8.06514Z" fill="#969DA4"/>
<path d="M19.523 3.24157C19.1395 3.62504 19.3144 4.30452 19.8257 4.43234C20.0679 4.49289 20.3168 4.41216 20.5119 4.22379C20.633 4.09597 20.6734 3.98832 20.6734 3.75286C20.6734 3.3223 20.411 3.04647 20.0007 3.04647C19.7786 3.04647 19.6777 3.08683 19.523 3.24157Z" fill="#969DA4"/>
<path d="M16.6027 3.36262C14.645 3.80663 12.9766 4.40538 12.8017 4.72158C12.768 4.79558 12.7344 4.97722 12.7344 5.13196C12.7344 5.35397 12.7747 5.45488 12.9295 5.60961C13.1986 5.87199 13.4206 5.86526 14.2548 5.53561C14.9208 5.27324 15.8963 4.98395 16.8987 4.74849C17.4907 4.60721 17.6791 4.41884 17.6791 3.98155C17.6791 3.75281 17.6387 3.67208 17.4571 3.51062C17.2418 3.31552 16.9862 3.27516 16.6027 3.36262Z" fill="#969DA4"/>
<path d="M17.4373 9.49807C17.2489 9.69316 17.2422 9.71335 17.2422 10.3996V11.1059L16.8924 11.227C16.6973 11.2876 16.3407 11.4289 16.1053 11.5365L15.6747 11.7249L15.1903 11.254C14.7194 10.8032 14.6857 10.783 14.3763 10.783H14.0466L12.4186 12.4178L10.7838 14.0459V14.3755C10.7838 14.685 10.804 14.7186 11.2547 15.1896L11.7256 15.6739L11.5373 16.1045C11.4296 16.34 11.2883 16.6965 11.2278 16.8849L11.1067 17.2415H10.4003C9.71409 17.2415 9.69391 17.2482 9.49881 17.4366L9.30371 17.6317V19.9998V22.3678L9.49881 22.5629C9.69391 22.7513 9.71409 22.758 10.4003 22.758H11.1067L11.2278 23.1079C11.2883 23.303 11.4296 23.6595 11.5373 23.895L11.7256 24.3256L11.2547 24.8099C10.804 25.2809 10.7838 25.3145 10.7838 25.624V25.9536L12.4186 27.5817L14.0466 29.2165H14.3763C14.6857 29.2165 14.7194 29.1963 15.1903 28.7455L15.6747 28.2746L16.1053 28.463C16.3407 28.5706 16.6973 28.7119 16.8924 28.7725L17.2422 28.8936V29.5999C17.2422 30.2862 17.2489 30.3063 17.4373 30.5014L17.6324 30.6965H20.0005H22.3686L22.5637 30.5014C22.7521 30.3063 22.7588 30.2862 22.7588 29.5999V28.8936L23.1153 28.7725C23.3037 28.7119 23.6603 28.5706 23.8957 28.463L24.3263 28.2746L24.8107 28.7455C25.2816 29.1963 25.3152 29.2165 25.6247 29.2165H25.9544L27.5824 27.5817L29.2172 25.9536V25.624C29.2172 25.3145 29.197 25.2809 28.7463 24.8099L28.2754 24.3256L28.4637 23.895C28.5714 23.6595 28.7127 23.303 28.7732 23.1079L28.8943 22.758H29.6007C30.2869 22.758 30.3071 22.7513 30.5022 22.5629L30.6973 22.3678V19.9998V17.6317L30.5022 17.4366C30.3071 17.2482 30.2869 17.2415 29.6007 17.2415H28.8943L28.7732 16.8849C28.7127 16.6965 28.5714 16.34 28.4637 16.1045L28.2754 15.6739L28.7463 15.1896C29.197 14.7186 29.2172 14.685 29.2172 14.3755V14.0459L27.5824 12.4178L25.9544 10.783H25.6247C25.3152 10.783 25.2816 10.8032 24.8107 11.254L24.3263 11.7249L23.8957 11.5365C23.6603 11.4289 23.3037 11.2876 23.1153 11.227L22.7588 11.1059V10.3996C22.7588 9.71335 22.7521 9.69316 22.5637 9.49807L22.3686 9.30297H20.0005H17.6324L17.4373 9.49807ZM21.346 11.2203C21.346 11.7989 21.4536 12.1285 21.6891 12.2429C21.7766 12.2833 22.1062 12.3976 22.4224 12.4985C22.7386 12.5995 23.2903 12.8349 23.6535 13.0166C24.5079 13.4539 24.6358 13.4404 25.2143 12.8686L25.618 12.4649L26.58 13.4269L27.5353 14.3823L27.1317 14.7859C26.5598 15.3577 26.5464 15.4923 26.9769 16.3467C27.1653 16.71 27.4008 17.2616 27.495 17.5778C27.5959 17.894 27.717 18.2237 27.7573 18.3111C27.8717 18.5466 28.2014 18.6542 28.7799 18.6542H29.2845V19.9998V21.3453H28.7799C28.2014 21.3453 27.8717 21.4529 27.7573 21.6884C27.717 21.7758 27.5959 22.1055 27.495 22.4217C27.4008 22.7379 27.1653 23.2895 26.9769 23.6528C26.5464 24.5072 26.5598 24.635 27.1317 25.2136L27.5353 25.6172L26.5733 26.5793L25.618 27.5346L25.2143 27.1309C24.6425 26.5591 24.5079 26.5456 23.6535 26.9829C23.2903 27.1646 22.7386 27.4 22.4224 27.501C22.1062 27.6019 21.7766 27.7162 21.6891 27.7566C21.4536 27.871 21.346 28.2006 21.346 28.7792V29.2838H20.0005H18.655V28.7792C18.655 28.2006 18.5473 27.871 18.3119 27.7566C18.2244 27.7162 17.8948 27.5951 17.5786 27.4942C17.2624 27.4 16.7107 27.1646 16.3474 26.9762C15.493 26.5456 15.3652 26.5591 14.7867 27.1309L14.383 27.5346L13.421 26.5726L12.4657 25.6172L12.8693 25.2136C13.4411 24.6418 13.4546 24.5072 13.024 23.6528C12.8357 23.2895 12.6002 22.7379 12.506 22.4217C12.4051 22.1055 12.284 21.7758 12.2436 21.6884C12.1293 21.4529 11.7996 21.3453 11.2211 21.3453H10.7165V19.9998V18.6542H11.2211C11.7996 18.6542 12.1293 18.5466 12.2436 18.3111C12.284 18.2237 12.4051 17.894 12.506 17.5778C12.6002 17.2616 12.8357 16.71 13.024 16.3467C13.4546 15.4923 13.4411 15.3577 12.8693 14.7859L12.4657 14.3823L13.421 13.4269L14.383 12.4649L14.7867 12.8686C15.3652 13.4404 15.493 13.4539 16.3474 13.0233C16.7107 12.8349 17.2624 12.5995 17.5786 12.5053C17.8948 12.4044 18.2244 12.2833 18.3119 12.2429C18.5473 12.1285 18.655 11.7989 18.655 11.2203V10.7157H20.0005H21.346V11.2203Z" fill="#969DA4"/>
<path d="M19.684 15.4587C19.4486 15.5596 19.3275 15.7345 19.3275 15.9767C19.3275 16.1045 19.2669 16.1584 18.9978 16.2525C18.5673 16.4006 17.9618 16.9589 17.7331 17.403C17.4774 17.8941 17.4438 18.6745 17.6456 19.2059C17.9685 20.0671 18.7489 20.6187 19.8186 20.7331C20.6864 20.834 21.0766 21.1233 21.0766 21.6817C21.0766 22.4352 20.0473 22.8724 19.3477 22.4082C19.0718 22.2266 18.9642 22.0382 18.8902 21.5875C18.8229 21.1973 18.6009 21.0089 18.1905 21.0089C17.9012 21.0089 17.834 21.0358 17.6792 21.2242C17.511 21.426 17.4976 21.4798 17.5245 21.8902C17.585 22.711 18.0694 23.3905 18.87 23.7672C19.2064 23.9287 19.3006 24.0094 19.3544 24.1843C19.462 24.5072 19.8522 24.6889 20.2088 24.5812C20.4712 24.5005 20.673 24.292 20.673 24.0969C20.673 24.0229 20.8277 23.9085 21.1103 23.7807C21.6216 23.5385 22.0656 23.1214 22.2943 22.6572C22.4289 22.3746 22.4558 22.2266 22.4558 21.6817C22.4558 21.1367 22.4289 20.9887 22.2943 20.7062C21.9243 19.9661 21.1237 19.4414 20.2357 19.3539C19.6235 19.3001 19.2333 19.1252 19.0584 18.8426C18.6816 18.217 19.1862 17.4971 20.0002 17.4971C20.1752 17.4971 20.4039 17.5442 20.5183 17.5981C20.8008 17.7461 21.0766 18.0892 21.0766 18.291C21.0766 18.6005 21.2583 18.9167 21.5072 19.0377C21.709 19.1319 21.7898 19.1319 22.0118 19.0714C22.3952 18.9503 22.5163 18.735 22.476 18.1901C22.4558 17.8941 22.3818 17.6317 22.2674 17.403C22.0454 16.9589 21.4332 16.4006 21.0026 16.2525C20.7335 16.1584 20.673 16.1045 20.673 15.9767C20.673 15.7345 20.5452 15.5596 20.303 15.452C20.0204 15.3376 19.9599 15.3376 19.684 15.4587Z" fill="#969DA4"/>
<path d="M34.3829 12.9359C34.208 13.1176 34.1878 13.1781 34.208 13.4271C34.2281 13.5818 34.3694 14.0393 34.5241 14.4362C34.8605 15.3108 35.2171 16.6697 35.3853 17.7125C35.5535 18.7889 35.5535 21.2175 35.3853 22.2536C35.2238 23.2694 34.9345 24.4468 34.8605 24.3997C34.8269 24.3795 34.8 24.3257 34.8 24.2786C34.8 24.2315 34.7125 24.1104 34.6049 24.0095C34.2281 23.6462 33.5957 23.7942 33.4612 24.2718C33.3805 24.5611 33.4006 24.6217 33.9254 25.9134C34.282 26.7678 34.3896 26.9696 34.5578 27.0772C34.9345 27.3127 35.1834 27.2185 35.9571 26.5458C37.2084 25.4626 37.2219 25.4492 37.2219 25.0859C37.2219 24.8235 37.1883 24.7293 37.0268 24.5679C36.8922 24.4333 36.7644 24.3728 36.6164 24.3728C36.4146 24.3728 36.4011 24.3593 36.4482 24.1844C37.0672 21.8096 37.1075 18.7418 36.5491 16.2324C36.2464 14.8735 35.6409 13.1647 35.3651 12.8889C35.1229 12.6467 34.652 12.6736 34.3829 12.9359Z" fill="#969DA4"/>
<path d="M4.78888 12.8553C4.62742 12.9225 2.91189 14.4228 2.83789 14.5573C2.80425 14.6246 2.77734 14.7995 2.77734 14.9542C2.77734 15.3108 3.0599 15.627 3.37609 15.627C3.49046 15.627 3.58465 15.6405 3.58465 15.6539C3.58465 15.6741 3.5241 15.9365 3.4501 16.2459C3.16754 17.4636 3.08681 18.2844 3.08008 19.9663C3.08008 21.6078 3.12718 22.1594 3.38955 23.4646C3.67211 24.8774 4.3314 26.8082 4.63414 27.1109C4.87634 27.3531 5.34726 27.3262 5.61636 27.0638C5.79128 26.8822 5.81146 26.8216 5.79128 26.5727C5.7711 26.418 5.62982 25.9605 5.47509 25.5636C4.4525 22.9331 4.19685 19.7779 4.76197 16.9389C4.85615 16.4949 4.97052 15.997 5.01761 15.8288C5.1118 15.5328 5.11853 15.5328 5.1858 15.6943C5.3069 15.9903 5.56254 16.1719 5.86528 16.1787C6.22184 16.1854 6.45731 16.0239 6.53804 15.7279C6.61877 15.4386 6.59858 15.3781 6.07384 14.0864C5.71728 13.2253 5.60964 13.0302 5.44145 12.9293C5.23289 12.8014 4.98398 12.7745 4.78888 12.8553Z" fill="#969DA4"/>
<path d="M4.93016 28.5773C3.87393 29.1828 2.95899 29.7479 2.89844 29.8286C2.7908 29.9564 2.77734 30.1852 2.77734 32.3716V34.7801L2.93208 34.9214C3.01281 34.9954 3.92103 35.547 4.95034 36.1458C6.51785 37.0473 6.85423 37.2222 7.08297 37.2222C7.3117 37.2222 7.65481 37.054 9.18869 36.1659C10.1978 35.5874 11.0993 35.0357 11.2069 34.9415L11.3886 34.7733V32.3716C11.3886 29.9699 11.3886 29.9632 11.2406 29.795C11.1531 29.7075 10.2382 29.1424 9.20214 28.5504C7.74227 27.7094 7.26461 27.4672 7.08297 27.4672C6.90132 27.4672 6.40349 27.7296 4.93016 28.5773ZM8.2401 29.6537L9.28287 30.2524L8.19974 30.8848C6.94169 31.6114 7.24443 31.6249 5.79801 30.7839L4.88306 30.2592L5.93256 29.6402C6.51113 29.3039 7.02915 29.028 7.08969 29.0348C7.14352 29.0415 7.66154 29.3173 8.2401 29.6537ZM5.29344 32.1496L6.41021 32.7954V34.0602V35.3317L5.26653 34.6792L4.12958 34.0266L4.12285 32.7618C4.12285 32.0689 4.13631 31.5038 4.14976 31.5038C4.16994 31.5038 4.68124 31.793 5.29344 32.1496ZM10.0431 32.7618V34.0266L9.18196 34.511C8.71103 34.7801 8.19974 35.0761 8.045 35.177L7.75572 35.3452V34.067V32.7954L8.85231 32.1563C9.45106 31.7998 9.96235 31.5105 9.99599 31.5105C10.0229 31.5038 10.0431 32.0689 10.0431 32.7618Z" fill="#969DA4"/>
<path d="M30.7641 28.5773C29.7079 29.1828 28.793 29.7479 28.7324 29.8286C28.6248 29.9564 28.6113 30.1852 28.6113 32.3716V34.7801L28.7661 34.9214C28.8468 34.9954 29.755 35.547 30.7843 36.1458C32.3518 37.0473 32.6882 37.2222 32.917 37.2222C33.1457 37.2222 33.4888 37.054 35.0227 36.1659C36.0318 35.5874 36.9333 35.0357 37.0409 34.9415L37.2226 34.7733V32.3716C37.2226 29.9699 37.2226 29.9632 37.0746 29.795C36.9871 29.7075 36.0722 29.1424 35.0361 28.5504C33.5763 27.7094 33.0986 27.4672 32.917 27.4672C32.7353 27.4672 32.2375 27.7296 30.7641 28.5773ZM34.0741 29.6537C34.915 30.1381 35.1034 30.2726 35.0159 30.3197C34.9554 30.3601 34.4643 30.6359 33.9261 30.9454C32.7891 31.6047 33.0717 31.6249 31.632 30.7839L30.717 30.2592L31.7665 29.6402C32.3451 29.3039 32.8631 29.028 32.9237 29.0348C32.9775 29.0415 33.4955 29.3173 34.0741 29.6537ZM31.1274 32.1496L32.2442 32.7954V34.0602V35.3317L31.1005 34.6792L29.9636 34.0266L29.9568 32.7618C29.9568 32.0689 29.9703 31.5038 29.9837 31.5038C30.0039 31.5038 30.5152 31.793 31.1274 32.1496ZM35.8771 32.7618V34.0266L35.0159 34.511C34.545 34.7801 34.0337 35.0761 33.879 35.177L33.5897 35.3452V34.067V32.7954L34.6863 32.1563C35.285 31.7998 35.7963 31.5105 35.83 31.5105C35.8569 31.5038 35.8771 32.0689 35.8771 32.7618Z" fill="#969DA4"/>
<path d="M15.2914 33.4547C15.1972 33.4817 14.659 33.6969 14.0871 33.9257C13.2327 34.2755 13.0309 34.3899 12.9233 34.5581C12.6878 34.9348 12.782 35.1837 13.4547 35.9574C14.5379 37.2087 14.5513 37.2222 14.9146 37.2222C15.177 37.2222 15.2712 37.1885 15.4326 37.0271C15.5605 36.8925 15.6277 36.758 15.6277 36.6234C15.6277 36.509 15.6412 36.4149 15.6546 36.4149C15.6748 36.4149 15.9372 36.4754 16.2467 36.5494C17.498 36.8387 18.2851 36.9194 20.0006 36.9194C21.844 36.9194 22.5975 36.832 24.1717 36.4418C25.6518 36.0785 27.0511 35.5403 27.1924 35.2846C27.2327 35.2039 27.2664 35.0223 27.2664 34.8675C27.2664 34.6455 27.226 34.5446 27.0645 34.3831C26.8829 34.2082 26.8224 34.188 26.5734 34.2082C26.4187 34.2284 25.9612 34.3697 25.5643 34.5244C22.9338 35.547 19.7786 35.8027 16.9396 35.2375C16.4956 35.1434 15.9977 35.029 15.8296 34.9819C15.5335 34.8877 15.5335 34.881 15.695 34.8137C15.7892 34.7801 15.9305 34.6792 16.0045 34.5917C16.4889 34.0535 15.9843 33.2462 15.2914 33.4547Z" fill="#969DA4"/>
</svg>
