<svg width="450" height="450" viewBox="0 0 450 450" fill="none" xmlns="http://www.w3.org/2000/svg">
<path d="M413.328 93.4485C413.328 93.4485 385.265 29.7032 323.291 20.2587C261.318 10.8142 218.052 56.853 172.449 80.4631C148.567 92.8271 121.289 88.0248 95.9362 94.0096C14.8706 113.145 -15.6673 233.032 18.1005 301.212C47.3336 360.235 98.7836 390.928 177.127 398.01C255.471 405.093 310.429 413.356 380.588 355.514C450.747 297.671 446.069 177.262 413.328 93.4485Z" fill="#7534FC"/>
<g opacity="0.7">
<path d="M413.328 93.4485C413.328 93.4485 385.265 29.7032 323.291 20.2587C261.318 10.8142 218.052 56.853 172.449 80.4631C148.567 92.8271 121.289 88.0248 95.9362 94.0096C14.8706 113.145 -15.6673 233.032 18.1005 301.212C47.3336 360.235 98.7836 390.928 177.127 398.01C255.471 405.093 310.429 413.356 380.588 355.514C450.747 297.671 446.069 177.262 413.328 93.4485Z" fill="#F2C762"/>
<path d="M413.328 93.4485C413.328 93.4485 385.265 29.7032 323.291 20.2587C261.318 10.8142 218.052 56.853 172.449 80.4631C148.567 92.8271 121.289 88.0248 95.9362 94.0096C14.8706 113.145 -15.6673 233.032 18.1005 301.212C47.3336 360.235 98.7836 390.928 177.127 398.01C255.471 405.093 310.429 413.356 380.588 355.514C450.747 297.671 446.069 177.262 413.328 93.4485Z" fill="white"/>
</g>
<path d="M120.466 133.478H63.7812V204.334H120.466V133.478Z" stroke="#F2C762" stroke-miterlimit="10" strokeLinecap="round" strokeLinejoin="round"/>
<path d="M120.466 133.478H63.7812V204.334H120.466V133.478Z" stroke="white" stroke-miterlimit="10" strokeLinecap="round" strokeLinejoin="round"/>
<path d="M191.321 133.478H134.637V204.334H191.321V133.478Z" stroke="#F2C762" stroke-miterlimit="10" strokeLinecap="round" strokeLinejoin="round"/>
<path d="M191.321 133.478H134.637V204.334H191.321V133.478Z" stroke="white" stroke-miterlimit="10" strokeLinecap="round" strokeLinejoin="round"/>
<path d="M120.466 215.929H63.7812V286.785H120.466V215.929Z" stroke="#F2C762" stroke-miterlimit="10" strokeLinecap="round" strokeLinejoin="round"/>
<path d="M120.466 215.929H63.7812V286.785H120.466V215.929Z" stroke="white" stroke-miterlimit="10" strokeLinecap="round" strokeLinejoin="round"/>
<path d="M191.321 215.929H134.637V286.785H191.321V215.929Z" stroke="#F2C762" stroke-miterlimit="10" strokeLinecap="round" strokeLinejoin="round"/>
<path d="M191.321 215.929H134.637V286.785H191.321V215.929Z" stroke="white" stroke-miterlimit="10" strokeLinecap="round" strokeLinejoin="round"/>
<path d="M120.466 298.379H63.7812V369.235H120.466V298.379Z" stroke="#F2C762" stroke-miterlimit="10" strokeLinecap="round" strokeLinejoin="round"/>
<path d="M120.466 298.379H63.7812V369.235H120.466V298.379Z" stroke="white" stroke-miterlimit="10" strokeLinecap="round" strokeLinejoin="round"/>
<path d="M191.321 298.379H134.637V369.235H191.321V298.379Z" stroke="#F2C762" stroke-miterlimit="10" strokeLinecap="round" strokeLinejoin="round"/>
<path d="M191.321 298.379H134.637V369.235H191.321V298.379Z" stroke="white" stroke-miterlimit="10" strokeLinecap="round" strokeLinejoin="round"/>
<path d="M128.194 60.0461C93.3311 60.0461 65.0684 88.3088 65.0684 123.172H191.32C191.32 88.3079 163.058 60.0461 128.194 60.0461Z" stroke="#F2C762" stroke-miterlimit="10" strokeLinecap="round" strokeLinejoin="round"/>
<path d="M128.194 60.0461C93.3311 60.0461 65.0684 88.3088 65.0684 123.172H191.32C191.32 88.3079 163.058 60.0461 128.194 60.0461Z" stroke="white" stroke-miterlimit="10" strokeLinecap="round" strokeLinejoin="round"/>
<path d="M209.831 93.8862C209.831 93.8862 209.831 80.4114 186.654 83.106C163.478 85.8006 153.776 106.283 146.769 110.595C139.763 114.907 126.826 118.679 126.288 125.148C125.749 131.616 131.678 134.311 125.749 139.162C119.82 144.013 110.657 148.325 112.813 154.792C114.969 161.26 120.898 167.728 118.203 172.04C115.509 176.351 107.962 180.663 114.969 185.514C121.976 190.365 125.211 191.444 125.211 197.911C125.211 204.379 122.516 208.691 128.983 210.847C135.452 213.002 139.224 208.69 142.997 216.776C146.77 224.861 150.543 227.017 157.011 225.4C163.479 223.782 172.641 221.088 175.876 223.243C179.11 225.4 189.351 231.328 193.663 228.094C197.975 224.861 201.747 220.01 208.216 222.704C214.684 225.399 220.073 229.172 222.769 224.321C225.463 219.47 222.769 218.392 233.01 216.237C243.251 214.08 247.024 214.619 247.024 205.996C247.024 197.372 246.485 195.215 251.336 191.443C256.187 187.67 260.499 189.286 258.881 180.124C257.264 170.961 254.03 168.805 255.648 159.642C257.265 150.479 252.953 147.245 249.718 144.55C246.484 141.854 242.712 137.004 243.789 132.153C244.867 127.302 252.952 126.763 244.867 118.139C236.783 109.516 233.01 112.21 231.393 105.743C229.774 99.2763 224.384 85.2624 209.831 93.8862Z" fill="#28282B" stroke="#28282B" stroke-miterlimit="10" strokeLinecap="round" strokeLinejoin="round"/>
<path d="M189.139 110.115C185.825 115.373 183.255 121.306 177.912 126.315C170.192 133.553 150.41 139.825 149.445 146.579C148.48 153.334 151.858 157.194 145.102 162.985C138.348 168.774 127.732 170.222 127.732 176.012C127.732 181.802 130.628 183.732 129.18 188.075" stroke="#28282B" stroke-miterlimit="10"/>
<path d="M203.485 103.638C203.485 103.638 201.073 97.3656 194.318 103.638C193.796 104.122 193.303 104.624 192.834 105.141" stroke="#28282B" stroke-miterlimit="10"/>
<path d="M148.982 131.214C143.042 132.654 138.361 133.689 137.867 137.894C136.902 146.097 138.349 151.404 132.559 153.816C126.77 156.229 119.049 160.088 121.461 164.914C123.874 169.739 124.357 171.186 123.874 173.117" stroke="#28282B" stroke-miterlimit="10"/>
<path d="M202.521 95.9174C202.521 95.9174 189.011 87.2324 181.773 94.9527C174.535 102.673 177.913 112.323 166.816 122.937C163.834 125.789 160.436 127.596 157.039 128.873" stroke="#28282B" stroke-miterlimit="10"/>
<path d="M249.453 164.337C250.553 165.859 251.691 166.894 252.7 167.327" stroke="#28282B" stroke-miterlimit="10"/>
<path d="M212.17 107.98C212.17 107.98 224.233 104.12 227.127 110.876C230.022 117.631 231.47 129.693 236.777 131.623C242.084 133.554 244.497 136.448 244.497 147.064C244.497 150.786 245.09 154.211 246.006 157.153" stroke="#28282B" stroke-miterlimit="10"/>
<path d="M134.006 193.865C137.866 187.593 143.173 190.005 143.656 183.25C144.138 176.495 140.278 174.565 144.138 170.223C147.998 165.88 154.27 163.95 154.27 163.95" stroke="#28282B" stroke-miterlimit="10"/>
<path d="M139.313 207.374C139.313 207.374 136.572 205.21 134.719 202.224" stroke="#28282B" stroke-miterlimit="10"/>
<path d="M272.894 409.736C272.894 409.736 274.512 387.637 264.81 365.539C255.108 343.44 252.914 341.835 252.914 335.367C252.914 328.899 259.42 321.342 260.498 306.789C261.576 292.236 261.037 285.23 261.037 285.23C261.037 285.23 284.214 321.882 300.383 324.037C316.553 326.193 326.255 311.101 320.326 290.619C314.397 270.138 288.526 253.428 278.285 239.954C268.043 226.479 244.868 226.479 233.009 226.479C221.152 226.479 215.222 222.167 213.066 214.082C210.911 205.998 210.911 189.827 210.911 189.827C210.911 189.827 196.897 198.451 173.181 188.749C173.181 188.749 175.336 218.393 172.642 222.705C169.947 227.017 166.174 231.329 150.004 231.329C133.834 231.329 120.36 234.563 112.813 242.109C105.268 249.655 74.0062 279.839 65.9206 291.696C57.8359 303.554 62.1478 316.49 71.8498 321.341C81.5518 326.192 91.2538 321.88 98.2603 315.411C105.267 308.943 127.366 288.462 127.366 288.462C127.366 288.462 127.366 300.858 133.295 318.645C139.225 336.432 144.076 334.275 139.764 347.212C135.452 360.148 126.828 363.921 124.133 380.63C121.437 397.339 121.977 409.736 121.977 409.736" fill="#7534FC"/>
<mask id="mask0_660_2336" style="mask-type:luminance" maskUnits="userSpaceOnUse" x="61" y="188" width="262" height="222">
<path d="M272.894 409.736C272.894 409.736 274.512 387.637 264.81 365.539C255.108 343.44 252.914 341.835 252.914 335.367C252.914 328.899 259.42 321.342 260.498 306.789C261.576 292.236 261.037 285.23 261.037 285.23C261.037 285.23 284.214 321.882 300.383 324.037C316.553 326.193 326.255 311.101 320.326 290.619C314.397 270.138 288.526 253.428 278.285 239.954C268.043 226.479 244.868 226.479 233.009 226.479C221.152 226.479 215.222 222.167 213.066 214.082C210.911 205.998 210.911 189.827 210.911 189.827C210.911 189.827 196.897 198.451 173.181 188.749C173.181 188.749 175.336 218.393 172.642 222.705C169.947 227.017 166.174 231.329 150.004 231.329C133.834 231.329 120.36 234.563 112.813 242.109C105.268 249.655 74.0062 279.839 65.9206 291.696C57.8359 303.554 62.1478 316.49 71.8498 321.341C81.5518 326.192 91.2538 321.88 98.2603 315.411C105.267 308.943 127.366 288.462 127.366 288.462C127.366 288.462 127.366 300.858 133.295 318.645C139.225 336.432 144.076 334.275 139.764 347.212C135.452 360.148 126.828 363.921 124.133 380.63C121.437 397.339 121.977 409.736 121.977 409.736" fill="white"/>
</mask>
<g mask="url(#mask0_660_2336)">
<g opacity="0.2">
<path d="M237.528 243.314C237.157 243.314 235.807 244.237 237.528 246.836C239.25 244.237 237.9 243.314 237.528 243.314Z" fill="#28282B"/>
<path d="M280.727 243.314C280.356 243.314 279.006 244.237 280.727 246.836C282.449 244.237 281.099 243.314 280.727 243.314Z" fill="#28282B"/>
<path d="M280.727 264.914C280.356 264.914 279.006 265.837 280.727 268.436C282.449 265.837 281.099 264.914 280.727 264.914Z" fill="#28282B"/>
<path d="M237.528 264.914C237.157 264.914 235.807 265.837 237.528 268.436C239.25 265.837 237.9 264.914 237.528 264.914Z" fill="#28282B"/>
<path d="M259.127 254.114C258.757 254.114 257.407 255.037 259.127 257.636C260.849 255.037 259.499 254.114 259.127 254.114Z" fill="#28282B"/>
<path d="M259.127 232.514C258.757 232.514 257.407 233.437 259.127 236.036C260.849 233.437 259.499 232.514 259.127 232.514Z" fill="#28282B"/>
<path d="M238.461 247.372C241.573 247.549 241.69 245.919 241.503 245.597C241.316 245.276 239.838 244.575 238.461 247.372Z" fill="#28282B"/>
<path d="M284.333 246.75C283.926 246.337 283.529 245.929 283.139 245.523C282.677 245.8 282.162 246.352 281.66 247.372C283.118 247.454 283.914 247.139 284.333 246.75Z" fill="#28282B"/>
<path d="M260.061 258.171C263.173 258.349 263.29 256.719 263.103 256.397C262.915 256.076 261.438 255.375 260.061 258.171Z" fill="#28282B"/>
<path d="M260.061 236.572C263.173 236.749 263.29 235.119 263.103 234.797C262.915 234.476 261.438 233.775 260.061 236.572Z" fill="#28282B"/>
<path d="M276.753 245.597C276.566 245.918 276.684 247.549 279.796 247.372C278.417 244.575 276.94 245.276 276.753 245.597Z" fill="#28282B"/>
<path d="M276.753 267.197C276.647 267.379 276.64 267.981 277.218 268.436C277.661 268.785 278.446 269.048 279.796 268.972C279.699 268.775 279.602 268.6 279.504 268.436C278.216 266.276 276.927 266.899 276.753 267.197Z" fill="#28282B"/>
<path d="M255.153 256.397C254.966 256.718 255.084 258.349 258.196 258.171C256.818 255.375 255.341 256.076 255.153 256.397Z" fill="#28282B"/>
<path d="M255.153 234.797C254.966 235.118 255.084 236.749 258.196 236.572C256.818 233.775 255.341 234.476 255.153 234.797Z" fill="#28282B"/>
<path d="M237.528 308.114C237.157 308.114 235.807 309.037 237.528 311.636C239.25 309.037 237.9 308.114 237.528 308.114Z" fill="#28282B"/>
<path d="M280.728 308.114C280.459 308.114 279.685 308.6 279.924 309.849C280.304 310.257 280.686 310.661 281.071 311.062C282.239 308.902 281.071 308.114 280.728 308.114Z" fill="#28282B"/>
<path d="M237.528 329.714C237.157 329.714 235.807 330.637 237.528 333.236C239.25 330.637 237.9 329.714 237.528 329.714Z" fill="#28282B"/>
<path d="M302.327 318.914C301.956 318.914 300.606 319.837 302.327 322.436C304.048 319.837 302.698 318.914 302.327 318.914Z" fill="#28282B"/>
<path d="M237.528 286.514C237.157 286.514 235.807 287.437 237.528 290.036C239.25 287.437 237.9 286.514 237.528 286.514Z" fill="#28282B"/>
<path d="M280.727 286.514C280.356 286.514 279.006 287.437 280.727 290.036C282.449 287.437 281.099 286.514 280.727 286.514Z" fill="#28282B"/>
<path d="M259.127 297.314C258.757 297.314 257.407 298.237 259.127 300.836C260.849 298.237 259.499 297.314 259.127 297.314Z" fill="#28282B"/>
<path d="M302.327 297.314C301.956 297.314 300.606 298.237 302.327 300.836C304.048 298.237 302.698 297.314 302.327 297.314Z" fill="#28282B"/>
<path d="M259.127 275.714C258.757 275.714 257.407 276.637 259.127 279.236C260.849 276.637 259.499 275.714 259.127 275.714Z" fill="#28282B"/>
<path d="M302.327 275.714C301.956 275.714 300.606 276.637 302.327 279.236C304.048 276.637 302.698 275.714 302.327 275.714Z" fill="#28282B"/>
<path d="M238.461 312.171C241.573 312.349 241.69 310.719 241.503 310.397C241.316 310.076 239.838 309.375 238.461 312.171Z" fill="#28282B"/>
<path d="M281.834 311.849C281.944 311.961 282.054 312.073 282.163 312.183C284.782 312.165 284.88 310.7 284.702 310.397C284.523 310.089 283.16 309.442 281.834 311.849Z" fill="#28282B"/>
<path d="M240.821 331.68C240.521 331.661 240.146 331.747 239.739 332.056C239.576 332.179 239.408 332.339 239.237 332.541C239.077 332.731 238.915 332.963 238.753 333.235C238.742 333.253 238.731 333.268 238.72 333.286C238.634 333.435 238.547 333.596 238.461 333.771C239.811 333.847 240.596 333.584 241.039 333.235C241.106 333.182 241.167 333.127 241.219 333.07C241.318 332.964 241.391 332.854 241.444 332.746C241.601 332.422 241.573 332.116 241.503 331.996C241.432 331.876 241.18 331.702 240.821 331.68Z" fill="#28282B"/>
<path d="M303.262 322.972C306.373 323.149 306.489 321.519 306.303 321.197C306.117 320.876 304.638 320.175 303.262 322.972Z" fill="#28282B"/>
<path d="M238.461 290.572C241.573 290.749 241.69 289.119 241.503 288.797C241.316 288.476 239.838 287.775 238.461 290.572Z" fill="#28282B"/>
<path d="M284.701 288.797C284.515 288.475 283.037 287.775 281.66 290.572C284.771 290.749 284.889 289.118 284.701 288.797Z" fill="#28282B"/>
<path d="M260.061 301.372C260.35 301.388 260.606 301.384 260.845 301.373C260.87 300.923 260.891 300.491 260.913 300.06C260.633 300.374 260.345 300.795 260.061 301.372Z" fill="#28282B"/>
<path d="M303.262 301.372C306.373 301.549 306.489 299.919 306.303 299.597C306.117 299.276 304.638 298.575 303.262 301.372Z" fill="#28282B"/>
<path d="M260.061 279.772C263.173 279.949 263.29 278.319 263.103 277.997C262.915 277.676 261.438 276.975 260.061 279.772Z" fill="#28282B"/>
<path d="M303.262 279.772C306.373 279.949 306.489 278.319 306.303 277.997C306.117 277.676 304.638 276.975 303.262 279.772Z" fill="#28282B"/>
<path d="M256.761 322.903C256.926 322.467 257.089 322.018 257.253 321.562C256.211 320.482 255.298 320.948 255.153 321.196C255.001 321.459 255.052 322.59 256.761 322.903Z" fill="#28282B"/>
<path d="M319.954 310.397C319.84 310.592 319.842 311.27 320.558 311.732C320.741 311.21 320.908 310.674 321.06 310.125C320.479 309.975 320.048 310.234 319.954 310.397Z" fill="#28282B"/>
<path d="M298.353 321.197C298.165 321.518 298.283 323.149 301.396 322.972C300.017 320.175 298.539 320.876 298.353 321.197Z" fill="#28282B"/>
<path d="M276.753 288.797C276.566 289.118 276.684 290.749 279.796 290.572C278.417 287.775 276.94 288.476 276.753 288.797Z" fill="#28282B"/>
<path d="M255.153 299.597C254.966 299.918 255.084 301.549 258.196 301.372C256.818 298.575 255.341 299.276 255.153 299.597Z" fill="#28282B"/>
<path d="M298.353 299.597C298.165 299.918 298.283 301.549 301.396 301.372C300.017 298.575 298.539 299.276 298.353 299.597Z" fill="#28282B"/>
<path d="M255.153 277.997C254.966 278.318 255.084 279.949 258.196 279.772C256.818 276.975 255.341 277.676 255.153 277.997Z" fill="#28282B"/>
<path d="M298.353 277.997C298.165 278.318 298.283 279.949 301.396 279.772C300.017 276.975 298.539 277.676 298.353 277.997Z" fill="#28282B"/>
<path d="M284.237 268.436C284.815 267.981 284.807 267.379 284.701 267.197C284.528 266.899 283.239 266.276 281.952 268.436C281.855 268.6 281.757 268.775 281.66 268.972C283.009 269.048 283.795 268.785 284.237 268.436Z" fill="#28282B"/>
<path d="M241.039 268.436C241.616 267.981 241.609 267.379 241.503 267.197C241.329 266.899 240.04 266.276 238.753 268.436C238.655 268.6 238.558 268.775 238.461 268.972C239.811 269.048 240.596 268.785 241.039 268.436Z" fill="#28282B"/>
<path d="M237.528 372.914C237.157 372.914 235.807 373.837 237.528 376.436C239.25 373.837 237.9 372.914 237.528 372.914Z" fill="#28282B"/>
<path d="M237.528 394.514C237.157 394.514 235.807 395.437 237.528 398.036C239.25 395.437 237.9 394.514 237.528 394.514Z" fill="#28282B"/>
<path d="M259.127 383.714C258.757 383.714 257.407 384.637 259.127 387.236C260.849 384.637 259.499 383.714 259.127 383.714Z" fill="#28282B"/>
<path d="M237.528 351.314C237.157 351.314 235.807 352.237 237.528 354.836C239.25 352.237 237.9 351.314 237.528 351.314Z" fill="#28282B"/>
<path d="M259.127 362.114C258.757 362.114 257.407 363.037 259.127 365.636C260.849 363.037 259.499 362.114 259.127 362.114Z" fill="#28282B"/>
<path d="M238.461 376.972C241.573 377.149 241.69 375.519 241.503 375.197C241.316 374.876 239.838 374.175 238.461 376.972Z" fill="#28282B"/>
<path d="M240.822 396.48C240.761 396.476 240.698 396.476 240.633 396.482C240.436 396.498 240.215 396.562 239.979 396.696C239.901 396.741 239.821 396.794 239.739 396.855C239.423 397.095 239.087 397.473 238.753 398.035C238.655 398.199 238.558 398.374 238.461 398.571C239.811 398.647 240.596 398.384 241.039 398.035C241.616 397.58 241.609 396.979 241.503 396.796C241.433 396.676 241.181 396.503 240.822 396.48Z" fill="#28282B"/>
<path d="M260.061 387.772C263.173 387.949 263.29 386.319 263.103 385.997C262.915 385.676 261.438 384.975 260.061 387.772Z" fill="#28282B"/>
<path d="M238.461 355.372C241.573 355.549 241.69 353.919 241.503 353.597C241.316 353.276 239.838 352.575 238.461 355.372Z" fill="#28282B"/>
<path d="M260.061 366.171C263.173 366.349 263.29 364.719 263.103 364.397C262.915 364.076 261.438 363.375 260.061 366.171Z" fill="#28282B"/>
<path d="M255.153 385.997C254.966 386.318 255.084 387.949 258.196 387.772C256.818 384.975 255.341 385.676 255.153 385.997Z" fill="#28282B"/>
<path d="M255.153 364.397C254.966 364.718 255.084 366.349 258.196 366.171C256.818 363.375 255.341 364.076 255.153 364.397Z" fill="#28282B"/>
<path d="M259.127 405.314C258.757 405.314 257.407 406.237 259.127 408.836C260.849 406.237 259.499 405.314 259.127 405.314Z" fill="#28282B"/>
<path d="M260.061 409.372C263.173 409.549 263.29 407.919 263.103 407.597C262.915 407.276 261.438 406.575 260.061 409.372Z" fill="#28282B"/>
<path d="M255.153 407.597C254.966 407.919 255.084 409.549 258.196 409.372C256.818 406.575 255.341 407.276 255.153 407.597Z" fill="#28282B"/>
<path d="M194.327 200.114C193.956 200.114 192.606 201.037 194.327 203.636C196.048 201.037 194.698 200.114 194.327 200.114Z" fill="#28282B"/>
<path d="M173.24 189.609C173.273 190.098 173.317 190.777 173.369 191.619C173.76 190.581 173.54 189.942 173.24 189.609Z" fill="#28282B"/>
<path d="M197.622 202.08C197.322 202.061 196.947 202.147 196.54 202.456C196.377 202.579 196.209 202.739 196.038 202.942C195.877 203.132 195.715 203.364 195.553 203.636C195.543 203.654 195.532 203.668 195.521 203.687C195.435 203.836 195.348 203.997 195.262 204.171C196.611 204.249 197.397 203.985 197.838 203.636C197.906 203.583 197.967 203.528 198.019 203.471C198.118 203.365 198.191 203.254 198.243 203.146C198.401 202.821 198.373 202.517 198.303 202.397C198.233 202.276 197.982 202.102 197.622 202.08Z" fill="#28282B"/>
<path d="M173.66 193.372C176.772 193.549 176.889 191.919 176.702 191.597C176.515 191.276 175.037 190.575 173.66 193.372Z" fill="#28282B"/>
<path d="M151.959 244.315C151.936 244.163 151.893 244.03 151.839 243.915C151.838 243.912 151.838 243.909 151.837 243.907C151.809 243.848 151.777 243.793 151.743 243.744C151.741 243.742 151.739 243.741 151.739 243.738C151.674 243.643 151.601 243.564 151.528 243.502C151.525 243.501 151.523 243.499 151.521 243.497C151.446 243.435 151.372 243.39 151.305 243.36C151.304 243.36 151.304 243.359 151.303 243.359C151.235 243.33 151.172 243.315 151.126 243.315C151.08 243.315 151.018 243.33 150.948 243.36C150.534 243.542 149.854 244.296 150.616 245.94C150.743 246.213 150.911 246.512 151.126 246.837C151.341 246.512 151.508 246.213 151.635 245.94C151.89 245.391 151.983 244.942 151.98 244.581C151.979 244.491 151.973 244.405 151.96 244.325C151.961 244.32 151.959 244.319 151.959 244.315Z" fill="#28282B"/>
<path d="M194.327 243.314C193.956 243.314 192.606 244.237 194.327 246.836C196.048 244.237 194.698 243.314 194.327 243.314Z" fill="#28282B"/>
<path d="M194.327 264.914C193.956 264.914 192.606 265.837 194.327 268.436C196.048 265.837 194.698 264.914 194.327 264.914Z" fill="#28282B"/>
<path d="M151.959 265.915C151.936 265.763 151.893 265.63 151.839 265.515C151.838 265.512 151.838 265.509 151.837 265.507C151.809 265.448 151.777 265.393 151.743 265.344C151.741 265.342 151.739 265.341 151.739 265.338C151.674 265.243 151.601 265.165 151.528 265.102C151.525 265.101 151.523 265.099 151.521 265.097C151.446 265.035 151.372 264.99 151.305 264.96C151.304 264.96 151.304 264.959 151.303 264.959C151.235 264.93 151.172 264.915 151.126 264.915C151.08 264.915 151.018 264.93 150.948 264.96C150.534 265.142 149.854 265.896 150.616 267.54C150.743 267.813 150.911 268.112 151.126 268.437C151.341 268.112 151.508 267.813 151.635 267.54C151.89 266.992 151.983 266.542 151.98 266.181C151.979 266.091 151.973 266.005 151.96 265.925C151.961 265.921 151.959 265.919 151.959 265.915Z" fill="#28282B"/>
<path d="M172.727 254.114C172.356 254.114 171.006 255.037 172.727 257.636C174.449 255.037 173.099 254.114 172.727 254.114Z" fill="#28282B"/>
<path d="M215.928 254.114C215.557 254.114 214.207 255.037 215.928 257.636C217.649 255.037 216.299 254.114 215.928 254.114Z" fill="#28282B"/>
<path d="M194.327 221.714C193.956 221.714 192.606 222.637 194.327 225.236C196.048 222.637 194.698 221.714 194.327 221.714Z" fill="#28282B"/>
<path d="M172.727 232.514C172.356 232.514 171.006 233.437 172.727 236.036C174.449 233.437 173.099 232.514 172.727 232.514Z" fill="#28282B"/>
<path d="M215.928 232.514C215.557 232.514 214.207 233.437 215.928 236.036C217.649 233.437 216.299 232.514 215.928 232.514Z" fill="#28282B"/>
<path d="M152.061 247.372C155.173 247.549 155.29 245.919 155.103 245.597C154.915 245.276 153.438 244.575 152.061 247.372Z" fill="#28282B"/>
<path d="M195.262 247.372C198.373 247.549 198.491 245.919 198.303 245.597C198.117 245.276 196.639 244.575 195.262 247.372Z" fill="#28282B"/>
<path d="M173.66 258.171C176.772 258.349 176.889 256.719 176.702 256.397C176.515 256.076 175.037 255.375 173.66 258.171Z" fill="#28282B"/>
<path d="M216.861 258.171C219.973 258.349 220.089 256.719 219.902 256.397C219.716 256.076 218.237 255.375 216.861 258.171Z" fill="#28282B"/>
<path d="M195.262 225.772C198.373 225.949 198.491 224.319 198.303 223.997C198.117 223.676 196.639 222.975 195.262 225.772Z" fill="#28282B"/>
<path d="M173.66 236.572C176.772 236.749 176.889 235.119 176.702 234.797C176.515 234.476 175.037 233.775 173.66 236.572Z" fill="#28282B"/>
<path d="M216.861 236.572C219.973 236.749 220.089 235.119 219.902 234.797C219.716 234.476 218.237 233.775 216.861 236.572Z" fill="#28282B"/>
<path d="M176.702 213.197C176.526 212.895 175.211 212.26 173.909 214.505C173.903 214.664 173.896 214.82 173.889 214.976C176.77 215.06 176.884 213.51 176.702 213.197Z" fill="#28282B"/>
<path d="M190.353 245.597C190.166 245.918 190.283 247.549 193.396 247.372C192.018 244.575 190.54 245.276 190.353 245.597Z" fill="#28282B"/>
<path d="M190.353 267.197C190.246 267.379 190.239 267.981 190.818 268.436C191.261 268.785 192.046 269.048 193.396 268.972C193.298 268.775 193.201 268.6 193.104 268.436C191.816 266.276 190.526 266.899 190.353 267.197Z" fill="#28282B"/>
<path d="M168.753 256.397C168.566 256.718 168.684 258.349 171.796 258.171C170.418 255.375 168.94 256.076 168.753 256.397Z" fill="#28282B"/>
<path d="M233.552 245.597C233.364 245.918 233.482 247.549 236.593 247.372C235.216 244.575 233.739 245.276 233.552 245.597Z" fill="#28282B"/>
<path d="M236.303 268.436C235.017 266.276 233.727 266.899 233.554 267.197C233.448 267.379 233.44 267.981 234.018 268.436C234.461 268.785 235.246 269.048 236.595 268.972C236.498 268.775 236.4 268.6 236.303 268.436Z" fill="#28282B"/>
<path d="M211.953 256.397C211.765 256.718 211.883 258.349 214.996 258.171C213.618 255.375 212.139 256.076 211.953 256.397Z" fill="#28282B"/>
<path d="M190.353 223.997C190.166 224.318 190.283 225.949 193.396 225.772C192.018 222.975 190.54 223.676 190.353 223.997Z" fill="#28282B"/>
<path d="M168.753 234.797C168.566 235.118 168.684 236.749 171.796 236.572C170.418 233.775 168.94 234.476 168.753 234.797Z" fill="#28282B"/>
<path d="M211.953 234.797C211.765 235.118 211.883 236.749 214.996 236.572C213.618 233.775 212.139 234.476 211.953 234.797Z" fill="#28282B"/>
<path d="M213.299 214.842C213.222 214.589 213.137 214.343 213.067 214.082C212.965 213.7 212.87 213.296 212.778 212.882C212.343 212.861 212.033 213.062 211.954 213.197C211.809 213.444 211.851 214.466 213.299 214.842Z" fill="#28282B"/>
<path d="M193.104 203.636C192.942 203.364 192.779 203.132 192.619 202.942C192.448 202.74 192.279 202.58 192.117 202.456C191.709 202.147 191.334 202.061 191.034 202.08C190.674 202.102 190.423 202.276 190.353 202.397C190.282 202.517 190.255 202.822 190.413 203.146C190.465 203.254 190.538 203.365 190.637 203.471C190.689 203.528 190.75 203.583 190.818 203.636C191.261 203.985 192.045 204.248 193.395 204.171C193.309 203.997 193.223 203.836 193.136 203.687C193.125 203.668 193.115 203.654 193.104 203.636Z" fill="#28282B"/>
<path d="M151.959 309.115C151.936 308.963 151.893 308.83 151.839 308.715C151.838 308.712 151.838 308.709 151.837 308.707C151.809 308.648 151.777 308.593 151.743 308.544C151.741 308.542 151.739 308.541 151.739 308.538C151.674 308.443 151.601 308.365 151.528 308.302C151.525 308.301 151.523 308.299 151.521 308.297C151.446 308.235 151.372 308.19 151.305 308.16C151.304 308.16 151.304 308.159 151.303 308.159C151.235 308.13 151.172 308.115 151.126 308.115C151.08 308.115 151.018 308.13 150.948 308.16C150.534 308.342 149.854 309.096 150.616 310.74C150.743 311.013 150.911 311.312 151.126 311.637C151.341 311.312 151.508 311.013 151.635 310.74C151.89 310.192 151.983 309.742 151.98 309.381C151.979 309.291 151.973 309.205 151.96 309.125C151.961 309.121 151.959 309.119 151.959 309.115Z" fill="#28282B"/>
<path d="M194.327 308.114C193.956 308.114 192.606 309.037 194.327 311.636C196.048 309.037 194.698 308.114 194.327 308.114Z" fill="#28282B"/>
<path d="M194.327 329.714C193.956 329.714 192.606 330.637 194.327 333.236C196.048 330.637 194.698 329.714 194.327 329.714Z" fill="#28282B"/>
<path d="M151.959 330.715C151.936 330.563 151.893 330.43 151.839 330.315C151.838 330.313 151.838 330.309 151.837 330.307C151.809 330.248 151.777 330.193 151.743 330.144C151.741 330.142 151.739 330.14 151.739 330.138C151.674 330.043 151.601 329.965 151.528 329.902C151.525 329.901 151.523 329.899 151.521 329.896C151.446 329.834 151.372 329.789 151.305 329.759C151.304 329.759 151.304 329.758 151.303 329.758C151.235 329.729 151.172 329.714 151.126 329.714C151.08 329.714 151.018 329.729 150.948 329.759C150.534 329.941 149.854 330.695 150.616 332.339C150.743 332.612 150.911 332.911 151.126 333.236C151.341 332.911 151.508 332.612 151.635 332.339C151.89 331.791 151.983 331.342 151.98 330.98C151.979 330.889 151.973 330.804 151.96 330.724C151.961 330.721 151.959 330.719 151.959 330.715Z" fill="#28282B"/>
<path d="M172.727 318.914C172.356 318.914 171.006 319.837 172.727 322.436C174.449 319.837 173.099 318.914 172.727 318.914Z" fill="#28282B"/>
<path d="M215.928 318.914C215.557 318.914 214.207 319.837 215.928 322.436C217.649 319.837 216.299 318.914 215.928 318.914Z" fill="#28282B"/>
<path d="M151.959 287.515C151.936 287.363 151.893 287.23 151.839 287.115C151.838 287.112 151.838 287.109 151.837 287.107C151.809 287.048 151.777 286.993 151.743 286.944C151.741 286.942 151.739 286.941 151.739 286.938C151.674 286.843 151.601 286.764 151.528 286.702C151.525 286.701 151.523 286.699 151.521 286.697C151.446 286.635 151.372 286.59 151.305 286.56C151.304 286.56 151.304 286.559 151.303 286.559C151.235 286.53 151.172 286.515 151.126 286.515C151.08 286.515 151.018 286.53 150.948 286.56C150.534 286.742 149.854 287.496 150.616 289.14C150.743 289.413 150.911 289.712 151.126 290.037C151.341 289.712 151.508 289.413 151.635 289.14C151.89 288.591 151.983 288.142 151.98 287.781C151.979 287.691 151.973 287.605 151.96 287.525C151.961 287.52 151.959 287.519 151.959 287.515Z" fill="#28282B"/>
<path d="M194.327 286.514C193.956 286.514 192.606 287.437 194.327 290.036C196.048 287.437 194.698 286.514 194.327 286.514Z" fill="#28282B"/>
<path d="M172.727 297.314C172.356 297.314 171.006 298.237 172.727 300.836C174.449 298.237 173.099 297.314 172.727 297.314Z" fill="#28282B"/>
<path d="M215.928 297.314C215.557 297.314 214.207 298.237 215.928 300.836C217.649 298.237 216.299 297.314 215.928 297.314Z" fill="#28282B"/>
<path d="M172.727 275.714C172.356 275.714 171.006 276.637 172.727 279.236C174.449 276.637 173.099 275.714 172.727 275.714Z" fill="#28282B"/>
<path d="M215.928 275.714C215.557 275.714 214.207 276.637 215.928 279.236C217.649 276.637 216.299 275.714 215.928 275.714Z" fill="#28282B"/>
<path d="M152.061 312.171C155.173 312.349 155.29 310.719 155.103 310.397C154.915 310.076 153.438 309.375 152.061 312.171Z" fill="#28282B"/>
<path d="M195.262 312.171C198.373 312.349 198.491 310.719 198.303 310.397C198.117 310.076 196.639 309.375 195.262 312.171Z" fill="#28282B"/>
<path d="M197.622 331.68C197.322 331.661 196.947 331.747 196.54 332.056C196.377 332.179 196.209 332.339 196.038 332.541C195.877 332.731 195.715 332.963 195.553 333.235C195.543 333.253 195.532 333.268 195.521 333.286C195.435 333.435 195.348 333.596 195.262 333.771C196.611 333.847 197.397 333.584 197.838 333.235C197.906 333.182 197.967 333.127 198.019 333.07C198.118 332.964 198.191 332.854 198.243 332.746C198.401 332.422 198.373 332.116 198.303 331.996C198.233 331.876 197.982 331.702 197.622 331.68Z" fill="#28282B"/>
<path d="M154.422 331.68C154.123 331.661 153.747 331.747 153.341 332.056C153.178 332.179 153.009 332.339 152.838 332.541C152.678 332.731 152.516 332.963 152.354 333.235C152.343 333.253 152.333 333.268 152.322 333.286C152.235 333.435 152.149 333.596 152.062 333.771C153.413 333.847 154.197 333.584 154.64 333.235C154.708 333.182 154.769 333.127 154.821 333.07C154.92 332.964 154.993 332.854 155.045 332.746C155.203 332.422 155.175 332.116 155.105 331.996C155.033 331.876 154.781 331.702 154.422 331.68Z" fill="#28282B"/>
<path d="M173.66 322.972C176.772 323.149 176.889 321.519 176.702 321.197C176.515 320.876 175.037 320.175 173.66 322.972Z" fill="#28282B"/>
<path d="M216.861 322.972C219.973 323.149 220.089 321.519 219.902 321.197C219.716 320.876 218.237 320.175 216.861 322.972Z" fill="#28282B"/>
<path d="M152.061 290.572C155.173 290.749 155.29 289.119 155.103 288.797C154.915 288.476 153.438 287.775 152.061 290.572Z" fill="#28282B"/>
<path d="M195.262 290.572C198.373 290.749 198.491 289.119 198.303 288.797C198.117 288.476 196.639 287.775 195.262 290.572Z" fill="#28282B"/>
<path d="M173.66 301.372C176.772 301.549 176.889 299.919 176.702 299.597C176.515 299.276 175.037 298.575 173.66 301.372Z" fill="#28282B"/>
<path d="M216.861 301.372C219.973 301.549 220.089 299.919 219.902 299.597C219.716 299.276 218.237 298.575 216.861 301.372Z" fill="#28282B"/>
<path d="M173.66 279.772C176.772 279.949 176.889 278.319 176.702 277.997C176.515 277.676 175.037 276.975 173.66 279.772Z" fill="#28282B"/>
<path d="M216.861 279.772C219.973 279.949 220.089 278.319 219.902 277.997C219.716 277.676 218.237 276.975 216.861 279.772Z" fill="#28282B"/>
<path d="M190.353 310.397C190.166 310.718 190.283 312.349 193.396 312.171C192.018 309.375 190.54 310.076 190.353 310.397Z" fill="#28282B"/>
<path d="M168.753 321.197C168.566 321.518 168.684 323.149 171.796 322.972C170.418 320.175 168.94 320.876 168.753 321.197Z" fill="#28282B"/>
<path d="M233.552 310.397C233.364 310.718 233.482 312.349 236.593 312.171C235.216 309.375 233.739 310.076 233.552 310.397Z" fill="#28282B"/>
<path d="M211.953 321.197C211.765 321.518 211.883 323.149 214.996 322.972C213.618 320.175 212.139 320.876 211.953 321.197Z" fill="#28282B"/>
<path d="M156.229 335.936C156.229 335.936 179.629 341.936 209.029 319.136C238.429 296.336 249.829 305.336 248.629 321.536C247.429 337.736 222.229 352.736 211.429 354.536C193.669 357.496 177.829 362.336 156.229 335.936Z" fill="#28282B"/>
<path d="M190.353 288.797C190.166 289.118 190.283 290.749 193.396 290.572C192.018 287.775 190.54 288.476 190.353 288.797Z" fill="#28282B"/>
<path d="M168.753 299.597C168.566 299.918 168.684 301.549 171.796 301.372C170.418 298.575 168.94 299.276 168.753 299.597Z" fill="#28282B"/>
<path d="M233.552 288.797C233.364 289.118 233.482 290.749 236.593 290.572C235.216 287.775 233.739 288.476 233.552 288.797Z" fill="#28282B"/>
<path d="M211.953 299.597C211.765 299.918 211.883 301.549 214.996 301.372C213.618 298.575 212.139 299.276 211.953 299.597Z" fill="#28282B"/>
<path d="M168.753 277.997C168.566 278.318 168.684 279.949 171.796 279.772C170.418 276.975 168.94 277.676 168.753 277.997Z" fill="#28282B"/>
<path d="M211.953 277.997C211.765 278.318 211.883 279.949 214.996 279.772C213.618 276.975 212.139 277.676 211.953 277.997Z" fill="#28282B"/>
<path d="M197.838 268.436C198.416 267.981 198.409 267.379 198.303 267.197C198.129 266.899 196.84 266.276 195.553 268.436C195.456 268.6 195.359 268.775 195.262 268.972C196.611 269.048 197.397 268.785 197.838 268.436Z" fill="#28282B"/>
<path d="M154.638 268.436C155.216 267.981 155.209 267.379 155.103 267.197C154.929 266.899 153.639 266.276 152.352 268.436C152.255 268.6 152.158 268.775 152.061 268.972C153.411 269.048 154.195 268.785 154.638 268.436Z" fill="#28282B"/>
<path d="M151.959 373.915C151.936 373.763 151.893 373.63 151.839 373.515C151.838 373.513 151.838 373.509 151.837 373.507C151.809 373.448 151.777 373.393 151.743 373.344C151.741 373.342 151.739 373.34 151.739 373.338C151.674 373.243 151.601 373.165 151.528 373.102C151.525 373.101 151.523 373.099 151.521 373.096C151.446 373.034 151.372 372.989 151.305 372.959C151.304 372.959 151.304 372.958 151.303 372.958C151.235 372.929 151.172 372.914 151.126 372.914C151.08 372.914 151.018 372.929 150.948 372.959C150.534 373.141 149.854 373.895 150.616 375.539C150.743 375.812 150.911 376.111 151.126 376.436C151.341 376.111 151.508 375.812 151.635 375.539C151.89 374.991 151.983 374.542 151.98 374.18C151.979 374.089 151.973 374.004 151.96 373.924C151.961 373.921 151.959 373.919 151.959 373.915Z" fill="#28282B"/>
<path d="M194.327 372.914C193.956 372.914 192.606 373.837 194.327 376.436C196.048 373.837 194.698 372.914 194.327 372.914Z" fill="#28282B"/>
<path d="M194.327 394.514C193.956 394.514 192.606 395.437 194.327 398.036C196.048 395.437 194.698 394.514 194.327 394.514Z" fill="#28282B"/>
<path d="M151.959 395.515C151.936 395.363 151.893 395.23 151.839 395.115C151.838 395.113 151.838 395.109 151.837 395.108C151.809 395.048 151.777 394.993 151.743 394.944C151.741 394.942 151.739 394.94 151.739 394.938C151.674 394.843 151.601 394.765 151.528 394.703C151.525 394.701 151.523 394.699 151.521 394.696C151.446 394.634 151.372 394.589 151.305 394.559C151.304 394.559 151.304 394.559 151.303 394.559C151.235 394.529 151.172 394.514 151.126 394.514C151.08 394.514 151.018 394.529 150.948 394.559C150.534 394.741 149.854 395.495 150.616 397.139C150.743 397.412 150.911 397.711 151.126 398.036C151.341 397.711 151.508 397.412 151.635 397.139C151.89 396.591 151.983 396.142 151.98 395.78C151.979 395.689 151.973 395.604 151.96 395.524C151.961 395.521 151.959 395.519 151.959 395.515Z" fill="#28282B"/>
<path d="M172.727 383.714C172.356 383.714 171.006 384.637 172.727 387.236C174.449 384.637 173.099 383.714 172.727 383.714Z" fill="#28282B"/>
<path d="M215.928 383.714C215.557 383.714 214.207 384.637 215.928 387.236C217.649 384.637 216.299 383.714 215.928 383.714Z" fill="#28282B"/>
<path d="M151.959 352.315C151.936 352.163 151.893 352.03 151.839 351.915C151.838 351.913 151.838 351.909 151.837 351.908C151.809 351.848 151.777 351.793 151.743 351.744C151.741 351.742 151.739 351.74 151.739 351.738C151.674 351.643 151.601 351.565 151.528 351.503C151.525 351.501 151.523 351.499 151.521 351.496C151.446 351.434 151.372 351.389 151.305 351.359C151.304 351.359 151.304 351.359 151.303 351.359C151.235 351.329 151.172 351.314 151.126 351.314C151.08 351.314 151.018 351.329 150.948 351.359C150.534 351.541 149.854 352.295 150.616 353.939C150.743 354.212 150.911 354.511 151.126 354.836C151.341 354.511 151.508 354.212 151.635 353.939C151.89 353.391 151.983 352.942 151.98 352.58C151.979 352.489 151.973 352.404 151.96 352.324C151.961 352.321 151.959 352.319 151.959 352.315Z" fill="#28282B"/>
<path d="M194.327 351.314C193.956 351.314 192.606 352.237 194.327 354.836C196.048 352.237 194.698 351.314 194.327 351.314Z" fill="#28282B"/>
<path d="M172.727 362.114C172.356 362.114 171.006 363.037 172.727 365.636C174.449 363.037 173.099 362.114 172.727 362.114Z" fill="#28282B"/>
<path d="M215.928 362.114C215.557 362.114 214.207 363.037 215.928 365.636C217.649 363.037 216.299 362.114 215.928 362.114Z" fill="#28282B"/>
<path d="M172.727 340.514C172.356 340.514 171.006 341.437 172.727 344.036C174.449 341.437 173.099 340.514 172.727 340.514Z" fill="#28282B"/>
<path d="M215.928 340.514C215.557 340.514 214.207 341.437 215.928 344.036C217.649 341.437 216.299 340.514 215.928 340.514Z" fill="#28282B"/>
<path d="M152.061 376.972C155.173 377.149 155.29 375.519 155.103 375.197C154.915 374.876 153.438 374.175 152.061 376.972Z" fill="#28282B"/>
<path d="M195.262 376.972C198.373 377.149 198.491 375.519 198.303 375.197C198.117 374.876 196.639 374.175 195.262 376.972Z" fill="#28282B"/>
<path d="M197.622 396.48C197.561 396.476 197.499 396.476 197.433 396.482C197.236 396.498 197.016 396.562 196.78 396.696C196.702 396.741 196.622 396.794 196.54 396.855C196.224 397.095 195.888 397.473 195.553 398.035C195.456 398.199 195.359 398.374 195.262 398.571C196.611 398.647 197.397 398.384 197.838 398.035C198.416 397.58 198.409 396.979 198.303 396.796C198.233 396.676 197.982 396.503 197.622 396.48Z" fill="#28282B"/>
<path d="M154.422 396.48C154.362 396.476 154.299 396.476 154.234 396.482C154.037 396.498 153.817 396.562 153.581 396.696C153.503 396.741 153.422 396.794 153.341 396.855C153.025 397.095 152.689 397.473 152.354 398.035C152.257 398.199 152.16 398.374 152.062 398.571C153.413 398.647 154.197 398.384 154.64 398.035C155.218 397.58 155.211 396.979 155.105 396.796C155.033 396.676 154.781 396.503 154.422 396.48Z" fill="#28282B"/>
<path d="M173.66 387.772C176.772 387.949 176.889 386.319 176.702 385.997C176.515 385.676 175.037 384.975 173.66 387.772Z" fill="#28282B"/>
<path d="M216.861 387.772C219.973 387.949 220.089 386.319 219.902 385.997C219.716 385.676 218.237 384.975 216.861 387.772Z" fill="#28282B"/>
<path d="M152.061 355.372C155.173 355.549 155.29 353.919 155.103 353.597C154.915 353.276 153.438 352.575 152.061 355.372Z" fill="#28282B"/>
<path d="M195.262 355.372C198.373 355.549 198.491 353.919 198.303 353.597C198.117 353.276 196.639 352.575 195.262 355.372Z" fill="#28282B"/>
<path d="M173.66 366.171C176.772 366.349 176.889 364.719 176.702 364.397C176.515 364.076 175.037 363.375 173.66 366.171Z" fill="#28282B"/>
<path d="M216.861 366.171C219.973 366.349 220.089 364.719 219.902 364.397C219.716 364.076 218.237 363.375 216.861 366.171Z" fill="#28282B"/>
<path d="M173.66 344.572C176.772 344.749 176.889 343.119 176.702 342.797C176.515 342.476 175.037 341.775 173.66 344.572Z" fill="#28282B"/>
<path d="M216.861 344.572C219.973 344.749 220.089 343.119 219.902 342.797C219.716 342.476 218.237 341.775 216.861 344.572Z" fill="#28282B"/>
<path d="M190.353 375.197C190.166 375.518 190.283 377.149 193.396 376.972C192.018 374.175 190.54 374.876 190.353 375.197Z" fill="#28282B"/>
<path d="M192.117 396.856C192.035 396.794 191.955 396.741 191.876 396.697C191.641 396.562 191.42 396.499 191.223 396.483C191.157 396.477 191.094 396.476 191.034 396.481C190.674 396.503 190.423 396.677 190.353 396.798C190.246 396.979 190.239 397.582 190.818 398.037C191.261 398.386 192.046 398.649 193.396 398.573C193.298 398.375 193.201 398.201 193.104 398.037C192.768 397.474 192.433 397.096 192.117 396.856Z" fill="#28282B"/>
<path d="M168.753 385.997C168.566 386.318 168.684 387.949 171.796 387.772C170.418 384.975 168.94 385.676 168.753 385.997Z" fill="#28282B"/>
<path d="M233.552 375.197C233.364 375.518 233.482 377.149 236.593 376.972C235.216 374.175 233.739 374.876 233.552 375.197Z" fill="#28282B"/>
<path d="M236.302 398.036C235.967 397.474 235.632 397.096 235.316 396.856C235.234 396.794 235.154 396.741 235.076 396.697C234.84 396.562 234.619 396.499 234.422 396.483C234.356 396.477 234.293 396.476 234.233 396.481C233.873 396.503 233.622 396.677 233.552 396.798C233.446 396.979 233.438 397.582 234.016 398.037C234.459 398.386 235.244 398.649 236.593 398.573C236.497 398.375 236.399 398.2 236.302 398.036Z" fill="#28282B"/>
<path d="M211.953 385.997C211.765 386.318 211.883 387.949 214.996 387.772C213.618 384.975 212.139 385.676 211.953 385.997Z" fill="#28282B"/>
<path d="M190.353 353.597C190.166 353.918 190.283 355.549 193.396 355.372C192.018 352.575 190.54 353.276 190.353 353.597Z" fill="#28282B"/>
<path d="M168.753 364.397C168.566 364.718 168.684 366.349 171.796 366.171C170.418 363.375 168.94 364.076 168.753 364.397Z" fill="#28282B"/>
<path d="M233.552 353.597C233.364 353.918 233.482 355.549 236.593 355.372C235.216 352.575 233.739 353.276 233.552 353.597Z" fill="#28282B"/>
<path d="M211.953 364.397C211.765 364.718 211.883 366.349 214.996 366.171C213.618 363.375 212.139 364.076 211.953 364.397Z" fill="#28282B"/>
<path d="M168.753 342.797C168.566 343.118 168.684 344.749 171.796 344.572C170.418 341.775 168.94 342.476 168.753 342.797Z" fill="#28282B"/>
<path d="M211.953 342.797C211.765 343.118 211.883 344.749 214.996 344.572C213.618 341.775 212.139 342.476 211.953 342.797Z" fill="#28282B"/>
<path d="M193.104 333.236C192.942 332.964 192.779 332.732 192.619 332.542C192.448 332.34 192.279 332.18 192.117 332.057C191.709 331.748 191.334 331.662 191.034 331.681C190.674 331.703 190.423 331.877 190.353 331.998C190.282 332.118 190.255 332.423 190.413 332.747C190.465 332.855 190.538 332.966 190.637 333.072C190.689 333.129 190.75 333.184 190.818 333.237C191.261 333.586 192.045 333.849 193.395 333.773C193.309 333.598 193.223 333.437 193.136 333.288C193.125 333.269 193.115 333.254 193.104 333.236Z" fill="#28282B"/>
<path d="M236.302 333.236C236.14 332.964 235.978 332.732 235.817 332.542C235.646 332.34 235.478 332.18 235.315 332.057C234.908 331.748 234.533 331.662 234.233 331.681C233.873 331.703 233.622 331.877 233.552 331.998C233.482 332.118 233.454 332.423 233.612 332.747C233.664 332.855 233.737 332.966 233.836 333.072C233.888 333.129 233.949 333.184 234.017 333.237C234.459 333.586 235.244 333.849 236.593 333.773C236.508 333.598 236.42 333.437 236.334 333.288C236.323 333.269 236.312 333.254 236.302 333.236Z" fill="#28282B"/>
<path d="M172.727 405.314C172.356 405.314 171.006 406.237 172.727 408.836C174.449 406.237 173.099 405.314 172.727 405.314Z" fill="#28282B"/>
<path d="M215.928 405.314C215.557 405.314 214.207 406.237 215.928 408.836C217.649 406.237 216.299 405.314 215.928 405.314Z" fill="#28282B"/>
<path d="M173.66 409.372C176.772 409.549 176.889 407.919 176.702 407.597C176.515 407.276 175.037 406.575 173.66 409.372Z" fill="#28282B"/>
<path d="M216.861 409.372C219.973 409.549 220.089 407.919 219.902 407.597C219.716 407.276 218.237 406.575 216.861 409.372Z" fill="#28282B"/>
<path d="M168.753 407.597C168.566 407.919 168.684 409.549 171.796 409.372C170.418 406.575 168.94 407.276 168.753 407.597Z" fill="#28282B"/>
<path d="M211.953 407.597C211.765 407.919 211.883 409.549 214.996 409.372C213.618 406.575 212.139 407.276 211.953 407.597Z" fill="#28282B"/>
<path d="M107.928 264.914C107.557 264.914 106.207 265.837 107.928 268.436C109.65 265.837 108.3 264.914 107.928 264.914Z" fill="#28282B"/>
<path d="M129.528 254.114C129.157 254.114 127.807 255.037 129.528 257.636C131.249 255.037 129.899 254.114 129.528 254.114Z" fill="#28282B"/>
<path d="M130.322 233.347C129.764 233.478 129.217 233.619 128.674 233.764C128.665 234.308 128.875 235.052 129.526 236.036C130.365 234.771 130.473 233.905 130.322 233.347Z" fill="#28282B"/>
<path d="M108.861 247.372C111.973 247.549 112.091 245.919 111.902 245.597C111.716 245.276 110.238 244.575 108.861 247.372Z" fill="#28282B"/>
<path d="M130.461 258.171C133.572 258.349 133.688 256.719 133.502 256.397C133.316 256.076 131.837 255.375 130.461 258.171Z" fill="#28282B"/>
<path d="M130.461 236.572C133.572 236.749 133.688 235.119 133.502 234.797C133.316 234.476 131.837 233.775 130.461 236.572Z" fill="#28282B"/>
<path d="M103.952 267.197C103.846 267.379 103.839 267.981 104.418 268.436C104.86 268.785 105.645 269.048 106.995 268.972C106.898 268.775 106.801 268.6 106.704 268.436C105.416 266.276 104.126 266.899 103.952 267.197Z" fill="#28282B"/>
<path d="M147.154 245.597C146.966 245.918 147.084 247.549 150.195 247.372C148.819 244.575 147.34 245.276 147.154 245.597Z" fill="#28282B"/>
<path d="M149.903 268.436C148.616 266.276 147.326 266.899 147.153 267.197C147.047 267.379 147.04 267.981 147.618 268.436C148.061 268.785 148.845 269.048 150.195 268.972C150.097 268.775 150 268.6 149.903 268.436Z" fill="#28282B"/>
<path d="M125.552 256.397C125.364 256.718 125.482 258.349 128.595 258.171C127.217 255.375 125.739 256.076 125.552 256.397Z" fill="#28282B"/>
<path d="M126.208 234.484C126.051 234.534 125.891 234.581 125.736 234.632C125.648 234.686 125.583 234.745 125.554 234.797C125.366 235.118 125.484 236.749 128.597 236.572C127.721 234.796 126.807 234.432 126.208 234.484Z" fill="#28282B"/>
<path d="M64.7271 308.114C64.3563 308.114 63.0063 309.037 64.7271 311.636C66.4488 309.037 65.0988 308.114 64.7271 308.114Z" fill="#28282B"/>
<path d="M86.3267 318.914C85.9559 318.914 84.6059 319.837 86.3267 322.436C88.0484 319.837 86.6984 318.914 86.3267 318.914Z" fill="#28282B"/>
<path d="M107.928 286.514C107.557 286.514 106.207 287.437 107.928 290.036C109.65 287.437 108.3 286.514 107.928 286.514Z" fill="#28282B"/>
<path d="M86.3267 297.314C85.9559 297.314 84.6059 298.237 86.3267 300.836C88.0484 298.237 86.6984 297.314 86.3267 297.314Z" fill="#28282B"/>
<path d="M129.528 297.314C129.157 297.314 127.807 298.237 129.528 300.836C131.249 298.237 129.899 297.314 129.528 297.314Z" fill="#28282B"/>
<path d="M86.3267 275.714C85.9559 275.714 84.6059 276.637 86.3267 279.236C88.0484 276.637 86.6984 275.714 86.3267 275.714Z" fill="#28282B"/>
<path d="M129.528 275.714C129.157 275.714 127.807 276.637 129.528 279.236C131.249 276.637 129.899 275.714 129.528 275.714Z" fill="#28282B"/>
<path d="M65.6602 312.171C68.7724 312.349 68.8894 310.719 68.7022 310.397C68.515 310.076 67.0372 309.375 65.6602 312.171Z" fill="#28282B"/>
<path d="M87.7969 322.055C88.5943 321.761 89.3791 321.425 90.1504 321.051C89.7697 320.794 88.8058 320.625 87.7969 322.055Z" fill="#28282B"/>
<path d="M68.7024 288.797C68.6511 288.709 68.499 288.593 68.2812 288.529C67.7205 289.238 67.1931 289.922 66.7305 290.554C68.796 290.344 68.8653 289.077 68.7024 288.797Z" fill="#28282B"/>
<path d="M108.861 290.572C111.973 290.749 112.091 289.119 111.902 288.797C111.716 288.476 110.238 287.775 108.861 290.572Z" fill="#28282B"/>
<path d="M87.2617 301.372C90.3739 301.549 90.4909 299.919 90.3037 299.597C90.1165 299.276 88.6387 298.575 87.2617 301.372Z" fill="#28282B"/>
<path d="M130.461 301.372C133.572 301.549 133.688 299.919 133.502 299.597C133.316 299.276 131.837 298.575 130.461 301.372Z" fill="#28282B"/>
<path d="M87.2617 279.772C90.3739 279.949 90.4909 278.319 90.3037 277.997C90.1165 277.676 88.6387 276.975 87.2617 279.772Z" fill="#28282B"/>
<path d="M130.461 279.772C133.572 279.949 133.688 278.319 133.502 277.997C133.316 277.676 131.837 276.975 130.461 279.772Z" fill="#28282B"/>
<path d="M82.3538 321.197C82.1837 321.489 82.2737 322.861 84.6326 322.973C84.8603 322.925 85.088 322.875 85.3148 322.819C83.9603 320.211 82.5374 320.883 82.3538 321.197Z" fill="#28282B"/>
<path d="M147.154 310.397C146.966 310.718 147.084 312.349 150.195 312.171C148.819 309.375 147.34 310.076 147.154 310.397Z" fill="#28282B"/>
<path d="M103.952 288.797C103.765 289.118 103.883 290.749 106.995 290.572C105.617 287.775 104.14 288.476 103.952 288.797Z" fill="#28282B"/>
<path d="M82.3527 299.597C82.1655 299.918 82.2834 301.549 85.3956 301.372C84.0177 298.575 82.5399 299.276 82.3527 299.597Z" fill="#28282B"/>
<path d="M147.154 288.797C146.966 289.118 147.084 290.749 150.195 290.572C148.819 287.775 147.34 288.476 147.154 288.797Z" fill="#28282B"/>
<path d="M82.3527 277.997C82.1655 278.318 82.2834 279.949 85.3956 279.772C84.0177 276.975 82.5399 277.676 82.3527 277.997Z" fill="#28282B"/>
<path d="M125.552 277.997C125.364 278.318 125.482 279.949 128.595 279.772C127.217 276.975 125.739 277.676 125.552 277.997Z" fill="#28282B"/>
<path d="M111.438 268.436C112.016 267.981 112.009 267.379 111.902 267.197C111.729 266.899 110.44 266.276 109.153 268.436C109.056 268.6 108.959 268.775 108.861 268.972C110.21 269.048 110.996 268.785 111.438 268.436Z" fill="#28282B"/>
<path d="M129.528 383.714C129.157 383.714 127.807 384.637 129.528 387.236C131.249 384.637 129.899 383.714 129.528 383.714Z" fill="#28282B"/>
<path d="M130.222 364.271C129.967 364.685 129.715 365.108 129.467 365.536C129.488 365.57 129.505 365.602 129.528 365.636C129.874 365.114 130.09 364.663 130.222 364.271Z" fill="#28282B"/>
<path d="M130.461 387.772C133.572 387.949 133.688 386.319 133.502 385.997C133.316 385.676 131.837 384.975 130.461 387.772Z" fill="#28282B"/>
<path d="M130.461 366.171C133.572 366.349 133.688 364.719 133.502 364.397C133.316 364.076 131.837 363.375 130.461 366.171Z" fill="#28282B"/>
<path d="M147.154 375.197C146.966 375.518 147.084 377.149 150.195 376.972C148.819 374.175 147.34 374.876 147.154 375.197Z" fill="#28282B"/>
<path d="M149.903 398.036C149.568 397.474 149.232 397.096 148.917 396.856C148.835 396.794 148.755 396.741 148.676 396.697C148.44 396.562 148.22 396.499 148.023 396.483C147.957 396.477 147.894 396.476 147.835 396.481C147.475 396.503 147.224 396.677 147.153 396.798C147.047 396.979 147.04 397.582 147.618 398.037C148.061 398.386 148.845 398.649 150.195 398.573C150.097 398.375 150 398.2 149.903 398.036Z" fill="#28282B"/>
<path d="M125.552 385.997C125.364 386.318 125.482 387.949 128.595 387.772C127.217 384.975 125.739 385.676 125.552 385.997Z" fill="#28282B"/>
<path d="M147.154 353.597C146.966 353.918 147.084 355.549 150.195 355.372C148.819 352.575 147.34 353.276 147.154 353.597Z" fill="#28282B"/>
<path d="M149.903 333.236C149.741 332.964 149.579 332.732 149.419 332.542C149.248 332.34 149.08 332.18 148.917 332.057C148.509 331.748 148.135 331.662 147.835 331.681C147.475 331.703 147.224 331.877 147.154 331.998C147.084 332.118 147.056 332.423 147.213 332.747C147.265 332.855 147.338 332.966 147.437 333.072C147.489 333.129 147.551 333.184 147.618 333.237C148.061 333.586 148.846 333.849 150.195 333.773C150.108 333.598 150.022 333.437 149.936 333.288C149.925 333.269 149.914 333.254 149.903 333.236Z" fill="#28282B"/>
<path d="M129.528 405.314C129.157 405.314 127.807 406.237 129.528 408.836C131.249 406.237 129.899 405.314 129.528 405.314Z" fill="#28282B"/>
<path d="M130.461 409.372C133.572 409.549 133.688 407.919 133.502 407.597C133.316 407.276 131.837 406.575 130.461 409.372Z" fill="#28282B"/>
<path d="M125.552 407.597C125.364 407.919 125.482 409.549 128.595 409.372C127.217 406.575 125.739 407.276 125.552 407.597Z" fill="#28282B"/>
<path d="M62.6152 310.542C62.7961 311.101 62.9986 311.65 63.229 312.184C63.4054 312.187 63.5926 312.183 63.7942 312.173C63.3982 311.367 62.995 310.859 62.6152 310.542Z" fill="#28282B"/>
</g>
</g>
<path d="M272.894 409.736C272.894 409.736 274.512 387.637 264.81 365.539C255.108 343.44 252.914 341.835 252.914 335.367C252.914 328.899 259.42 321.342 260.498 306.789C261.576 292.236 261.037 285.23 261.037 285.23C261.037 285.23 284.214 321.882 300.383 324.037C316.553 326.193 326.255 311.101 320.326 290.619C314.397 270.138 288.526 253.428 278.285 239.954C268.043 226.479 244.868 226.479 233.009 226.479C221.152 226.479 215.222 222.167 213.066 214.082C210.911 205.998 210.911 189.827 210.911 189.827C210.911 189.827 196.897 198.451 173.181 188.749C173.181 188.749 175.336 218.393 172.642 222.705C169.947 227.017 166.174 231.329 150.004 231.329C133.834 231.329 120.36 234.563 112.813 242.109C105.268 249.655 74.0062 279.839 65.9206 291.696C57.8359 303.554 62.1478 316.49 71.8498 321.341C81.5518 326.192 91.2538 321.88 98.2603 315.411C105.267 308.943 127.366 288.462 127.366 288.462C127.366 288.462 127.366 300.858 133.295 318.645C139.225 336.432 144.076 334.275 139.764 347.212C135.452 360.148 126.828 363.921 124.133 380.63C121.437 397.339 121.977 409.736 121.977 409.736" stroke="#28282B" stroke-miterlimit="10" strokeLinecap="round" strokeLinejoin="round"/>
<path d="M127.367 288.463C127.367 288.463 127.717 280.612 130.919 271.327L127.367 288.463Z" fill="#F2C762"/>
<path d="M127.367 288.463C127.367 288.463 127.717 280.612 130.919 271.327L127.367 288.463Z" fill="white"/>
<path d="M127.367 288.463C127.367 288.463 127.717 280.612 130.919 271.327" stroke="#28282B" stroke-miterlimit="10" strokeLinecap="round" strokeLinejoin="round"/>
<path d="M261.037 285.229C261.037 285.229 259.319 278.371 256.117 272.287" stroke="#28282B" stroke-miterlimit="10" strokeLinecap="round" strokeLinejoin="round"/>
<path d="M181.83 344.972L215.771 334.085" stroke="#28282B" stroke-miterlimit="10" strokeLinecap="round" strokeLinejoin="round"/>
<path d="M197.199 336.007C197.199 336.007 207.446 331.524 221.855 329.283" stroke="#28282B" stroke-miterlimit="10" strokeLinecap="round" strokeLinejoin="round"/>
<path d="M187.732 267.442C214.622 272.632 224.995 246.855 228.611 226.248C219.653 225.266 214.936 221.097 213.066 214.082C210.91 205.998 210.91 189.827 210.91 189.827C210.91 189.827 196.896 198.451 173.18 188.749C173.18 188.749 175.336 218.393 172.641 222.705C170.764 225.709 168.357 228.713 161.603 230.258C161.356 239.468 163.22 262.711 187.732 267.442Z" fill="#B2B2B2"/>
<mask id="mask1_660_2336" style="mask-type:luminance" maskUnits="userSpaceOnUse" x="161" y="188" width="68" height="81">
<path d="M187.732 267.442C214.622 272.632 224.995 246.855 228.611 226.248C219.653 225.266 214.936 221.097 213.066 214.082C210.91 205.998 210.91 189.827 210.91 189.827C210.91 189.827 196.896 198.451 173.18 188.749C173.18 188.749 175.336 218.393 172.641 222.705C170.764 225.709 168.357 228.713 161.603 230.258C161.356 239.468 163.22 262.711 187.732 267.442Z" fill="white"/>
</mask>
<g mask="url(#mask1_660_2336)">
<path opacity="0.2" d="M212.479 211.417C210.91 202.903 210.909 189.827 210.909 189.827C210.909 189.827 196.896 198.451 173.18 188.749C173.18 188.749 174.08 201.142 173.988 211.068C194.416 218.15 206.203 215.145 212.479 211.417Z" fill="#28282B"/>
</g>
<path d="M187.732 267.442C214.622 272.632 224.995 246.855 228.611 226.248C219.653 225.266 214.936 221.097 213.066 214.082C210.91 205.998 210.91 189.827 210.91 189.827C210.91 189.827 196.896 198.451 173.18 188.749C173.18 188.749 175.336 218.393 172.641 222.705C170.764 225.709 168.357 228.713 161.603 230.258C161.356 239.468 163.22 262.711 187.732 267.442Z" stroke="#28282B" stroke-miterlimit="10" strokeLinecap="round" strokeLinejoin="round"/>
<path d="M228.391 179.489C232.079 179.489 235.069 176.499 235.069 172.811C235.069 169.123 232.079 166.133 228.391 166.133C224.703 166.133 221.713 169.123 221.713 172.811C221.713 176.499 224.703 179.489 228.391 179.489Z" fill="#7534FC" stroke="#28282B" stroke-miterlimit="10" strokeLinecap="round" strokeLinejoin="round"/>
<path d="M157.055 179.489C160.743 179.489 163.733 176.499 163.733 172.811C163.733 169.123 160.743 166.133 157.055 166.133C153.367 166.133 150.377 169.123 150.377 172.811C150.377 176.499 153.367 179.489 157.055 179.489Z" fill="#7534FC" stroke="#28282B" stroke-miterlimit="10" strokeLinecap="round" strokeLinejoin="round"/>
<path d="M227.784 150.044C227.784 150.044 231.123 139.723 235.07 143.366C239.016 147.009 233.856 160.973 231.123 164.312C228.391 167.651 225.659 167.651 225.963 163.098C226.267 158.544 227.784 150.044 227.784 150.044Z" fill="#B2B2B2" stroke="#28282B" stroke-miterlimit="10" strokeLinecap="round" strokeLinejoin="round"/>
<path d="M158.746 160.433C158.746 160.433 159.656 184.545 177.399 196.374C195.141 208.202 208.334 201.378 215.613 191.37C222.893 181.361 227.442 171.352 227.442 156.794C227.442 142.237 229.262 135.867 224.258 126.769C219.254 117.67 201.966 113.12 201.966 113.12C201.966 113.12 192.412 125.403 178.764 138.596C165.115 151.79 158.746 160.433 158.746 160.433Z" fill="#B2B2B2"/>
<mask id="mask2_660_2336" style="mask-type:luminance" maskUnits="userSpaceOnUse" x="158" y="113" width="70" height="90">
<path d="M158.746 160.433C158.746 160.433 159.656 184.545 177.399 196.374C195.141 208.202 208.334 201.378 215.613 191.37C222.893 181.361 227.442 171.352 227.442 156.794C227.442 142.237 229.262 135.867 224.258 126.769C219.254 117.67 201.966 113.12 201.966 113.12C201.966 113.12 192.412 125.403 178.764 138.596C165.115 151.79 158.746 160.433 158.746 160.433Z" fill="white"/>
</mask>
<g mask="url(#mask2_660_2336)">
<path opacity="0.2" d="M201.966 113.119C201.966 113.119 192.412 125.402 178.764 138.595C165.115 151.789 158.746 160.433 158.746 160.433C158.746 160.433 158.983 166.605 161.509 174.234C185.488 155.886 198.586 122.925 202.069 113.148C202.008 113.131 201.966 113.119 201.966 113.119Z" fill="#28282B"/>
</g>
<path d="M158.746 160.433C158.746 160.433 159.656 184.545 177.399 196.374C195.141 208.202 208.334 201.378 215.613 191.37C222.893 181.361 227.442 171.352 227.442 156.794C227.442 142.237 229.262 135.867 224.258 126.769C219.254 117.67 201.966 113.12 201.966 113.12C201.966 113.12 192.412 125.403 178.764 138.596C165.115 151.79 158.746 160.433 158.746 160.433Z" stroke="#28282B" stroke-miterlimit="10" strokeLinecap="round" strokeLinejoin="round"/>
<path d="M175.531 157.596L185.747 158.555" stroke="#28282B" stroke-miterlimit="10" strokeLinecap="round" strokeLinejoin="round"/>
<path d="M206.498 157.278C206.498 157.278 213.202 156.001 216.394 157.278" stroke="#28282B" stroke-miterlimit="10" strokeLinecap="round" strokeLinejoin="round"/>
<path d="M184.374 152.928C184.374 155.359 183.287 157.33 181.946 157.33C180.605 157.33 179.518 155.359 179.518 152.928C179.518 150.497 180.605 148.526 181.946 148.526C183.287 148.527 184.374 150.497 184.374 152.928Z" fill="#28282B"/>
<path d="M189.838 168.258C189.838 168.258 195.302 171.9 200.462 167.347" stroke="#28282B" stroke-miterlimit="10" strokeLinecap="round" strokeLinejoin="round"/>
<path d="M192.57 178.579C192.57 178.579 201.981 182.526 207.445 169.776" stroke="#28282B" stroke-miterlimit="10" strokeLinecap="round" strokeLinejoin="round"/>
<path d="M204.711 153.08C204.711 153.08 210.478 149.134 216.246 151.563" stroke="#28282B" strokeWidth="2" stroke-miterlimit="10" strokeLinecap="round" strokeLinejoin="round"/>
<path d="M202.891 143.062C202.891 143.062 209.265 136.687 218.068 141.848" stroke="#28282B" strokeWidth="2" stroke-miterlimit="10" strokeLinecap="round" strokeLinejoin="round"/>
<path d="M189.23 139.117C189.23 139.117 183.767 133.653 176.178 138.813" stroke="#28282B" strokeWidth="2" stroke-miterlimit="10" strokeLinecap="round" strokeLinejoin="round"/>
<path d="M65.9208 291.696C65.9208 291.696 56.2188 302.477 56.2188 313.795C56.2188 325.114 62.687 335.354 80.4737 351.525C98.2604 367.694 114.969 379.552 121.976 383.325C128.983 387.098 135.99 382.247 135.99 382.247C135.99 382.247 147.579 393.836 148.926 391.141C150.273 388.446 144.883 384.403 143.806 382.786C142.728 381.169 140.572 379.282 140.572 379.282C140.572 379.282 146.231 380.091 148.388 381.977C150.544 383.864 154.047 387.097 155.664 386.828C157.282 386.559 157.282 385.211 154.856 381.977C152.431 378.743 149.466 376.587 147.85 375.509C146.232 374.431 140.843 371.466 140.843 371.466C140.843 371.466 148.659 370.927 151.353 372.544C154.048 374.161 161.324 379.012 161.863 376.856C162.403 374.7 162.403 373.352 159.708 370.927C157.013 368.501 151.623 365.537 148.389 364.998C145.155 364.459 141.921 363.111 141.921 363.111C141.921 363.111 148.12 360.955 150.276 360.955C152.432 360.955 161.056 365.267 163.482 364.728C165.907 364.189 164.56 362.033 162.673 360.685C160.787 359.338 152.432 356.104 148.93 355.834C145.427 355.564 125.753 362.302 123.327 362.302C120.902 362.302 114.703 353.678 108.235 342.09C101.767 330.502 99.3414 312.445 85.5975 306.247" fill="#7534FC"/>
<mask id="mask3_660_2336" style="mask-type:luminance" maskUnits="userSpaceOnUse" x="56" y="291" width="109" height="101">
<path d="M65.9208 291.696C65.9208 291.696 56.2188 302.477 56.2188 313.795C56.2188 325.114 62.687 335.354 80.4737 351.525C98.2604 367.694 114.969 379.552 121.976 383.325C128.983 387.098 135.99 382.247 135.99 382.247C135.99 382.247 147.579 393.836 148.926 391.141C150.273 388.446 144.883 384.403 143.806 382.786C142.728 381.169 140.572 379.282 140.572 379.282C140.572 379.282 146.231 380.091 148.388 381.977C150.544 383.864 154.047 387.097 155.664 386.828C157.282 386.559 157.282 385.211 154.856 381.977C152.431 378.743 149.466 376.587 147.85 375.509C146.232 374.431 140.843 371.466 140.843 371.466C140.843 371.466 148.659 370.927 151.353 372.544C154.048 374.161 161.324 379.012 161.863 376.856C162.403 374.7 162.403 373.352 159.708 370.927C157.013 368.501 151.623 365.537 148.389 364.998C145.155 364.459 141.921 363.111 141.921 363.111C141.921 363.111 148.12 360.955 150.276 360.955C152.432 360.955 161.056 365.267 163.482 364.728C165.907 364.189 164.56 362.033 162.673 360.685C160.787 359.338 152.432 356.104 148.93 355.834C145.427 355.564 125.753 362.302 123.327 362.302C120.902 362.302 114.703 353.678 108.235 342.09C101.767 330.502 99.3414 312.445 85.5975 306.247" fill="white"/>
</mask>
<g mask="url(#mask3_660_2336)">
<g opacity="0.2">
<path d="M64.7285 311.636C66.4502 309.037 65.1002 308.114 64.7285 308.114C65.0993 308.114 66.4493 309.037 64.7285 311.636Z" fill="#28282B"/>
<path d="M64.7285 329.714C65.0993 329.714 66.4493 330.637 64.7285 333.236C66.4502 330.637 65.1002 329.714 64.7285 329.714Z" fill="#28282B"/>
<path d="M86.3287 318.914C85.9579 318.914 84.6079 319.837 86.3287 322.436C88.0504 319.837 86.7004 318.914 86.3287 318.914Z" fill="#28282B"/>
<path d="M68.7041 310.396C68.5169 310.075 67.0391 309.375 65.6621 312.171C68.7743 312.348 68.8913 310.718 68.7041 310.396Z" fill="#28282B"/>
<path d="M68.42 333.071C68.519 332.965 68.5919 332.854 68.6441 332.746C68.8016 332.422 68.7737 332.117 68.7035 331.997C68.6333 331.876 68.3813 331.702 68.0222 331.68C67.7225 331.661 67.3472 331.746 66.9404 332.056C66.7775 332.179 66.6092 332.339 66.4382 332.541C66.278 332.731 66.116 332.963 65.9531 333.235H68.2391C68.3066 333.183 68.3678 333.128 68.42 333.071Z" fill="#28282B"/>
<path d="M90.3037 321.196C90.1165 320.875 88.6387 320.175 87.2617 322.971C90.3739 323.148 90.4909 321.518 90.3037 321.196Z" fill="#28282B"/>
<path d="M85.3956 322.971C84.0177 320.175 82.5399 320.876 82.3527 321.196C82.1655 321.518 82.2834 323.149 85.3956 322.971Z" fill="#28282B"/>
<path d="M64.7285 308.114V311.636C66.4493 309.037 65.0993 308.114 64.7285 308.114Z" fill="#28282B"/>
<path d="M64.7285 329.714V333.236C66.4493 330.637 65.0993 329.714 64.7285 329.714Z" fill="#28282B"/>
<path d="M107.927 372.914C107.764 372.914 107.41 373.095 107.213 373.518C107.729 373.898 108.235 374.269 108.735 374.63C108.962 373.396 108.195 372.914 107.927 372.914Z" fill="#28282B"/>
<path d="M129.528 383.714C129.321 383.714 128.807 384.004 128.695 384.714C129.254 384.672 129.795 384.6 130.312 384.501C130.143 383.945 129.713 383.714 129.528 383.714Z" fill="#28282B"/>
<path d="M107.928 351.314C107.557 351.314 106.207 352.236 107.928 354.836C109.65 352.236 108.3 351.314 107.928 351.314Z" fill="#28282B"/>
<path d="M129.528 365.636C131.249 363.037 129.899 362.114 129.528 362.114C129.157 362.114 127.807 363.037 129.528 365.636Z" fill="#28282B"/>
<path d="M86.3287 344.036C88.0504 341.436 86.7004 340.514 86.3287 340.514C85.9579 340.514 84.6079 341.436 86.3287 344.036Z" fill="#28282B"/>
<path d="M111.902 375.196C111.763 374.956 110.899 374.503 109.895 375.466C110.388 375.819 110.872 376.164 111.347 376.499C112.012 376.037 112.014 375.387 111.902 375.196Z" fill="#28282B"/>
<path d="M108.861 355.371C111.973 355.548 112.091 353.919 111.902 353.596C111.716 353.276 110.238 352.575 108.861 355.371Z" fill="#28282B"/>
<path d="M130.461 366.171C133.572 366.349 133.688 364.719 133.502 364.396C133.316 364.076 131.837 363.375 130.461 366.171Z" fill="#28282B"/>
<path d="M87.2617 344.571C90.3739 344.748 90.4909 343.119 90.3037 342.796C90.1165 342.476 88.6387 341.775 87.2617 344.571Z" fill="#28282B"/>
<path d="M149.879 376.978C149.099 376.37 148.394 375.873 147.848 375.51C147.68 375.397 147.464 375.261 147.224 375.115C147.194 375.143 147.168 375.171 147.153 375.196C146.972 375.507 147.083 377.028 149.879 376.978Z" fill="#28282B"/>
<path d="M106.997 355.371C105.619 352.575 104.141 353.276 103.954 353.596C103.767 353.918 103.885 355.548 106.997 355.371Z" fill="#28282B"/>
<path d="M125.554 364.396C125.366 364.718 125.484 366.349 128.597 366.171C127.219 363.375 125.741 364.076 125.554 364.396Z" fill="#28282B"/>
<path d="M82.3527 342.796C82.1655 343.118 82.2834 344.748 85.3956 344.571C84.0177 341.775 82.5399 342.476 82.3527 342.796Z" fill="#28282B"/>
<path d="M68.2397 333.236H65.9537C65.9429 333.254 65.9321 333.268 65.9213 333.287C65.8349 333.435 65.7485 333.596 65.6621 333.771C67.0121 333.848 67.7969 333.585 68.2397 333.236Z" fill="#28282B"/>
<path d="M64.7271 308.114C64.3563 308.114 63.0063 309.037 64.7271 311.636V308.114Z" fill="#28282B"/>
<path d="M64.7271 333.236V329.714C64.3563 329.714 63.0063 330.637 64.7271 333.236Z" fill="#28282B"/>
<path d="M63.7946 312.171C62.4185 309.375 60.9398 310.076 60.7535 310.396C60.5654 310.718 60.6833 312.349 63.7946 312.171Z" fill="#28282B"/>
<path d="M63.0191 332.542C62.8481 332.339 62.6798 332.18 62.5169 332.057C62.4944 332.04 62.4737 332.029 62.4512 332.013C62.7257 332.418 63.0128 332.826 63.308 333.237H63.5033C63.3413 332.964 63.1793 332.732 63.0191 332.542Z" fill="#28282B"/>
<path d="M63.5363 333.287C63.5255 333.268 63.5147 333.254 63.5039 333.236H63.3086C63.4364 333.414 63.5705 333.594 63.7028 333.773C63.7352 333.771 63.7622 333.773 63.7955 333.771C63.7091 333.596 63.6227 333.435 63.5363 333.287Z" fill="#28282B"/>
</g>
</g>
<path d="M65.9208 291.696C65.9208 291.696 56.2188 302.477 56.2188 313.795C56.2188 325.114 62.6871 335.354 80.4738 351.525C98.2605 367.694 114.969 379.552 121.976 383.325C128.983 387.098 135.99 382.247 135.99 382.247C135.99 382.247 147.579 393.836 148.926 391.141C150.273 388.446 144.883 384.403 143.806 382.786C142.728 381.169 140.572 379.282 140.572 379.282C140.572 379.282 146.231 380.091 148.388 381.977C150.544 383.864 154.047 387.097 155.664 386.828C157.282 386.559 157.282 385.211 154.856 381.977C152.431 378.743 149.466 376.587 147.85 375.509C146.232 374.431 140.843 371.466 140.843 371.466C140.843 371.466 148.659 370.927 151.353 372.544C154.048 374.161 161.324 379.012 161.863 376.856C162.403 374.7 162.403 373.352 159.708 370.927C157.013 368.501 151.623 365.537 148.389 364.998C145.155 364.459 141.921 363.111 141.921 363.111C141.921 363.111 148.12 360.955 150.276 360.955C152.432 360.955 161.056 365.267 163.482 364.728C165.907 364.189 164.56 362.033 162.673 360.685C160.787 359.338 152.432 356.104 148.93 355.834C145.427 355.564 125.753 362.302 123.327 362.302C120.902 362.302 114.703 353.678 108.235 342.09C101.767 330.502 99.3414 312.445 85.5975 306.247" stroke="#28282B" stroke-miterlimit="10" strokeLinecap="round" strokeLinejoin="round"/>
<path d="M162.67 360.688C160.783 359.34 152.429 356.107 148.926 355.837C145.423 355.567 125.749 362.305 123.324 362.305C120.898 362.305 114.7 353.681 108.232 342.093C104.639 335.656 102.292 327.226 98.5602 319.938C78.7565 317.276 70.2678 328.819 66.3438 337.144C69.9294 341.457 74.576 346.164 80.4737 351.526C98.2604 367.695 114.969 379.553 121.976 383.326C128.983 387.099 135.99 382.248 135.99 382.248C135.99 382.248 147.579 393.836 148.926 391.142C150.273 388.447 144.883 384.404 143.806 382.787C142.728 381.17 140.572 379.283 140.572 379.283C140.572 379.283 146.231 380.092 148.388 381.978C150.544 383.864 154.047 387.098 155.664 386.829C157.282 386.56 157.282 385.212 154.856 381.978C152.431 378.744 149.466 376.588 147.85 375.51C146.232 374.431 140.843 371.467 140.843 371.467C140.843 371.467 148.659 370.928 151.353 372.545C154.048 374.162 161.324 379.012 161.863 376.857C162.403 374.701 162.403 373.353 159.708 370.928C157.013 368.502 151.623 365.538 148.389 364.999C145.155 364.459 141.921 363.112 141.921 363.112C141.921 363.112 148.12 360.956 150.276 360.956C152.432 360.956 161.056 365.268 163.482 364.729C165.904 364.19 164.556 362.035 162.67 360.688Z" fill="#B2B2B2" stroke="#28282B" stroke-miterlimit="10" strokeLinecap="round" strokeLinejoin="round"/>
<path d="M279.68 301.818C277.431 296.676 279.359 285.43 281.608 269.363C283.857 253.296 286.107 236.908 286.107 228.232C286.107 219.556 287.545 207.507 284.717 203.65C281.889 199.795 271.607 189.255 270.835 184.37C270.064 179.486 277.005 172.031 277.005 172.031C277.005 172.031 279.061 168.175 280.861 170.232C282.66 172.289 281.889 174.859 280.861 178.458C279.833 182.057 278.805 184.885 278.805 184.885C278.805 184.885 287.802 187.713 290.116 186.17C292.43 184.628 292.225 175.83 292.056 171.524C291.727 163.119 288.358 166.705 286.025 170.686C284.908 172.594 278.313 171.457 282.17 166.573C286.025 161.689 289.602 157.378 293.201 161.234C296.8 165.091 299.371 172.545 299.371 172.545C299.371 172.545 301.94 160.3 304.286 153.096C306.631 145.893 310.819 143.045 312.326 143.547C313.834 144.049 313.666 146.562 312.159 150.08C310.651 153.598 307.301 163.314 306.464 166.497C305.626 169.68 305.458 173.365 307.133 173.03C308.808 172.696 314.672 162.477 316.346 158.121C318.021 153.765 320.534 149.745 323.383 147.902C326.23 146.06 328.576 148.405 327.403 151.42C326.23 154.435 322.043 163.147 319.53 167.334C317.017 171.522 314.839 177.72 314.839 177.72C314.839 177.72 319.53 172.695 323.55 169.344C327.57 165.993 331.926 165.324 333.266 166.496C334.607 167.669 333.434 167.836 330.084 170.517C326.733 173.197 321.708 176.38 317.687 182.913C313.667 189.446 311.991 193.467 310.484 198.325C308.976 203.183 305.626 208.543 305.626 208.543C305.626 208.543 308.762 234.056 314.207 248.085C319.651 262.115 329.284 282.636 326.353 297.293C323.421 311.952 317.768 319.489 309.81 321.793C301.853 324.096 296.199 319.28 296.199 319.28" fill="#7534FC"/>
<mask id="mask4_660_2336" style="mask-type:luminance" maskUnits="userSpaceOnUse" x="270" y="143" width="64" height="180">
<path d="M279.68 301.818C277.431 296.676 279.359 285.43 281.608 269.363C283.857 253.296 286.107 236.908 286.107 228.232C286.107 219.556 287.545 207.507 284.717 203.65C281.889 199.795 271.607 189.255 270.835 184.37C270.064 179.486 277.005 172.031 277.005 172.031C277.005 172.031 279.061 168.175 280.861 170.232C282.66 172.289 281.889 174.859 280.861 178.458C279.833 182.057 278.805 184.885 278.805 184.885C278.805 184.885 287.802 187.713 290.116 186.17C292.43 184.628 292.225 175.83 292.056 171.524C291.727 163.119 288.358 166.705 286.025 170.686C284.908 172.594 278.313 171.457 282.17 166.573C286.025 161.689 289.602 157.378 293.201 161.234C296.8 165.091 299.371 172.545 299.371 172.545C299.371 172.545 301.94 160.3 304.286 153.096C306.631 145.893 310.819 143.045 312.326 143.547C313.834 144.049 313.666 146.562 312.159 150.08C310.651 153.598 307.301 163.314 306.464 166.497C305.626 169.68 305.458 173.365 307.133 173.03C308.808 172.696 314.672 162.477 316.346 158.121C318.021 153.765 320.534 149.745 323.383 147.902C326.23 146.06 328.576 148.405 327.403 151.42C326.23 154.435 322.043 163.147 319.53 167.334C317.017 171.522 314.839 177.72 314.839 177.72C314.839 177.72 319.53 172.695 323.55 169.344C327.57 165.993 331.926 165.324 333.266 166.496C334.607 167.669 333.434 167.836 330.084 170.517C326.733 173.197 321.708 176.38 317.687 182.913C313.667 189.446 311.991 193.467 310.484 198.325C308.976 203.183 305.626 208.543 305.626 208.543C305.626 208.543 308.762 234.056 314.207 248.085C319.651 262.115 329.284 282.636 326.353 297.293C323.421 311.952 317.768 319.489 309.81 321.793C301.853 324.096 296.199 319.28 296.199 319.28" fill="white"/>
</mask>
<g mask="url(#mask4_660_2336)">
<g opacity="0.2">
<path d="M323.93 156.914C324.095 156.914 324.454 157.099 324.651 157.534C324.454 157.1 324.095 156.914 323.93 156.914Z" fill="#28282B"/>
<path d="M323.93 156.914V159.019C324.175 158.518 324.416 158.023 324.651 157.534C324.454 157.099 324.095 156.914 323.93 156.914Z" fill="#28282B"/>
<path d="M323.93 290.036C325.651 287.437 324.301 286.514 323.93 286.514C324.3 286.514 325.65 287.437 323.93 290.036Z" fill="#28282B"/>
<path d="M326.874 290.343C326.857 289.742 326.83 289.139 326.786 288.528C326.228 288.679 325.533 289.207 324.861 290.57C325.764 290.623 326.409 290.519 326.874 290.343Z" fill="#28282B"/>
<path d="M323.93 286.514V290.036C325.65 287.437 324.3 286.514 323.93 286.514Z" fill="#28282B"/>
<path d="M280.729 178.514C280.418 178.514 279.424 179.168 280.127 180.914C280.355 180.182 280.597 179.381 280.839 178.536C280.798 178.522 280.76 178.514 280.729 178.514Z" fill="#28282B"/>
<path d="M302.329 192.836C304.049 190.236 302.699 189.314 302.329 189.314C301.958 189.314 300.608 190.236 302.329 192.836Z" fill="#28282B"/>
<path d="M323.549 159.789C323.676 159.532 323.803 159.275 323.929 159.019V156.914C323.59 156.914 322.446 157.685 323.549 159.789Z" fill="#28282B"/>
<path d="M302.329 167.714C301.958 167.714 300.608 168.637 302.329 171.236C304.049 168.637 302.699 167.714 302.329 167.714Z" fill="#28282B"/>
<path d="M284.645 203.146C284.802 202.821 284.774 202.517 284.704 202.396C284.634 202.276 284.383 202.102 284.023 202.08C283.876 202.071 283.709 202.091 283.531 202.146C283.901 202.595 284.23 203.005 284.504 203.367C284.56 203.293 284.609 203.219 284.645 203.146Z" fill="#28282B"/>
<path d="M306.303 191.596C306.117 191.276 304.638 190.575 303.262 193.371C306.373 193.548 306.489 191.918 306.303 191.596Z" fill="#28282B"/>
<path d="M305.867 171.213C305.837 170.769 305.848 170.266 305.892 169.731C305.319 169.555 304.265 169.735 303.264 171.771C304.642 171.85 305.43 171.573 305.867 171.213Z" fill="#28282B"/>
<path d="M306.334 148.471C306.096 148.877 305.864 149.316 305.637 149.774C306.34 149.359 306.413 148.738 306.334 148.471Z" fill="#28282B"/>
<path d="M276.754 180.796C276.572 181.111 276.688 182.669 279.595 182.576C279.62 182.499 279.647 182.417 279.672 182.338C278.331 179.827 276.936 180.485 276.754 180.796Z" fill="#28282B"/>
<path d="M298.355 191.596C298.167 191.918 298.285 193.548 301.398 193.371C300.019 190.575 298.541 191.276 298.355 191.596Z" fill="#28282B"/>
<path d="M319.954 159.197C319.767 159.517 319.885 161.133 322.958 160.972C322.964 160.96 322.97 160.948 322.977 160.935C321.605 158.184 320.14 158.877 319.954 159.197Z" fill="#28282B"/>
<path d="M301.397 171.771C300.901 170.766 300.394 170.218 299.938 169.936C299.787 170.611 299.664 171.177 299.57 171.61C300.018 171.745 300.612 171.815 301.397 171.771Z" fill="#28282B"/>
<path d="M298.9 171.293C298.754 170.918 298.575 170.475 298.366 169.981C298.362 169.987 298.357 169.992 298.354 169.996C298.243 170.186 298.244 170.832 298.9 171.293Z" fill="#28282B"/>
<path d="M302.329 257.636C304.049 255.037 302.699 254.114 302.329 254.114C301.958 254.114 300.608 255.037 302.329 257.636Z" fill="#28282B"/>
<path d="M302.329 232.514C301.958 232.514 300.608 233.437 302.329 236.036C304.049 233.437 302.699 232.514 302.329 232.514Z" fill="#28282B"/>
<path d="M302.329 210.914C301.958 210.914 300.608 211.837 302.329 214.436C304.049 211.837 302.699 210.914 302.329 210.914Z" fill="#28282B"/>
<path d="M284.739 245.697C284.717 245.89 284.694 246.082 284.672 246.277C284.766 246.046 284.773 245.834 284.739 245.697Z" fill="#28282B"/>
<path d="M284.703 267.197C284.53 266.899 283.24 266.276 281.953 268.436H284.238C284.816 267.98 284.809 267.378 284.703 267.197Z" fill="#28282B"/>
<path d="M303.262 258.171C306.373 258.349 306.489 256.719 306.303 256.396C306.117 256.076 304.638 255.375 303.262 258.171Z" fill="#28282B"/>
<path d="M306.303 234.796C306.117 234.475 304.638 233.775 303.262 236.571C306.373 236.749 306.489 235.118 306.303 234.796Z" fill="#28282B"/>
<path d="M303.262 214.971C305.55 215.102 306.216 214.256 306.335 213.671C306.308 213.487 306.283 213.313 306.257 213.138C305.945 212.806 304.559 212.337 303.262 214.971Z" fill="#28282B"/>
<path d="M321.667 267.223C320.794 266.595 320.08 266.98 319.954 267.196C319.848 267.378 319.841 267.98 320.419 268.436H322.092C321.951 268.031 321.81 267.626 321.667 267.223Z" fill="#28282B"/>
<path d="M298.355 256.396C298.167 256.718 298.285 258.349 301.398 258.171C300.019 255.375 298.541 256.076 298.355 256.396Z" fill="#28282B"/>
<path d="M298.355 234.797C298.167 235.118 298.285 236.749 301.398 236.571C300.019 233.775 298.541 234.476 298.355 234.797Z" fill="#28282B"/>
<path d="M298.355 213.196C298.167 213.518 298.285 215.149 301.398 214.971C300.019 212.175 298.541 212.876 298.355 213.196Z" fill="#28282B"/>
<path d="M302.33 318.914C301.979 318.914 300.757 319.741 302.078 322.026C302.223 322.06 302.378 322.085 302.528 322.114C303.929 319.764 302.684 318.914 302.33 318.914Z" fill="#28282B"/>
<path d="M280.729 290.036C282.451 287.437 281.101 286.514 280.729 286.514C280.358 286.514 279.008 287.437 280.729 290.036Z" fill="#28282B"/>
<path d="M323.928 286.514C323.557 286.514 322.207 287.437 323.928 290.036V286.514Z" fill="#28282B"/>
<path d="M302.329 300.836C304.049 298.236 302.699 297.314 302.329 297.314C301.958 297.314 300.608 298.236 302.329 300.836Z" fill="#28282B"/>
<path d="M302.329 275.714C301.958 275.714 300.608 276.637 302.329 279.236C304.049 276.637 302.699 275.714 302.329 275.714Z" fill="#28282B"/>
<path d="M306.304 321.197C306.135 320.905 304.901 320.31 303.645 322.295C304.351 322.382 305.094 322.425 305.877 322.404C306.415 321.953 306.408 321.375 306.304 321.197Z" fill="#28282B"/>
<path d="M281.662 290.571C284.773 290.749 284.891 289.119 284.703 288.797C284.517 288.476 283.039 287.775 281.662 290.571Z" fill="#28282B"/>
<path d="M303.262 301.371C306.373 301.548 306.489 299.919 306.303 299.596C306.117 299.276 304.638 298.575 303.262 301.371Z" fill="#28282B"/>
<path d="M306.303 277.996C306.117 277.675 304.638 276.975 303.262 279.771C306.373 279.949 306.489 278.318 306.303 277.996Z" fill="#28282B"/>
<path d="M319.954 310.397C319.809 310.644 319.851 311.661 321.287 312.039C321.531 311.608 321.774 311.173 322.006 310.713C320.984 309.694 320.095 310.153 319.954 310.397Z" fill="#28282B"/>
<path d="M298.861 320.904C299.333 321.127 299.859 321.346 300.439 321.547C299.823 320.917 299.252 320.82 298.861 320.904Z" fill="#28282B"/>
<path d="M279.798 290.571C279.531 290.029 279.26 289.621 278.995 289.314C278.955 289.741 278.923 290.155 278.891 290.566C279.162 290.585 279.459 290.59 279.798 290.571Z" fill="#28282B"/>
<path d="M322.996 290.571C321.62 287.775 320.141 288.476 319.955 288.797C319.767 289.118 319.884 290.749 322.996 290.571Z" fill="#28282B"/>
<path d="M298.355 299.596C298.167 299.918 298.285 301.548 301.398 301.371C300.019 298.575 298.541 299.276 298.355 299.596Z" fill="#28282B"/>
<path d="M298.355 277.997C298.167 278.318 298.285 279.949 301.398 279.771C300.019 276.975 298.541 277.676 298.355 277.997Z" fill="#28282B"/>
<path d="M281.953 268.436C281.857 268.598 281.759 268.772 281.663 268.968L281.662 268.971C283.01 269.048 283.795 268.785 284.238 268.436H281.953Z" fill="#28282B"/>
<path d="M322.091 268.436H320.418C320.774 268.717 321.36 268.939 322.277 268.976C322.216 268.795 322.153 268.616 322.091 268.436Z" fill="#28282B"/>
</g>
</g>
<path d="M279.68 301.818C277.431 296.676 279.359 285.43 281.608 269.363C283.857 253.296 286.107 236.908 286.107 228.232C286.107 219.556 287.545 207.507 284.717 203.65C281.889 199.795 271.607 189.255 270.835 184.37C270.064 179.486 277.005 172.031 277.005 172.031C277.005 172.031 279.061 168.175 280.861 170.232C282.66 172.289 281.889 174.859 280.861 178.458C279.833 182.057 278.805 184.885 278.805 184.885C278.805 184.885 287.802 187.713 290.116 186.17C292.43 184.628 292.225 175.83 292.056 171.524C291.727 163.119 288.358 166.705 286.025 170.686C284.908 172.594 278.313 171.457 282.17 166.573C286.025 161.689 289.602 157.378 293.201 161.234C296.8 165.091 299.371 172.545 299.371 172.545C299.371 172.545 301.94 160.3 304.286 153.096C306.631 145.893 310.819 143.045 312.326 143.547C313.834 144.049 313.666 146.562 312.159 150.08C310.651 153.598 307.301 163.314 306.464 166.497C305.626 169.68 305.458 173.365 307.133 173.03C308.808 172.696 314.672 162.477 316.346 158.121C318.021 153.765 320.534 149.745 323.383 147.902C326.23 146.06 328.576 148.405 327.403 151.42C326.23 154.435 322.043 163.147 319.53 167.334C317.017 171.522 314.839 177.72 314.839 177.72C314.839 177.72 319.53 172.695 323.55 169.344C327.57 165.993 331.926 165.324 333.266 166.496C334.607 167.669 333.434 167.836 330.084 170.517C326.733 173.197 321.708 176.38 317.687 182.913C313.667 189.446 311.991 193.467 310.484 198.325C308.976 203.183 305.626 208.543 305.626 208.543C305.626 208.543 308.762 234.056 314.207 248.085C319.651 262.115 329.284 282.636 326.353 297.293C323.421 311.952 317.768 319.489 309.81 321.793C301.853 324.096 296.199 319.28 296.199 319.28" stroke="#28282B" stroke-miterlimit="10" strokeLinecap="round" strokeLinejoin="round"/>
<path d="M317.685 182.915C321.706 176.382 326.731 173.199 330.082 170.519C333.433 167.838 334.605 167.671 333.264 166.498C331.924 165.326 327.568 165.996 323.548 169.346C319.528 172.697 314.837 177.722 314.837 177.722C314.837 177.722 317.015 171.524 319.528 167.336C322.041 163.149 326.228 154.437 327.401 151.422C328.574 148.407 326.228 146.062 323.381 147.904C320.533 149.747 318.02 153.768 316.344 158.123C314.67 162.478 308.806 172.697 307.131 173.032C305.456 173.368 305.624 169.682 306.462 166.499C307.299 163.317 310.649 153.6 312.157 150.082C313.664 146.564 313.832 144.051 312.324 143.549C310.817 143.047 306.629 145.895 304.284 153.098C301.938 160.302 299.369 172.547 299.369 172.547C299.369 172.547 296.798 165.093 293.199 161.236C289.6 157.38 286.024 161.691 282.168 166.575C278.312 171.459 284.906 172.596 286.023 170.688C288.356 166.707 291.725 163.121 292.054 171.526C292.223 175.831 292.428 184.63 290.114 186.171C287.8 187.714 278.803 184.886 278.803 184.886C278.803 184.886 279.831 182.058 280.859 178.459C281.887 174.86 282.658 172.29 280.859 170.233C279.06 168.177 277.003 172.032 277.003 172.032C277.003 172.032 270.062 179.487 270.833 184.371C271.605 189.256 281.887 199.796 284.715 203.651C287.543 207.508 286.105 219.557 286.105 228.233C286.105 236.909 283.856 253.297 281.606 269.364C281.577 269.574 281.549 269.773 281.519 269.981C285.073 273.714 292.342 279.072 304.571 278.66C312.779 278.384 318.587 274.247 322.521 269.706C319.909 261.938 316.638 254.364 314.202 248.088C308.758 234.058 305.621 208.546 305.621 208.546C305.621 208.546 308.972 203.186 310.479 198.328C311.99 193.469 313.665 189.448 317.685 182.915Z" fill="#B2B2B2" stroke="#28282B" stroke-miterlimit="10" strokeLinecap="round" strokeLinejoin="round"/>
<path d="M293.061 207.541C293.061 207.541 291.553 201.175 293.731 197.155C295.909 193.135 299.092 191.962 299.092 191.962" stroke="#28282B" stroke-miterlimit="10" strokeLinecap="round" strokeLinejoin="round"/>
</svg>
