<svg width="500" height="500" viewBox="0 0 500 500" fill="none" xmlns="http://www.w3.org/2000/svg">
<g clipPath="url(#clip0_670_13446)">
<mask id="mask0_670_13446" style="mask-type:luminance" maskUnits="userSpaceOnUse" x="-1" y="0" width="501" height="500">
<path d="M499.5 0H-0.5V500H499.5V0Z" fill="white"/>
</mask>
<g mask="url(#mask0_670_13446)">
<path d="M499.5 0H-0.5V500H499.5V0Z" fill="#76AADB"/>
</g>
<mask id="mask1_670_13446" style="mask-type:luminance" maskUnits="userSpaceOnUse" x="-1" y="0" width="501" height="500">
<path d="M499.5 0H-0.5V500H499.5V0Z" fill="white"/>
</mask>
<g mask="url(#mask1_670_13446)">
<g opacity="0.33">
<path opacity="0.6" d="M76.3301 -53.2651L95.8911 -15.8211C112.925 16.7859 145.436 38.8189 182.129 41.4569C192.972 42.2359 202.641 41.1609 209.142 37.5379L235.615 22.7819C265.673 6.02786 303.491 21.7459 312.82 54.8689L319.991 80.3319C328.631 111.011 362.099 127.285 391.565 115.137C425.045 101.334 462.242 124.243 464.981 160.353L470.31 230.607C473.093 267.3 511.359 290.185 545.002 275.277L549.11 273.457L574.343 -8.73614L76.3301 -53.2651Z" fill="#7534FC"/>
<path opacity="0.6" d="M432.059 534.682L411.952 497.528C394.442 465.174 361.613 443.619 324.885 441.518C314.032 440.897 304.38 442.114 297.933 445.832L271.679 460.974C241.87 478.166 203.825 463.004 194.013 430.021L186.47 404.666C177.382 374.117 143.679 358.334 114.394 370.913C81.1202 385.205 43.5912 362.843 40.3242 326.777L33.9672 256.609C30.6472 219.961 -7.94878 197.638 -41.3708 213.037L-45.4518 214.917L-66.5508 497.448L432.059 534.682Z" fill="#7534FC"/>
</g>
</g>
<path opacity="0.37" d="M170.188 457.903C222.727 457.903 265.319 453.348 265.319 447.729C265.319 442.11 222.727 437.555 170.188 437.555C117.648 437.555 75.0566 442.11 75.0566 447.729C75.0566 453.348 117.648 457.903 170.188 457.903Z" fill="#76AADB"/>
<path d="M95.0113 215.256L73.3223 260.756L84.1673 267.092L102.218 252.527L95.0113 215.256Z" fill="#161A2B"/>
<path d="M73.3225 260.756C73.3225 260.756 71.4845 268.039 80.5665 267.385V262.315C80.5665 262.315 76.8145 261.565 76.3145 261.232C75.8145 260.898 73.3225 260.756 73.3225 260.756Z" fill="white"/>
<path d="M204.924 306.503C204.924 310.933 212.931 314.525 222.809 314.525C232.687 314.525 240.694 310.933 240.694 306.503C240.694 302.073 232.687 298.481 222.809 298.481C212.931 298.481 204.924 302.073 204.924 306.503Z" fill="#050811"/>
<path d="M178.602 92.8863C178.602 96.8003 175.429 99.9733 171.515 99.9733C167.601 99.9733 164.428 96.8003 164.428 92.8863C164.428 88.9723 167.601 85.7993 171.515 85.7993C175.429 85.7993 178.602 88.9713 178.602 92.8863Z" fill="black"/>
<path d="M173.565 98.2501C173.565 102.164 170.392 105.337 166.478 105.337C162.564 105.337 159.391 102.164 159.391 98.2501C159.391 94.3361 162.564 91.1631 166.478 91.1631C170.392 91.1631 173.565 94.3361 173.565 98.2501Z" fill="black"/>
<path d="M148.87 306.503C148.87 310.933 140.863 314.525 130.985 314.525C121.107 314.525 113.1 310.933 113.1 306.503C113.1 302.073 121.107 298.481 130.985 298.481C140.863 298.481 148.87 302.073 148.87 306.503Z" fill="#050811"/>
<path d="M193.151 423.29L190.093 437.556L181.365 436.453V420.049L193.151 423.29Z" fill="white"/>
<path d="M181.459 435.436C181.459 435.436 176.254 441.462 178.325 446.765C180.395 452.068 217.929 448.132 217.929 448.132C217.929 448.132 219.298 447.282 216.874 446.262L199.365 439.815C199.365 439.815 191.968 435.825 188.147 436.442C184.959 436.957 181.459 435.436 181.459 435.436Z" fill="black"/>
<path d="M150.408 423.29L153.466 437.556L162.194 436.453V420.049L150.408 423.29Z" fill="white"/>
<path d="M162.102 435.436C162.102 435.436 167.307 441.462 165.237 446.765C163.167 452.068 125.633 448.132 125.633 448.132C125.633 448.132 124.264 447.282 126.689 446.262L144.198 439.815C144.198 439.815 151.596 435.825 155.416 436.442C158.601 436.957 162.102 435.436 162.102 435.436Z" fill="black"/>
<path d="M228.151 273.13C228.151 273.13 217.343 376.37 194.669 428.372H177.539L174.599 338.807L165.543 428.372H148.067C148.067 428.372 119.213 360.948 128.883 280.308C138.553 199.669 228.151 273.13 228.151 273.13Z" fill="#1E2238"/>
<path d="M178.372 301.332C178.507 301.293 178.642 301.277 178.777 301.241C179.851 255.334 178.6 209.348 176.644 163.432C176.605 163.422 176.566 163.412 176.526 163.402C166.215 160.748 155.207 162.806 146.551 169.006C128 182.293 102.852 217.067 113.165 306.989C113.165 306.989 122.857 291.952 149.367 304.307C150.677 303.13 152.503 302.432 154.849 302.57C155.028 302.58 155.209 302.605 155.389 302.619C157.985 298.704 163.835 296.531 168.433 300.579C169.678 301.675 171.02 302.64 172.402 303.55C174.411 302.886 176.334 301.911 178.372 301.332Z" fill="#161A2B"/>
<path d="M175.421 301.332C175.286 301.293 175.151 301.277 175.016 301.241C173.942 255.334 175.193 209.348 177.149 163.432C181.066 162.419 185.179 161.576 189.564 160.974C189.564 160.974 256.361 169.807 240.628 306.989C240.628 306.989 223.096 292.002 196.587 304.357C195.277 303.18 191.76 304.219 189.413 304.357C189.234 304.367 192.589 301.244 192.409 301.259C189.813 297.344 189.958 296.532 185.36 300.579C184.115 301.675 182.773 302.64 181.391 303.55C179.381 302.886 177.458 301.911 175.421 301.332Z" fill="#161A2B"/>
<path d="M174.196 164.027C170.055 163.148 165.677 164.287 162.671 167.267C158.461 171.44 154.161 179.015 157.766 191.332C163.946 212.447 166.093 281.163 149.494 304.355C163.824 310.844 180.198 311.12 194.739 305.118L196.589 304.355C196.589 304.355 186.321 263.373 192.316 233.563C198.311 203.753 198.772 169.03 186.201 165.248C180.432 163.513 177.331 164.692 174.196 164.027Z" fill="#EDEEF0"/>
<path d="M204.301 140.283C204.301 144.197 201.128 147.37 197.214 147.37C193.3 147.37 190.127 144.197 190.127 140.283C190.127 136.369 193.3 133.196 197.214 133.196C201.128 133.195 204.301 136.369 204.301 140.283Z" fill="black"/>
<path d="M199.403 147.673C199.403 151.587 196.23 154.76 192.316 154.76C188.402 154.76 185.229 151.587 185.229 147.673C185.229 143.759 188.402 140.586 192.316 140.586C196.23 140.586 199.403 143.759 199.403 147.673Z" fill="black"/>
<path d="M213.039 131.176C213.039 135.09 209.866 138.263 205.952 138.263C202.038 138.263 198.865 135.09 198.865 131.176C198.865 127.262 202.038 124.089 205.952 124.089C209.866 124.089 213.039 127.262 213.039 131.176Z" fill="black"/>
<path d="M217.479 121.894C217.479 125.808 214.306 128.981 210.392 128.981C206.478 128.981 203.305 125.808 203.305 121.894C203.305 117.98 206.478 114.807 210.392 114.807C214.306 114.807 217.479 117.98 217.479 121.894Z" fill="black"/>
<path d="M220.127 112.191C220.127 116.105 216.954 119.278 213.04 119.278C209.126 119.278 205.953 116.105 205.953 112.191C205.953 108.277 209.126 105.104 213.04 105.104C216.954 105.104 220.127 108.276 220.127 112.191Z" fill="black"/>
<path d="M149.074 126.532C148.326 136.003 149.643 144.807 163.012 152.883C163.012 152.883 169.387 161.048 166.044 170.802C162.701 180.556 190.187 183.131 187.748 168.827C187.588 167.891 187.477 166.951 187.409 166.009C186.443 152.573 194.453 138.858 200.118 130.966C206.179 122.522 206.411 103.364 195.75 95.8314C191.561 92.8714 180.262 92.6184 172.579 95.3004C159.543 99.8514 150.161 112.769 149.074 126.532Z" fill="#FFCB9C"/>
<path d="M167.612 105.746L160.199 124.961L170.627 125.084L167.612 105.746Z" fill="#FF6252"/>
<path d="M200.802 124.115C200.802 124.115 205.285 123.084 206.717 127.998C208.149 132.911 200.272 141.922 197.352 136.804C194.432 131.685 200.802 124.115 200.802 124.115Z" fill="#FFCB9C"/>
<path d="M161.178 113.663C160.9 114.728 160.074 115.434 159.335 115.24C158.596 115.046 158.222 114.027 158.501 112.962C158.78 111.898 159.605 111.191 160.344 111.385C161.083 111.579 161.457 112.599 161.178 113.663Z" fill="black"/>
<path d="M178.047 114.501C177.769 115.565 176.943 116.272 176.204 116.078C175.465 115.885 175.091 114.865 175.37 113.8C175.649 112.735 176.474 112.03 177.213 112.223C177.952 112.416 178.325 113.436 178.047 114.501Z" fill="black"/>
<path d="M192.315 87.9171C192.315 91.8311 189.142 95.0041 185.228 95.0041C181.314 95.0041 178.141 91.8311 178.141 87.9171C178.141 84.0031 181.314 80.8301 185.228 80.8301C189.142 80.8301 192.315 84.0031 192.315 87.9171Z" fill="black"/>
<path d="M181.727 91.1632C181.727 95.0772 178.554 98.2502 174.64 98.2502C170.726 98.2502 167.553 95.0772 167.553 91.1632C167.553 87.2492 170.726 84.0762 174.64 84.0762C178.554 84.0762 181.727 87.2492 181.727 91.1632Z" fill="black"/>
<path d="M201.879 93.44C201.879 97.354 198.706 100.527 194.792 100.527C190.878 100.527 187.705 97.354 187.705 93.44C187.705 89.526 190.878 86.353 194.792 86.353C198.706 86.353 201.879 89.526 201.879 93.44Z" fill="black"/>
<path d="M204.301 103.346C204.301 107.26 201.128 110.433 197.214 110.433C193.3 110.433 190.127 107.26 190.127 103.346C190.127 99.4323 193.3 96.2593 197.214 96.2593C201.128 96.2593 204.301 99.4323 204.301 103.346Z" fill="black"/>
<path d="M205.952 104.222C209.866 104.222 213.039 101.049 213.039 97.1353C213.039 93.2213 209.866 90.0483 205.952 90.0483C202.038 90.0483 198.865 93.2213 198.865 97.1353C198.865 101.049 202.038 104.222 205.952 104.222Z" fill="black"/>
<path d="M217.479 103.346C217.479 107.26 214.306 110.433 210.392 110.433C206.478 110.433 203.305 107.26 203.305 103.346C203.305 99.4323 206.478 96.2593 210.392 96.2593C214.306 96.2593 217.479 99.4323 217.479 103.346Z" fill="black"/>
<path d="M207.656 87.9171C207.656 91.8311 204.483 95.0041 200.569 95.0041C196.655 95.0041 193.482 91.8311 193.482 87.9171C193.482 84.0031 196.655 80.8301 200.569 80.8301C204.483 80.8301 207.656 84.0031 207.656 87.9171Z" fill="black"/>
<path d="M198.748 81.9141C198.748 85.8281 195.575 89.0011 191.661 89.0011C187.747 89.0011 184.574 85.8281 184.574 81.9141C184.574 78.0001 187.747 74.8271 191.661 74.8271C195.575 74.8271 198.748 78.0001 198.748 81.9141Z" fill="black"/>
<path d="M201.027 74.5562C201.027 81.0342 195.776 86.2862 189.298 86.2862C182.82 86.2862 177.568 81.0352 177.568 74.5562C177.568 68.0782 182.819 62.8262 189.298 62.8262C195.775 62.8272 201.027 68.0782 201.027 74.5562Z" fill="black"/>
<path d="M211.131 86.353C211.131 92.831 205.88 98.083 199.402 98.083C192.924 98.083 187.672 92.832 187.672 86.353C187.672 79.875 192.923 74.623 199.402 74.623C205.88 74.623 211.131 79.875 211.131 86.353Z" fill="black"/>
<path d="M182.074 81.9141C182.074 88.3921 176.823 93.6441 170.345 93.6441C163.867 93.6441 158.615 88.3931 158.615 81.9141C158.615 75.4361 163.866 70.1841 170.345 70.1841C176.822 70.1841 182.074 75.4361 182.074 81.9141Z" fill="black"/>
<path d="M185.227 84.0763C185.227 87.9903 182.054 91.1633 178.14 91.1633C174.226 91.1633 171.053 87.9903 171.053 84.0763C171.053 80.1623 174.226 76.9893 178.14 76.9893C182.054 76.9893 185.227 80.1623 185.227 84.0763Z" fill="black"/>
<path d="M174.875 89.0011C174.875 92.9151 171.702 96.0881 167.788 96.0881C163.874 96.0881 160.701 92.9151 160.701 89.0011C160.701 85.0871 163.874 81.9141 167.788 81.9141C171.702 81.9141 174.875 85.0871 174.875 89.0011Z" fill="black"/>
<path d="M213.039 110.433C213.039 114.347 209.866 117.52 205.952 117.52C202.038 117.52 198.865 114.347 198.865 110.433C198.865 106.519 202.038 103.346 205.952 103.346C209.866 103.346 213.039 106.519 213.039 110.433Z" fill="black"/>
<path d="M211.389 120.675C211.389 124.589 208.216 127.762 204.302 127.762C200.388 127.762 197.215 124.589 197.215 120.675C197.215 116.761 200.388 113.588 204.302 113.588C208.216 113.588 211.389 116.76 211.389 120.675Z" fill="black"/>
<path d="M161.936 168.03L166.814 162.285L176.605 178.394L170.259 183.466L161.936 168.03Z" fill="white"/>
<path d="M227.582 195.148L236.149 181.648L207.149 167.315L205.482 172.876L227.582 195.148Z" fill="#161A2B"/>
<path d="M190.602 168.396L187.449 160.973L175.934 178.394L182.28 183.466L190.602 168.396Z" fill="white"/>
<path d="M173.808 188.806L171.649 205.639C170.068 217.966 169.769 230.423 170.757 242.811L173.483 277.007C173.722 280.005 178.079 280.103 178.453 277.119L181.739 250.863C183.942 233.262 183.529 215.432 180.513 197.953L178.935 188.806H173.808Z" fill="#A30010"/>
<path d="M176.606 178.394L170.984 184.57L176.229 192.436L181.887 184.846L176.606 178.394Z" fill="#BF0411"/>
<path d="M211.916 176.691H98.7539C93.2309 176.691 88.7539 181.168 88.7539 186.691V249.198H221.917V186.691C221.916 181.169 217.439 176.691 211.916 176.691Z" fill="#683C11"/>
<path d="M208.526 180.668H102.809C97.2856 180.668 92.8086 185.145 92.8086 190.668V249.198H218.526V190.668C218.526 185.145 214.048 180.668 208.526 180.668Z" fill="#7B6A58"/>
<path opacity="0.44" d="M203.501 184.878H107.83C102.307 184.878 97.8301 189.355 97.8301 194.878V249.198H213.5V194.878C213.501 189.355 209.024 184.878 203.501 184.878Z" fill="#432918"/>
<path d="M215.58 290.488H95.0879C88.4879 290.488 83.0879 285.088 83.0879 278.488V263.005C83.0879 256.405 88.4879 251.005 95.0879 251.005H215.58C222.18 251.005 227.58 256.405 227.58 263.005V278.488C227.58 285.088 222.18 290.488 215.58 290.488Z" fill="#683C11"/>
<path d="M228.442 249.198H82.3926V257.954H228.442V249.198Z" fill="#F9B233"/>
<path d="M168.304 283.318H142.696C133.814 283.318 126.588 276.092 126.588 267.21V255.48C126.588 253.564 128.141 252.011 130.057 252.011C131.973 252.011 133.527 253.564 133.527 255.48V267.21C133.527 272.266 137.64 276.379 142.696 276.379H168.304C173.36 276.379 177.473 272.266 177.473 267.21V255.48C177.473 253.564 179.026 252.011 180.942 252.011C182.858 252.011 184.411 253.564 184.411 255.48V267.21C184.413 276.091 177.187 283.318 168.304 283.318Z" fill="#432918"/>
<path d="M210.587 256.013H192.809C192.05 256.013 191.434 255.397 191.434 254.638V252.379C191.434 251.62 192.05 251.004 192.809 251.004H210.587C211.346 251.004 211.962 251.62 211.962 252.379V254.638C211.962 255.398 211.346 256.013 210.587 256.013Z" fill="#DADADA"/>
<path d="M114.431 256.013H96.6543C95.8953 256.013 95.2793 255.397 95.2793 254.638V252.379C95.2793 251.62 95.8953 251.004 96.6543 251.004H114.432C115.191 251.004 115.807 251.62 115.807 252.379V254.638C115.806 255.398 115.191 256.013 114.431 256.013Z" fill="#DADADA"/>
<path d="M193.434 241.325C193.434 241.325 176.015 239.049 174.486 239.502C172.957 239.955 173.505 241.837 176.516 242.07C179.526 242.303 185.008 243.668 185.008 243.668C185.008 243.668 173.74 243.189 173.017 243.975C172.293 244.762 172.76 246.179 174.796 246.048C176.832 245.918 185.1 246.712 185.1 246.712C185.1 246.712 178.109 247.556 176.316 248.224C174.523 248.891 177 250.03 178.89 249.77C180.78 249.51 186.917 249.508 186.917 249.508C186.917 249.508 181.856 251.47 181.24 252.362C180.624 253.254 181.451 253.62 182.285 253.466C183.119 253.312 190.218 250.424 190.218 250.424C190.218 250.424 197.347 251.697 200.721 248.404C204.095 245.11 202.809 242.638 202.132 242.296C201.455 241.954 190.94 236.199 188.905 235.937C186.871 235.675 186.536 237.285 189.636 238.537C192.736 239.79 194.3 240.713 193.434 241.325Z" fill="#FFCFC5"/>
<path d="M187.451 160.973C187.451 160.973 241.65 162.285 261.298 215.675C268.464 235.146 246.571 264.95 200.484 255.148L202.151 241.142C202.151 241.142 221.606 239.576 230.493 233.149C242.609 224.387 234.124 213.25 228.597 208.884C225.803 206.677 225.317 176.392 232.317 180.668L187.451 160.973Z" fill="#161A2B"/>
<path d="M202.073 241.791L199.964 241.142L197.973 253.013L200.679 253.501L202.073 241.791Z" fill="white"/>
<path d="M150.482 166.561L132.648 176.691H142.814L150.482 166.561Z" fill="#161A2B"/>
<path d="M83.1855 257.915C83.1855 257.915 99.6045 251.67 101.198 251.757C102.79 251.844 102.692 253.802 99.8175 254.725C96.9425 255.648 91.9255 258.244 91.9255 258.244C91.9255 258.244 102.777 255.171 103.663 255.768C104.549 256.366 104.423 257.853 102.412 258.197C100.401 258.541 92.5405 261.227 92.5405 261.227C92.5405 261.227 99.5375 260.431 101.437 260.665C103.336 260.899 101.189 262.581 99.2905 262.765C97.3915 262.949 90.6365 263.944 90.6365 263.944C90.6365 263.944 96.4115 263.917 97.2165 264.642C98.0215 265.367 97.3025 265.914 96.4555 265.958C95.6085 266.001 88.4215 266.024 88.4215 266.024C88.4215 266.024 81.7805 268.913 77.7355 266.489C73.6905 264.065 74.3705 261.362 74.9495 260.873C75.5285 260.384 84.4275 252.352 86.3455 251.626C88.2635 250.9 88.9625 252.39 86.2355 254.325C83.5085 256.259 82.2005 257.519 83.1855 257.915Z" fill="#FFCFC5"/>
<path d="M167.85 181.238L110.088 181.435L110.319 249.292L168.081 249.095L167.85 181.238Z" fill="#EDEEF0"/>
<path d="M164.928 178.734L107.166 178.931L107.405 249.195L165.167 248.998L164.928 178.734Z" fill="white"/>
<path d="M123.453 196.077C123.436 196.958 123.285 197.745 123.001 198.436C122.718 199.113 122.322 199.681 121.816 200.14C121.323 200.599 120.733 200.943 120.046 201.171C119.359 201.399 118.596 201.505 117.757 201.488C116.919 201.472 116.161 201.328 115.484 201.059C114.806 200.79 114.224 200.415 113.736 199.936C113.262 199.444 112.897 198.853 112.64 198.166C112.384 197.478 112.264 196.708 112.281 195.855C112.298 195.016 112.448 194.258 112.732 193.581C113.015 192.905 113.403 192.336 113.896 191.877C114.403 191.403 115 191.046 115.688 190.803C116.375 190.561 117.138 190.448 117.977 190.465C118.815 190.482 119.573 190.632 120.25 190.916C120.927 191.185 121.503 191.566 121.976 192.059C122.465 192.538 122.837 193.121 123.093 193.809C123.35 194.497 123.47 195.253 123.453 196.077ZM115.991 195.929C115.974 196.796 116.124 197.467 116.441 197.943C116.774 198.404 117.238 198.641 117.835 198.653C118.432 198.665 118.892 198.439 119.214 197.976C119.55 197.514 119.727 196.856 119.744 196.003C119.761 195.15 119.61 194.493 119.292 194.032C118.975 193.556 118.517 193.313 117.92 193.301C117.323 193.289 116.857 193.514 116.52 193.977C116.184 194.425 116.008 195.076 115.991 195.929ZM125.368 190.932C125.382 190.207 125.515 189.591 125.767 189.084C126.033 188.563 126.383 188.144 126.816 187.825C127.249 187.493 127.752 187.254 128.323 187.109C128.909 186.964 129.529 186.898 130.183 186.911C131.235 186.932 132.007 187.09 132.498 187.384C132.991 187.664 133.23 188.138 133.217 188.806C133.211 189.09 133.142 189.345 133.01 189.57C132.891 189.795 132.76 189.963 132.616 190.074C132.347 189.997 132.064 189.935 131.766 189.886C131.483 189.824 131.149 189.789 130.766 189.781C130.154 189.769 129.676 189.866 129.331 190.072C128.986 190.265 128.808 190.617 128.798 191.128L128.784 191.811L132.281 191.88C132.363 192.038 132.437 192.239 132.504 192.482C132.584 192.711 132.622 192.968 132.616 193.252C132.606 193.749 132.485 194.11 132.253 194.333C132.036 194.542 131.743 194.642 131.373 194.635L128.921 194.586L128.786 201.345C128.643 201.385 128.415 201.423 128.102 201.459C127.802 201.496 127.489 201.511 127.162 201.505C126.849 201.499 126.566 201.472 126.311 201.424C126.07 201.376 125.865 201.287 125.697 201.156C125.529 201.024 125.398 200.851 125.302 200.636C125.222 200.407 125.185 200.115 125.192 199.759L125.368 190.932ZM134.217 191.108C134.231 190.383 134.364 189.767 134.616 189.26C134.883 188.74 135.232 188.32 135.665 188.002C136.098 187.669 136.601 187.43 137.173 187.285C137.758 187.14 138.378 187.074 139.032 187.087C140.084 187.108 140.856 187.266 141.348 187.56C141.84 187.84 142.079 188.314 142.066 188.982C142.06 189.266 141.991 189.521 141.859 189.746C141.741 189.971 141.609 190.139 141.465 190.25C141.196 190.173 140.913 190.111 140.615 190.062C140.332 190 139.999 189.965 139.615 189.957C139.004 189.945 138.525 190.042 138.18 190.249C137.835 190.441 137.657 190.793 137.647 191.304L137.634 191.987L141.13 192.056C141.212 192.214 141.287 192.415 141.353 192.658C141.434 192.887 141.471 193.144 141.466 193.428C141.456 193.926 141.335 194.286 141.103 194.509C140.885 194.718 140.592 194.819 140.222 194.811L137.77 194.762L137.636 201.521C137.493 201.561 137.264 201.599 136.951 201.636C136.652 201.672 136.338 201.687 136.011 201.681C135.699 201.675 135.415 201.648 135.16 201.6C134.919 201.553 134.715 201.463 134.547 201.332C134.379 201.2 134.247 201.027 134.152 200.812C134.071 200.583 134.034 200.291 134.041 199.935L134.217 191.108ZM148.124 202.093C147.285 202.076 146.505 201.947 145.785 201.705C145.079 201.449 144.461 201.081 143.93 200.601C143.413 200.122 143.006 199.524 142.707 198.807C142.423 198.09 142.29 197.255 142.309 196.303C142.328 195.365 142.493 194.565 142.805 193.903C143.131 193.227 143.547 192.68 144.053 192.264C144.559 191.833 145.134 191.525 145.778 191.338C146.422 191.138 147.078 191.044 147.746 191.058C148.499 191.073 149.179 191.2 149.786 191.439C150.407 191.679 150.934 192.003 151.366 192.409C151.813 192.816 152.152 193.3 152.383 193.859C152.628 194.418 152.744 195.025 152.73 195.679C152.721 196.162 152.578 196.529 152.303 196.779C152.028 197.03 151.648 197.186 151.164 197.247L145.881 197.931C146.028 198.404 146.341 198.765 146.82 199.017C147.298 199.254 147.85 199.378 148.476 199.391C149.059 199.402 149.607 199.342 150.122 199.21C150.651 199.064 151.081 198.895 151.412 198.703C151.636 198.849 151.824 199.052 151.976 199.311C152.127 199.57 152.2 199.842 152.194 200.126C152.181 200.766 151.873 201.236 151.27 201.537C150.81 201.769 150.295 201.923 149.725 201.997C149.155 202.071 148.621 202.103 148.124 202.093ZM147.693 193.701C147.352 193.695 147.053 193.746 146.794 193.854C146.55 193.963 146.349 194.108 146.188 194.29C146.029 194.457 145.904 194.654 145.814 194.88C145.739 195.092 145.692 195.311 145.673 195.538L149.331 195.014C149.294 194.729 149.143 194.441 148.879 194.152C148.614 193.862 148.219 193.712 147.693 193.701ZM157.978 201.926C157.835 201.966 157.606 202.004 157.293 202.041C156.993 202.077 156.68 202.092 156.353 202.086C156.041 202.08 155.757 202.053 155.502 202.005C155.261 201.957 155.057 201.868 154.889 201.737C154.721 201.605 154.589 201.432 154.494 201.217C154.413 200.988 154.376 200.696 154.383 200.34L154.51 193.944C154.517 193.617 154.579 193.341 154.698 193.116C154.83 192.876 155.012 192.667 155.243 192.487C155.474 192.306 155.755 192.148 156.085 192.013C156.429 191.863 156.794 191.735 157.18 191.629C157.566 191.523 157.966 191.446 158.379 191.397C158.793 191.334 159.206 191.307 159.618 191.315C160.3 191.329 160.838 191.475 161.23 191.753C161.623 192.016 161.814 192.447 161.802 193.044C161.798 193.243 161.765 193.441 161.705 193.639C161.644 193.823 161.57 193.992 161.481 194.146C161.183 194.141 160.877 194.149 160.564 194.171C160.25 194.193 159.944 194.23 159.644 194.281C159.345 194.331 159.059 194.39 158.788 194.455C158.531 194.507 158.309 194.574 158.122 194.656L157.978 201.926Z" fill="#E6332A"/>
<path d="M156.328 203.776L113.641 203.29L113.612 205.779L156.3 206.266L156.328 203.776Z" fill="#EDEEF0"/>
<path d="M156.231 208.875L113.543 208.388L113.515 210.878L156.202 211.365L156.231 208.875Z" fill="#EDEEF0"/>
<path d="M156.131 213.974L113.443 213.488L113.415 215.978L156.103 216.464L156.131 213.974Z" fill="#EDEEF0"/>
<path d="M156.033 219.074L113.346 218.587L113.317 221.077L156.005 221.564L156.033 219.074Z" fill="#EDEEF0"/>
<path d="M155.938 224.173L113.25 223.687L113.222 226.176L155.909 226.663L155.938 224.173Z" fill="#EDEEF0"/>
<path d="M138.757 229.077L113.15 228.785L113.122 231.275L138.728 231.567L138.757 229.077Z" fill="#EDEEF0"/>
<path d="M126.914 241.264L113.152 241.107L113.124 243.597L126.886 243.754L126.914 241.264Z" fill="#EDEEF0"/>
<path d="M158.756 241.264L144.994 241.107L144.966 243.597L158.727 243.754L158.756 241.264Z" fill="#EDEEF0"/>
<path d="M192.945 230.751L197.375 226.025C197.523 225.867 197.754 225.817 197.954 225.901L203.932 228.395C204.319 228.557 204.729 228.216 204.641 227.806L200.214 207.164L187.631 209.863L192.058 230.505C192.145 230.914 192.658 231.057 192.945 230.751Z" fill="#E6332A"/>
<path d="M184.454 230.728L179.994 226.031C179.845 225.874 179.613 225.826 179.414 225.911L173.452 228.443C173.066 228.607 172.654 228.27 172.74 227.859L177.033 207.189L189.634 209.806L185.341 230.477C185.255 230.886 184.743 231.032 184.454 230.728Z" fill="#E6332A"/>
<path d="M199.69 208.101C201.346 201.544 197.372 194.887 190.815 193.231C184.258 191.576 177.6 195.549 175.945 202.106C174.289 208.663 178.263 215.321 184.82 216.977C191.377 218.632 198.035 214.659 199.69 208.101Z" fill="#F4CF50"/>
<path d="M189.561 192.862C189.561 193.828 188.778 194.611 187.812 194.611C186.846 194.611 186.062 193.828 186.062 192.862C186.062 191.896 186.846 191.113 187.812 191.113C188.778 191.112 189.561 191.896 189.561 192.862Z" fill="#F4CF50"/>
<path d="M192.527 193.672C192.289 194.608 191.336 195.174 190.4 194.935C189.464 194.697 188.898 193.744 189.137 192.808C189.376 191.872 190.328 191.306 191.264 191.544C192.2 191.784 192.766 192.736 192.527 193.672Z" fill="#F4CF50"/>
<path d="M195.204 195.19C194.742 196.038 193.68 196.352 192.831 195.89C191.982 195.428 191.669 194.366 192.132 193.517C192.594 192.669 193.656 192.356 194.505 192.817C195.353 193.279 195.666 194.341 195.204 195.19Z" fill="#F4CF50"/>
<path d="M197.422 197.321C196.765 198.029 195.658 198.07 194.95 197.413C194.242 196.756 194.201 195.649 194.858 194.941C195.515 194.233 196.622 194.192 197.33 194.849C198.038 195.506 198.079 196.613 197.422 197.321Z" fill="#F4CF50"/>
<path d="M199.046 199.934C198.234 200.458 197.152 200.225 196.628 199.413C196.104 198.601 196.337 197.519 197.149 196.995C197.961 196.471 199.043 196.704 199.567 197.516C200.091 198.327 199.858 199.41 199.046 199.934Z" fill="#F4CF50"/>
<path d="M199.975 202.866C199.059 203.174 198.067 202.68 197.76 201.765C197.452 200.849 197.946 199.857 198.861 199.55C199.777 199.242 200.769 199.736 201.076 200.651C201.384 201.567 200.891 202.559 199.975 202.866Z" fill="#F4CF50"/>
<path d="M200.153 205.938C199.19 206.01 198.35 205.287 198.278 204.324C198.206 203.361 198.928 202.521 199.892 202.449C200.855 202.377 201.695 203.099 201.767 204.063C201.839 205.026 201.116 205.865 200.153 205.938Z" fill="#F4CF50"/>
<path d="M199.565 208.957C198.614 208.789 197.978 207.882 198.146 206.93C198.314 205.979 199.221 205.343 200.173 205.511C201.124 205.679 201.759 206.586 201.592 207.538C201.424 208.49 200.516 209.125 199.565 208.957Z" fill="#F4CF50"/>
<path d="M198.251 211.739C197.37 211.341 196.979 210.305 197.376 209.425C197.774 208.544 198.81 208.153 199.69 208.55C200.571 208.948 200.962 209.984 200.565 210.864C200.168 211.745 199.131 212.136 198.251 211.739Z" fill="#F4CF50"/>
<path d="M196.291 214.11C195.536 213.508 195.412 212.407 196.015 211.652C196.618 210.897 197.718 210.773 198.473 211.376C199.228 211.978 199.352 213.079 198.749 213.834C198.147 214.589 197.046 214.713 196.291 214.11Z" fill="#F4CF50"/>
<path d="M193.808 215.925C193.225 215.155 193.377 214.058 194.147 213.474C194.917 212.891 196.014 213.043 196.598 213.813C197.182 214.583 197.03 215.68 196.259 216.264C195.488 216.846 194.391 216.695 193.808 215.925Z" fill="#F4CF50"/>
<path d="M190.952 217.07C190.577 216.18 190.995 215.154 191.885 214.779C192.775 214.404 193.801 214.822 194.176 215.712C194.551 216.602 194.133 217.628 193.243 218.003C192.353 218.378 191.327 217.96 190.952 217.07Z" fill="#F4CF50"/>
<path d="M189.632 218.964C190.598 218.964 191.381 218.181 191.381 217.215C191.381 216.249 190.598 215.466 189.632 215.466C188.666 215.466 187.883 216.249 187.883 217.215C187.883 218.181 188.666 218.964 189.632 218.964Z" fill="#F4CF50"/>
<path d="M184.847 217.115C184.944 216.154 185.801 215.453 186.762 215.549C187.723 215.645 188.424 216.503 188.328 217.464C188.232 218.425 187.374 219.126 186.413 219.03C185.452 218.934 184.751 218.076 184.847 217.115Z" fill="#F4CF50"/>
<path d="M181.975 216.012C182.306 215.104 183.31 214.637 184.217 214.967C185.125 215.298 185.592 216.302 185.262 217.209C184.931 218.117 183.927 218.584 183.02 218.254C182.112 217.924 181.645 216.92 181.975 216.012Z" fill="#F4CF50"/>
<path d="M179.464 214.235C180.008 213.437 181.097 213.231 181.895 213.776C182.693 214.321 182.898 215.409 182.354 216.207C181.809 217.005 180.721 217.21 179.923 216.666C179.125 216.121 178.92 215.033 179.464 214.235Z" fill="#F4CF50"/>
<path d="M177.471 211.894C178.195 211.255 179.301 211.323 179.94 212.048C180.579 212.773 180.51 213.878 179.785 214.517C179.06 215.156 177.955 215.086 177.316 214.362C176.677 213.637 176.746 212.533 177.471 211.894Z" fill="#F4CF50"/>
<path d="M176.115 209.131C176.975 208.691 178.029 209.031 178.469 209.89C178.909 210.75 178.569 211.804 177.709 212.244C176.849 212.684 175.795 212.344 175.355 211.484C174.915 210.626 175.255 209.572 176.115 209.131Z" fill="#F4CF50"/>
<path d="M175.484 206.12C176.426 205.905 177.364 206.495 177.578 207.437C177.793 208.379 177.203 209.317 176.261 209.531C175.319 209.746 174.381 209.156 174.167 208.214C173.953 207.272 174.542 206.335 175.484 206.12Z" fill="#F4CF50"/>
<path d="M175.614 203.047C176.58 203.072 177.343 203.874 177.318 204.84C177.293 205.806 176.491 206.569 175.525 206.544C174.559 206.52 173.796 205.717 173.821 204.751C173.846 203.785 174.649 203.022 175.614 203.047Z" fill="#F4CF50"/>
<path d="M176.501 200.101C177.431 200.363 177.972 201.329 177.71 202.259C177.448 203.189 176.482 203.73 175.552 203.468C174.622 203.206 174.081 202.24 174.343 201.31C174.605 200.38 175.571 199.839 176.501 200.101Z" fill="#F4CF50"/>
<path d="M178.086 197.464C178.922 197.947 179.209 199.017 178.725 199.854C178.241 200.69 177.172 200.976 176.335 200.493C175.499 200.009 175.213 198.94 175.696 198.103C176.18 197.267 177.25 196.981 178.086 197.464Z" fill="#F4CF50"/>
<path d="M180.273 195.3C180.964 195.975 180.977 197.082 180.302 197.774C179.627 198.465 178.52 198.478 177.828 197.804C177.137 197.129 177.124 196.022 177.799 195.33C178.474 194.639 179.581 194.626 180.273 195.3Z" fill="#F4CF50"/>
<path d="M182.926 193.743C183.429 194.568 183.169 195.644 182.344 196.148C181.519 196.651 180.443 196.391 179.94 195.566C179.437 194.741 179.697 193.665 180.522 193.162C181.346 192.658 182.422 192.919 182.926 193.743Z" fill="#F4CF50"/>
<path d="M186.121 192.889C186.405 193.812 185.887 194.791 184.964 195.075C184.041 195.359 183.062 194.841 182.777 193.918C182.493 192.995 183.011 192.016 183.934 191.732C184.858 191.447 185.837 191.966 186.121 192.889Z" fill="#F4CF50"/>
<path d="M187.808 216.074H187.797C187.608 216.074 187.42 216.069 187.234 216.06C187.082 216.052 186.965 215.923 186.973 215.771C186.981 215.619 187.113 215.503 187.262 215.51C187.439 215.519 187.618 215.523 187.797 215.523C187.949 215.523 188.078 215.646 188.078 215.798C188.078 215.951 187.96 216.074 187.808 216.074ZM190.036 215.839C189.909 215.839 189.795 215.75 189.767 215.621C189.735 215.472 189.83 215.326 189.979 215.295C190.158 215.257 190.335 215.214 190.511 215.167C190.658 215.127 190.809 215.215 190.848 215.362C190.887 215.509 190.8 215.66 190.654 215.699C190.469 215.748 190.283 215.793 190.094 215.833C190.074 215.837 190.055 215.839 190.036 215.839ZM185.034 215.715C185.011 215.715 184.987 215.712 184.963 215.706C184.777 215.657 184.593 215.602 184.411 215.543C184.266 215.496 184.187 215.341 184.234 215.197C184.281 215.052 184.436 214.973 184.58 215.02C184.753 215.076 184.928 215.127 185.104 215.174C185.251 215.213 185.338 215.364 185.299 215.511C185.267 215.633 185.156 215.715 185.034 215.715ZM192.673 214.904C192.573 214.904 192.476 214.849 192.428 214.754C192.359 214.619 192.412 214.453 192.548 214.384C192.71 214.301 192.87 214.214 193.027 214.123C193.159 214.047 193.327 214.092 193.403 214.223C193.479 214.355 193.434 214.523 193.303 214.599C193.138 214.695 192.969 214.787 192.798 214.874C192.758 214.894 192.715 214.904 192.673 214.904ZM182.448 214.646C182.401 214.646 182.354 214.634 182.311 214.609C182.144 214.513 181.98 214.413 181.82 214.308C181.693 214.225 181.656 214.055 181.739 213.927C181.822 213.799 181.992 213.763 182.12 213.846C182.273 213.945 182.428 214.04 182.587 214.132C182.719 214.208 182.764 214.376 182.688 214.508C182.635 214.597 182.543 214.646 182.448 214.646ZM194.975 213.316C194.9 213.316 194.825 213.285 194.77 213.225C194.668 213.112 194.677 212.938 194.79 212.836C194.925 212.714 195.058 212.589 195.186 212.46C195.293 212.352 195.468 212.353 195.575 212.46C195.683 212.567 195.683 212.742 195.575 212.849C195.439 212.985 195.3 213.117 195.158 213.245C195.107 213.293 195.041 213.316 194.975 213.316ZM180.226 212.945C180.156 212.945 180.085 212.918 180.032 212.865C179.896 212.73 179.764 212.591 179.635 212.448C179.533 212.335 179.542 212.161 179.655 212.059C179.768 211.957 179.942 211.966 180.044 212.079C180.166 212.214 180.292 212.346 180.421 212.475C180.529 212.582 180.529 212.756 180.421 212.864C180.367 212.918 180.297 212.945 180.226 212.945ZM196.792 211.189C196.741 211.189 196.688 211.175 196.642 211.145C196.515 211.062 196.479 210.892 196.561 210.764C196.66 210.611 196.756 210.456 196.847 210.298C196.923 210.166 197.091 210.121 197.223 210.198C197.354 210.274 197.399 210.442 197.323 210.574C197.227 210.741 197.126 210.904 197.022 211.065C196.97 211.145 196.882 211.189 196.792 211.189ZM178.518 210.729C178.423 210.729 178.331 210.68 178.28 210.592C178.184 210.427 178.092 210.258 178.005 210.088C177.936 209.953 177.989 209.787 178.124 209.718C178.259 209.648 178.425 209.702 178.494 209.837C178.577 210 178.665 210.159 178.756 210.316C178.832 210.447 178.788 210.616 178.656 210.692C178.613 210.717 178.565 210.729 178.518 210.729ZM197.998 208.663C197.97 208.663 197.941 208.659 197.913 208.649C197.768 208.602 197.689 208.447 197.736 208.303C197.792 208.13 197.844 207.955 197.891 207.779C197.93 207.632 198.081 207.545 198.228 207.584C198.375 207.623 198.462 207.774 198.423 207.921C198.373 208.107 198.319 208.291 198.26 208.473C198.222 208.589 198.114 208.663 197.998 208.663ZM177.442 208.147C177.321 208.147 177.21 208.066 177.176 207.943C177.126 207.758 177.081 207.572 177.041 207.383C177.009 207.234 177.104 207.088 177.253 207.056C177.401 207.024 177.548 207.119 177.58 207.268C177.618 207.447 177.661 207.624 177.708 207.799C177.748 207.946 177.661 208.097 177.514 208.136C177.49 208.144 177.466 208.147 177.442 208.147ZM198.505 205.912C198.5 205.912 198.496 205.912 198.491 205.911C198.339 205.903 198.223 205.774 198.23 205.622C198.239 205.441 198.244 205.259 198.244 205.075V205.028C198.244 204.876 198.367 204.753 198.519 204.753C198.671 204.753 198.794 204.876 198.794 205.028V205.072C198.794 205.267 198.789 205.459 198.779 205.649C198.772 205.798 198.651 205.912 198.505 205.912ZM177.074 205.363C176.922 205.363 176.799 205.251 176.799 205.099H177.074L176.799 205.081C176.799 204.891 176.804 204.708 176.812 204.525C176.819 204.373 176.947 204.258 177.1 204.264C177.252 204.271 177.369 204.401 177.362 204.552C177.353 204.726 177.349 204.9 177.349 205.076C177.349 205.228 177.226 205.363 177.074 205.363ZM198.277 203.077C198.15 203.077 198.036 202.989 198.008 202.86C197.97 202.681 197.926 202.504 197.879 202.329C197.839 202.182 197.926 202.031 198.072 201.991C198.219 201.952 198.37 202.038 198.41 202.184C198.46 202.369 198.506 202.555 198.546 202.743C198.578 202.892 198.483 203.038 198.335 203.07C198.316 203.075 198.297 203.077 198.277 203.077ZM177.43 202.599C177.407 202.599 177.383 202.596 177.359 202.59C177.212 202.551 177.125 202.401 177.163 202.254C177.212 202.068 177.266 201.884 177.325 201.702C177.371 201.557 177.525 201.478 177.671 201.524C177.816 201.57 177.895 201.726 177.849 201.87C177.793 202.043 177.742 202.218 177.695 202.395C177.664 202.518 177.552 202.599 177.43 202.599ZM197.333 200.444C197.233 200.444 197.137 200.39 197.088 200.295C197.004 200.133 196.917 199.973 196.825 199.817C196.748 199.686 196.793 199.517 196.924 199.441C197.055 199.365 197.224 199.409 197.3 199.54C197.396 199.705 197.489 199.873 197.577 200.044C197.647 200.179 197.594 200.345 197.459 200.415C197.419 200.434 197.376 200.444 197.333 200.444ZM178.495 200.012C178.449 200.012 178.401 200 178.358 199.975C178.226 199.899 178.181 199.731 178.257 199.599C178.353 199.432 178.453 199.268 178.557 199.107C178.64 198.979 178.81 198.943 178.938 199.025C179.066 199.107 179.102 199.278 179.02 199.405C178.921 199.558 178.826 199.714 178.735 199.872C178.683 199.963 178.59 200.012 178.495 200.012ZM195.738 198.146C195.663 198.146 195.588 198.116 195.534 198.056C195.411 197.921 195.285 197.789 195.156 197.661C195.048 197.554 195.048 197.38 195.155 197.272C195.262 197.164 195.436 197.163 195.544 197.271C195.68 197.406 195.813 197.545 195.942 197.687C196.044 197.8 196.036 197.974 195.923 198.076C195.87 198.123 195.804 198.146 195.738 198.146ZM180.195 197.789C180.125 197.789 180.055 197.762 180.001 197.709C179.893 197.602 179.893 197.428 180 197.32C180.135 197.184 180.274 197.052 180.416 196.923C180.529 196.821 180.703 196.83 180.805 196.942C180.907 197.055 180.898 197.228 180.786 197.331C180.651 197.453 180.519 197.579 180.391 197.708C180.336 197.762 180.265 197.789 180.195 197.789ZM193.605 196.336C193.554 196.336 193.502 196.322 193.456 196.292C193.303 196.193 193.147 196.098 192.989 196.007C192.857 195.931 192.812 195.763 192.887 195.631C192.963 195.499 193.131 195.453 193.263 195.529C193.43 195.625 193.594 195.725 193.755 195.829C193.883 195.911 193.919 196.082 193.837 196.209C193.784 196.292 193.695 196.336 193.605 196.336ZM182.409 196.078C182.314 196.078 182.222 196.029 182.171 195.941C182.095 195.81 182.139 195.641 182.27 195.565C182.435 195.469 182.603 195.377 182.774 195.289C182.909 195.219 183.075 195.273 183.144 195.408C183.214 195.543 183.16 195.709 183.025 195.778C182.863 195.861 182.703 195.949 182.546 196.04C182.504 196.066 182.456 196.078 182.409 196.078ZM191.075 195.139C191.047 195.139 191.019 195.135 190.991 195.126C190.818 195.07 190.643 195.019 190.466 194.973C190.319 194.934 190.231 194.784 190.27 194.637C190.308 194.49 190.458 194.403 190.606 194.441C190.792 194.49 190.977 194.544 191.159 194.602C191.304 194.649 191.383 194.804 191.337 194.948C191.3 195.065 191.192 195.139 191.075 195.139ZM184.989 195C184.868 195 184.757 194.919 184.723 194.796C184.683 194.65 184.77 194.498 184.917 194.459C185.102 194.409 185.288 194.364 185.476 194.323C185.624 194.291 185.771 194.386 185.803 194.534C185.835 194.683 185.74 194.829 185.592 194.861C185.413 194.899 185.236 194.942 185.061 194.99C185.037 194.996 185.013 195 184.989 195ZM188.323 194.641C188.319 194.641 188.314 194.641 188.31 194.641C188.14 194.633 187.969 194.629 187.797 194.629H187.762C187.61 194.629 187.487 194.506 187.487 194.354C187.487 194.202 187.61 194.079 187.762 194.079H187.794H187.795C187.979 194.079 188.158 194.084 188.336 194.092C188.488 194.099 188.605 194.228 188.598 194.38C188.59 194.526 188.469 194.641 188.323 194.641Z" fill="white"/>
<path d="M188.396 196.801L190.072 201.959C190.117 202.097 190.245 202.19 190.39 202.19H195.814C196.138 202.19 196.273 202.605 196.011 202.795L191.623 205.983C191.506 206.068 191.457 206.219 191.501 206.357L193.177 211.515C193.277 211.823 192.924 212.08 192.662 211.889L188.274 208.701C188.157 208.616 187.998 208.616 187.881 208.701L183.493 211.889C183.231 212.079 182.878 211.823 182.978 211.515L184.654 206.357C184.699 206.219 184.65 206.068 184.532 205.983L180.144 202.795C179.882 202.604 180.016 202.19 180.341 202.19H185.765C185.91 202.19 186.039 202.097 186.083 201.959L187.759 196.801C187.859 196.493 188.296 196.493 188.396 196.801Z" fill="#FFFFB6"/>
<path d="M188.065 131.565C194.065 131.648 197.214 121.895 197.214 121.895C197.214 121.895 199.398 121.732 200.063 125.084C200.727 128.436 192.566 141.815 194.482 146.065C196.399 150.315 191.899 159.732 186.565 159.148C181.232 158.565 176.898 158.398 170.344 162.731C163.79 167.064 153.899 160.981 154.565 153.148C155.232 145.315 146.898 141.315 147.232 133.898C147.565 126.481 154.482 124.481 158.899 126.231C163.316 127.981 170.344 126.731 170.344 126.731C182.206 125.231 182.065 131.482 188.065 131.565Z" fill="black"/>
<path d="M167.691 132.387C167.691 132.387 164.974 130.9 162.681 130.944C160.388 130.988 158.184 131.876 157.798 134.772C157.413 137.668 160.303 139.731 163.793 141.4C165.851 142.384 172.752 143.377 176.426 141.481C180.1 139.585 182.013 138.104 182.764 135.563C183.515 133.022 181.446 130.515 179.438 129.84C177.43 129.165 175.405 130.198 174.47 130.986C173.536 131.774 171.252 133.688 167.691 132.387Z" fill="white"/>
<path d="M156.316 133.195C156.316 136.095 153.965 138.446 151.065 138.446C148.165 138.446 145.814 136.095 145.814 133.195C145.814 130.295 148.165 127.944 151.065 127.944C153.965 127.945 156.316 130.296 156.316 133.195Z" fill="black"/>
<path d="M156.004 138.446C156.004 141.346 153.653 143.697 150.753 143.697C147.853 143.697 145.502 141.346 145.502 138.446C145.502 135.546 147.853 133.195 150.753 133.195C153.653 133.195 156.004 135.546 156.004 138.446Z" fill="black"/>
<path d="M157.764 147.169C157.764 150.069 155.413 152.42 152.513 152.42C149.613 152.42 147.262 150.069 147.262 147.169C147.262 144.269 149.613 141.918 152.513 141.918C155.414 141.918 157.764 144.269 157.764 147.169Z" fill="black"/>
<path d="M161.254 155.294C161.254 158.194 158.903 160.545 156.003 160.545C153.103 160.545 150.752 158.194 150.752 155.294C150.752 152.394 153.103 150.043 156.003 150.043C158.904 150.043 161.254 152.394 161.254 155.294Z" fill="black"/>
<path d="M167.188 160.973C167.188 163.873 164.837 166.224 161.937 166.224C159.037 166.224 156.686 163.873 156.686 160.973C156.686 158.073 159.037 155.722 161.937 155.722C164.837 155.722 167.188 158.073 167.188 160.973Z" fill="black"/>
<path d="M175.594 162.064C175.594 164.964 173.243 167.315 170.343 167.315C167.443 167.315 165.092 164.964 165.092 162.064C165.092 159.164 167.443 156.813 170.343 156.813C173.243 156.813 175.594 159.164 175.594 162.064Z" fill="black"/>
<path d="M179.872 165.262C182.772 165.262 185.123 162.911 185.123 160.011C185.123 157.111 182.772 154.76 179.872 154.76C176.972 154.76 174.621 157.111 174.621 160.011C174.621 162.911 176.972 165.262 179.872 165.262Z" fill="black"/>
<path d="M193.77 157.67C193.77 160.57 191.419 162.921 188.519 162.921C185.619 162.921 183.268 160.57 183.268 157.67C183.268 154.77 185.619 152.419 188.519 152.419C191.419 152.42 193.77 154.77 193.77 157.67Z" fill="black"/>
<path d="M200.1 150.043C200.1 152.943 197.749 155.294 194.849 155.294C191.949 155.294 189.598 152.943 189.598 150.043C189.598 147.143 191.949 144.792 194.849 144.792C197.75 144.793 200.1 147.143 200.1 150.043Z" fill="black"/>
<path d="M191.964 141.39C194.864 141.39 197.215 139.039 197.215 136.139C197.215 133.239 194.864 130.888 191.964 130.888C189.064 130.888 186.713 133.239 186.713 136.139C186.713 139.039 189.064 141.39 191.964 141.39Z" fill="black"/>
<path opacity="0.49" d="M178.291 123.483C180.849 123.483 182.922 122.644 182.922 121.608C182.922 120.573 180.849 119.733 178.291 119.733C175.734 119.733 173.66 120.573 173.66 121.608C173.66 122.644 175.734 123.483 178.291 123.483Z" fill="#FF6252"/>
<path opacity="0.49" d="M159.965 121.895C159.965 122.93 157.892 123.77 155.334 123.77C152.777 123.77 150.703 122.93 150.703 121.895C150.703 120.86 152.776 120.02 155.334 120.02C157.892 120.02 159.965 120.859 159.965 121.895Z" fill="#FF6252"/>
<path d="M298.083 296.663L294.219 294.408L290.171 296.313L291.122 291.941L288.059 288.68L292.511 288.233L294.666 284.312L296.467 288.408L300.861 289.246L297.522 292.224L298.083 296.663Z" fill="#FFFBAB"/>
<path d="M68.9791 343.474L65.1151 341.219L61.0671 343.123L62.0181 338.752L58.9551 335.49L63.4071 335.043L65.5621 331.123L67.3631 335.219L71.7571 336.057L68.4191 339.035L68.9791 343.474Z" fill="#FFFBAB"/>
<path d="M153.459 51.2742L150.522 49.5612L147.445 51.0082L148.168 47.6862L145.84 45.2072L149.223 44.8672L150.862 41.8872L152.23 45.0002L155.57 45.6372L153.033 47.9012L153.459 51.2742Z" fill="#FFFBAB"/>
<path d="M303.512 126.019L297.221 126.68L294.199 132.238L291.625 126.459L285.406 125.302L290.107 121.069L289.285 114.796L294.764 117.959L300.476 115.239L299.16 121.427L303.512 126.019Z" fill="#FFFBAB"/>
<path d="M74.4097 130.264L68.1177 130.925L65.0957 136.483L62.5227 130.704L56.3027 129.547L61.0037 125.314L60.1817 119.041L65.6607 122.204L71.3727 119.484L70.0577 125.672L74.4097 130.264Z" fill="#FFFBAB"/>
</g>
<defs>
<clipPath id="clip0_670_13446">
<rect width="500" height="500" rx="30" fill="white"/>
</clipPath>
</defs>
</svg>
