<svg width="460" height="400" viewBox="0 0 460 400" fill="none" xmlns="http://www.w3.org/2000/svg">
<path d="M390.891 239.606C395.684 167.673 359.35 98.8097 296.375 63.7185C285.208 57.4953 272.849 52.1169 259.199 48.0001C158.399 17.6001 120.799 43.2001 94.3991 75.2001C67.9991 107.2 92.7991 161.6 62.3991 184C31.9991 206.4 -4.80092 238.4 10.3991 285.6C25.5991 332.8 63.1991 364 98.3991 360.8C133.599 357.6 170.399 316 195.199 343.2C219.999 370.4 299.199 396.8 351.199 351.2C378.989 326.831 388.271 278.928 390.891 239.606Z" fill="#A154F2"/>
<path opacity="0.7" d="M390.891 239.606C395.684 167.673 359.35 98.8097 296.375 63.7185C285.208 57.4953 272.849 52.1169 259.199 48.0001C158.399 17.6001 120.799 43.2001 94.3991 75.2001C67.9991 107.2 92.7991 161.6 62.3991 184C31.9991 206.4 -4.80092 238.4 10.3991 285.6C25.5991 332.8 63.1991 364 98.3991 360.8C133.599 357.6 170.399 316 195.199 343.2C219.999 370.4 299.199 396.8 351.199 351.2C378.989 326.831 388.271 278.928 390.891 239.606Z" fill="white"/>
<g opacity="0.45">
<path d="M352.937 250.27C349.577 250.838 343.279 255.165 343.274 255.168C343.209 255.213 347.386 258.453 347.673 258.628C350.995 260.645 358.601 262.587 361.89 259.739C364.26 257.687 364.004 254.138 361.816 252.074C359.579 249.966 355.8 249.787 352.937 250.27Z" fill="#A154F2"/>
<path d="M338.617 233.197C335.647 234.576 331.024 239.963 330.658 240.393C327.668 237.789 324.389 235.359 320.935 233.083C318.962 231.779 316.934 230.528 314.885 229.299C315.904 229.721 316.818 230.09 316.951 230.129C320.689 231.196 328.537 231.061 330.957 227.445C332.702 224.84 331.517 221.486 328.861 220.073C326.15 218.629 322.454 219.455 319.822 220.677C317.15 221.917 313.118 226.43 312.066 227.64C311.274 227.177 310.49 226.705 309.697 226.245C305.893 224.037 302.087 221.849 298.42 219.589C297.127 218.793 295.884 217.961 294.636 217.134C295.542 217.508 296.308 217.815 296.43 217.85C300.166 218.917 308.014 218.783 310.435 215.166C312.179 212.561 310.995 209.206 308.339 207.793C305.626 206.351 301.933 207.176 299.3 208.398C296.75 209.581 292.99 213.714 291.734 215.144C290.482 214.258 289.226 213.373 288.054 212.459C287.266 211.817 286.464 211.253 285.71 210.563C284.949 209.897 284.195 209.236 283.449 208.582C282.058 207.271 280.614 205.925 279.289 204.612C278.36 203.705 277.492 202.824 276.615 201.938C277.893 202.745 280.427 204.273 280.654 204.377C284.185 205.998 291.962 207.053 294.904 203.845C297.022 201.534 296.36 198.039 293.949 196.241C291.486 194.405 287.711 194.66 284.923 195.469C281.854 196.361 276.659 200.78 276.014 201.336C274.568 199.866 273.175 198.423 271.882 197.039C269.022 193.992 266.544 191.205 264.487 188.82L262.1 190.381C264.285 192.813 266.936 195.677 270.022 198.823C271.484 200.321 273.077 201.893 274.727 203.493C274.412 203.941 272.636 206.497 271.278 209.093C268.094 208.293 261.772 209.056 260.958 209.16C260.562 207.136 260.197 205.164 259.882 203.297C259.214 199.393 258.706 195.877 258.313 192.86L255.731 194.549C256.162 197.285 256.69 200.377 257.345 203.759C257.738 205.816 258.199 208.006 258.694 210.249C257.915 210.554 251.565 213.083 249.338 215.381C247.32 217.467 245.327 220.685 245.798 223.721C246.26 226.693 249.04 228.913 252.074 228.121C256.285 227.022 258.99 219.654 259.209 215.773C259.222 215.545 259.085 213.045 258.972 211.47C259.179 212.386 259.37 213.277 259.595 214.217C260.026 216.08 260.512 217.925 261.027 219.913C261.31 220.865 261.595 221.825 261.882 222.796C262.148 223.764 262.551 224.753 262.884 225.743C263.704 228.022 264.646 230.29 265.646 232.555C264.016 232.937 258.248 234.377 255.926 236.14C253.614 237.896 251.157 240.773 251.163 243.846C251.169 246.854 253.581 249.47 256.699 249.148C261.028 248.699 264.818 241.825 265.622 238.023C265.673 237.786 265.943 234.993 266.062 233.456C266.673 234.813 267.277 236.169 267.94 237.521C269.854 241.425 271.914 245.318 273.95 249.21C274.574 250.402 275.182 251.597 275.795 252.791C275.214 252.921 268.321 254.483 265.72 256.458C263.408 258.213 260.951 261.092 260.958 264.165C260.964 267.173 263.375 269.789 266.494 269.465C270.823 269.017 274.613 262.144 275.417 258.342C275.478 258.056 275.861 254.036 275.908 253.009C277.258 255.639 278.578 258.273 279.774 260.922C281.43 264.574 282.853 268.25 283.967 271.913C283.697 271.973 276.495 273.572 273.831 275.594C271.519 277.35 269.062 280.229 269.069 283.301C269.075 286.309 271.486 288.924 274.605 288.601C278.934 288.153 282.722 281.28 283.528 277.477C283.59 277.18 284.001 272.854 284.019 272.065C284.085 272.283 284.177 272.501 284.24 272.72C285.381 276.645 285.992 280.591 286.384 284.313C286.616 286.476 286.716 288.556 286.77 290.582C285.398 290.742 279.136 291.544 276.538 293.099C274.047 294.59 271.289 297.181 270.958 300.236C270.633 303.226 272.742 306.091 275.878 306.113C280.23 306.142 284.751 299.726 285.968 296.036C286.034 295.835 286.481 293.721 286.784 292.176C286.794 293.09 286.822 294.034 286.813 294.91C286.79 298.201 286.567 301.213 286.347 303.88C286.21 305.394 286.057 306.762 285.898 308.04C284.634 308.898 279.583 312.426 278.022 314.958C276.5 317.429 275.245 321 276.358 323.864C277.45 326.668 280.642 328.238 283.434 326.813C287.31 324.834 288.366 317.057 287.746 313.22C287.692 312.889 286.258 307.799 286.191 307.844C286.191 307.844 286.13 307.885 286.114 307.896C286.291 306.669 286.466 305.352 286.628 303.909C286.906 301.242 287.196 298.227 287.29 294.924C287.393 291.622 287.411 288.033 287.09 284.251C286.773 280.459 286.245 276.487 285.172 272.465C285.161 272.419 285.142 272.373 285.13 272.328C285.809 273.407 287.808 276.361 287.988 276.569C290.516 279.521 297.135 283.739 301.15 282.058C304.042 280.847 304.905 277.397 303.47 274.753C302.002 272.053 298.467 270.704 295.597 270.271C292.36 269.783 285.533 271.725 284.99 271.881C283.934 268.06 282.538 264.225 280.914 260.421C279.986 258.245 278.985 256.081 277.954 253.926C278.571 254.841 279.13 255.653 279.22 255.758C281.749 258.71 288.367 262.927 292.382 261.246C295.274 260.035 296.136 256.584 294.7 253.941C293.234 251.241 289.698 249.892 286.828 249.458C283.915 249.019 278.062 250.558 276.518 250.986C276.114 250.164 275.719 249.337 275.312 248.516C273.358 244.575 271.39 240.651 269.579 236.743C268.939 235.366 268.361 233.987 267.778 232.609C268.326 233.42 268.796 234.098 268.878 234.194C271.406 237.146 278.025 241.364 282.039 239.683C284.932 238.471 285.794 235.021 284.358 232.377C282.893 229.677 279.356 228.328 276.486 227.896C273.707 227.476 268.29 228.849 266.454 229.349C265.898 227.92 265.339 226.489 264.865 225.078C264.563 224.108 264.206 223.195 263.956 222.204C263.69 221.229 263.424 220.261 263.162 219.305C262.726 217.442 262.264 215.525 261.883 213.698C261.609 212.429 261.372 211.215 261.128 209.993C261.749 211.371 263.019 214.043 263.15 214.254C264.514 216.447 267.578 219.457 270.721 220.927C270.92 221.253 271.146 221.558 271.403 221.841C273.429 224.065 276.972 224.384 279.066 222.05C281.972 218.811 280.162 211.173 278.204 207.817C278.089 207.618 276.595 205.61 275.632 204.358C276.31 205.008 276.961 205.646 277.667 206.306C279.054 207.621 280.478 208.893 282.004 210.267C282.764 210.905 283.532 211.548 284.309 212.198C285.064 212.859 285.946 213.461 286.77 214.104C288.71 215.551 290.749 216.925 292.831 218.262C291.682 219.48 287.666 223.862 286.702 226.614C285.742 229.353 285.281 233.11 286.981 235.669C288.646 238.174 292.099 239.027 294.522 237.037C297.886 234.275 297.255 226.451 295.829 222.836C295.739 222.61 294.424 220.132 293.675 218.784C294.934 219.577 296.186 220.377 297.486 221.139C301.236 223.34 305.1 225.451 308.946 227.573C310.125 228.222 311.291 228.883 312.462 229.541C312.048 229.97 307.162 235.076 306.081 238.158C305.121 240.897 304.66 244.654 306.36 247.213C308.025 249.717 311.478 250.57 313.901 248.58C317.265 245.817 316.634 237.995 315.207 234.38C315.099 234.108 313.202 230.544 312.675 229.661C315.251 231.11 317.806 232.578 320.266 234.128C323.662 236.261 326.875 238.542 329.826 240.982C329.633 241.182 324.508 246.489 323.402 249.645C322.442 252.384 321.98 256.141 323.681 258.699C325.345 261.205 328.798 262.057 331.222 260.066C334.586 257.305 333.954 249.481 332.527 245.866C332.415 245.582 330.371 241.749 329.951 241.081C330.126 241.226 330.324 241.357 330.497 241.505C333.614 244.151 336.301 247.104 338.681 249.993C340.067 251.668 341.298 253.348 342.459 255.008C341.404 255.898 336.623 260.021 335.314 262.752C334.059 265.369 333.188 269.053 334.597 271.782C335.977 274.455 339.316 275.681 341.942 273.97C345.589 271.594 345.821 263.749 344.8 259.999C344.745 259.795 343.951 257.785 343.351 256.329C343.864 257.086 344.408 257.858 344.884 258.594C346.68 261.352 348.156 263.987 349.444 266.332C350.166 267.671 350.791 268.897 351.364 270.049C350.785 271.464 348.518 277.193 348.612 280.165C348.705 283.067 349.629 286.737 352.137 288.51C354.594 290.247 358.122 289.796 359.664 287.067C361.806 283.277 358.395 276.208 355.762 273.35C355.534 273.104 351.53 269.651 351.499 269.724C351.499 269.724 351.471 269.793 351.465 269.809C350.935 268.689 350.354 267.494 349.693 266.202C348.454 263.824 347.032 261.149 345.288 258.342C343.553 255.533 341.588 252.529 339.233 249.551C336.876 246.564 334.246 243.541 331.131 240.778C331.096 240.747 331.055 240.719 331.02 240.688C332.182 241.213 335.48 242.573 335.745 242.649C339.482 243.717 347.329 243.582 349.75 239.965C351.494 237.36 350.31 234.005 347.654 232.593C344.942 231.15 341.249 231.976 338.617 233.197Z" fill="#A154F2"/>
<path d="M287.356 291.165C287.277 291.167 288.973 296.175 289.115 296.478C290.775 299.992 296.046 305.808 300.362 305.247C303.471 304.843 305.214 301.742 304.527 298.813C303.826 295.823 300.771 293.587 298.118 292.412C295.003 291.031 287.363 291.165 287.356 291.165Z" fill="#A154F2"/>
</g>
<g opacity="0.5">
<path d="M115.683 119.219C118.054 117.857 121.593 112.851 121.596 112.847C121.633 112.795 117.588 111.516 117.323 111.465C114.262 110.87 107.997 111.522 106.313 114.58C105.099 116.783 106.278 119.383 108.499 120.328C110.768 121.294 113.662 120.378 115.683 119.219Z" fill="#A154F2"/>
<path d="M131.206 128.09C133.058 126.226 135.04 120.887 135.196 120.462C138.171 121.591 141.315 122.509 144.547 123.262C146.394 123.694 148.269 124.073 150.153 124.428C149.269 124.394 148.478 124.37 148.367 124.378C145.257 124.613 139.387 126.895 138.571 130.29C137.981 132.737 139.805 134.931 142.197 135.257C144.639 135.59 147.191 133.942 148.832 132.29C150.499 130.614 152.28 126.096 152.735 124.894C153.459 125.022 154.181 125.159 154.906 125.285C158.383 125.89 161.855 126.479 165.243 127.161C166.438 127.401 167.605 127.681 168.774 127.956C167.988 127.926 167.327 127.908 167.225 127.915C164.116 128.15 158.246 130.433 157.429 133.828C156.84 136.274 158.664 138.47 161.055 138.794C163.499 139.126 166.049 137.479 167.691 135.827C169.281 134.228 170.963 130.073 171.511 128.647C172.699 128.966 173.891 129.282 175.027 129.645C175.799 129.91 176.559 130.11 177.319 130.421C178.077 130.711 178.828 130.998 179.571 131.283C180.983 131.884 182.443 132.495 183.806 133.116C184.757 133.541 185.655 133.962 186.562 134.385C185.376 134.132 183.043 133.687 182.844 133.672C179.735 133.433 173.588 134.8 172.266 138.032C171.314 140.361 172.783 142.807 175.099 143.49C177.463 144.189 180.233 142.947 182.107 141.563C184.169 140.039 186.851 135.27 187.183 134.671C188.679 135.375 190.129 136.075 191.487 136.757C194.487 138.255 197.126 139.665 199.338 140.888L200.701 139.049C198.381 137.826 195.589 136.406 192.392 134.897C190.875 134.175 189.239 133.434 187.552 132.69C187.665 132.266 188.291 129.848 188.591 127.517C191.211 127.234 195.757 124.902 196.342 124.598C197.203 126.011 198.025 127.394 198.781 128.711C200.369 131.464 201.729 133.969 202.863 136.131L204.337 134.142C203.252 132.202 201.995 130.022 200.563 127.658C199.695 126.22 198.739 124.699 197.743 123.148C198.245 122.702 202.322 119.034 203.359 116.685C204.299 114.554 204.904 111.578 203.705 109.424C202.531 107.315 199.823 106.417 197.759 107.856C194.895 109.853 194.907 116.151 195.82 119.132C195.874 119.308 196.671 121.151 197.195 122.305C196.784 121.673 196.393 121.055 195.963 120.41C195.121 119.128 194.242 117.874 193.302 116.522C192.825 115.884 192.343 115.24 191.857 114.59C191.387 113.934 190.81 113.302 190.284 112.65C189.034 111.162 187.694 109.717 186.312 108.29C187.432 107.549 191.374 104.862 192.631 102.89C193.883 100.926 194.933 98.0768 194.074 95.7656C193.234 93.5032 190.691 92.2048 188.434 93.3136C185.3 94.8544 184.358 101.082 184.809 104.167C184.837 104.359 185.41 106.537 185.747 107.727C184.91 106.876 184.079 106.022 183.203 105.189C180.678 102.782 178.046 100.425 175.431 98.0608C174.63 97.3376 173.84 96.6064 173.047 95.8784C173.448 95.6192 178.202 92.528 179.611 90.3176C180.864 88.3544 181.913 85.504 181.054 83.1936C180.213 80.9312 177.671 79.6328 175.414 80.7424C172.28 82.2824 171.338 88.5096 171.789 91.5944C171.823 91.8264 172.651 94.9592 172.901 95.7456C171.154 94.1408 169.428 92.5256 167.791 90.864C165.53 88.5752 163.438 86.2032 161.58 83.7568C161.767 83.6368 166.743 80.432 168.187 78.1688C169.439 76.2048 170.488 73.3544 169.629 71.044C168.788 68.7816 166.247 67.4832 163.989 68.5928C160.855 70.1336 159.914 76.36 160.364 79.4456C160.4 79.6872 161.293 83.0568 161.499 83.656C161.389 83.5104 161.259 83.3712 161.151 83.2248C159.201 80.5872 157.644 77.7872 156.315 75.0944C155.539 73.5312 154.885 71.9936 154.283 70.4832C155.271 69.9808 159.761 67.6376 161.285 65.7448C162.745 63.9304 164.101 61.2128 163.501 58.8224C162.914 56.4816 160.53 54.9112 158.164 55.7664C154.88 56.9536 153.26 63.0392 153.37 66.156C153.375 66.3256 153.627 68.0416 153.828 69.288C153.567 68.6024 153.283 67.9 153.047 67.2376C152.149 64.7544 151.479 62.4248 150.903 60.3568C150.586 59.1784 150.321 58.1064 150.085 57.1008C150.798 56.1032 153.619 52.044 154.091 49.7048C154.55 47.4216 154.502 44.3856 152.867 42.5392C151.267 40.732 148.428 40.4376 146.723 42.2864C144.355 44.8528 145.721 51.0008 147.255 53.716C147.387 53.9504 149.882 57.3824 149.919 57.3304C149.919 57.3304 149.955 57.2824 149.963 57.2704C150.171 58.2432 150.405 59.2824 150.684 60.4136C151.216 62.4984 151.836 64.8488 152.683 67.3608C153.523 69.8744 154.507 72.5808 155.8 75.3384C157.093 78.1048 158.595 80.9472 160.519 83.6768C160.541 83.708 160.567 83.7368 160.589 83.768C159.778 83.1448 157.451 81.4768 157.259 81.3696C154.535 79.8504 148.381 78.5152 145.826 80.8968C143.986 82.612 144.295 85.4496 146.111 87.04C147.965 88.664 151.001 88.6976 153.282 88.2256C155.854 87.6936 160.453 84.3336 160.819 84.0656C162.676 86.6488 164.792 89.1472 167.072 91.5592C168.375 92.9392 169.73 94.2888 171.105 95.6248C170.387 95.108 169.74 94.6512 169.643 94.5976C166.919 93.0784 160.765 91.7432 158.211 94.1248C156.37 95.84 156.68 98.6776 158.495 100.268C160.349 101.893 163.386 101.926 165.667 101.454C167.981 100.974 171.959 98.1896 173.003 97.4384C173.535 97.9448 174.063 98.4576 174.598 98.9624C177.163 101.386 179.735 103.792 182.185 106.23C183.049 107.089 183.868 107.966 184.691 108.842C184.052 108.384 183.511 108.003 183.422 107.954C180.698 106.434 174.544 105.099 171.99 107.48C170.15 109.196 170.459 112.033 172.275 113.624C174.128 115.248 177.165 115.281 179.446 114.809C181.654 114.353 185.35 111.814 186.593 110.927C187.408 111.849 188.227 112.77 188.975 113.7C189.472 114.346 189.995 114.934 190.459 115.611C190.931 116.271 191.399 116.926 191.862 117.573C192.707 118.853 193.589 120.168 194.383 121.438C194.942 122.317 195.458 123.165 195.98 124.016C195.131 123.151 193.431 121.494 193.274 121.371C191.638 120.1 188.495 118.686 185.721 118.453C185.481 118.263 185.225 118.096 184.953 117.954C182.811 116.843 180.055 117.588 179.127 119.927C177.84 123.173 181.325 128.419 183.731 130.402C183.873 130.518 185.555 131.615 186.628 132.29C185.937 131.99 185.27 131.69 184.555 131.39C183.146 130.786 181.721 130.224 180.191 129.614C179.441 129.345 178.684 129.074 177.919 128.8C177.167 128.512 176.336 128.304 175.538 128.05C173.675 127.499 171.759 127.032 169.819 126.605C170.346 125.369 172.151 120.954 172.111 118.614C172.073 116.286 171.375 113.33 169.385 111.877C167.435 110.454 164.599 110.772 163.328 112.943C161.564 115.957 164.214 121.67 166.292 123.995C166.422 124.14 168.101 125.64 169.039 126.446C167.871 126.198 166.707 125.946 165.517 125.733C162.083 125.118 158.587 124.604 155.103 124.075C154.035 123.914 152.974 123.74 151.91 123.57C152.102 123.132 154.361 117.93 154.317 115.31C154.278 112.982 153.581 110.026 151.59 108.573C149.641 107.15 146.804 107.469 145.534 109.64C143.77 112.654 146.419 118.367 148.497 120.691C148.654 120.866 151.072 123.022 151.715 123.539C149.373 123.165 147.042 122.77 144.76 122.286C141.611 121.624 138.558 120.801 135.659 119.784C135.749 119.58 138.131 114.162 138.087 111.478C138.047 109.15 137.351 106.194 135.359 104.741C133.411 103.318 130.575 103.636 129.303 105.808C127.539 108.822 130.189 114.535 132.267 116.859C132.431 117.042 135.035 119.359 135.536 119.745C135.364 119.684 135.179 119.641 135.008 119.578C131.927 118.453 129.083 116.977 126.489 115.464C124.98 114.588 123.587 113.666 122.251 112.739C122.798 111.775 125.25 107.344 125.476 104.924C125.693 102.605 125.326 99.5904 123.507 97.9272C121.725 96.2984 118.871 96.304 117.369 98.3216C115.284 101.123 117.291 107.094 119.101 109.632C119.199 109.77 120.355 111.063 121.211 111.992C120.615 111.564 119.991 111.134 119.428 110.713C117.31 109.137 115.467 107.563 113.845 106.156C112.93 105.348 112.118 104.6 111.367 103.891C111.41 102.666 111.523 97.7232 110.627 95.512C109.751 93.3536 108.035 90.8488 105.654 90.2104C103.322 89.5856 100.791 90.9064 100.389 93.3888C99.8299 96.836 104.362 101.21 107.139 102.629C107.379 102.75 111.352 104.237 111.355 104.174C111.355 104.174 111.358 104.114 111.358 104.1C112.067 104.796 112.837 105.534 113.694 106.323C115.287 107.769 117.101 109.387 119.194 111.015C121.281 112.647 123.595 114.363 126.195 115.95C128.799 117.543 131.619 119.087 134.731 120.301C134.766 120.314 134.804 120.324 134.839 120.338C133.819 120.265 130.959 120.158 130.738 120.175C127.629 120.41 121.759 122.692 120.942 126.087C120.354 128.534 122.177 130.73 124.569 131.054C127.014 131.388 129.564 129.741 131.206 128.09Z" fill="#A154F2"/>
<path d="M153.677 70.2113C153.736 70.1881 151.068 66.8905 150.876 66.7017C148.651 64.5177 143.067 61.6049 139.974 63.2273C137.746 64.3953 137.296 67.2137 138.628 69.2273C139.987 71.2833 142.906 72.1177 145.231 72.2641C147.96 72.4369 153.672 70.2121 153.677 70.2113Z" fill="#A154F2"/>
</g>
<g opacity="0.1">
<path d="M59.8002 147.784C59.9114 146.931 58.9234 145.994 58.9234 145.111C58.9234 144.228 59.9114 143.291 59.8002 142.438C59.6866 141.566 58.4882 140.914 58.2658 140.082C58.0394 139.234 58.7506 138.072 58.4194 137.274C58.0842 136.466 56.7578 136.148 56.3242 135.398C55.8866 134.642 56.2722 133.334 55.7426 132.646C55.2114 131.955 53.849 131.991 53.2338 131.376C52.6186 130.761 52.6546 129.398 51.9634 128.867C51.2746 128.338 49.9674 128.723 49.2122 128.286C48.4618 127.852 48.1442 126.526 47.3362 126.191C46.537 125.86 45.3754 126.571 44.5282 126.345C43.6946 126.122 43.0434 124.924 42.1714 124.81C41.3186 124.699 40.3818 125.687 39.4986 125.687C38.6154 125.687 37.6786 124.699 36.8258 124.81C35.953 124.924 35.3018 126.122 34.469 126.345C33.6218 126.571 32.4594 125.86 31.6602 126.191C30.8522 126.526 30.5346 127.853 29.7842 128.286C29.0282 128.724 27.721 128.338 27.0322 128.868C26.341 129.399 26.377 130.762 25.7618 131.378C25.1466 131.993 23.7834 131.957 23.253 132.648C22.7234 133.337 23.109 134.644 22.6722 135.399C22.2378 136.15 20.9122 136.467 20.577 137.275C20.2458 138.074 20.957 139.236 20.7306 140.083C20.5082 140.916 19.3098 141.568 19.1962 142.44C19.085 143.293 20.073 144.23 20.073 145.113C20.073 145.995 19.085 146.933 19.1962 147.786C19.3098 148.658 20.5082 149.31 20.7306 150.142C20.957 150.99 20.2458 152.152 20.577 152.95C20.9122 153.758 22.2386 154.076 22.6722 154.826C23.109 155.582 22.7242 156.89 23.253 157.578C23.7842 158.269 25.1466 158.233 25.7618 158.848C26.377 159.463 26.341 160.826 27.0322 161.357C27.721 161.886 29.0282 161.501 29.7834 161.938C30.5338 162.372 30.8514 163.698 31.6594 164.033C32.4586 164.364 33.6202 163.653 34.4674 163.879C35.301 164.102 35.9522 165.3 36.8242 165.414C37.677 165.525 38.6138 164.537 39.497 164.537C40.3802 164.537 41.317 165.525 42.1698 165.414C43.0426 165.3 43.6938 164.102 44.5266 163.879C45.3738 163.653 46.5362 164.364 47.3346 164.033C48.1426 163.698 48.4602 162.371 49.2106 161.938C49.9666 161.501 51.273 161.886 51.9618 161.356C52.653 160.825 52.617 159.462 53.2322 158.847C53.8474 158.232 55.2106 158.268 55.741 157.577C56.2706 156.888 55.885 155.581 56.3218 154.826C56.7562 154.075 58.0818 153.758 58.417 152.95C58.7482 152.15 58.037 150.989 58.2634 150.142C58.489 149.307 59.6866 148.656 59.8002 147.784ZM39.4978 160.862C30.7994 160.862 23.7474 153.81 23.7474 145.111C23.7474 136.413 30.7994 129.361 39.4978 129.361C48.1962 129.361 55.2482 136.413 55.2482 145.111C55.2482 153.81 48.197 160.862 39.4978 160.862Z" fill="black"/>
<path d="M48.4061 154.02C53.3267 149.1 53.3267 141.122 48.4061 136.201C43.4856 131.281 35.5078 131.281 30.5872 136.201C25.6666 141.122 25.6666 149.1 30.5872 154.02C35.5078 158.941 43.4856 158.941 48.4061 154.02Z" fill="black"/>
</g>
<g opacity="0.1">
<path d="M371.798 141.878C371.947 140.741 370.627 139.49 370.627 138.311C370.627 137.133 371.947 135.881 371.798 134.744C371.646 133.579 370.047 132.71 369.75 131.597C369.447 130.466 370.397 128.915 369.955 127.849C369.507 126.77 367.737 126.346 367.158 125.345C366.574 124.336 367.088 122.591 366.382 121.672C365.673 120.749 363.854 120.798 363.032 119.976C362.211 119.154 362.259 117.336 361.336 116.627C360.417 115.921 358.672 116.435 357.663 115.852C356.662 115.273 356.238 113.502 355.159 113.055C354.093 112.613 352.543 113.562 351.411 113.26C350.299 112.962 349.43 111.364 348.266 111.212C347.128 111.063 345.877 112.382 344.699 112.382C343.52 112.382 342.269 111.063 341.131 111.212C339.967 111.364 339.098 112.962 337.985 113.26C336.854 113.562 335.303 112.613 334.236 113.055C333.158 113.502 332.734 115.273 331.732 115.852C330.723 116.436 328.979 115.922 328.059 116.628C327.137 117.337 327.185 119.156 326.363 119.977C325.542 120.799 323.723 120.751 323.015 121.673C322.308 122.593 322.823 124.337 322.239 125.346C321.66 126.348 319.89 126.771 319.443 127.85C319 128.917 319.95 130.467 319.647 131.598C319.35 132.71 317.751 133.58 317.599 134.744C317.451 135.882 318.771 137.133 318.771 138.311C318.771 139.49 317.451 140.741 317.599 141.878C317.751 143.043 319.351 143.912 319.647 145.025C319.95 146.156 319 147.707 319.443 148.773C319.89 149.852 321.66 150.276 322.239 151.278C322.823 152.286 322.309 154.031 323.015 154.95C323.724 155.873 325.543 155.825 326.365 156.646C327.186 157.468 327.139 159.286 328.061 159.995C328.98 160.702 330.725 160.187 331.734 160.77C332.735 161.35 333.159 163.12 334.238 163.567C335.304 164.01 336.855 163.06 337.986 163.362C339.098 163.66 339.967 165.258 341.131 165.41C342.269 165.558 343.52 164.239 344.699 164.239C345.877 164.239 347.128 165.558 348.266 165.41C349.431 165.258 350.299 163.659 351.412 163.362C352.543 163.06 354.095 164.01 355.161 163.567C356.239 163.12 356.663 161.349 357.665 160.77C358.674 160.186 360.419 160.701 361.338 159.994C362.26 159.285 362.212 157.466 363.034 156.645C363.855 155.824 365.674 155.871 366.383 154.949C367.089 154.03 366.575 152.285 367.158 151.276C367.737 150.274 369.507 149.851 369.955 148.772C370.397 147.705 369.447 146.155 369.75 145.024C370.047 143.913 371.646 143.043 371.798 141.878ZM344.698 159.334C333.087 159.334 323.675 149.922 323.675 138.311C323.675 126.7 333.087 117.288 344.698 117.288C356.309 117.288 365.721 126.701 365.721 138.311C365.721 149.922 356.309 159.334 344.698 159.334Z" fill="black"/>
<path d="M354.742 151.798C362.196 146.255 363.745 135.72 358.203 128.266C352.66 120.811 342.125 119.262 334.671 124.804C327.217 130.347 325.667 140.883 331.209 148.337C336.752 155.791 347.288 157.34 354.742 151.798Z" fill="black"/>
</g>
<g opacity="0.1">
<path d="M327.663 312.906C317.943 312.906 310.062 320.786 310.062 330.506C310.062 340.226 317.943 348.106 327.663 348.106C337.382 348.106 345.263 340.226 345.263 330.506C345.263 320.786 337.382 312.906 327.663 312.906ZM328.8 342.715V344.569H326.561V342.715C323.517 342.295 322.153 339.986 322.153 336.663V335.159H324.706V336.838C324.706 339.042 325.616 340.302 327.575 340.302C329.57 340.302 330.444 339.042 330.444 336.838C330.444 331.38 322.258 331.311 322.258 324.418C322.258 321.059 323.622 318.855 326.561 318.4V316.442H328.8V318.4C331.774 318.82 333.138 321.13 333.138 324.418V325.083H330.584V324.243C330.584 322.075 329.71 320.744 327.75 320.744C325.826 320.744 324.95 322.074 324.95 324.243C324.95 329.737 333.172 329.771 333.172 336.663C333.172 339.951 331.774 342.295 328.8 342.715Z" fill="black"/>
<path d="M327.663 301.706C311.758 301.706 298.863 314.6 298.863 330.506C298.863 346.411 311.758 359.306 327.663 359.306C343.569 359.306 356.463 346.411 356.463 330.506C356.463 314.6 343.569 301.706 327.663 301.706ZM327.663 352.106C315.734 352.106 306.063 342.435 306.063 330.506C306.063 318.576 315.734 308.906 327.663 308.906C339.593 308.906 349.263 318.576 349.263 330.506C349.263 342.434 339.593 352.106 327.663 352.106Z" fill="black"/>
</g>
<g opacity="0.1">
<path d="M259.659 337.87C252.793 337.87 247.227 343.435 247.227 350.302C247.227 357.167 252.792 362.734 259.659 362.734C266.524 362.734 272.091 357.168 272.091 350.302C272.091 343.436 266.525 337.87 259.659 337.87ZM260.463 358.926V360.236H258.881V358.926C256.731 358.63 255.767 356.998 255.767 354.651V353.589H257.571V354.774C257.571 356.331 258.214 357.222 259.598 357.222C261.007 357.222 261.624 356.332 261.624 354.774C261.624 350.919 255.842 350.87 255.842 346.002C255.842 343.63 256.806 342.073 258.882 341.751V340.368H260.463V341.751C262.564 342.048 263.527 343.679 263.527 346.002V346.471H261.723V345.878C261.723 344.346 261.106 343.407 259.722 343.407C258.363 343.407 257.745 344.346 257.745 345.878C257.745 349.758 263.552 349.783 263.552 354.651C263.551 356.974 262.563 358.63 260.463 358.926Z" fill="black"/>
<path d="M259.658 329.958C248.422 329.958 239.314 339.067 239.314 350.302C239.314 361.537 248.422 370.645 259.658 370.645C270.893 370.645 280.001 361.537 280.001 350.302C280.001 339.067 270.893 329.958 259.658 329.958ZM259.658 365.559C251.231 365.559 244.4 358.728 244.4 350.302C244.4 341.875 251.231 335.044 259.658 335.044C268.084 335.044 274.915 341.875 274.915 350.302C274.915 358.728 268.084 365.559 259.658 365.559Z" fill="black"/>
</g>
<g opacity="0.1">
<path d="M238.166 294.677C231.301 294.677 225.734 300.243 225.734 307.109C225.734 313.975 231.301 319.541 238.166 319.541C245.032 319.541 250.598 313.976 250.598 307.109C250.598 300.244 245.032 294.677 238.166 294.677ZM238.97 315.734V317.044H237.388V315.734C235.238 315.437 234.274 313.806 234.274 311.459V310.396H236.078V311.582C236.078 313.139 236.721 314.029 238.105 314.029C239.514 314.029 240.131 313.14 240.131 311.582C240.131 307.727 234.349 307.678 234.349 302.809C234.349 300.437 235.313 298.88 237.389 298.559V297.176H238.97V298.559C241.071 298.856 242.034 300.487 242.034 302.809V303.279H240.23V302.686C240.23 301.154 239.613 300.215 238.229 300.215C236.87 300.215 236.251 301.154 236.251 302.686C236.251 306.566 242.058 306.591 242.058 311.46C242.058 313.781 241.07 315.437 238.97 315.734Z" fill="black"/>
<path d="M238.165 286.766C226.93 286.766 217.822 295.874 217.822 307.109C217.822 318.345 226.93 327.453 238.165 327.453C249.401 327.453 258.509 318.345 258.509 307.109C258.509 295.874 249.401 286.766 238.165 286.766ZM238.165 322.367C229.739 322.367 222.908 315.536 222.908 307.109C222.908 298.683 229.739 291.852 238.165 291.852C246.592 291.852 253.423 298.683 253.423 307.109C253.423 315.536 246.592 322.367 238.165 322.367Z" fill="black"/>
</g>
<path opacity="0.1" d="M68.623 59.2268H80.391L74.507 49.0356L68.623 59.2268Z" fill="black"/>
<path opacity="0.1" d="M45.5273 59.2268H57.2953L51.4113 49.0356L45.5273 59.2268Z" fill="black"/>
<path opacity="0.1" d="M62.96 35.7393C50.336 35.7393 40.0664 46.0089 40.0664 58.6329C40.0664 71.2569 50.336 81.5265 62.96 81.5265C75.584 81.5265 85.8536 71.2569 85.8536 58.6329C85.8536 46.0089 75.584 35.7393 62.96 35.7393ZM79.1528 62.3609H69.8624C67.8736 62.3609 66.6304 60.2081 67.6248 58.4857L74.3464 46.8433H64.5448V69.1169H68.18V71.0153H73.2416V73.6825H53.3112V71.0153H57.74V69.1169H62.3744V46.8441H51.5736L58.2952 58.4865C59.2896 60.2089 58.0464 62.3617 56.0576 62.3617H46.768C44.7792 62.3617 43.536 60.2089 44.5304 58.4865L51.252 46.8441H50.98C50.3808 46.8441 49.8944 46.3585 49.8944 45.7593C49.8944 45.1601 50.38 44.6745 50.98 44.6745H62.3744V44.6689C62.3744 44.0697 62.86 43.5841 63.4592 43.5841C64.0584 43.5841 64.544 44.0697 64.544 44.6689V44.6745H75.9384C76.5376 44.6745 77.0232 45.1601 77.0232 45.7593C77.0232 46.3585 76.5376 46.8441 75.9384 46.8441H74.6672L81.3888 58.4865C82.384 60.2081 81.1416 62.3609 79.1528 62.3609Z" fill="black"/>
<path opacity="0.1" d="M62.9593 32.4175C48.4809 32.4175 36.7441 44.1543 36.7441 58.6327C36.7441 73.1111 48.4809 84.8479 62.9593 84.8479C77.4377 84.8479 89.1745 73.1111 89.1745 58.6327C89.1745 44.1543 77.4377 32.4175 62.9593 32.4175ZM62.9593 82.3263C49.8945 82.3263 39.2657 71.6975 39.2657 58.6327C39.2657 45.5679 49.8945 34.9391 62.9593 34.9391C76.0241 34.9391 86.6529 45.5679 86.6529 58.6327C86.6529 71.6975 76.0241 82.3263 62.9593 82.3263Z" fill="black"/>
<path opacity="0.1" d="M86.0918 327.588H97.8598L91.9758 317.397L86.0918 327.588Z" fill="black"/>
<path opacity="0.1" d="M62.9961 327.588H74.7641L68.8801 317.397L62.9961 327.588Z" fill="black"/>
<path opacity="0.1" d="M80.4288 304.1C67.8048 304.1 57.5352 314.37 57.5352 326.994C57.5352 339.618 67.8048 349.887 80.4288 349.887C93.0528 349.887 103.322 339.618 103.322 326.994C103.322 314.37 93.052 304.1 80.4288 304.1ZM96.6208 330.722H87.3304C85.3416 330.722 84.0984 328.569 85.0928 326.847L91.8144 315.205H82.0128V337.478H85.648V339.377H90.7096V342.044H70.7792V339.377H75.208V337.478H79.8424V315.205H69.0424L75.764 326.847C76.7584 328.569 75.5152 330.722 73.5264 330.722H64.236C62.2472 330.722 61.004 328.569 61.9984 326.847L68.72 315.205H68.448C67.8488 315.205 67.3632 314.719 67.3632 314.119C67.3632 313.519 67.8488 313.034 68.448 313.034H79.8424V313.028C79.8424 312.429 80.328 311.943 80.9272 311.943C81.5264 311.943 82.012 312.429 82.012 313.028V313.034H93.4064C94.0056 313.034 94.4912 313.519 94.4912 314.119C94.4912 314.719 94.0056 315.205 93.4064 315.205H92.1352L98.8568 326.847C99.8528 328.569 98.6096 330.722 96.6208 330.722Z" fill="black"/>
<path opacity="0.1" d="M80.4281 300.778C65.9497 300.778 54.2129 312.515 54.2129 326.994C54.2129 341.472 65.9497 353.209 80.4281 353.209C94.9065 353.209 106.643 341.472 106.643 326.994C106.642 312.515 94.9057 300.778 80.4281 300.778ZM80.4281 350.687C67.3633 350.687 56.7345 340.058 56.7345 326.994C56.7345 313.929 67.3633 303.3 80.4281 303.3C93.4929 303.3 104.122 313.929 104.122 326.994C104.122 340.058 93.4929 350.687 80.4281 350.687Z" fill="black"/>
<path d="M196.799 391.2C288.258 391.2 362.399 388.335 362.399 384.8C362.399 381.265 288.258 378.4 196.799 378.4C105.341 378.4 31.1992 381.265 31.1992 384.8C31.1992 388.335 105.341 391.2 196.799 391.2Z" fill="#263238"/>
<path d="M313.982 222.933C318.709 223.814 323.869 220.786 326.818 215.915C329.029 212.258 329.81 208.644 330.713 204.51C331.696 199.978 366.829 36.6519 367.183 35.0327H189.25L153.026 203.361L151.552 210.154C151.248 211.557 150.706 212.901 149.961 214.13L148.884 215.915C146.528 219.804 142.575 221.704 138.636 221.704C134.191 221.704 129.76 219.29 127.664 214.606C124.513 207.574 117.705 203.483 110.615 203.36C110.507 203.353 110.391 203.353 110.275 203.353C110.167 203.353 110.058 203.353 109.949 203.36C106.596 203.41 103.192 204.365 100.112 206.316C95.942 208.962 92.9644 213.124 91.8076 217.923L77.0996 278.923H255.033L268.534 222.932" fill="white"/>
<path d="M313.982 222.933C318.709 223.814 323.869 220.786 326.818 215.915C329.029 212.258 329.81 208.644 330.713 204.51C331.696 199.978 366.829 36.6519 367.183 35.0327H189.25L153.026 203.361L151.552 210.154C151.248 211.557 150.706 212.901 149.961 214.13L148.884 215.915C146.528 219.804 142.575 221.704 138.636 221.704C134.191 221.704 129.76 219.29 127.664 214.606C124.513 207.574 117.705 203.483 110.615 203.36C110.507 203.353 110.391 203.353 110.275 203.353C110.167 203.353 110.058 203.353 109.949 203.36C106.596 203.41 103.192 204.365 100.112 206.316C95.942 208.962 92.9644 213.124 91.8076 217.923L77.0996 278.923H255.033L268.534 222.932" stroke="#263238" stroke-miterlimit="10" stroke-linecap="round" stroke-linejoin="round"/>
<path d="M245.56 54.0318L245.301 55.3782H243.719L243.995 53.9462C244.255 52.6006 243.877 51.7878 242.659 51.7878C241.462 51.7878 240.75 52.5998 240.491 53.9462L238.967 61.8534C238.707 63.1998 239.107 64.0118 240.303 64.0118C241.521 64.0118 242.212 63.1998 242.471 61.8534L242.847 59.9086H244.428L244.07 61.7678C243.633 64.0326 242.276 65.5286 239.968 65.5286C237.681 65.5286 236.902 64.0326 237.339 61.7678L238.83 54.0318C239.267 51.767 240.623 50.271 242.909 50.271C245.216 50.2702 245.996 51.767 245.56 54.0318Z" fill="#263238"/>
<path d="M246.95 54.0318C247.391 51.7454 248.808 50.271 251.093 50.271C253.401 50.271 254.251 51.7462 253.81 54.0318L252.319 61.7678C251.883 64.0326 250.46 65.5286 248.152 65.5286C245.866 65.5286 245.022 64.0326 245.459 61.7678L246.95 54.0318ZM247.087 61.8534C246.823 63.2206 247.248 64.0118 248.445 64.0118C249.663 64.0118 250.371 63.2214 250.635 61.8534L252.159 53.9462C252.418 52.6006 252.019 51.7878 250.801 51.7878C249.604 51.7878 248.871 52.5998 248.611 53.9462L247.087 61.8534Z" fill="#263238"/>
<path d="M254.68 65.3788H253.184L256.067 50.4204H258.184L259.561 61.2332L261.646 50.4204H263.12L260.236 65.3788H258.505L257.012 53.2836L254.68 65.3788Z" fill="#263238"/>
<path d="M264.103 65.3791L266.694 51.9375H263.938L264.23 50.4199H271.389L271.097 51.9375H268.34L265.749 65.3791H264.103Z" fill="#263238"/>
<path d="M275.858 50.4204C278.208 50.4204 278.961 51.6172 278.533 53.8396L278.298 55.058C277.981 56.7036 277.206 57.7292 275.845 58.1348C277.135 58.5404 277.433 59.6516 277.124 61.2548L276.675 63.5844C276.547 64.2468 276.449 64.8668 276.627 65.3796H274.939C274.83 64.9516 274.818 64.5676 275.011 63.5636L275.464 61.2132C275.79 59.5244 275.102 58.9908 273.712 58.9908H272.537L271.306 65.3804H269.639L272.522 50.422H275.858V50.4204ZM274.071 57.4724C275.396 57.4724 276.269 57.0452 276.583 55.4204L276.859 53.9892C277.118 52.6428 276.763 51.938 275.523 51.938H273.899L272.832 57.4724H274.071Z" fill="#263238"/>
<path d="M280.33 62.366L279.172 65.3788H277.633L283.381 50.4204H285.795L285.775 65.3788H284.108L284.112 62.366H280.33ZM280.819 60.934H284.153L284.13 52.3004L280.819 60.934Z" fill="#263238"/>
<path d="M295.848 54.0318L295.589 55.3782H294.007L294.283 53.9462C294.543 52.6006 294.165 51.7878 292.947 51.7878C291.75 51.7878 291.038 52.5998 290.779 53.9462L289.255 61.8534C288.995 63.1998 289.395 64.0118 290.591 64.0118C291.809 64.0118 292.5 63.1998 292.759 61.8534L293.134 59.9086H294.715L294.357 61.7678C293.92 64.0326 292.563 65.5286 290.255 65.5286C287.968 65.5286 287.189 64.0326 287.626 61.7678L289.117 54.0318C289.553 51.767 290.91 50.271 293.196 50.271C295.504 50.2702 296.284 51.767 295.848 54.0318Z" fill="#263238"/>
<path d="M297.337 65.3791L299.929 51.9375H297.172L297.464 50.4199H304.624L304.331 51.9375H301.574L298.983 65.3791H297.337Z" fill="#263238"/>
<path d="M193.834 72.6846H350.784" stroke="#263238" stroke-miterlimit="10"/>
<path d="M309.035 90.0806H345.76" stroke="#263238" stroke-miterlimit="10"/>
<path d="M251.436 90.0806H305.169" stroke="#263238" stroke-miterlimit="10"/>
<path d="M215.484 90.0806H248.344" stroke="#263238" stroke-miterlimit="10"/>
<path d="M188.811 90.0806H212.392" stroke="#263238" stroke-miterlimit="10"/>
<path d="M304.396 98.9717H343.828" stroke="#263238" stroke-miterlimit="10"/>
<path d="M215.098 98.9717H300.53" stroke="#263238" stroke-miterlimit="10"/>
<path d="M186.877 98.9717H211.618" stroke="#263238" stroke-miterlimit="10"/>
<path d="M296.279 107.863H341.895" stroke="#263238" stroke-miterlimit="10"/>
<path d="M227.854 107.863H293.185" stroke="#263238" stroke-miterlimit="10"/>
<path d="M184.945 107.863H224.763" stroke="#263238" stroke-miterlimit="10"/>
<path d="M311.354 116.754H339.961" stroke="#263238" stroke-miterlimit="10"/>
<path d="M267.672 116.754H307.489" stroke="#263238" stroke-miterlimit="10"/>
<path d="M225.535 116.754H263.806" stroke="#263238" stroke-miterlimit="10"/>
<path d="M193.836 116.754H222.056" stroke="#263238" stroke-miterlimit="10"/>
<path d="M183.012 116.754H190.357" stroke="#263238" stroke-miterlimit="10"/>
<path d="M331.457 125.646H338.028" stroke="#263238" stroke-miterlimit="10"/>
<path d="M266.125 125.646H326.431" stroke="#263238" stroke-miterlimit="10"/>
<path d="M220.123 125.646H262.26" stroke="#263238" stroke-miterlimit="10"/>
<path d="M181.08 125.646H215.872" stroke="#263238" stroke-miterlimit="10"/>
<path d="M322.951 134.537H336.094" stroke="#263238" stroke-miterlimit="10"/>
<path d="M284.682 134.537H319.474" stroke="#263238" stroke-miterlimit="10"/>
<path d="M273.084 134.537H280.815" stroke="#263238" stroke-miterlimit="10"/>
<path d="M217.416 134.537H271.15" stroke="#263238" stroke-miterlimit="10"/>
<path d="M179.146 134.537H214.325" stroke="#263238" stroke-miterlimit="10"/>
<path d="M177.213 143.428H334.162" stroke="#263238" stroke-miterlimit="10"/>
<path d="M324.111 152.319H332.229" stroke="#263238" stroke-miterlimit="10"/>
<path d="M288.547 152.319H319.086" stroke="#263238" stroke-miterlimit="10"/>
<path d="M237.52 152.319H283.136" stroke="#263238" stroke-miterlimit="10"/>
<path d="M226.309 152.319H234.041" stroke="#263238" stroke-miterlimit="10"/>
<path d="M190.744 152.319H222.057" stroke="#263238" stroke-miterlimit="10"/>
<path d="M175.281 152.319H186.105" stroke="#263238" stroke-miterlimit="10"/>
<path d="M290.867 161.21H330.298" stroke="#263238" stroke-miterlimit="10"/>
<path d="M249.115 161.21H285.84" stroke="#263238" stroke-miterlimit="10"/>
<path d="M217.031 161.21H245.251" stroke="#263238" stroke-miterlimit="10"/>
<path d="M173.348 161.21H213.164" stroke="#263238" stroke-miterlimit="10"/>
<path d="M315.994 170.102H328.365" stroke="#263238" stroke-miterlimit="10"/>
<path d="M275.018 170.102H311.742" stroke="#263238" stroke-miterlimit="10"/>
<path d="M248.73 170.102H272.311" stroke="#263238" stroke-miterlimit="10"/>
<path d="M227.469 170.102H244.865" stroke="#263238" stroke-miterlimit="10"/>
<path d="M207.367 170.102H224.376" stroke="#263238" stroke-miterlimit="10"/>
<path d="M181.852 170.102H203.113" stroke="#263238" stroke-miterlimit="10"/>
<path d="M171.414 170.102H178.372" stroke="#263238" stroke-miterlimit="10"/>
<path d="M305.557 178.993H326.432" stroke="#263238" stroke-miterlimit="10"/>
<path d="M268.832 178.993H300.918" stroke="#263238" stroke-miterlimit="10"/>
<path d="M234.426 178.993H264.192" stroke="#263238" stroke-miterlimit="10"/>
<path d="M194.223 178.993H229.787" stroke="#263238" stroke-miterlimit="10"/>
<path d="M169.482 178.993H190.358" stroke="#263238" stroke-miterlimit="10"/>
<path d="M304.396 187.884H324.499" stroke="#263238" stroke-miterlimit="10"/>
<path d="M269.605 187.884H300.531" stroke="#263238" stroke-miterlimit="10"/>
<path d="M233.654 187.884H264.194" stroke="#263238" stroke-miterlimit="10"/>
<path d="M208.912 187.884H230.174" stroke="#263238" stroke-miterlimit="10"/>
<path d="M183.398 187.884H205.046" stroke="#263238" stroke-miterlimit="10"/>
<path d="M167.549 187.884H181.079" stroke="#263238" stroke-miterlimit="10"/>
<path d="M310.969 196.775H322.566" stroke="#263238" stroke-miterlimit="10"/>
<path d="M271.537 196.775H307.102" stroke="#263238" stroke-miterlimit="10"/>
<path d="M240.225 196.775H266.898" stroke="#263238" stroke-miterlimit="10"/>
<path d="M219.736 196.775H235.972" stroke="#263238" stroke-miterlimit="10"/>
<path d="M186.877 196.775H213.938" stroke="#263238" stroke-miterlimit="10"/>
<path d="M165.615 196.775H184.171" stroke="#263238" stroke-miterlimit="10"/>
<path d="M286.648 203.361V203.418C283.699 203.664 280.75 204.604 278.047 206.317C275.958 207.639 274.174 209.345 272.764 211.311C271.354 213.284 270.321 215.525 269.743 217.924L255.035 278.924H77.1016L91.8096 217.924C92.9664 213.125 95.944 208.962 100.114 206.317C103.194 204.366 106.598 203.411 109.951 203.361H286.648Z" fill="white" stroke="#263238" stroke-miterlimit="10" stroke-linecap="round" stroke-linejoin="round"/>
<path d="M313.982 222.933H268.535L269.742 217.924C270.321 215.525 271.354 213.284 272.763 211.311C274.173 209.346 275.958 207.64 278.046 206.317C280.75 204.604 283.698 203.664 286.647 203.418C287.167 203.375 287.688 203.354 288.208 203.354C295.421 203.354 302.807 207.293 305.598 214.606C307.571 219.774 310.664 222.311 313.982 222.933Z" fill="#263238" stroke="#263238" stroke-miterlimit="10" stroke-linecap="round" stroke-linejoin="round"/>
<path d="M258.334 217.723C258.334 218.309 256.891 218.754 256.784 219.315C256.676 219.884 257.855 220.823 257.647 221.362C257.439 221.898 255.931 221.802 255.631 222.302C255.336 222.791 256.137 224.07 255.763 224.52C255.398 224.957 253.99 224.406 253.555 224.798C253.134 225.18 253.551 226.633 253.07 226.968C252.603 227.294 251.379 226.406 250.862 226.682C250.36 226.952 250.431 228.462 249.887 228.682C249.359 228.896 248.355 227.765 247.792 227.929C247.245 228.088 247.007 229.582 246.431 229.69C245.871 229.795 245.105 228.49 244.522 228.544C243.954 228.596 243.44 230.02 242.854 230.02C242.268 230.02 241.754 228.596 241.187 228.544C240.603 228.49 239.838 229.795 239.277 229.69C238.702 229.582 238.463 228.088 237.916 227.929C237.354 227.766 236.349 228.897 235.821 228.682C235.278 228.462 235.348 226.951 234.847 226.682C234.33 226.405 233.105 227.293 232.639 226.967C232.157 226.631 232.575 225.178 232.152 224.797C231.718 224.403 230.309 224.954 229.944 224.518C229.569 224.069 230.371 222.79 230.076 222.3C229.776 221.801 228.268 221.896 228.06 221.361C227.851 220.822 229.031 219.883 228.923 219.314C228.816 218.753 227.373 218.308 227.373 217.723C227.373 217.138 228.815 216.693 228.923 216.131C229.031 215.562 227.851 214.623 228.06 214.084C228.268 213.549 229.776 213.644 230.076 213.145C230.371 212.655 229.57 211.375 229.945 210.926C230.31 210.49 231.718 211.041 232.152 210.648C232.574 210.266 232.157 208.814 232.638 208.478C233.104 208.153 234.329 209.041 234.846 208.764C235.347 208.494 235.277 206.984 235.82 206.764C236.348 206.55 237.352 207.682 237.915 207.518C238.463 207.358 238.701 205.864 239.276 205.756C239.837 205.651 240.603 206.956 241.186 206.902C241.754 206.85 242.268 205.427 242.854 205.427C243.439 205.427 243.954 206.85 244.521 206.902C245.104 206.956 245.87 205.651 246.431 205.756C247.007 205.864 247.244 207.358 247.791 207.518C248.354 207.681 249.359 206.55 249.887 206.764C250.43 206.984 250.359 208.495 250.861 208.764C251.378 209.042 252.603 208.154 253.069 208.479C253.551 208.815 253.134 210.268 253.555 210.65C253.99 211.043 255.399 210.492 255.763 210.929C256.139 211.378 255.337 212.657 255.631 213.146C255.931 213.646 257.439 213.55 257.647 214.086C257.856 214.624 256.677 215.563 256.785 216.132C256.891 216.694 258.334 217.138 258.334 217.723Z" fill="#A154F2"/>
<path d="M242.855 226.942C249.344 226.942 254.605 222.815 254.605 217.723C254.605 212.631 249.344 208.504 242.855 208.504C236.366 208.504 231.105 212.631 231.105 217.723C231.105 222.815 236.366 226.942 242.855 226.942Z" fill="white"/>
<path d="M242.855 225.186C248.108 225.186 252.366 221.845 252.366 217.723C252.366 213.602 248.108 210.261 242.855 210.261C237.602 210.261 233.344 213.602 233.344 217.723C233.344 221.845 237.602 225.186 242.855 225.186Z" fill="#A154F2"/>
<path d="M249.55 262.632H172.289" stroke="#263238" stroke-miterlimit="10" stroke-linecap="round" stroke-linejoin="round"/>
<path d="M147.716 262.632H92.3516" stroke="#263238" stroke-miterlimit="10" stroke-linecap="round" stroke-linejoin="round"/>
<path d="M189.051 260.997C189.051 260.997 203.636 244.849 207.79 229.009C211.943 213.169 201.724 221.753 197.636 239.331C193.548 256.909 193.548 261.406 197.636 258.135C200.818 255.589 204 251.557 206.026 248.352C206.602 247.441 207.084 246.596 207.447 245.872C209.082 242.602 203.768 244.646 202.541 251.187C201.315 257.727 208.673 248.325 210.717 245.055C212.761 241.784 216.849 240.149 213.579 248.734C210.308 257.319 205.403 255.683 209.9 249.96C214.396 244.237 219.302 232.383 219.711 238.923C220.12 245.463 218.484 252.822 215.214 254.865C211.944 256.908 221.346 245.463 224.208 246.28C227.069 247.098 228.296 250.368 225.434 252.821C222.572 255.274 222.572 247.098 244.238 247.915" stroke="#263238" stroke-miterlimit="10" stroke-linecap="round" stroke-linejoin="round"/>
<path d="M240.686 238.441L252.673 248.069C253.299 248.572 252.796 249.574 252.018 249.372L236.832 245.427L240.686 238.441Z" fill="white" stroke="#263238" stroke-miterlimit="10" stroke-linecap="round" stroke-linejoin="round"/>
<path d="M238.743 234.701L168.629 193.189L160.789 206.517L233.382 245.842C233.564 245.96 233.755 246.069 233.959 246.155C236.369 247.161 239.394 245.413 240.715 242.25C242.035 239.087 241.152 235.707 238.743 234.701Z" fill="#8C8C8C" stroke="#263238" stroke-miterlimit="10" stroke-linecap="round" stroke-linejoin="round"/>
<path d="M170.479 201.696C168.433 206.603 163.743 209.314 160.006 207.753C159.644 207.601 159.305 207.406 158.987 207.189L87.1237 167.142L81.2621 163.874L80.5469 163.477L80.7277 163.043L88.9669 143.312L89.3213 142.474L90.2685 143.045L98.4789 148.046L167.422 189.987C171.158 191.549 172.532 196.789 170.479 201.696Z" fill="white" stroke="#263238" stroke-miterlimit="10" stroke-linecap="round" stroke-linejoin="round"/>
<path d="M166.736 189.57L98.4789 148.046L90.2685 143.045L89.3213 142.474L88.9669 143.312L80.7277 163.043L80.5469 163.477L81.2621 163.874L87.1237 167.142L157.34 206.271C161.076 207.381 165.528 204.631 167.528 199.835C169.127 196.011 168.703 191.995 166.736 189.57Z" fill="#8C8C8C" stroke="#263238" stroke-miterlimit="10" stroke-linecap="round" stroke-linejoin="round"/>
<path d="M87.1257 167.142C91.3825 167.323 95.9433 164.005 98.1473 158.729C99.7225 154.956 99.7449 151.039 98.4801 148.047L90.2697 143.045C89.8361 143.103 89.4025 143.19 88.9689 143.312C85.5865 144.267 82.3561 147.215 80.6065 151.399C78.8577 155.591 79.0313 159.964 80.7297 163.043C80.8961 163.331 81.0697 163.614 81.2649 163.874" fill="white"/>
<path d="M87.1257 167.142C91.3825 167.323 95.9433 164.005 98.1473 158.729C99.7225 154.956 99.7449 151.039 98.4801 148.047L90.2697 143.045C89.8361 143.103 89.4025 143.19 88.9689 143.312C85.5865 144.267 82.3561 147.215 80.6065 151.399C78.8577 155.591 79.0313 159.964 80.7297 163.043C80.8961 163.331 81.0697 163.614 81.2649 163.874" stroke="#263238" stroke-miterlimit="10" stroke-linecap="round" stroke-linejoin="round"/>
<path d="M93.5176 155.055L146.83 189.752C147.51 190.194 147.742 191.082 147.366 191.802C146.949 192.602 145.946 192.888 145.168 192.429L90.332 160.01L93.5176 155.055Z" fill="white" stroke="#263238" stroke-miterlimit="10" stroke-linecap="round" stroke-linejoin="round"/>
<path d="M92.9376 156.318C90.5152 162.119 84.968 165.325 80.548 163.479C76.128 161.634 74.5089 155.435 76.9321 149.633C79.3545 143.831 84.9017 140.625 89.3217 142.471C93.7417 144.318 95.3608 150.517 92.9376 156.318Z" fill="#8C8C8C" stroke="#263238" stroke-miterlimit="10" stroke-linecap="round" stroke-linejoin="round"/>
<path d="M91.2121 155.597C89.3121 160.147 84.9609 162.663 81.4937 161.215C78.0265 159.767 66.1145 148.347 68.0145 143.797C69.9145 139.247 84.9081 143.289 88.3753 144.736C91.8425 146.184 93.1129 151.047 91.2121 155.597Z" fill="white" stroke="#263238" stroke-miterlimit="10" stroke-linecap="round" stroke-linejoin="round"/>
<path d="M203.466 231.026L207.788 229.009C207.788 229.009 209.229 228.865 210.526 229.874C211.823 230.883 214.271 232.467 214.271 232.467C214.271 232.467 219.17 232.755 219.314 233.476C219.458 234.196 216.432 235.061 216 235.061C215.568 235.061 212.831 235.061 212.831 235.061C212.831 235.061 217.297 237.367 217.729 237.655C218.161 237.943 224.357 239.815 223.492 240.392C222.627 240.969 216.864 240.824 215.568 241.112C214.271 241.4 211.678 241.4 211.678 241.4L206.779 236.934L203.322 233.188C203.322 233.188 202.169 231.891 203.466 231.026Z" fill="white" stroke="#263238" stroke-miterlimit="10" stroke-linecap="round" stroke-linejoin="round"/>
<path d="M94.8312 179.302C94.8312 179.302 94.5432 175.412 94.5432 173.539C94.5432 171.666 93.5344 168.064 93.1024 167.776C92.6704 167.488 88.204 165.759 86.9072 164.606C85.6104 163.454 84.0256 165.038 84.6016 166.047C85.1776 167.056 88.492 168.929 88.492 168.929L87.628 170.226L84.4584 167.488C84.4584 167.488 81.1448 162.301 80.28 162.734C79.4152 163.166 79.704 163.886 80.28 164.895C80.856 165.904 80.568 172.387 82.1528 173.684C83.7376 174.981 88.492 176.566 88.492 176.566L88.924 180.167C88.924 180.167 93.3904 180.455 93.9664 180.599C94.5432 180.742 94.8312 179.302 94.8312 179.302Z" fill="white" stroke="#263238" stroke-miterlimit="10" stroke-linecap="round" stroke-linejoin="round"/>
<path d="M85.3223 184.777L85.8983 180.887C85.8983 180.887 85.7543 179.59 89.0679 179.014C92.3815 178.438 94.8311 179.302 94.8311 179.302C94.8311 179.302 95.4071 179.446 95.5519 180.311C95.6959 181.176 95.1199 184.489 95.1199 184.489C95.1199 184.489 89.9327 182.472 85.3223 184.777Z" fill="white" stroke="#263238" stroke-miterlimit="10" stroke-linecap="round" stroke-linejoin="round"/>
<path d="M143.115 376.003V386.363C143.115 386.363 145.524 387.568 152.511 387.568C159.498 387.568 167.448 385.399 170.821 383.954C174.194 382.508 175.398 379.376 174.194 378.895C172.989 378.413 166.966 378.172 165.762 377.208C164.557 376.244 159.498 373.112 159.498 373.112C159.498 373.112 147.452 376.727 143.115 376.003Z" fill="#A154F2" stroke="#263238" stroke-miterlimit="10" stroke-linecap="round" stroke-linejoin="round"/>
<path d="M174.635 379.848C171.462 381.354 165.798 383.595 158.651 384.518C150.329 385.591 145.203 384.672 143.115 384.127V386.363C143.115 386.363 145.524 387.568 152.511 387.568C159.498 387.568 167.448 385.4 170.821 383.955C173.237 382.918 174.534 381.02 174.635 379.848Z" fill="white" stroke="#263238" stroke-miterlimit="10" stroke-linecap="round" stroke-linejoin="round"/>
<path d="M146.728 276.506L147.933 279.879C147.933 279.879 152.992 289.515 156.606 296.502C160.219 303.488 164.074 318.425 165.279 319.871C166.483 321.316 166.243 323.243 165.519 325.411C164.796 327.579 159.015 365.403 159.015 366.367C159.015 367.331 158.533 367.331 159.255 368.535C159.978 369.74 160.219 373.595 160.219 373.595C160.219 373.595 158.292 375.763 154.438 376.486C150.583 377.209 143.115 377.209 143.115 377.209C143.115 377.209 142.151 372.631 142.391 371.909C142.632 371.186 143.355 366.609 143.355 366.609C143.355 366.609 145.765 354.804 145.283 348.781C144.801 342.758 146.005 329.267 146.487 327.821C146.969 326.375 146.969 323.003 146.969 323.003L145.523 320.352V318.425C145.523 318.425 133.959 306.62 129.382 302.043C124.804 297.465 120.227 291.924 120.227 291.924C120.227 291.924 114.927 315.534 113.482 320.593C112.036 325.652 111.314 327.82 110.35 329.266C109.386 330.711 99.5081 343.721 95.8945 349.021C92.2809 354.321 86.7401 363.717 86.7401 363.717C86.7401 363.717 86.7401 366.849 86.9809 367.813C87.2217 368.777 84.5721 372.391 84.5721 372.391L83.6081 373.355C83.6081 373.355 77.8257 367.572 75.6577 367.091C73.4897 366.609 68.9121 367.331 68.9121 367.331C68.9121 367.331 71.8033 359.381 72.5257 357.695C73.2489 356.008 79.9945 338.903 81.9217 335.531C83.8489 332.158 85.2945 325.412 88.6673 322.762C92.0401 320.111 95.8945 316.98 95.8945 316.98L95.4129 289.998L94.9313 282.529C94.9313 282.529 94.2089 279.879 94.2089 276.747C94.2089 273.615 94.2089 271.928 94.2089 271.928C94.2089 271.928 116.132 276.987 126.974 276.506C137.815 276.024 144.32 273.133 144.32 273.133L146.728 276.506Z" fill="#263238" stroke="#263238" stroke-miterlimit="10" stroke-linecap="round" stroke-linejoin="round"/>
<path d="M152.751 201.202C152.751 201.202 140.216 195.726 133.588 195.726C126.961 195.726 123.359 195.87 116.3 196.158C109.24 196.446 105.061 198.608 105.061 198.608L94.6876 202.066L95.5524 183.191C95.5524 183.191 92.0948 182.182 89.0692 182.759C86.0436 183.335 84.3148 185.353 84.3148 185.353C84.3148 185.353 80.4244 210.998 80.5684 213.304C80.7124 215.61 83.738 216.042 83.738 216.042L107.223 215.61L105.494 241.832L87.9164 272.376C87.9164 272.376 88.0604 277.13 102.468 281.885C116.876 286.639 134.597 285.054 140.072 283.614C145.548 282.173 154.308 275.695 155.028 274.686C155.748 273.678 155.056 268.486 155.056 266.325C155.056 264.164 151.455 243.705 152.031 242.696C152.607 241.687 155.777 228.144 155.777 228.144C155.777 228.144 185.024 247.162 186.754 246.874C188.483 246.586 206.06 237.942 206.492 237.654C206.924 237.366 208.077 235.781 206.348 233.187C204.62 230.594 201.594 230.162 200.729 230.162C199.864 230.162 188.051 231.17 188.051 231.17C188.051 231.17 173.211 218.059 172.779 217.339C172.347 216.618 170.041 210.567 169.033 208.982C168.023 207.397 152.751 201.202 152.751 201.202Z" fill="#A154F2" stroke="#263238" stroke-miterlimit="10" stroke-linecap="round" stroke-linejoin="round"/>
<path d="M188.051 231.169C188.051 231.169 192.781 233.866 193.725 235.517L188.051 231.169Z" fill="#A154F2"/>
<path d="M188.051 231.169C188.051 231.169 192.781 233.866 193.725 235.517" stroke="#263238" stroke-miterlimit="10" stroke-linecap="round" stroke-linejoin="round"/>
<path d="M169.032 208.981C169.032 208.981 164.707 209.331 160.225 214.049L169.032 208.981Z" fill="#A154F2"/>
<path d="M169.032 208.981C169.032 208.981 164.707 209.331 160.225 214.049" stroke="#263238" stroke-miterlimit="10" stroke-linecap="round" stroke-linejoin="round"/>
<path d="M159.281 210.983C159.281 210.983 155.27 212.871 154.326 218.061L159.281 210.983Z" fill="#A154F2"/>
<path d="M159.281 210.983C159.281 210.983 155.27 212.871 154.326 218.061" stroke="#263238" stroke-miterlimit="10" stroke-linecap="round" stroke-linejoin="round"/>
<path d="M107.222 215.609L106.789 204.804L107.222 215.609Z" stroke="#263238" stroke-miterlimit="10" stroke-linecap="round" stroke-linejoin="round"/>
<path d="M148.954 232.778L155.777 228.144L144.684 231.602" stroke="#263238" stroke-miterlimit="10" stroke-linecap="round" stroke-linejoin="round"/>
<path d="M144.105 236.068L146.461 234.469" stroke="#263238" stroke-miterlimit="10" stroke-linecap="round" stroke-linejoin="round"/>
<path d="M143.429 202.838C141.166 203.67 138.535 204.998 136.182 207.11C130.563 212.152 127.537 211.72 127.537 211.72" stroke="#263238" stroke-miterlimit="10" stroke-linecap="round" stroke-linejoin="round"/>
<path d="M149.006 201.489C149.006 201.489 148.008 201.569 146.467 201.929" stroke="#263238" stroke-miterlimit="10" stroke-linecap="round" stroke-linejoin="round"/>
<path d="M135.317 205.092C135.317 205.092 130.707 209.414 125.809 211.431" stroke="#263238" stroke-miterlimit="10" stroke-linecap="round" stroke-linejoin="round"/>
<path d="M84.5799 204.673C84.0407 205.415 83.6935 206.137 83.7383 206.676" stroke="#263238" stroke-miterlimit="10" stroke-linecap="round" stroke-linejoin="round"/>
<path d="M94.6867 202.066L92.6699 202.21C92.6699 202.21 90.0763 201.057 88.7795 201.201C88.2611 201.259 87.3283 201.869 86.4043 202.692" stroke="#263238" stroke-miterlimit="10" stroke-linecap="round" stroke-linejoin="round"/>
<path d="M85.8986 201.489C85.8986 201.489 83.305 202.498 82.873 204.803" stroke="#263238" stroke-miterlimit="10" stroke-linecap="round" stroke-linejoin="round"/>
<path d="M152.03 242.696C152.03 242.696 149.993 256.533 149.077 260.804C148.162 265.075 146.941 275.601 146.941 275.601C146.941 275.601 149.229 274.686 151.67 274.381C154.111 274.076 155.026 274.685 155.026 274.685C155.026 274.685 156.857 270.261 155.026 262.634C153.197 255.007 152.03 242.696 152.03 242.696Z" fill="#A154F2" stroke="#263238" stroke-miterlimit="10" stroke-linecap="round" stroke-linejoin="round"/>
<path d="M83.6088 373.354C83.6088 373.354 84.5728 377.931 85.536 378.413C86.5 378.894 91.0768 379.858 91.5592 381.063C92.0408 382.268 87.2224 384.436 84.0904 384.918C80.9584 385.399 75.4176 384.195 74.6944 383.713C73.972 383.231 72.2856 380.822 70.1168 380.099C67.9488 379.377 65.2984 378.413 65.78 375.522C66.2616 372.63 68.912 367.33 68.912 367.33C68.912 367.33 73.4896 365.644 78.7896 367.571C84.0912 369.499 83.6088 373.354 83.6088 373.354Z" fill="#A154F2" stroke="#263238" stroke-miterlimit="10" stroke-linecap="round" stroke-linejoin="round"/>
<path d="M84.0915 384.918C87.2235 384.436 92.0419 382.267 91.5603 381.063C91.5203 380.964 91.4443 380.867 91.3539 380.771C89.0091 381.57 86.1275 382.01 83.4843 380.542C80.2315 378.735 79.1475 374.76 74.8107 373.314C72.2867 372.473 68.9139 372.612 66.5283 372.874C66.1883 373.83 65.9091 374.76 65.7819 375.522C65.3003 378.413 67.9499 379.376 70.1187 380.099C72.2867 380.822 73.9731 383.231 74.6963 383.713C75.4179 384.194 80.9595 385.399 84.0915 384.918Z" fill="white" stroke="#263238" stroke-miterlimit="10" stroke-linecap="round" stroke-linejoin="round"/>
<path d="M82.6461 383.231C79.9965 382.027 77.5869 378.895 73.7325 376.486C70.2069 374.283 66.4901 376.708 65.8789 377.139C66.4301 378.815 68.4189 379.533 70.1181 380.1C72.2861 380.823 73.9725 383.232 74.6957 383.714C75.4189 384.195 80.9597 385.4 84.0917 384.919C84.6773 384.828 85.3221 384.679 85.9805 384.488C84.7621 384.1 83.5717 383.652 82.6461 383.231Z" fill="#263238" stroke="#263238" stroke-miterlimit="10" stroke-linecap="round" stroke-linejoin="round"/>
<path d="M155.201 197.312L150.879 200.338C150.879 200.338 145.26 196.592 141.37 195.871C137.48 195.151 135.463 195.007 135.463 195.007L138.488 189.676C138.488 189.676 142.09 187.227 143.387 183.337C144.684 179.447 145.98 177.862 148.862 179.303C151.744 180.743 152.896 186.507 152.896 190.108C152.896 193.71 155.201 197.312 155.201 197.312Z" fill="white" stroke="#263238" stroke-miterlimit="10" stroke-linecap="round" stroke-linejoin="round"/>
<path d="M157.651 170.802C157.651 170.802 160.101 174.403 160.389 175.7C160.677 176.997 159.38 179.59 159.38 179.59C159.38 179.59 162.262 183.769 162.406 184.778C162.55 185.786 160.677 187.659 160.677 187.659C160.677 187.659 161.109 191.838 161.686 192.846C162.262 193.854 162.839 195.295 162.118 196.592C161.398 197.889 160.389 198.753 157.363 199.186C154.338 199.618 151.888 198.177 151.312 195.151C150.736 192.126 150.736 185.642 150.303 184.778C149.871 183.913 147.854 181.896 146.846 183.481C145.837 185.066 146.558 186.65 147.278 188.091C147.998 189.532 149.295 190.108 149.295 190.108C149.295 190.108 147.566 190.973 146.125 191.693C144.684 192.413 142.091 192.702 140.074 191.981C138.057 191.261 137.048 189.387 136.904 188.955C136.76 188.523 135.319 184.921 134.887 184.201C134.455 183.481 131.43 179.158 131.286 174.115C131.142 169.073 137.193 163.31 144.973 161.725C152.753 160.14 156.355 163.598 158.084 163.742C159.813 163.886 158.084 162.301 159.525 163.31C160.965 164.318 161.253 169.937 157.651 170.802Z" fill="white" stroke="#263238" stroke-miterlimit="10" stroke-linecap="round" stroke-linejoin="round"/>
<path d="M160.677 187.658C160.677 187.658 160.835 187.498 161.054 187.252C160.471 187.328 158.72 187.566 157.65 187.803C156.353 188.091 155.777 191.982 154.625 190.973C153.472 189.964 152.896 181.464 152.608 181.031C152.32 180.599 153.617 179.158 153.617 179.158C153.617 179.158 155.633 176.421 155.633 175.268C155.633 174.115 153.617 172.818 154.337 172.53C155.057 172.242 157.65 170.802 157.65 170.802C161.252 169.937 160.964 164.318 159.523 163.31C158.082 162.301 159.811 163.886 158.082 163.742C156.353 163.598 152.752 160.14 144.971 161.725C137.191 163.31 131.14 169.073 131.284 174.115C131.428 179.158 134.453 183.48 134.885 184.201C135.317 184.922 136.758 188.523 136.902 188.955C137.046 189.387 138.055 191.261 140.072 191.981C142.089 192.701 144.682 192.413 146.123 191.693C147.564 190.973 149.293 190.108 149.293 190.108C149.293 190.108 147.996 189.532 147.276 188.091C146.556 186.65 145.835 185.066 146.844 183.481C147.853 181.896 149.869 183.913 150.301 184.778C150.733 185.642 150.733 192.126 151.31 195.151C151.886 198.177 154.336 199.618 157.361 199.186C160.387 198.754 161.396 197.889 162.116 196.592C162.837 195.295 162.26 193.854 161.684 192.846C161.109 191.837 160.677 187.658 160.677 187.658Z" fill="#263238" stroke="#263238" stroke-miterlimit="10" stroke-linecap="round" stroke-linejoin="round"/>
<path d="M159.955 176.997C159.955 176.997 158.514 176.997 158.082 178.149" stroke="#263238" stroke-miterlimit="10" stroke-linecap="round" stroke-linejoin="round"/>
<path d="M158.803 181.895C159.121 181.895 159.379 181.186 159.379 180.31C159.379 179.435 159.121 178.726 158.803 178.726C158.484 178.726 158.227 179.435 158.227 180.31C158.227 181.186 158.484 181.895 158.803 181.895Z" fill="#263238"/>
<path d="M160.965 191.261C160.965 191.261 158.516 192.126 157.508 190.396" stroke="white" stroke-miterlimit="10" stroke-linecap="round" stroke-linejoin="round"/>
<path d="M133.588 195.727C140.215 195.727 152.75 201.202 152.75 201.202C152.75 201.202 152.927 201.274 153.23 201.398C153.079 200.835 152.771 199.823 152.462 199.617C152.03 199.329 149.725 196.015 145.402 194.286C141.08 192.557 137.622 192.413 136.47 192.413C135.455 192.413 132.548 195.087 131.863 195.731C132.419 195.729 132.988 195.727 133.588 195.727Z" fill="#A154F2" stroke="#263238" stroke-miterlimit="10" stroke-linecap="round" stroke-linejoin="round"/>
</svg>
