<svg width="500" height="500" viewBox="0 0 500 500" fill="none" xmlns="http://www.w3.org/2000/svg">
<path d="M500 382.398H0V382.648H500V382.398Z" fill="#EBEBEB"/>
<path d="M449.901 391.922H359V392.172H449.901V391.922Z" fill="#EBEBEB"/>
<path d="M331.219 389.208H306.332V389.458H331.219V389.208Z" fill="#EBEBEB"/>
<path d="M388.11 401.208H349.523V401.458H388.11V401.208Z" fill="#EBEBEB"/>
<path d="M75.097 399.528H52.459V399.778H75.097V399.528Z" fill="#EBEBEB"/>
<path d="M110.889 399.528H84V399.778H110.889V399.528Z" fill="#EBEBEB"/>
<path d="M225.147 395.306H178.309V395.556H225.147V395.306Z" fill="#EBEBEB"/>
<path d="M237.014 337.8H43.915C40.768 337.8 38.207 335.239 38.207 332.092V60.6599C38.207 57.5129 40.768 54.9519 43.915 54.9519H237.014C240.16 54.9519 242.721 57.5129 242.721 60.6599V332.092C242.721 335.239 240.16 337.8 237.014 337.8ZM43.915 55.2029C40.905 55.2029 38.457 57.6509 38.457 60.6609V332.093C38.457 335.103 40.905 337.551 43.915 337.551H237.014C240.023 337.551 242.471 335.103 242.471 332.093V60.6599C242.471 57.6509 240.023 55.2019 237.014 55.2019L43.915 55.2029Z" fill="#EBEBEB"/>
<path d="M453.311 337.8H260.213C257.066 337.8 254.506 335.239 254.506 332.092V60.6599C254.506 57.5129 257.067 54.9519 260.213 54.9519H453.311C456.459 54.9519 459.019 57.5129 459.019 60.6599V332.092C459.02 335.239 456.459 337.8 453.311 337.8ZM260.213 55.2029C257.204 55.2029 254.756 57.6509 254.756 60.6609V332.093C254.756 335.103 257.204 337.551 260.213 337.551H453.311C456.321 337.551 458.769 335.103 458.769 332.093V60.6599C458.769 57.6509 456.321 55.2019 453.311 55.2019L260.213 55.2029Z" fill="#EBEBEB"/>
<path d="M426.205 376.712H444.951V272.692H426.205V376.712Z" fill="#F0F0F0"/>
<path d="M234.821 382.398H441.352V376.712H234.821V382.398Z" fill="#F0F0F0"/>
<path d="M426.207 272.693H231.223V376.713H426.207V272.693Z" fill="#F5F5F5"/>
<path d="M428.151 272.693H447.311V267.731H428.151V272.693Z" fill="#F0F0F0"/>
<path d="M428.15 267.731H228.863V272.693H428.15V267.731Z" fill="#FAFAFA"/>
<path d="M419.466 310.228H237.963V283.108H419.466V310.228ZM239.223 308.968H418.207V284.367H239.223V308.968Z" fill="#E0E0E0"/>
<path d="M419.466 366.298H237.963V317.752H419.466V366.298ZM239.223 365.038H418.207V319.012H239.223V365.038Z" fill="#E0E0E0"/>
<path d="M264.079 287.773H393.349C394.263 287.773 395.011 287.025 395.011 286.11V285.4C395.011 284.486 394.263 283.737 393.349 283.737H264.079C263.165 283.737 262.416 284.485 262.416 285.4V286.111C262.417 287.025 263.165 287.773 264.079 287.773Z" fill="#E0E0E0"/>
<path d="M264.079 322.418H393.349C394.263 322.418 395.011 321.67 395.011 320.756V320.045C395.011 319.131 394.263 318.383 393.349 318.383H264.079C263.165 318.383 262.416 319.131 262.416 320.045V320.756C262.417 321.67 263.165 322.418 264.079 322.418Z" fill="#E0E0E0"/>
<path d="M57.1055 382.396H64.8965L64.8965 249.999H57.1055L57.1055 382.396Z" fill="#E6E6E6"/>
<path d="M54.6476 382.396H60.0586L60.0586 249.999H54.6476L54.6476 382.396Z" fill="#F0F0F0"/>
<path d="M145.653 250H52.9707V259.573H145.653V250Z" fill="#F0F0F0"/>
<path d="M149.141 382.396H156.932L156.932 259.572H149.141L149.141 382.396Z" fill="#E6E6E6"/>
<path d="M146.683 382.396H152.094L152.094 259.572H146.683L146.683 382.396Z" fill="#F0F0F0"/>
<path d="M198.443 382.396H206.234L206.234 259.572H198.443L198.443 382.396Z" fill="#E6E6E6"/>
<path d="M195.985 382.396H201.396L201.396 259.572H195.985L195.985 382.396Z" fill="#F0F0F0"/>
<path d="M106.408 382.396H114.199L114.199 259.572H106.408L106.408 382.396Z" fill="#E6E6E6"/>
<path d="M103.948 382.396H109.359L109.359 259.572H103.948L103.948 382.396Z" fill="#F0F0F0"/>
<path d="M145.654 259.573H206.236V250H145.654V259.573Z" fill="#E6E6E6"/>
<path d="M137.801 175.971H62.9082L69.5432 118H131.167L137.801 175.971Z" fill="#EBEBEB"/>
<path d="M104.429 175.971H96.2793V250H104.429V175.971Z" fill="#F5F5F5"/>
<path d="M116.967 250H83.7422C83.7422 248.045 85.3272 246.46 87.2822 246.46H113.428C115.382 246.46 116.967 248.045 116.967 250Z" fill="#F0F0F0"/>
<path d="M104.429 182.383L96.2793 178.492V175.971H104.429V182.383Z" fill="#E0E0E0"/>
<path d="M135.395 249.794H170.56L174.908 202.023H139.743L135.395 249.794Z" fill="#E6E6E6"/>
<path d="M133.572 249.794H168.737L173.085 202.023H137.92L133.572 249.794Z" fill="#F0F0F0"/>
<path d="M163.931 244.505L167.316 207.311H142.728L139.342 244.505H163.931Z" fill="white"/>
<path d="M424.793 215.533H353.396L339.506 264.997H410.903L424.793 215.533Z" fill="#E6E6E6"/>
<path d="M410.904 264.997L410.615 267.731H339.215L339.504 264.997H410.904Z" fill="#E6E6E6"/>
<path d="M422.595 215.533H351.199L337.309 264.997H408.705L422.595 215.533Z" fill="#F0F0F0"/>
<path d="M407.902 261.775L419.388 218.927C419.552 218.317 419.245 217.794 418.723 217.794H353.085C352.62 217.794 352.15 218.213 352.004 218.756L340.517 261.604C340.353 262.214 340.66 262.737 341.182 262.737H406.821C407.286 262.737 407.757 262.319 407.902 261.775Z" fill="white"/>
<path d="M390.102 264.997L389.813 267.731H311.191L311.48 264.997H390.102Z" fill="#F0F0F0"/>
<path d="M439.578 86.4429H266.361V193.357H439.578V86.4429Z" fill="#F0F0F0"/>
<path d="M434.661 91.3589H271.277V188.439H434.661V91.3589Z" fill="white"/>
<path d="M439.579 193.356H441.354V86.4422H439.579V193.356Z" fill="#E6E6E6"/>
<path d="M250 427.561C357.082 427.561 443.889 422.492 443.889 416.238C443.889 409.985 357.082 404.915 250 404.915C142.918 404.915 56.1113 409.985 56.1113 416.238C56.1113 422.492 142.918 427.561 250 427.561Z" fill="#F5F5F5"/>
<g opacity="0.7">
<path d="M210.434 69.9531C215.079 65.7951 221.119 63.0731 228.555 61.7901C235.991 60.5041 243.835 61.3231 252.084 64.2411C260.332 67.1611 267.872 72.4331 274.699 80.0601C281.044 87.1481 285.338 94.5791 287.58 102.346C289.821 110.115 290.016 117.491 288.168 124.475C286.316 131.46 282.751 137.315 277.472 142.041C273.315 145.762 268.918 148.179 264.279 149.292C259.64 150.407 255.145 150.818 250.793 150.532C246.44 150.245 238.883 149.502 228.124 148.301C225.119 147.996 222.593 147.856 220.549 147.882C218.501 147.909 216.783 148.103 215.393 148.468C214.001 148.833 212.709 149.307 211.515 149.892C210.32 150.477 208.283 151.573 205.408 153.178C199.49 156.801 194.344 156.167 189.969 151.279C187.693 148.736 186.608 145.854 186.719 142.63C186.826 139.407 188.519 136.329 191.795 133.397C195.903 129.72 200.027 127.172 204.172 125.753C208.316 124.332 212.466 123.656 216.622 123.723C220.777 123.789 226.016 124.208 232.34 124.976C237.878 125.654 241.968 126.067 244.61 126.212C247.25 126.359 249.852 126.144 252.418 125.564C254.981 124.987 257.266 123.8 259.272 122.005C263.182 118.505 265.18 114.095 265.266 108.78C265.35 103.464 263.335 98.5081 259.222 93.9131C254.407 88.5341 249.506 85.7891 244.517 85.6761C239.529 85.5611 233.607 86.9881 226.75 89.9551C219.736 93.2391 214.152 92.5571 209.995 87.9131C207.544 85.1741 206.44 82.0001 206.689 78.3891C206.937 74.7781 208.186 71.9661 210.434 69.9531ZM162.092 177.689C159.422 174.706 158.058 171.238 157.998 167.285C157.937 163.331 159.643 159.803 163.115 156.695C166.195 153.938 169.748 152.694 173.778 152.963C177.805 153.232 181.22 154.931 184.021 158.061C186.778 161.141 188.045 164.673 187.826 168.657C187.604 172.641 185.955 176.012 182.875 178.769C179.452 181.833 175.778 183.14 171.854 182.69C167.929 182.239 164.674 180.573 162.092 177.689Z" fill="#7534FC"/>
</g>
<g opacity="0.5">
<path d="M299.845 137.053C301.07 133.946 303.308 131.192 306.561 128.79C309.813 126.388 313.765 124.895 318.416 124.311C323.067 123.727 327.944 124.44 333.046 126.452C337.787 128.322 341.628 130.848 344.568 134.028C347.508 137.209 349.373 140.694 350.166 144.482C350.957 148.272 350.658 151.932 349.265 155.463C348.169 158.244 346.644 160.458 344.69 162.105C342.737 163.753 340.683 165.031 338.53 165.939C336.377 166.847 332.58 168.307 327.14 170.318C325.628 170.894 324.385 171.434 323.412 171.937C322.438 172.442 321.662 172.948 321.084 173.456C320.505 173.965 320 174.503 319.569 175.069C319.137 175.636 318.426 176.651 317.435 178.11C315.472 181.267 312.856 182.199 309.586 180.91C307.885 180.239 306.673 179.12 305.952 177.549C305.229 175.98 305.3 174.1 306.164 171.908C307.247 169.161 308.61 166.95 310.254 165.274C311.897 163.598 313.722 162.277 315.728 161.311C317.733 160.344 320.343 159.286 323.555 158.135C326.369 157.129 328.427 156.344 329.727 155.779C331.026 155.215 332.22 154.487 333.31 153.593C334.399 152.701 335.208 151.584 335.737 150.242C336.768 147.626 336.665 145.035 335.43 142.469C334.193 139.904 332.038 138.014 328.964 136.802C325.366 135.383 322.36 135.246 319.944 136.391C317.528 137.534 315.035 139.641 312.465 142.708C309.895 145.966 307.058 146.981 303.952 145.756C302.12 145.034 300.829 143.779 300.081 141.99C299.33 140.203 299.253 138.557 299.845 137.053ZM302.584 200.253C300.589 199.466 299.102 198.133 298.124 196.255C297.145 194.376 297.114 192.277 298.029 189.955C298.841 187.895 300.244 186.445 302.238 185.606C304.231 184.767 306.274 184.76 308.367 185.586C310.427 186.398 311.883 187.785 312.735 189.746C313.586 191.707 313.606 193.717 312.794 195.778C311.891 198.067 310.446 199.576 308.459 200.304C306.472 201.03 304.513 201.014 302.584 200.253Z" fill="#7534FC"/>
</g>
<g opacity="0.1">
<path d="M367.113 131.162C366.246 129.871 365.782 128.286 365.722 126.405C365.661 124.524 366.133 122.615 367.139 120.678C368.145 118.741 369.707 117.061 371.826 115.638C373.796 114.315 375.779 113.511 377.775 113.225C379.771 112.939 381.6 113.145 383.261 113.843C384.922 114.541 386.246 115.624 387.231 117.09C388.007 118.245 388.452 119.415 388.567 120.598C388.682 121.782 388.629 122.907 388.408 123.972C388.187 125.037 387.743 126.878 387.075 129.494C386.896 130.226 386.774 130.845 386.71 131.35C386.646 131.857 386.635 132.288 386.677 132.644C386.719 133 386.792 133.336 386.895 133.651C386.998 133.966 387.199 134.507 387.496 135.273C388.187 136.86 387.853 138.109 386.495 139.021C385.788 139.496 385.039 139.664 384.247 139.526C383.455 139.389 382.753 138.864 382.141 137.954C381.374 136.813 380.887 135.706 380.68 134.633C380.472 133.56 380.448 132.512 380.608 131.488C380.768 130.464 381.052 129.185 381.46 127.649C381.818 126.305 382.061 125.309 382.188 124.661C382.315 124.014 382.352 123.364 382.297 122.71C382.243 122.057 382.029 121.452 381.654 120.894C380.924 119.808 379.904 119.162 378.594 118.957C377.284 118.753 375.99 119.08 374.714 119.937C373.219 120.941 372.372 122.057 372.172 123.285C371.972 124.513 372.12 126.025 372.616 127.821C373.185 129.667 372.824 131.022 371.534 131.889C370.773 132.4 369.951 132.563 369.068 132.377C368.184 132.192 367.533 131.786 367.113 131.162ZM392.056 146.816C391.227 147.373 390.323 147.59 389.345 147.468C388.366 147.347 387.554 146.804 386.906 145.839C386.331 144.983 386.146 144.063 386.352 143.077C386.557 142.092 387.095 141.307 387.964 140.723C388.82 140.148 389.736 139.957 390.712 140.149C391.688 140.341 392.464 140.865 393.039 141.721C393.678 142.672 393.874 143.625 393.628 144.578C393.381 145.531 392.858 146.278 392.056 146.816Z" fill="#7534FC"/>
</g>
<path d="M185.789 409.617L178.232 407.658L182.742 390.374L190.298 392.333L185.789 409.617Z" fill="#FFC3BD"/>
<path d="M178.146 405.662L186.591 408.329C186.898 408.426 187.06 408.705 186.98 408.999L185.195 415.555C185.01 416.235 184.144 416.66 183.44 416.425C180.516 415.448 179.169 414.838 175.454 413.665C173.169 412.943 167.646 411.311 164.491 410.314C161.405 409.339 162.45 406.345 163.88 406.496C170.292 407.171 174.028 406.631 176.698 405.698C177.181 405.529 177.697 405.52 178.146 405.662Z" fill="#263238"/>
<path opacity="0.2" d="M190.299 392.338L182.739 390.379L180.418 399.289L187.978 401.248L190.299 392.338Z" fill="black"/>
<path d="M209.355 215.533C209.355 215.533 195.509 281.304 191.834 302.833C187.81 326.409 179.043 393.922 179.043 393.922L191.893 398.592C191.893 398.592 212 326.999 215.048 304.333C221.442 282.166 237.632 215.533 237.632 215.533H209.355Z" fill="#7534FC"/>
<path opacity="0.3" d="M227.119 237C222.629 247.78 220.999 267.41 221.779 279.15C225.339 265.29 229.289 249.46 232.349 237.06C231.359 233.65 229.999 230.07 227.119 237Z" fill="black"/>
<path d="M191.626 400.105L177.848 396.128L178.37 390.302L194.773 394.909L191.626 400.105Z" fill="#263238"/>
<path d="M175.052 406.08C175.746 406.299 176.562 406.404 177.144 406.454C177.216 406.461 177.286 406.425 177.321 406.364C177.356 406.302 177.351 406.227 177.307 406.171C177.122 405.935 175.471 403.864 174.435 403.92C174.195 403.933 173.997 404.053 173.864 404.268C173.644 404.623 173.613 404.954 173.771 405.252C173.972 405.631 174.47 405.896 175.052 406.08ZM176.745 406.057C175.312 405.89 174.336 405.537 174.099 405.091C174.001 404.906 174.027 404.696 174.18 404.45C174.251 404.336 174.338 404.28 174.454 404.274C175.013 404.244 176.055 405.248 176.745 406.057Z" fill="#7534FC"/>
<path d="M177.102 406.445C177.129 406.454 177.159 406.456 177.189 406.452C177.252 406.442 177.305 406.403 177.329 406.346C177.367 406.26 178.245 404.234 177.727 403.291C177.587 403.037 177.364 402.879 177.065 402.821C176.705 402.752 176.418 402.862 176.256 403.13C175.813 403.864 176.419 405.727 177.021 406.392C177.043 406.418 177.071 406.436 177.102 406.445ZM177.075 403.19C177.221 403.236 177.328 403.324 177.401 403.457C177.711 404.019 177.366 405.229 177.111 405.91C176.639 405.173 176.284 403.79 176.575 403.309C176.63 403.217 176.728 403.118 176.993 403.169C177.022 403.175 177.049 403.182 177.075 403.19Z" fill="#7534FC"/>
<path d="M220.065 159.197C219.392 160.816 218.748 162.255 218.024 163.739C217.318 165.213 216.591 166.671 215.84 168.119C214.322 171.008 212.717 173.857 210.96 176.639C207.447 182.201 203.501 187.602 198.364 192.411L198.175 192.587C197.924 192.822 197.631 193.025 197.341 193.179C196.099 193.829 195.289 193.904 194.653 193.986C194.019 194.046 193.484 194.043 193.031 194.015C192.1 193.964 191.355 193.835 190.634 193.687C189.209 193.39 187.949 193.019 186.713 192.627C184.252 191.845 181.957 190.9 179.683 189.94C177.422 188.952 175.207 187.913 173.028 186.807C170.848 185.691 168.709 184.554 166.593 183.27C165.45 182.577 165.086 181.089 165.779 179.947C166.338 179.026 167.413 178.61 168.408 178.847L168.433 178.854C173.076 179.966 177.701 181.22 182.257 182.327C184.526 182.898 186.804 183.401 188.985 183.824C190.07 184.029 191.149 184.199 192.093 184.271C192.556 184.304 193.004 184.321 193.271 184.298C193.417 184.292 193.482 184.263 193.443 184.256C193.4 184.269 193.186 184.208 192.473 184.571L191.451 185.339C193.351 183.28 195.116 180.964 196.825 178.562C198.501 176.124 200.085 173.571 201.624 170.976C203.135 168.358 204.6 165.692 206.007 162.989C207.425 160.322 208.783 157.488 210.029 154.875L210.09 154.746C211.389 152.023 214.649 150.868 217.372 152.167C220.007 153.425 221.168 156.531 220.065 159.197Z" fill="#FFC3BD"/>
<path d="M218.519 148.619C212.077 148.801 207.663 155.787 203.443 164.5C208.223 173.343 216.887 178.016 216.887 178.016C216.887 178.016 233.811 148.186 218.519 148.619Z" fill="#E0E0E0"/>
<path d="M166.334 183.277L160.535 181.805L165.062 175.99C165.062 175.99 170.08 176.785 171.957 181.017L169.897 182.492C168.806 183.273 167.476 183.566 166.334 183.277Z" fill="#FFC3BD"/>
<path d="M159.13 175.857L160.249 174.869C161.184 174.043 162.61 174.012 163.582 174.796L165.063 175.989L160.536 181.804L158.689 178.924C158.052 177.932 158.238 176.645 159.13 175.857Z" fill="#FFC3BD"/>
<path d="M253.463 408.72H245.551L243.658 391.097H251.57L253.463 408.72Z" fill="#FFC3BD"/>
<path d="M244.859 407.839H253.748C254.071 407.839 254.315 408.055 254.335 408.359L254.766 415.123C254.811 415.825 254.126 416.489 253.381 416.476C250.286 416.425 248.808 416.25 244.899 416.25C242.494 416.25 235.869 416.49 232.548 416.49C229.3 416.49 229.322 413.332 230.729 413.045C237.04 411.762 241.262 409.994 243.497 408.306C243.9 408.003 244.386 407.839 244.859 407.839Z" fill="#263238"/>
<path opacity="0.2" d="M251.572 391.102H243.656L244.636 400.185H252.551L251.572 391.102Z" fill="black"/>
<path d="M224.807 215.533C224.807 215.533 226.555 281.652 227.838 303.44C229.243 327.299 241.093 397.993 241.093 397.993H255.585C255.585 397.993 252.413 326.4 250.007 303.013C250.954 277.374 251.671 215.534 251.671 215.534L224.807 215.533Z" fill="#7534FC"/>
<path d="M256.14 397.992H239.702L238.922 392.703L256.581 392.999L256.14 397.992Z" fill="#263238"/>
<path d="M242.055 409.165C242.786 409.165 243.594 409.02 244.164 408.893C244.235 408.877 244.29 408.823 244.303 408.754C244.317 408.685 244.287 408.615 244.227 408.575C243.974 408.406 241.734 406.933 240.768 407.298C240.544 407.382 240.395 407.556 240.339 407.8C240.245 408.203 240.323 408.527 240.57 408.762C240.884 409.062 241.442 409.165 242.055 409.165ZM243.656 408.635C242.241 408.906 241.198 408.864 240.829 408.511C240.676 408.365 240.633 408.158 240.698 407.878C240.728 407.749 240.793 407.67 240.902 407.629C241.422 407.432 242.738 408.073 243.656 408.635Z" fill="#7534FC"/>
<path d="M244.122 408.897C244.151 408.897 244.18 408.89 244.206 408.877C244.262 408.849 244.3 408.795 244.305 408.734C244.313 408.641 244.491 406.452 243.692 405.713C243.477 405.514 243.214 405.431 242.91 405.465C242.546 405.507 242.308 405.698 242.241 406.002C242.059 406.832 243.238 408.42 244.026 408.872C244.057 408.889 244.089 408.897 244.122 408.897ZM243.04 405.813C243.193 405.813 243.324 405.864 243.436 405.969C243.913 406.41 243.978 407.664 243.956 408.386C243.268 407.827 242.483 406.62 242.603 406.076C242.625 405.972 242.686 405.849 242.955 405.818C242.984 405.814 243.013 405.813 243.04 405.813Z" fill="#7534FC"/>
<path d="M212.68 153.707C213.477 151.122 215.772 149.154 218.519 148.618C220.675 148.218 221.68 147.886 224.444 147.64C229.204 147.23 237.027 147.394 242.428 147.64C245.566 147.784 248.768 148.153 251.318 148.513L251.41 148.526C254.223 148.922 256.137 151.474 255.638 154.165C254.339 161.175 252.216 173.541 251.745 185.015C251.126 200.075 251.969 211.899 251.671 215.533H209.353C206.779 178.779 210.1 162.077 212.68 153.707Z" fill="#E0E0E0"/>
<path d="M245.319 125.208C248.777 127.958 247.819 132.583 244.527 134.208C246.235 137.041 241.694 142.043 237.11 138.896C232.527 135.75 239.027 122.542 245.319 125.208Z" fill="#263238"/>
<path d="M226.377 122.173C223.327 122.121 221.907 119.185 223.027 116.912C220.9 116.079 221.285 111.43 225.117 111.226C228.949 111.022 230.943 120.988 226.377 122.173Z" fill="#263238"/>
<path d="M225.128 151.546C223.864 150.428 224.315 148.365 225.92 147.777C229.785 146.362 230.481 143.558 230.166 140.51C230.092 139.678 229.942 138.816 229.75 137.964L236.303 132.729L241.117 128.89C239.918 133.898 238.582 142.601 241.163 147.012C241.732 147.985 241.573 149.194 240.7 149.93C238.964 151.396 235.599 153.297 230.001 153.007C227.426 152.872 225.952 152.275 225.128 151.546Z" fill="#FFC3BD"/>
<path d="M210.509 153.887C211.579 150.889 214.031 148.635 216.923 148.07C218.428 147.793 220.904 147.574 222.649 147.466C223.506 147.413 224.164 148.176 223.948 148.975C220.595 161.41 215.821 186.302 217.301 217.129C217.339 217.923 216.685 218.592 215.858 218.592H207.454C206.689 218.592 206.052 218.011 206.004 217.277C203.53 179.626 208.022 160.856 210.509 153.887Z" fill="#263238"/>
<path d="M251.111 147.739C248.421 147.359 246.332 147.146 243.023 146.992L243.006 146.991C241.976 146.934 241.054 147.596 240.834 148.565C237.721 162.265 234.954 192.706 234.881 217.198C234.879 217.969 235.531 218.589 236.333 218.589H251.379C252.167 218.589 252.813 217.99 252.829 217.233C252.929 212.3 252.254 200.748 252.842 186.408C253.344 174.306 255.192 163.421 256.558 156.03C257.081 153.188 254.078 148.16 251.111 147.739Z" fill="#263238"/>
<path d="M256.38 152.094C259.59 156.927 262.512 161.776 265.271 166.873C266.634 169.423 267.966 172.008 269.177 174.729C269.785 176.09 270.373 177.478 270.919 178.948C271.461 180.434 271.962 181.939 272.324 183.85C272.479 184.839 272.676 185.859 272.482 187.551C272.286 188.724 272.022 189.636 271.714 190.485C271.11 192.18 270.37 193.594 269.622 194.961C268.122 197.678 266.436 200.084 264.712 202.44C261.219 207.114 257.474 211.4 253.392 215.501C252.332 216.566 250.61 216.57 249.545 215.51C248.63 214.599 248.498 213.199 249.152 212.148L249.186 212.095C252.105 207.398 255.039 202.622 257.699 197.883C259.023 195.518 260.276 193.119 261.29 190.805C262.277 188.56 263.044 185.939 262.516 185.872C262.298 185.029 261.844 183.878 261.356 182.751C260.863 181.609 260.293 180.433 259.692 179.257C258.475 176.906 257.165 174.525 255.788 172.166C253.052 167.452 250.127 162.688 247.237 158.076L247.2 158.017C245.598 155.46 246.372 152.089 248.929 150.487C251.442 148.912 254.747 149.64 256.38 152.094Z" fill="#FFC3BD"/>
<path d="M250.158 147.609C256.602 147.495 260.009 152.941 264.229 161.654C259.449 170.496 250.331 174.329 250.331 174.329C250.331 174.329 237.499 147.833 250.158 147.609Z" fill="#E0E0E0"/>
<path d="M246.861 211.891L243.148 213.065L250.021 218.285C250.021 218.285 255.638 215.371 253.874 212.723L252.735 212.214C250.899 211.393 248.8 211.278 246.861 211.891Z" fill="#FFC3BD"/>
<path d="M241.069 217.654L245.243 221.845C245.799 222.403 246.746 222.349 247.245 221.73L250.021 218.286L243.148 213.066L240.954 216.033C240.583 216.534 240.631 217.214 241.069 217.654Z" fill="#FFC3BD"/>
<path opacity="0.2" d="M229.75 137.963C229.942 138.815 230.092 139.678 230.166 140.509C232.645 141.143 236.158 138.295 236.499 135.893C236.627 134.99 236.367 133.354 236.303 132.728L229.75 137.963Z" fill="black"/>
<path d="M245.226 121.786C243.537 129.169 242.939 133.566 238.395 136.86C231.561 141.814 222.532 137.112 221.89 129.429C221.312 122.513 224.171 111.602 232.253 109.663C240.217 107.752 246.915 114.403 245.226 121.786Z" fill="#FFC3BD"/>
<path d="M241.805 128.25C239.666 128.361 237.388 120.806 242.11 117.167C241.36 117.584 239.305 116.834 239.666 115.417C238.277 116 232.199 115.75 233.654 113.278C230.558 114.083 223.818 112.736 223.096 109.792C222.374 106.847 225.862 106.736 226.395 107.125C224.873 104.986 224.901 101.847 228.957 100.708C233.012 99.5691 239.138 105.444 239.138 105.444C238.499 103.889 240.749 102.639 243.082 103.972C245.415 105.305 246.499 109.083 246.499 109.083C246.471 107.944 251.943 109.472 249.36 114.25C252.027 115.278 253.249 116.671 253.082 119.141C252.915 121.611 251.221 121.75 251.221 121.75C251.221 121.75 252.527 124.611 249.749 126.833C246.972 129.056 244.583 126.444 241.805 128.25Z" fill="#263238"/>
<path d="M246.047 128.819C245.028 130.321 243.49 131.299 242.122 131.667C240.065 132.22 239.359 130.383 240.201 128.459C240.959 126.727 242.943 124.352 244.877 124.648C246.784 124.941 247.212 127.101 246.047 128.819Z" fill="#FFC3BD"/>
<path d="M232.947 121.487C232.848 122.093 232.433 122.54 232.02 122.484C231.607 122.428 231.352 121.892 231.451 121.285C231.55 120.679 231.965 120.232 232.378 120.288C232.791 120.344 233.046 120.88 232.947 121.487Z" fill="#263238"/>
<path d="M225.682 120.163C225.583 120.769 225.168 121.216 224.755 121.16C224.342 121.104 224.087 120.568 224.185 119.961C224.284 119.355 224.699 118.908 225.112 118.964C225.526 119.02 225.781 119.556 225.682 120.163Z" fill="#263238"/>
<path d="M228.567 121.516C228.567 121.516 226.56 124.82 224.703 126.295C225.658 127.447 227.635 127.246 227.635 127.246L228.567 121.516Z" fill="#ED847E"/>
<path d="M228.928 130.274C231.429 130.506 232.949 129.132 233.018 129.067C233.092 128.999 233.093 128.885 233.021 128.812C232.949 128.739 232.831 128.736 232.757 128.804C232.739 128.819 231.011 130.387 228.265 129.809C228.163 129.787 228.065 129.849 228.045 129.947C228.025 130.044 228.09 130.141 228.192 130.162C228.446 130.216 228.691 130.252 228.928 130.274Z" fill="#263238"/>
<path d="M233.304 117.334C233.244 117.347 233.187 117.374 233.137 117.416C232.982 117.549 232.966 117.777 233.103 117.925C234.455 119.396 236.173 119.126 236.244 119.113C236.439 119.099 236.586 118.893 236.552 118.696C236.518 118.5 236.325 118.369 236.121 118.403C236.05 118.414 234.727 118.6 233.666 117.445C233.572 117.344 233.432 117.306 233.304 117.334Z" fill="#263238"/>
<path d="M223.609 115.516C223.714 115.573 223.844 115.582 223.959 115.528C225.475 114.809 226.707 115.457 226.719 115.463C226.901 115.562 227.128 115.5 227.226 115.326C227.324 115.153 227.257 114.933 227.077 114.835L227.075 114.834C227.011 114.799 225.482 113.995 223.62 114.878C223.436 114.965 223.363 115.182 223.456 115.361C223.491 115.428 223.545 115.481 223.609 115.516Z" fill="#263238"/>
</svg>
