<svg width="500" height="580" viewBox="0 0 500 580" fill="none" xmlns="http://www.w3.org/2000/svg">
<g clipPath="url(#clip0_660_7014)">
<path d="M517 449.831L-32.2461 421.046L-32.2605 421.321L516.986 450.105L517 449.831Z" fill="#EBEBEB"/>
<path d="M461.419 457.408L361.564 452.175L361.55 452.45L461.404 457.683L461.419 457.408Z" fill="#EBEBEB"/>
<path d="M331.205 447.595L303.867 446.162L303.853 446.437L331.191 447.869L331.205 447.595Z" fill="#EBEBEB"/>
<path d="M393.009 464.052L350.621 461.83L350.607 462.105L392.994 464.326L393.009 464.052Z" fill="#EBEBEB"/>
<path d="M49.2622 444.186L24.3945 442.883L24.3801 443.158L49.2478 444.461L49.2622 444.186Z" fill="#EBEBEB"/>
<path d="M88.5784 446.247L59.041 444.699L59.0266 444.974L88.564 446.522L88.5784 446.247Z" fill="#EBEBEB"/>
<path d="M214.334 448.187L162.883 445.49L162.868 445.765L214.32 448.461L214.334 448.187Z" fill="#EBEBEB"/>
<path d="M230.681 385.7L18.5629 374.583C15.106 374.402 12.4402 371.442 12.6213 367.985L28.2476 69.8185C28.4287 66.3616 31.3894 63.6958 34.8464 63.8769L246.964 74.9936C250.42 75.1747 253.086 78.1354 252.905 81.5923L237.278 379.758C237.097 383.215 234.137 385.881 230.681 385.7ZM34.8319 64.1527C31.5255 63.9794 28.6954 66.5276 28.5221 69.834L12.8959 368C12.7226 371.307 15.2708 374.137 18.5773 374.31L230.695 385.426C234 385.6 236.83 383.051 237.004 379.745L252.63 81.5779C252.803 78.2726 250.255 75.4414 246.95 75.2682L34.8319 64.1527Z" fill="#EBEBEB"/>
<path d="M468.28 398.152L256.163 387.036C252.706 386.855 250.042 383.894 250.223 380.437L265.849 82.2709C266.03 78.814 268.991 76.1482 272.447 76.3293L484.564 87.4458C488.022 87.6271 490.686 90.5877 490.505 94.0446L474.879 392.211C474.699 395.668 471.738 398.333 468.28 398.152ZM272.432 76.605C269.127 76.4318 266.297 78.98 266.124 82.2864L250.497 380.452C250.324 383.759 252.872 386.589 256.178 386.762L468.294 397.879C471.601 398.052 474.431 395.504 474.604 392.197L490.23 94.0303C490.404 90.7249 487.856 87.8938 484.549 87.7205L272.432 76.605Z" fill="#EBEBEB"/>
<path d="M436.267 439.337L456.859 440.416L462.848 326.151L442.255 325.072L436.267 439.337Z" fill="#F0F0F0"/>
<path d="M225.705 434.565L452.578 446.455L452.905 440.209L226.033 428.319L225.705 434.565Z" fill="#F0F0F0"/>
<path d="M442.257 325.072L228.068 313.847L222.08 428.112L436.268 439.338L442.257 325.072Z" fill="#F5F5F5"/>
<path d="M444.39 325.185L465.438 326.288L465.723 320.837L444.676 319.734L444.39 325.185Z" fill="#F0F0F0"/>
<path d="M444.677 319.734L225.762 308.261L225.476 313.711L444.391 325.184L444.677 319.734Z" fill="#FAFAFA"/>
<path d="M432.689 365.916L233.31 355.467L234.871 325.676L434.251 336.125L432.689 365.916ZM234.766 354.156L431.379 364.46L432.795 337.436L236.183 327.132L234.766 354.156Z" fill="#E0E0E0"/>
<path d="M429.462 427.509L230.082 417.06L232.877 363.732L432.257 374.181L429.462 427.509ZM231.539 415.748L428.151 426.052L430.801 375.493L234.189 365.189L231.539 415.748Z" fill="#E0E0E0"/>
<path d="M263.292 332.304L405.294 339.746C406.298 339.799 407.163 339.02 407.215 338.015L407.256 337.235C407.309 336.231 406.53 335.365 405.526 335.313L263.524 327.871C262.52 327.818 261.654 328.597 261.602 329.602L261.561 330.383C261.509 331.387 262.288 332.252 263.292 332.304Z" fill="#E0E0E0"/>
<path d="M261.298 370.361L403.3 377.803C404.304 377.856 405.169 377.077 405.221 376.073L405.262 375.292C405.315 374.288 404.536 373.424 403.532 373.371L261.53 365.929C260.526 365.876 259.66 366.655 259.607 367.659L259.567 368.44C259.515 369.444 260.294 370.309 261.298 370.361Z" fill="#E0E0E0"/>
<path d="M30.4846 424.332L39.043 424.78L46.665 279.343L38.1066 278.895L30.4846 424.332Z" fill="#E6E6E6"/>
<path d="M27.7846 424.19L33.7285 424.502L41.3506 279.065L35.4066 278.753L27.7846 424.19Z" fill="#F0F0F0"/>
<path d="M135.375 283.993L33.5645 278.657L33.0133 289.173L134.824 294.509L135.375 283.993Z" fill="#F0F0F0"/>
<path d="M131.584 429.63L140.143 430.078L147.214 295.157L138.655 294.709L131.584 429.63Z" fill="#E6E6E6"/>
<path d="M128.884 429.488L134.828 429.8L141.899 294.879L135.955 294.567L128.884 429.488Z" fill="#F0F0F0"/>
<path d="M185.744 432.468L194.303 432.917L201.374 297.996L192.815 297.547L185.744 432.468Z" fill="#E6E6E6"/>
<path d="M183.042 432.327L188.986 432.638L196.057 297.717L190.113 297.405L183.042 432.327Z" fill="#F0F0F0"/>
<path d="M84.6428 427.17L93.2012 427.618L100.272 292.697L91.7137 292.249L84.6428 427.17Z" fill="#E6E6E6"/>
<path d="M81.9428 427.028L87.8867 427.34L94.9576 292.419L89.0137 292.107L81.9428 427.028Z" fill="#F0F0F0"/>
<path d="M134.824 294.508L201.373 297.996L201.924 287.48L135.375 283.993L134.824 294.508Z" fill="#E6E6E6"/>
<path d="M131.012 202.221L48.7427 197.909L59.3686 134.61L127.062 138.158L131.012 202.221Z" fill="#EBEBEB"/>
<path d="M94.3551 200.299L85.4023 199.83L81.1405 281.15L90.0932 281.62L94.3551 200.299Z" fill="#F5F5F5"/>
<path d="M103.864 282.341L67.3665 280.429C67.4791 278.281 69.3114 276.631 71.459 276.744L100.18 278.249C102.327 278.362 103.976 280.194 103.864 282.341Z" fill="#F0F0F0"/>
<path d="M93.9859 207.343L85.2572 202.599L85.4023 199.83L94.3551 200.299L93.9859 207.343Z" fill="#E0E0E0"/>
<path d="M124.117 283.176L162.746 285.2L170.272 232.975L131.643 230.95L124.117 283.176Z" fill="#E6E6E6"/>
<path d="M122.115 283.071L160.744 285.096L168.27 232.87L129.641 230.845L122.115 283.071Z" fill="#F0F0F0"/>
<path d="M155.768 279.009L161.628 238.347L134.618 236.931L128.757 277.593L155.768 279.009Z" fill="white"/>
<path d="M443.994 262.201L365.565 258.091L347.459 311.627L425.888 315.737L443.994 262.201Z" fill="#E6E6E6"/>
<path d="M425.888 315.737L425.414 318.724L346.981 314.614L347.456 311.627L425.888 315.737Z" fill="#E6E6E6"/>
<path d="M441.579 262.075L363.151 257.964L345.045 311.501L423.473 315.611L441.579 262.075Z" fill="#F0F0F0"/>
<path d="M422.777 312.025L437.861 265.618C438.076 264.958 437.769 264.365 437.196 264.335L365.093 260.557C364.582 260.53 364.042 260.963 363.85 261.551L348.765 307.958C348.55 308.619 348.857 309.211 349.43 309.241L421.534 313.02C422.045 313.047 422.586 312.614 422.777 312.025Z" fill="white"/>
<path d="M403.039 314.54L402.564 317.527L316.198 313L316.673 310.014L403.039 314.54Z" fill="#F0F0F0"/>
<path d="M467.666 121.248L277.389 111.276L271.234 228.72L461.511 238.692L467.666 121.248Z" fill="#F0F0F0"/>
<path d="M461.982 126.365L282.506 116.959L276.917 223.601L456.393 233.007L461.982 126.365Z" fill="white"/>
<path d="M461.511 238.691L463.461 238.793L469.616 121.349L467.666 121.247L461.511 238.691Z" fill="#E6E6E6"/>
<path d="M239.778 485.05C357.406 491.214 453.055 490.643 453.415 483.773C453.775 476.904 358.71 466.338 241.081 460.173C123.453 454.008 27.8039 454.58 27.4438 461.449C27.0838 468.319 122.149 478.885 239.778 485.05Z" fill="#F5F5F5"/>
<path d="M217.94 75.9819C223.852 71.2227 231.368 68.2983 240.491 67.2122C249.613 66.1225 259.097 67.618 268.94 71.6912C278.781 75.7667 287.612 82.6566 295.426 92.3641C302.689 101.386 307.436 110.694 309.667 120.279C311.896 129.867 311.663 138.847 308.971 147.22C306.275 155.594 301.568 162.485 294.848 167.895C289.557 172.154 284.058 174.812 278.347 175.869C272.636 176.929 267.145 177.143 261.872 176.518C256.598 175.891 247.458 174.507 234.454 172.361C230.821 171.799 227.759 171.468 225.272 171.369C222.78 171.271 220.679 171.398 218.966 171.753C217.25 172.108 215.65 172.602 214.161 173.237C212.671 173.872 210.124 175.075 206.527 176.843C199.101 180.87 192.885 179.772 187.878 173.55C185.273 170.314 184.137 166.741 184.477 162.828C184.813 158.917 187.067 155.283 191.237 151.927C196.466 147.718 201.642 144.883 206.771 143.422C211.9 141.958 216.988 141.401 222.037 141.747C227.084 142.092 233.427 142.935 241.066 144.272C247.756 145.449 252.702 146.212 255.905 146.557C259.105 146.903 262.282 146.808 265.439 146.266C268.592 145.728 271.445 144.431 273.998 142.376C278.975 138.37 281.685 133.136 282.128 126.68C282.569 120.222 280.435 114.068 275.727 108.22C270.216 101.374 264.433 97.724 258.375 97.2688C252.318 96.8112 245.027 98.1687 236.502 101.339C227.765 104.885 221.02 103.7 216.262 97.7889C213.456 94.3027 212.316 90.3736 212.849 85.9994C213.381 81.6251 215.078 78.2859 217.94 75.9819ZM152.303 203.882C149.247 200.086 147.81 195.783 147.989 190.973C148.167 186.162 150.465 181.981 154.885 178.424C158.805 175.268 163.204 173.982 168.086 174.566C172.965 175.15 177.008 177.433 180.214 181.417C183.37 185.337 184.685 189.712 184.165 194.541C183.641 199.371 181.422 203.364 177.501 206.52C173.145 210.027 168.595 211.381 163.853 210.584C159.11 209.786 155.259 207.553 152.303 203.882Z" fill="#7534FC"/>
<g opacity="0.5">
<path d="M311.258 168.798C312.783 165.456 315.4 162.559 319.111 160.108C322.822 157.657 327.249 156.244 332.392 155.87C337.535 155.497 342.851 156.561 348.339 159.065C353.44 161.392 357.514 164.388 360.56 168.05C363.607 171.714 365.455 175.649 366.108 179.856C366.758 184.065 366.219 188.068 364.486 191.867C363.122 194.858 361.319 197.203 359.078 198.899C356.838 200.597 354.508 201.883 352.09 202.756C349.673 203.63 345.418 205.015 339.326 206.911C337.632 207.457 336.236 207.978 335.138 208.475C334.039 208.973 333.157 209.485 332.493 210.009C331.828 210.535 331.242 211.097 330.736 211.694C330.229 212.292 329.39 213.366 328.217 214.912C325.879 218.267 322.952 219.14 319.434 217.536C317.604 216.701 316.337 215.402 315.635 213.634C314.931 211.869 315.118 209.808 316.193 207.45C317.541 204.495 319.165 202.144 321.068 200.398C322.969 198.652 325.05 197.306 327.309 196.36C329.567 195.413 332.495 194.401 336.09 193.322C339.239 192.379 341.545 191.635 343.005 191.089C344.465 190.544 345.818 189.813 347.067 188.894C348.315 187.977 349.268 186.796 349.926 185.353C351.209 182.538 351.245 179.686 350.036 176.796C348.825 173.907 346.567 171.707 343.26 170.199C339.389 168.433 336.095 168.109 333.375 169.228C330.655 170.345 327.795 172.516 324.796 175.737C321.785 179.168 318.61 180.119 315.269 178.595C313.298 177.696 311.952 176.243 311.233 174.235C310.511 172.229 310.521 170.416 311.258 168.798ZM310.629 238.381C308.482 237.401 306.926 235.851 305.959 233.732C304.992 231.612 305.079 229.304 306.218 226.806C307.228 224.59 308.853 223.078 311.092 222.271C313.329 221.464 315.574 221.574 317.825 222.602C320.042 223.613 321.561 225.22 322.384 227.423C323.206 229.626 323.112 231.835 322.102 234.053C320.978 236.515 319.304 238.09 317.079 238.775C314.855 239.458 312.704 239.328 310.629 238.381Z" fill="#7534FC"/>
</g>
<g opacity="0.1">
<path d="M385.49 166.2C384.612 164.732 384.194 162.964 384.236 160.894C384.277 158.824 384.906 156.754 386.122 154.684C387.339 152.615 389.151 150.859 391.561 149.418C393.801 148.078 396.026 147.309 398.235 147.11C400.444 146.91 402.441 147.242 404.226 148.104C406.01 148.967 407.402 150.233 408.4 151.9C409.186 153.213 409.607 154.524 409.665 155.83C409.723 157.137 409.6 158.37 409.296 159.527C408.992 160.685 408.399 162.681 407.514 165.516C407.275 166.31 407.106 166.983 407.006 167.534C406.907 168.088 406.87 168.56 406.896 168.954C406.921 169.347 406.982 169.721 407.077 170.073C407.172 170.425 407.362 171.03 407.644 171.889C408.312 173.672 407.873 175.025 406.329 175.948C405.525 176.43 404.692 176.571 403.83 176.374C402.968 176.178 402.227 175.561 401.607 174.526C400.83 173.228 400.359 171.984 400.193 170.793C400.027 169.603 400.061 168.45 400.295 167.335C400.53 166.219 400.916 164.83 401.452 163.167C401.923 161.711 402.247 160.631 402.424 159.926C402.601 159.223 402.679 158.511 402.656 157.789C402.634 157.069 402.434 156.392 402.054 155.757C401.315 154.522 400.232 153.754 398.804 153.453C397.377 153.154 395.937 153.439 394.486 154.307C392.786 155.323 391.791 156.501 391.501 157.838C391.21 159.175 391.286 160.845 391.727 162.846C392.246 164.907 391.772 166.375 390.305 167.253C389.439 167.77 388.527 167.902 387.568 167.647C386.607 167.393 385.916 166.909 385.49 166.2ZM411.989 184.831C411.046 185.395 410.04 185.582 408.973 185.391C407.905 185.202 407.044 184.559 406.388 183.462C405.805 182.488 405.655 181.467 405.938 180.396C406.22 179.325 406.856 178.494 407.844 177.903C408.818 177.32 409.835 177.163 410.896 177.43C411.957 177.697 412.779 178.318 413.362 179.291C414.009 180.373 414.169 181.431 413.844 182.463C413.518 183.496 412.901 184.287 411.989 184.831Z" fill="#7534FC"/>
</g>
<path d="M170.277 461.642L162.089 459.055L168.038 440.328L176.226 442.915L170.277 461.642Z" fill="#FFC3BD"/>
<path d="M162.11 456.857L171.234 460.273C171.565 460.397 171.727 460.713 171.622 461.032L169.284 468.131C169.042 468.867 168.066 469.284 167.306 468.985C164.15 467.744 162.706 466.996 158.692 465.494C156.224 464.569 150.251 462.458 146.843 461.181C143.509 459.933 144.829 456.704 146.391 456.952C153.396 458.063 157.531 457.685 160.518 456.814C161.058 456.656 161.625 456.676 162.11 456.857Z" fill="#263238"/>
<path opacity="0.2" d="M176.228 442.921L168.036 440.333L164.973 449.987L173.165 452.574L176.228 442.921Z" fill="black"/>
<path d="M207.337 249.799C207.337 249.799 188.34 321.25 183.064 344.688C177.286 370.355 163.769 444.012 163.769 444.012L177.616 449.882C177.616 449.882 203.825 372.395 208.478 347.672C216.778 323.69 238.399 251.426 238.399 251.426L207.337 249.799Z" fill="#7534FC"/>
<path opacity="0.3" d="M225.615 274.403C220.062 285.986 217.142 307.456 217.323 320.397C222.031 305.377 227.282 288.215 231.357 274.77C230.466 270.967 229.178 266.956 225.615 274.403Z" fill="black"/>
<path d="M177.237 451.529L162.331 446.367L163.239 439.997L180.993 446.002L177.237 451.529Z" fill="#263238"/>
<path d="M158.686 457.138C159.436 457.419 160.327 457.581 160.963 457.67C161.042 457.681 161.121 457.646 161.163 457.581C161.205 457.515 161.203 457.432 161.158 457.368C160.969 457.098 159.274 454.728 158.133 454.73C157.869 454.73 157.644 454.851 157.486 455.079C157.224 455.457 157.171 455.818 157.327 456.155C157.526 456.583 158.058 456.903 158.686 457.138ZM160.548 457.21C158.983 456.944 157.931 456.501 157.697 455.997C157.6 455.788 157.64 455.559 157.822 455.297C157.907 455.176 158.006 455.12 158.134 455.12C158.749 455.119 159.836 456.282 160.548 457.21Z" fill="#7534FC"/>
<path d="M160.918 457.657C160.947 457.669 160.98 457.673 161.013 457.67C161.083 457.663 161.143 457.623 161.173 457.562C161.22 457.469 162.301 455.294 161.786 454.229C161.647 453.942 161.411 453.755 161.086 453.674C160.695 453.578 160.373 453.682 160.18 453.967C159.651 454.748 160.209 456.829 160.832 457.595C160.855 457.624 160.884 457.646 160.918 457.657ZM161.076 454.08C161.233 454.139 161.346 454.242 161.418 454.392C161.727 455.028 161.278 456.337 160.959 457.07C160.483 456.233 160.172 454.694 160.52 454.182C160.585 454.084 160.699 453.981 160.987 454.052C161.018 454.061 161.048 454.07 161.076 454.08Z" fill="#7534FC"/>
<path d="M222.345 188.53C221.512 190.27 220.722 191.814 219.841 193.402C218.981 194.981 218.098 196.541 217.19 198.088C215.356 201.174 213.429 204.211 211.339 207.166C207.16 213.074 202.514 218.78 196.594 223.766L196.377 223.949C196.087 224.193 195.754 224.399 195.426 224.551C194.025 225.194 193.131 225.23 192.427 225.283C191.727 225.312 191.14 225.278 190.644 225.221C189.624 225.112 188.813 224.927 188.03 224.723C186.481 224.315 185.119 223.835 183.783 223.333C181.125 222.332 178.658 221.162 176.216 219.977C173.789 218.761 171.416 217.492 169.086 216.152C166.755 214.801 164.471 213.428 162.22 211.896C161.005 211.069 160.691 209.414 161.518 208.199C162.185 207.219 163.389 206.824 164.469 207.142L164.496 207.151C169.532 208.64 174.541 210.284 179.482 211.762C181.941 212.52 184.415 213.204 186.786 213.794C187.966 214.081 189.142 214.33 190.174 214.464C190.681 214.527 191.172 214.571 191.467 214.561C191.628 214.563 191.701 214.535 191.658 214.525C191.61 214.537 191.379 214.457 190.575 214.815L189.408 215.6C191.613 213.448 193.685 211.005 195.701 208.465C197.683 205.883 199.57 203.17 201.409 200.408C203.22 197.619 204.983 194.775 206.684 191.887C208.395 189.039 210.05 186.004 211.569 183.205L211.644 183.067C213.227 180.15 216.875 179.069 219.791 180.653C222.613 182.187 223.71 185.665 222.345 188.53Z" fill="#FFC3BD"/>
<path d="M221.256 176.822C214.169 176.651 208.918 184.071 203.781 193.399C208.522 203.388 217.771 209.02 217.771 209.02C217.771 209.02 238.079 177.226 221.256 176.822Z" fill="#E0E0E0"/>
<path d="M161.937 211.889L155.652 209.938L160.959 203.811C160.959 203.811 166.426 204.973 168.244 209.73L165.896 211.232C164.653 212.027 163.175 212.272 161.937 211.889Z" fill="#FFC3BD"/>
<path d="M154.451 203.323L155.737 202.303C156.812 201.449 158.38 201.497 159.403 202.414L160.961 203.81L155.653 209.937L153.79 206.667C153.147 205.541 153.426 204.138 154.451 203.323Z" fill="#FFC3BD"/>
<path d="M244.668 464.552L235.977 464.097L234.912 444.629L243.603 445.085L244.668 464.552Z" fill="#FFC3BD"/>
<path d="M235.269 463.089L245.034 463.601C245.389 463.62 245.644 463.871 245.649 464.206L245.733 471.661C245.742 472.435 244.951 473.125 244.134 473.068C240.737 472.833 239.123 472.556 234.829 472.331C232.187 472.193 224.896 472.075 221.248 471.884C217.68 471.697 217.886 468.229 219.448 467.995C226.454 466.949 231.194 465.25 233.746 463.524C234.207 463.214 234.75 463.062 235.269 463.089Z" fill="#263238"/>
<path opacity="0.2" d="M243.608 445.09L234.912 444.635L235.466 454.669L244.16 455.124L243.608 445.09Z" fill="black"/>
<path d="M224.312 250.688C224.312 250.688 222.426 323.42 222.581 347.428C222.751 373.718 231.698 452.057 231.698 452.057L247.618 452.891C247.618 452.891 248.255 374.064 246.958 348.235C249.475 320.125 253.822 252.236 253.822 252.236L224.312 250.688Z" fill="#7534FC"/>
<path d="M248.227 452.922L230.17 451.976L229.617 446.121L248.998 447.463L248.227 452.922Z" fill="#263238"/>
<path d="M232.113 464.384C232.916 464.427 233.812 464.314 234.446 464.207C234.525 464.194 234.588 464.137 234.607 464.062C234.626 463.987 234.597 463.909 234.533 463.861C234.265 463.661 231.889 461.914 230.807 462.259C230.556 462.339 230.383 462.521 230.307 462.786C230.181 463.223 230.248 463.584 230.505 463.856C230.833 464.204 231.44 464.349 232.113 464.384ZM233.903 463.894C232.333 464.111 231.189 464.004 230.804 463.595C230.645 463.426 230.609 463.196 230.697 462.893C230.737 462.753 230.813 462.67 230.935 462.631C231.518 462.444 232.927 463.224 233.903 463.894Z" fill="#7534FC"/>
<path d="M234.399 464.209C234.431 464.211 234.463 464.205 234.492 464.192C234.555 464.164 234.6 464.107 234.609 464.041C234.623 463.939 234.945 461.545 234.11 460.687C233.885 460.456 233.601 460.349 233.265 460.369C232.863 460.394 232.59 460.591 232.499 460.921C232.251 461.822 233.455 463.634 234.295 464.176C234.328 464.197 234.362 464.207 234.399 464.209ZM233.388 460.759C233.556 460.768 233.697 460.831 233.814 460.953C234.312 461.465 234.311 462.846 234.246 463.638C233.522 462.985 232.729 461.613 232.892 461.023C232.923 460.91 232.997 460.778 233.294 460.76C233.326 460.757 233.358 460.757 233.388 460.759Z" fill="#7534FC"/>
<path d="M214.55 182.075C215.574 179.281 218.209 177.251 221.257 176.82C223.648 176.505 224.772 176.198 227.822 176.087C233.074 175.911 241.658 176.541 247.577 177.123C251.016 177.461 254.512 178.051 257.293 178.593L257.393 178.613C260.46 179.21 262.416 182.123 261.713 185.051C259.882 192.676 256.838 206.138 255.66 218.715C254.113 235.223 254.359 248.26 253.822 252.235L207.336 249.798C206.624 209.276 211.234 191.12 214.55 182.075Z" fill="#E0E0E0"/>
<path d="M252.044 152.648C255.684 155.868 254.366 160.893 250.656 162.488C252.369 165.699 247.093 170.932 242.238 167.211C237.385 163.491 245.286 149.357 252.044 152.648Z" fill="#263238"/>
<path d="M231.411 148.223C228.063 147.991 226.672 144.684 228.034 142.251C225.745 141.214 226.436 136.129 230.657 136.126C234.878 136.122 236.495 147.184 231.411 148.223Z" fill="#263238"/>
<path d="M228.347 180.417C227.023 179.116 227.637 176.876 229.434 176.323C233.761 174.991 234.687 171.951 234.516 168.584C234.483 167.666 234.368 166.711 234.206 165.764L241.706 160.39L247.215 156.45C245.61 161.883 243.641 171.366 246.222 176.36C246.791 177.461 246.547 178.78 245.546 179.539C243.554 181.049 239.748 182.944 233.616 182.303C230.795 182.006 229.21 181.265 228.347 180.417Z" fill="#FFC3BD"/>
<path d="M212.156 182.147C213.504 178.916 216.327 176.581 219.536 176.127C221.205 175.909 223.938 175.811 225.861 175.793C226.805 175.784 227.484 176.66 227.201 177.525C222.802 190.992 216.125 218.061 215.976 252.009C215.972 252.884 215.215 253.581 214.306 253.533L205.075 253.049C204.234 253.005 203.568 252.331 203.558 251.521C203.007 210.02 209.022 189.66 212.156 182.147Z" fill="#263238"/>
<path d="M257.108 177.731C254.174 177.159 251.892 176.805 248.266 176.445L248.247 176.443C247.119 176.321 246.068 176.995 245.771 178.047C241.562 192.917 236.77 226.197 235.28 253.097C235.234 253.944 235.914 254.662 236.795 254.709L253.323 255.575C254.189 255.62 254.933 254.999 254.994 254.169C255.388 248.756 255.311 236.027 256.783 220.308C258.031 207.043 260.688 195.193 262.614 187.152C263.352 184.061 260.343 178.364 257.108 177.731Z" fill="#263238"/>
<path d="M262.645 182.818C265.893 188.312 268.824 193.807 271.561 199.565C272.912 202.444 274.226 205.361 275.4 208.419C275.989 209.95 276.555 211.508 277.07 213.154C277.58 214.818 278.044 216.5 278.332 218.62C278.445 219.715 278.603 220.847 278.292 222.695C278.009 223.972 277.667 224.958 277.28 225.873C276.518 227.701 275.624 229.211 274.724 230.67C272.92 233.568 270.929 236.114 268.9 238.603C264.794 243.536 260.433 248.029 255.713 252.298C254.487 253.407 252.595 253.313 251.486 252.087C250.534 251.033 250.469 249.488 251.248 248.371L251.289 248.315C254.766 243.323 258.264 238.246 261.458 233.193C263.049 230.671 264.563 228.108 265.81 225.625C267.024 223.215 268.017 220.38 267.441 220.276C267.25 219.338 266.818 218.047 266.347 216.781C265.871 215.498 265.312 214.174 264.72 212.847C263.518 210.195 262.216 207.504 260.84 204.833C258.106 199.497 255.167 194.096 252.258 188.863L252.22 188.796C250.608 185.895 251.652 182.237 254.553 180.624C257.404 179.039 260.993 180.029 262.645 182.818Z" fill="#FFC3BD"/>
<path d="M256.071 177.533C263.156 177.779 266.585 183.958 270.719 193.772C264.959 203.21 254.723 206.895 254.723 206.895C254.723 206.895 242.152 177.051 256.071 177.533Z" fill="#E0E0E0"/>
<path d="M248.75 247.957L244.603 249.033L251.853 255.163C251.853 255.163 258.191 252.285 256.406 249.275L255.184 248.65C253.214 247.643 250.915 247.395 248.75 247.957Z" fill="#FFC3BD"/>
<path d="M242.054 253.954L246.397 258.798C246.976 259.443 248.019 259.438 248.603 258.787L251.851 255.164L244.602 249.034L242.021 252.167C241.584 252.696 241.598 253.446 242.054 253.954Z" fill="#FFC3BD"/>
<path opacity="0.2" d="M234.206 165.763C234.368 166.71 234.483 167.666 234.517 168.583C237.204 169.422 241.226 166.496 241.739 163.877C241.932 162.893 241.74 161.081 241.706 160.389L234.206 165.763Z" fill="black"/>
<path d="M252.137 148.883C249.857 156.896 248.947 161.692 243.765 165.049C235.973 170.097 226.325 164.412 226.063 155.936C225.826 148.305 229.595 136.484 238.584 134.819C247.443 133.179 254.417 140.87 252.137 148.883Z" fill="#FFC3BD"/>
<path d="M248.009 155.787C245.653 155.786 243.585 147.355 248.982 143.63C248.134 144.045 245.92 143.103 246.398 141.567C244.838 142.127 238.176 141.503 239.917 138.871C236.47 139.577 229.143 137.709 228.52 134.434C227.896 131.157 231.734 131.236 232.297 131.694C230.748 129.257 230.96 125.81 235.481 124.793C240.001 123.775 246.392 130.581 246.392 130.581C245.779 128.836 248.323 127.593 250.809 129.191C253.295 130.79 254.268 135.002 254.268 135.002C254.303 133.75 260.226 135.743 257.114 140.843C259.984 142.126 261.246 143.726 260.921 146.43C260.595 149.134 258.726 149.189 258.726 149.189C258.726 149.189 259.996 152.407 256.817 154.688C253.638 156.97 251.164 153.963 248.009 155.787Z" fill="#263238"/>
<path d="M252.634 156.656C251.428 158.248 249.683 159.233 248.159 159.559C245.867 160.048 245.198 157.989 246.233 155.924C247.166 154.065 249.482 151.571 251.589 152.007C253.667 152.439 254.013 154.836 252.634 156.656Z" fill="#FFC3BD"/>
<path d="M238.668 147.848C238.524 148.508 238.043 148.975 237.592 148.89C237.142 148.804 236.892 148.201 237.036 147.54C237.18 146.88 237.661 146.413 238.112 146.498C238.562 146.583 238.811 147.187 238.668 147.848Z" fill="#263238"/>
<path d="M230.764 145.975C230.621 146.635 230.139 147.102 229.688 147.017C229.238 146.932 228.989 146.328 229.131 145.667C229.275 145.007 229.757 144.54 230.207 144.625C230.659 144.711 230.908 145.314 230.764 145.975Z" fill="#263238"/>
<path d="M233.854 147.627C233.854 147.627 231.459 151.141 229.334 152.655C230.317 153.975 232.5 153.868 232.5 153.868L233.854 147.627Z" fill="#ED847E"/>
<path d="M233.746 157.269C236.48 157.668 238.229 156.246 238.308 156.179C238.393 156.108 238.401 155.983 238.326 155.899C238.251 155.814 238.122 155.804 238.037 155.875C238.016 155.89 236.028 157.513 233.044 156.72C232.934 156.69 232.822 156.752 232.795 156.859C232.767 156.964 232.833 157.075 232.944 157.104C233.22 157.177 233.487 157.231 233.746 157.269Z" fill="#263238"/>
<path d="M239.297 143.306C239.231 143.317 239.167 143.344 239.109 143.387C238.931 143.524 238.901 143.773 239.043 143.944C240.443 145.638 242.346 145.44 242.425 145.43C242.64 145.426 242.813 145.208 242.787 144.989C242.761 144.772 242.556 144.617 242.33 144.643C242.252 144.651 240.788 144.779 239.689 143.449C239.591 143.333 239.44 143.283 239.297 143.306Z" fill="#263238"/>
<path d="M228.754 140.751C228.866 140.82 229.008 140.837 229.137 140.785C230.844 140.082 232.16 140.865 232.173 140.872C232.367 140.991 232.62 140.936 232.738 140.751C232.855 140.566 232.794 140.321 232.602 140.203L232.6 140.202C232.532 140.159 230.899 139.188 228.802 140.051C228.595 140.136 228.503 140.37 228.594 140.572C228.629 140.648 228.685 140.709 228.754 140.751Z" fill="#263238"/>
</g>
<defs>
<clipPath id="clip0_660_7014">
<rect width="550" height="550" fill="white" transform="translate(-10.2305 0.984619) rotate(3)"/>
</clipPath>
</defs>
</svg>
