<svg width="48" height="48" viewBox="0 0 48 48" fill="none" xmlns="http://www.w3.org/2000/svg">
<path d="M20.5938 15.5806C20.6905 15.5613 20.7679 15.5419 20.8647 15.5419L20.9615 15.5806C20.8454 15.5806 20.7099 15.5806 20.5938 15.5806Z" fill="#A665D2"/>
<path d="M24 41.5742C33.7059 41.5742 41.5742 33.706 41.5742 24C41.5742 14.2941 33.7059 6.42584 24 6.42584C14.294 6.42584 6.42578 14.2941 6.42578 24C6.42578 33.706 14.294 41.5742 24 41.5742Z" fill="#7A12CD"/>
<path d="M26.653 15.6C26.9046 15.5419 27.1756 15.5806 27.3885 15.7161C27.7369 16.0064 28.0272 16.3355 28.3562 16.6451C28.8014 17.0903 29.2465 17.5355 29.6917 17.9806C29.9433 18.1742 30.1175 18.4258 30.3691 18.6387C30.6014 18.9484 30.9304 19.1613 31.1627 19.4516C31.3756 19.6451 31.5885 19.8387 31.7627 20.0516C32.2465 20.4774 32.6336 20.9806 33.1369 21.3871C33.4272 21.7355 33.7562 22.0451 34.0659 22.3548C34.4143 22.7032 34.7627 23.0516 35.1111 23.4193C35.1498 23.5161 35.2078 23.6322 35.2465 23.729C35.2465 23.8451 35.2465 23.9806 35.2465 24.0968C35.1885 24.2709 35.0917 24.4258 34.9756 24.5613C32.4982 27.0387 30.0207 29.5161 27.524 32.0129C27.3885 32.1097 27.253 32.1871 27.0982 32.2451C26.9627 32.2451 26.8465 32.2451 26.7111 32.2451C26.5562 32.1871 26.4207 32.1097 26.2853 32.0129C25.7433 31.4709 25.182 30.9097 24.6401 30.3677C24.4659 30.1935 24.2917 30 24.0982 29.8258C24.0014 29.729 23.924 29.6322 23.8272 29.5548L23.7885 29.5161C23.382 29.1097 22.9949 28.7032 22.5885 28.3161C22.5498 28.2774 22.5111 28.2387 22.4724 28.2C21.7756 27.5032 21.0982 26.8258 20.4014 26.129C19.8982 25.6064 19.3756 25.1032 18.853 24.5806C18.7175 24.4451 18.6207 24.2903 18.582 24.1161C18.582 24 18.582 23.9032 18.582 23.7871C18.6595 23.4387 18.9498 23.1871 19.182 22.9548C19.3562 22.7613 19.5498 22.5871 19.724 22.4129C20.1498 22.0064 20.5369 21.5613 20.9627 21.1548C21.4853 20.6709 21.9498 20.1677 22.453 19.6645C22.4917 19.6258 22.5304 19.6064 22.5691 19.5871C22.9756 19.1806 23.4014 18.7935 23.7691 18.3677L23.8272 18.3097C24.2724 17.8258 24.7562 17.3806 25.2207 16.9161C25.6853 16.4903 26.0724 15.9677 26.6143 15.658" fill="#FFFEFF"/>
<path d="M20.0127 15.987C20.1675 15.8128 20.3611 15.6773 20.5933 15.5999C20.7095 15.5999 20.845 15.5999 20.9611 15.5999C21.3095 15.6967 21.5224 15.9677 21.7546 16.1999C22.1804 16.6257 22.6062 17.0515 23.0321 17.4773C22.8772 17.5935 22.7417 17.2257 22.5869 17.3612C22.4321 17.4967 22.2966 17.6515 22.1611 17.8064C22.0837 17.8838 21.9675 17.9031 21.9288 17.9999C21.8708 18.1548 21.6966 18.1935 21.5804 18.3096C21.5611 18.3677 21.6579 18.3677 21.6772 18.4064L21.6579 18.5999C21.4256 18.387 21.2127 18.1354 20.9611 17.9225C20.8643 17.8838 20.6901 17.8451 20.6127 17.9225C18.7159 19.7612 16.8772 21.658 14.9998 23.516C14.9224 23.6128 14.7869 23.6709 14.7869 23.8064C14.7482 23.9806 14.8062 24.1741 14.9417 24.3096C15.2901 24.658 15.6385 25.0064 15.9869 25.3548C16.8192 26.187 17.6514 27.0193 18.4837 27.8515C19.1224 28.4902 19.7611 29.1096 20.3804 29.7483C20.4966 29.9031 20.6901 29.9806 20.8837 29.9612C21.1933 29.8451 21.3869 29.5354 21.6385 29.3225C21.6772 29.3806 21.6385 29.458 21.6385 29.5354C21.5417 29.5548 21.4256 29.6322 21.4643 29.7483C21.5224 29.9031 21.2708 29.7483 21.2127 29.8644C21.1933 29.9419 21.2708 29.9806 21.2901 30.0386C21.1353 30.058 20.9224 29.9419 20.845 30.116C20.7482 30.1548 20.6901 30.058 20.6127 30.0386C20.3611 30.116 20.4385 29.8064 20.2643 29.787C20.0901 29.7096 20.0514 29.458 19.8385 29.4193C19.6837 29.3806 19.7224 29.1677 19.6063 29.1096C19.5095 29.0515 19.4127 28.9548 19.3546 28.8386C19.3159 28.7225 19.1611 28.8967 19.1417 28.7418C19.0837 28.5096 18.8708 28.4128 18.7546 28.2386C18.6772 28.1612 18.5224 28.1806 18.4837 28.0451C18.4643 27.9483 18.3869 27.8709 18.2901 27.8322C18.1933 27.6967 18.0966 27.5225 17.903 27.5225C17.7675 27.5418 17.7869 27.3677 17.7869 27.2709C17.574 27.2128 17.5353 26.9806 17.3611 26.8838C17.2837 26.9031 17.1675 26.8644 17.1095 26.9612C17.1095 26.9999 17.1288 27.058 17.0901 27.116C17.0514 27.0967 17.0127 27.0773 16.974 27.058C16.7417 27.3096 16.4708 27.5612 16.2385 27.8128C16.2192 28.0451 16.4901 28.1612 16.6256 28.3548C16.645 28.4515 16.7417 28.4128 16.7998 28.4128C16.8579 28.5289 16.9159 28.6644 16.9933 28.7806C17.1675 28.8773 17.2643 29.0515 17.4192 29.1289C17.5353 29.3419 17.7095 29.5354 17.9224 29.6709C17.9804 29.7096 18.0579 29.7677 18.0966 29.8451C18.1933 29.8838 18.3288 29.8451 18.2514 30.0386C18.3095 30.116 18.3869 30.1935 18.4643 30.2709C18.6579 30.1935 18.6385 30.3483 18.6579 30.4257C18.7159 30.5225 18.9482 30.4064 18.8708 30.6386C18.9869 30.8128 19.1998 30.8902 19.2966 31.0644C19.4708 31.1612 19.5288 31.3548 19.6837 31.4515C19.8385 31.5483 19.974 31.6838 20.0708 31.8386C20.1869 31.916 20.2837 32.0128 20.3804 32.1096C20.574 32.1096 20.7869 32.1483 20.9804 32.187C21.1353 32.1483 21.174 31.9354 21.3095 31.8773C21.4837 31.8193 21.5417 31.6257 21.6966 31.5289C21.774 31.4902 21.7353 31.3741 21.7933 31.316L22.0062 31.3548C21.8708 31.5677 21.6579 31.6838 21.503 31.8967C21.3482 32.0902 21.1353 32.2257 20.903 32.3031H20.5546C20.3804 32.2451 20.2256 32.1483 20.0901 32.0515C19.8772 31.7999 19.6062 31.6064 19.3933 31.3354C19.374 31.2967 19.3353 31.2773 19.2966 31.258C19.0643 31.0064 18.8127 30.7548 18.5611 30.5225C18.3482 30.2709 18.0579 30.058 17.845 29.8064C17.6127 29.516 17.2837 29.3225 17.0708 29.0128C17.0127 28.9354 16.9159 28.8967 16.8579 28.8193C16.4321 28.4128 16.045 27.9289 15.5804 27.5612C15.3482 27.2709 15.0385 27.0193 14.7675 26.7483C14.5159 26.4193 14.1869 26.187 13.9159 25.8967C13.7998 25.7999 13.7224 25.6644 13.6063 25.587C13.5869 25.5483 13.5482 25.4902 13.5095 25.4709C13.2192 25.2386 13.0062 24.9096 12.6966 24.6773C12.5611 24.5612 12.4643 24.4064 12.4062 24.2322C12.4062 24.0967 12.4256 23.9612 12.4062 23.8257C12.445 23.6709 12.5224 23.5354 12.6192 23.3999C15.1353 20.8644 17.574 18.4257 20.0127 15.987Z" fill="#E3CCF4"/>
<path d="M22.5873 17.3613C22.7421 17.2258 22.897 17.5936 23.0325 17.4775C23.1292 17.5549 23.2067 17.6517 23.3034 17.7484V17.7871H23.2647C23.1873 17.7097 23.1099 17.6517 23.0325 17.5936C22.8776 17.5936 22.8196 17.7484 22.7421 17.8452C22.6454 17.9807 22.5292 18.0968 22.3937 18.1742C22.2389 18.3484 22.0841 18.5226 21.9292 18.6775C21.9292 18.7355 21.9292 18.7936 21.9099 18.8323C21.8325 18.7549 21.755 18.6775 21.6776 18.6L21.697 18.4065C21.6776 18.3678 21.5808 18.3678 21.6002 18.3097C21.7163 18.2129 21.8905 18.1549 21.9486 18C21.9873 17.9033 22.1034 17.8839 22.1808 17.8065C22.297 17.6323 22.4325 17.4968 22.5873 17.3613Z" fill="#D9C4EB"/>
<path d="M22.7229 17.8452C22.8003 17.7485 22.8777 17.5936 23.0132 17.5936C23.0906 17.6517 23.1874 17.7098 23.2455 17.7872C23.0326 17.8065 22.9551 18.0001 22.8003 18.0969C22.6648 18.213 22.5487 18.3291 22.4326 18.4646C22.2971 18.6194 22.0842 18.7356 22.0455 18.9678C21.9874 18.9291 21.9293 18.871 21.8906 18.8323C21.91 18.7743 21.91 18.7162 21.91 18.6775C22.0842 18.5227 22.2197 18.3485 22.3745 18.1743C22.5293 18.0775 22.6455 17.9807 22.7229 17.8452Z" fill="#D0BCE0"/>
<path d="M23.3047 17.7484C23.4982 17.9033 23.6531 18.1355 23.8853 18.271L23.8273 18.3291C23.7499 18.271 23.6918 18.1936 23.6144 18.1355C23.595 18.1162 23.595 18.1162 23.5757 18.0968C23.5369 18.0581 23.4982 18.0194 23.4595 17.9807L23.3821 17.9033L23.3047 17.7871V17.7484Z" fill="#D7B0F8"/>
<path d="M22.8211 18.0968C22.9759 18.0001 23.0533 17.8065 23.2662 17.7872H23.3049L23.3824 17.9033C23.3243 17.9227 23.2469 17.942 23.1888 17.9614C22.8985 18.3098 22.5695 18.5807 22.2791 18.9098C22.2404 18.9678 22.2211 19.0259 22.2017 19.0839C22.163 19.0452 22.1049 19.0065 22.0469 18.9872V18.9678C22.0856 18.7356 22.2985 18.6194 22.434 18.4646C22.5501 18.3291 22.6856 18.1936 22.8211 18.0968Z" fill="#C7B5D7"/>
<path d="M20.5938 17.9033C20.6905 17.8259 20.8647 17.8646 20.9421 17.9033C20.826 17.9033 20.7099 17.9033 20.5938 17.9033Z" fill="#BB85E0"/>
<path d="M23.1865 17.9613C23.2446 17.9419 23.3026 17.9226 23.38 17.9032L23.4575 17.9806C23.3607 18.0194 23.2639 18.0387 23.2252 18.1548C22.9542 18.5032 22.5865 18.7548 22.2962 19.1032C22.2962 19.1419 22.2962 19.1806 22.3155 19.2194C22.2768 19.1806 22.2381 19.1419 22.2188 19.1032C22.2381 19.0452 22.2575 18.9871 22.2962 18.929C22.5671 18.5806 22.9155 18.2903 23.1865 17.9613Z" fill="#BFAECD"/>
<path d="M23.2259 18.1354C23.2646 18.0387 23.3807 18 23.4582 17.9612C23.4969 18 23.5356 18.0387 23.5743 18.0774C23.1872 18.2322 22.9936 18.658 22.6453 18.8903C22.5485 19.0064 22.3743 19.1032 22.3936 19.2774L22.3162 19.2C22.3162 19.1612 22.2969 19.1225 22.2969 19.0838C22.5872 18.7354 22.9549 18.4838 23.2259 18.1354Z" fill="#B7A7C5"/>
<path d="M22.6437 18.8904C22.9921 18.6581 23.1857 18.2517 23.5728 18.0775C23.5921 18.0968 23.5921 18.0968 23.6115 18.1162C23.4179 18.3291 23.205 18.542 23.0115 18.7355C22.8373 18.8517 22.7405 19.0646 22.5663 19.1807C22.5082 19.2194 22.5276 19.2968 22.5082 19.3743C22.4695 19.3355 22.4308 19.2968 22.3921 19.2581C22.3728 19.1033 22.547 19.0259 22.6437 18.8904Z" fill="#AF9FBC"/>
<path d="M23.0112 18.7549C23.2048 18.542 23.4177 18.3484 23.6112 18.1355C23.6886 18.1936 23.7467 18.271 23.8241 18.3291C23.4564 18.7549 23.0112 19.142 22.6241 19.5484C22.6048 19.4904 22.5661 19.4517 22.5273 19.3936C22.5467 19.3355 22.5273 19.2388 22.5854 19.2C22.7402 19.0646 22.837 18.871 23.0112 18.7549Z" fill="#A79AB2"/>
<path d="M22.0664 18.987C22.1245 19.0064 22.1632 19.0451 22.2212 19.0838C22.26 19.1225 22.2987 19.1612 22.318 19.1999L22.3954 19.2774C22.4341 19.3161 22.4729 19.3548 22.5116 19.3935C22.5503 19.4322 22.589 19.4903 22.6083 19.5483C22.5696 19.587 22.5309 19.6064 22.4922 19.6257C22.4922 19.587 22.5116 19.5483 22.5116 19.5096C22.3761 19.3354 22.1245 19.2193 22.0664 18.987Z" fill="#702EA5"/>
<path d="M12.4258 23.7677L12.4645 23.7289C12.4645 23.8644 12.4645 23.9999 12.4645 24.1354C12.4645 24.116 12.4451 24.0773 12.4258 24.058C12.4258 23.9806 12.4258 23.8257 12.4258 23.7677Z" fill="#B981E5"/>
<path d="M35.2656 23.7289C35.3043 23.8451 35.3043 23.9806 35.2656 24.0967C35.2656 23.9612 35.2656 23.8451 35.2656 23.7289Z" fill="#A063D0"/>
<path d="M12.4253 24.0387C12.3478 23.9612 12.3478 23.8451 12.4253 23.7677C12.4253 23.8258 12.4253 23.9806 12.4253 24.0387Z" fill="#8030C6"/>
<path d="M18.582 23.7484L18.6014 23.7678C18.6014 23.8839 18.6014 23.9807 18.6014 24.0968C18.582 23.9807 18.582 23.8645 18.582 23.7484Z" fill="#A569DC"/>
<path d="M17.11 26.9419C17.1487 26.8451 17.2648 26.8838 17.3616 26.8645C17.5358 26.9612 17.5745 27.2129 17.7874 27.2516C17.768 27.3483 17.768 27.5225 17.9035 27.5032C18.0971 27.4838 18.1938 27.6774 18.2906 27.8129C18.3874 27.8516 18.4648 27.929 18.4841 28.0258C18.5035 28.1612 18.6777 28.1419 18.7551 28.2193C18.8906 28.3935 19.1035 28.4903 19.1422 28.7225C19.1616 28.858 19.3164 28.7032 19.3551 28.8193C19.4132 28.9354 19.4906 29.0129 19.6067 29.0903C19.7422 29.1483 19.6841 29.3612 19.839 29.4C20.0325 29.4387 20.0712 29.6903 20.2648 29.7677C20.439 29.7871 20.3616 30.0967 20.6132 30.0193C20.6906 30.0387 20.768 30.1354 20.8454 30.0967C20.9229 29.9225 21.1358 30.0387 21.2906 30.0193C21.2712 29.9612 21.1938 29.9032 21.2132 29.8451C21.2712 29.729 21.5229 29.8838 21.4648 29.729C21.4067 29.6129 21.5422 29.5548 21.639 29.5161C21.6196 29.6516 21.7745 29.6903 21.8519 29.7871C22.0067 30.0193 22.2196 30.2129 22.4519 30.3483C22.5293 30.4064 22.5487 30.5225 22.5874 30.6C22.7616 30.5806 22.8777 30.4258 23.0132 30.329L23.0712 30.3677C22.7229 30.658 22.4325 31.0258 22.1035 31.2967L21.8906 31.258C21.8325 31.3161 21.8712 31.4322 21.7938 31.4709C21.639 31.5677 21.5809 31.7612 21.4067 31.8193C21.2712 31.8967 21.2325 32.0903 21.0777 32.129C20.8841 32.0903 20.6712 32.0709 20.4777 32.0516C20.3809 31.9548 20.2841 31.858 20.168 31.7806C20.0712 31.6258 19.9358 31.4903 19.7809 31.3935C19.6261 31.2967 19.5487 31.0838 19.3938 31.0064C19.2971 30.8322 19.0841 30.7354 18.968 30.5806C19.0454 30.3483 18.8325 30.4645 18.7551 30.3677C18.7164 30.2709 18.7551 30.1161 18.5616 30.2129C18.4841 30.1548 18.4067 30.0774 18.3293 29.9806C18.4067 29.7871 18.2519 29.8064 18.1745 29.7871C18.1164 29.729 18.0583 29.6709 18.0003 29.6129C17.7874 29.4774 17.6132 29.2838 17.497 29.0709C17.3229 28.9935 17.2261 28.8193 17.0712 28.7225C16.9938 28.6064 16.9358 28.4903 16.8777 28.3548C16.8003 28.3548 16.7229 28.3935 16.7035 28.2967C16.5874 28.1225 16.3164 28.0064 16.3164 27.7548C16.5487 27.5032 16.8196 27.2516 17.0519 27C17.0906 27.0193 17.1293 27.0387 17.168 27.058C17.1487 27.058 17.1293 27 17.11 26.9419Z" fill="#E3CFF2"/>
<path d="M22.4903 28.1806C22.529 28.2193 22.5677 28.258 22.6064 28.2967L22.5483 28.3741C22.4903 28.4322 22.4322 28.4709 22.3935 28.529L22.3548 28.5677C22.3161 28.6064 22.2774 28.6451 22.2387 28.6838L22.1612 28.7612C22.1225 28.7999 22.0838 28.8386 22.0451 28.8773C22.0064 28.9161 21.929 28.9741 21.8903 29.0322L21.8516 29.0515C21.8516 28.9741 21.8903 28.9161 21.929 28.858C22.1225 28.6644 22.3161 28.4902 22.4903 28.2967C22.4903 28.2386 22.4903 28.1999 22.4903 28.1806Z" fill="#68219F"/>
<path d="M22.6049 28.2968C23.0114 28.7033 23.4178 29.1097 23.8049 29.4968L23.6888 29.5936C23.534 29.4968 23.4178 29.342 23.2824 29.2258C23.0307 29.0323 22.8953 28.7613 22.6436 28.5678L22.5469 28.3355C22.5469 28.3549 22.6049 28.2968 22.6049 28.2968Z" fill="#A195AB"/>
<path d="M22.3945 28.529C22.4526 28.4709 22.4913 28.4128 22.5494 28.3741L22.6461 28.6064C22.8784 28.7999 23.0332 29.0709 23.2849 29.2644C23.4203 29.3806 23.5365 29.5161 23.6913 29.6322L23.6139 29.7096C23.4784 29.6322 23.3816 29.5548 23.2849 29.4386C22.9558 29.129 22.7236 28.7806 22.3945 28.529Z" fill="#A999B5"/>
<path d="M22.3555 28.5484L22.3942 28.5096C22.7232 28.7806 22.9555 29.129 23.2845 29.4C23.3813 29.5161 23.478 29.6129 23.6135 29.6709L23.4974 29.7871C23.1684 29.458 22.8006 29.1484 22.491 28.7806C22.4329 28.7225 22.3748 28.6451 22.3555 28.5484Z" fill="#B0A2BC"/>
<path d="M22.2383 28.6645C22.277 28.6258 22.3157 28.5871 22.3544 28.5484C22.3738 28.6452 22.4125 28.7226 22.4899 28.7807C22.7996 29.1484 23.1673 29.4387 23.4963 29.7871L23.4383 29.8645L23.4189 29.8839C23.0125 29.5742 22.6834 29.1678 22.3157 28.8194C22.277 28.7613 22.2576 28.7226 22.2383 28.6645Z" fill="#B9A8C5"/>
<path d="M22.1602 28.7418L22.2376 28.6644C22.2569 28.7031 22.2763 28.7612 22.315 28.7999C22.7021 29.1483 23.0118 29.5741 23.4182 29.8644C23.3795 29.9031 23.3408 29.9225 23.3021 29.9612C22.9343 29.6128 22.5666 29.2644 22.2182 28.8967C22.1602 28.8773 22.1795 28.7999 22.1602 28.7418Z" fill="#C1B0CE"/>
<path d="M22.0465 28.8581C22.0852 28.8194 22.1239 28.7807 22.1627 28.7419C22.182 28.8 22.1627 28.8581 22.2014 28.8968C22.5497 29.2645 22.9175 29.6129 23.2852 29.9613C23.1885 30.0194 23.0723 29.9807 22.9756 30C22.7239 29.6129 22.3175 29.3419 22.0078 28.9936C22.0465 28.9548 22.0659 28.9161 22.0465 28.8581Z" fill="#C9B7D7"/>
<path d="M21.8916 29.0323C21.9497 28.9742 21.9884 28.9162 22.0464 28.8774C22.0658 28.9162 22.0271 28.9549 22.0271 29.0129C22.3368 29.3613 22.7432 29.6323 22.9948 30.0194C23.0916 30.0194 23.2077 30.0387 23.3045 29.9807C23.3432 29.942 23.3819 29.9226 23.4206 29.8839L23.44 29.8645L23.4594 29.942C23.3819 30.0194 23.3045 30.0968 23.2271 30.1742L23.2077 30.0968C23.111 30.1549 23.0335 30.2323 22.9561 30.2903C22.7432 30.0194 22.4529 29.8452 22.24 29.5936C22.1432 29.4 21.8723 29.2839 21.8916 29.0323Z" fill="#D0BDE0"/>
<path d="M21.8511 29.0516L21.8898 29.0323C21.8705 29.2839 22.1414 29.4 22.2382 29.5935C22.4511 29.8645 22.7414 30.0387 22.9543 30.2903C23.0511 30.2323 23.1285 30.1548 23.2253 30.0968L23.2447 30.1742C23.1866 30.2516 23.1285 30.3097 23.0511 30.3677L22.993 30.329C22.8576 30.4258 22.7608 30.5806 22.5672 30.6C22.5285 30.5226 22.5285 30.4065 22.4317 30.3484C22.1801 30.2129 21.9866 30.0194 21.8318 29.7871C21.7543 29.6903 21.5995 29.6516 21.6188 29.5161C21.6188 29.4387 21.6769 29.3613 21.6188 29.3032C21.6963 29.2064 21.7737 29.129 21.8511 29.0516Z" fill="#D9C6E9"/>
<path d="M23.6891 29.5936L23.8052 29.4969L23.8439 29.5356C23.7085 29.6711 23.5923 29.8065 23.4569 29.942L23.4375 29.8646L23.4956 29.7872L23.6117 29.6711L23.6891 29.5936Z" fill="#CBA2E7"/>
<path d="M20.5938 32.2451H20.9421C20.8454 32.2838 20.7099 32.2838 20.5938 32.2451Z" fill="#7B38B1"/>
<path d="M26.7305 32.2451C26.866 32.2451 26.9821 32.2451 27.1176 32.2451L27.0789 32.2838H26.7498L26.7305 32.2451Z" fill="#7B41AC"/>
<path d="M26.7695 32.2838H27.0986C27.0018 32.3419 26.8857 32.3419 26.7695 32.2838Z" fill="#580897"/>
</svg>
