<svg xmlns="http://www.w3.org/2000/svg" version="1.1" xmlns:xlink="http://www.w3.org/1999/xlink" xmlns:svgjs="http://svgjs.dev/svgjs" viewBox="0 0 6.325704033135568 7.626650291583661"><g transform="matrix(1,0,0,1,0.5783091698880969,5.232666121695564)"><g><path d=" M 0.27375 0.27374999999999994 Q 0.3015 0.3164999999999999 0.34275 0.348 Q 0.384 0.37949999999999995 0.4545 0.42299999999999993 Q 0.531 0.471 0.57525 0.5055 Q 0.6195 0.5399999999999999 0.65025 0.5902499999999999 Q 0.681 0.6405 0.681 0.708 Q 0.681 0.7845 0.64125 0.8444999999999999 Q 0.6015 0.9045 0.52875 0.9382499999999999 Q 0.456 0.972 0.363 0.972 Q 0.3 0.972 0.23325 0.9554999999999999 Q 0.1665 0.939 0.132 0.9149999999999999 Q 0.11850000000000001 0.9059999999999999 0.117 0.8865 L 0.108 0.6585 L 0.108 0.657 Q 0.108 0.651 0.1155 0.65025 Q 0.123 0.6495 0.1245 0.6555 Q 0.17400000000000002 0.7799999999999999 0.23775000000000002 0.8594999999999999 Q 0.3015 0.939 0.4005 0.939 Q 0.465 0.939 0.5085000000000001 0.9037499999999999 Q 0.552 0.8684999999999999 0.552 0.7859999999999999 Q 0.552 0.72 0.52275 0.6704999999999999 Q 0.4935 0.621 0.45075 0.588 Q 0.40800000000000003 0.5549999999999999 0.3345 0.5069999999999999 Q 0.2625 0.46049999999999996 0.222 0.4282499999999999 Q 0.1815 0.3959999999999999 0.153 0.3487499999999999 Q 0.1245 0.3015 0.1245 0.23849999999999993 Q 0.1245 0.16049999999999998 0.168 0.10649999999999993 Q 0.2115 0.05249999999999999 0.28125 0.026249999999999885 Q 0.35100000000000003 -1.1102230246251565e-16 0.4275 -1.1102230246251565e-16 Q 0.47850000000000004 -1.1102230246251565e-16 0.5295 0.009749999999999925 Q 0.5805 0.019499999999999962 0.615 0.034499999999999975 Q 0.6285000000000001 0.038999999999999924 0.633 0.04574999999999996 Q 0.6375000000000001 0.05249999999999999 0.6375000000000001 0.06299999999999994 L 0.642 0.2669999999999999 Q 0.642 0.27149999999999996 0.63375 0.27374999999999994 Q 0.6255000000000001 0.2759999999999999 0.624 0.2699999999999999 Q 0.594 0.1785 0.5437500000000001 0.10424999999999995 Q 0.4935 0.029999999999999916 0.393 0.029999999999999916 Q 0.3255 0.029999999999999916 0.28575 0.06899999999999995 Q 0.246 0.10799999999999998 0.246 0.1755 Q 0.246 0.23099999999999998 0.27375 0.27374999999999994 M 1.873528564453125 0.945 Q 1.873528564453125 0.954 1.8690285644531248 0.954 Q 1.818028564453125 0.954 1.7865285644531252 0.9525 L 1.677028564453125 0.951 L 1.5495285644531251 0.9525 Q 1.522528564453125 0.954 1.477528564453125 0.954 Q 1.473028564453125 0.954 1.473028564453125 0.945 Q 1.473028564453125 0.9359999999999999 1.477528564453125 0.9359999999999999 Q 1.534528564453125 0.9359999999999999 1.560028564453125 0.9285 Q 1.5855285644531252 0.9209999999999999 1.594528564453125 0.8999999999999999 Q 1.603528564453125 0.879 1.603528564453125 0.8325 L 1.603528564453125 0.48599999999999993 L 1.089028564453125 0.48599999999999993 L 1.089028564453125 0.8325 Q 1.089028564453125 0.8775 1.098028564453125 0.89925 Q 1.107028564453125 0.9209999999999999 1.133278564453125 0.9285 Q 1.159528564453125 0.9359999999999999 1.216528564453125 0.9359999999999999 Q 1.219528564453125 0.9359999999999999 1.219528564453125 0.945 Q 1.219528564453125 0.954 1.216528564453125 0.954 Q 1.165528564453125 0.954 1.137028564453125 0.9525 L 1.012528564453125 0.951 L 0.9030285644531251 0.9525 Q 0.874528564453125 0.954 0.8235285644531251 0.954 Q 0.820528564453125 0.954 0.820528564453125 0.945 Q 0.820528564453125 0.9359999999999999 0.8235285644531251 0.9359999999999999 Q 0.877528564453125 0.9359999999999999 0.9030285644531251 0.9285 Q 0.928528564453125 0.9209999999999999 0.937528564453125 0.89925 Q 0.946528564453125 0.8775 0.946528564453125 0.8325 L 0.946528564453125 0.1379999999999999 Q 0.946528564453125 0.09299999999999997 0.937528564453125 0.07199999999999995 Q 0.928528564453125 0.050999999999999934 0.9030285644531251 0.042749999999999955 Q 0.877528564453125 0.034499999999999975 0.825028564453125 0.034499999999999975 Q 0.822028564453125 0.034499999999999975 0.822028564453125 0.025499999999999967 Q 0.822028564453125 0.01649999999999996 0.825028564453125 0.01649999999999996 L 0.904528564453125 0.017999999999999905 Q 0.9735285644531251 0.020999999999999908 1.012528564453125 0.020999999999999908 Q 1.065028564453125 0.020999999999999908 1.137028564453125 0.017999999999999905 L 1.216528564453125 0.01649999999999996 Q 1.219528564453125 0.01649999999999996 1.219528564453125 0.025499999999999967 Q 1.219528564453125 0.034499999999999975 1.216528564453125 0.034499999999999975 Q 1.161028564453125 0.034499999999999975 1.134778564453125 0.04349999999999998 Q 1.108528564453125 0.05249999999999999 1.098778564453125 0.07424999999999993 Q 1.089028564453125 0.09599999999999997 1.089028564453125 0.1409999999999999 L 1.089028564453125 0.44699999999999995 L 1.603528564453125 0.44699999999999995 L 1.603528564453125 0.1409999999999999 Q 1.603528564453125 0.09599999999999997 1.594528564453125 0.07424999999999993 Q 1.5855285644531252 0.05249999999999999 1.559278564453125 0.04349999999999998 Q 1.533028564453125 0.034499999999999975 1.477528564453125 0.034499999999999975 Q 1.473028564453125 0.034499999999999975 1.473028564453125 0.025499999999999967 Q 1.473028564453125 0.01649999999999996 1.477528564453125 0.01649999999999996 L 1.5495285644531251 0.017999999999999905 Q 1.621528564453125 0.020999999999999908 1.677028564453125 0.020999999999999908 Q 1.717528564453125 0.020999999999999908 1.7865285644531252 0.017999999999999905 L 1.8690285644531248 0.01649999999999996 Q 1.873528564453125 0.01649999999999996 1.873528564453125 0.025499999999999967 Q 1.873528564453125 0.034499999999999975 1.8690285644531248 0.034499999999999975 Q 1.815028564453125 0.034499999999999975 1.790278564453125 0.042749999999999955 Q 1.765528564453125 0.050999999999999934 1.756528564453125 0.07199999999999995 Q 1.747528564453125 0.09299999999999997 1.747528564453125 0.1379999999999999 L 1.747528564453125 0.8325 Q 1.747528564453125 0.8775 1.756528564453125 0.89925 Q 1.765528564453125 0.9209999999999999 1.790278564453125 0.9285 Q 1.815028564453125 0.9359999999999999 1.8690285644531248 0.9359999999999999 Q 1.873528564453125 0.9359999999999999 1.873528564453125 0.945 M 2.2680644531250005 0.8999999999999999 Q 2.2755644531250003 0.9209999999999999 2.2988144531250003 0.9285 Q 2.3220644531250003 0.9359999999999999 2.373064453125 0.9359999999999999 Q 2.377564453125 0.9359999999999999 2.377564453125 0.945 Q 2.377564453125 0.954 2.373064453125 0.954 Q 2.3250644531250004 0.954 2.2965644531250002 0.9525 L 2.185564453125 0.951 L 2.0775644531250004 0.9525 Q 2.049064453125 0.954 1.9995644531250003 0.954 Q 1.9950644531250004 0.954 1.9950644531250004 0.945 Q 1.9950644531250004 0.9359999999999999 1.9995644531250003 0.9359999999999999 Q 2.0505644531250002 0.9359999999999999 2.0738144531250002 0.9285 Q 2.0970644531250002 0.9209999999999999 2.106064453125 0.89925 Q 2.115064453125 0.8775 2.115064453125 0.8325 L 2.115064453125 0.1379999999999999 Q 2.115064453125 0.09299999999999997 2.106064453125 0.07199999999999995 Q 2.0970644531250002 0.050999999999999934 2.0738144531250002 0.042749999999999955 Q 2.0505644531250002 0.034499999999999975 1.9995644531250003 0.034499999999999975 Q 1.9950644531250004 0.034499999999999975 1.9950644531250004 0.025499999999999967 Q 1.9950644531250004 0.01649999999999996 1.9995644531250003 0.01649999999999996 L 2.0775644531250004 0.017999999999999905 Q 2.143564453125 0.020999999999999908 2.185564453125 0.020999999999999908 Q 2.232064453125 0.020999999999999908 2.2980644531250003 0.017999999999999905 L 2.373064453125 0.01649999999999996 Q 2.377564453125 0.01649999999999996 2.377564453125 0.025499999999999967 Q 2.377564453125 0.034499999999999975 2.373064453125 0.034499999999999975 Q 2.3235644531250004 0.034499999999999975 2.3003144531250004 0.04349999999999998 Q 2.2770644531250004 0.05249999999999999 2.268814453125 0.07424999999999993 Q 2.260564453125 0.09599999999999997 2.260564453125 0.1409999999999999 L 2.260564453125 0.8325 Q 2.260564453125 0.879 2.2680644531250005 0.8999999999999999 M 3.1965483398437504 0.717 Q 3.2010483398437506 0.717 3.2047983398437503 0.71925 Q 3.2085483398437504 0.7214999999999999 3.2085483398437504 0.723 Q 3.1935483398437503 0.837 3.1935483398437503 0.9315 Q 3.1935483398437503 0.9435 3.18904833984375 0.94875 Q 3.1845483398437504 0.954 3.1710483398437503 0.954 L 2.5200483398437505 0.954 Q 2.5155483398437504 0.954 2.5155483398437504 0.945 Q 2.5155483398437504 0.9359999999999999 2.5200483398437505 0.9359999999999999 Q 2.5710483398437503 0.9359999999999999 2.5942983398437502 0.9285 Q 2.6175483398437502 0.9209999999999999 2.6257983398437506 0.89925 Q 2.6340483398437504 0.8775 2.6340483398437504 0.8325 L 2.6340483398437504 0.1379999999999999 Q 2.6340483398437504 0.09299999999999997 2.6257983398437506 0.07199999999999995 Q 2.6175483398437502 0.050999999999999934 2.59354833984375 0.042749999999999955 Q 2.56954833984375 0.034499999999999975 2.5200483398437505 0.034499999999999975 Q 2.5155483398437504 0.034499999999999975 2.5155483398437504 0.025499999999999967 Q 2.5155483398437504 0.01649999999999996 2.5200483398437505 0.01649999999999996 L 3.14404833984375 0.01649999999999996 Q 3.1590483398437503 0.01649999999999996 3.1590483398437503 0.029999999999999916 L 3.1620483398437504 0.22499999999999998 Q 3.1620483398437504 0.22799999999999998 3.1537983398437506 0.22949999999999993 Q 3.1455483398437503 0.23099999999999998 3.14404833984375 0.22649999999999992 Q 3.1080483398437506 0.055499999999999994 2.9355483398437503 0.055499999999999994 L 2.8755483398437502 0.055499999999999994 Q 2.8215483398437504 0.055499999999999994 2.7990483398437505 0.07499999999999996 Q 2.7765483398437505 0.09449999999999992 2.7765483398437505 0.1409999999999999 L 2.7765483398437505 0.44699999999999995 L 2.9205483398437506 0.44699999999999995 Q 3.0855483398437507 0.44699999999999995 3.0855483398437507 0.33599999999999997 Q 3.0855483398437507 0.3314999999999999 3.0937983398437505 0.3314999999999999 Q 3.1020483398437504 0.3314999999999999 3.1020483398437504 0.33599999999999997 L 3.1005483398437503 0.46649999999999997 L 3.1020483398437504 0.5369999999999999 Q 3.1050483398437505 0.585 3.1050483398437505 0.615 Q 3.1050483398437505 0.6179999999999999 3.09604833984375 0.6179999999999999 Q 3.0870483398437503 0.6179999999999999 3.0870483398437503 0.615 Q 3.0870483398437503 0.48599999999999993 2.9190483398437506 0.48599999999999993 L 2.7765483398437505 0.48599999999999993 L 2.7765483398437505 0.8265 Q 2.7765483398437505 0.876 2.7952983398437503 0.8955 Q 2.81404833984375 0.9149999999999999 2.86204833984375 0.9149999999999999 L 2.9355483398437503 0.9149999999999999 Q 3.1365483398437504 0.9149999999999999 3.19054833984375 0.72 Q 3.19054833984375 0.717 3.1965483398437504 0.717 M 3.5985439453125005 0.8265 Q 3.5985439453125005 0.867 3.6052939453125004 0.885 Q 3.6120439453125006 0.9029999999999999 3.6315439453125005 0.9089999999999999 Q 3.6510439453125003 0.9149999999999999 3.6945439453125006 0.9149999999999999 L 3.7845439453125005 0.9149999999999999 Q 3.8910439453125005 0.9149999999999999 3.9645439453125007 0.85575 Q 4.0380439453125 0.7965 4.0620439453125 0.696 Q 4.0635439453125 0.6915 4.071043945312501 0.69225 Q 4.0785439453125 0.693 4.0785439453125 0.6975 Q 4.0650439453125005 0.8384999999999999 4.0650439453125005 0.9315 Q 4.0650439453125005 0.9435 4.0605439453125 0.94875 Q 4.056043945312501 0.954 4.0425439453125005 0.954 L 3.3405439453125005 0.954 Q 3.3375439453125004 0.954 3.3375439453125004 0.945 Q 3.3375439453125004 0.9359999999999999 3.3405439453125005 0.9359999999999999 Q 3.3915439453125007 0.9359999999999999 3.4147939453125007 0.9285 Q 3.4380439453125007 0.9209999999999999 3.4462939453125006 0.89925 Q 3.4545439453125004 0.8775 3.4545439453125004 0.8325 L 3.4545439453125004 0.1379999999999999 Q 3.4545439453125004 0.09299999999999997 3.4462939453125006 0.07199999999999995 Q 3.4380439453125007 0.050999999999999934 3.4140439453125007 0.042749999999999955 Q 3.3900439453125006 0.034499999999999975 3.3405439453125005 0.034499999999999975 Q 3.3375439453125004 0.034499999999999975 3.3375439453125004 0.025499999999999967 Q 3.3375439453125004 0.01649999999999996 3.3405439453125005 0.01649999999999996 L 3.4170439453125003 0.017999999999999905 Q 3.4830439453125006 0.020999999999999908 3.5250439453125004 0.020999999999999908 Q 3.5700439453125004 0.020999999999999908 3.6360439453125006 0.017999999999999905 L 3.7110439453125004 0.01649999999999996 Q 3.7155439453125005 0.01649999999999996 3.7155439453125005 0.025499999999999967 Q 3.7155439453125005 0.034499999999999975 3.7110439453125004 0.034499999999999975 Q 3.6615439453125003 0.034499999999999975 3.6382939453125003 0.042749999999999955 Q 3.6150439453125003 0.050999999999999934 3.6067939453125004 0.07274999999999998 Q 3.5985439453125005 0.09449999999999992 3.5985439453125005 0.13949999999999996 L 3.5985439453125005 0.8265 M 4.4880673828125 0.9554999999999999 Q 4.4655673828125 0.954 4.4310673828125005 0.9525 Q 4.3965673828125 0.951 4.3530673828125 0.951 L 4.246567382812501 0.9525 Q 4.2180673828125 0.954 4.1670673828125 0.954 Q 4.1640673828125 0.954 4.1640673828125 0.945 Q 4.1640673828125 0.9359999999999999 4.1670673828125 0.9359999999999999 Q 4.2180673828125 0.9359999999999999 4.2413173828125 0.9285 Q 4.2645673828125 0.9209999999999999 4.2735673828125 0.89925 Q 4.2825673828125 0.8775 4.2825673828125 0.8325 L 4.2825673828125 0.1379999999999999 Q 4.2825673828125 0.09299999999999997 4.2743173828125 0.07199999999999995 Q 4.2660673828125 0.050999999999999934 4.2420673828125 0.042749999999999955 Q 4.2180673828125 0.034499999999999975 4.1685673828125 0.034499999999999975 Q 4.1655673828125 0.034499999999999975 4.1655673828125 0.025499999999999967 Q 4.1655673828125 0.01649999999999996 4.1685673828125 0.01649999999999996 L 4.248067382812501 0.017999999999999905 Q 4.3140673828125005 0.020999999999999908 4.3530673828125 0.020999999999999908 Q 4.4130673828125 0.020999999999999908 4.4745673828125 0.01649999999999996 Q 4.5495673828125005 0.013499999999999956 4.575067382812501 0.013499999999999956 Q 4.7280673828125 0.013499999999999956 4.8465673828125 0.0734999999999999 Q 4.9650673828125 0.13349999999999995 5.0303173828125 0.237 Q 5.0955673828125 0.3404999999999999 5.0955673828125 0.4695 Q 5.0955673828125 0.615 5.0280673828125 0.72675 Q 4.9605673828125 0.8384999999999999 4.8465673828125 0.89925 Q 4.7325673828125 0.96 4.5960673828125005 0.96 Q 4.5495673828125005 0.96 4.4880673828125 0.9554999999999999 M 4.764817382812501 0.8805 Q 4.8450673828125 0.831 4.8900673828125 0.73425 Q 4.9350673828125 0.6375 4.9350673828125 0.5025 Q 4.9350673828125 0.37349999999999994 4.8923173828125 0.26925 Q 4.8495673828125 0.16499999999999992 4.7715673828125 0.10424999999999995 Q 4.6935673828125 0.04349999999999998 4.5900673828125 0.04349999999999998 Q 4.5270673828125005 0.04349999999999998 4.4925673828125 0.050999999999999934 Q 4.458067382812501 0.058499999999999885 4.4423173828125 0.07874999999999999 Q 4.4265673828125 0.09899999999999998 4.4265673828125 0.1409999999999999 L 4.4265673828125 0.816 Q 4.4265673828125 0.8775 4.458067382812501 0.9037499999999999 Q 4.4895673828125 0.9299999999999999 4.5810673828125 0.9299999999999999 Q 4.6845673828125 0.9299999999999999 4.764817382812501 0.8805" fill="#525252" fill-rule="nonzero"></path></g><g><path d=" M 0.8700455932617187 1.77555 Q 0.8745455932617188 1.786425 0.8869205932617188 1.7901749999999998 Q 0.8992955932617187 1.793925 0.9262955932617187 1.793925 Q 0.9277955932617188 1.793925 0.9277955932617188 1.798425 Q 0.9277955932617188 1.8029249999999999 0.9262955932617187 1.8029249999999999 Q 0.9022955932617187 1.8029249999999999 0.8887955932617188 1.8021749999999999 L 0.8347955932617187 1.8014249999999998 L 0.7822955932617187 1.8021749999999999 Q 0.7680455932617187 1.8029249999999999 0.7432955932617187 1.8029249999999999 Q 0.7417955932617187 1.8029249999999999 0.7417955932617187 1.798425 Q 0.7417955932617187 1.793925 0.7432955932617187 1.793925 Q 0.7702955932617187 1.793925 0.7830455932617187 1.7901749999999998 Q 0.7957955932617188 1.786425 0.8002955932617187 1.77555 Q 0.8047955932617188 1.764675 0.8047955932617188 1.7421749999999998 L 0.8047955932617188 1.3949249999999997 Q 0.8047955932617188 1.3724249999999998 0.8002955932617187 1.3619249999999998 Q 0.7957955932617188 1.3514249999999999 0.7830455932617187 1.3473 Q 0.7702955932617187 1.343175 0.7432955932617187 1.343175 Q 0.7417955932617187 1.343175 0.7417955932617187 1.3386749999999998 Q 0.7417955932617187 1.3341749999999999 0.7432955932617187 1.3341749999999999 L 0.7822955932617187 1.334925 Q 0.8152955932617187 1.3364249999999998 0.8347955932617187 1.3364249999999998 Q 0.8565455932617188 1.3364249999999998 0.8895455932617187 1.334925 L 0.9262955932617187 1.3341749999999999 Q 0.9277955932617188 1.3341749999999999 0.9277955932617188 1.3386749999999998 Q 0.9277955932617188 1.343175 0.9262955932617187 1.343175 Q 0.9000455932617187 1.343175 0.8872955932617187 1.347675 Q 0.8745455932617188 1.352175 0.8700455932617187 1.3630499999999999 Q 0.8655455932617188 1.3739249999999998 0.8655455932617188 1.3964249999999998 L 0.8655455932617188 1.7421749999999998 Q 0.8655455932617188 1.764675 0.8700455932617187 1.77555 M 1.5030620727539064 1.3386749999999998 Q 1.5030620727539064 1.343175 1.5008120727539063 1.343175 Q 1.4393120727539064 1.343175 1.4393120727539064 1.4211749999999999 L 1.4393120727539064 1.8126749999999998 Q 1.4393120727539064 1.8141749999999999 1.4359370727539063 1.814925 Q 1.4325620727539063 1.815675 1.4310620727539063 1.8141749999999999 L 1.0793120727539063 1.3971749999999998 L 1.0793120727539063 1.716675 Q 1.0793120727539063 1.756425 1.0939370727539064 1.775175 Q 1.1085620727539063 1.793925 1.1385620727539063 1.793925 Q 1.1408120727539064 1.793925 1.1408120727539064 1.798425 Q 1.1408120727539064 1.8029249999999999 1.1385620727539063 1.8029249999999999 Q 1.1190620727539062 1.8029249999999999 1.1085620727539063 1.8021749999999999 L 1.0703120727539064 1.8014249999999998 L 1.0298120727539062 1.8021749999999999 Q 1.0185620727539062 1.8029249999999999 0.9968120727539063 1.8029249999999999 Q 0.9953120727539063 1.8029249999999999 0.9953120727539063 1.798425 Q 0.9953120727539063 1.793925 0.9968120727539063 1.793925 Q 1.0290620727539064 1.793925 1.0444370727539063 1.775175 Q 1.0598120727539062 1.756425 1.0598120727539062 1.716675 L 1.0598120727539062 1.376175 Q 1.0268120727539063 1.343175 0.9945620727539063 1.343175 Q 0.9923120727539063 1.343175 0.9923120727539063 1.3386749999999998 Q 0.9923120727539063 1.3341749999999999 0.9945620727539063 1.3341749999999999 L 1.0238120727539064 1.334925 Q 1.0328120727539063 1.335675 1.0493120727539063 1.335675 L 1.0883120727539062 1.334925 Q 1.0950620727539062 1.3341749999999999 1.1055620727539064 1.3341749999999999 Q 1.1115620727539064 1.3341749999999999 1.1141870727539063 1.3367999999999998 Q 1.1168120727539064 1.3394249999999999 1.1228120727539064 1.3484249999999998 Q 1.1295620727539064 1.358925 1.1415620727539064 1.3731749999999998 L 1.4205620727539063 1.709925 L 1.4205620727539063 1.4211749999999999 Q 1.4205620727539063 1.381425 1.4063120727539062 1.3622999999999998 Q 1.3920620727539064 1.343175 1.3620620727539063 1.343175 Q 1.3605620727539063 1.343175 1.3605620727539063 1.3386749999999998 Q 1.3605620727539063 1.3341749999999999 1.3620620727539063 1.3341749999999999 L 1.3920620727539064 1.334925 Q 1.4145620727539063 1.3364249999999998 1.4303120727539063 1.3364249999999998 Q 1.4438120727539063 1.3364249999999998 1.4693120727539064 1.334925 L 1.5008120727539063 1.3341749999999999 Q 1.5030620727539064 1.3341749999999999 1.5030620727539064 1.3386749999999998 M 1.8705474243164064 1.435425 Q 1.8705474243164064 1.4376749999999998 1.8664224243164065 1.4380499999999998 Q 1.8622974243164063 1.4384249999999998 1.8615474243164063 1.436175 Q 1.8562974243164063 1.3949249999999997 1.8322974243164063 1.3735499999999998 Q 1.8082974243164065 1.352175 1.7692974243164064 1.352175 L 1.7310474243164065 1.352175 Q 1.6987974243164063 1.352175 1.6871724243164063 1.3611749999999998 Q 1.6755474243164064 1.370175 1.6755474243164064 1.3956749999999998 L 1.6755474243164064 1.559175 L 1.7445474243164063 1.559175 Q 1.7850474243164063 1.559175 1.8041724243164063 1.545675 Q 1.8232974243164064 1.5321749999999998 1.8232974243164064 1.505175 Q 1.8232974243164064 1.5036749999999999 1.8277974243164063 1.5036749999999999 Q 1.8322974243164063 1.5036749999999999 1.8322974243164063 1.505175 L 1.8315474243164065 1.5681749999999999 Q 1.8315474243164065 1.5906749999999998 1.8322974243164063 1.6019249999999998 L 1.8330474243164063 1.639425 Q 1.8330474243164063 1.640925 1.8285474243164064 1.640925 Q 1.8240474243164064 1.640925 1.8240474243164064 1.639425 Q 1.8240474243164064 1.6071749999999998 1.8045474243164064 1.5917999999999999 Q 1.7850474243164063 1.576425 1.7422974243164064 1.576425 L 1.6755474243164064 1.576425 L 1.6755474243164064 1.739175 Q 1.6755474243164064 1.763175 1.6819224243164064 1.77405 Q 1.6882974243164064 1.7849249999999999 1.7062974243164064 1.7894249999999998 Q 1.7242974243164064 1.793925 1.7632974243164063 1.793925 Q 1.7647974243164064 1.793925 1.7647974243164064 1.798425 Q 1.7647974243164064 1.8029249999999999 1.7632974243164063 1.8029249999999999 Q 1.7325474243164063 1.8029249999999999 1.7152974243164063 1.8021749999999999 L 1.6447974243164063 1.8014249999999998 L 1.5922974243164063 1.8021749999999999 Q 1.5780474243164064 1.8029249999999999 1.5525474243164064 1.8029249999999999 Q 1.5510474243164063 1.8029249999999999 1.5510474243164063 1.798425 Q 1.5510474243164063 1.793925 1.5525474243164064 1.793925 Q 1.5802974243164063 1.793925 1.5934224243164063 1.7901749999999998 Q 1.6065474243164064 1.786425 1.6110474243164064 1.77555 Q 1.6155474243164063 1.764675 1.6155474243164063 1.7421749999999998 L 1.6155474243164063 1.3949249999999997 Q 1.6155474243164063 1.3724249999999998 1.6110474243164064 1.3619249999999998 Q 1.6065474243164064 1.3514249999999999 1.5941724243164064 1.3473 Q 1.5817974243164064 1.343175 1.5555474243164062 1.343175 Q 1.5532974243164064 1.343175 1.5532974243164064 1.3386749999999998 Q 1.5532974243164064 1.3341749999999999 1.5555474243164062 1.3341749999999999 L 1.8615474243164063 1.3341749999999999 Q 1.8690474243164064 1.3341749999999999 1.8690474243164064 1.340925 L 1.8705474243164064 1.435425 M 2.065922790527344 1.7792999999999999 Q 2.011547790527344 1.746675 1.981922790527344 1.6907999999999999 Q 1.952297790527344 1.634925 1.952297790527344 1.568925 Q 1.952297790527344 1.4916749999999999 1.991297790527344 1.43655 Q 2.030297790527344 1.381425 2.0914227905273437 1.353675 Q 2.152547790527344 1.3259249999999998 2.216297790527344 1.3259249999999998 Q 2.287547790527344 1.3259249999999998 2.341547790527344 1.3593 Q 2.3955477905273437 1.3926749999999999 2.424422790527344 1.447425 Q 2.453297790527344 1.5021749999999998 2.453297790527344 1.563675 Q 2.453297790527344 1.6319249999999998 2.417297790527344 1.6889249999999998 Q 2.381297790527344 1.745925 2.320922790527344 1.7789249999999999 Q 2.260547790527344 1.8119249999999998 2.190047790527344 1.8119249999999998 Q 2.120297790527344 1.8119249999999998 2.065922790527344 1.7792999999999999 M 2.3025477905273437 1.7706749999999998 Q 2.340797790527344 1.745925 2.3629227905273438 1.6983 Q 2.385047790527344 1.650675 2.385047790527344 1.5846749999999998 Q 2.385047790527344 1.5149249999999999 2.360672790527344 1.460175 Q 2.336297790527344 1.405425 2.290922790527344 1.3746749999999999 Q 2.2455477905273438 1.3439249999999998 2.1855477905273437 1.3439249999999998 Q 2.107547790527344 1.3439249999999998 2.064047790527344 1.3967999999999998 Q 2.020547790527344 1.4496749999999998 2.020547790527344 1.542675 Q 2.020547790527344 1.6139249999999998 2.0452977905273437 1.6716749999999998 Q 2.070047790527344 1.729425 2.1146727905273437 1.762425 Q 2.159297790527344 1.7954249999999998 2.216297790527344 1.7954249999999998 Q 2.264297790527344 1.7954249999999998 2.3025477905273437 1.7706749999999998 M 2.5567835083007813 1.3750499999999999 Q 2.5305335083007816 1.400925 2.5177835083007816 1.457925 Q 2.5170335083007815 1.459425 2.5129085083007814 1.459425 Q 2.5087835083007817 1.459425 2.5087835083007817 1.457925 Q 2.5117835083007813 1.436175 2.5155335083007815 1.388925 Q 2.5192835083007816 1.341675 2.5192835083007816 1.317675 Q 2.5192835083007816 1.3139249999999998 2.5237835083007814 1.3139249999999998 Q 2.5282835083007815 1.3139249999999998 2.5282835083007815 1.317675 Q 2.5282835083007815 1.3341749999999999 2.5695335083007813 1.3341749999999999 Q 2.6332835083007815 1.3364249999999998 2.7202835083007812 1.3364249999999998 Q 2.7645335083007816 1.3364249999999998 2.8140335083007812 1.334925 L 2.8650335083007814 1.3341749999999999 Q 2.8927835083007816 1.3341749999999999 2.9055335083007816 1.330425 Q 2.9182835083007816 1.3266749999999998 2.9220335083007813 1.3154249999999998 Q 2.9227835083007814 1.312425 2.9269085083007815 1.312425 Q 2.9310335083007812 1.312425 2.9310335083007812 1.3154249999999998 Q 2.9287835083007816 1.3364249999999998 2.9261585083007815 1.382925 Q 2.9235335083007814 1.429425 2.9235335083007814 1.457925 Q 2.9235335083007814 1.459425 2.9194085083007817 1.459425 Q 2.9152835083007815 1.459425 2.9152835083007815 1.457925 Q 2.9100335083007813 1.400175 2.8852835083007813 1.3746749999999999 Q 2.8605335083007817 1.3491749999999998 2.8117835083007816 1.3491749999999998 Q 2.7840335083007814 1.3491749999999998 2.7720335083007814 1.35255 Q 2.7600335083007814 1.3559249999999998 2.7555335083007817 1.3653 Q 2.7510335083007815 1.3746749999999999 2.7510335083007815 1.3964249999999998 L 2.7510335083007815 1.7421749999999998 Q 2.7510335083007815 1.7654249999999998 2.7559085083007817 1.775925 Q 2.7607835083007815 1.786425 2.7750335083007815 1.7901749999999998 Q 2.7892835083007816 1.793925 2.8207835083007815 1.793925 Q 2.8222835083007816 1.793925 2.8222835083007816 1.798425 Q 2.8222835083007816 1.8029249999999999 2.8207835083007815 1.8029249999999999 Q 2.7945335083007814 1.8029249999999999 2.7795335083007817 1.8021749999999999 L 2.7202835083007812 1.8014249999999998 L 2.6625335083007813 1.8021749999999999 Q 2.6475335083007816 1.8029249999999999 2.6205335083007815 1.8029249999999999 Q 2.6182835083007814 1.8029249999999999 2.6182835083007814 1.798425 Q 2.6182835083007814 1.793925 2.6205335083007815 1.793925 Q 2.6512835083007813 1.793925 2.6655335083007814 1.7901749999999998 Q 2.6797835083007815 1.786425 2.6850335083007817 1.77555 Q 2.6902835083007814 1.764675 2.6902835083007814 1.7421749999999998 L 2.6902835083007814 1.3949249999999997 Q 2.6902835083007814 1.3739249999999998 2.6857835083007817 1.36455 Q 2.6812835083007815 1.3551749999999998 2.6692835083007815 1.352175 Q 2.6572835083007815 1.3491749999999998 2.6295335083007814 1.3491749999999998 Q 2.5830335083007814 1.3491749999999998 2.5567835083007813 1.3750499999999999 M 3.330051452636719 1.687425 Q 3.332301452636719 1.687425 3.3341764526367186 1.6885499999999998 Q 3.3360514526367187 1.6896749999999998 3.3360514526367187 1.6904249999999998 Q 3.328551452636719 1.744425 3.328551452636719 1.791675 Q 3.328551452636719 1.797675 3.3263014526367187 1.8002999999999998 Q 3.3240514526367186 1.8029249999999999 3.317301452636719 1.8029249999999999 L 2.9978014526367187 1.8029249999999999 Q 2.9955514526367186 1.8029249999999999 2.9955514526367186 1.798425 Q 2.9955514526367186 1.793925 2.9978014526367187 1.793925 Q 3.024801452636719 1.793925 3.036801452636719 1.7901749999999998 Q 3.048801452636719 1.786425 3.053301452636719 1.77555 Q 3.0578014526367188 1.764675 3.0578014526367188 1.7421749999999998 L 3.0578014526367188 1.3949249999999997 Q 3.0578014526367188 1.3724249999999998 3.053301452636719 1.3619249999999998 Q 3.048801452636719 1.3514249999999999 3.036426452636719 1.3473 Q 3.024051452636719 1.343175 2.9978014526367187 1.343175 Q 2.9955514526367186 1.343175 2.9955514526367186 1.3386749999999998 Q 2.9955514526367186 1.3341749999999999 2.9978014526367187 1.3341749999999999 L 3.3038014526367188 1.3341749999999999 Q 3.3113014526367186 1.3341749999999999 3.3113014526367186 1.340925 L 3.3128014526367187 1.435425 Q 3.3128014526367187 1.4376749999999998 3.308676452636719 1.4380499999999998 Q 3.304551452636719 1.4384249999999998 3.3038014526367188 1.436175 Q 3.298551452636719 1.3949249999999997 3.274551452636719 1.3735499999999998 Q 3.250551452636719 1.352175 3.211551452636719 1.352175 L 3.1733014526367187 1.352175 Q 3.140301452636719 1.352175 3.129051452636719 1.3615499999999998 Q 3.117801452636719 1.370925 3.117801452636719 1.3979249999999999 L 3.117801452636719 1.5501749999999999 L 3.200301452636719 1.5501749999999999 Q 3.238551452636719 1.5501749999999999 3.2565514526367187 1.5370499999999998 Q 3.274551452636719 1.5239249999999998 3.274551452636719 1.4961749999999998 Q 3.274551452636719 1.494675 3.2786764526367187 1.494675 Q 3.282801452636719 1.494675 3.282801452636719 1.4961749999999998 L 3.282051452636719 1.559175 L 3.282801452636719 1.592925 Q 3.284301452636719 1.616925 3.284301452636719 1.6304249999999998 Q 3.284301452636719 1.6319249999999998 3.2798014526367187 1.6319249999999998 Q 3.275301452636719 1.6319249999999998 3.275301452636719 1.6304249999999998 Q 3.275301452636719 1.598175 3.2569264526367188 1.5827999999999998 Q 3.238551452636719 1.5674249999999998 3.1980514526367188 1.5674249999999998 L 3.117801452636719 1.5674249999999998 L 3.117801452636719 1.739175 Q 3.117801452636719 1.7661749999999998 3.1279264526367188 1.775925 Q 3.1380514526367187 1.785675 3.168801452636719 1.785675 L 3.2175514526367186 1.785675 Q 3.260301452636719 1.785675 3.2884264526367186 1.7605499999999998 Q 3.316551452636719 1.7354249999999998 3.3270514526367188 1.6889249999999998 Q 3.3270514526367188 1.687425 3.330051452636719 1.687425 M 3.7635455932617186 1.3322999999999998 Q 3.8002955932617186 1.3386749999999998 3.8220455932617186 1.3499249999999998 Q 3.828045593261719 1.352925 3.829920593261719 1.3562999999999998 Q 3.8317955932617185 1.3596749999999997 3.8332955932617185 1.3679249999999998 L 3.841545593261719 1.458675 Q 3.841545593261719 1.4609249999999998 3.8377955932617187 1.4612999999999998 Q 3.8340455932617186 1.4616749999999998 3.8332955932617185 1.459425 Q 3.8137955932617187 1.400925 3.769545593261719 1.3720499999999998 Q 3.725295593261719 1.343175 3.6630455932617187 1.343175 Q 3.608295593261719 1.343175 3.5677955932617187 1.3682999999999998 Q 3.5272955932617185 1.393425 3.5059205932617186 1.4391749999999999 Q 3.4845455932617186 1.4849249999999998 3.4845455932617186 1.5449249999999999 Q 3.4845455932617186 1.6146749999999999 3.511545593261719 1.6731749999999999 Q 3.5385455932617185 1.7316749999999999 3.584670593261719 1.7657999999999998 Q 3.630795593261719 1.799925 3.6855455932617187 1.799925 Q 3.793545593261719 1.799925 3.840045593261719 1.676175 Q 3.840045593261719 1.6739249999999999 3.843045593261719 1.6739249999999999 Q 3.8452955932617185 1.6739249999999999 3.8471705932617186 1.674675 Q 3.8490455932617187 1.675425 3.8490455932617187 1.6769249999999998 L 3.8385455932617187 1.7676749999999999 Q 3.8370455932617187 1.7766749999999998 3.8351705932617186 1.7792999999999999 Q 3.8332955932617185 1.781925 3.8265455932617187 1.7849249999999999 Q 3.7575455932617188 1.8119249999999998 3.6855455932617187 1.8119249999999998 Q 3.594795593261719 1.8119249999999998 3.5340455932617187 1.77555 Q 3.4732955932617187 1.739175 3.4447955932617185 1.682925 Q 3.4162955932617187 1.6266749999999999 3.4162955932617187 1.565175 Q 3.4162955932617187 1.495425 3.454920593261719 1.44105 Q 3.4935455932617185 1.3866749999999999 3.5569205932617187 1.3562999999999998 Q 3.6202955932617185 1.3259249999999998 3.6922955932617185 1.3259249999999998 Q 3.7267955932617185 1.3259249999999998 3.7635455932617186 1.3322999999999998 M 4.434800354003906 1.798425 Q 4.434800354003906 1.8029249999999999 4.432550354003906 1.8029249999999999 Q 4.408550354003906 1.8029249999999999 4.3943003540039065 1.8021749999999999 L 4.340300354003906 1.8014249999999998 L 4.281050354003906 1.8021749999999999 Q 4.268300354003906 1.8029249999999999 4.245800354003906 1.8029249999999999 Q 4.243550354003906 1.8029249999999999 4.243550354003906 1.798425 Q 4.243550354003906 1.793925 4.245800354003906 1.793925 Q 4.274300354003906 1.793925 4.287800354003906 1.7901749999999998 Q 4.301300354003906 1.786425 4.305800354003906 1.77555 Q 4.310300354003906 1.764675 4.310300354003906 1.7421749999999998 L 4.310300354003906 1.5674249999999998 L 4.037300354003906 1.5674249999999998 L 4.037300354003906 1.7421749999999998 Q 4.037300354003906 1.764675 4.041800354003906 1.77555 Q 4.046300354003906 1.786425 4.059800354003906 1.7901749999999998 Q 4.073300354003906 1.793925 4.101800354003906 1.793925 Q 4.103300354003906 1.793925 4.103300354003906 1.798425 Q 4.103300354003906 1.8029249999999999 4.101800354003906 1.8029249999999999 Q 4.077800354003906 1.8029249999999999 4.063550354003906 1.8021749999999999 L 4.005800354003906 1.8014249999999998 L 3.952550354003906 1.8021749999999999 Q 3.938300354003906 1.8029249999999999 3.913550354003906 1.8029249999999999 Q 3.912050354003906 1.8029249999999999 3.912050354003906 1.798425 Q 3.912050354003906 1.793925 3.913550354003906 1.793925 Q 3.941300354003906 1.793925 3.954425354003906 1.7901749999999998 Q 3.967550354003906 1.786425 3.972425354003906 1.77555 Q 3.977300354003906 1.764675 3.977300354003906 1.7421749999999998 L 3.977300354003906 1.3949249999999997 Q 3.977300354003906 1.3724249999999998 3.972800354003906 1.3619249999999998 Q 3.968300354003906 1.3514249999999999 3.955550354003906 1.3473 Q 3.942800354003906 1.343175 3.915050354003906 1.343175 Q 3.912800354003906 1.343175 3.912800354003906 1.3386749999999998 Q 3.912800354003906 1.3341749999999999 3.915050354003906 1.3341749999999999 L 3.953300354003906 1.334925 Q 3.984800354003906 1.3364249999999998 4.005800354003906 1.3364249999999998 Q 4.029800354003906 1.3364249999999998 4.064300354003906 1.334925 L 4.101800354003906 1.3341749999999999 Q 4.103300354003906 1.3341749999999999 4.103300354003906 1.3386749999999998 Q 4.103300354003906 1.343175 4.101800354003906 1.343175 Q 4.074050354003906 1.343175 4.060550354003906 1.347675 Q 4.047050354003906 1.352175 4.042175354003906 1.3630499999999999 Q 4.037300354003906 1.3739249999999998 4.037300354003906 1.3964249999999998 L 4.037300354003906 1.5501749999999999 L 4.310300354003906 1.5501749999999999 L 4.310300354003906 1.3964249999999998 Q 4.310300354003906 1.3739249999999998 4.305425354003906 1.3630499999999999 Q 4.300550354003906 1.352175 4.287425354003906 1.347675 Q 4.274300354003906 1.343175 4.245800354003906 1.343175 Q 4.243550354003906 1.343175 4.243550354003906 1.3386749999999998 Q 4.243550354003906 1.3341749999999999 4.245800354003906 1.3341749999999999 L 4.281050354003906 1.334925 Q 4.315550354003906 1.3364249999999998 4.340300354003906 1.3364249999999998 Q 4.361300354003906 1.3364249999999998 4.3943003540039065 1.334925 L 4.432550354003906 1.3341749999999999 Q 4.434800354003906 1.3341749999999999 4.434800354003906 1.3386749999999998 Q 4.434800354003906 1.343175 4.432550354003906 1.343175 Q 4.404800354003906 1.343175 4.392050354003906 1.3473 Q 4.379300354003906 1.3514249999999999 4.374425354003906 1.3619249999999998 Q 4.369550354003906 1.3724249999999998 4.369550354003906 1.3949249999999997 L 4.369550354003906 1.7421749999999998 Q 4.369550354003906 1.764675 4.374425354003906 1.77555 Q 4.379300354003906 1.786425 4.392050354003906 1.7901749999999998 Q 4.404800354003906 1.793925 4.432550354003906 1.793925 Q 4.434800354003906 1.793925 4.434800354003906 1.798425" fill="#0094ff" fill-rule="nonzero"></path></g><g clip-path="url(&quot;#SvgjsClipPath1002&quot;)"><g clip-path="url(&quot;#SvgjsClipPath1000&quot;)"><path d=" M 2.584542846679687 -0.36592123092011253 C 3.288444169783398 -0.36270556778639484 3.9248241180931465 -0.7842525299178496 4.196423212493631 -1.433653288369348 C 4.468022306894115 -2.083054046820848 4.321238209855302 -2.832143967157169 3.82463525050802 -3.331015607886592 C 3.3280322911607367 -3.829887248616015 2.5796191889526807 -3.9800841471735033 1.9289872368155816 -3.711447820488498 C 1.2783552846784825 -3.4428114938034935 0.8539121033492894 -2.808359552584831 0.8539193749112749 -2.1044508844298853 C 0.8528649637181057 -1.6444107568887656 1.0346070566479422 -1.2027944644306152 1.3591632088168726 -0.876755609659944 C 1.6837193609858028 -0.5507167548892742 2.1245026918723937 -0.3669636778551135 2.5845428466798412 -0.3659212309201134 Z M 2.584542846679687 -0.25 C 3.3353785877763245 -0.2465650831438566 4.014193536790669 -0.6962159100964849 4.303905782388446 -1.3889156455610205 C 4.593618027986224 -2.081615381025556 4.437050313858206 -2.880653647992325 3.907337137294168 -3.412790904098663 C 3.3776239607301304 -3.944928160205001 2.579308869774738 -4.105142444017063 1.8852936033403138 -3.8185959055317746 C 1.19127833690589 -3.5320493670464863 0.7385329035937706 -2.855294482468953 0.7385396632885146 -2.1044508844298857 C 0.7374181489021541 -1.61373977601325 0.931277457929537 -1.1426815366389387 1.2774704860975212 -0.7949042559463728 C 1.6236635142655054 -0.4471269752538065 2.0938317324248183 -0.2511189570201182 2.5845428466796534 -0.25 Z" fill="url(#gradient-0386683f-6167-426e-b302-65804f0fcc4f_0)" transform="matrix(1,0,0,1,0,0)" fill-rule="evenodd"></path></g><g clip-path="url(&quot;#SvgjsClipPath1000&quot;)"><path d=" M 2.192266267676901 -1.0613403125813194 C 2.896177118248666 -1.0580661372783258 3.5325989368044923 -1.4795718678134575 3.8042456995234764 -2.1289633076098857 C 4.075892462242461 -2.778354747406313 3.9291508601024825 -3.527465362875919 3.4325669833810495 -4.0263698218226125 C 2.935983106659615 -4.525274280769306 2.1875647673092313 -4.675506771702104 1.5369139207829718 -4.406890536728783 C 0.8862630742567116 -4.1382743017554615 0.4617948157729336 -3.5038245326266457 0.46178720105444915 -2.7999060673775817 C 0.45961138413070823 -1.8419793544876892 1.2343398214884678 -1.0636305397366077 2.192266267676822 -1.0613403125813194 Z M 2.192266267676901 -0.9454190816612074 C 2.9430987229605776 -0.941984179847652 3.621911372008777 -1.3916311067195717 3.911625720935413 -2.0843264008307694 C 4.2013400698620496 -2.7770216949419675 4.04477897162868 -3.576057109597136 3.5150732927543573 -4.108197192870399 C 2.9853676138800345 -4.640337276143663 2.1870584639104402 -4.800560471805273 1.493042051074402 -4.514025320083914 C 0.7990256382383643 -4.227490168362556 0.34627094122415325 -3.5507463795585763 0.34626308428572833 -2.7999060673775826 C 0.3439276373617064 -1.77804692396295 1.170407157658849 -0.9477690955485683 2.192266267676965 -0.9454190816612074 Z" fill="url(#gradient-0386683f-6167-426e-b302-65804f0fcc4f_1)" transform="matrix(1,0,0,1,0,0)" fill-rule="evenodd"></path></g><g clip-path="url(&quot;#SvgjsClipPath1000&quot;)"><path d=" M 2.976819425682473 -1.0613403125813194 C 3.6807174629760206 -1.0581246644590747 4.317095111350033 -1.4796677264942262 4.58869630910524 -2.1290640436045805 C 4.860297506860446 -2.7784603607149343 4.713520025725437 -3.5275474287728956 4.216924564052535 -4.0264218966948695 C 3.7203291023796345 -4.525296364616843 2.9719219411246716 -4.675502175031415 2.3212888425635603 -4.40687723509597 C 1.6706557440024494 -4.138252295160525 1.2462032989685636 -3.503811449687311 1.2461959539140608 -2.799906067377583 C 1.244020196551202 -1.841923094022194 2.0188365321212185 -1.063550923961326 2.976819425682542 -1.0613403125813194 Z M 2.976819425682473 -0.9454190816612074 C 3.7276518809661505 -0.941984179847652 4.40646453001435 -1.3916311067195717 4.6961788789409855 -2.0843264008307694 C 4.9858932278676225 -2.7770216949419675 4.829332129634253 -3.576057109597136 4.29962645075993 -4.108197192870399 C 3.769920771885607 -4.640337276143663 2.9716116219160122 -4.800560471805273 2.2775952090799745 -4.514025320083914 C 1.583578796243937 -4.227490168362556 1.1308240992297258 -3.5507463795585763 1.130816242291301 -2.7999060673775826 C 1.1284807953672789 -1.77804692396295 1.9549603156644213 -0.9477690955485683 2.976819425682537 -0.9454190816612074 Z" fill="url(#gradient-0386683f-6167-426e-b302-65804f0fcc4f_2)" transform="matrix(1,0,0,1,0,0)" fill-rule="evenodd"></path></g></g></g><defs><clipPath id="SvgjsClipPath1002"><path d=" M 0.3462630842857286 -4.6543569518074674 h 4.476559524787917 v 4.4043569518074674 h -4.476559524787917 Z"></path></clipPath><clipPath id="SvgjsClipPath1000"><path d=" M 0.3462630842857286 -4.6543569518074674 L 4.822822609073645 -4.6543569518074674 L 4.822822609073645 -0.25 L 0.3462630842857286 -0.25 Z"></path></clipPath><linearGradient id="gradient-0386683f-6167-426e-b302-65804f0fcc4f_0" x1="0" x2="1" y1="0" y2="1"><stop stop-color="#31769f" offset="0"></stop><stop stop-color="#12243b" offset="1"></stop></linearGradient><linearGradient id="gradient-0386683f-6167-426e-b302-65804f0fcc4f_1" x1="0" x2="1" y1="0" y2="1"><stop stop-color="#3682ae" offset="0"></stop><stop stop-color="#163049" offset="1"></stop></linearGradient><linearGradient id="gradient-0386683f-6167-426e-b302-65804f0fcc4f_2" x1="0" x2="1" y1="0" y2="1"><stop stop-color="#3279a3" offset="0"></stop><stop stop-color="#13283f" offset="1"></stop></linearGradient></defs></svg>