<?xml version="1.0" encoding="UTF-8"?> <svg xmlns="http://www.w3.org/2000/svg" width="448.69" height="284.253" viewBox="0 0 448.69 284.253"><g id="Group_15393" data-name="Group 15393" transform="translate(-1101.31 -108.96)"><g id="Group_15359" data-name="Group 15359" transform="translate(1181.258 132.152)"><g id="Group_15358" data-name="Group 15358"><path id="Path_14760" data-name="Path 14760" d="M1415.557,764.873q-1.783-.266-3.556-.6-.613,1.3-1.133,2.728c-3.223,8.87-3.211,20.26-3.2,30.311v1.706h3.452v-1.709c-.01-10.242-.021-20.832,2.994-29.129A27.714,27.714,0,0,1,1415.557,764.873Z" transform="translate(-1248.627 -750.563)" fill="#fff"></path><g id="Group_15347" data-name="Group 15347" transform="translate(154.076 45.765)"><ellipse id="Ellipse_11" data-name="Ellipse 11" cx="9.606" cy="11.557" rx="9.606" ry="11.557" fill="#fff"></ellipse></g><path id="Path_14761" data-name="Path 14761" d="M1004.956,1374.827s-6.055-.559-9.906-.924-16.061-2.849-30.771-1.124c-9.165,1.074-18.865,6.446-24.144,19.645h59.222s2.046-5.761,5.6-5.6Z" transform="translate(-940.135 -1151.674)" fill="#fecdac"></path><path id="Path_14762" data-name="Path 14762" d="M1563.536,974.074c-1.111-1.746-5.539-2.217-5.539-2.217l-.767,9.422,6.707-2.337Z" transform="translate(-1347.314 -887.531)" fill="#a5a2cf"></path><path id="Path_14763" data-name="Path 14763" d="M1099.354,1166.5q2.4,9.6,4.784,19.18c19.568-.652,81.3,1.21,90.732-8.227,8.69-8.676,8.4-47.494,9.44-62.677.11-1.623.253-3.251.406-4.875,1-11.235,2.387-22.623-1.6-33.074-1.232-3.247.688-5.448-3.156-6.489-3.82-1.031,3.625-9.09.646-7.348-4.469,2.631-10.74,4.844-18.96,16.424-13.339,18.79-9.679,79.646-11.651,81.829C1167.24,1164.3,1139.127,1163.072,1099.354,1166.5Z" transform="translate(-1045.193 -947.502)" fill="#f5bc54"></path><path id="Path_14764" data-name="Path 14764" d="M1113.418,1262.48c19.568-.652,81.3,1.21,90.732-8.227,8.69-8.676,8.4-47.494,9.44-62.677.109-1.623.253-3.251.406-4.875-3.743-3.658-7.635-7.549-13.054-7.563-1.418,18.87,2.9,58.451-6.484,68.492C1184.521,1258.265,1113.418,1262.48,1113.418,1262.48Z" transform="translate(-1054.473 -1024.302)" fill="#ebeba6" style="mix-blend-mode: multiply;isolation: isolate"></path><g id="Group_15352" data-name="Group 15352" transform="translate(152.637 1.767)"><path id="Path_14765" data-name="Path 14765" d="M1472.328,934.067c.129,4.746.554,11.55.888,17.757.186,3.428.349,6.68.425,9.3.1,3.467-.592,13.3,11.268,13.412,7.177.071,12.156-3.815,17.494-8.58,2.917-2.607,6.818-8.212,7.3-12.094-2.254-6.2-3.261-7.811-3.805-13.3-.239-2.4-.4-4.732-.5-6.828-.244-5.018-.177-8.68-.177-8.68-.73-1.533-3.968-.788-5.414-.425-7.071,1.781-17.819,12.782-20.965,6.207C1478.63,930.391,1472.284,932.444,1472.328,934.067Z" transform="translate(-1443.929 -857.806)" fill="#fecdac"></path><path id="Path_14766" data-name="Path 14766" d="M1472.328,934.067c.129,4.746.64,13.156.974,19.363,9.181-.568,17.532-6.453,24.933-11.7a18.722,18.722,0,0,0,7.135-8.672c-.243-5.018-.145-8-.145-8-.73-1.533-3.968-.788-5.414-.425-7.071,1.781-17.819,12.782-20.965,6.207C1478.63,930.391,1472.284,932.444,1472.328,934.067Z" transform="translate(-1443.929 -857.806)" fill="#fee4d3" style="mix-blend-mode: multiply;isolation: isolate"></path><g id="Group_15348" data-name="Group 15348"><path id="Path_14767" data-name="Path 14767" d="M1410.68,783.863s.764,14.254,3.715,32.549c.606,3.758,1.007,7.319,1.461,10.165.669,4.178,6.446,13.77,16.353,13.182,9.225-.544,17.7-4.832,25.134-10.1a34.615,34.615,0,0,0,3.438-2.717,13.186,13.186,0,0,0,4.273-7.047c1.017-4.168.773-10.079-.1-20.044-.425-4.875-1-10.714-1.657-17.795-.587-6.346-1.208-12.357-5.739-17.136a21.8,21.8,0,0,0-7.076-4.507,45.982,45.982,0,0,0-11.01-3.547,31.592,31.592,0,0,0-20.9,3.882C1407.261,767.329,1411.043,774.992,1410.68,783.863Z" transform="translate(-1403.037 -747.164)" fill="#fecdac"></path><path id="Path_14768" data-name="Path 14768" d="M1398.813,736.121c-4.846,2.013-10.507,9.311-9.928,16.405.663,8.11,9.319,10.717,11.684,10.787,16.577.492,31.929-7.355,41.193-7.144,1.149.026,1.652,5.7,3.358,12.4,1.168,4.592,2.888,10.209,5.811,12.684.747.633.962,19.017-.644,22.481,8.974-2.278,14.1-25.135,15.126-34.942,1.078-10.321-2.114-21.523-9.73-25.805-2.3-1.3-2.021-9.922-11.034-12.2C1434.868,728.322,1419.217,727.645,1398.813,736.121Z" transform="translate(-1388.844 -729.156)" fill="#0f3e66"></path><path id="Path_14769" data-name="Path 14769" d="M1566.18,860.065a5.259,5.259,0,0,1,3-2.045,4.946,4.946,0,0,1,3.88.964,7.98,7.98,0,0,1,2.4,3.163,14.453,14.453,0,0,1-.049,11.415c-1.946,4.7-6.565,8.167-8.6,7.51-1.267-.409-1.479-1.835-1.584-2.989q-.4-4.41-.806-8.819a21.408,21.408,0,0,1-.268-5.345A10.737,10.737,0,0,1,1566.18,860.065Z" transform="translate(-1504.449 -814.127)" fill="#fecdac"></path></g><path id="Path_14770" data-name="Path 14770" d="M1430.733,890.015a32.112,32.112,0,0,1,7.276-.382c8.651.86,8.055,7.224,12.218,9.755a7.409,7.409,0,0,0,7.391-.291c5.773-3.323,10.585-14.687,12.132-21.376.31-1.361.276-4.671,1.207-5.621.867,6.75,2.293,14.693,1.927,24.363-.536,2.944-2.638,5.289-4.266,6.788a34.577,34.577,0,0,1-3.438,2.717c-7.429,5.271-15.909,9.559-25.134,10.1-9.907.587-15.684-9-16.353-13.183-.453-2.846-1.046-6.017-1.461-10.165C1424.306,890.9,1427.939,890.378,1430.733,890.015Z" transform="translate(-1410.876 -823.474)" fill="#0f3e66"></path><g id="Group_15351" data-name="Group 15351" transform="translate(4.993 42.693)"><g id="Group_15349" data-name="Group 15349" transform="translate(19.512)"><path id="Path_14771" data-name="Path 14771" d="M1461.057,864.254l-.172-4.422a4.578,4.578,0,0,1,4.4-4.753l10.667-.414a4.579,4.579,0,0,1,4.753,4.4l.171,4.422a4.583,4.583,0,0,1-4.4,4.752l-10.667.414q-.091,0-.18,0A4.584,4.584,0,0,1,1461.057,864.254Zm15.326,1.6a2.193,2.193,0,0,0,2.1-2.275l-.172-4.423a2.194,2.194,0,0,0-2.274-2.1l-10.667.414a2.191,2.191,0,0,0-2.1,2.275l.172,4.423a2.206,2.206,0,0,0,2.274,2.1Z" transform="translate(-1460.882 -854.661)" fill="#0f3e66"></path></g><g id="Group_15350" data-name="Group 15350" transform="translate(0 0.83)"><path id="Path_14772" data-name="Path 14772" d="M1403.714,866.83l-.188-4.841a4.374,4.374,0,0,1,4.2-4.535l9-.349a4.37,4.37,0,0,1,4.536,4.2l.188,4.841a4.37,4.37,0,0,1-4.2,4.536l-9,.349h0c-.057,0-.114,0-.171,0A4.374,4.374,0,0,1,1403.714,866.83Zm4.442,1.811,9-.349a1.982,1.982,0,0,0,1.9-2.057l-.188-4.841a1.982,1.982,0,0,0-2.057-1.9l-8.995.349a1.984,1.984,0,0,0-1.9,2.057l.188,4.842a1.986,1.986,0,0,0,2.057,1.9Z" transform="translate(-1403.522 -857.1)" fill="#0f3e66"></path></g><rect id="Rectangle_4137" data-name="Rectangle 4137" width="17.007" height="1.692" transform="translate(55.179 4.958) rotate(177.777)" fill="#0f3e66"></rect><rect id="Rectangle_4138" data-name="Rectangle 4138" width="4.166" height="1.692" transform="translate(20.827 5.244) rotate(177.777)" fill="#0f3e66"></rect></g></g><path id="Path_14773" data-name="Path 14773" d="M1368.731,1149.931q.231,5.756.51,11.295H1457.9c.618-22.944,1.587-49.687,1.622-65.142.089-39.939,9.953-49.693,17.449-66.742-17.333-14.155-37.611-22.683-39.908-22.869-5.1,3.516-16.077,14.818-25.044,15.373a11.865,11.865,0,0,1-11.858-9.889c-5.481,1.861,2.952-4.045-34.866,19.127-8.57,4,1.677,68.483,2.8,101.38C1368.3,1138.4,1368.5,1144.238,1368.731,1149.931Z" transform="translate(-1218.434 -910.371)" fill="#ffc458"></path><path id="Path_14774" data-name="Path 14774" d="M1459.646,1015.242l-5.331,18.654s6.116-11.7,9.365-10.582Z" transform="translate(-1279.407 -916.158)" fill="#fff"></path><path id="Path_14775" data-name="Path 14775" d="M1471.741,1011.914s-2.138.653-1.791,1.453c.9,2.067,2.77,5.29,4.021,7.75C1472.993,1017.754,1471.9,1015.148,1471.741,1011.914Z" transform="translate(-1289.699 -913.962)" fill="#fff"></path><path id="Path_14776" data-name="Path 14776" d="M1533.195,978.375c.24,1.687-3.932,5.426-6.723,8.178s-15.225,13.852-15.225,13.852l5.712,12.851s16.615-12.323,23.2-23.563Z" transform="translate(-1316.972 -891.831)" fill="#fff"></path><g id="Group_15353" data-name="Group 15353" transform="translate(130.92 219.596)"><path id="Path_14777" data-name="Path 14777" d="M1344.891,1374.538c-3.754,1.4-10.287,4.311-13.335,6.911s-7.678,7.346-6.3,9.181c1.152,1.54,3.588.654,5.347-.123,4.547-2.008,12.147-7.164,17.027-6.79-.522,1.534-.54,4.007.672,4.8.83.54,3.07.6,5.731.489,6.1-.265,12.586-.783,18.454-.222,1.753.167,5.233.836,6.978.6,1.435-.191,1.5-6.424,1.74-8.44a54.751,54.751,0,0,0,.1-8.971c-7.23-.475-19.392-.664-26.974.406A53.249,53.249,0,0,0,1344.891,1374.538Z" transform="translate(-1325.003 -1370.885)" fill="#ebb48f"></path><path id="Path_14778" data-name="Path 14778" d="M1344.266,1374.341a39.747,39.747,0,0,0-10.371,6.384c-3.048,2.6-7.678,7.346-6.3,9.181,1.152,1.54,3.588.654,5.347-.123,4.547-2.007,9.58-6.883,14.46-6.509-.522,1.534-.541,4.007.671,4.8.83.54,5.637.323,8.3.208,6.1-.265,12.586-.783,18.454-.223a43.414,43.414,0,0,0,7.188-.538c1.435-.191,1.293-5.282,1.531-7.3a71.549,71.549,0,0,0,.005-10.557,164.623,164.623,0,0,0-27.4,1.3A48.745,48.745,0,0,0,1344.266,1374.341Z" transform="translate(-1326.547 -1369.512)" fill="#fecdac"></path></g><g id="Group_15354" data-name="Group 15354" transform="translate(180.601 175.924)" style="mix-blend-mode: multiply;isolation: isolate"><path id="Path_14779" data-name="Path 14779" d="M1531.779,1241.128c-.209,6.547-.238,7.017-.311,11.672-.134,8.147-.683,19.816-1.142,32.281-5.949,3.55-24.677,3.542-31.249,4.466-5.638.791-20.5-3.669-28.024-7.1C1529.207,1273.6,1523.1,1271.555,1531.779,1241.128Z" transform="translate(-1471.052 -1241.128)" fill="#ebeba6"></path></g><path id="Path_14780" data-name="Path 14780" d="M1528.267,1098.348c-2.562,14.692,4.7,35.708,11.222,65.92-21.236,5.486-48.722,5.722-68.622,7.6,0,6-.1,15.282-.1,21.674,77.228,8.464,103.258,3.813,107.065-7.529,2.327-6.932-7.6-51.954-16.65-91.983-2.163-9.57-8.965-19.82-12.38-20.434C1541.966,1072.363,1529.473,1091.433,1528.267,1098.348Z" transform="translate(-1290.265 -954.622)" fill="#ffc458"></path><g id="Group_15357" data-name="Group 15357" transform="translate(186.628 45.29)"><g id="Group_15356" data-name="Group 15356" transform="translate(20.103)"><g id="Group_15355" data-name="Group 15355"><rect id="Rectangle_4139" data-name="Rectangle 4139" width="3.702" height="23.115" transform="translate(9.323 0)" fill="#3d5f7a"></rect><ellipse id="Ellipse_12" data-name="Ellipse 12" cx="9.606" cy="11.557" rx="9.606" ry="11.557" fill="#fff"></ellipse><ellipse id="Ellipse_13" data-name="Ellipse 13" cx="8.836" cy="11.557" rx="8.836" ry="11.557" transform="translate(4.189)" fill="#fff"></ellipse></g><ellipse id="Ellipse_14" data-name="Ellipse 14" cx="7.059" cy="9.259" rx="7.059" ry="9.259" transform="translate(6.749 2.298)" fill="#2d95d1"></ellipse></g><path id="Path_14781" data-name="Path 14781" d="M1514.477,926.315l.87,2.171a83.062,83.062,0,0,0,11.086-4.289,89.525,89.525,0,0,0,10.188-7.089l-1.343-1.962a91.994,91.994,0,0,1-10.117,6.979A55.885,55.885,0,0,1,1514.477,926.315Z" transform="translate(-1505.732 -895.401)" fill="#fff"></path><rect id="Rectangle_4140" data-name="Rectangle 4140" width="6.597" height="11.016" rx="3.298" transform="matrix(0.266, 0.964, -0.964, 0.266, 10.621, 28.112)" fill="#2d95d1"></rect></g><path id="Path_14782" data-name="Path 14782" d="M1475.331,731.693c-5.727-5.515-13.793-8.1-23.96-7.689-7.057.286-11.536.481-16.1,3.5a5.356,5.356,0,0,0-1.727,3.172c2.311-.787,3.284-1.106,5.321-1.652,5.508-1.476,7.7-1.372,12.646-1.572,9.194-.373,16.4,1.89,21.427,6.727,9.632,9.275,9.585,26.2,9.56,35.3q0,.694,0,1.328h3.452q0-.63,0-1.319C1485.974,759.878,1486.024,741.99,1475.331,731.693Z" transform="translate(-1265.701 -723.961)" fill="#fff"></path></g></g><g id="Group_15361" data-name="Group 15361" transform="translate(1242.409 373.45)"><path id="Rectangle_4141" data-name="Rectangle 4141" d="M0,0H5.93a0,0,0,0,1,0,0V0a.994.994,0,0,1-.994.994H.993A.993.993,0,0,1,0,0V0A0,0,0,0,1,0,0Z" transform="translate(93.341 0.994) rotate(180)" fill="#6282a8"></path><path id="Rectangle_4142" data-name="Rectangle 4142" d="M0,0H5.93a0,0,0,0,1,0,0V0a.994.994,0,0,1-.994.994H.994A.994.994,0,0,1,0,0V0A0,0,0,0,1,0,0Z" transform="translate(86.617 0.994) rotate(180)" fill="#6282a8"></path><path id="Rectangle_4143" data-name="Rectangle 4143" d="M0,0H5.93a0,0,0,0,1,0,0V0a.994.994,0,0,1-.994.994H.994A.994.994,0,0,1,0,0V0A0,0,0,0,1,0,0Z" transform="translate(79.893 0.994) rotate(180)" fill="#6282a8"></path><path id="Rectangle_4144" data-name="Rectangle 4144" d="M0,0H5.93a0,0,0,0,1,0,0V0a.994.994,0,0,1-.994.994H.994A.994.994,0,0,1,0,0V0A0,0,0,0,1,0,0Z" transform="translate(73.169 0.994) rotate(180)" fill="#6282a8"></path><path id="Rectangle_4145" data-name="Rectangle 4145" d="M0,0H5.93a0,0,0,0,1,0,0V0a.994.994,0,0,1-.994.994H.993A.993.993,0,0,1,0,0V0A0,0,0,0,1,0,0Z" transform="translate(66.445 0.994) rotate(180)" fill="#6282a8"></path><path id="Rectangle_4146" data-name="Rectangle 4146" d="M0,0H5.93a0,0,0,0,1,0,0V0a.994.994,0,0,1-.994.994H.994A.994.994,0,0,1,0,0V0A0,0,0,0,1,0,0Z" transform="translate(59.722 0.994) rotate(180)" fill="#6282a8"></path><path id="Rectangle_4147" data-name="Rectangle 4147" d="M0,0H5.93a0,0,0,0,1,0,0V0a.994.994,0,0,1-.994.994H.994A.994.994,0,0,1,0,0V0A0,0,0,0,1,0,0Z" transform="translate(52.998 0.994) rotate(180)" fill="#6282a8"></path><path id="Rectangle_4148" data-name="Rectangle 4148" d="M0,0H5.93a0,0,0,0,1,0,0V0a.994.994,0,0,1-.994.994H.993A.993.993,0,0,1,0,0V0A0,0,0,0,1,0,0Z" transform="translate(46.274 0.994) rotate(180)" fill="#6282a8"></path><path id="Rectangle_4149" data-name="Rectangle 4149" d="M0,0H5.93a0,0,0,0,1,0,0V0a.993.993,0,0,1-.993.993H.994A.994.994,0,0,1,0,0V0A0,0,0,0,1,0,0Z" transform="translate(39.55 0.994) rotate(180)" fill="#6282a8"></path><path id="Rectangle_4150" data-name="Rectangle 4150" d="M0,0H5.93a0,0,0,0,1,0,0V0a.994.994,0,0,1-.994.994H.994A.994.994,0,0,1,0,0V0A0,0,0,0,1,0,0Z" transform="translate(32.826 0.994) rotate(180)" fill="#6282a8"></path><path id="Rectangle_4151" data-name="Rectangle 4151" d="M0,0H5.93a0,0,0,0,1,0,0V0a.994.994,0,0,1-.994.994H.994A.994.994,0,0,1,0,0V0A0,0,0,0,1,0,0Z" transform="translate(26.102 0.994) rotate(180)" fill="#6282a8"></path><path id="Rectangle_4152" data-name="Rectangle 4152" d="M0,0H5.93a0,0,0,0,1,0,0V0a.994.994,0,0,1-.994.994H.993A.993.993,0,0,1,0,0V0A0,0,0,0,1,0,0Z" transform="translate(19.378 0.994) rotate(180)" fill="#6282a8"></path><path id="Rectangle_4153" data-name="Rectangle 4153" d="M0,0H5.93a0,0,0,0,1,0,0V0a.994.994,0,0,1-.994.994H.994A.994.994,0,0,1,0,0V0A0,0,0,0,1,0,0Z" transform="translate(12.654 0.994) rotate(180)" fill="#6282a8"></path><path id="Rectangle_4154" data-name="Rectangle 4154" d="M0,0H5.93a0,0,0,0,1,0,0V0a.994.994,0,0,1-.994.994H.994A.994.994,0,0,1,0,0V0A0,0,0,0,1,0,0Z" transform="translate(5.93 0.994) rotate(180)" fill="#6282a8"></path></g><g id="Group_15362" data-name="Group 15362" transform="translate(1338.352 373.72)"><path id="Rectangle_4155" data-name="Rectangle 4155" d="M0,0H5.93a0,0,0,0,1,0,0V0a.993.993,0,0,1-.993.993H.994A.994.994,0,0,1,0,0V0A0,0,0,0,1,0,0Z" transform="translate(39.432 4.036) rotate(-175.584)" fill="#6282a8"></path><path id="Rectangle_4156" data-name="Rectangle 4156" d="M0,0H5.93a0,0,0,0,1,0,0V0a.994.994,0,0,1-.994.994H.994A.994.994,0,0,1,0,0V0A0,0,0,0,1,0,0Z" transform="translate(32.728 3.518) rotate(-175.584)" fill="#6282a8"></path><path id="Rectangle_4157" data-name="Rectangle 4157" d="M0,0H5.93a0,0,0,0,1,0,0V0a.993.993,0,0,1-.993.993H.994A.994.994,0,0,1,0,0V0A0,0,0,0,1,0,0Z" transform="translate(26.024 3) rotate(-175.584)" fill="#6282a8"></path><path id="Rectangle_4158" data-name="Rectangle 4158" d="M0,0H5.93a0,0,0,0,1,0,0V0a.994.994,0,0,1-.994.994H.993A.993.993,0,0,1,0,0V0A0,0,0,0,1,0,0Z" transform="translate(19.321 2.483) rotate(-175.584)" fill="#6282a8"></path><path id="Rectangle_4159" data-name="Rectangle 4159" d="M0,0H5.93a0,0,0,0,1,0,0V0a.994.994,0,0,1-.994.994H.994A.994.994,0,0,1,0,0V0A0,0,0,0,1,0,0Z" transform="translate(12.617 1.965) rotate(-175.584)" fill="#6282a8"></path><path id="Rectangle_4160" data-name="Rectangle 4160" d="M0,0H5.93a0,0,0,0,1,0,0V0a.994.994,0,0,1-.994.994H.994A.994.994,0,0,1,0,0V0A0,0,0,0,1,0,0Z" transform="translate(5.913 1.447) rotate(-175.584)" fill="#6282a8"></path></g><path id="Path_14783" data-name="Path 14783" d="M1136.711,1423.084v-.073h95.146v5.332h-95.146v-.073c-1.093,0-1.978-1.161-1.978-2.593S1135.619,1423.084,1136.711,1423.084Z" transform="translate(104.721 -1049.064)" fill="#c6dcf7"></path><g id="Group_15364" data-name="Group 15364" transform="translate(1334.6 373.947)"><path id="Path_14784" data-name="Path 14784" d="M1462.717,1428.268a.3.3,0,0,0,.305-.35,1.829,1.829,0,0,0-1.882-1.707l-40.717-3.2,1.143,4.781Z" transform="translate(-1418.387 -1423.014)" fill="#dceffa"></path><g id="Group_15363" data-name="Group 15363"><path id="Path_14785" data-name="Path 14785" d="M1414.436,1425.677c0,1.472.886,2.666,1.979,2.666s1.978-1.194,1.978-2.666-.886-2.666-1.978-2.666S1414.436,1424.2,1414.436,1425.677Z" transform="translate(-1414.436 -1423.011)" fill="#dceffa"></path><path id="Path_14786" data-name="Path 14786" d="M1416.72,1427.707c0,.894.538,1.619,1.2,1.619s1.2-.725,1.2-1.619-.538-1.619-1.2-1.619S1416.72,1426.813,1416.72,1427.707Z" transform="translate(-1415.943 -1425.041)" fill="#a2c3eb"></path></g></g><g id="Group_15366" data-name="Group 15366" transform="translate(1101.31 252.31)"><path id="Path_14787" data-name="Path 14787" d="M752.612,1172.217H922.575l-15.061-106.784H737.551Z" transform="translate(-734.516 -1065.433)" fill="#80afc9"></path><path id="Path_14788" data-name="Path 14788" d="M1234.661,1069.067l13.87,98.337a4.223,4.223,0,0,1-4.182,4.813h0a4.223,4.223,0,0,1-4.182-3.633l-13.87-98.337a4.223,4.223,0,0,1,4.182-4.813h0A4.223,4.223,0,0,1,1234.661,1069.067Z" transform="translate(-1056.978 -1065.433)" fill="#a9cadd"></path><path id="Path_14789" data-name="Path 14789" d="M737.034,1069.067,750.9,1167.4a4.223,4.223,0,0,1-4.182,4.813h0a4.223,4.223,0,0,1-4.182-3.633l-13.87-98.337a4.223,4.223,0,0,1,4.182-4.813h0A4.223,4.223,0,0,1,737.034,1069.067Z" transform="translate(-728.628 -1065.433)" fill="#80afc9"></path></g><path id="Path_14790" data-name="Path 14790" d="M995.245,1209.679l10.7,57.716H971.9l13.044-57.716Z" transform="translate(212.162 -908.301)" fill="#c6d1e6" style="mix-blend-mode: multiply;isolation: isolate"></path><g id="Group_15368" data-name="Group 15368" transform="translate(1159.11 299.303)"><g id="Group_15367" data-name="Group 15367"><path id="Path_14791" data-name="Path 14791" d="M942.5,1279.859s-12.288-5.715-13.437-22.72l17.423-51.658c-.812-.166-.8-.863-.853-1.9H923.784a4.394,4.394,0,0,0-3.451,2.437L900.5,1245.469a33.777,33.777,0,0,0,1.239,25.674c3.762,7.762,10.2,12.393,17.223,12.393h29.491Zm-14.577-43.518c-1.619,4.6-6.071,7.222-9.942,5.858s-5.7-6.2-4.078-10.8,6.071-7.222,9.942-5.858S929.54,1231.742,927.92,1236.341Z" transform="translate(-898.545 -1203.578)" fill="#a9cadd"></path></g><path id="Path_14792" data-name="Path 14792" d="M1005.993,1283.608h30.8c.167,0,.267-.244.176-.426h0a1.259,1.259,0,0,0-1-.752l-30.023-2.012c-7.517,0-23.012-14.339-16.385-32.786,9.4-26.17,13.336-38.2,14.467-41.907.529-1.734-1.558-2.786-2.056-1.4l-14.8,41.215C980.857,1263.12,990.482,1283.608,1005.993,1283.608Z" transform="translate(-955.729 -1203.649)" fill="#cfeafa"></path><path id="Path_14793" data-name="Path 14793" d="M949.206,1284.115c-3.872-1.364-5.7-6.2-4.078-10.8a9.1,9.1,0,0,1,6.519-6.087c-3.656-.749-7.6,1.816-9.107,6.087-1.619,4.6.206,9.432,4.078,10.8a6.46,6.46,0,0,0,3.423.229A6.364,6.364,0,0,1,949.206,1284.115Z" transform="translate(-927.184 -1245.494)" fill="#6b8ea3"></path></g><g id="Group_15385" data-name="Group 15385" transform="translate(1505.237 263.39)"><g id="Group_15384" data-name="Group 15384" opacity="0.6"><path id="Path_14810" data-name="Path 14810" d="M1918.591,1156.249a20,20,0,0,0-.544-3.692c-.3-1.2-.679-2.378-1.024-3.6a24.62,24.62,0,0,1-.8-3.8c-.049-.326-.066-.654-.1-.983s-.044-.658-.053-.988-.019-.661,0-.989l.014-.494.007-.247,0-.124.012-.147a8.373,8.373,0,0,1,.512-2.147c.233-.648.489-1.249.751-1.832.529-1.162,1.038-2.27,1.492-3.375q.336-.83.61-1.663c.188-.553.354-1.109.487-1.669a18,18,0,0,0,.494-3.383c.019-.282.013-.57.018-.85l-.009-.405-.023-.406a12.117,12.117,0,0,0-.24-1.634,22.306,22.306,0,0,0-1.029-3.33c-.425-1.132-.913-2.289-1.356-3.513a18.931,18.931,0,0,1-1.02-3.907,11.13,11.13,0,0,1-.092-2.1,13.609,13.609,0,0,1,.29-2.032c.279-1.288.649-2.5,1.028-3.707l1.155-3.575c.188-.595.363-1.192.511-1.8a14.165,14.165,0,0,0,.365-1.843,11.129,11.129,0,0,1,.151,1.907c-.007.639-.044,1.277-.093,1.913-.1,1.271-.282,2.526-.454,3.768-.09.62-.177,1.237-.253,1.85s-.152,1.218-.2,1.813a12.131,12.131,0,0,0-.039,1.709,10.4,10.4,0,0,0,.248,1.634,44.227,44.227,0,0,0,2.71,6.7,22.442,22.442,0,0,1,1.287,3.812,15.533,15.533,0,0,1,.327,2.079c.03.354.047.709.047,1.066s-.007.686-.032,1.028a20.634,20.634,0,0,1-2.074,7.78c-.551,1.191-1.19,2.312-1.777,3.394-.292.54-.586,1.067-.824,1.58a7.035,7.035,0,0,0-.527,1.454l-.019.086-.014.111-.029.221-.059.443c-.045.3-.065.591-.089.888s-.056.594-.061.892-.032.6-.022.895a29.3,29.3,0,0,0,.244,3.636c.147,1.232.331,2.5.379,3.782A14.913,14.913,0,0,1,1918.591,1156.249Z" transform="translate(-1916.063 -1098.006)" fill="#fff"></path></g></g><g id="Group_15392" data-name="Group 15392" transform="translate(1489.304 324.259)"><g id="Group_15386" data-name="Group 15386" transform="translate(32.78 6.447)"><path id="Path_14811" data-name="Path 14811" d="M1980.227,1301.555c-3.825-2.523-9.863-1.577-10.7-2.259-.332-.27-.785-.4-.864-.707a10.236,10.236,0,0,0-.31,1.686v2.066c.184-.5.575-.215.817-.215.064,0,6.911-.276,9.749,2.373,2.7,2.521,3.528,5.19,3.186,9.557-.3,3.843-3.072,9.1-6.211,11.174-3,1.981-7.6.441-8.259.027a1.632,1.632,0,0,1-.608-1.117c-.007-.029-.014-.063-.022-.1l-.006.007c-.2,1.019-.058,1.549-.295,2.657-.152.71-.363,2.4-.52,2.961.1.272.239.145.623-.2.745-.678.648-.768,1.27-.768,1.6,0,6.409.394,9.36-1,4.973-2.35,7.479-7.987,7.391-13.464C1984.662,1303.965,1983.786,1303.9,1980.227,1301.555Z" transform="translate(-1965.979 -1297.673)" fill="#2d95d1"></path><path id="Path_14812" data-name="Path 14812" d="M1968.75,1329.7a5.164,5.164,0,0,0-.174.676l.006-.007a1.766,1.766,0,0,0,.63,1.214c7.1,4.464,13.814-2.808,14.47-11.2.619-7.913-2.217-12.206-13.039-12.206a.623.623,0,0,0-.713.49v1.613c.381.124.308-1.508.573-1.516,10.692-.316,13.246,4.243,12.673,11.566-.624,7.992-6.963,14.991-13.72,10.741C1968.993,1330.779,1969.191,1329.808,1968.75,1329.7Z" transform="translate(-1967.56 -1303.999)" fill="#216d99"></path><path id="Path_14813" data-name="Path 14813" d="M1969.7,1297.24c-.612-.5-.8-1.56-1.519-1.3a.5.5,0,0,0-.222.257v2.306a10.284,10.284,0,0,1,.311-1.686,2.1,2.1,0,0,0,.763.87c2.3,1.868,15.633-3,15.241,13.568-.429,18.147-14.522,15.484-16.683,15.484-.62,0-.734.134-1.187.733-.31.411-.51.7-.613.425a6.416,6.416,0,0,1-.2.61c.694.511.711-.927,1.533-1.147,1.343-.359,17.193,3.653,17.659-16.089C1985.185,1294.186,1971.689,1298.855,1969.7,1297.24Z" transform="translate(-1965.589 -1295.896)" fill="#216d99"></path></g><g id="Group_15391" data-name="Group 15391"><path id="Path_14814" data-name="Path 14814" d="M1877.755,1332.636c-.25,0-2.037-1.569-3.269-6.27-.9-3.422-1.46-8-2.068-11.886-1.818-11.628-2.009-31.753-2.029-35.62h34.789c-.02,3.867-.21,23.994-2.028,35.62-.609,3.89-1.543,8.433-2.439,11.854-1.231,4.7-3.16,6.151-3.411,6.151Z" transform="translate(-1869.993 -1278.208)" fill="#2d95d1"></path><g id="Group_15387" data-name="Group 15387" transform="translate(0.396 0.652)" style="mix-blend-mode: multiply;isolation: isolate"><path id="Path_14815" data-name="Path 14815" d="M1875.424,1326.841c-.9-3.505-1.831-8.158-2.439-12.143-1.734-11.364-1.988-30.646-2.025-35.838h-.571c.02,3.867.211,23.992,2.029,35.62.609,3.89,1.543,8.433,2.439,11.854,1.231,4.7,2.03,5.943,2.281,5.943h.063A29.379,29.379,0,0,1,1875.424,1326.841Z" transform="translate(-1870.389 -1278.86)" fill="#ccc"></path></g><g id="Group_15388" data-name="Group 15388" transform="translate(28.373 0.652)" style="mix-blend-mode: multiply;isolation: isolate"><path id="Path_14816" data-name="Path 14816" d="M1954.409,1326.841c.9-3.505,1.831-8.158,2.439-12.143,1.735-11.364,1.988-30.646,2.025-35.838h.572c-.02,3.867-.21,23.992-2.028,35.62-.609,3.89-1.543,8.433-2.439,11.854-1.232,4.7-2.031,5.943-2.281,5.943h-.063A29.3,29.3,0,0,0,1954.409,1326.841Z" transform="translate(-1952.633 -1278.86)" fill="#ccc"></path></g><g id="Group_15389" data-name="Group 15389"><path id="Path_14817" data-name="Path 14817" d="M1887.015,1276.944h-16.89a.9.9,0,0,0-.9.906c.025,4.42.236,23.989,2.04,35.528,1.17,7.482,2.151,18.287,6.595,18.287h18.536c4.135,0,5.2-10.8,6.371-18.287,1.787-11.431,2.011-30.739,2.039-35.4a1.028,1.028,0,0,0-1.028-1.035Zm15.365,36.272c-.608,3.891-1.543,8.433-2.439,11.854-1.231,4.7-3.546,5.912-3.794,5.943-1.094.138-17.52.08-17.892,0-.245-.053-2.935-1.242-4.167-5.943-.9-3.421-1.831-7.964-2.439-11.854-1.684-10.769-1.972-28.823-2.021-34.506a1.1,1.1,0,0,1,1.106-1.114h32.537a1.129,1.129,0,0,1,1.13,1.139C1904.351,1284.445,1904.061,1302.465,1902.38,1313.216Z" transform="translate(-1869.224 -1276.944)" fill="#216d99"></path></g><g id="Group_15390" data-name="Group 15390" transform="translate(3.636 0.652)" opacity="0.3"><path id="Path_14818" data-name="Path 14818" d="M1886.565,1278.86h-6.653c.055,8.44,1.3,52.793,7.811,52.793a4.164,4.164,0,0,0,1.958-.192c1.117-.616.955-1.282.791-1.616C1884.445,1317.583,1886.705,1290.818,1886.565,1278.86Z" transform="translate(-1879.912 -1278.86)" fill="#fff"></path></g><path id="Path_14819" data-name="Path 14819" d="M1938.068,1278.86h5.134c-.368,60.658-10.247,53.4-9.234,51.058C1938.27,1319.98,1937.933,1291.278,1938.068,1278.86Z" transform="translate(-1911.896 -1278.208)" fill="#e6e6e6" style="mix-blend-mode: multiply;isolation: isolate"></path></g></g><path id="Path_9657" data-name="Path 9657" d="M11.307,120.774a8.342,8.342,0,0,1-.931-.052L0,119.549l.036-.858,10.375,1.172a8.784,8.784,0,0,0,6.041-1.659l17.69-12.284a8.867,8.867,0,0,1,7.715-1.438l15.092,4.356c3.348.967,6.805-.221,9.581-3.3L85.764,84.525a16.369,16.369,0,0,0,1.071-1.3l16.679-22.547c4.3-5.865,10.539-6.754,15.453-2.2l15.569,14.469a12.235,12.235,0,0,0,1.411,1.132l21.266,14.581a9.009,9.009,0,0,0,4.688,1.661l11.041.537-.015.859-11.041-.537a9.38,9.38,0,0,1-4.876-1.728L135.747,74.861a12.872,12.872,0,0,1-1.467-1.179L118.71,59.213c-4.726-4.375-10.722-3.52-14.86,2.121L87.171,83.88a17.269,17.269,0,0,1-1.113,1.357L66.822,106.255c-2.887,3.2-6.482,4.432-9.965,3.425l-15.092-4.356a8.527,8.527,0,0,0-7.419,1.384L16.658,119a9.358,9.358,0,0,1-5.351,1.778Z" transform="translate(1116.48 53.38)" fill="#6d98d9"></path><g id="Group_12061" data-name="Group 12061" transform="translate(1154.981 129.684)"><g id="Group_12060" data-name="Group 12060"><g id="Group_12059" data-name="Group 12059"><path id="Path_10651" data-name="Path 10651" d="M640.682,347.764h-1.275c-.089,0-.16-.145-.16-.321s.071-.321.16-.321h1.275c.089,0,.16.145.16.321S640.771,347.764,640.682,347.764Zm-2.553,0h-1.276c-.088,0-.16-.145-.16-.321s.072-.321.16-.321h1.276c.089,0,.16.145.16.321S638.218,347.764,638.13,347.764Zm-2.553,0H634.3c-.089,0-.16-.145-.16-.321s.071-.321.16-.321h1.276c.089,0,.16.145.16.321S635.666,347.764,635.577,347.764Zm-2.553,0h-1.278c-.088,0-.159-.145-.159-.321s.071-.321.159-.321h1.278c.088,0,.159.145.159.321S633.111,347.764,633.024,347.764Zm-2.554,0h-1.277c-.088,0-.158-.145-.158-.321s.071-.321.158-.321h1.277c.089,0,.16.145.16.321S630.559,347.764,630.47,347.764Zm-2.553,0H626.64c-.088,0-.16-.145-.16-.321s.072-.321.16-.321h1.277c.088,0,.16.145.16.321S628,347.764,627.917,347.764Zm-2.553,0h-1.276c-.089,0-.16-.145-.16-.321s.071-.321.16-.321h1.276c.088,0,.159.145.159.321S625.452,347.764,625.364,347.764Zm-2.554,0h-1.276c-.088,0-.159-.145-.159-.321s.071-.321.159-.321h1.276c.089,0,.16.145.16.321S622.9,347.764,622.81,347.764Zm-2.553,0H618.98c-.089,0-.16-.145-.16-.321s.071-.321.16-.321h1.276c.088,0,.16.145.16.321S620.345,347.764,620.257,347.764Zm-2.553,0h-1.277c-.089,0-.16-.145-.16-.321s.071-.321.16-.321H617.7c.088,0,.16.145.16.321S617.792,347.764,617.7,347.764Zm-2.554,0h-1.276c-.088,0-.16-.145-.16-.321s.072-.321.16-.321h1.276c.089,0,.16.145.16.321S615.239,347.764,615.15,347.764Zm-2.553,0h-1.276c-.088,0-.16-.145-.16-.321s.072-.321.16-.321H612.6c.089,0,.16.145.16.321S612.686,347.764,612.6,347.764Zm-2.553,0h-1.276c-.088,0-.16-.145-.16-.321s.072-.321.16-.321h1.276c.088,0,.159.145.159.321S610.132,347.764,610.044,347.764Zm-2.553,0h-1.278c-.088,0-.158-.145-.158-.321s.071-.321.158-.321h1.278c.088,0,.159.145.159.321S607.579,347.764,607.491,347.764Zm-2.554,0h-1.276c-.088,0-.159-.145-.159-.321s.071-.321.159-.321h1.276c.088,0,.16.145.16.321S605.025,347.764,604.937,347.764Zm-2.553,0h-1.277c-.089,0-.16-.145-.16-.321s.071-.321.16-.321h1.277c.088,0,.16.145.16.321S602.472,347.764,602.384,347.764Zm-2.553,0h-1.276c-.089,0-.16-.145-.16-.321s.071-.321.16-.321h1.276c.088,0,.159.145.159.321S599.919,347.764,599.831,347.764Zm-2.554,0H596c-.088,0-.16-.145-.16-.321s.072-.321.16-.321h1.277c.089,0,.16.145.16.321S597.366,347.764,597.277,347.764Zm-2.553,0h-1.276c-.089,0-.16-.145-.16-.321s.071-.321.16-.321h1.276c.089,0,.16.145.16.321S594.813,347.764,594.724,347.764Zm-2.553,0h-1.276c-.089,0-.16-.145-.16-.321s.071-.321.16-.321h1.276c.088,0,.159.145.159.321S592.259,347.764,592.171,347.764Zm-2.553,0h-1.277c-.088,0-.159-.145-.159-.321s.071-.321.159-.321h1.277c.088,0,.159.145.159.321S589.706,347.764,589.618,347.764Zm-2.554,0h-1.276c-.088,0-.16-.145-.16-.321s.072-.321.16-.321h1.276c.088,0,.16.145.16.321S587.152,347.764,587.064,347.764Zm-2.553,0h-1.276c-.089,0-.16-.142-.16-.321s.071-.319.16-.319h1.276c.088,0,.16.142.16.319S584.6,347.762,584.511,347.762Zm-2.554,0h-1.277c-.088,0-.159-.142-.159-.321s.071-.319.159-.319h1.277c.089,0,.16.142.16.319S582.046,347.762,581.958,347.762Zm-2.553,0h-1.276c-.089,0-.16-.142-.16-.321s.071-.319.16-.319H579.4c.089,0,.16.142.16.319S579.493,347.762,579.4,347.762Zm-2.553,0h-1.276c-.089,0-.16-.142-.16-.321s.071-.319.16-.319h1.276c.088,0,.16.142.16.319S576.939,347.762,576.851,347.762Zm-2.554,0h-1.276c-.088,0-.159-.142-.159-.321s.071-.319.159-.319H574.3c.089,0,.16.142.16.319S574.386,347.762,574.3,347.762Zm-2.553,0h-1.276c-.088,0-.16-.142-.16-.321s.072-.319.16-.319h1.276c.089,0,.16.142.16.319S571.833,347.762,571.745,347.762Zm-2.553,0h-1.277c-.088,0-.16-.142-.16-.321s.072-.319.16-.319h1.277c.088,0,.158.142.158.319S569.28,347.762,569.192,347.762Zm-2.553,0h-1.278c-.088,0-.159-.142-.159-.321s.071-.319.159-.319h1.278c.088,0,.159.142.159.319S566.726,347.762,566.639,347.762Zm-2.554,0h-1.276c-.088,0-.159-.142-.159-.321s.071-.319.159-.319h1.276c.089,0,.16.142.16.319S564.174,347.762,564.085,347.762Zm-2.553,0h-1.276c-.089,0-.16-.142-.16-.321s.071-.319.16-.319h1.276c.088,0,.16.142.16.319S561.62,347.762,561.532,347.762Zm-2.553,0H557.7c-.089,0-.16-.142-.16-.321s.071-.319.16-.319h1.276c.088,0,.16.142.16.319S559.067,347.762,558.979,347.762Zm-2.554,0h-1.276c-.088,0-.16-.142-.16-.321s.072-.319.16-.319h1.276c.089,0,.16.142.16.319S556.514,347.762,556.425,347.762Zm-2.553,0H552.6c-.088,0-.16-.142-.16-.321s.072-.319.16-.319h1.276c.089,0,.16.142.16.319S553.961,347.762,553.872,347.762Zm-2.553,0h-1.277c-.088,0-.16-.142-.16-.321s.072-.319.16-.319h1.277c.088,0,.159.142.159.319S551.407,347.762,551.319,347.762Zm-2.553,0h-1.278c-.088,0-.159-.142-.159-.321s.071-.319.159-.319h1.278c.088,0,.159.142.159.319S548.854,347.762,548.766,347.762Zm-2.554,0h-1.276c-.088,0-.159-.142-.159-.321s.071-.319.159-.319h1.276c.088,0,.16.142.16.319S546.3,347.762,546.212,347.762Zm-2.553,0h-1.276c-.089,0-.16-.142-.16-.321s.071-.319.16-.319h1.276c.088,0,.16.142.16.319S543.747,347.762,543.659,347.762Zm-2.554,0H539.83c-.089,0-.16-.142-.16-.321s.071-.319.16-.319H541.1c.089,0,.16.142.16.319S541.194,347.762,541.1,347.762Zm-2.553,0h-1.276c-.088,0-.16-.142-.16-.321s.072-.319.16-.319h1.276c.089,0,.16.142.16.319S538.641,347.762,538.552,347.762Zm-2.553,0h-1.277c-.089,0-.16-.142-.16-.321s.071-.319.16-.319H536c.089,0,.16.142.16.319S536.088,347.762,536,347.762Zm-2.554,0h-1.276c-.088,0-.159-.142-.159-.321s.071-.319.159-.319h1.276c.089,0,.16.142.16.319S533.534,347.762,533.445,347.762Zm-2.552,0h-1.278c-.088,0-.159-.142-.159-.321s.071-.319.159-.319h1.278c.088,0,.159.142.159.319S530.981,347.762,530.893,347.762Z" transform="translate(-529.457 -347.122)" fill="#acbabe"></path></g></g></g><g id="Group_12064" data-name="Group 12064" transform="translate(1154.981 147.312)"><g id="Group_12063" data-name="Group 12063"><g id="Group_12062" data-name="Group 12062"><path id="Path_10652" data-name="Path 10652" d="M640.682,355.063h-1.275c-.089,0-.16-.142-.16-.319s.071-.321.16-.321h1.275c.089,0,.16.142.16.321S640.771,355.063,640.682,355.063Zm-2.553,0h-1.276c-.088,0-.16-.142-.16-.319s.072-.321.16-.321h1.276c.089,0,.16.142.16.321S638.218,355.063,638.13,355.063Zm-2.553,0H634.3c-.089,0-.16-.142-.16-.319s.071-.321.16-.321h1.276c.089,0,.16.142.16.321S635.666,355.063,635.577,355.063Zm-2.553,0h-1.278c-.088,0-.159-.142-.159-.319s.071-.321.159-.321h1.278c.088,0,.159.142.159.321S633.111,355.063,633.024,355.063Zm-2.554,0h-1.277c-.088,0-.158-.142-.158-.319s.071-.321.158-.321h1.277c.089,0,.16.142.16.321S630.559,355.063,630.47,355.063Zm-2.553,0H626.64c-.088,0-.16-.142-.16-.319s.072-.321.16-.321h1.277c.088,0,.16.142.16.321S628,355.063,627.917,355.063Zm-2.553,0h-1.276c-.089,0-.16-.142-.16-.319s.071-.321.16-.321h1.276c.088,0,.159.142.159.321S625.452,355.063,625.364,355.063Zm-2.554,0h-1.276c-.088,0-.159-.142-.159-.319s.071-.321.159-.321h1.276c.089,0,.16.142.16.321S622.9,355.063,622.81,355.063Zm-2.553,0H618.98c-.089,0-.16-.142-.16-.319s.071-.321.16-.321h1.276c.088,0,.16.142.16.321S620.345,355.063,620.257,355.063Zm-2.553,0h-1.277c-.089,0-.16-.142-.16-.319s.071-.321.16-.321H617.7c.088,0,.16.142.16.321S617.792,355.063,617.7,355.063Zm-2.554,0h-1.276c-.088,0-.16-.142-.16-.319s.072-.321.16-.321h1.276c.089,0,.16.142.16.321S615.239,355.063,615.15,355.063Zm-2.553,0h-1.276c-.088,0-.16-.142-.16-.319s.072-.321.16-.321H612.6c.089,0,.16.142.16.321S612.686,355.063,612.6,355.063Zm-2.553,0h-1.276c-.088,0-.16-.142-.16-.319s.072-.321.16-.321h1.276c.088,0,.159.142.159.321S610.132,355.063,610.044,355.063Zm-2.553,0h-1.278c-.088,0-.158-.142-.158-.319s.071-.321.158-.321h1.278c.088,0,.159.142.159.321S607.579,355.063,607.491,355.063Zm-2.554,0h-1.276c-.088,0-.159-.142-.159-.319s.071-.321.159-.321h1.276c.088,0,.16.142.16.321S605.025,355.063,604.937,355.063Zm-2.553,0h-1.277c-.089,0-.16-.142-.16-.319s.071-.321.16-.321h1.277c.088,0,.16.142.16.321S602.472,355.063,602.384,355.063Zm-2.553,0h-1.276c-.089,0-.16-.142-.16-.319s.071-.321.16-.321h1.276c.088,0,.159.142.159.321S599.919,355.063,599.831,355.063Zm-2.554,0H596c-.088,0-.16-.142-.16-.319s.072-.321.16-.321h1.277c.089,0,.16.142.16.321S597.366,355.063,597.277,355.063Zm-2.553,0h-1.276c-.089,0-.16-.142-.16-.319s.071-.321.16-.321h1.276c.089,0,.16.142.16.321S594.813,355.063,594.724,355.063Zm-2.553,0h-1.276c-.089,0-.16-.142-.16-.319s.071-.321.16-.321h1.276c.088,0,.159.142.159.321S592.259,355.063,592.171,355.063Zm-2.553,0h-1.277c-.088,0-.159-.142-.159-.319s.071-.321.159-.321h1.277c.088,0,.159.142.159.321S589.706,355.063,589.618,355.063Zm-2.554,0h-1.276c-.088,0-.16-.142-.16-.319s.072-.321.16-.321h1.276c.088,0,.16.142.16.321S587.152,355.063,587.064,355.063Zm-2.553,0h-1.276c-.089,0-.16-.142-.16-.319s.071-.321.16-.321h1.276c.088,0,.16.142.16.321S584.6,355.063,584.511,355.063Zm-2.554,0h-1.277c-.088,0-.159-.142-.159-.319s.071-.321.159-.321h1.277c.089,0,.16.142.16.321S582.046,355.063,581.958,355.063Zm-2.553,0h-1.276c-.089,0-.16-.142-.16-.319s.071-.321.16-.321H579.4c.089,0,.16.142.16.321S579.493,355.063,579.4,355.063Zm-2.553,0h-1.276c-.089,0-.16-.142-.16-.319s.071-.321.16-.321h1.276c.088,0,.16.142.16.321S576.939,355.063,576.851,355.063Zm-2.554,0h-1.276c-.088,0-.159-.142-.159-.319s.071-.321.159-.321H574.3c.089,0,.16.142.16.321S574.386,355.063,574.3,355.063Zm-2.553,0h-1.276c-.088,0-.16-.142-.16-.319s.072-.321.16-.321h1.276c.089,0,.16.142.16.321S571.833,355.063,571.745,355.063Zm-2.553,0h-1.277c-.088,0-.16-.142-.16-.319s.072-.321.16-.321h1.277c.088,0,.158.142.158.321S569.28,355.063,569.192,355.063Zm-2.553,0h-1.278c-.088,0-.159-.142-.159-.319s.071-.321.159-.321h1.278c.088,0,.159.142.159.321S566.726,355.063,566.639,355.063Zm-2.554,0h-1.276c-.088,0-.159-.142-.159-.319s.071-.321.159-.321h1.276c.089,0,.16.142.16.321S564.174,355.063,564.085,355.063Zm-2.553,0h-1.276c-.089,0-.16-.142-.16-.319s.071-.321.16-.321h1.276c.088,0,.16.142.16.321S561.62,355.063,561.532,355.063Zm-2.553,0H557.7c-.089,0-.16-.142-.16-.319s.071-.321.16-.321h1.276c.088,0,.16.142.16.321S559.067,355.063,558.979,355.063Zm-2.554,0h-1.276c-.088,0-.16-.142-.16-.319s.072-.321.16-.321h1.276c.089,0,.16.142.16.321S556.514,355.063,556.425,355.063Zm-2.553,0H552.6c-.088,0-.16-.142-.16-.319s.072-.321.16-.321h1.276c.089,0,.16.142.16.321S553.961,355.063,553.872,355.063Zm-2.553,0h-1.277c-.088,0-.16-.142-.16-.319s.072-.321.16-.321h1.277c.088,0,.159.142.159.321S551.407,355.063,551.319,355.063Zm-2.553,0h-1.278c-.088,0-.159-.142-.159-.319s.071-.321.159-.321h1.278c.088,0,.159.142.159.321S548.854,355.063,548.766,355.063Zm-2.554,0h-1.276c-.088,0-.159-.142-.159-.319s.071-.321.159-.321h1.276c.088,0,.16.142.16.321S546.3,355.063,546.212,355.063Zm-2.553,0h-1.276c-.089,0-.16-.142-.16-.319s.071-.321.16-.321h1.276c.088,0,.16.142.16.321S543.747,355.063,543.659,355.063Zm-2.554,0H539.83c-.089,0-.16-.142-.16-.319s.071-.321.16-.321H541.1c.089,0,.16.142.16.321S541.194,355.063,541.1,355.063Zm-2.553,0h-1.276c-.088,0-.16-.142-.16-.319s.072-.321.16-.321h1.276c.089,0,.16.142.16.321S538.641,355.063,538.552,355.063Zm-2.553,0h-1.277c-.089,0-.16-.142-.16-.319s.071-.321.16-.321H536c.089,0,.16.142.16.321S536.088,355.063,536,355.063Zm-2.554,0h-1.276c-.088,0-.159-.142-.159-.319s.071-.321.159-.321h1.276c.089,0,.16.142.16.321S533.534,355.063,533.445,355.063Zm-2.552,0h-1.278c-.088,0-.159-.142-.159-.319s.071-.321.159-.321h1.278c.088,0,.159.142.159.321S530.981,355.063,530.893,355.063Z" transform="translate(-529.457 -354.423)" fill="#acbabe"></path></g></g></g><g id="Group_12067" data-name="Group 12067" transform="translate(1154.981 164.94)"><g id="Group_12066" data-name="Group 12066"><g id="Group_12065" data-name="Group 12065"><path id="Path_10653" data-name="Path 10653" d="M640.682,362.364h-1.275c-.089,0-.16-.142-.16-.321s.071-.319.16-.319h1.275c.089,0,.16.142.16.319S640.771,362.364,640.682,362.364Zm-2.553,0h-1.276c-.088,0-.16-.142-.16-.321s.072-.319.16-.319h1.276c.089,0,.16.142.16.319S638.218,362.364,638.13,362.364Zm-2.553,0H634.3c-.089,0-.16-.142-.16-.321s.071-.319.16-.319h1.276c.089,0,.16.142.16.319S635.666,362.364,635.577,362.364Zm-2.553,0h-1.278c-.088,0-.159-.142-.159-.321s.071-.319.159-.319h1.278c.088,0,.159.142.159.319S633.111,362.364,633.024,362.364Zm-2.554,0h-1.277c-.088,0-.158-.142-.158-.321s.071-.319.158-.319h1.277c.089,0,.16.142.16.319S630.559,362.364,630.47,362.364Zm-2.553,0H626.64c-.088,0-.16-.142-.16-.321s.072-.319.16-.319h1.277c.088,0,.16.142.16.319S628,362.364,627.917,362.364Zm-2.553,0h-1.276c-.089,0-.16-.142-.16-.321s.071-.319.16-.319h1.276c.088,0,.159.142.159.319S625.452,362.364,625.364,362.364Zm-2.554,0h-1.276c-.088,0-.159-.142-.159-.321s.071-.319.159-.319h1.276c.089,0,.16.142.16.319S622.9,362.364,622.81,362.364Zm-2.553,0H618.98c-.089,0-.16-.142-.16-.321s.071-.319.16-.319h1.276c.088,0,.16.142.16.319S620.345,362.364,620.257,362.364Zm-2.553,0h-1.277c-.089,0-.16-.142-.16-.321s.071-.319.16-.319H617.7c.088,0,.16.142.16.319S617.792,362.364,617.7,362.364Zm-2.554,0h-1.276c-.088,0-.16-.142-.16-.321s.072-.319.16-.319h1.276c.089,0,.16.142.16.319S615.239,362.364,615.15,362.364Zm-2.553,0h-1.276c-.088,0-.16-.142-.16-.321s.072-.319.16-.319H612.6c.089,0,.16.142.16.319S612.686,362.364,612.6,362.364Zm-2.553,0h-1.276c-.088,0-.16-.142-.16-.321s.072-.319.16-.319h1.276c.088,0,.159.142.159.319S610.132,362.364,610.044,362.364Zm-2.553,0h-1.278c-.088,0-.158-.142-.158-.321s.071-.319.158-.319h1.278c.088,0,.159.142.159.319S607.579,362.364,607.491,362.364Zm-2.554,0h-1.276c-.088,0-.159-.142-.159-.321s.071-.319.159-.319h1.276c.088,0,.16.142.16.319S605.025,362.364,604.937,362.364Zm-2.553,0h-1.277c-.089,0-.16-.142-.16-.321s.071-.319.16-.319h1.277c.088,0,.16.142.16.319S602.472,362.364,602.384,362.364Zm-2.553,0h-1.276c-.089,0-.16-.142-.16-.321s.071-.319.16-.319h1.276c.088,0,.159.142.159.319S599.919,362.364,599.831,362.364Zm-2.554,0H596c-.088,0-.16-.142-.16-.321s.072-.319.16-.319h1.277c.089,0,.16.142.16.319S597.366,362.364,597.277,362.364Zm-2.553,0h-1.276c-.089,0-.16-.142-.16-.321s.071-.319.16-.319h1.276c.089,0,.16.142.16.319S594.813,362.364,594.724,362.364Zm-2.553,0h-1.276c-.089,0-.16-.142-.16-.321s.071-.319.16-.319h1.276c.088,0,.159.142.159.319S592.259,362.364,592.171,362.364Zm-2.553,0h-1.277c-.088,0-.159-.142-.159-.321s.071-.319.159-.319h1.277c.088,0,.159.142.159.319S589.706,362.364,589.618,362.364Zm-2.554,0h-1.276c-.088,0-.16-.142-.16-.321s.072-.319.16-.319h1.276c.088,0,.16.142.16.319S587.152,362.364,587.064,362.364Zm-2.553,0h-1.276c-.089,0-.16-.142-.16-.321s.071-.319.16-.319h1.276c.088,0,.16.142.16.319S584.6,362.364,584.511,362.364Zm-2.554,0h-1.277c-.088,0-.159-.142-.159-.321s.071-.319.159-.319h1.277c.089,0,.16.142.16.319S582.046,362.364,581.958,362.364Zm-2.553,0h-1.276c-.089,0-.16-.142-.16-.321s.071-.319.16-.319H579.4c.089,0,.16.142.16.319S579.493,362.364,579.4,362.364Zm-2.553,0h-1.276c-.089,0-.16-.142-.16-.321s.071-.319.16-.319h1.276c.088,0,.16.142.16.319S576.939,362.364,576.851,362.364Zm-2.554,0h-1.276c-.088,0-.159-.142-.159-.321s.071-.319.159-.319H574.3c.089,0,.16.142.16.319S574.386,362.364,574.3,362.364Zm-2.553,0h-1.276c-.088,0-.16-.142-.16-.321s.072-.319.16-.319h1.276c.089,0,.16.142.16.319S571.833,362.364,571.745,362.364Zm-2.553,0h-1.277c-.088,0-.16-.142-.16-.321s.072-.319.16-.319h1.277c.088,0,.158.142.158.319S569.28,362.364,569.192,362.364Zm-2.553,0h-1.278c-.088,0-.159-.142-.159-.321s.071-.319.159-.319h1.278c.088,0,.159.142.159.319S566.726,362.364,566.639,362.364Zm-2.554,0h-1.276c-.088,0-.159-.142-.159-.321s.071-.319.159-.319h1.276c.089,0,.16.142.16.319S564.174,362.364,564.085,362.364Zm-2.553,0h-1.276c-.089,0-.16-.142-.16-.321s.071-.319.16-.319h1.276c.088,0,.16.142.16.319S561.62,362.364,561.532,362.364Zm-2.553,0H557.7c-.089,0-.16-.142-.16-.321s.071-.319.16-.319h1.276c.088,0,.16.142.16.319S559.067,362.364,558.979,362.364Zm-2.554,0h-1.276c-.088,0-.16-.142-.16-.321s.072-.319.16-.319h1.276c.089,0,.16.142.16.319S556.514,362.364,556.425,362.364Zm-2.553,0H552.6c-.088,0-.16-.142-.16-.321s.072-.319.16-.319h1.276c.089,0,.16.142.16.319S553.961,362.364,553.872,362.364Zm-2.553,0h-1.277c-.088,0-.16-.142-.16-.321s.072-.319.16-.319h1.277c.088,0,.159.142.159.319S551.407,362.364,551.319,362.364Zm-2.553,0h-1.278c-.088,0-.159-.142-.159-.321s.071-.319.159-.319h1.278c.088,0,.159.142.159.319S548.854,362.364,548.766,362.364Zm-2.554,0h-1.276c-.088,0-.159-.142-.159-.321s.071-.319.159-.319h1.276c.088,0,.16.142.16.319S546.3,362.364,546.212,362.364Zm-2.553,0h-1.276c-.089,0-.16-.142-.16-.321s.071-.319.16-.319h1.276c.088,0,.16.142.16.319S543.747,362.364,543.659,362.364Zm-2.554,0H539.83c-.089,0-.16-.142-.16-.321s.071-.319.16-.319H541.1c.089,0,.16.142.16.319S541.194,362.364,541.1,362.364Zm-2.553,0h-1.276c-.088,0-.16-.142-.16-.321s.072-.319.16-.319h1.276c.089,0,.16.142.16.319S538.641,362.364,538.552,362.364Zm-2.553,0h-1.277c-.089,0-.16-.142-.16-.321s.071-.319.16-.319H536c.089,0,.16.142.16.319S536.088,362.364,536,362.364Zm-2.554,0h-1.276c-.088,0-.159-.142-.159-.321s.071-.319.159-.319h1.276c.089,0,.16.142.16.319S533.534,362.364,533.445,362.364Zm-2.552,0h-1.278c-.088,0-.159-.142-.159-.321s.071-.319.159-.319h1.278c.088,0,.159.142.159.319S530.981,362.364,530.893,362.364Z" transform="translate(-529.457 -361.724)" fill="#acbabe"></path></g></g></g><g id="Group_12070" data-name="Group 12070" transform="translate(1154.981 182.568)"><g id="Group_12069" data-name="Group 12069"><g id="Group_12068" data-name="Group 12068"><path id="Path_10654" data-name="Path 10654" d="M640.682,369.665h-1.275c-.089,0-.16-.143-.16-.321s.071-.319.16-.319h1.275c.089,0,.16.142.16.319S640.771,369.665,640.682,369.665Zm-2.553,0h-1.276c-.088,0-.16-.143-.16-.321s.072-.319.16-.319h1.276c.089,0,.16.142.16.319S638.218,369.665,638.13,369.665Zm-2.553,0H634.3c-.089,0-.16-.143-.16-.321s.071-.319.16-.319h1.276c.089,0,.16.142.16.319S635.666,369.665,635.577,369.665Zm-2.553,0h-1.278c-.088,0-.159-.143-.159-.321s.071-.319.159-.319h1.278c.088,0,.159.142.159.319S633.111,369.665,633.024,369.665Zm-2.554,0h-1.277c-.088,0-.158-.143-.158-.321s.071-.319.158-.319h1.277c.089,0,.16.142.16.319S630.559,369.665,630.47,369.665Zm-2.553,0H626.64c-.088,0-.16-.143-.16-.321s.072-.319.16-.319h1.277c.088,0,.16.142.16.319S628,369.665,627.917,369.665Zm-2.553,0h-1.276c-.089,0-.16-.143-.16-.321s.071-.319.16-.319h1.276c.088,0,.159.142.159.319S625.452,369.665,625.364,369.665Zm-2.554,0h-1.276c-.088,0-.159-.143-.159-.321s.071-.319.159-.319h1.276c.089,0,.16.142.16.319S622.9,369.665,622.81,369.665Zm-2.553,0H618.98c-.089,0-.16-.143-.16-.321s.071-.319.16-.319h1.276c.088,0,.16.142.16.319S620.345,369.665,620.257,369.665Zm-2.553,0h-1.277c-.089,0-.16-.143-.16-.321s.071-.319.16-.319H617.7c.088,0,.16.142.16.319S617.792,369.665,617.7,369.665Zm-2.554,0h-1.276c-.088,0-.16-.143-.16-.321s.072-.319.16-.319h1.276c.089,0,.16.142.16.319S615.239,369.665,615.15,369.665Zm-2.553,0h-1.276c-.088,0-.16-.143-.16-.321s.072-.319.16-.319H612.6c.089,0,.16.142.16.319S612.686,369.665,612.6,369.665Zm-2.553,0h-1.276c-.088,0-.16-.143-.16-.321s.072-.319.16-.319h1.276c.088,0,.159.142.159.319S610.132,369.665,610.044,369.665Zm-2.553,0h-1.278c-.088,0-.158-.143-.158-.321s.071-.319.158-.319h1.278c.088,0,.159.142.159.319S607.579,369.665,607.491,369.665Zm-2.554,0h-1.276c-.088,0-.159-.143-.159-.321s.071-.319.159-.319h1.276c.088,0,.16.142.16.319S605.025,369.665,604.937,369.665Zm-2.553,0h-1.277c-.089,0-.16-.143-.16-.321s.071-.319.16-.319h1.277c.088,0,.16.142.16.319S602.472,369.665,602.384,369.665Zm-2.553,0h-1.276c-.089,0-.16-.143-.16-.321s.071-.319.16-.319h1.276c.088,0,.159.142.159.319S599.919,369.665,599.831,369.665Zm-2.554,0H596c-.088,0-.16-.143-.16-.321s.072-.319.16-.319h1.277c.089,0,.16.142.16.319S597.366,369.665,597.277,369.665Zm-2.553,0h-1.276c-.089,0-.16-.143-.16-.321s.071-.319.16-.319h1.276c.089,0,.16.142.16.319S594.813,369.665,594.724,369.665Zm-2.553,0h-1.276c-.089,0-.16-.143-.16-.321s.071-.319.16-.319h1.276c.088,0,.159.142.159.319S592.259,369.665,592.171,369.665Zm-2.553,0h-1.277c-.088,0-.159-.143-.159-.321s.071-.319.159-.319h1.277c.088,0,.159.142.159.319S589.706,369.665,589.618,369.665Zm-2.554,0h-1.276c-.088,0-.16-.143-.16-.321s.072-.319.16-.319h1.276c.088,0,.16.142.16.319S587.152,369.665,587.064,369.665Zm-2.553,0h-1.276c-.089,0-.16-.143-.16-.321s.071-.319.16-.319h1.276c.088,0,.16.142.16.319S584.6,369.665,584.511,369.665Zm-2.554,0h-1.277c-.088,0-.159-.143-.159-.321s.071-.319.159-.319h1.277c.089,0,.16.142.16.319S582.046,369.665,581.958,369.665Zm-2.553,0h-1.276c-.089,0-.16-.143-.16-.321s.071-.319.16-.319H579.4c.089,0,.16.142.16.319S579.493,369.665,579.4,369.665Zm-2.553,0h-1.276c-.089,0-.16-.143-.16-.321s.071-.319.16-.319h1.276c.088,0,.16.142.16.319S576.939,369.665,576.851,369.665Zm-2.554,0h-1.276c-.088,0-.159-.143-.159-.321s.071-.319.159-.319H574.3c.089,0,.16.142.16.319S574.386,369.665,574.3,369.665Zm-2.553,0h-1.276c-.088,0-.16-.143-.16-.321s.072-.319.16-.319h1.276c.089,0,.16.142.16.319S571.833,369.665,571.745,369.665Zm-2.553,0h-1.277c-.088,0-.16-.143-.16-.321s.072-.319.16-.319h1.277c.088,0,.158.142.158.319S569.28,369.665,569.192,369.665Zm-2.553,0h-1.278c-.088,0-.159-.143-.159-.321s.071-.319.159-.319h1.278c.088,0,.159.142.159.319S566.726,369.665,566.639,369.665Zm-2.554,0h-1.276c-.088,0-.159-.143-.159-.321s.071-.319.159-.319h1.276c.089,0,.16.142.16.319S564.174,369.665,564.085,369.665Zm-2.553,0h-1.276c-.089,0-.16-.143-.16-.321s.071-.319.16-.319h1.276c.088,0,.16.142.16.319S561.62,369.665,561.532,369.665Zm-2.553,0H557.7c-.089,0-.16-.143-.16-.321s.071-.319.16-.319h1.276c.088,0,.16.142.16.319S559.067,369.665,558.979,369.665Zm-2.554,0h-1.276c-.088,0-.16-.143-.16-.321s.072-.319.16-.319h1.276c.089,0,.16.142.16.319S556.514,369.665,556.425,369.665Zm-2.553,0H552.6c-.088,0-.16-.143-.16-.321s.072-.319.16-.319h1.276c.089,0,.16.142.16.319S553.961,369.665,553.872,369.665Zm-2.553,0h-1.277c-.088,0-.16-.143-.16-.321s.072-.319.16-.319h1.277c.088,0,.159.142.159.319S551.407,369.665,551.319,369.665Zm-2.553,0h-1.278c-.088,0-.159-.143-.159-.321s.071-.319.159-.319h1.278c.088,0,.159.142.159.319S548.854,369.665,548.766,369.665Zm-2.554,0h-1.276c-.088,0-.159-.143-.159-.321s.071-.319.159-.319h1.276c.088,0,.16.142.16.319S546.3,369.665,546.212,369.665Zm-2.553,0h-1.276c-.089,0-.16-.143-.16-.321s.071-.319.16-.319h1.276c.088,0,.16.142.16.319S543.747,369.665,543.659,369.665Zm-2.554,0H539.83c-.089,0-.16-.143-.16-.321s.071-.319.16-.319H541.1c.089,0,.16.142.16.319S541.194,369.665,541.1,369.665Zm-2.553,0h-1.276c-.088,0-.16-.143-.16-.321s.072-.319.16-.319h1.276c.089,0,.16.142.16.319S538.641,369.665,538.552,369.665Zm-2.553,0h-1.277c-.089,0-.16-.143-.16-.321s.071-.319.16-.319H536c.089,0,.16.142.16.319S536.088,369.665,536,369.665Zm-2.554,0h-1.276c-.088,0-.159-.143-.159-.321s.071-.319.159-.319h1.276c.089,0,.16.142.16.319S533.534,369.665,533.445,369.665Zm-2.552,0h-1.278c-.088,0-.159-.143-.159-.321s.071-.319.159-.319h1.278c.088,0,.159.142.159.319S530.981,369.665,530.893,369.665Z" transform="translate(-529.457 -369.025)" fill="#acbabe"></path></g></g></g><g id="Group_12073" data-name="Group 12073" transform="translate(1154.981 200.193)"><g id="Group_12072" data-name="Group 12072"><g id="Group_12071" data-name="Group 12071"><path id="Path_10655" data-name="Path 10655" d="M640.682,376.967h-1.275c-.089,0-.16-.142-.16-.321s.071-.319.16-.319h1.275c.089,0,.16.143.16.319S640.771,376.967,640.682,376.967Zm-2.553,0h-1.276c-.088,0-.16-.142-.16-.321s.072-.319.16-.319h1.276c.089,0,.16.143.16.319S638.218,376.967,638.13,376.967Zm-2.553,0H634.3c-.089,0-.16-.142-.16-.321s.071-.319.16-.319h1.276c.089,0,.16.143.16.319S635.666,376.967,635.577,376.967Zm-2.553,0h-1.278c-.088,0-.159-.142-.159-.321s.071-.319.159-.319h1.278c.088,0,.159.143.159.319S633.111,376.967,633.024,376.967Zm-2.554,0h-1.277c-.088,0-.158-.142-.158-.321s.071-.319.158-.319h1.277c.089,0,.16.143.16.319S630.559,376.967,630.47,376.967Zm-2.553,0H626.64c-.088,0-.16-.142-.16-.321s.072-.319.16-.319h1.277c.088,0,.16.143.16.319S628,376.967,627.917,376.967Zm-2.553,0h-1.276c-.089,0-.16-.142-.16-.321s.071-.319.16-.319h1.276c.088,0,.159.143.159.319S625.452,376.967,625.364,376.967Zm-2.554,0h-1.276c-.088,0-.159-.142-.159-.321s.071-.319.159-.319h1.276c.089,0,.16.143.16.319S622.9,376.967,622.81,376.967Zm-2.553,0H618.98c-.089,0-.16-.142-.16-.321s.071-.319.16-.319h1.276c.088,0,.16.143.16.319S620.345,376.967,620.257,376.967Zm-2.553,0h-1.277c-.089,0-.16-.142-.16-.321s.071-.319.16-.319H617.7c.088,0,.16.143.16.319S617.792,376.967,617.7,376.967Zm-2.554,0h-1.276c-.088,0-.16-.142-.16-.321s.072-.319.16-.319h1.276c.089,0,.16.143.16.319S615.239,376.967,615.15,376.967Zm-2.553,0h-1.276c-.088,0-.16-.142-.16-.321s.072-.319.16-.319H612.6c.089,0,.16.143.16.319S612.686,376.967,612.6,376.967Zm-2.553,0h-1.276c-.088,0-.16-.142-.16-.321s.072-.319.16-.319h1.276c.088,0,.159.143.159.319S610.132,376.967,610.044,376.967Zm-2.553,0h-1.278c-.088,0-.158-.142-.158-.321s.071-.319.158-.319h1.278c.088,0,.159.143.159.319S607.579,376.967,607.491,376.967Zm-2.554,0h-1.276c-.088,0-.159-.142-.159-.321s.071-.319.159-.319h1.276c.088,0,.16.143.16.319S605.025,376.967,604.937,376.967Zm-2.553,0h-1.277c-.089,0-.16-.142-.16-.321s.071-.319.16-.319h1.277c.088,0,.16.143.16.319S602.472,376.967,602.384,376.967Zm-2.553,0h-1.276c-.089,0-.16-.142-.16-.321s.071-.319.16-.319h1.276c.088,0,.159.143.159.319S599.919,376.967,599.831,376.967Zm-2.554,0H596c-.088,0-.16-.142-.16-.321s.072-.319.16-.319h1.277c.089,0,.16.143.16.319S597.366,376.967,597.277,376.967Zm-2.553,0h-1.276c-.089,0-.16-.142-.16-.321s.071-.319.16-.319h1.276c.089,0,.16.143.16.319S594.813,376.967,594.724,376.967Zm-2.553,0h-1.276c-.089,0-.16-.142-.16-.321s.071-.319.16-.319h1.276c.088,0,.159.143.159.319S592.259,376.967,592.171,376.967Zm-2.553,0h-1.277c-.088,0-.159-.142-.159-.321s.071-.319.159-.319h1.277c.088,0,.159.143.159.319S589.706,376.967,589.618,376.967Zm-2.554,0h-1.276c-.088,0-.16-.142-.16-.321s.072-.319.16-.319h1.276c.088,0,.16.143.16.319S587.152,376.967,587.064,376.967Zm-2.553,0h-1.276c-.089,0-.16-.142-.16-.319s.071-.321.16-.321h1.276c.088,0,.16.142.16.321S584.6,376.965,584.511,376.965Zm-2.554,0h-1.277c-.088,0-.159-.142-.159-.319s.071-.321.159-.321h1.277c.089,0,.16.142.16.321S582.046,376.965,581.958,376.965Zm-2.553,0h-1.276c-.089,0-.16-.142-.16-.319s.071-.321.16-.321H579.4c.089,0,.16.142.16.321S579.493,376.965,579.4,376.965Zm-2.553,0h-1.276c-.089,0-.16-.142-.16-.319s.071-.321.16-.321h1.276c.088,0,.16.142.16.321S576.939,376.965,576.851,376.965Zm-2.554,0h-1.276c-.088,0-.159-.142-.159-.319s.071-.321.159-.321H574.3c.089,0,.16.142.16.321S574.386,376.965,574.3,376.965Zm-2.553,0h-1.276c-.088,0-.16-.142-.16-.319s.072-.321.16-.321h1.276c.089,0,.16.142.16.321S571.833,376.965,571.745,376.965Zm-2.553,0h-1.277c-.088,0-.16-.142-.16-.319s.072-.321.16-.321h1.277c.088,0,.158.142.158.321S569.28,376.965,569.192,376.965Zm-2.553,0h-1.278c-.088,0-.159-.142-.159-.319s.071-.321.159-.321h1.278c.088,0,.159.142.159.321S566.726,376.965,566.639,376.965Zm-2.554,0h-1.276c-.088,0-.159-.142-.159-.319s.071-.321.159-.321h1.276c.089,0,.16.142.16.321S564.174,376.965,564.085,376.965Zm-2.553,0h-1.276c-.089,0-.16-.142-.16-.319s.071-.321.16-.321h1.276c.088,0,.16.142.16.321S561.62,376.965,561.532,376.965Zm-2.553,0H557.7c-.089,0-.16-.142-.16-.319s.071-.321.16-.321h1.276c.088,0,.16.142.16.321S559.067,376.965,558.979,376.965Zm-2.554,0h-1.276c-.088,0-.16-.142-.16-.319s.072-.321.16-.321h1.276c.089,0,.16.142.16.321S556.514,376.965,556.425,376.965Zm-2.553,0H552.6c-.088,0-.16-.142-.16-.319s.072-.321.16-.321h1.276c.089,0,.16.142.16.321S553.961,376.965,553.872,376.965Zm-2.553,0h-1.277c-.088,0-.16-.142-.16-.319s.072-.321.16-.321h1.277c.088,0,.159.142.159.321S551.407,376.965,551.319,376.965Zm-2.553,0h-1.278c-.088,0-.159-.142-.159-.319s.071-.321.159-.321h1.278c.088,0,.159.142.159.321S548.854,376.965,548.766,376.965Zm-2.554,0h-1.276c-.088,0-.159-.142-.159-.319s.071-.321.159-.321h1.276c.088,0,.16.142.16.321S546.3,376.965,546.212,376.965Zm-2.553,0h-1.276c-.089,0-.16-.142-.16-.319s.071-.321.16-.321h1.276c.088,0,.16.142.16.321S543.747,376.965,543.659,376.965Zm-2.554,0H539.83c-.089,0-.16-.142-.16-.319s.071-.321.16-.321H541.1c.089,0,.16.142.16.321S541.194,376.965,541.1,376.965Zm-2.553,0h-1.276c-.088,0-.16-.142-.16-.319s.072-.321.16-.321h1.276c.089,0,.16.142.16.321S538.641,376.965,538.552,376.965Zm-2.553,0h-1.277c-.089,0-.16-.142-.16-.319s.071-.321.16-.321H536c.089,0,.16.142.16.321S536.088,376.965,536,376.965Zm-2.554,0h-1.276c-.088,0-.159-.142-.159-.319s.071-.321.159-.321h1.276c.089,0,.16.142.16.321S533.534,376.965,533.445,376.965Zm-2.552,0h-1.278c-.088,0-.159-.142-.159-.319s.071-.321.159-.321h1.278c.088,0,.159.142.159.321S530.981,376.965,530.893,376.965Z" transform="translate(-529.457 -376.325)" fill="#acbabe"></path></g></g></g><g id="Group_12075" data-name="Group 12075" transform="translate(1159.802 204.27)"><g id="Group_12074" data-name="Group 12074"><rect id="Rectangle_2682" data-name="Rectangle 2682" width="21.635" height="13.98" fill="#dd2221"></rect></g></g><g id="Group_12077" data-name="Group 12077" transform="translate(1185.522 185.63)"><g id="Group_12076" data-name="Group 12076"><rect id="Rectangle_2683" data-name="Rectangle 2683" width="21.635" height="32.621" fill="#ffbc43"></rect></g></g><g id="Group_12079" data-name="Group 12079" transform="translate(1211.242 153.011)"><g id="Group_12078" data-name="Group 12078"><rect id="Rectangle_2684" data-name="Rectangle 2684" width="21.635" height="65.24" fill="#4fa7c8"></rect></g></g><g id="Group_12081" data-name="Group 12081" transform="translate(1236.962 136)"><g id="Group_12080" data-name="Group 12080"><rect id="Rectangle_2685" data-name="Rectangle 2685" width="21.635" height="82.251" fill="#74b754"></rect></g></g><g id="Group_12084" data-name="Group 12084" transform="translate(1154.901 217.662)"><g id="Group_12083" data-name="Group 12083"><g id="Group_12082" data-name="Group 12082"><path id="Path_10656" data-name="Path 10656" d="M640.7,384.521H529.629c-.132,0-.239-.215-.239-.48s.107-.48.239-.48H640.7c.132,0,.24.213.24.48S640.829,384.521,640.7,384.521Z" transform="translate(-529.39 -383.56)" fill="#656d73"></path></g></g></g><g id="Group_15370" data-name="Group 15370" transform="translate(1116.156 379.261)"><rect id="Rectangle_4162" data-name="Rectangle 4162" width="136.004" height="13.951" transform="translate(297.84)" fill="#0664c2"></rect><rect id="Rectangle_4161" data-name="Rectangle 4161" width="297.84" height="13.951" fill="#003a74"></rect></g></g></svg> 